<svg id="Layer_1" data-name="Layer 1" xmlns="http://www.w3.org/2000/svg" viewBox="0 0 203.04 143.07"><defs><style>.cls-1,.cls-2,.cls-3,.cls-4,.cls-5,.cls-6,.cls-7{isolation:isolate;}.cls-1{font-size:29.1px;}.cls-1,.cls-5{font-family:AmaticSC-Bold, Amatic SC;font-weight:700;}.cls-2{font-size:28.43px;fill:#fdc700;}.cls-2,.cls-6{font-family:ChelseaMarket-Regular, Chelsea Market;}.cls-3{font-size:25.35px;fill:#804cbf;}.cls-3,.cls-4{font-family:PatrickHand-Regular, Patrick Hand;}.cls-4{font-size:11.1px;fill:#4bbcc0;}.cls-5{font-size:29.4px;}.cls-6{font-size:28.05px;fill:#fa8807;}.cls-7,.cls-8{fill:none;}.cls-8{stroke:#000;stroke-linecap:round;stroke-miterlimit:10;}</style></defs><title>Header</title><text class="cls-1" transform="translate(62.67 25.57)">WE CREATE</text><text class="cls-2" transform="translate(0.81 54.82)">PERSONALIZED</text><text class="cls-3" transform="translate(1.05 117.06)">PERSONAL HISTORIES</text><text class="cls-4" transform="translate(1.4 139.61)">Click here to learn more</text><text class="cls-5" transform="translate(110.23 89.09)">TO PRESERVE</text><text class="cls-6" transform="translate(0 87.35)">BOOKS</text><path class="cls-7" transform="translate(0.93 -1.34)"/><path class="cls-8" d="M101.38,135.7a8.68,8.68,0,0,0,6.31,2.63c.48,0,3.42-.18,4.88-2.31.16-.24,1.08-1.59.56-2.5s-2.62-1.14-3.69-.19-.88,2.79-.25,3.87c1.41,2.42,5.63,2.09,6.75,2a14.13,14.13,0,0,0,8.75-4.37l-5.19-3.31" transform="translate(0.93 -1.34)"/><line class="cls-8" x1="123.3" y1="139.73" x2="125.95" y2="133.71"/></svg>