<?xml version="1.0" encoding="UTF-8" standalone="no"?>
<svg
   xmlns:dc="http://purl.org/dc/elements/1.1/"
   xmlns:cc="http://creativecommons.org/ns#"
   xmlns:rdf="http://www.w3.org/1999/02/22-rdf-syntax-ns#"
   xmlns:svg="http://www.w3.org/2000/svg"
   xmlns="http://www.w3.org/2000/svg"
   xmlns:sodipodi="http://sodipodi.sourceforge.net/DTD/sodipodi-0.dtd"
   xmlns:inkscape="http://www.inkscape.org/namespaces/inkscape"
   inkscape:version="1.0 (4035a4f, 2020-05-01)"
   height="80.85424"
   width="124.07964"
   sodipodi:docname="winnerSheraa-d.svg"
   version="1.1"
   viewBox="0 0 124.07963 80.85424"
   data-name="Capa 1"
   id="Capa_1">
  <metadata
     id="metadata42">
    <rdf:RDF>
      <cc:Work
         rdf:about="">
        <dc:format>image/svg+xml</dc:format>
        <dc:type
           rdf:resource="http://purl.org/dc/dcmitype/StillImage" />
        <dc:title>winner at Sheraa</dc:title>
      </cc:Work>
    </rdf:RDF>
  </metadata>
  <sodipodi:namedview
     inkscape:current-layer="Capa_1"
     inkscape:window-maximized="0"
     inkscape:window-y="32"
     inkscape:window-x="39"
     inkscape:cy="40.43"
     inkscape:cx="61.81717"
     inkscape:zoom="7.1705822"
     showgrid="false"
     id="namedview40"
     inkscape:window-height="901"
     inkscape:window-width="1437"
     inkscape:pageshadow="2"
     inkscape:pageopacity="0"
     guidetolerance="10"
     gridtolerance="10"
     objecttolerance="10"
     borderopacity="1"
     bordercolor="#666666"
     pagecolor="#ffffff" />
  <defs
     id="defs15">
    <style
       id="style10">.cls-1{fill:#fff;}.cls-1,.cls-3{fill-rule:evenodd;}.cls-2{mask:url(#mask);}.cls-3,.cls-4{fill:#114c8c;}.cls-4{font-size:20.27px;font-family:PatrickHand-Regular, Patrick Hand;}</style>
    <mask
       maskUnits="userSpaceOnUse"
       height="41.94"
       width="51.98"
       y="13.75"
       x="47.51"
       id="mask">
      <g
         id="b">
        <polygon
           points="99.49,55.69 99.49,13.75 47.51,13.75 47.51,55.69 "
           class="cls-1"
           id="a" />
      </g>
    </mask>
  </defs>
  <title
     id="title17">winner at Sheraa</title>
  <g
     transform="translate(-11.60783,-13.75)"
     id="g21"
     mask="url(#mask)"
     class="cls-2">
    <path
       id="path19"
       d="m 91.63,39.36 a 1.19,1.19 0 0 1 -0.67,0.33 V 39.5 a 0.92,0.92 0 0 0 0.57,-0.27 c 0.19,-0.19 0.25,-0.42 0.07,-0.6 -0.18,-0.18 -0.39,-0.06 -0.6,0.08 -0.21,0.14 -0.5,0.34 -0.78,0.06 a 0.54,0.54 0 0 1 0.06,-0.81 1,1 0 0 1 0.53,-0.3 v 0.19 a 0.83,0.83 0 0 0 -0.44,0.24 c -0.18,0.18 -0.23,0.39 -0.06,0.55 0.17,0.16 0.36,0 0.62,-0.13 0.26,-0.13 0.49,-0.3 0.77,0 a 0.58,0.58 0 0 1 -0.09,0.87"
       class="cls-3" />
  </g>
  <g
     transform="translate(-11.60783,-13.75)"
     id="g25"
     mask="url(#mask)"
     class="cls-2">
    <path
       class="cls-3"
       d="m 91.99,37.48 -0.61,-0.61 -0.14,0.13 1.36,1.36 0.13,-0.13 -0.63,-0.63 0.67,-0.66 0.63,0.62 0.13,-0.13 -1.36,-1.36 -0.13,0.13 0.61,0.62 z"
       style="fill:#114c8c;fill-rule:evenodd"
       id="polygon23" />
  </g>
  <g
     transform="translate(-11.60783,-13.75)"
     id="g29"
     mask="url(#mask)"
     class="cls-2">
    <path
       class="cls-3"
       d="m 94.96,36 -0.12,-0.12 -0.71,0.71 -0.51,-0.51 0.61,-0.6 -0.12,-0.12 -0.6,0.6 -0.5,-0.49 0.71,-0.71 -0.12,-0.12 -0.84,0.84 1.36,1.36 z"
       style="fill:#114c8c;fill-rule:evenodd"
       id="polygon27" />
  </g>
  <g
     transform="translate(-11.60783,-13.75)"
     id="g33"
     mask="url(#mask)"
     class="cls-2">
    <path
       id="path31"
       d="m 96.22,34.74 -0.89,-0.33 -0.35,0.35 0.61,0.61 -0.13,0.13 -1.36,-1.36 0.54,-0.54 a 0.51,0.51 0 0 1 0.75,0 0.53,0.53 0 0 1 0.06,0.69 l 0.92,0.33 z m -1.49,-1 -0.38,0.38 0.51,0.51 0.37,-0.37 a 0.37,0.37 0 0 0 0,-0.56 0.35,0.35 0 0 0 -0.53,0 z m 2.58,-0.74 -0.61,0.61 0.21,0.43 -0.14,0.14 c -0.29,-0.61 -0.58,-1.23 -0.86,-1.85 l 0.12,-0.12 1.85,0.86 -0.14,0.14 z m -1.18,-0.56 c 0.05,0.09 0.14,0.28 0.23,0.47 0.09,0.19 0.21,0.43 0.26,0.55 l 0.54,-0.53 -0.6,-0.29 -0.42,-0.2 z m 2.62,-0.88 -0.61,0.61 0.21,0.43 -0.14,0.14 C 97.92,32.12 97.64,31.5 97.35,30.89 l 0.12,-0.13 1.86,0.87 -0.14,0.14 z M 97.58,31 97.8,31.47 98.07,32.02 98.6,31.48 98,31.21 Z M 49.76,34.16 H 59.4 A 0.58,0.58 0 0 0 59.4,33 10.3,10.3 0 0 1 49.75,26.55 11,11 0 0 1 52,14.74 a 0.59,0.59 0 0 0 0,-0.82 0.59,0.59 0 0 0 -0.83,0 12.09,12.09 0 0 0 -2.49,13.08 11.49,11.49 0 0 0 5.58,6 h -5.91 a 0.59,0.59 0 0 0 -0.54,0.35 0.59,0.59 0 0 0 0.13,0.64 l 5.53,5.53 a 0.58,0.58 0 0 0 0.42,0.17 0.58,0.58 0 0 0 0.41,-0.17 0.59,0.59 0 0 0 0,-0.82 z m 25.85,-1.62 a 0.56,0.56 0 0 0 0.41,-0.17 L 77.39,31 a 0.59,0.59 0 0 0 0,-0.83 0.59,0.59 0 0 0 -0.82,0 l -1.38,1.38 a 0.59,0.59 0 0 0 0,0.82 0.58,0.58 0 0 0 0.42,0.17 m 8.09,0 a 0.58,0.58 0 0 0 0.41,-0.17 L 85.48,31 a 0.59,0.59 0 0 0 0,-0.83 0.59,0.59 0 0 0 -0.82,0 l -1.38,1.38 a 0.59,0.59 0 0 0 0,0.82 0.58,0.58 0 0 0 0.42,0.17 m 6.39,0.47 -4.72,4.72 a 2.67,2.67 0 0 1 -4.56,-1.88 l 2,-2 a 0.59,0.59 0 0 0 0,-0.83 A 0.59,0.59 0 0 0 82,33 l -4.72,4.72 a 2.67,2.67 0 0 1 -4.56,-1.88 l 2,-2 a 0.59,0.59 0 0 0 0,-0.83 0.59,0.59 0 0 0 -0.82,0 l -4.72,4.72 a 2.67,2.67 0 0 1 -4.56,-1.88 l 2,-2 A 0.58,0.58 0 0 0 65.8,33.03 l -5.7,5.7 a 0.57,0.57 0 0 0 0,0.82 0.58,0.58 0 0 0 0.82,0 l 2.67,-2.67 a 3.75,3.75 0 0 0 2.23,2.51 3.76,3.76 0 0 0 4.18,-0.84 l 1.67,-1.67 a 3.76,3.76 0 0 0 2.23,2.5 3.76,3.76 0 0 0 4.19,-0.83 l 1.67,-1.67 a 3.76,3.76 0 0 0 2.24,2.5 3.76,3.76 0 0 0 4.19,-0.83 l 4.71,-4.71 a 0.59,0.59 0 0 0 0,-0.83 0.59,0.59 0 0 0 -0.82,0 m 3.48,-2.84 a 0.59,0.59 0 0 0 -0.82,0 l -1.38,1.38 a 0.59,0.59 0 0 0 0,0.82 0.58,0.58 0 0 0 0.42,0.17 0.58,0.58 0 0 0 0.41,-0.17 L 93.57,31 a 0.59,0.59 0 0 0 0,-0.83 m -27.3,0 a 0.59,0.59 0 0 0 -0.82,0 l -8.55,8.55 a 0.57,0.57 0 0 0 0,0.82 0.54,0.54 0 0 0 0.41,0.17 0.56,0.56 0 0 0 0.41,-0.17 L 66.27,31 a 0.59,0.59 0 0 0 0,-0.83"
       class="cls-3" />
  </g>
  <g
     class="cls-4"
     style="font-size:20.27px;font-family:PatrickHand-Regular, 'Patrick Hand';fill:#114c8c"
     id="text37"
     aria-label="Winner at SheraaStartup weekend">
    <path
       id="path46"
       style="font-size:20.27px;font-family:PatrickHand-Regular, 'Patrick Hand';fill:#114c8c"
       d="m 11.06742,36.689909 q 0.42567,0 0.58783,0.6081 -0.12162,2.04727 -0.26351,2.91888 -0.14189,0.85134 -0.24324,1.49998 -0.08108,0.64864 -0.12162,0.89188 -0.02027,0.24324 -0.16216,0.99323 -0.14189,0.74999 -0.30405,1.49998 -0.14189,0.72972 -0.18243,0.87161 -0.02027,0.14189 -0.36486,1.8243 -0.3445898,1.66214 -0.5270198,2.04727 -0.16216,0.36486 -0.58783,0.36486 -0.4054,0 -0.64864,-0.24324 -0.93242,-1.27701 -1.76349,-3.16212 -0.2027001,-0.48648 -0.4662101,-1.05404 -0.24324,-0.56756 -0.36486,-0.85134 l -0.18243,-0.42567 q -0.42567,0.72972 -1.17566,2.47294 -0.74999,1.74322 -1.31755,2.79726 -0.36486,0.46621 -0.8108,0.46621 -0.9324201,0 -1.41890008,-4.96615 0,-0.02027 -0.04054,-0.22297 -0.02027,-0.2027 -0.08108,-0.70945 -0.04054,-0.50675 -0.12162,-1.11485 Q 0.44594002,42.568209 0,38.068269 q 0,-0.4054 0.30405001,-0.72972 0.30405001,-0.34459 0.66891002,-0.34459 0.44593997,0 0.60809997,0.58783 0.5472901,6.58775 1.0945801,9.7296 0.16216,-0.28378 0.83107,-1.86484 0.66891,-1.60133 1.2162,-2.53375 0.54729,-0.95269 1.05404,-0.95269 0.34459,0 0.58783,0.36486 1.2770101,3.62833 2.1891601,5.10804 0.02027,-0.22297 0.24324,-1.2162 l 0.26351,-1.29728 q 0,-0.12162 0.04054,-0.34459 0.06081,-0.22297 0.08108,-0.42567 0.04054,-0.22297 0.08108,-0.4054 l 0.22297,-1.27701 q 0.48648,-2.99996 0.6080998,-4.92561 0.08108,-0.34459 0.36486,-0.58783 0.30405,-0.26351 0.6081,-0.26351 z" />
    <path
       id="path48"
       style="font-size:20.27px;font-family:PatrickHand-Regular, 'Patrick Hand';fill:#114c8c"
       d="m 13.991051,37.399359 q 0.36486,0 0.68918,0.34459 0.32432,0.34459 0.32432,0.72972 0,0.36486 -0.36486,0.74999 -0.34459,0.38513 -0.72972,0.38513 -0.38513,0 -0.70945,-0.32432 -0.30405,-0.32432 -0.30405,-0.83107 0,-0.97296 1.05404,-1.05404 0.02027,0 0.04054,0 z m 0.85134,10.62148 0.02027,1.4189 q 0,0.38513 -0.30405,0.64864 -0.30405,0.24324 -0.64864,0.24324 -0.50675,0 -0.52702,-0.50675 -0.26351,-6.46613 -0.26351,-7.15531 0,-0.68918 0.06081,-1.68241 0.04054,-0.36486 0.46621,-0.36486 1.07431,0 1.2162,0.87161 0.06081,0.44594 0.06081,0.70945 l -0.08108,1.27701 z" />
    <path
       id="path50"
       style="font-size:20.27px;font-family:PatrickHand-Regular, 'Patrick Hand';fill:#114c8c"
       d="m 17.976324,49.581629 -0.22297,-8.22962 q 0,-0.38513 0.26351,-0.62837 0.26351,-0.24324 0.52702,-0.24324 0.64864,0 0.74999,0.54729 0.08108,0.54729 0.08108,1.13512 1.09458,-1.43917 2.73645,-1.43917 2.51348,0 2.51348,5.73641 0,0.52702 0,1.60133 0,1.05404 -0.12162,1.54052 -0.14189,0.6081 -0.87161,0.6081 -0.48648,0 -0.48648,-0.64864 l 0.02027,-1.13512 q 0,-2.35132 -0.16216,-3.20266 -0.14189,-0.87161 -0.28378,-1.37836 -0.34459,-1.09458 -1.11485,-1.09458 -1.0135,0 -1.4189,0.72972 -0.44594,0.79053 -0.52702,1.86484 -0.14189,1.88511 -0.14189,3.99319 0,0.4054 -0.30405,0.64864 -0.30405,0.24324 -0.72972,0.24324 -0.50675,0 -0.50675,-0.64864 z" />
    <path
       id="path52"
       style="font-size:20.27px;font-family:PatrickHand-Regular, 'Patrick Hand';fill:#114c8c"
       d="m 27.121578,49.581629 -0.22297,-8.22962 q 0,-0.38513 0.26351,-0.62837 0.26351,-0.24324 0.52702,-0.24324 0.64864,0 0.74999,0.54729 0.08108,0.54729 0.08108,1.13512 1.09458,-1.43917 2.73645,-1.43917 2.51348,0 2.51348,5.73641 0,0.52702 0,1.60133 0,1.05404 -0.12162,1.54052 -0.14189,0.6081 -0.87161,0.6081 -0.48648,0 -0.48648,-0.64864 l 0.02027,-1.13512 q 0,-2.35132 -0.16216,-3.20266 -0.14189,-0.87161 -0.28378,-1.37836 -0.34459,-1.09458 -1.11485,-1.09458 -1.0135,0 -1.4189,0.72972 -0.44594,0.79053 -0.52702,1.86484 -0.14189,1.88511 -0.14189,3.99319 0,0.4054 -0.30405,0.64864 -0.30405,0.24324 -0.72972,0.24324 -0.50675,0 -0.50675,-0.64864 z" />
    <path
       id="path54"
       style="font-size:20.27px;font-family:PatrickHand-Regular, 'Patrick Hand';fill:#114c8c"
       d="m 38.41545,40.824989 q 1.07431,0 2.04727,0.62837 0.97296,0.62837 0.97296,1.56079 0,0.91215 -0.79053,1.78376 -0.79053,0.85134 -2.10808,1.03377 -0.56756,0.08108 -1.70268,0.08108 0.22297,1.72295 0.87161,2.27024 0.2027,0.22297 0.54729,0.22297 1.25674,0 2.10808,-0.79053 0.85134,-0.8108 1.2162,-0.8108 0.16216,0 0.48648,0.30405 0.32432,0.30405 0.32432,0.56756 0,0.52702 -1.27701,1.52025 -0.56756,0.46621 -1.37836,0.79053 -0.79053,0.30405 -1.47971,0.30405 -1.76349,0 -2.59456,-2.27024 -0.52702,-1.39863 -0.52702,-3.08104 0,-1.68241 0.79053,-2.89861 0.79053,-1.2162 2.49321,-1.2162 z m 0.10135,1.39863 q -0.77026,0 -1.31755,0.87161 -0.2027,0.30405 -0.38513,1.37836 2.8378,0 2.8378,-1.39863 0,-0.85134 -1.13512,-0.85134 z" />
    <path
       id="path56"
       style="font-size:20.27px;font-family:PatrickHand-Regular, 'Patrick Hand';fill:#114c8c"
       d="m 46.187729,47.250579 0.02027,2.08781 q 0,0.36486 -0.34459,0.66891 -0.32432,0.30405 -0.64864,0.30405 -0.46621,0 -0.58783,-0.72972 -0.02027,-0.16216 -0.16216,-2.95942 -0.14189,-2.81753 -0.54729,-4.41886 -0.18243,-0.77026 -0.18243,-0.91215 0,-0.66891 0.8108,-0.66891 0.34459,0 0.54729,0.26351 0.2027,0.26351 0.24324,0.54729 0.06081,0.26351 0.10135,0.72972 0.04054,0.46621 0.06081,0.58783 0.42567,-1.0135 1.27701,-1.52025 0.85134,-0.50675 1.86484,-0.50675 1.66214,0 1.66214,0.85134 0,0.42567 -0.30405,0.68918 -0.28378,0.24324 -0.66891,0.24324 -1.72295,0 -2.4324,1.09458 -0.70945,1.09458 -0.70945,3.6486 z" />
    <path
       id="path58"
       style="font-size:20.27px;font-family:PatrickHand-Regular, 'Patrick Hand';fill:#114c8c"
       d="m 61.699031,40.743909 q 0.89188,0 0.89188,1.52025 0,0.16216 0,0.34459 l -0.04054,1.4189 q -0.02027,0.66891 -0.02027,1.31755 l 0.30405,4.58102 q 0,0.50675 -1.03377,0.50675 -0.06081,0 -0.30405,0 -0.22297,0 -0.32432,-0.18243 -0.08108,-0.18243 -0.02027,-0.44594 0.08108,-0.26351 -0.04054,-0.58783 -0.93242,0.99323 -2.47294,0.99323 -2.85807,0 -2.85807,-4.41886 0,-2.45267 0.91215,-3.70941 0.93242,-1.25674 2.65537,-1.25674 0.8108,0 1.6216,0.28378 0.26351,-0.36486 0.72972,-0.36486 z m -2.10808,1.84457 q -1.15539,0 -1.72295,0.66891 -0.56756,0.66891 -0.56756,2.45267 0,2.99996 1.6216,2.99996 0.42567,0 0.93242,-0.38513 0.52702,-0.38513 0.72972,-0.87161 0.38513,-1.09458 0.38513,-2.39186 0,-1.29728 -0.32432,-1.88511 -0.30405,-0.58783 -1.05404,-0.58783 z" />
    <path
       id="path60"
       style="font-size:20.27px;font-family:PatrickHand-Regular, 'Patrick Hand';fill:#114c8c"
       d="m 64.508009,40.743909 1.0135,0.02027 q 0.34459,0 0.38513,-0.02027 v -4.15535 q 0.02027,-0.34459 0.34459,-0.58783 0.32432,-0.24324 0.6081,-0.24324 0.28378,0 0.44594,0.18243 0.18243,0.18243 0.16216,0.56756 -0.02027,0.38513 -0.02027,4.21616 l 2.37159,-0.08108 q 0.6081,0 0.6081,0.70945 0,0.52702 -0.32432,0.79053 -0.30405,0.26351 -0.66891,0.28378 -0.34459,0.02027 -0.68918,0.02027 l -1.23647,-0.02027 q 0,0.83107 0.16216,3.28374 0.18243,2.45267 0.28378,3.18239 0.10135,0.70945 0.04054,0.93242 -0.06081,0.2027 -0.22297,0.28378 -0.26351,0.12162 -0.70945,0.12162 -0.44594,0 -0.52702,-0.48648 -0.4054,-2.65537 -0.54729,-7.2972 -0.18243,0.02027 -1.39863,0.02027 -1.2162,0 -1.2162,-0.70945 0,-1.0135 1.13512,-1.0135 z" />
    <path
       id="path62"
       style="font-size:20.27px;font-family:PatrickHand-Regular, 'Patrick Hand';fill:#114c8c"
       d="m 80.262234,36.791259 q 1.31755,0 2.2297,0.44594 0.932421,0.44594 0.932421,1.13512 0,0.30405 -0.16216,0.52702 -0.14189,0.22297 -0.445941,0.22297 -0.28378,0 -1.25674,-0.44594 -0.97296,-0.46621 -1.78376,-0.46621 -0.79053,0 -1.64187,0.50675 -0.85134,0.50675 -0.85134,1.23647 0,0.99323 1.03377,1.45944 0.77026,0.34459 2.20943,0.62837 1.43917,0.26351 2.35132,1.11485 0.912151,0.83107 0.912151,2.53375 0,2.59456 -1.560791,3.83103 -0.87161,0.68918 -2.47294,0.68918 -1.58106,0 -3.16212,-0.87161 -1.03377,-0.54729 -1.03377,-1.09458 0,-0.2027 0.16216,-0.44594 0.18243,-0.24324 0.48648,-0.4054 0.30405,-0.16216 0.54729,-0.04054 0.26351,0.10135 0.83107,0.38513 0.56756,0.28378 0.83107,0.38513 0.85134,0.32432 1.60133,0.32432 0.74999,0 1.43917,-0.72972 0.70945,-0.74999 0.70945,-1.8243 0,-1.4189 -1.4189,-1.98646 -0.68918,-0.28378 -1.56079,-0.42567 -1.80403,-0.32432 -2.71618,-1.07431 -0.91215,-0.77026 -0.91215,-2.31078 0,-1.54052 1.31755,-2.41213 1.31755,-0.89188 3.38509,-0.89188 z" />
    <path
       id="path64"
       style="font-size:20.27px;font-family:PatrickHand-Regular, 'Patrick Hand';fill:#114c8c"
       d="m 87.113176,43.642519 0.16216,4.78372 q 0,0.89188 -0.08108,1.03377 -0.04054,0.36486 -0.24324,0.56756 -0.18243,0.2027 -0.72972,0.2027 -0.26351,0 -0.42567,-0.32432 -0.16216,-0.34459 -0.18243,-0.77026 -0.14189,-3.56752 -0.38513,-6.6891 -0.22297,-3.14185 -0.22297,-5.83776 0,-0.42567 0.28378,-0.66891 0.28378,-0.24324 0.66891,-0.24324 0.56756,0 0.66891,0.97296 0.12162,0.97296 0.14189,2.4324 0.04054,1.45944 0.08108,2.12835 1.0135,-0.52702 2.027,-0.52702 2.35132,0 2.97969,2.06754 0.36486,1.17566 0.36486,3.02023 0,0.6081 -0.12162,1.92565 -0.10135,1.29728 -0.12162,1.68241 -0.02027,0.38513 -0.34459,0.6081 -0.30405,0.2027 -0.66891,0.2027 -0.56756,0 -0.56756,-0.6081 l 0.14189,-3.52698 q 0,-0.44594 -0.04054,-1.47971 -0.04054,-1.03377 -0.42567,-1.64187 -0.36486,-0.6081 -1.29728,-0.6081 -1.66214,0 -1.66214,1.29728 z" />
    <path
       id="path66"
       style="font-size:20.27px;font-family:PatrickHand-Regular, 'Patrick Hand';fill:#114c8c"
       d="m 96.374984,40.824989 q 1.07431,0 2.04727,0.62837 0.97296,0.62837 0.97296,1.56079 0,0.91215 -0.79053,1.78376 -0.79053,0.85134 -2.10808,1.03377 -0.56756,0.08108 -1.70268,0.08108 0.22297,1.72295 0.87161,2.27024 0.2027,0.22297 0.54729,0.22297 1.25674,0 2.10808,-0.79053 0.85134,-0.8108 1.2162,-0.8108 0.16216,0 0.486476,0.30405 0.32432,0.30405 0.32432,0.56756 0,0.52702 -1.277006,1.52025 -0.56756,0.46621 -1.37836,0.79053 -0.79053,0.30405 -1.47971,0.30405 -1.76349,0 -2.59456,-2.27024 -0.52702,-1.39863 -0.52702,-3.08104 0,-1.68241 0.79053,-2.89861 0.79053,-1.2162 2.49321,-1.2162 z m 0.10135,1.39863 q -0.77026,0 -1.31755,0.87161 -0.2027,0.30405 -0.38513,1.37836 2.8378,0 2.8378,-1.39863 0,-0.85134 -1.13512,-0.85134 z" />
    <path
       id="path68"
       style="font-size:20.27px;font-family:PatrickHand-Regular, 'Patrick Hand';fill:#114c8c"
       d="m 104.14727,47.250579 0.0203,2.08781 q 0,0.36486 -0.34459,0.66891 -0.32432,0.30405 -0.64864,0.30405 -0.46621,0 -0.58783,-0.72972 -0.0203,-0.16216 -0.16216,-2.95942 -0.14189,-2.81753 -0.54729,-4.41886 -0.18243,-0.77026 -0.18243,-0.91215 0,-0.66891 0.8108,-0.66891 0.34459,0 0.54729,0.26351 0.2027,0.26351 0.24324,0.54729 0.0608,0.26351 0.10135,0.72972 0.0405,0.46621 0.0608,0.58783 0.42567,-1.0135 1.27701,-1.52025 0.85134,-0.50675 1.86484,-0.50675 1.66214,0 1.66214,0.85134 0,0.42567 -0.30405,0.68918 -0.28378,0.24324 -0.66891,0.24324 -1.72295,0 -2.4324,1.09458 -0.70945,1.09458 -0.70945,3.6486 z" />
    <path
       id="path70"
       style="font-size:20.27px;font-family:PatrickHand-Regular, 'Patrick Hand';fill:#114c8c"
       d="m 114.98696,40.743909 q 0.89188,0 0.89188,1.52025 0,0.16216 0,0.34459 l -0.0405,1.4189 q -0.0203,0.66891 -0.0203,1.31755 l 0.30405,4.58102 q 0,0.50675 -1.03377,0.50675 -0.0608,0 -0.30405,0 -0.22297,0 -0.32432,-0.18243 -0.0811,-0.18243 -0.0203,-0.44594 0.0811,-0.26351 -0.0405,-0.58783 -0.93242,0.99323 -2.47294,0.99323 -2.85807,0 -2.85807,-4.41886 0,-2.45267 0.91215,-3.70941 0.93242,-1.25674 2.65537,-1.25674 0.8108,0 1.6216,0.28378 0.26351,-0.36486 0.72972,-0.36486 z m -2.10808,1.84457 q -1.15539,0 -1.72295,0.66891 -0.56756,0.66891 -0.56756,2.45267 0,2.99996 1.6216,2.99996 0.42567,0 0.93242,-0.38513 0.52702,-0.38513 0.72972,-0.87161 0.38513,-1.09458 0.38513,-2.39186 0,-1.29728 -0.32432,-1.88511 -0.30405,-0.58783 -1.05404,-0.58783 z" />
    <path
       id="path72"
       style="font-size:20.27px;font-family:PatrickHand-Regular, 'Patrick Hand';fill:#114c8c"
       d="m 122.94452,40.743909 q 0.89188,0 0.89188,1.52025 0,0.16216 0,0.34459 l -0.0405,1.4189 q -0.0203,0.66891 -0.0203,1.31755 l 0.30405,4.58102 q 0,0.50675 -1.03377,0.50675 -0.0608,0 -0.30405,0 -0.22297,0 -0.32432,-0.18243 -0.0811,-0.18243 -0.0203,-0.44594 0.0811,-0.26351 -0.0405,-0.58783 -0.93242,0.99323 -2.47294,0.99323 -2.85807,0 -2.85807,-4.41886 0,-2.45267 0.91215,-3.70941 0.93242,-1.25674 2.65537,-1.25674 0.8108,0 1.6216,0.28378 0.26351,-0.36486 0.72972,-0.36486 z m -2.10808,1.84457 q -1.15539,0 -1.72295,0.66891 -0.56756,0.66891 -0.56756,2.45267 0,2.99996 1.6216,2.99996 0.42567,0 0.93242,-0.38513 0.52702,-0.38513 0.72972,-0.87161 0.38513,-1.09458 0.38513,-2.39186 0,-1.29728 -0.32432,-1.88511 -0.30405,-0.58783 -1.05404,-0.58783 z" />
    <path
       id="path74"
       d="m 7.57399,61.111258 q 1.3175501,0 2.2297001,0.44594 0.9324199,0.44594 0.9324199,1.135121 0,0.30405 -0.16216,0.52702 -0.14189,0.22297 -0.44594,0.22297 -0.2837799,0 -1.2567399,-0.44594 -0.9729601,-0.46621 -1.7837601,-0.46621 -0.79053,0 -1.64187,0.50675 -0.85134,0.50675 -0.85134,1.23647 0,0.99323 1.03377,1.45944 0.77026,0.34459 2.20943,0.62837 1.4391701,0.26351 2.35132,1.11485 0.91215,0.83107 0.91215,2.53375 0,2.59456 -1.5607899,3.83103 -0.87161,0.68918 -2.4729401,0.68918 -1.58106,0 -3.16212,-0.87161 -1.0337701,-0.54729 -1.0337701,-1.09458 0,-0.2027 0.16216,-0.44594 0.18243,-0.24324 0.48648,-0.4054 0.3040501,-0.16216 0.5472901,-0.04054 0.26351,0.10135 0.83107,0.38513 0.56756,0.28378 0.83107,0.38513 0.85134,0.32432 1.60133,0.32432 0.74999,0 1.4391701,-0.72972 0.70945,-0.74999 0.70945,-1.8243 0,-1.4189 -1.4189001,-1.98646 -0.68918,-0.28378 -1.56079,-0.42567 -1.80403,-0.32432 -2.71618,-1.07431 -0.9121501,-0.77026 -0.9121501,-2.31078 0,-1.54052 1.3175501,-2.412131 1.31755,-0.89188 3.38509,-0.89188 z" />
    <path
       id="path76"
       d="m 12.762794,65.063909 1.0135,0.02027 q 0.34459,0 0.38513,-0.02027 v -4.155351 q 0.02027,-0.34459 0.34459,-0.58783 0.32432,-0.24324 0.6081,-0.24324 0.28378,0 0.44594,0.18243 0.18243,0.18243 0.16216,0.56756 -0.02027,0.38513 -0.02027,4.216161 l 2.37159,-0.08108 q 0.6081,0 0.6081,0.70945 0,0.52702 -0.32432,0.79053 -0.30405,0.26351 -0.66891,0.28378 -0.34459,0.02027 -0.68918,0.02027 l -1.23647,-0.02027 q 0,0.83107 0.16216,3.28374 0.18243,2.45267 0.28378,3.18239 0.10135,0.70945 0.04054,0.93242 -0.06081,0.2027 -0.22297,0.28378 -0.26351,0.12162 -0.70945,0.12162 -0.44594,0 -0.52702,-0.48648 -0.4054,-2.65537 -0.54729,-7.2972 -0.18243,0.02027 -1.39863,0.02027 -1.2162,0 -1.2162,-0.70945 0,-1.0135 1.13512,-1.0135 z" />
    <path
       id="path78"
       d="m 24.879187,65.063909 q 0.89188,0 0.89188,1.52025 0,0.16216 0,0.34459 l -0.04054,1.4189 q -0.02027,0.66891 -0.02027,1.31755 l 0.30405,4.58102 q 0,0.50675 -1.03377,0.50675 -0.06081,0 -0.30405,0 -0.22297,0 -0.32432,-0.18243 -0.08108,-0.18243 -0.02027,-0.44594 0.08108,-0.26351 -0.04054,-0.58783 -0.93242,0.99323 -2.47294,0.99323 -2.85807,0 -2.85807,-4.41886 0,-2.45267 0.91215,-3.70941 0.93242,-1.25674 2.65537,-1.25674 0.8108,0 1.6216,0.28378 0.26351,-0.36486 0.72972,-0.36486 z m -2.10808,1.84457 q -1.15539,0 -1.72295,0.66891 -0.56756,0.66891 -0.56756,2.45267 0,2.99996 1.6216,2.99996 0.42567,0 0.93242,-0.38513 0.52702,-0.38513 0.72972,-0.87161 0.38513,-1.09458 0.38513,-2.39186 0,-1.29728 -0.32432,-1.88511 -0.30405,-0.58783 -1.05404,-0.58783 z" />
    <path
       id="path80"
       d="m 29.796245,71.570579 0.02027,2.08781 q 0,0.36486 -0.34459,0.66891 -0.32432,0.30405 -0.64864,0.30405 -0.46621,0 -0.58783,-0.72972 -0.02027,-0.16216 -0.16216,-2.95942 -0.14189,-2.81753 -0.54729,-4.41886 -0.18243,-0.77026 -0.18243,-0.91215 0,-0.66891 0.8108,-0.66891 0.34459,0 0.54729,0.26351 0.2027,0.26351 0.24324,0.54729 0.06081,0.26351 0.10135,0.72972 0.04054,0.46621 0.06081,0.58783 0.42567,-1.0135 1.27701,-1.52025 0.85134,-0.50675 1.86484,-0.50675 1.66214,0 1.66214,0.85134 0,0.42567 -0.30405,0.68918 -0.28378,0.24324 -0.66891,0.24324 -1.72295,0 -2.4324,1.09458 -0.70945,1.09458 -0.70945,3.6486 z" />
    <path
       id="path82"
       d="m 35.487363,65.063909 1.0135,0.02027 q 0.34459,0 0.38513,-0.02027 v -4.155351 q 0.02027,-0.34459 0.34459,-0.58783 0.32432,-0.24324 0.6081,-0.24324 0.28378,0 0.44594,0.18243 0.18243,0.18243 0.16216,0.56756 -0.02027,0.38513 -0.02027,4.216161 l 2.37159,-0.08108 q 0.6081,0 0.6081,0.70945 0,0.52702 -0.32432,0.79053 -0.30405,0.26351 -0.66891,0.28378 -0.34459,0.02027 -0.68918,0.02027 l -1.23647,-0.02027 q 0,0.83107 0.16216,3.28374 0.18243,2.45267 0.28378,3.18239 0.10135,0.70945 0.04054,0.93242 -0.06081,0.2027 -0.22297,0.28378 -0.26351,0.12162 -0.70945,0.12162 -0.44594,0 -0.52702,-0.48648 -0.4054,-2.65537 -0.54729,-7.2972 -0.18243,0.02027 -1.39863,0.02027 -1.2162,0 -1.2162,-0.70945 0,-1.0135 1.13512,-1.0135 z" />
    <path
       id="path84"
       d="m 41.907888,65.854439 q 0.08108,-0.34459 0.34459,-0.56756 0.26351,-0.24324 0.52702,-0.24324 0.28378,0 0.42567,0.10135 0.16216,0.10135 0.18243,0.18243 0.04054,0.08108 0.08108,0.28378 -0.12162,1.58106 -0.12162,2.85807 0,1.25674 0.30405,2.89861 0.30405,1.6216 0.66891,1.6216 0.54729,0 1.37836,-0.6081 0.85134,-0.6081 1.2162,-1.27701 -0.24324,-2.91888 -0.24324,-5.00669 0,-0.42567 0.26351,-0.72972 0.28378,-0.30405 0.66891,-0.30405 0.62837,0 0.62837,0.85134 0,1.43917 0.2027,4.27697 0.22297,2.8378 0.44594,3.60806 0.04054,0.16216 0.04054,0.38513 0,0.2027 -0.28378,0.38513 -0.26351,0.2027 -0.70945,0.2027 -0.42567,0 -0.56756,-0.48648 -0.04054,-0.4054 -0.2027,-1.2162 -1.4189,1.47971 -2.85807,1.47971 -0.66891,0 -1.19593,-0.50675 -0.52702,-0.50675 -0.83107,-1.37836 -0.52702,-1.68241 -0.52702,-3.16212 0,-1.47971 0.16216,-3.6486 z" />
    <path
       id="path86"
       d="m 53.267006,74.509729 q -0.68918,0 -1.27701,-0.46621 0,0 -0.26351,-0.22297 v 6.081 q -0.12162,0.4054 -0.42567,0.66891 -0.30405,0.28378 -0.64864,0.28378 -0.52702,0 -0.52702,-0.70945 v -14.12819 q 0.12162,-0.52702 0.28378,-0.74999 0.18243,-0.22297 0.54729,-0.22297 0.38513,0 0.48648,0.18243 0.12162,0.16216 0.28378,0.93242 0.08108,-0.4054 0.64864,-0.74999 0.56756,-0.34459 1.52025,-0.34459 2.06754,0 2.93915,1.49998 0.87161,1.49998 0.87161,3.54725 0,2.027 -1.19593,3.22293 -1.17566,1.17566 -3.2432,1.17566 z m -1.54052,-6.081 v 3.77022 q 0.12162,0.06081 0.28378,0.2027 0.58783,0.52702 1.27701,0.52702 2.79726,0 2.79726,-2.87834 0,-2.45267 -1.25674,-3.10131 -0.52702,-0.28378 -1.29728,-0.28378 -0.74999,0.10135 -1.27701,0.66891 -0.52702,0.54729 -0.52702,1.09458 z" />
    <path
       id="path88"
       d="m 65.088533,74.509729 q -0.68918,0 -1.33782,-2.67564 -0.62837,-2.69591 -0.62837,-6.04046 0,-0.34459 0.28378,-0.52702 0.30405,-0.2027 0.54729,-0.2027 0.24324,0 0.38513,0.16216 0.16216,0.14189 0.16216,0.38513 0,3.16212 1.07431,6.081 0.16216,-0.24324 0.50675,-0.97296 0.34459,-0.74999 0.64864,-1.09458 0.30405,-0.34459 0.72972,-0.34459 0.42567,0 0.89188,0.62837 0.46621,0.62837 0.79053,1.35809 0.34459,0.70945 0.38513,0.74999 0.54729,-1.70268 0.54729,-3.16212 l -0.12162,-3.08104 q -0.02027,-0.30405 0.28378,-0.50675 0.30405,-0.22297 0.58783,-0.22297 0.587831,0 0.587831,2.29051 v 1.11485 q 0,2.71618 -0.831071,4.84453 -0.44594,1.2162 -1.11485,1.2162 -0.38513,0 -0.70945,-0.48648 -0.32432,-0.50675 -0.72972,-1.4189 -0.4054,-0.91215 -0.62837,-1.25674 l -0.6081,1.19593 q -0.34459,0.70945 -0.52702,1.03377 -0.18243,0.30405 -0.50675,0.62837 -0.32432,0.30405 -0.66891,0.30405 z" />
    <path
       id="path90"
       d="m 75.707797,65.144989 q 1.07431,0 2.04727,0.62837 0.97296,0.62837 0.97296,1.56079 0,0.91215 -0.79053,1.78376 -0.79053,0.85134 -2.10808,1.03377 -0.56756,0.08108 -1.70268,0.08108 0.22297,1.72295 0.87161,2.27024 0.2027,0.22297 0.54729,0.22297 1.25674,0 2.10808,-0.79053 0.85134,-0.8108 1.2162,-0.8108 0.16216,0 0.48648,0.30405 0.32432,0.30405 0.32432,0.56756 0,0.52702 -1.27701,1.52025 -0.56756,0.46621 -1.37836,0.79053 -0.79053,0.30405 -1.47971,0.30405 -1.76349,0 -2.59456,-2.27024 -0.52702,-1.39863 -0.52702,-3.08104 0,-1.68241 0.79053,-2.89861 0.79053,-1.2162 2.49321,-1.2162 z m 0.10135,1.39863 q -0.77026,0 -1.31755,0.87161 -0.2027,0.30405 -0.38513,1.37836 2.8378,0 2.8378,-1.39863 0,-0.85134 -1.13512,-0.85134 z" />
    <path
       id="path92"
       d="m 83.784121,65.144989 q 1.07431,0 2.04727,0.62837 0.97296,0.62837 0.97296,1.56079 0,0.91215 -0.79053,1.78376 -0.79053,0.85134 -2.10808,1.03377 -0.56756,0.08108 -1.70268,0.08108 0.22297,1.72295 0.87161,2.27024 0.2027,0.22297 0.54729,0.22297 1.25674,0 2.10808,-0.79053 0.85134,-0.8108 1.2162,-0.8108 0.16216,0 0.48648,0.30405 0.32432,0.30405 0.32432,0.56756 0,0.52702 -1.27701,1.52025 -0.56756,0.46621 -1.37836,0.79053 -0.79053,0.30405 -1.47971,0.30405 -1.76349,0 -2.59456,-2.27024 -0.52702,-1.39863 -0.52702,-3.08104 0,-1.68241 0.79053,-2.89861 0.79053,-1.2162 2.49321,-1.2162 z m 0.10135,1.39863 q -0.77026,0 -1.31755,0.87161 -0.2027,0.30405 -0.38513,1.37836 2.8378,0 2.8378,-1.39863 0,-0.85134 -1.13512,-0.85134 z" />
    <path
       id="path94"
       d="m 96.177963,73.617849 q 0,0.95269 -0.87161,0.95269 -0.36486,0 -0.99323,-1.78376 -0.62837,-1.80403 -1.68241,-2.77699 -0.10135,0.14189 -0.87161,0.8108 -0.74999,0.64864 -0.89188,0.79053 v 2.027 q -0.04054,0.30405 -0.10135,0.46621 -0.06081,0.16216 -0.28378,0.30405 -0.2027,0.14189 -0.56756,0.14189 -0.54729,0 -0.54729,-0.66891 0,-1.88511 -0.16216,-5.83776 -0.16216,-3.97292 -0.16216,-7.114771 0,-0.38513 0.30405,-0.6081 0.32432,-0.22297 0.66891,-0.22297 0.46621,0 0.56756,0.58783 v 3.587791 q 0,0.64864 0.02027,0.97296 0.02027,0.32432 0.04054,0.97296 0.04054,1.33782 0.14189,3.02023 0.58783,-0.44594 1.49998,-1.39863 0.93242,-0.97296 1.39863,-1.66214 0.72972,-1.15539 1.33782,-1.15539 0.16216,0 0.32432,0.08108 0.42567,0.24324 0.42567,0.56756 0,0.32432 -0.28378,0.85134 -0.72972,1.25674 -1.68241,2.29051 0.91215,1.0135 1.8243,2.89861 0.54729,1.2162 0.54729,1.90538 z" />
    <path
       id="path96"
       d="m 100.2535,65.144989 q 1.07431,0 2.04727,0.62837 0.97296,0.62837 0.97296,1.56079 0,0.91215 -0.79053,1.78376 -0.79053,0.85134 -2.10808,1.03377 -0.567563,0.08108 -1.702683,0.08108 0.22297,1.72295 0.87161,2.27024 0.2027,0.22297 0.547293,0.22297 1.25674,0 2.10808,-0.79053 0.85134,-0.8108 1.2162,-0.8108 0.16216,0 0.48648,0.30405 0.32432,0.30405 0.32432,0.56756 0,0.52702 -1.27701,1.52025 -0.56756,0.46621 -1.37836,0.79053 -0.79053,0.30405 -1.47971,0.30405 -1.763493,0 -2.594563,-2.27024 -0.52702,-1.39863 -0.52702,-3.08104 0,-1.68241 0.79053,-2.89861 0.79053,-1.2162 2.493213,-1.2162 z m 0.10135,1.39863 q -0.770263,0 -1.317553,0.87161 -0.2027,0.30405 -0.38513,1.37836 2.837803,0 2.837803,-1.39863 0,-0.85134 -1.13512,-0.85134 z" />
    <path
       id="path98"
       d="m 106.18121,73.901629 -0.22297,-8.22962 q 0,-0.38513 0.26351,-0.62837 0.26351,-0.24324 0.52702,-0.24324 0.64864,0 0.74999,0.54729 0.0811,0.54729 0.0811,1.13512 1.09458,-1.43917 2.73645,-1.43917 2.51348,0 2.51348,5.73641 0,0.52702 0,1.60133 0,1.05404 -0.12162,1.54052 -0.14189,0.6081 -0.87161,0.6081 -0.48648,0 -0.48648,-0.64864 l 0.0203,-1.13512 q 0,-2.35132 -0.16216,-3.20266 -0.14189,-0.87161 -0.28378,-1.37836 -0.34459,-1.09458 -1.11485,-1.09458 -1.0135,0 -1.4189,0.72972 -0.44594,0.79053 -0.52702,1.86484 -0.14189,1.88511 -0.14189,3.99319 0,0.4054 -0.30405,0.64864 -0.30405,0.24324 -0.72972,0.24324 -0.50675,0 -0.50675,-0.64864 z" />
    <path
       id="path100"
       d="m 119.40074,65.043639 -0.0203,-3.912111 q 0,-1.09458 0.68918,-1.09458 0.70945,0 0.79053,0.6081 0.0405,0.26351 0.10135,3.182391 0.0608,2.91888 0.18243,5.4729 0.14189,2.55402 0.14189,4.76345 0,0.6081 -0.91215,0.6081 -0.6081,0 -0.6081,-0.85134 -0.87161,0.68918 -2.06754,0.68918 -1.52026,0 -2.47295,-1.13512 -0.93242,-1.13512 -0.93242,-2.79726 0,-1.66214 0.66891,-3.10131 0.68918,-1.45944 2.12836,-2.08781 0.89188,-0.38513 1.72295,-0.38513 0.30405,0 0.58783,0.04054 z m 0.10135,2.77699 q -0.14189,-0.44594 -0.34459,-0.66891 -0.2027,-0.24324 -0.44594,-0.28378 -0.22297,-0.06081 -0.54729,-0.06081 -0.32432,0 -0.79053,0.24324 -0.46621,0.24324 -0.79053,0.79053 -0.64865,1.09458 -0.64865,2.31078 0,1.19593 0.46621,1.96619 0.48649,0.74999 1.3581,0.74999 0.89188,0 1.39863,-0.87161 0.50675,-0.87161 0.50675,-2.2297 0,-1.52025 -0.16216,-1.94592 z" />
  </g>
</svg>
