<?xml version="1.0" encoding="UTF-8" standalone="no"?>
<svg
   xmlns:dc="http://purl.org/dc/elements/1.1/"
   xmlns:cc="http://creativecommons.org/ns#"
   xmlns:rdf="http://www.w3.org/1999/02/22-rdf-syntax-ns#"
   xmlns:svg="http://www.w3.org/2000/svg"
   xmlns="http://www.w3.org/2000/svg"
   xmlns:sodipodi="http://sodipodi.sourceforge.net/DTD/sodipodi-0.dtd"
   xmlns:inkscape="http://www.inkscape.org/namespaces/inkscape"
   inkscape:version="1.0 (4035a4f, 2020-05-01)"
   sodipodi:docname="winnerSheraa-m.svg"
   id="Capa_1"
   data-name="Capa 1"
   viewBox="0 0 101.09125 9.663166"
   version="1.1"
   width="101.09126"
   height="9.663166">
  <sodipodi:namedview
     inkscape:current-layer="Capa_1"
     inkscape:window-maximized="0"
     inkscape:window-y="23"
     inkscape:window-x="0"
     inkscape:cy="4.831583"
     inkscape:cx="50.545631"
     inkscape:zoom="10.41633"
     showgrid="false"
     id="namedview29"
     inkscape:window-height="480"
     inkscape:window-width="1292"
     inkscape:pageshadow="2"
     inkscape:pageopacity="0"
     guidetolerance="10"
     gridtolerance="10"
     objecttolerance="10"
     borderopacity="1"
     bordercolor="#666666"
     pagecolor="#ffffff" />
  <metadata
     id="metadata42">
    <rdf:RDF>
      <cc:Work
         rdf:about="">
        <dc:format>image/svg+xml</dc:format>
        <dc:type
           rdf:resource="http://purl.org/dc/dcmitype/StillImage" />
        <dc:title>winner at Sheraa</dc:title>
      </cc:Work>
    </rdf:RDF>
  </metadata>
  <defs
     id="defs15">
    <style
       id="style10">.cls-1{fill:#fff;}.cls-1,.cls-3{fill-rule:evenodd;}.cls-2{mask:url(#mask);}.cls-3,.cls-4{fill:#114c8c;}.cls-4{font-size:20.27px;font-family:PatrickHand-Regular, Patrick Hand;}</style>
    <mask
       id="mask"
       x="47.51"
       y="13.75"
       width="51.98"
       height="41.94"
       maskUnits="userSpaceOnUse">
      <g
         id="b">
        <polygon
           id="a"
           class="cls-1"
           points="99.49,55.69 99.49,13.75 47.51,13.75 47.51,55.69 " />
      </g>
    </mask>
  </defs>
  <title
     id="title17">winner at Sheraa</title>
  <g
     id="g92"
     transform="matrix(1,0,0,1.0845191,-3.1220814,-35.027804)">
    <g
       transform="matrix(0.32408096,0,0,0.28041433,-12.352416,28.442309)"
       id="g21"
       mask="url(#mask)"
       class="cls-2">
      <path
         id="path19"
         d="m 91.63,39.36 a 1.19,1.19 0 0 1 -0.67,0.33 V 39.5 a 0.92,0.92 0 0 0 0.57,-0.27 c 0.19,-0.19 0.25,-0.42 0.07,-0.6 -0.18,-0.18 -0.39,-0.06 -0.6,0.08 -0.21,0.14 -0.5,0.34 -0.78,0.06 a 0.54,0.54 0 0 1 0.06,-0.81 1,1 0 0 1 0.53,-0.3 v 0.19 a 0.83,0.83 0 0 0 -0.44,0.24 c -0.18,0.18 -0.23,0.39 -0.06,0.55 0.17,0.16 0.36,0 0.62,-0.13 0.26,-0.13 0.49,-0.3 0.77,0 a 0.58,0.58 0 0 1 -0.09,0.87"
         class="cls-3" />
    </g>
    <g
       transform="matrix(0.32408096,0,0,0.28041433,-12.352416,28.442309)"
       id="g25"
       mask="url(#mask)"
       class="cls-2">
      <path
         class="cls-3"
         d="m 92.73,38.23 -0.63,-0.63 0.67,-0.66 0.63,0.62 0.13,-0.13 -1.36,-1.36 -0.13,0.13 0.61,0.62 -0.66,0.66 -0.61,-0.61 -0.14,0.13 1.36,1.36 z"
         style="fill:#114c8c;fill-rule:evenodd"
         id="polygon23" />
    </g>
    <g
       transform="matrix(0.32408096,0,0,0.28041433,-12.352416,28.442309)"
       id="g29"
       mask="url(#mask)"
       class="cls-2">
      <path
         class="cls-3"
         d="m 94.23,35.48 -0.12,-0.12 -0.6,0.6 -0.5,-0.49 0.71,-0.71 -0.12,-0.12 -0.84,0.84 1.36,1.36 0.84,-0.84 -0.12,-0.12 -0.71,0.71 -0.51,-0.51 z"
         style="fill:#114c8c;fill-rule:evenodd"
         id="polygon27" />
    </g>
    <g
       transform="matrix(0.32408096,0,0,0.28041433,-12.352416,28.442309)"
       id="g33"
       mask="url(#mask)"
       class="cls-2">
      <path
         id="path31"
         d="m 96.22,34.74 -0.89,-0.33 -0.35,0.35 0.61,0.61 -0.13,0.13 -1.36,-1.36 0.54,-0.54 a 0.51,0.51 0 0 1 0.75,0 0.53,0.53 0 0 1 0.06,0.69 l 0.92,0.33 z m -1.49,-1 -0.38,0.38 0.51,0.51 0.37,-0.37 a 0.37,0.37 0 0 0 0,-0.56 0.35,0.35 0 0 0 -0.53,0 z m 2.58,-0.74 -0.61,0.61 0.21,0.43 -0.14,0.14 c -0.29,-0.61 -0.58,-1.23 -0.86,-1.85 l 0.12,-0.12 1.85,0.86 -0.14,0.14 z m -1.18,-0.56 c 0.05,0.09 0.14,0.28 0.23,0.47 0.09,0.19 0.21,0.43 0.26,0.55 l 0.54,-0.53 -0.6,-0.29 -0.42,-0.2 z m 2.62,-0.88 -0.61,0.61 0.21,0.43 -0.14,0.14 C 97.92,32.12 97.64,31.5 97.35,30.89 l 0.12,-0.13 1.86,0.87 -0.14,0.14 z M 97.58,31 97.8,31.47 98.07,32.02 98.6,31.48 98,31.21 Z M 49.76,34.16 H 59.4 A 0.58,0.58 0 0 0 59.4,33 10.3,10.3 0 0 1 49.75,26.55 11,11 0 0 1 52,14.74 a 0.59,0.59 0 0 0 0,-0.82 0.59,0.59 0 0 0 -0.83,0 12.09,12.09 0 0 0 -2.49,13.08 11.49,11.49 0 0 0 5.58,6 h -5.91 a 0.59,0.59 0 0 0 -0.54,0.35 0.59,0.59 0 0 0 0.13,0.64 l 5.53,5.53 a 0.58,0.58 0 0 0 0.42,0.17 0.58,0.58 0 0 0 0.41,-0.17 0.59,0.59 0 0 0 0,-0.82 z m 25.85,-1.62 a 0.56,0.56 0 0 0 0.41,-0.17 L 77.39,31 a 0.59,0.59 0 0 0 0,-0.83 0.59,0.59 0 0 0 -0.82,0 l -1.38,1.38 a 0.59,0.59 0 0 0 0,0.82 0.58,0.58 0 0 0 0.42,0.17 m 8.09,0 a 0.58,0.58 0 0 0 0.41,-0.17 L 85.48,31 a 0.59,0.59 0 0 0 0,-0.83 0.59,0.59 0 0 0 -0.82,0 l -1.38,1.38 a 0.59,0.59 0 0 0 0,0.82 0.58,0.58 0 0 0 0.42,0.17 m 6.39,0.47 -4.72,4.72 a 2.67,2.67 0 0 1 -4.56,-1.88 l 2,-2 a 0.59,0.59 0 0 0 0,-0.83 A 0.59,0.59 0 0 0 82,33 l -4.72,4.72 a 2.67,2.67 0 0 1 -4.56,-1.88 l 2,-2 a 0.59,0.59 0 0 0 0,-0.83 0.59,0.59 0 0 0 -0.82,0 l -4.72,4.72 a 2.67,2.67 0 0 1 -4.56,-1.88 l 2,-2 A 0.58,0.58 0 0 0 65.8,33.03 l -5.7,5.7 a 0.57,0.57 0 0 0 0,0.82 0.58,0.58 0 0 0 0.82,0 l 2.67,-2.67 a 3.75,3.75 0 0 0 2.23,2.51 3.76,3.76 0 0 0 4.18,-0.84 l 1.67,-1.67 a 3.76,3.76 0 0 0 2.23,2.5 3.76,3.76 0 0 0 4.19,-0.83 l 1.67,-1.67 a 3.76,3.76 0 0 0 2.24,2.5 3.76,3.76 0 0 0 4.19,-0.83 l 4.71,-4.71 a 0.59,0.59 0 0 0 0,-0.83 0.59,0.59 0 0 0 -0.82,0 m 3.48,-2.84 a 0.59,0.59 0 0 0 -0.82,0 l -1.38,1.38 a 0.59,0.59 0 0 0 0,0.82 0.58,0.58 0 0 0 0.42,0.17 0.58,0.58 0 0 0 0.41,-0.17 L 93.57,31 a 0.59,0.59 0 0 0 0,-0.83 m -27.3,0 a 0.59,0.59 0 0 0 -0.82,0 l -8.55,8.55 a 0.57,0.57 0 0 0 0,0.82 0.54,0.54 0 0 0 0.41,0.17 0.56,0.56 0 0 0 0.41,-0.17 L 66.27,31 a 0.59,0.59 0 0 0 0,-0.83"
         class="cls-3" />
    </g>
  </g>
  <g
     class="cls-4"
     style="font-style:normal;font-variant:normal;font-weight:normal;font-stretch:normal;font-size:7.82074px;font-family:'Patrick Hand';-inkscape-font-specification:'Patrick Hand';fill:#114c8c;stroke-width:0.868972"
     id="text37"
     transform="scale(0.87414734,1.1439719)"
     aria-label="Winner at Sheraa Startup weekend">
    <path
       id="path33"
       style="font-style:normal;font-variant:normal;font-weight:normal;font-stretch:normal;font-size:7.82074px;font-family:'Patrick Hand';-inkscape-font-specification:'Patrick Hand';fill:#114c8c;stroke-width:0.868972"
       d="m 24.133127,0.79052666 q 0.164236,0 0.226802,0.23462224 -0.04692,0.7898947 -0.10167,1.1261866 -0.05475,0.3284711 -0.09385,0.5787347 -0.03128,0.2502637 -0.04692,0.3441126 -0.0078,0.093849 -0.06257,0.3832163 -0.05475,0.2893674 -0.117311,0.5787348 -0.05474,0.2815466 -0.07039,0.3362918 -0.0078,0.054745 -0.140773,0.7038666 -0.132953,0.6413007 -0.203339,0.7898948 -0.06257,0.1407733 -0.226802,0.1407733 -0.156415,0 -0.250263,-0.093849 Q 22.686291,5.4204049 22.36564,4.693076 22.287433,4.5053783 22.185763,4.2863975 22.091914,4.0674168 22.04499,3.9579265 L 21.974603,3.7936909 Q 21.810368,4.0752376 21.521,4.7478212 q -0.289367,0.6725837 -0.508348,1.0792622 -0.140773,0.179877 -0.312829,0.179877 -0.359755,0 -0.547452,-1.9160814 0,-0.00782 -0.01564,-0.086028 -0.0078,-0.078207 -0.03128,-0.2737259 -0.01564,-0.1955185 -0.04692,-0.4301407 -0.02346,-0.242443 -0.195519,-1.9786473 0,-0.1564148 0.117311,-0.2815466 0.117312,-0.13295263 0.258085,-0.13295263 0.172056,0 0.234622,0.22680143 0.21116,2.5417406 0.42232,3.7539553 0.06257,-0.1094903 0.32065,-0.7195081 0.258085,-0.6178384 0.469245,-0.9775925 0.21116,-0.3675748 0.406678,-0.3675748 0.132953,0 0.226802,0.1407733 0.492706,1.3999125 0.84464,1.9708266 0.0078,-0.086028 0.09385,-0.4692444 l 0.101669,-0.5005274 q 0,-0.046924 0.01564,-0.1329526 0.02346,-0.086028 0.03128,-0.1642355 0.01564,-0.086028 0.03128,-0.1564148 l 0.08603,-0.4927067 q 0.187698,-1.1574695 0.234622,-1.9004398 0.03128,-0.13295263 0.140773,-0.22680151 0.117311,-0.10166963 0.234622,-0.10166963 z" />
    <path
       id="path35"
       style="font-style:normal;font-variant:normal;font-weight:normal;font-stretch:normal;font-size:7.82074px;font-family:'Patrick Hand';-inkscape-font-specification:'Patrick Hand';fill:#114c8c;stroke-width:0.868972"
       d="m 25.261147,1.0642526 q 0.140773,0 0.265905,0.1329526 0.125132,0.1329525 0.125132,0.2815466 0,0.1407733 -0.140773,0.2893674 -0.132953,0.1485941 -0.281547,0.1485941 -0.148594,0 -0.273726,-0.1251319 -0.117311,-0.1251318 -0.117311,-0.3206503 0,-0.3753956 0.406679,-0.4066785 0.0078,0 0.01564,0 z m 0.328471,4.0980678 0.0078,0.5474519 q 0,0.148594 -0.117311,0.2502637 -0.117311,0.093849 -0.250264,0.093849 -0.195518,0 -0.203339,-0.1955185 -0.10167,-2.4948161 -0.10167,-2.7607213 0,-0.2659051 0.02346,-0.6491214 0.01564,-0.1407733 0.179877,-0.1407733 0.414499,0 0.469244,0.3362918 0.02346,0.1720563 0.02346,0.2737259 l -0.03128,0.4927066 z" />
    <path
       id="path37"
       style="font-style:normal;font-variant:normal;font-weight:normal;font-stretch:normal;font-size:7.82074px;font-family:'Patrick Hand';-inkscape-font-specification:'Patrick Hand';fill:#114c8c;stroke-width:0.868972"
       d="M 26.798778,5.7645174 26.71275,2.5892969 q 0,-0.148594 0.10167,-0.2424429 0.101669,-0.093849 0.203339,-0.093849 0.250264,0 0.289367,0.21116 0.03128,0.21116 0.03128,0.4379614 0.42232,-0.5552725 1.0558,-0.5552725 0.969772,0 0.969772,2.2132695 0,0.2033392 0,0.6178384 0,0.4066785 -0.04692,0.5943763 -0.05475,0.2346222 -0.336292,0.2346222 -0.187698,0 -0.187698,-0.2502637 l 0.0078,-0.4379614 q 0,-0.9072059 -0.06257,-1.235677 -0.05475,-0.3362918 -0.109491,-0.5318103 -0.132952,-0.42232 -0.43014,-0.42232 -0.391037,0 -0.547452,0.2815466 -0.172056,0.3050089 -0.203339,0.7195081 -0.05475,0.7273289 -0.05475,1.5406859 0,0.1564148 -0.117311,0.2502636 -0.117311,0.093849 -0.281546,0.093849 -0.195519,0 -0.195519,-0.2502637 z" />
    <path
       id="path39"
       style="font-style:normal;font-variant:normal;font-weight:normal;font-stretch:normal;font-size:7.82074px;font-family:'Patrick Hand';-inkscape-font-specification:'Patrick Hand';fill:#114c8c;stroke-width:0.868972"
       d="m 30.327276,5.7645174 -0.08603,-3.1752205 q 0,-0.148594 0.101669,-0.2424429 0.10167,-0.093849 0.20334,-0.093849 0.250263,0 0.289367,0.21116 0.03128,0.21116 0.03128,0.4379614 0.42232,-0.5552725 1.0558,-0.5552725 0.969772,0 0.969772,2.2132695 0,0.2033392 0,0.6178384 0,0.4066785 -0.04693,0.5943763 -0.05474,0.2346222 -0.336292,0.2346222 -0.187697,0 -0.187697,-0.2502637 l 0.0078,-0.4379614 q 0,-0.9072059 -0.06257,-1.235677 -0.05474,-0.3362918 -0.10949,-0.5318103 -0.132952,-0.42232 -0.430141,-0.42232 -0.391037,0 -0.547451,0.2815466 -0.172057,0.3050089 -0.20334,0.7195081 -0.05474,0.7273289 -0.05474,1.5406859 0,0.1564148 -0.117311,0.2502636 -0.117311,0.093849 -0.281547,0.093849 -0.195518,0 -0.195518,-0.2502637 z" />
    <path
       id="path41"
       style="font-style:normal;font-variant:normal;font-weight:normal;font-stretch:normal;font-size:7.82074px;font-family:'Patrick Hand';-inkscape-font-specification:'Patrick Hand';fill:#114c8c;stroke-width:0.868972"
       d="m 34.684772,2.3859577 q 0.414499,0 0.789895,0.2424429 0.375395,0.242443 0.375395,0.602197 0,0.3519333 -0.305008,0.6882252 -0.305009,0.328471 -0.813357,0.3988577 -0.218981,0.031283 -0.656943,0.031283 0.08603,0.6647629 0.336292,0.8759229 0.07821,0.086028 0.21116,0.086028 0.484886,0 0.813357,-0.3050089 0.328471,-0.3128296 0.469245,-0.3128296 0.06256,0 0.187697,0.1173111 0.125132,0.1173111 0.125132,0.2189808 0,0.2033392 -0.492706,0.5865555 -0.218981,0.179877 -0.531811,0.3050088 -0.305009,0.1173112 -0.570914,0.1173112 -0.680404,0 -1.001055,-0.875923 -0.203339,-0.539631 -0.203339,-1.1887525 0,-0.6491214 0.305009,-1.1183658 0.305009,-0.4692444 0.961951,-0.4692444 z m 0.0391,0.539631 q -0.297188,0 -0.508348,0.3362919 -0.07821,0.1173111 -0.148594,0.5318103 1.094903,0 1.094903,-0.5396311 0,-0.3284711 -0.437961,-0.3284711 z" />
    <path
       id="path43"
       style="font-style:normal;font-variant:normal;font-weight:normal;font-stretch:normal;font-size:7.82074px;font-family:'Patrick Hand';-inkscape-font-specification:'Patrick Hand';fill:#114c8c;stroke-width:0.868972"
       d="m 37.683537,4.8651323 0.0078,0.8055363 q 0,0.1407733 -0.132952,0.2580844 -0.125132,0.1173111 -0.250264,0.1173111 -0.179877,0 -0.226802,-0.2815467 -0.0078,-0.062566 -0.06256,-1.141828 -0.05475,-1.0870829 -0.21116,-1.7049214 -0.07039,-0.2971881 -0.07039,-0.3519333 0,-0.2580844 0.312829,-0.2580844 0.132953,0 0.21116,0.1016696 0.07821,0.1016696 0.09385,0.21116 0.02346,0.1016696 0.0391,0.2815466 0.01564,0.179877 0.02346,0.2268015 0.164236,-0.391037 0.492707,-0.5865555 0.328471,-0.1955185 0.719508,-0.1955185 0.641301,0 0.641301,0.3284711 0,0.1642355 -0.117311,0.2659051 -0.109491,0.093849 -0.258085,0.093849 -0.664763,0 -0.938489,0.42232 -0.273726,0.42232 -0.273726,1.4077332 z" />
    <path
       id="path45"
       style="font-style:normal;font-variant:normal;font-weight:normal;font-stretch:normal;font-size:7.82074px;font-family:'Patrick Hand';-inkscape-font-specification:'Patrick Hand';fill:#114c8c;stroke-width:0.868972"
       d="m 43.668237,2.3546747 q 0.344112,0 0.344112,0.5865555 0,0.062566 0,0.1329526 l -0.01564,0.5474518 q -0.0078,0.2580845 -0.0078,0.5083481 L 44.106198,5.89747 q 0,0.1955185 -0.398858,0.1955185 -0.02346,0 -0.117311,0 -0.08603,0 -0.125131,-0.070387 -0.03128,-0.070387 -0.0078,-0.1720563 0.03128,-0.1016696 -0.01564,-0.2268015 -0.359754,0.3832163 -0.95413,0.3832163 -1.102724,0 -1.102724,-1.7049214 0,-0.9463095 0.351933,-1.4311954 0.359754,-0.4848859 1.024517,-0.4848859 0.31283,0 0.625659,0.1094903 0.10167,-0.1407733 0.281547,-0.1407733 z M 42.85488,3.0663621 q -0.445782,0 -0.664763,0.2580844 -0.218981,0.2580844 -0.218981,0.9463096 0,1.1574695 0.625659,1.1574695 0.164236,0 0.359754,-0.148594 0.20334,-0.1485941 0.281547,-0.3362919 0.148594,-0.42232 0.148594,-0.9228473 0,-0.5005274 -0.125132,-0.7273289 Q 43.144247,3.0663621 42.85488,3.0663621 Z" />
    <path
       id="path47"
       style="font-style:normal;font-variant:normal;font-weight:normal;font-stretch:normal;font-size:7.82074px;font-family:'Patrick Hand';-inkscape-font-specification:'Patrick Hand';fill:#114c8c;stroke-width:0.868972"
       d="m 44.75202,2.3546747 0.391037,0.00782 q 0.132953,0 0.148594,-0.00782 V 0.75142296 q 0.0078,-0.13295258 0.132953,-0.22680146 0.125132,-0.0938489 0.234622,-0.0938489 0.10949,0 0.172056,0.0703867 0.07039,0.0703867 0.06257,0.21898072 -0.0078,0.14859407 -0.0078,1.626714 l 0.915026,-0.031283 q 0.234622,0 0.234622,0.2737259 0,0.2033393 -0.125131,0.3050089 -0.117312,0.1016696 -0.258085,0.1094903 -0.132952,0.00782 -0.265905,0.00782 l -0.477065,-0.00782 q 0,0.3206504 0.06257,1.26696 0.07039,0.9463095 0.10949,1.2278562 0.0391,0.2737259 0.01564,0.359754 -0.02346,0.078207 -0.08603,0.1094904 -0.101669,0.046924 -0.273726,0.046924 -0.172056,0 -0.203339,-0.1876977 -0.156415,-1.024517 -0.21116,-2.8154665 -0.07039,0.00782 -0.539631,0.00782 -0.469244,0 -0.469244,-0.2737259 0,-0.391037 0.437961,-0.391037 z" />
    <path
       id="path49"
       style="font-style:normal;font-variant:normal;font-weight:normal;font-stretch:normal;font-size:7.82074px;font-family:'Patrick Hand';-inkscape-font-specification:'Patrick Hand';fill:#114c8c;stroke-width:0.868972"
       d="m 50.830447,0.82963036 q 0.508348,0 0.860281,0.17205624 0.359754,0.1720563 0.359754,0.4379615 0,0.1173111 -0.06257,0.2033392 -0.05474,0.086028 -0.172056,0.086028 -0.10949,0 -0.484886,-0.1720563 -0.375396,-0.179877 -0.688225,-0.179877 -0.305009,0 -0.63348,0.1955185 -0.328471,0.1955185 -0.328471,0.4770651 0,0.3832163 0.398858,0.5630933 0.297188,0.1329526 0.85246,0.242443 0.555273,0.1016696 0.907206,0.4301407 0.351933,0.3206503 0.351933,0.9775925 0,1.0010548 -0.602197,1.4781199 -0.336291,0.2659052 -0.95413,0.2659052 -0.610018,0 -1.220035,-0.3362918 -0.398858,-0.21116 -0.398858,-0.42232 0,-0.078207 0.06257,-0.1720563 0.07039,-0.093849 0.187698,-0.1564148 0.117311,-0.062566 0.21116,-0.015642 0.101669,0.039104 0.32065,0.1485941 0.218981,0.1094903 0.32065,0.148594 0.328471,0.1251319 0.617839,0.1251319 0.289367,0 0.555272,-0.2815467 0.273726,-0.2893673 0.273726,-0.7038666 0,-0.5474518 -0.547452,-0.7664325 Q 50.752239,3.4652198 50.415947,3.4104746 49.719901,3.2853428 49.367968,2.9959754 49.016035,2.6987873 49.016035,2.104411 q 0,-0.5943762 0.508348,-0.9306681 0.508348,-0.34411254 1.306064,-0.34411254 z" />
    <path
       id="path51"
       style="font-style:normal;font-variant:normal;font-weight:normal;font-stretch:normal;font-size:7.82074px;font-family:'Patrick Hand';-inkscape-font-specification:'Patrick Hand';fill:#114c8c;stroke-width:0.868972"
       d="m 53.473735,3.4730406 0.06257,1.8456947 q 0,0.3441125 -0.03128,0.3988577 -0.01564,0.1407733 -0.09385,0.2189807 -0.07039,0.078207 -0.281547,0.078207 -0.101669,0 -0.164235,-0.1251318 -0.06257,-0.1329526 -0.07039,-0.2971881 -0.05475,-1.3764503 -0.148594,-2.5808443 -0.08603,-1.2122147 -0.08603,-2.2523732 0,-0.16423554 0.10949,-0.25808442 0.10949,-0.0938489 0.258085,-0.0938489 0.21898,0 0.258084,0.37539553 0.04692,0.37539558 0.05474,0.93848878 0.01564,0.5630933 0.03128,0.8211778 0.391037,-0.2033393 0.782074,-0.2033393 0.907206,0 1.149649,0.7977155 0.140773,0.453603 0.140773,1.1652903 0,0.2346222 -0.04692,0.7429703 -0.0391,0.5005274 -0.04693,0.6491215 -0.0078,0.148594 -0.132952,0.2346222 -0.117311,0.078207 -0.258085,0.078207 -0.21898,0 -0.21898,-0.2346222 l 0.05474,-1.3608088 q 0,-0.1720563 -0.01564,-0.570914 -0.01564,-0.3988578 -0.164235,-0.63348 -0.140774,-0.2346222 -0.500528,-0.2346222 -0.6413,0 -0.6413,0.5005274 z" />
    <path
       id="path53"
       style="font-style:normal;font-variant:normal;font-weight:normal;font-stretch:normal;font-size:7.82074px;font-family:'Patrick Hand';-inkscape-font-specification:'Patrick Hand';fill:#114c8c;stroke-width:0.868972"
       d="m 57.047202,2.3859577 q 0.414499,0 0.789894,0.2424429 0.375396,0.242443 0.375396,0.602197 0,0.3519333 -0.305009,0.6882252 -0.305009,0.328471 -0.813357,0.3988577 -0.218981,0.031283 -0.656942,0.031283 0.08603,0.6647629 0.336292,0.8759229 0.07821,0.086028 0.21116,0.086028 0.484886,0 0.813357,-0.3050089 0.328471,-0.3128296 0.469244,-0.3128296 0.06257,0 0.187698,0.1173111 0.125132,0.1173111 0.125132,0.2189808 0,0.2033392 -0.492707,0.5865555 -0.218981,0.179877 -0.53181,0.3050088 -0.305009,0.1173112 -0.570914,0.1173112 -0.680405,0 -1.001055,-0.875923 -0.203339,-0.539631 -0.203339,-1.1887525 0,-0.6491214 0.305009,-1.1183658 0.305009,-0.4692444 0.961951,-0.4692444 z m 0.0391,0.539631 q -0.297188,0 -0.508348,0.3362919 -0.07821,0.1173111 -0.148594,0.5318103 1.094904,0 1.094904,-0.5396311 0,-0.3284711 -0.437962,-0.3284711 z" />
    <path
       id="path55"
       style="font-style:normal;font-variant:normal;font-weight:normal;font-stretch:normal;font-size:7.82074px;font-family:'Patrick Hand';-inkscape-font-specification:'Patrick Hand';fill:#114c8c;stroke-width:0.868972"
       d="m 60.045968,4.8651323 0.0078,0.8055363 q 0,0.1407733 -0.132953,0.2580844 -0.125132,0.1173111 -0.250264,0.1173111 -0.179877,0 -0.226801,-0.2815467 -0.0078,-0.062566 -0.06257,-1.141828 -0.05475,-1.0870829 -0.21116,-1.7049214 -0.07039,-0.2971881 -0.07039,-0.3519333 0,-0.2580844 0.31283,-0.2580844 0.132953,0 0.21116,0.1016696 0.07821,0.1016696 0.09385,0.21116 0.02346,0.1016696 0.0391,0.2815466 0.01564,0.179877 0.02346,0.2268015 0.164235,-0.391037 0.492706,-0.5865555 0.328472,-0.1955185 0.719509,-0.1955185 0.6413,0 0.6413,0.3284711 0,0.1642355 -0.117311,0.2659051 -0.10949,0.093849 -0.258084,0.093849 -0.664763,0 -0.938489,0.42232 -0.273726,0.42232 -0.273726,1.4077332 z" />
    <path
       id="path57"
       style="font-style:normal;font-variant:normal;font-weight:normal;font-stretch:normal;font-size:7.82074px;font-family:'Patrick Hand';-inkscape-font-specification:'Patrick Hand';fill:#114c8c;stroke-width:0.868972"
       d="m 64.228231,2.3546747 q 0.344112,0 0.344112,0.5865555 0,0.062566 0,0.1329526 l -0.01564,0.5474518 q -0.0078,0.2580845 -0.0078,0.5083481 L 64.666192,5.89747 q 0,0.1955185 -0.398858,0.1955185 -0.02346,0 -0.117311,0 -0.08603,0 -0.125132,-0.070387 -0.03128,-0.070387 -0.0078,-0.1720563 0.03128,-0.1016696 -0.01564,-0.2268015 -0.359754,0.3832163 -0.95413,0.3832163 -1.102725,0 -1.102725,-1.7049214 0,-0.9463095 0.351934,-1.4311954 0.359754,-0.4848859 1.024517,-0.4848859 0.312829,0 0.625659,0.1094903 0.101669,-0.1407733 0.281547,-0.1407733 z m -0.813357,0.7116874 q -0.445783,0 -0.664763,0.2580844 -0.218981,0.2580844 -0.218981,0.9463096 0,1.1574695 0.625659,1.1574695 0.164236,0 0.359754,-0.148594 0.203339,-0.1485941 0.281547,-0.3362919 0.148594,-0.42232 0.148594,-0.9228473 0,-0.5005274 -0.125132,-0.7273289 -0.117311,-0.2268014 -0.406678,-0.2268014 z" />
    <path
       id="path59"
       style="font-style:normal;font-variant:normal;font-weight:normal;font-stretch:normal;font-size:7.82074px;font-family:'Patrick Hand';-inkscape-font-specification:'Patrick Hand';fill:#114c8c;stroke-width:0.868972"
       d="m 67.298482,2.3546747 q 0.344113,0 0.344113,0.5865555 0,0.062566 0,0.1329526 l -0.01564,0.5474518 q -0.0078,0.2580845 -0.0078,0.5083481 L 67.736443,5.89747 q 0,0.1955185 -0.398857,0.1955185 -0.02346,0 -0.117311,0 -0.08603,0 -0.125132,-0.070387 -0.03128,-0.070387 -0.0078,-0.1720563 0.03128,-0.1016696 -0.01564,-0.2268015 -0.359755,0.3832163 -0.954131,0.3832163 -1.102724,0 -1.102724,-1.7049214 0,-0.9463095 0.351933,-1.4311954 0.359754,-0.4848859 1.024517,-0.4848859 0.31283,0 0.625659,0.1094903 0.10167,-0.1407733 0.281547,-0.1407733 z m -0.813357,0.7116874 q -0.445782,0 -0.664763,0.2580844 -0.218981,0.2580844 -0.218981,0.9463096 0,1.1574695 0.62566,1.1574695 0.164235,0 0.359754,-0.148594 0.203339,-0.1485941 0.281546,-0.3362919 0.148594,-0.42232 0.148594,-0.9228473 0,-0.5005274 -0.125132,-0.7273289 -0.117311,-0.2268014 -0.406678,-0.2268014 z" />
    <path
       id="path61"
       style="font-style:normal;font-variant:normal;font-weight:normal;font-stretch:normal;font-size:7.82074px;font-family:'Patrick Hand';-inkscape-font-specification:'Patrick Hand';fill:#114c8c;stroke-width:0.868972"
       d="m 71.772313,0.82963036 q 0.508348,0 0.860281,0.17205624 0.359754,0.1720563 0.359754,0.4379615 0,0.1173111 -0.06257,0.2033392 -0.05474,0.086028 -0.172056,0.086028 -0.109491,0 -0.484886,-0.1720563 -0.375396,-0.179877 -0.688225,-0.179877 -0.305009,0 -0.63348,0.1955185 -0.328471,0.1955185 -0.328471,0.4770651 0,0.3832163 0.398857,0.5630933 0.297189,0.1329526 0.852461,0.242443 0.555273,0.1016696 0.907206,0.4301407 0.351933,0.3206503 0.351933,0.9775925 0,1.0010548 -0.602197,1.4781199 -0.336292,0.2659052 -0.95413,0.2659052 -0.610018,0 -1.220035,-0.3362918 -0.398858,-0.21116 -0.398858,-0.42232 0,-0.078207 0.06257,-0.1720563 0.07039,-0.093849 0.187697,-0.1564148 0.117312,-0.062566 0.21116,-0.015642 0.10167,0.039104 0.320651,0.1485941 0.218981,0.1094903 0.32065,0.148594 0.328471,0.1251319 0.617839,0.1251319 0.289367,0 0.555272,-0.2815467 0.273726,-0.2893673 0.273726,-0.7038666 0,-0.5474518 -0.547452,-0.7664325 Q 71.694105,3.4652198 71.357813,3.4104746 70.661767,3.2853428 70.309834,2.9959754 69.957901,2.6987873 69.957901,2.104411 q 0,-0.5943762 0.508348,-0.9306681 0.508348,-0.34411254 1.306064,-0.34411254 z" />
    <path
       id="path63"
       style="font-style:normal;font-variant:normal;font-weight:normal;font-stretch:normal;font-size:7.82074px;font-family:'Patrick Hand';-inkscape-font-specification:'Patrick Hand';fill:#114c8c;stroke-width:0.868972"
       d="m 73.774298,2.3546747 0.391037,0.00782 q 0.132953,0 0.148594,-0.00782 V 0.75142296 q 0.0078,-0.13295258 0.132953,-0.22680146 0.125132,-0.0938489 0.234622,-0.0938489 0.10949,0 0.172056,0.0703867 0.07039,0.0703867 0.06257,0.21898072 -0.0078,0.14859407 -0.0078,1.626714 l 0.915027,-0.031283 q 0.234622,0 0.234622,0.2737259 0,0.2033393 -0.125132,0.3050089 -0.117311,0.1016696 -0.258084,0.1094903 -0.132953,0.00782 -0.265905,0.00782 l -0.477065,-0.00782 q 0,0.3206504 0.06257,1.26696 0.07039,0.9463095 0.10949,1.2278562 0.0391,0.2737259 0.01564,0.359754 -0.02346,0.078207 -0.08603,0.1094904 -0.101669,0.046924 -0.273726,0.046924 -0.172056,0 -0.203339,-0.1876977 -0.156415,-1.024517 -0.21116,-2.8154665 -0.07039,0.00782 -0.539631,0.00782 -0.469244,0 -0.469244,-0.2737259 0,-0.391037 0.437961,-0.391037 z" />
    <path
       id="path65"
       style="font-style:normal;font-variant:normal;font-weight:normal;font-stretch:normal;font-size:7.82074px;font-family:'Patrick Hand';-inkscape-font-specification:'Patrick Hand';fill:#114c8c;stroke-width:0.868972"
       d="m 78.449147,2.3546747 q 0.344113,0 0.344113,0.5865555 0,0.062566 0,0.1329526 l -0.01564,0.5474518 q -0.0078,0.2580845 -0.0078,0.5083481 L 78.887109,5.89747 q 0,0.1955185 -0.398858,0.1955185 -0.02346,0 -0.117311,0 -0.08603,0 -0.125132,-0.070387 -0.03128,-0.070387 -0.0078,-0.1720563 0.03128,-0.1016696 -0.01564,-0.2268015 -0.359754,0.3832163 -0.954131,0.3832163 -1.102724,0 -1.102724,-1.7049214 0,-0.9463095 0.351933,-1.4311954 0.359754,-0.4848859 1.024517,-0.4848859 0.31283,0 0.62566,0.1094903 0.101669,-0.1407733 0.281546,-0.1407733 z M 77.63579,3.0663621 q -0.445782,0 -0.664763,0.2580844 -0.21898,0.2580844 -0.21898,0.9463096 0,1.1574695 0.625659,1.1574695 0.164235,0 0.359754,-0.148594 0.203339,-0.1485941 0.281547,-0.3362919 0.148594,-0.42232 0.148594,-0.9228473 0,-0.5005274 -0.125132,-0.7273289 Q 77.925158,3.0663621 77.63579,3.0663621 Z" />
    <path
       id="path67"
       style="font-style:normal;font-variant:normal;font-weight:normal;font-stretch:normal;font-size:7.82074px;font-family:'Patrick Hand';-inkscape-font-specification:'Patrick Hand';fill:#114c8c;stroke-width:0.868972"
       d="m 80.346288,4.8651323 0.0078,0.8055363 q 0,0.1407733 -0.132952,0.2580844 -0.125132,0.1173111 -0.250264,0.1173111 -0.179877,0 -0.226801,-0.2815467 -0.0078,-0.062566 -0.06257,-1.141828 -0.05474,-1.0870829 -0.21116,-1.7049214 -0.07039,-0.2971881 -0.07039,-0.3519333 0,-0.2580844 0.31283,-0.2580844 0.132952,0 0.21116,0.1016696 0.07821,0.1016696 0.09385,0.21116 0.02346,0.1016696 0.0391,0.2815466 0.01564,0.179877 0.02346,0.2268015 0.164235,-0.391037 0.492706,-0.5865555 0.328471,-0.1955185 0.719508,-0.1955185 0.641301,0 0.641301,0.3284711 0,0.1642355 -0.117311,0.2659051 -0.109491,0.093849 -0.258085,0.093849 -0.664762,0 -0.938488,0.42232 -0.273726,0.42232 -0.273726,1.4077332 z" />
    <path
       id="path69"
       style="font-style:normal;font-variant:normal;font-weight:normal;font-stretch:normal;font-size:7.82074px;font-family:'Patrick Hand';-inkscape-font-specification:'Patrick Hand';fill:#114c8c;stroke-width:0.868972"
       d="m 82.542082,2.3546747 0.391037,0.00782 q 0.132953,0 0.148594,-0.00782 V 0.75142296 q 0.0078,-0.13295258 0.132953,-0.22680146 0.125132,-0.0938489 0.234622,-0.0938489 0.10949,0 0.172056,0.0703867 0.07039,0.0703867 0.06257,0.21898072 -0.0078,0.14859407 -0.0078,1.626714 l 0.915026,-0.031283 q 0.234622,0 0.234622,0.2737259 0,0.2033393 -0.125132,0.3050089 -0.117311,0.1016696 -0.258084,0.1094903 -0.132953,0.00782 -0.265905,0.00782 l -0.477065,-0.00782 q 0,0.3206504 0.06257,1.26696 0.07039,0.9463095 0.10949,1.2278562 0.0391,0.2737259 0.01564,0.359754 -0.02346,0.078207 -0.08603,0.1094904 -0.101669,0.046924 -0.273726,0.046924 -0.172056,0 -0.203339,-0.1876977 -0.156415,-1.024517 -0.21116,-2.8154665 -0.07039,0.00782 -0.539631,0.00782 -0.469244,0 -0.469244,-0.2737259 0,-0.391037 0.437961,-0.391037 z" />
    <path
       id="path71"
       style="font-style:normal;font-variant:normal;font-weight:normal;font-stretch:normal;font-size:7.82074px;font-family:'Patrick Hand';-inkscape-font-specification:'Patrick Hand';fill:#114c8c;stroke-width:0.868972"
       d="m 85.019303,2.6596836 q 0.03128,-0.1329526 0.132953,-0.2189807 0.10167,-0.093849 0.203339,-0.093849 0.109491,0 0.164236,0.039104 0.06257,0.039104 0.07039,0.070387 0.01564,0.031283 0.03128,0.1094904 -0.04692,0.6100177 -0.04692,1.1027244 0,0.4848859 0.117311,1.1183658 0.117311,0.6256592 0.258084,0.6256592 0.21116,0 0.531811,-0.2346222 0.328471,-0.2346222 0.469244,-0.4927066 -0.09385,-1.1261866 -0.09385,-1.9317228 0,-0.1642356 0.10167,-0.2815467 0.10949,-0.1173111 0.258084,-0.1173111 0.242443,0 0.242443,0.3284711 0,0.5552726 0.07821,1.6501762 0.08603,1.0949036 0.172056,1.3920917 0.01564,0.062566 0.01564,0.1485941 0,0.078207 -0.10949,0.1485941 -0.101669,0.078207 -0.273726,0.078207 -0.164235,0 -0.218981,-0.1876978 -0.01564,-0.1564148 -0.07821,-0.4692444 -0.547452,0.570914 -1.102724,0.570914 -0.258085,0 -0.461424,-0.1955185 -0.203339,-0.1955185 -0.32065,-0.5318103 -0.20334,-0.6491214 -0.20334,-1.2200355 0,-0.570914 0.06257,-1.4077332 z" />
    <path
       id="path73"
       style="font-style:normal;font-variant:normal;font-weight:normal;font-stretch:normal;font-size:7.82074px;font-family:'Patrick Hand';-inkscape-font-specification:'Patrick Hand';fill:#114c8c;stroke-width:0.868972"
       d="m 89.401969,5.9991397 q -0.265905,0 -0.492706,-0.1798771 0,0 -0.10167,-0.086028 v 2.3462221 q -0.04692,0.1564148 -0.164235,0.2580844 -0.117311,0.1094903 -0.250264,0.1094903 -0.203339,0 -0.203339,-0.2737259 V 2.7222495 q 0.04692,-0.2033392 0.10949,-0.2893674 0.07039,-0.086028 0.21116,-0.086028 0.148594,0 0.187698,0.070387 0.04692,0.062566 0.10949,0.3597541 0.03128,-0.1564148 0.250264,-0.2893674 0.218981,-0.1329526 0.586555,-0.1329526 0.797716,0 1.134008,0.5787348 0.336292,0.5787348 0.336292,1.3686295 0,0.782074 -0.461424,1.2434977 -0.453603,0.453603 -1.251319,0.453603 z M 88.807593,3.6529176 v 1.4546577 q 0.04693,0.023462 0.109491,0.078207 0.226801,0.2033392 0.492706,0.2033392 1.079262,0 1.079262,-1.1105451 0,-0.9463096 -0.484886,-1.1965733 -0.203339,-0.1094903 -0.500527,-0.1094903 -0.289367,0.039104 -0.492707,0.2580844 -0.203339,0.21116 -0.203339,0.42232 z" />
    <path
       id="path75"
       style="font-style:normal;font-variant:normal;font-weight:normal;font-stretch:normal;font-size:7.82074px;font-family:'Patrick Hand';-inkscape-font-specification:'Patrick Hand';fill:#114c8c;stroke-width:0.868972"
       d="m 93.96305,5.9991397 q -0.265905,0 -0.516168,-1.0323378 -0.242443,-1.0401584 -0.242443,-2.3305805 0,-0.1329526 0.10949,-0.2033393 0.117311,-0.078207 0.21116,-0.078207 0.09385,0 0.148594,0.062566 0.06257,0.054745 0.06257,0.1485941 0,1.2200355 0.414499,2.3462221 0.06257,-0.093849 0.195519,-0.3753956 0.132952,-0.2893674 0.250263,-0.4223199 0.117311,-0.1329526 0.281547,-0.1329526 0.164236,0 0.344113,0.2424429 0.179877,0.242443 0.305008,0.5239896 0.132953,0.2737259 0.148594,0.2893674 0.21116,-0.6569422 0.21116,-1.2200355 l -0.04692,-1.1887525 q -0.0078,-0.1173111 0.10949,-0.1955185 0.117311,-0.086028 0.226802,-0.086028 0.226801,0 0.226801,0.8837436 v 0.4301407 q 0,1.0479792 -0.32065,1.8691569 -0.172056,0.4692445 -0.430141,0.4692445 -0.148594,0 -0.273726,-0.1876978 Q 95.253473,5.6159234 95.097058,5.2639901 94.940643,4.9120568 94.854615,4.7791042 l -0.234622,0.4614237 q -0.132953,0.2737259 -0.20334,0.3988577 -0.07039,0.1173111 -0.195518,0.2424429 -0.125132,0.1173112 -0.258085,0.1173112 z" />
    <path
       id="path77"
       style="font-style:normal;font-variant:normal;font-weight:normal;font-stretch:normal;font-size:7.82074px;font-family:'Patrick Hand';-inkscape-font-specification:'Patrick Hand';fill:#114c8c;stroke-width:0.868972"
       d="m 98.060263,2.3859577 q 0.414499,0 0.789895,0.2424429 0.375396,0.242443 0.375396,0.602197 0,0.3519333 -0.305009,0.6882252 -0.305009,0.328471 -0.813357,0.3988577 -0.218981,0.031283 -0.656943,0.031283 0.08603,0.6647629 0.336292,0.8759229 0.07821,0.086028 0.21116,0.086028 0.484886,0 0.813357,-0.3050089 0.328471,-0.3128296 0.469245,-0.3128296 0.06257,0 0.187697,0.1173111 0.125132,0.1173111 0.125132,0.2189808 0,0.2033392 -0.492706,0.5865555 -0.218981,0.179877 -0.531811,0.3050088 -0.305009,0.1173112 -0.570914,0.1173112 -0.680404,0 -1.001054,-0.875923 -0.20334,-0.539631 -0.20334,-1.1887525 0,-0.6491214 0.305009,-1.1183658 0.305009,-0.4692444 0.961951,-0.4692444 z m 0.0391,0.539631 q -0.297188,0 -0.508348,0.3362919 -0.07821,0.1173111 -0.148594,0.5318103 1.094903,0 1.094903,-0.5396311 0,-0.3284711 -0.437961,-0.3284711 z" />
    <path
       id="path79"
       style="font-style:normal;font-variant:normal;font-weight:normal;font-stretch:normal;font-size:7.82074px;font-family:'Patrick Hand';-inkscape-font-specification:'Patrick Hand';fill:#114c8c;stroke-width:0.868972"
       d="m 101.17634,2.3859577 q 0.4145,0 0.78989,0.2424429 0.3754,0.242443 0.3754,0.602197 0,0.3519333 -0.30501,0.6882252 -0.30501,0.328471 -0.81336,0.3988577 -0.21898,0.031283 -0.65694,0.031283 0.086,0.6647629 0.33629,0.8759229 0.0782,0.086028 0.21116,0.086028 0.48489,0 0.81336,-0.3050089 0.32847,-0.3128296 0.46924,-0.3128296 0.0626,0 0.1877,0.1173111 0.12513,0.1173111 0.12513,0.2189808 0,0.2033392 -0.4927,0.5865555 -0.21899,0.179877 -0.53182,0.3050088 -0.305,0.1173112 -0.57091,0.1173112 -0.6804,0 -1.00105,-0.875923 -0.203343,-0.539631 -0.203343,-1.1887525 0,-0.6491214 0.305013,-1.1183658 0.305,-0.4692444 0.96195,-0.4692444 z m 0.0391,0.539631 q -0.29719,0 -0.50835,0.3362919 -0.0782,0.1173111 -0.14859,0.5318103 1.0949,0 1.0949,-0.5396311 0,-0.3284711 -0.43796,-0.3284711 z" />
    <path
       id="path81"
       style="font-style:normal;font-variant:normal;font-weight:normal;font-stretch:normal;font-size:7.82074px;font-family:'Patrick Hand';-inkscape-font-specification:'Patrick Hand';fill:#114c8c;stroke-width:0.868972"
       d="m 105.95824,5.6550271 q 0,0.3675748 -0.3363,0.3675748 -0.14077,0 -0.38321,-0.6882252 -0.24245,-0.6960458 -0.64912,-1.0714414 -0.0391,0.054745 -0.3363,0.3128296 -0.28936,0.2502637 -0.34411,0.3050089 v 0.782074 q -0.0156,0.1173111 -0.0391,0.179877 -0.0235,0.062566 -0.10949,0.1173112 -0.0782,0.054745 -0.21898,0.054745 -0.21116,0 -0.21116,-0.2580844 0,-0.7273288 -0.0626,-2.2523732 -0.0626,-1.5328651 -0.0626,-2.7450798 0,-0.14859406 0.11731,-0.2346222 0.12513,-0.0860281 0.25808,-0.0860281 0.17988,0 0.21898,0.22680147 V 2.0496658 q 0,0.2502637 0.008,0.3753956 0.008,0.1251318 0.0156,0.3753955 0.0156,0.5161689 0.0547,1.1652903 0.2268,-0.1720563 0.57873,-0.5396311 0.35976,-0.3753955 0.53963,-0.6413007 0.28155,-0.4457822 0.51617,-0.4457822 0.0626,0 0.12514,0.031283 0.16423,0.093849 0.16423,0.2189807 0,0.1251319 -0.10949,0.3284711 -0.28155,0.4848859 -0.64912,0.8837436 0.35193,0.3910371 0.70387,1.1183659 0.21116,0.4692444 0.21116,0.7351496 z" />
    <path
       id="path83"
       style="font-style:normal;font-variant:normal;font-weight:normal;font-stretch:normal;font-size:7.82074px;font-family:'Patrick Hand';-inkscape-font-specification:'Patrick Hand';fill:#114c8c;stroke-width:0.868972"
       d="m 107.53069,2.3859577 q 0.4145,0 0.7899,0.2424429 0.37539,0.242443 0.37539,0.602197 0,0.3519333 -0.30501,0.6882252 -0.30501,0.328471 -0.81335,0.3988577 -0.21898,0.031283 -0.65695,0.031283 0.086,0.6647629 0.3363,0.8759229 0.0782,0.086028 0.21116,0.086028 0.48488,0 0.81335,-0.3050089 0.32847,-0.3128296 0.46925,-0.3128296 0.0626,0 0.18769,0.1173111 0.12514,0.1173111 0.12514,0.2189808 0,0.2033392 -0.49271,0.5865555 -0.21898,0.179877 -0.53181,0.3050088 -0.30501,0.1173112 -0.57091,0.1173112 -0.68041,0 -1.00106,-0.875923 -0.20334,-0.539631 -0.20334,-1.1887525 0,-0.6491214 0.30501,-1.1183658 0.30501,-0.4692444 0.96195,-0.4692444 z m 0.0391,0.539631 q -0.29719,0 -0.50835,0.3362919 -0.0782,0.1173111 -0.1486,0.5318103 1.09491,0 1.09491,-0.5396311 0,-0.3284711 -0.43796,-0.3284711 z" />
    <path
       id="path85"
       style="font-style:normal;font-variant:normal;font-weight:normal;font-stretch:normal;font-size:7.82074px;font-family:'Patrick Hand';-inkscape-font-specification:'Patrick Hand';fill:#114c8c;stroke-width:0.868972"
       d="m 109.81777,5.7645174 -0.086,-3.1752205 q 0,-0.148594 0.10167,-0.2424429 0.10167,-0.093849 0.20334,-0.093849 0.25026,0 0.28936,0.21116 0.0313,0.21116 0.0313,0.4379614 0.42232,-0.5552725 1.0558,-0.5552725 0.96977,0 0.96977,2.2132695 0,0.2033392 0,0.6178384 0,0.4066785 -0.0469,0.5943763 -0.0547,0.2346222 -0.3363,0.2346222 -0.18769,0 -0.18769,-0.2502637 l 0.008,-0.4379614 q 0,-0.9072059 -0.0626,-1.235677 -0.0547,-0.3362918 -0.10949,-0.5318103 -0.13295,-0.42232 -0.43014,-0.42232 -0.39104,0 -0.54745,0.2815466 -0.17206,0.3050089 -0.20334,0.7195081 -0.0548,0.7273289 -0.0548,1.5406859 0,0.1564148 -0.11731,0.2502636 -0.11731,0.093849 -0.28154,0.093849 -0.19552,0 -0.19552,-0.2502637 z" />
    <path
       id="path87"
       style="font-style:normal;font-variant:normal;font-weight:normal;font-stretch:normal;font-size:7.82074px;font-family:'Patrick Hand';-inkscape-font-specification:'Patrick Hand';fill:#114c8c;stroke-width:0.868972"
       d="m 114.91823,2.346854 -0.008,-1.5094029 q 0,-0.42231997 0.26591,-0.42231997 0.27372,0 0.305,0.23462221 0.0157,0.10166962 0.0391,1.22785626 0.0235,1.1261865 0.0704,2.1115998 0.0547,0.9854133 0.0547,1.837874 0,0.2346222 -0.35193,0.2346222 -0.23463,0 -0.23463,-0.3284711 -0.33629,0.2659052 -0.79771,0.2659052 -0.58656,0 -0.95413,-0.4379615 -0.35976,-0.4379615 -0.35976,-1.0792622 0,-0.6413006 0.25809,-1.1965732 0.2659,-0.5630933 0.82118,-0.8055362 0.34411,-0.1485941 0.66476,-0.1485941 0.11731,0 0.2268,0.015642 z m 0.0391,1.0714414 q -0.0547,-0.1720563 -0.13296,-0.2580844 -0.0782,-0.093849 -0.17205,-0.1094904 -0.086,-0.023462 -0.21116,-0.023462 -0.12514,0 -0.30501,0.093849 -0.17988,0.093849 -0.30501,0.3050089 -0.25027,0.42232 -0.25027,0.8915644 0,0.4614237 0.17988,0.7586118 0.1877,0.2893674 0.52399,0.2893674 0.34411,0 0.53963,-0.3362918 0.19552,-0.3362919 0.19552,-0.8602815 0,-0.5865555 -0.0626,-0.750791 z" />
  </g>
</svg>
