<?xml version="1.0" encoding="UTF-8" standalone="no"?>
<svg
   xmlns:dc="http://purl.org/dc/elements/1.1/"
   xmlns:cc="http://creativecommons.org/ns#"
   xmlns:rdf="http://www.w3.org/1999/02/22-rdf-syntax-ns#"
   xmlns:svg="http://www.w3.org/2000/svg"
   xmlns="http://www.w3.org/2000/svg"
   xmlns:sodipodi="http://sodipodi.sourceforge.net/DTD/sodipodi-0.dtd"
   xmlns:inkscape="http://www.inkscape.org/namespaces/inkscape"
   height="44.228386"
   width="48.337826"
   inkscape:version="1.0 (4035a4f, 2020-05-01)"
   sodipodi:docname="winnerSheraa-d-new.svg"
   version="1.1"
   viewBox="0 0 48.337823 44.228385"
   data-name="Capa 1"
   id="Capa_1">
  <metadata
     id="metadata42">
    <rdf:RDF>
      <cc:Work
         rdf:about="">
        <dc:format>image/svg+xml</dc:format>
        <dc:type
           rdf:resource="http://purl.org/dc/dcmitype/StillImage" />
        <dc:title>winner at Sheraa</dc:title>
      </cc:Work>
    </rdf:RDF>
  </metadata>
  <sodipodi:namedview
     inkscape:current-layer="Capa_1"
     inkscape:window-maximized="0"
     inkscape:window-y="26"
     inkscape:window-x="205"
     inkscape:cy="49.279467"
     inkscape:cx="5.9600793"
     inkscape:zoom="7.1705822"
     showgrid="false"
     id="namedview40"
     inkscape:window-height="956"
     inkscape:window-width="1528"
     inkscape:pageshadow="2"
     inkscape:pageopacity="0"
     guidetolerance="10"
     gridtolerance="10"
     objecttolerance="10"
     borderopacity="1"
     bordercolor="#666666"
     pagecolor="#ffffff"
     inkscape:document-rotation="0" />
  <defs
     id="defs15">
    <style
       id="style10">.cls-1{fill:#fff;}.cls-1,.cls-3{fill-rule:evenodd;}.cls-2{mask:url(#mask);}.cls-3,.cls-4{fill:#114c8c;}.cls-4{font-size:20.27px;font-family:PatrickHand-Regular, Patrick Hand;}</style>
    <mask
       maskUnits="userSpaceOnUse"
       height="41.94"
       width="51.98"
       y="13.75"
       x="47.51"
       id="mask">
      <g
         id="b">
        <polygon
           points="47.51,13.75 47.51,55.69 99.49,55.69 99.49,13.75 "
           class="cls-1"
           id="a" />
      </g>
    </mask>
  </defs>
  <title
     id="title17">winner at Sheraa</title>
  <g
     transform="matrix(0.93712217,0,0,0.91231433,-44.746518,-12.544322)"
     id="g52">
    <g
       class="cls-2"
       mask="url(#mask)"
       id="g21">
      <path
         class="cls-3"
         d="m 91.63,39.36 a 1.19,1.19 0 0 1 -0.67,0.33 V 39.5 a 0.92,0.92 0 0 0 0.57,-0.27 c 0.19,-0.19 0.25,-0.42 0.07,-0.6 -0.18,-0.18 -0.39,-0.06 -0.6,0.08 -0.21,0.14 -0.5,0.34 -0.78,0.06 a 0.54,0.54 0 0 1 0.06,-0.81 1,1 0 0 1 0.53,-0.3 v 0.19 a 0.83,0.83 0 0 0 -0.44,0.24 c -0.18,0.18 -0.23,0.39 -0.06,0.55 0.17,0.16 0.36,0 0.62,-0.13 0.26,-0.13 0.49,-0.3 0.77,0 a 0.58,0.58 0 0 1 -0.09,0.87"
         id="path19" />
    </g>
    <g
       class="cls-2"
       mask="url(#mask)"
       id="g25">
      <path
         class="cls-3"
         d="m 91.38,36.87 -0.14,0.13 1.36,1.36 0.13,-0.13 -0.63,-0.63 0.67,-0.66 0.63,0.62 0.13,-0.13 -1.36,-1.36 -0.13,0.13 0.61,0.62 -0.66,0.66 z"
         style="fill:#114c8c;fill-rule:evenodd"
         id="polygon23" />
    </g>
    <g
       class="cls-2"
       mask="url(#mask)"
       id="g29">
      <path
         class="cls-3"
         d="m 94.84,35.88 -0.71,0.71 -0.51,-0.51 0.61,-0.6 -0.12,-0.12 -0.6,0.6 -0.5,-0.49 0.71,-0.71 -0.12,-0.12 -0.84,0.84 1.36,1.36 0.84,-0.84 z"
         style="fill:#114c8c;fill-rule:evenodd"
         id="polygon27" />
    </g>
    <g
       class="cls-2"
       mask="url(#mask)"
       id="g33">
      <path
         class="cls-3"
         d="m 96.22,34.74 -0.89,-0.33 -0.35,0.35 0.61,0.61 -0.13,0.13 -1.36,-1.36 0.54,-0.54 a 0.51,0.51 0 0 1 0.75,0 0.53,0.53 0 0 1 0.06,0.69 l 0.92,0.33 z m -1.49,-1 -0.38,0.38 0.51,0.51 0.37,-0.37 a 0.37,0.37 0 0 0 0,-0.56 0.35,0.35 0 0 0 -0.53,0 z m 2.58,-0.74 -0.61,0.61 0.21,0.43 -0.14,0.14 c -0.29,-0.61 -0.58,-1.23 -0.86,-1.85 l 0.12,-0.12 1.85,0.86 -0.14,0.14 z m -1.18,-0.56 c 0.05,0.09 0.14,0.28 0.23,0.47 0.09,0.19 0.21,0.43 0.26,0.55 l 0.54,-0.53 -0.6,-0.29 -0.42,-0.2 z m 2.62,-0.88 -0.61,0.61 0.21,0.43 -0.14,0.14 C 97.92,32.12 97.64,31.5 97.35,30.89 l 0.12,-0.13 1.86,0.87 -0.14,0.14 z M 97.58,31 97.8,31.47 98.07,32.02 98.6,31.48 98,31.21 Z M 49.76,34.16 H 59.4 A 0.58,0.58 0 0 0 59.4,33 10.3,10.3 0 0 1 49.75,26.55 11,11 0 0 1 52,14.74 a 0.59,0.59 0 0 0 0,-0.82 0.59,0.59 0 0 0 -0.83,0 12.09,12.09 0 0 0 -2.49,13.08 11.49,11.49 0 0 0 5.58,6 h -5.91 a 0.59,0.59 0 0 0 -0.54,0.35 0.59,0.59 0 0 0 0.13,0.64 l 5.53,5.53 a 0.58,0.58 0 0 0 0.42,0.17 0.58,0.58 0 0 0 0.41,-0.17 0.59,0.59 0 0 0 0,-0.82 z m 25.85,-1.62 a 0.56,0.56 0 0 0 0.41,-0.17 L 77.39,31 a 0.59,0.59 0 0 0 0,-0.83 0.59,0.59 0 0 0 -0.82,0 l -1.38,1.38 a 0.59,0.59 0 0 0 0,0.82 0.58,0.58 0 0 0 0.42,0.17 m 8.09,0 a 0.58,0.58 0 0 0 0.41,-0.17 L 85.48,31 a 0.59,0.59 0 0 0 0,-0.83 0.59,0.59 0 0 0 -0.82,0 l -1.38,1.38 a 0.59,0.59 0 0 0 0,0.82 0.58,0.58 0 0 0 0.42,0.17 m 6.39,0.47 -4.72,4.72 a 2.67,2.67 0 0 1 -4.56,-1.88 l 2,-2 a 0.59,0.59 0 0 0 0,-0.83 A 0.59,0.59 0 0 0 82,33 l -4.72,4.72 a 2.67,2.67 0 0 1 -4.56,-1.88 l 2,-2 a 0.59,0.59 0 0 0 0,-0.83 0.59,0.59 0 0 0 -0.82,0 l -4.72,4.72 a 2.67,2.67 0 0 1 -4.56,-1.88 l 2,-2 A 0.58,0.58 0 0 0 65.8,33.03 l -5.7,5.7 a 0.57,0.57 0 0 0 0,0.82 0.58,0.58 0 0 0 0.82,0 l 2.67,-2.67 a 3.75,3.75 0 0 0 2.23,2.51 3.76,3.76 0 0 0 4.18,-0.84 l 1.67,-1.67 a 3.76,3.76 0 0 0 2.23,2.5 3.76,3.76 0 0 0 4.19,-0.83 l 1.67,-1.67 a 3.76,3.76 0 0 0 2.24,2.5 3.76,3.76 0 0 0 4.19,-0.83 l 4.71,-4.71 a 0.59,0.59 0 0 0 0,-0.83 0.59,0.59 0 0 0 -0.82,0 m 3.48,-2.84 a 0.59,0.59 0 0 0 -0.82,0 l -1.38,1.38 a 0.59,0.59 0 0 0 0,0.82 0.58,0.58 0 0 0 0.42,0.17 0.58,0.58 0 0 0 0.41,-0.17 L 93.57,31 a 0.59,0.59 0 0 0 0,-0.83 m -27.3,0 a 0.59,0.59 0 0 0 -0.82,0 l -8.55,8.55 a 0.57,0.57 0 0 0 0,0.82 0.54,0.54 0 0 0 0.41,0.17 0.56,0.56 0 0 0 0.41,-0.17 L 66.27,31 a 0.59,0.59 0 0 0 0,-0.83"
         id="path31" />
    </g>
  </g>
  <g
     id="g119"
     transform="matrix(0.56080184,0,0,0.6576421,-0.71865875,8.215646)">
    <path
       id="path136"
       style="font-style:normal;font-variant:normal;font-weight:normal;font-stretch:normal;font-size:14px;font-family:'Patrick Hand';-inkscape-font-specification:'Patrick Hand';text-align:center;word-spacing:-0.06px;baseline-shift:sub;text-anchor:middle;fill:#114c8c"
       d="m 9.1435052,27.215876 q 0.294,0 0.406,0.42 -0.084,1.414 -0.182,2.016 -0.098,0.588 -0.168,1.036 -0.056,0.448 -0.084,0.616 -0.014,0.168 -0.112,0.686 -0.098,0.518 -0.21,1.036 -0.098,0.504 -0.126,0.602 -0.014,0.098 -0.252,1.26 -0.238,1.148 -0.364,1.414 -0.112,0.252 -0.406,0.252 -0.28,0 -0.448,-0.168 -0.644,-0.882 -1.218,-2.184 -0.14,-0.336 -0.322,-0.728 -0.168,-0.392 -0.252,-0.588 l -0.126,-0.294 q -0.294,0.504 -0.812,1.708 -0.518,1.204 -0.91,1.932 -0.252,0.322 -0.56,0.322 -0.644,0 -0.98,-3.43 0,-0.014 -0.028,-0.154 -0.014,-0.14 -0.056,-0.49 -0.028,-0.35 -0.084,-0.77 -0.042,-0.434 -0.35,-3.542 0,-0.28 0.21,-0.504 0.21,-0.238 0.462,-0.238 0.308,0 0.42,0.406 0.378,4.55 0.756,6.72 0.112,-0.196 0.574,-1.288 0.462,-1.106 0.84,-1.75 0.378,-0.658 0.728,-0.658 0.238,0 0.406,0.252 0.882,2.506 1.512,3.528 0.014,-0.154 0.168,-0.84 l 0.182,-0.896 q 0,-0.084 0.028,-0.238 0.042,-0.154 0.056,-0.294 0.028,-0.154 0.056,-0.28 l 0.154,-0.882 q 0.336,-2.072 0.42,-3.402 0.056,-0.238 0.252,-0.406 0.21,-0.182 0.42,-0.182 z" />
    <path
       id="path138"
       style="font-style:normal;font-variant:normal;font-weight:normal;font-stretch:normal;font-size:14px;font-family:'Patrick Hand';-inkscape-font-specification:'Patrick Hand';text-align:center;word-spacing:-0.06px;baseline-shift:sub;text-anchor:middle;fill:#114c8c"
       d="m 11.162786,27.705876 q 0.252,0 0.476,0.238 0.224,0.238 0.224,0.504 0,0.252 -0.252,0.518 -0.238,0.266 -0.504,0.266 -0.266,0 -0.49,-0.224 -0.21,-0.224 -0.21,-0.574 0,-0.672 0.728,-0.728 0.014,0 0.028,0 z m 0.588,7.336 0.014,0.98 q 0,0.266 -0.21,0.448 -0.21,0.168 -0.448,0.168 -0.35,0 -0.364,-0.35 -0.182,-4.466 -0.182,-4.942 0,-0.476 0.042,-1.162 0.028,-0.252 0.322,-0.252 0.742,0 0.84,0.602 0.042,0.308 0.042,0.49 l -0.056,0.882 z" />
    <path
       id="path140"
       style="font-style:normal;font-variant:normal;font-weight:normal;font-stretch:normal;font-size:14px;font-family:'Patrick Hand';-inkscape-font-specification:'Patrick Hand';text-align:center;word-spacing:-0.06px;baseline-shift:sub;text-anchor:middle;fill:#114c8c"
       d="m 13.915318,36.119876 -0.154,-5.684 q 0,-0.266 0.182,-0.434 0.182,-0.168 0.364,-0.168 0.448,0 0.518,0.378 0.056,0.378 0.056,0.784 0.756,-0.994 1.89,-0.994 1.736,0 1.736,3.962 0,0.364 0,1.106 0,0.728 -0.084,1.064 -0.098,0.42 -0.602,0.42 -0.336,0 -0.336,-0.448 l 0.014,-0.784 q 0,-1.624 -0.112,-2.212 -0.098,-0.602 -0.196,-0.952 -0.238,-0.756 -0.77,-0.756 -0.7,0 -0.98,0.504 -0.308,0.546 -0.364,1.288 -0.098,1.302 -0.098,2.758 0,0.28 -0.21,0.448 -0.21,0.168 -0.504,0.168 -0.35,0 -0.35,-0.448 z" />
    <path
       id="path142"
       style="font-style:normal;font-variant:normal;font-weight:normal;font-stretch:normal;font-size:14px;font-family:'Patrick Hand';-inkscape-font-specification:'Patrick Hand';text-align:center;word-spacing:-0.06px;baseline-shift:sub;text-anchor:middle;fill:#114c8c"
       d="m 20.231724,36.119876 -0.154,-5.684 q 0,-0.266 0.182,-0.434 0.182,-0.168 0.364,-0.168 0.448,0 0.518,0.378 0.056,0.378 0.056,0.784 0.756,-0.994 1.89,-0.994 1.736,0 1.736,3.962 0,0.364 0,1.106 0,0.728 -0.084,1.064 -0.098,0.42 -0.602,0.42 -0.336,0 -0.336,-0.448 l 0.014,-0.784 q 0,-1.624 -0.112,-2.212 -0.098,-0.602 -0.196,-0.952 -0.238,-0.756 -0.77,-0.756 -0.7,0 -0.98,0.504 -0.308,0.546 -0.364,1.288 -0.098,1.302 -0.098,2.758 0,0.28 -0.21,0.448 -0.21,0.168 -0.504,0.168 -0.35,0 -0.35,-0.448 z" />
    <path
       id="path144"
       style="font-style:normal;font-variant:normal;font-weight:normal;font-stretch:normal;font-size:14px;font-family:'Patrick Hand';-inkscape-font-specification:'Patrick Hand';text-align:center;word-spacing:-0.06px;baseline-shift:sub;text-anchor:middle;fill:#114c8c"
       d="m 28.03213,30.071876 q 0.742,0 1.414,0.434 0.672,0.434 0.672,1.078 0,0.63 -0.546,1.232 -0.546,0.588 -1.456,0.714 -0.392,0.056 -1.176,0.056 0.154,1.19 0.602,1.568 0.14,0.154 0.378,0.154 0.868,0 1.456,-0.546 0.588,-0.56 0.84,-0.56 0.112,0 0.336,0.21 0.224,0.21 0.224,0.392 0,0.364 -0.882,1.05 -0.392,0.322 -0.952,0.546 -0.546,0.21 -1.022,0.21 -1.218,0 -1.792,-1.568 -0.364,-0.966 -0.364,-2.128 0,-1.162 0.546,-2.002 0.546,-0.84 1.722,-0.84 z m 0.07,0.966 q -0.532,0 -0.91,0.602 -0.14,0.21 -0.266,0.952 1.96,0 1.96,-0.966 0,-0.588 -0.784,-0.588 z" />
    <path
       id="path146"
       style="font-style:normal;font-variant:normal;font-weight:normal;font-stretch:normal;font-size:14px;font-family:'Patrick Hand';-inkscape-font-specification:'Patrick Hand';text-align:center;word-spacing:-0.06px;baseline-shift:sub;text-anchor:middle;fill:#114c8c"
       d="m 33.400255,34.509876 0.014,1.442 q 0,0.252 -0.238,0.462 -0.224,0.21 -0.448,0.21 -0.322,0 -0.406,-0.504 -0.014,-0.112 -0.112,-2.044 -0.098,-1.946 -0.378,-3.052 -0.126,-0.532 -0.126,-0.63 0,-0.462 0.56,-0.462 0.238,0 0.378,0.182 0.14,0.182 0.168,0.378 0.042,0.182 0.07,0.504 0.028,0.322 0.042,0.406 0.294,-0.7 0.882,-1.05 0.588,-0.35 1.288,-0.35 1.148,0 1.148,0.588 0,0.294 -0.21,0.476 -0.196,0.168 -0.462,0.168 -1.19,0 -1.68,0.756 -0.49,0.756 -0.49,2.52 z" />
    <path
       id="path148"
       style="font-style:normal;font-variant:normal;font-weight:normal;font-stretch:normal;font-size:14px;font-family:'Patrick Hand';-inkscape-font-specification:'Patrick Hand';text-align:center;word-spacing:-0.06px;baseline-shift:sub;text-anchor:middle;fill:#114c8c"
       d="m 44.053535,30.015876 q 0.616,0 0.616,1.05 0,0.112 0,0.238 l -0.028,0.98 q -0.014,0.462 -0.014,0.91 l 0.21,3.164 q 0,0.35 -0.714,0.35 -0.042,0 -0.21,0 -0.154,0 -0.224,-0.126 -0.056,-0.126 -0.014,-0.308 0.056,-0.182 -0.028,-0.406 -0.644,0.686 -1.708,0.686 -1.974,0 -1.974,-3.052 0,-1.694 0.63,-2.562 0.644,-0.868 1.834,-0.868 0.56,0 1.12,0.196 0.182,-0.252 0.504,-0.252 z m -1.456,1.274 q -0.798,0 -1.19,0.462 -0.392,0.462 -0.392,1.694 0,2.072 1.12,2.072 0.294,0 0.644,-0.266 0.364,-0.266 0.504,-0.602 0.266,-0.756 0.266,-1.652 0,-0.896 -0.224,-1.302 -0.21,-0.406 -0.728,-0.406 z" />
    <path
       id="path150"
       style="font-style:normal;font-variant:normal;font-weight:normal;font-stretch:normal;font-size:14px;font-family:'Patrick Hand';-inkscape-font-specification:'Patrick Hand';text-align:center;word-spacing:-0.06px;baseline-shift:sub;text-anchor:middle;fill:#114c8c"
       d="m 45.993629,30.015876 0.7,0.014 q 0.238,0 0.266,-0.014 v -2.87 q 0.014,-0.238 0.238,-0.406 0.224,-0.168 0.42,-0.168 0.196,0 0.308,0.126 0.126,0.126 0.112,0.392 -0.014,0.266 -0.014,2.912 l 1.638,-0.056 q 0.42,0 0.42,0.49 0,0.364 -0.224,0.546 -0.21,0.182 -0.462,0.196 -0.238,0.014 -0.476,0.014 l -0.854,-0.014 q 0,0.574 0.112,2.268 0.126,1.694 0.196,2.198 0.07,0.49 0.028,0.644 -0.042,0.14 -0.154,0.196 -0.182,0.084 -0.49,0.084 -0.308,0 -0.364,-0.336 -0.28,-1.834 -0.378,-5.04 -0.126,0.014 -0.966,0.014 -0.84,0 -0.84,-0.49 0,-0.7 0.784,-0.7 z" />
  </g>
  <g
     id="g109"
     transform="matrix(0.56080184,0,0,0.6576421,24.79515,0.66441766)">
    <path
       id="path152"
       style="font-style:normal;font-variant:normal;font-weight:normal;font-stretch:normal;font-size:14px;font-family:'Patrick Hand';-inkscape-font-specification:'Patrick Hand';text-align:center;word-spacing:-0.06px;baseline-shift:sub;text-anchor:middle;fill:#114c8c"
       d="m 11.683582,38.789152 q 0.91,0 1.54,0.308 0.644,0.308 0.644,0.784 0,0.21 -0.112,0.364 -0.098,0.154 -0.308,0.154 -0.196,0 -0.868,-0.308 -0.672,-0.322 -1.232,-0.322 -0.546,0 -1.134,0.35 -0.5880001,0.35 -0.5880001,0.854 0,0.686 0.7140001,1.008 0.532,0.238 1.526,0.434 0.994,0.182 1.624,0.77 0.63,0.574 0.63,1.75 0,1.792 -1.078,2.646 -0.602,0.476 -1.708,0.476 -1.092,0 -2.1839998,-0.602 -0.714,-0.378 -0.714,-0.756 0,-0.14 0.112,-0.308 0.126,-0.168 0.336,-0.28 0.21,-0.112 0.378,-0.028 0.182,0.07 0.5739997,0.266 0.3920001,0.196 0.5740001,0.266 0.588,0.224 1.106,0.224 0.518,0 0.994,-0.504 0.49,-0.518 0.49,-1.26 0,-0.98 -0.98,-1.372 -0.476,-0.196 -1.078,-0.294 -1.2460001,-0.224 -1.8759998,-0.742 -0.63,-0.532 -0.63,-1.596 0,-1.064 0.91,-1.666 0.9099998,-0.616 2.3379998,-0.616 z" />
    <path
       id="path154"
       style="font-style:normal;font-variant:normal;font-weight:normal;font-stretch:normal;font-size:14px;font-family:'Patrick Hand';-inkscape-font-specification:'Patrick Hand';text-align:center;word-spacing:-0.06px;baseline-shift:sub;text-anchor:middle;fill:#114c8c"
       d="m 16.415364,43.521152 0.112,3.304 q 0,0.616 -0.056,0.714 -0.028,0.252 -0.168,0.392 -0.126,0.14 -0.504,0.14 -0.182,0 -0.294,-0.224 -0.112,-0.238 -0.126,-0.532 -0.098,-2.464 -0.266,-4.62 -0.154,-2.17 -0.154,-4.032 0,-0.294 0.196,-0.462 0.196,-0.168 0.462,-0.168 0.392,0 0.462,0.672 0.084,0.672 0.098,1.68 0.028,1.008 0.056,1.47 0.7,-0.364 1.4,-0.364 1.624,0 2.058,1.428 0.252,0.812 0.252,2.086 0,0.42 -0.084,1.33 -0.07,0.896 -0.084,1.162 -0.014,0.266 -0.238,0.42 -0.21,0.14 -0.462,0.14 -0.392,0 -0.392,-0.42 l 0.098,-2.436 q 0,-0.308 -0.028,-1.022 -0.028,-0.714 -0.294,-1.134 -0.252,-0.42 -0.896,-0.42 -1.148,0 -1.148,0.896 z" />
    <path
       id="path156"
       style="font-style:normal;font-variant:normal;font-weight:normal;font-stretch:normal;font-size:14px;font-family:'Patrick Hand';-inkscape-font-specification:'Patrick Hand';text-align:center;word-spacing:-0.06px;baseline-shift:sub;text-anchor:middle;fill:#114c8c"
       d="m 22.81227,41.575152 q 0.742,0 1.414,0.434 0.672,0.434 0.672,1.078 0,0.63 -0.546,1.232 -0.546,0.588 -1.456,0.714 -0.392,0.056 -1.176,0.056 0.154,1.19 0.602,1.568 0.14,0.154 0.378,0.154 0.868,0 1.456,-0.546 0.588,-0.56 0.84,-0.56 0.112,0 0.336,0.21 0.224,0.21 0.224,0.392 0,0.364 -0.882,1.05 -0.392,0.322 -0.952,0.546 -0.546,0.21 -1.022,0.21 -1.218,0 -1.792,-1.568 -0.364,-0.966 -0.364,-2.128 0,-1.162 0.546,-2.002 0.546,-0.84 1.722,-0.84 z m 0.07,0.966 q -0.532,0 -0.91,0.602 -0.14,0.21 -0.266,0.952 1.96,0 1.96,-0.966 0,-0.588 -0.784,-0.588 z" />
    <path
       id="path158"
       style="font-style:normal;font-variant:normal;font-weight:normal;font-stretch:normal;font-size:14px;font-family:'Patrick Hand';-inkscape-font-specification:'Patrick Hand';text-align:center;word-spacing:-0.06px;baseline-shift:sub;text-anchor:middle;fill:#114c8c"
       d="m 28.180395,46.013152 0.014,1.442 q 0,0.252 -0.238,0.462 -0.224,0.21 -0.448,0.21 -0.322,0 -0.406,-0.504 -0.014,-0.112 -0.112,-2.044 -0.098,-1.946 -0.378,-3.052 -0.126,-0.532 -0.126,-0.63 0,-0.462 0.56,-0.462 0.238,0 0.378,0.182 0.14,0.182 0.168,0.378 0.042,0.182 0.07,0.504 0.028,0.322 0.042,0.406 0.294,-0.7 0.882,-1.05 0.588,-0.35 1.288,-0.35 1.148,0 1.148,0.588 0,0.294 -0.21,0.476 -0.196,0.168 -0.462,0.168 -1.19,0 -1.68,0.756 -0.49,0.756 -0.49,2.52 z" />
    <path
       id="path160"
       style="font-style:normal;font-variant:normal;font-weight:normal;font-stretch:normal;font-size:14px;font-family:'Patrick Hand';-inkscape-font-specification:'Patrick Hand';text-align:center;word-spacing:-0.06px;baseline-shift:sub;text-anchor:middle;fill:#114c8c"
       d="m 35.667114,41.519152 q 0.616,0 0.616,1.05 0,0.112 0,0.238 l -0.028,0.98 q -0.014,0.462 -0.014,0.91 l 0.21,3.164 q 0,0.35 -0.714,0.35 -0.042,0 -0.21,0 -0.154,0 -0.224,-0.126 -0.056,-0.126 -0.014,-0.308 0.056,-0.182 -0.028,-0.406 -0.644,0.686 -1.708,0.686 -1.974,0 -1.974,-3.052 0,-1.694 0.63,-2.562 0.644,-0.868 1.834,-0.868 0.56,0 1.12,0.196 0.182,-0.252 0.504,-0.252 z m -1.456,1.274 q -0.798,0 -1.19,0.462 -0.392,0.462 -0.392,1.694 0,2.072 1.12,2.072 0.294,0 0.644,-0.266 0.364,-0.266 0.504,-0.602 0.266,-0.756 0.266,-1.652 0,-0.896 -0.224,-1.302 -0.21,-0.406 -0.728,-0.406 z" />
    <path
       id="path162"
       style="font-style:normal;font-variant:normal;font-weight:normal;font-stretch:normal;font-size:14px;font-family:'Patrick Hand';-inkscape-font-specification:'Patrick Hand';text-align:center;word-spacing:-0.06px;baseline-shift:sub;text-anchor:middle;fill:#114c8c"
       d="m 41.163207,41.519152 q 0.616,0 0.616,1.05 0,0.112 0,0.238 l -0.028,0.98 q -0.014,0.462 -0.014,0.91 l 0.21,3.164 q 0,0.35 -0.714,0.35 -0.042,0 -0.21,0 -0.154,0 -0.224,-0.126 -0.056,-0.126 -0.014,-0.308 0.056,-0.182 -0.028,-0.406 -0.644,0.686 -1.708,0.686 -1.974,0 -1.974,-3.052 0,-1.694 0.63,-2.562 0.644,-0.868 1.834,-0.868 0.56,0 1.12,0.196 0.182,-0.252 0.504,-0.252 z m -1.456,1.274 q -0.798,0 -1.19,0.462 -0.392,0.462 -0.392,1.694 0,2.072 1.12,2.072 0.294,0 0.644,-0.266 0.364,-0.266 0.504,-0.602 0.266,-0.756 0.266,-1.652 0,-0.896 -0.224,-1.302 -0.21,-0.406 -0.728,-0.406 z" />
  </g>
  <g
     id="g101"
     transform="matrix(0.56080184,0,0,0.65764213,-3.3341296,2.1863582)">
    <path
       id="path164"
       style="font-style:normal;font-variant:normal;font-weight:normal;font-stretch:normal;font-size:14px;font-family:'Patrick Hand';-inkscape-font-specification:'Patrick Hand';text-align:center;word-spacing:-0.06px;baseline-shift:sub;text-anchor:middle;fill:#114c8c"
       d="m 9.411311,50.292428 q 0.91,0 1.54,0.308 0.644,0.308 0.644,0.784 0,0.21 -0.112,0.364 -0.098,0.154 -0.308,0.154 -0.196,0 -0.868,-0.308 -0.6719998,-0.322 -1.232,-0.322 -0.546,0 -1.134,0.35 -0.588,0.35 -0.588,0.854 0,0.686 0.714,1.008 0.532,0.238 1.5260002,0.434 0.9939998,0.182 1.6239998,0.77 0.63,0.574 0.63,1.75 0,1.792 -1.078,2.646 -0.602,0.476 -1.708,0.476 -1.092,0 -2.184,-0.602 -0.714,-0.378 -0.714,-0.756 0,-0.14 0.112,-0.308 0.126,-0.168 0.336,-0.28 0.21,-0.112 0.378,-0.028 0.182,0.07 0.574,0.266 0.392,0.196 0.574,0.266 0.588,0.224 1.106,0.224 0.5180002,0 0.994,-0.504 0.49,-0.518 0.49,-1.26 0,-0.98 -0.9799998,-1.372 -0.4760002,-0.196 -1.0780002,-0.294 -1.246,-0.224 -1.876,-0.742 -0.63,-0.532 -0.63,-1.596 0,-1.064 0.91,-1.666 0.91,-0.616 2.338,-0.616 z" />
    <path
       id="path166"
       style="font-style:normal;font-variant:normal;font-weight:normal;font-stretch:normal;font-size:14px;font-family:'Patrick Hand';-inkscape-font-specification:'Patrick Hand';text-align:center;word-spacing:-0.06px;baseline-shift:sub;text-anchor:middle;fill:#114c8c"
       d="m 12.995092,53.022428 0.7,0.014 q 0.238,0 0.266,-0.014 v -2.87 q 0.014,-0.238 0.238,-0.406 0.224,-0.168 0.42,-0.168 0.196,0 0.308,0.126 0.126,0.126 0.112,0.392 -0.014,0.266 -0.014,2.912 l 1.638,-0.056 q 0.42,0 0.42,0.49 0,0.364 -0.224,0.546 -0.21,0.182 -0.462,0.196 -0.238,0.014 -0.476,0.014 l -0.854,-0.014 q 0,0.574 0.112,2.268 0.126,1.694 0.196,2.198 0.07,0.49 0.028,0.644 -0.042,0.14 -0.154,0.196 -0.182,0.084 -0.49,0.084 -0.308,0 -0.364,-0.336 -0.28,-1.834 -0.378,-5.04 -0.126,0.014 -0.966,0.014 -0.84,0 -0.84,-0.49 0,-0.7 0.784,-0.7 z" />
    <path
       id="path168"
       style="font-style:normal;font-variant:normal;font-weight:normal;font-stretch:normal;font-size:14px;font-family:'Patrick Hand';-inkscape-font-specification:'Patrick Hand';text-align:center;word-spacing:-0.06px;baseline-shift:sub;text-anchor:middle;fill:#114c8c"
       d="m 21.363592,53.022428 q 0.616,0 0.616,1.05 0,0.112 0,0.238 l -0.028,0.98 q -0.014,0.462 -0.014,0.91 l 0.21,3.164 q 0,0.35 -0.714,0.35 -0.042,0 -0.21,0 -0.154,0 -0.224,-0.126 -0.056,-0.126 -0.014,-0.308 0.056,-0.182 -0.028,-0.406 -0.644,0.686 -1.708,0.686 -1.974,0 -1.974,-3.052 0,-1.694 0.63,-2.562 0.644,-0.868 1.834,-0.868 0.56,0 1.12,0.196 0.182,-0.252 0.504,-0.252 z m -1.456,1.274 q -0.798,0 -1.19,0.462 -0.392,0.462 -0.392,1.694 0,2.072 1.12,2.072 0.294,0 0.644,-0.266 0.364,-0.266 0.504,-0.602 0.266,-0.756 0.266,-1.652 0,-0.896 -0.224,-1.302 -0.21,-0.406 -0.728,-0.406 z" />
    <path
       id="path170"
       style="font-style:normal;font-variant:normal;font-weight:normal;font-stretch:normal;font-size:14px;font-family:'Patrick Hand';-inkscape-font-specification:'Patrick Hand';text-align:center;word-spacing:-0.06px;baseline-shift:sub;text-anchor:middle;fill:#114c8c"
       d="m 24.759686,57.516428 0.014,1.442 q 0,0.252 -0.238,0.462 -0.224,0.21 -0.448,0.21 -0.322,0 -0.406,-0.504 -0.014,-0.112 -0.112,-2.044 -0.098,-1.946 -0.378,-3.052 -0.126,-0.532 -0.126,-0.63 0,-0.462 0.56,-0.462 0.238,0 0.378,0.182 0.14,0.182 0.168,0.378 0.042,0.182 0.07,0.504 0.028,0.322 0.042,0.406 0.294,-0.7 0.882,-1.05 0.588,-0.35 1.288,-0.35 1.148,0 1.148,0.588 0,0.294 -0.21,0.476 -0.196,0.168 -0.462,0.168 -1.19,0 -1.68,0.756 -0.49,0.756 -0.49,2.52 z" />
    <path
       id="path172"
       style="font-style:normal;font-variant:normal;font-weight:normal;font-stretch:normal;font-size:14px;font-family:'Patrick Hand';-inkscape-font-specification:'Patrick Hand';text-align:center;word-spacing:-0.06px;baseline-shift:sub;text-anchor:middle;fill:#114c8c"
       d="m 28.690405,53.022428 0.7,0.014 q 0.238,0 0.266,-0.014 v -2.87 q 0.014,-0.238 0.238,-0.406 0.224,-0.168 0.42,-0.168 0.196,0 0.308,0.126 0.126,0.126 0.112,0.392 -0.014,0.266 -0.014,2.912 l 1.638,-0.056 q 0.42,0 0.42,0.49 0,0.364 -0.224,0.546 -0.21,0.182 -0.462,0.196 -0.238,0.014 -0.476,0.014 l -0.854,-0.014 q 0,0.574 0.112,2.268 0.126,1.694 0.196,2.198 0.07,0.49 0.028,0.644 -0.042,0.14 -0.154,0.196 -0.182,0.084 -0.49,0.084 -0.308,0 -0.364,-0.336 -0.28,-1.834 -0.378,-5.04 -0.126,0.014 -0.966,0.014 -0.84,0 -0.84,-0.49 0,-0.7 0.784,-0.7 z" />
    <path
       id="path174"
       style="font-style:normal;font-variant:normal;font-weight:normal;font-stretch:normal;font-size:14px;font-family:'Patrick Hand';-inkscape-font-specification:'Patrick Hand';text-align:center;word-spacing:-0.06px;baseline-shift:sub;text-anchor:middle;fill:#114c8c"
       d="m 33.124905,53.568428 q 0.056,-0.238 0.238,-0.392 0.182,-0.168 0.364,-0.168 0.196,0 0.294,0.07 0.112,0.07 0.126,0.126 0.028,0.056 0.056,0.196 -0.084,1.092 -0.084,1.974 0,0.868 0.21,2.002 0.21,1.12 0.462,1.12 0.378,0 0.952,-0.42 0.588,-0.42 0.84,-0.882 -0.168,-2.016 -0.168,-3.458 0,-0.294 0.182,-0.504 0.196,-0.21 0.462,-0.21 0.434,0 0.434,0.588 0,0.994 0.14,2.954 0.154,1.96 0.308,2.492 0.028,0.112 0.028,0.266 0,0.14 -0.196,0.266 -0.182,0.14 -0.49,0.14 -0.294,0 -0.392,-0.336 -0.028,-0.28 -0.14,-0.84 -0.98,1.022 -1.974,1.022 -0.462,0 -0.826,-0.35 -0.364,-0.35 -0.574,-0.952 -0.364,-1.162 -0.364,-2.184 0,-1.022 0.112,-2.52 z" />
    <path
       id="path176"
       style="font-style:normal;font-variant:normal;font-weight:normal;font-stretch:normal;font-size:14px;font-family:'Patrick Hand';-inkscape-font-specification:'Patrick Hand';text-align:center;word-spacing:-0.06px;baseline-shift:sub;text-anchor:middle;fill:#114c8c"
       d="m 40.970373,59.546428 q -0.476,0 -0.882,-0.322 0,0 -0.182,-0.154 v 4.2 q -0.084,0.28 -0.294,0.462 -0.21,0.196 -0.448,0.196 -0.364,0 -0.364,-0.49 v -9.758 q 0.084,-0.364 0.196,-0.518 0.126,-0.154 0.378,-0.154 0.266,0 0.336,0.126 0.084,0.112 0.196,0.644 0.056,-0.28 0.448,-0.518 0.392,-0.238 1.05,-0.238 1.428,0 2.03,1.036 0.602,1.036 0.602,2.45 0,1.4 -0.826,2.226 -0.812,0.812 -2.24,0.812 z m -1.064,-4.2 v 2.604 q 0.084,0.042 0.196,0.14 0.406,0.364 0.882,0.364 1.932,0 1.932,-1.988 0,-1.694 -0.868,-2.142 -0.364,-0.196 -0.896,-0.196 -0.518,0.07 -0.882,0.462 -0.364,0.378 -0.364,0.756 z" />
  </g>
  <g
     id="g92"
     transform="matrix(0.56080184,0,0,0.65764213,22.372863,-7.122948)">
    <path
       id="path178"
       style="font-style:normal;font-variant:normal;font-weight:normal;font-stretch:normal;font-size:14px;font-family:'Patrick Hand';-inkscape-font-specification:'Patrick Hand';text-align:center;word-spacing:-0.06px;baseline-shift:sub;text-anchor:middle;fill:#114c8c"
       d="m 11.675598,65.072713 q 0.294,0 0.406,0.42 -0.084,1.414 -0.182,2.016 -0.098,0.588 -0.168,1.036 -0.056,0.448 -0.084,0.616 -0.014,0.168 -0.112,0.686 -0.098,0.518 -0.21,1.036 -0.098,0.504 -0.126,0.602 -0.014,0.098 -0.252,1.26 -0.238,1.148 -0.364,1.414 -0.112,0.252 -0.406,0.252 -0.2800001,0 -0.4480001,-0.168 -0.6440001,-0.882 -1.2180001,-2.184 -0.14,-0.336 -0.322,-0.728 -0.168,-0.392 -0.252,-0.588 l -0.126,-0.294 q -0.294,0.504 -0.812,1.708 -0.518,1.204 -0.91,1.932 -0.252,0.322 -0.56,0.322 -0.644,0 -0.98,-3.43 0,-0.014 -0.028,-0.154 -0.014,-0.14 -0.056,-0.49 -0.028,-0.35 -0.084,-0.77 -0.042,-0.434 -0.35,-3.542 0,-0.28 0.21,-0.504 0.21,-0.238 0.462,-0.238 0.308,0 0.42,0.406 0.378,4.55 0.756,6.72 0.112,-0.196 0.574,-1.288 0.462,-1.106 0.84,-1.75 0.378,-0.658 0.728,-0.658 0.238,0 0.406,0.252 0.882,2.506 1.5120001,3.528 0.014,-0.154 0.1680001,-0.84 l 0.182,-0.896 q 0,-0.084 0.028,-0.238 0.042,-0.154 0.056,-0.294 0.028,-0.154 0.056,-0.28 l 0.154,-0.882 q 0.336,-2.072 0.42,-3.402 0.056,-0.238 0.252,-0.406 0.21,-0.182 0.42,-0.182 z" />
    <path
       id="path180"
       style="font-style:normal;font-variant:normal;font-weight:normal;font-stretch:normal;font-size:14px;font-family:'Patrick Hand';-inkscape-font-specification:'Patrick Hand';text-align:center;word-spacing:-0.06px;baseline-shift:sub;text-anchor:middle;fill:#114c8c"
       d="m 14.786879,67.928713 q 0.742,0 1.414,0.434 0.672,0.434 0.672,1.078 0,0.63 -0.546,1.232 -0.546,0.588 -1.456,0.714 -0.392,0.056 -1.176,0.056 0.154,1.19 0.602,1.568 0.14,0.154 0.378,0.154 0.868,0 1.456,-0.546 0.588,-0.56 0.84,-0.56 0.112,0 0.336,0.21 0.224,0.21 0.224,0.392 0,0.364 -0.882,1.05 -0.392,0.322 -0.952,0.546 -0.546,0.21 -1.022,0.21 -1.218,0 -1.792,-1.568 -0.364,-0.966 -0.364,-2.128 0,-1.162 0.546,-2.002 0.546,-0.84 1.722,-0.84 z m 0.07,0.966 q -0.532,0 -0.91,0.602 -0.14,0.21 -0.266,0.952 1.96,0 1.96,-0.966 0,-0.588 -0.784,-0.588 z" />
    <path
       id="path182"
       style="font-style:normal;font-variant:normal;font-weight:normal;font-stretch:normal;font-size:14px;font-family:'Patrick Hand';-inkscape-font-specification:'Patrick Hand';text-align:center;word-spacing:-0.06px;baseline-shift:sub;text-anchor:middle;fill:#114c8c"
       d="m 20.365004,67.928713 q 0.742,0 1.414,0.434 0.672,0.434 0.672,1.078 0,0.63 -0.546,1.232 -0.546,0.588 -1.456,0.714 -0.392,0.056 -1.176,0.056 0.154,1.19 0.602,1.568 0.14,0.154 0.378,0.154 0.868,0 1.456,-0.546 0.588,-0.56 0.84,-0.56 0.112,0 0.336,0.21 0.224,0.21 0.224,0.392 0,0.364 -0.882,1.05 -0.392,0.322 -0.952,0.546 -0.546,0.21 -1.022,0.21 -1.218,0 -1.792,-1.568 -0.364,-0.966 -0.364,-2.128 0,-1.162 0.546,-2.002 0.546,-0.84 1.722,-0.84 z m 0.07,0.966 q -0.532,0 -0.91,0.602 -0.14,0.21 -0.266,0.952 1.96,0 1.96,-0.966 0,-0.588 -0.784,-0.588 z" />
    <path
       id="path184"
       style="font-style:normal;font-variant:normal;font-weight:normal;font-stretch:normal;font-size:14px;font-family:'Patrick Hand';-inkscape-font-specification:'Patrick Hand';text-align:center;word-spacing:-0.06px;baseline-shift:sub;text-anchor:middle;fill:#114c8c"
       d="m 28.925129,73.780713 q 0,0.658 -0.602,0.658 -0.252,0 -0.686,-1.232 -0.434,-1.246 -1.162,-1.918 -0.07,0.098 -0.602,0.56 -0.518,0.448 -0.616,0.546 v 1.4 q -0.028,0.21 -0.07,0.322 -0.042,0.112 -0.196,0.21 -0.14,0.098 -0.392,0.098 -0.378,0 -0.378,-0.462 0,-1.302 -0.112,-4.032 -0.112,-2.744 -0.112,-4.914 0,-0.266 0.21,-0.42 0.224,-0.154 0.462,-0.154 0.322,0 0.392,0.406 v 2.478 q 0,0.448 0.014,0.672 0.014,0.224 0.028,0.672 0.028,0.924 0.098,2.086 0.406,-0.308 1.036,-0.966 0.644,-0.672 0.966,-1.148 0.504,-0.798 0.924,-0.798 0.112,0 0.224,0.056 0.294,0.168 0.294,0.392 0,0.224 -0.196,0.588 -0.504,0.868 -1.162,1.582 0.63,0.7 1.26,2.002 0.378,0.84 0.378,1.316 z" />
    <path
       id="path186"
       style="font-style:normal;font-variant:normal;font-weight:normal;font-stretch:normal;font-size:14px;font-family:'Patrick Hand';-inkscape-font-specification:'Patrick Hand';text-align:center;word-spacing:-0.06px;baseline-shift:sub;text-anchor:middle;fill:#114c8c"
       d="m 31.740004,67.928713 q 0.742,0 1.414,0.434 0.672,0.434 0.672,1.078 0,0.63 -0.546,1.232 -0.546,0.588 -1.456,0.714 -0.392,0.056 -1.176,0.056 0.154,1.19 0.602,1.568 0.14,0.154 0.378,0.154 0.868,0 1.456,-0.546 0.588,-0.56 0.84,-0.56 0.112,0 0.336,0.21 0.224,0.21 0.224,0.392 0,0.364 -0.882,1.05 -0.392,0.322 -0.952,0.546 -0.546,0.21 -1.022,0.21 -1.218,0 -1.792,-1.568 -0.364,-0.966 -0.364,-2.128 0,-1.162 0.546,-2.002 0.546,-0.84 1.722,-0.84 z m 0.07,0.966 q -0.532,0 -0.91,0.602 -0.14,0.21 -0.266,0.952 1.96,0 1.96,-0.966 0,-0.588 -0.784,-0.588 z" />
    <path
       id="path188"
       style="font-style:normal;font-variant:normal;font-weight:normal;font-stretch:normal;font-size:14px;font-family:'Patrick Hand';-inkscape-font-specification:'Patrick Hand';text-align:center;word-spacing:-0.06px;baseline-shift:sub;text-anchor:middle;fill:#114c8c"
       d="m 35.834129,73.976713 -0.154,-5.684 q 0,-0.266 0.182,-0.434 0.182,-0.168 0.364,-0.168 0.448,0 0.518,0.378 0.056,0.378 0.056,0.784 0.756,-0.994 1.89,-0.994 1.736,0 1.736,3.962 0,0.364 0,1.106 0,0.728 -0.084,1.064 -0.098,0.42 -0.602,0.42 -0.336,0 -0.336,-0.448 l 0.014,-0.784 q 0,-1.624 -0.112,-2.212 -0.098,-0.602 -0.196,-0.952 -0.238,-0.756 -0.77,-0.756 -0.7,0 -0.98,0.504 -0.308,0.546 -0.364,1.288 -0.098,1.302 -0.098,2.758 0,0.28 -0.21,0.448 -0.21,0.168 -0.504,0.168 -0.35,0 -0.35,-0.448 z" />
    <path
       id="path190"
       style="font-style:normal;font-variant:normal;font-weight:normal;font-stretch:normal;font-size:14px;font-family:'Patrick Hand';-inkscape-font-specification:'Patrick Hand';text-align:center;word-spacing:-0.06px;baseline-shift:sub;text-anchor:middle;fill:#114c8c"
       d="m 44.964535,67.858713 -0.014,-2.702 q 0,-0.756 0.476,-0.756 0.49,0 0.546,0.42 0.028,0.182 0.07,2.198 0.042,2.016 0.126,3.78 0.098,1.764 0.098,3.29 0,0.42 -0.63,0.42 -0.42,0 -0.42,-0.588 -0.602,0.476 -1.428,0.476 -1.05,0 -1.708,-0.784 -0.644,-0.784 -0.644,-1.932 0,-1.148 0.462,-2.142 0.476,-1.008 1.47,-1.442 0.616,-0.266 1.19,-0.266 0.21,0 0.406,0.028 z m 0.07,1.918 q -0.098,-0.308 -0.238,-0.462 -0.14,-0.168 -0.308,-0.196 -0.154,-0.042 -0.378,-0.042 -0.224,0 -0.546,0.168 -0.322,0.168 -0.546,0.546 -0.448,0.756 -0.448,1.596 0,0.826 0.322,1.358 0.336,0.518 0.938,0.518 0.616,0 0.966,-0.602 0.35,-0.602 0.35,-1.54 0,-1.05 -0.112,-1.344 z" />
  </g>
</svg>
