<?xml version="1.0" encoding="UTF-8" standalone="no"?>
<svg
   xmlns:dc="http://purl.org/dc/elements/1.1/"
   xmlns:cc="http://creativecommons.org/ns#"
   xmlns:rdf="http://www.w3.org/1999/02/22-rdf-syntax-ns#"
   xmlns:svg="http://www.w3.org/2000/svg"
   xmlns="http://www.w3.org/2000/svg"
   xmlns:sodipodi="http://sodipodi.sourceforge.net/DTD/sodipodi-0.dtd"
   xmlns:inkscape="http://www.inkscape.org/namespaces/inkscape"
   inkscape:version="1.0 (4035a4f, 2020-05-01)"
   sodipodi:docname="bird.svg"
   width="33.233608mm"
   height="19.502472mm"
   viewBox="0 0 33.233607 19.502472"
   version="1.1"
   id="svg713">
  <metadata
     id="metadata18">
    <rdf:RDF>
      <cc:Work
         rdf:about="">
        <dc:format>image/svg+xml</dc:format>
        <dc:type
           rdf:resource="http://purl.org/dc/dcmitype/StillImage" />
      </cc:Work>
    </rdf:RDF>
  </metadata>
  <defs
     id="defs16" />
  <sodipodi:namedview
     inkscape:current-layer="svg713"
     inkscape:window-maximized="0"
     inkscape:window-y="23"
     inkscape:window-x="0"
     inkscape:cy="36.258639"
     inkscape:cx="62.087958"
     inkscape:zoom="8.3832682"
     showgrid="false"
     id="namedview14"
     inkscape:window-height="480"
     inkscape:window-width="718"
     inkscape:pageshadow="2"
     inkscape:pageopacity="0"
     guidetolerance="10"
     gridtolerance="10"
     objecttolerance="10"
     borderopacity="1"
     bordercolor="#666666"
     pagecolor="#ffffff" />
  <g
     id="layer1"
     transform="translate(-93.919756,-149.95666)">
    <g
       id="g380"
       transform="matrix(0.26458333,0,0,0.26458333,-194.07844,85.763454)">
      <path
         id="path378"
         d="m 1213,249.01 c 0.98,-0.94 1.34,-2.55 0.95,-3.78 -0.29,-0.92 -0.9,-1.63 -1.67,-2.07 -0.61,-0.35 -1.32,-0.54 -2.06,-0.54 -6.02,0.02 -11.94,1.46 -17.58,3.46 -6.01,2.13 -11.84,5.04 -17.24,8.43 -5.14,3.24 -9.91,7.2 -14.13,11.57 -2.19,2.29 -4.14,4.79 -5.98,7.38 -0.4,0.57 -0.79,1.14 -1.17,1.72 -0.15,-0.14 -0.31,-0.29 -0.46,-0.43 -2.3,-2.09 -4.62,-4.16 -7,-6.2 -5.22,-4.46 -10.71,-8.64 -16.52,-12.33 -10.68,-6.74 -24.02,-12.05 -36.67,-8.19 -1.4,0.43 -2.37,1.55 -2.83,2.86 -0.4,0.2 -0.79,0.46 -1.09,0.79 -0.71,0.75 -1.09,1.76 -1.05,2.8 0.04,0.9 0.47,2.06 1.22,2.63 7.98,5.97 16.04,11.84 23.73,18.17 7.4,6.12 14.28,12.81 20.46,20.15 1.22,1.47 2.44,2.95 3.55,4.51 0.87,1.26 1.7,2.56 2.54,3.84 1.96,3 4.04,5.94 6.54,8.52 2.26,2.31 5.34,4.25 8.7,4.01 2.58,-0.19 4.72,-1.81 6.55,-3.51 2.09,-1.95 3.78,-4.34 5.43,-6.66 1.83,-2.57 3.52,-5.27 5.15,-7.99 1.55,-2.57 3.05,-5.18 4.58,-7.78 1.01,-1.73 2.02,-3.5 3.17,-5.15 1.85,-2.48 3.93,-4.84 5.94,-7.18 2.75,-3.2 5.56,-6.34 8.44,-9.45 5.72,-6.17 11.94,-11.88 17.78,-17.95 0.43,-0.45 0.67,-1.03 0.72,-1.63 z m -22.41,13.59 c -5.61,5.62 -11,11.49 -16.03,17.64 -0.96,1.2 -1.83,2.53 -2.66,3.85 -1.11,1.77 -2.18,3.57 -3.27,5.37 -2.47,4.06 -4.97,8.12 -7.72,12 -1.59,2.18 -3.26,4.36 -5.3,6.14 -0.31,0.24 -0.64,0.46 -0.97,0.65 -0.02,0.01 -0.04,0.01 -0.05,0.02 -0.07,-0.02 -0.15,-0.03 -0.22,-0.05 -0.32,-0.16 -0.63,-0.34 -0.94,-0.53 -1.15,-0.92 -2.16,-1.98 -3.11,-3.1 -2.78,-3.53 -5.03,-7.45 -7.82,-10.98 -4.55,-5.75 -9.52,-11.14 -14.85,-16.17 -8.34,-7.88 -17.55,-14.73 -26.76,-21.55 1.24,-0.07 2.49,-0.09 3.74,0 2.84,0.36 5.6,1.06 8.29,2.01 5.69,2.22 10.94,5.37 15.91,8.91 7.71,5.7 14.8,12.32 20.98,19.65 0.31,0.41 0.63,0.83 0.93,1.26 1.22,1.73 3.06,2.83 5.24,2.74 2.11,-0.1 3.87,-1.3 4.92,-3.09 1.54,-2.59 3.02,-5.21 4.75,-7.68 3.1,-4.11 6.66,-7.8 10.6,-11.13 5.79,-4.59 12.14,-8.31 18.84,-11.46 -0.19,0.09 -0.38,0.17 -0.58,0.25 0.33,-0.15 0.67,-0.3 1,-0.45 0.11,-0.05 0.21,-0.1 0.32,-0.15 -0.08,0.04 -0.15,0.07 -0.23,0.11 0.56,-0.25 1.14,-0.48 1.7,-0.72 -2.29,2.1 -4.52,4.26 -6.71,6.46 z"
         style="fill:brown;" />
    </g>
  </g>
  <path
     transform="scale(0.26458333)"
     id="path38"
     d="M 65.308659,65.198203 C 64.414376,64.684331 62.373086,62.580363 61.071939,60.831395 60.43743,59.978505 58.963806,57.88505 57.797219,56.179271 55.431154,52.71962 54.499117,51.460193 52.500611,49.022158 49.213865,45.012563 46.241468,41.746742 42.294413,37.808443 35.575815,31.104749 29.053576,25.628764 17.385821,16.895516 13.791799,14.205411 13.47923,13.943146 13.47923,13.617637 v -0.353819 l 1.759457,0.06659 c 2.776762,0.105097 6.749763,1.043389 10.035321,2.370013 7.383407,2.981229 15.576127,8.375969 23.691358,15.600277 4.850719,4.318189 10.391322,10.068093 12.823482,13.307903 0.443266,0.590462 1.098928,1.349923 1.457025,1.687691 1.854435,1.749158 4.498425,2.080481 6.80248,0.852431 1.227155,-0.654066 1.83323,-1.396539 3.712227,-4.547666 2.916477,-4.891011 4.243655,-6.731872 7.254251,-10.062005 4.574818,-5.060376 9.27717,-8.842707 16.023697,-12.888639 3.729912,-2.236849 8.647112,-4.803474 9.202612,-4.803474 0.22482,0 0.28056,0.06356 0.28056,0.319929 0,0.261658 -0.8751,1.201324 -4.80459,5.159086 -5.625,5.665457 -8.957491,9.261584 -13.21708,14.262689 -3.116474,3.658994 -4.087987,5.033598 -7.208154,10.198886 -6.804854,11.265119 -10.320954,16.355694 -13.319338,19.283613 -0.877848,0.857216 -1.687902,1.472984 -1.934993,1.470897 -0.07285,-5.96e-4 -0.400852,-0.155343 -0.728886,-0.343839 z"
     style="font-variation-settings:normal;opacity:1;vector-effect:none;fill:#000000;fill-opacity:1;stroke-width:0.119285;stroke-linecap:butt;stroke-linejoin:miter;stroke-miterlimit:4;stroke-dasharray:none;stroke-dashoffset:0;stroke-opacity:1;stop-color:#000000;stop-opacity:1" />
</svg>
