<?xml version="1.0" encoding="UTF-8" standalone="no"?>
<svg
   xmlns:dc="http://purl.org/dc/elements/1.1/"
   xmlns:cc="http://creativecommons.org/ns#"
   xmlns:rdf="http://www.w3.org/1999/02/22-rdf-syntax-ns#"
   xmlns:svg="http://www.w3.org/2000/svg"
   xmlns="http://www.w3.org/2000/svg"
   id="svg713"
   version="1.1"
   viewBox="0 0 27.117969 19.750784"
   height="19.750784mm"
   width="27.11797mm">
  <defs
     id="defs707" />
  <metadata
     id="metadata710">
    <rdf:RDF>
      <cc:Work
         rdf:about="">
        <dc:format>image/svg+xml</dc:format>
        <dc:type
           rdf:resource="http://purl.org/dc/dcmitype/StillImage" />
        <dc:title></dc:title>
      </cc:Work>
    </rdf:RDF>
  </metadata>
  <g
     transform="translate(-90.576747,-148.78381)"
     id="layer1">
    <path
       style="stroke-width:0.264583"
       d="m 117.65025,160.50556 c 0.0767,-0.28575 0.0661,-0.55827 -0.127,-0.79904 -0.0767,-0.0952 -0.18256,-0.17462 -0.29898,-0.22754 -0.0318,-0.0159 -0.0662,-0.0238 -0.0979,-0.0344 -0.52387,-0.81227 -1.2065,-1.49225 -1.94997,-2.10873 -0.78053,-0.64293 -1.6563,-1.14829 -2.55059,-1.61395 -0.10583,-0.0556 -0.21431,-0.10584 -0.32014,-0.15611 0.35718,-0.37041 0.69585,-0.75406 1.00541,-1.16416 0.48419,-0.63765 0.94457,-1.30705 1.29646,-2.032 0.20373,-0.42598 0.0556,-0.94721 -0.37306,-1.16682 -0.23019,-0.11906 -0.48154,-0.12171 -0.70115,-0.0344 -0.1905,0.0741 -0.35454,0.21696 -0.46302,0.40746 -0.254,0.44714 -0.51594,0.889 -0.79639,1.31497 -0.49213,0.70644 -1.04775,1.35732 -1.66159,1.95792 -1.14035,-0.41539 -2.32304,-0.71967 -3.51102,-0.92604 -0.91546,-0.1561 -1.84414,-0.21696 -2.77283,-0.22754 -0.008,0 -0.0132,0 -0.0212,0 0.0688,-0.762 0.19844,-1.51606 0.39423,-2.25954 0.14288,-0.49213 0.31221,-0.97632 0.48683,-1.4605 0.0741,-0.20373 0.0767,-0.42334 0.0106,-0.61648 -0.0767,-0.22225 -0.24077,-0.41275 -0.48154,-0.51065 -0.4445,-0.18256 -0.93663,0.0397 -1.12977,0.47096 -0.3228,0.73554 -0.53446,1.51871 -0.70644,2.30187 -0.15611,0.70115 -0.24077,1.41817 -0.28311,2.13519 -0.40216,0.0317 -0.80433,0.0688 -1.20649,0.127 -0.95515,0.14023 -1.894421,0.39423 -2.812521,0.70379 -0.78582,0.26988 -1.54782,0.61384 -2.28071,1.01336 -0.55563,-0.61648 -1.05834,-1.27794 -1.4949,-1.98702 -0.25664,-0.44186 -0.49212,-0.89959 -0.71967,-1.35996 -0.0952,-0.19579 -0.254,-0.34661 -0.4392,-0.43127 -0.21432,-0.0979 -0.46567,-0.11113 -0.70115,-0.005 -0.43921,0.19579 -0.61648,0.70643 -0.43656,1.143 0.30956,0.74348 0.73025,1.43668 1.18004,2.10079 0.34396,0.51329 0.73819,0.98954 1.15094,1.44727 -0.58738,0.41804 -1.14829,0.87312 -1.66423,1.38377 -0.9234,0.90752 -1.73567,1.91558 -2.41829,3.0136 -0.13494,0.21432 -0.20902,0.43657 -0.16669,0.69586 0.0344,0.20902 0.14552,0.39687 0.30162,0.53446 -0.008,0.21695 0.0688,0.38629 0.18521,0.56885 0.59531,0.93398 1.29381,1.77535 2.09815,2.53206 0.35189,0.33338 0.71966,0.64029 1.1086,0.92075 0.44979,0.32544 0.92869,0.59796 1.41552,0.8599 0.85461,0.46037 1.77271,0.7911 2.71198,1.03452 1.00013,0.25665 2.016131,0.42598 3.048001,0.46831 1.05304,0.0476 2.11667,-0.0265 3.16442,-0.15346 1.01864,-0.12964 2.0267,-0.3466 3.00831,-0.63764 1.05304,-0.31486 2.07962,-0.69056 3.07181,-1.15623 0.9869,-0.46567 1.93411,-1.01336 2.84163,-1.61661 0.83343,-0.55033 1.60337,-1.19062 2.30187,-1.905 0.36513,-0.3757 0.71438,-0.75935 1.02923,-1.17739 0.13229,-0.18256 0.26194,-0.37042 0.381,-0.56356 0.16404,-0.24607 0.3175,-0.5133 0.39423,-0.80434 z m -10.11502,1.03982 c -0.18256,0.0476 -0.36777,0.082 -0.55563,0.0979 -0.14816,-0.003 -0.29633,-0.0185 -0.4445,-0.0423 -0.15875,-0.045 -0.3122,-0.10319 -0.46037,-0.17463 -0.14817,-0.0926 -0.2884,-0.19579 -0.42333,-0.31221 -0.11113,-0.11906 -0.21432,-0.24341 -0.30692,-0.37835 -0.0635,-0.11642 -0.11906,-0.23812 -0.16404,-0.36248 -0.0238,-0.10054 -0.0397,-0.20373 -0.0503,-0.30692 0.003,-0.082 0.0132,-0.16404 0.0238,-0.24341 0.0238,-0.0714 0.0476,-0.13759 0.0794,-0.20638 0.0529,-0.082 0.10848,-0.15875 0.16934,-0.23283 0.11906,-0.11113 0.24871,-0.20902 0.38364,-0.30163 0.17198,-0.0979 0.3519,-0.17991 0.53711,-0.24606 0.0979,-0.0238 0.19579,-0.0423 0.29368,-0.0529 0.0714,0.003 0.14023,0.0106 0.21167,0.0212 0.0556,0.0185 0.10848,0.037 0.1614,0.0609 0.0661,0.0423 0.12964,0.09 0.18785,0.14023 0.082,0.0926 0.15875,0.18785 0.22754,0.29104 0.11642,0.21166 0.20902,0.43127 0.28575,0.65881 0.10848,0.39423 0.16934,0.79375 0.19315,1.19856 0,0.0794 0,0.1614 -0.003,0.24077 -0.10848,0.0609 -0.22489,0.10848 -0.3466,0.15082 z m -8.755061,4.64343 c -0.88371,-0.21431 -1.73302,-0.52916 -2.54265,-0.94985 -0.80433,-0.45244 -1.55046,-0.99219 -2.22779,-1.6219 -0.59002,-0.58737 -1.10331,-1.23296 -1.55575,-1.93146 0.42863,-0.64558 0.89958,-1.25941 1.42875,-1.82827 0.73819,-0.74877 1.56369,-1.41023 2.45269,-1.97643 0.889,-0.53182 1.83092,-0.96309 2.81781,-1.28059 0.32279,-0.0926 0.64823,-0.17462 0.973671,-0.24606 -0.037,0.0317 -0.0741,0.0608 -0.10848,0.0952 -0.367771,0.34396 -0.642941,0.74613 -0.881061,1.18798 -0.47361,0.88106 -0.65352,1.92087 -0.65882,2.91042 -0.003,1.0795 0.20902,2.15635 0.62707,3.15383 0.40481,0.95515 1.042451,1.83092 1.886481,2.44475 0.16933,0.12171 0.34925,0.23019 0.5371,0.32808 -0.9234,-0.0106 -1.844151,-0.0926 -2.749021,-0.28575 z m 15.150041,-4.57993 c -0.85196,0.67997 -1.74096,1.32027 -2.66436,1.90235 -0.79904,0.48154 -1.62983,0.91281 -2.48179,1.29381 0.52917,-0.56091 0.94192,-1.23296 1.16417,-1.97379 0.25135,-0.83608 0.26723,-1.73831 0.0661,-2.58762 -0.127,-0.54769 -0.33866,-1.07421 -0.62441,-1.56105 -0.3175,-0.54504 -0.70115,-1.02129 -1.16152,-1.44727 -0.32809,-0.30427 -0.67998,-0.55827 -1.05569,-0.78581 1.72773,0.42069 3.37608,1.06892 4.94771,1.89971 0.64558,0.35719 1.27794,0.73554 1.905,1.12448 0.46566,0.28839 0.92604,0.59266 1.39435,0.87841 -0.0529,0.045 -0.10319,0.09 -0.1561,0.13494 -0.44186,0.381 -0.88106,0.75936 -1.3335,1.12184 z"
       id="path512" />
  </g>
</svg>
