<?xml version="1.0" encoding="UTF-8" standalone="no"?>
<svg
   xmlns:dc="http://purl.org/dc/elements/1.1/"
   xmlns:cc="http://creativecommons.org/ns#"
   xmlns:rdf="http://www.w3.org/1999/02/22-rdf-syntax-ns#"
   xmlns:svg="http://www.w3.org/2000/svg"
   xmlns="http://www.w3.org/2000/svg"
   xmlns:sodipodi="http://sodipodi.sourceforge.net/DTD/sodipodi-0.dtd"
   xmlns:inkscape="http://www.inkscape.org/namespaces/inkscape"
   id="svg713"
   version="1.1"
   viewBox="0 0 44.473445 39.961319"
   height="39.961319mm"
   width="44.473446mm"
   sodipodi:docname="fish2.svg"
   inkscape:version="1.0 (4035a4f, 2020-05-01)">
  <sodipodi:namedview
     inkscape:document-rotation="0"
     pagecolor="#ffffff"
     bordercolor="#666666"
     borderopacity="1"
     objecttolerance="10"
     gridtolerance="10"
     guidetolerance="10"
     inkscape:pageopacity="0"
     inkscape:pageshadow="2"
     inkscape:window-width="1644"
     inkscape:window-height="663"
     id="namedview847"
     showgrid="false"
     inkscape:zoom="3.9740943"
     inkscape:cx="77.753565"
     inkscape:cy="112.25538"
     inkscape:window-x="317"
     inkscape:window-y="156"
     inkscape:window-maximized="0"
     inkscape:current-layer="svg713" />
  <defs
     id="defs707" />
  <metadata
     id="metadata710">
    <rdf:RDF>
      <cc:Work
         rdf:about="">
        <dc:format>image/svg+xml</dc:format>
        <dc:type
           rdf:resource="http://purl.org/dc/dcmitype/StillImage" />
        <dc:title />
      </cc:Work>
    </rdf:RDF>
  </metadata>
  <g
     transform="translate(-87.135383,-137.88907)"
     id="layer1">
    <g
       transform="matrix(0.26458333,0,0,0.26458333,-115.52535,83.926242)"
       id="g346">
      <path
         d="m 842.46,241.55 c -0.69,1.2 -1.34,2.42 -1.62,3.77 -0.07,0.39 0.11,0.87 0.35,1.15 0.21,0.25 0.49,0.43 0.79,0.51 0.15,0.34 0.44,0.6 0.79,0.74 0.38,0.13 0.69,0.07 1.06,-0.04 0.06,-0.02 0.11,-0.03 0.16,-0.05 0.69,-0.2 1.39,-0.4 2.07,-0.66 1,-0.36 1.94,-0.79 2.89,-1.26 1.03,-0.5 2.02,-1.11 2.99,-1.72 1.02,-0.65 1.97,-1.42 2.83,-2.29 0.36,-0.37 0.68,-0.76 0.99,-1.17 0.29,-0.38 0.49,-0.82 0.73,-1.25 0.46,-0.89 0.52,-1.94 0.4,-2.91 -0.05,-0.46 -0.25,-0.91 -0.42,-1.33 -0.17,-0.42 -0.44,-0.79 -0.67,-1.16 -0.07,-0.11 -0.14,-0.21 -0.23,-0.31 -0.45,-0.54 -1.07,-0.93 -1.72,-1.21 -0.63,-0.26 -1.39,-0.26 -2.06,-0.15 -0.69,0.11 -1.37,0.43 -1.97,0.79 -1.62,0.97 -2.91,2.36 -4.12,3.81 -1.22,1.46 -2.29,3.07 -3.24,4.74 z m 8.72,-5.59 c 0.31,-0.18 0.62,-0.33 0.95,-0.46 0.13,-0.03 0.26,-0.05 0.39,-0.07 0.03,0 0.06,0 0.08,0.01 0.04,0.01 0.07,0.02 0.11,0.03 0.06,0.04 0.11,0.08 0.16,0.12 0.09,0.1 0.17,0.21 0.26,0.32 0.15,0.28 0.28,0.57 0.39,0.86 0.02,0.08 0.03,0.16 0.04,0.24 0,0.16 -0.02,0.31 -0.03,0.47 -0.07,0.24 -0.16,0.46 -0.26,0.68 -0.24,0.39 -0.51,0.75 -0.8,1.1 -1.01,1.01 -2.14,1.85 -3.35,2.62 -1.07,0.66 -2.18,1.25 -3.3,1.81 -0.43,0.22 -0.86,0.42 -1.29,0.62 0.06,-0.12 0.12,-0.24 0.18,-0.35 -0.02,0.05 -0.05,0.1 -0.07,0.15 1.16,-2.2 2.58,-4.26 4.24,-6.11 0.7,-0.76 1.45,-1.45 2.3,-2.04 z"
         id="path328" />
      <path
         d="m 787.14,244.83 c -0.32,-0.81 -0.78,-1.54 -1.33,-2.19 -0.61,-0.73 -1.32,-1.38 -2.07,-1.97 -1.58,-1.27 -3.49,-2.19 -5.37,-2.92 -1.82,-0.7 -3.78,-1.16 -5.72,-1.31 -1.51,-0.12 -3.26,-0.02 -4.57,0.78 -0.34,0.2 -0.63,0.39 -0.91,0.67 -0.39,0.38 -0.58,0.67 -0.82,1.15 -0.35,0.68 -0.43,1.47 -0.37,2.22 0.09,0.86 0.39,1.69 0.75,2.46 0.55,1.16 1.32,2.19 2.28,3.03 2.13,1.89 4.85,2.76 7.63,3.09 1.39,0.17 2.84,0.07 4.23,-0.11 1.43,-0.21 2.87,-0.7 4.13,-1.36 0.36,-0.2 0.64,-0.49 0.79,-0.84 0.12,-0.03 0.23,-0.06 0.34,-0.11 1.04,-0.43 1.4,-1.58 1.01,-2.59 z m -4.1,0.98 c -1.12,0.31 -2.24,0.47 -3.39,0.54 -1.2,0 -2.36,-0.1 -3.54,-0.3 -1.04,-0.25 -2.02,-0.58 -2.98,-1.05 -0.57,-0.34 -1.1,-0.7 -1.6,-1.12 -0.37,-0.38 -0.69,-0.78 -0.98,-1.2 -0.22,-0.42 -0.42,-0.84 -0.59,-1.28 -0.04,-0.16 -0.07,-0.32 -0.09,-0.49 0.01,-0.07 0.01,-0.14 0.02,-0.21 0,0 0,0 0,0 0.01,-0.01 0.03,-0.02 0.04,-0.03 0.13,-0.07 0.25,-0.12 0.38,-0.17 0.32,-0.08 0.64,-0.13 0.97,-0.16 1.06,-0.02 2.1,0.11 3.14,0.32 1.65,0.4 3.21,1 4.73,1.74 1.02,0.56 1.99,1.18 2.87,1.94 0.42,0.41 0.81,0.85 1.15,1.33 0.01,0.02 0.02,0.05 0.04,0.07 -0.06,0.03 -0.11,0.05 -0.17,0.07 z"
         id="path330" />
      <path
         d="m 861.27,323.76 c 0.1,-1.29 0,-2.64 -0.1,-3.94 -0.19,-2.54 -0.58,-5.03 -1.19,-7.5 -1.11,-4.53 -3.04,-9.05 -6.04,-12.66 -0.32,-0.39 -0.66,-0.77 -1.01,-1.14 -1.15,-1.22 -3.02,-1.47 -4.33,-0.34 -0.63,0.54 -1.01,1.33 -1.06,2.15 -0.06,0.87 0.25,1.51 0.73,2.19 0.21,0.31 0.43,0.62 0.63,0.94 1.56,2.47 2.84,5.06 3.81,7.81 0.75,2.4 1.3,4.83 1.67,7.32 0.23,1.45 0.37,2.9 0.51,4.37 0.01,0.06 0.01,0.11 0.02,0.17 -0.55,-0.21 -1.1,-0.44 -1.64,-0.7 -2.3,-1.24 -4.39,-2.79 -6.37,-4.5 -5.02,-4.55 -9.28,-9.84 -14.41,-14.29 -0.38,-0.33 -1.04,-0.41 -1.51,-0.31 -0.52,0.1 -0.99,0.41 -1.29,0.85 -0.3,0.44 -0.4,1 -0.3,1.52 0.11,0.58 0.43,0.92 0.85,1.29 0.06,0.05 0.13,0.11 0.19,0.16 4.29,3.87 7.92,8.42 12.01,12.5 2.04,2.04 4.24,3.95 6.63,5.59 1.26,0.85 2.61,1.59 3.98,2.25 1.37,0.64 2.79,1.15 4.23,1.66 0.64,0.23 1.37,0.17 1.99,-0.12 0.59,-0.28 1.22,-0.89 1.36,-1.54 0.29,-1.26 0.53,-2.47 0.64,-3.73 z"
         id="path332" />
      <path
         d="m 801.52,288.61 c -1.74,-2.1 -5.01,-2.29 -7.05,-0.53 -2.09,1.79 -2.27,4.95 -0.53,7.05 1.74,2.1 5.01,2.29 7.05,0.53 2.09,-1.8 2.27,-4.95 0.53,-7.05 z"
         id="path334" />
      <path
         d="m 790.51,337.08 c 0.02,0.02 0.05,0.03 0.07,0.05 -0.04,-0.03 -0.08,-0.06 -0.12,-0.09 0.01,0.02 0.03,0.03 0.05,0.04 z"
         id="path336" />
      <path
         d="m 934,325.9 c 0.25,-1.09 -0.45,-2.48 -1.64,-2.66 -12.21,-1.83 -23.34,-7.76 -35.4,-10.16 0.32,-1.47 0.75,-2.9 1.26,-4.32 3.65,-9.33 10.19,-17.1 14.41,-26.12 0.35,-0.76 0.32,-1.62 -0.22,-2.27 -0.05,-0.06 -0.1,-0.12 -0.16,-0.17 -0.65,-0.62 -1.69,-0.75 -2.47,-0.26 -6.82,4.35 -13.84,8.61 -19.24,14.76 -1.34,1.54 -2.54,3.24 -3.61,4.99 -1.03,1.66 -1.83,3.43 -2.6,5.21 -1.05,2.4 -2.01,4.85 -3.23,7.15 -0.23,-2.91 -0.49,-5.81 -0.84,-8.71 -0.56,-4.76 -1.46,-9.49 -3.1,-13.99 -0.8,-2.19 -1.8,-4.31 -2.95,-6.36 -1.31,-2.33 -2.96,-4.47 -4.7,-6.49 -3.02,-3.5 -6.73,-6.42 -10.53,-9.04 -7.22,-5 -15.55,-8.37 -24.09,-10.37 -4.55,-1.07 -9.23,-1.64 -13.92,-1.77 1.08,-1.74 2.19,-3.46 3.4,-5.12 4.5,-6.05 9.76,-11.55 13.78,-17.95 1.38,-2.22 2.53,-4.58 3.49,-7.02 0.91,-2.34 1.68,-4.72 2.02,-7.21 0.25,-1.89 0.28,-3.83 -0.32,-5.66 -0.23,-0.71 -0.58,-1.36 -1.04,-1.91 -0.58,-0.7 -1.34,-1.25 -2.25,-1.58 -1.68,-0.58 -3.54,-0.14 -5.11,0.51 -1.2,0.49 -2.33,1.11 -3.41,1.81 -0.71,0.46 -1.43,0.95 -2.11,1.47 -0.02,-0.39 -0.04,-0.78 -0.06,-1.17 -0.09,-1.45 -0.26,-2.91 -0.61,-4.32 -0.25,-1.03 -0.74,-2.14 -1.64,-2.73 -0.83,-0.55 -1.74,-0.57 -2.69,-0.37 -1.04,0.21 -1.95,0.97 -2.73,1.64 -1.07,0.88 -1.95,2.01 -2.78,3.11 -0.84,1.11 -1.6,2.27 -2.34,3.45 -0.13,-0.39 -0.28,-0.77 -0.46,-1.14 -0.48,-0.97 -1.11,-1.78 -2.14,-2.16 -1.97,-0.73 -3.82,1.1 -4.91,2.49 -1.75,2.23 -2.99,4.83 -4.13,7.4 -0.42,0.93 -0.82,1.88 -1.19,2.83 -0.49,-0.64 -0.98,-1.29 -1.47,-1.93 -1.75,-2.28 -3.54,-4.55 -5.45,-6.71 -1.77,-1.99 -3.66,-3.83 -5.83,-5.4 -1.76,-1.28 -4.05,-2.33 -6.28,-2.05 -1.15,0.15 -2.24,0.53 -3.15,1.25 -0.51,0.42 -0.96,0.82 -1.36,1.33 -0.44,0.58 -0.83,1.17 -1.16,1.81 -0.39,0.73 -0.65,1.52 -0.94,2.29 -0.29,0.83 -0.52,1.66 -0.67,2.51 -0.39,2.14 -0.08,4.35 0.76,6.33 1.68,3.91 4.94,6.8 8.21,9.36 1.43,1.11 2.89,2.16 4.29,3.29 2.23,1.77 4.21,3.84 6.01,6.02 -0.11,-0.14 -0.23,-0.28 -0.34,-0.43 0.12,0.15 0.23,0.29 0.35,0.44 0.05,0.06 0.09,0.11 0.14,0.17 -0.05,-0.05 -0.09,-0.11 -0.14,-0.17 3.99,5.12 6.91,10.88 9.59,16.76 -3.66,0.78 -7.23,1.93 -10.63,3.49 -4.5,2.05 -8.57,4.8 -12.15,8.2 -3.63,3.42 -6.55,7.62 -8.73,12.09 -1.78,3.65 -3.04,7.52 -3.9,11.49 -0.47,1.55 -0.9,3.11 -1.3,4.67 -1.06,4.12 -1.64,8.34 -1.54,12.6 0.12,3.95 0.93,7.91 2.23,11.62 2.64,7.49 7.68,13.97 13.67,19.09 6.33,5.41 13.78,9.28 21.64,11.91 5.92,1.97 12.12,3.01 18.35,3.24 7.51,0.26 14.97,-1.26 22.11,-3.52 8.02,-2.52 15.67,-6.17 23.19,-9.89 1.64,-0.81 3.3,-1.56 4.87,-2.5 1.66,-0.97 3.17,-2.16 4.67,-3.35 2.86,-2.28 5.66,-4.77 8.93,-6.45 0.68,-0.26 1.36,-0.46 2.09,-0.62 1.71,-0.24 3.43,-0.22 5.15,-0.09 -0.09,-0.01 -0.17,-0.02 -0.26,-0.03 0.1,0.01 0.19,0.02 0.29,0.03 0.06,0 0.12,0.01 0.19,0.02 -0.05,0 -0.11,-0.01 -0.16,-0.01 5.31,0.57 10.5,1.99 15.85,2.28 5.67,0.31 11.03,-1.95 16.52,-2.96 1.52,-0.23 3.03,-0.35 4.56,-0.27 0.96,0.03 1.84,-0.81 2.06,-1.7 z M 826,206.46 c -0.05,-0.04 -0.1,-0.07 -0.15,-0.11 0,0 0,0 -0.01,-0.01 0.05,0.04 0.11,0.08 0.16,0.12 z m -0.18,-0.13 c 0,0 0,0 0,0 0,0 -0.01,0 -0.01,-0.01 0,0 0.01,0 0.01,0.01 z m -29.79,24.01 c -1.65,-1.46 -3.49,-2.71 -5.27,-4.01 -2.12,-1.58 -4.2,-3.23 -5.93,-5.25 -0.53,-0.71 -1,-1.44 -1.4,-2.23 -0.19,-0.49 -0.35,-0.99 -0.47,-1.5 -0.06,-0.53 -0.08,-1.06 -0.06,-1.6 0.15,-0.87 0.38,-1.72 0.66,-2.55 0.23,-0.56 0.49,-1.08 0.81,-1.6 0.15,-0.19 0.31,-0.36 0.48,-0.53 0.07,-0.05 0.14,-0.09 0.21,-0.14 0.08,-0.03 0.17,-0.06 0.25,-0.08 0.13,-0.01 0.25,-0.01 0.38,-0.01 0.31,0.06 0.61,0.14 0.91,0.23 0.73,0.33 1.42,0.75 2.08,1.21 2.97,2.26 5.42,5.12 7.84,7.92 1.21,1.42 2.4,2.84 3.63,4.23 0.5,0.56 1.01,1.12 1.54,1.64 0.4,0.4 0.83,0.75 1.29,1.09 0.01,0.01 0.01,0.01 0.02,0.02 0.06,0.04 0.12,0.09 0.17,0.12 0.04,0.03 0.08,0.06 0.12,0.08 -0.03,-0.02 -0.06,-0.04 -0.09,-0.06 0.53,0.35 1.1,0.52 1.76,0.32 0.63,-0.19 1.26,-0.77 1.36,-1.44 0.12,-0.9 0.38,-1.78 0.64,-2.64 0.38,-1.21 0.8,-2.42 1.24,-3.6 0.94,-2.36 2,-4.73 3.44,-6.83 0.32,-0.44 0.67,-0.85 1.08,-1.22 0.11,-0.08 0.22,-0.15 0.33,-0.21 0.04,-0.01 0.08,-0.03 0.12,-0.04 0.03,0.02 0.06,0.03 0.09,0.05 0.08,0.07 0.15,0.14 0.22,0.22 0.18,0.26 0.33,0.52 0.46,0.8 0.41,0.99 0.68,2 0.91,3.05 0.24,1.05 1.77,1.12 2.24,0.23 1.03,-1.94 2.15,-3.81 3.44,-5.61 0.87,-1.17 1.78,-2.29 2.89,-3.25 0.38,-0.29 0.77,-0.55 1.19,-0.76 0.18,-0.07 0.36,-0.12 0.55,-0.17 0.09,-0.01 0.18,-0.01 0.26,-0.01 0.07,0.01 0.14,0.02 0.21,0.04 0.03,0.02 0.07,0.03 0.1,0.05 0.04,0.04 0.07,0.07 0.1,0.1 0.11,0.16 0.19,0.31 0.28,0.48 0.17,0.45 0.28,0.89 0.37,1.35 0.34,2.51 0.07,5.04 0.21,7.55 0.06,1.13 1.3,1.8 2.28,1.22 1.19,-0.71 2.29,-1.55 3.46,-2.31 0.87,-0.55 1.78,-1.05 2.7,-1.5 0.69,-0.29 1.39,-0.55 2.12,-0.71 0.31,-0.04 0.62,-0.06 0.93,-0.06 0.14,0.02 0.29,0.06 0.42,0.1 0.07,0.03 0.13,0.07 0.19,0.1 0.05,0.05 0.1,0.1 0.15,0.14 0.06,0.08 0.11,0.17 0.16,0.26 0.1,0.26 0.17,0.53 0.23,0.8 0.08,0.74 0.07,1.48 0.02,2.22 -0.26,2.27 -0.89,4.47 -1.68,6.61 0,0 0,0 0,0 v 0 c 0,0 0,0 0,0 v 0 c 0,0 0,0 0,0 -1.46,3.66 -3.42,7.05 -5.74,10.24 -2.75,3.68 -5.77,7.14 -8.67,10.71 -2.89,3.57 -5.76,7.28 -7.63,11.5 -0.04,0.08 -0.04,0.17 -0.07,0.25 -0.98,0.05 -1.95,0.19 -2.92,0.29 -0.08,-0.31 -0.19,-0.6 -0.36,-0.88 -2.67,-5.9 -5.56,-11.72 -9.43,-16.93 -1.97,-2.74 -4.27,-5.25 -6.82,-7.49 z m -14.9,45.56 c 0.03,-0.03 0.05,-0.07 0.08,-0.1 -0.04,0.05 -0.07,0.1 -0.11,0.15 0.01,-0.02 0.02,-0.03 0.03,-0.05 z m 0.44,52.69 c -0.07,-0.09 -0.14,-0.17 -0.22,-0.26 0.1,0.12 0.2,0.24 0.3,0.37 -0.02,-0.04 -0.05,-0.07 -0.08,-0.11 z m 38.98,19.88 c -3.89,-0.41 -7.71,-1.19 -11.45,-2.29 2.07,-1.53 4.24,-2.88 6.57,-3.98 2.59,-1.14 5.27,-1.99 8.05,-2.5 2.32,-0.35 4.64,-0.46 6.98,-0.27 2.05,0.24 4.02,0.7 5.96,1.39 2.04,0.84 3.92,1.91 5.71,3.21 0.41,0.31 0.82,0.63 1.22,0.94 0.3,0.24 0.6,0.4 0.93,0.5 -3.16,0.99 -6.38,1.82 -9.65,2.42 -4.76,0.79 -9.52,0.99 -14.32,0.58 z m 95.12,-22.63 c -1,0.14 -2,0.26 -3.01,0.29 -1.01,0.03 -2.01,-0.04 -3,-0.13 -4.11,-0.47 -8.14,-1.49 -12.24,-2.09 -2.1,-0.31 -4.22,-0.51 -6.33,-0.44 -1.97,0.05 -3.91,0.47 -5.74,1.16 -2.09,0.8 -3.94,2.04 -5.73,3.37 -1.91,1.39 -3.76,2.92 -5.66,4.33 -0.92,0.66 -1.86,1.29 -2.84,1.86 -1.01,0.6 -2.1,1.08 -3.16,1.57 -2.4,1.15 -4.81,2.27 -7.24,3.38 0.06,-0.03 0.13,-0.06 0.19,-0.09 -4.57,2.07 -9.21,4.01 -13.96,5.63 0.65,-0.88 0.57,-2.03 -0.12,-2.86 -0.03,-0.04 -0.07,-0.08 -0.11,-0.12 -2.75,-2.92 -6.4,-4.84 -10.2,-6.05 -3.63,-1.15 -7.61,-1.37 -11.39,-1 -3.95,0.4 -7.76,1.53 -11.37,3.17 -3.62,1.65 -6.89,3.82 -9.9,6.41 -0.04,0.04 -0.05,0.09 -0.09,0.13 -4.66,-1.89 -9.1,-4.29 -13.21,-7.23 0.1,0.08 0.2,0.15 0.31,0.23 -0.13,-0.09 -0.25,-0.19 -0.37,-0.28 -0.1,-0.07 -0.19,-0.14 -0.29,-0.21 0.08,0.06 0.16,0.11 0.23,0.17 -3.17,-2.41 -6.09,-5.13 -8.65,-8.17 -2.18,-2.72 -4.02,-5.65 -5.5,-8.79 -0.3,-0.68 -0.51,-1.38 -0.77,-2.08 0.18,0.21 0.34,0.43 0.54,0.64 0.96,1.02 2.15,1.86 3.38,2.5 1.02,0.54 2.16,0.86 3.3,1.01 1.31,0.19 2.57,0.1 3.86,-0.13 1.16,-0.2 2.24,-0.69 3.3,-1.21 1.22,-0.6 2.31,-1.48 3.31,-2.42 0.96,-0.89 1.76,-1.98 2.46,-3.1 0.4,-0.65 0.72,-1.32 0.99,-2.01 0.32,-0.77 0.56,-1.52 0.65,-2.36 0.09,-0.37 0.07,-0.72 -0.03,-1.07 -0.09,-0.26 -0.22,-0.51 -0.4,-0.72 -0.16,-0.19 -0.36,-0.36 -0.58,-0.48 -0.97,-0.53 -2.26,-0.18 -2.79,0.81 -0.49,0.94 -0.88,1.94 -1.34,2.89 -0.39,0.79 -0.83,1.53 -1.33,2.24 -0.64,0.84 -1.35,1.59 -2.14,2.28 -0.6,0.46 -1.22,0.85 -1.88,1.18 -0.68,0.29 -1.37,0.5 -2.09,0.66 -0.6,0.09 -1.19,0.1 -1.79,0.07 -0.65,-0.09 -1.28,-0.24 -1.91,-0.46 -0.72,-0.3 -1.38,-0.68 -2.02,-1.12 -0.67,-0.54 -1.28,-1.13 -1.85,-1.79 -0.45,-0.59 -0.87,-1.2 -1.26,-1.85 -0.39,-0.64 -1.21,-0.84 -1.87,-0.55 -0.09,-0.42 -0.22,-0.83 -0.3,-1.26 -0.48,-3.08 -0.57,-6.18 -0.3,-9.3 0.59,-5.14 2.17,-10.14 3.96,-14.98 -0.02,0.05 -0.04,0.11 -0.06,0.16 0.03,-0.08 0.06,-0.17 0.1,-0.25 0.04,-0.12 0.09,-0.23 0.13,-0.35 -0.03,0.09 -0.07,0.18 -0.1,0.27 1.77,-4.57 3.87,-9.06 6.67,-13.08 0.27,-0.36 0.54,-0.72 0.83,-1.07 0.48,-0.59 0.61,-1.36 0.26,-2 0.84,-0.83 1.73,-1.62 2.65,-2.38 2.61,-2.07 5.45,-3.79 8.48,-5.18 3.6,-1.58 7.37,-2.65 11.23,-3.33 5,-0.79 10.07,-0.91 15.11,-0.42 6.04,0.67 11.96,2.11 17.64,4.25 6.14,2.42 11.94,5.58 17.28,9.45 3.36,2.51 6.54,5.26 9.26,8.47 1.84,2.32 3.38,4.82 4.65,7.51 1.77,4.1 2.85,8.41 3.58,12.81 0.83,5.35 1.26,10.75 1.92,16.12 0.09,0.82 0.44,1.52 1.19,1.93 0.87,0.49 2.07,0.33 2.75,-0.43 1.23,-1.37 2.3,-2.89 3.23,-4.48 1.05,-1.79 1.83,-3.73 2.62,-5.66 0.72,-1.73 1.4,-3.49 2.19,-5.2 0.9,-1.99 2.01,-3.84 3.27,-5.6 2.03,-2.62 4.36,-4.92 6.9,-7.02 1.96,-1.56 4.01,-3 6.1,-4.39 -1.9,3.17 -3.94,6.26 -5.84,9.43 -3.22,5.33 -6.11,11.05 -7.07,17.27 -0.09,0.58 -0.06,1.11 0.27,1.62 0.28,0.45 0.77,0.86 1.32,0.96 9.04,1.63 17.53,5.26 26.27,7.96 -1.49,0.37 -3.01,0.73 -4.55,1 z"
         id="path338" />
      <path
         d="m 777.46,287.39 c -0.01,0.03 -0.02,0.06 -0.03,0.09 0.02,-0.06 0.04,-0.11 0.06,-0.17 -0.01,0.03 -0.02,0.06 -0.03,0.08 z"
         id="path340" />
      <path
         d="m 894.95,328.54 c 0.02,0 0.03,0 0.05,0 -0.01,0 -0.02,0 -0.02,0 -0.01,0 -0.02,0 -0.03,0 z"
         id="path342" />
      <path
         d="m 796.69,239.78 c 0,0 0.01,0.01 0.01,0.01 0,0 0,0 0,0 0,-0.01 -0.01,-0.01 -0.01,-0.01 z"
         id="path344" />
    </g>
  </g>
  <path
     style="font-variation-settings:normal;opacity:1;vector-effect:none;fill:#00f0f5;fill-opacity:1;stroke-width:0.251629;stroke-linecap:butt;stroke-linejoin:miter;stroke-miterlimit:4;stroke-dasharray:none;stroke-dashoffset:0;stroke-opacity:1;stop-color:#000000;stop-opacity:1"
     d="m 46.677302,51.390102 c 0,-0.606989 -4.30415,-9.161235 -6.155217,-12.233135 C 36.2729,32.105325 32.588961,27.97146 26.546929,23.475009 18.689924,17.627862 16.476459,14.682358 17.239057,11.088831 c 0.165585,-0.780269 0.600786,-1.9744568 0.967115,-2.653751 0.544475,-1.0096358 0.804907,-1.2486958 1.426759,-1.3096725 1.819247,-0.1783893 5.764773,3.3326615 12.310024,10.9544635 3.64252,4.241634 5.450473,5.853501 6.565589,5.853501 1.082918,0 1.777357,-0.871457 2.247438,-2.820326 0.867088,-3.59479 3.031336,-8.762129 4.746776,-11.3333557 0.634318,-0.9507638 0.941037,-1.1948539 1.501922,-1.1952409 0.771824,-5.284e-4 1.220391,0.7415204 1.567469,2.5930246 0.11309,0.603293 0.404908,1.105567 0.78826,1.356749 0.878027,0.575305 1.689145,0.117443 2.449253,-1.382557 1.159112,-2.2873966 3.616786,-5.7073102 5.157479,-7.1767596 1.22825,-1.1714512 1.67302,-1.4477687 2.227685,-1.3839631 1.03605,0.1191814 1.291283,1.2059934 1.307906,5.5692102 0.02249,5.9078405 0.59453,6.3355525 4.774919,3.5702755 4.051419,-2.679963 6.798714,-3.6973243 7.547594,-2.7949784 1.30119,1.5678384 -0.190846,8.0706574 -3.138567,13.6789714 -2.258771,4.297526 -3.292533,5.699093 -12.572613,17.045804 -2.961447,3.620949 -5.773287,7.710039 -6.961583,10.123811 -0.748259,1.519929 -0.810751,1.576969 -1.727735,1.576969 -0.523266,0 -1.130507,0.06873 -1.349419,0.152736 -0.218916,0.084 -0.398026,0.02837 -0.398026,-0.12364 z"
     id="path849"
     transform="scale(0.26458333)" />
  <path
     style="font-variation-settings:normal;opacity:1;vector-effect:none;fill:#00faff;fill-opacity:1;stroke-width:0.251629;stroke-linecap:butt;stroke-linejoin:miter;stroke-miterlimit:4;stroke-dasharray:none;stroke-dashoffset:0;stroke-opacity:1;stop-color:#000000;stop-opacity:1"
     d="m 80.898936,37.54397 c 0,-1.764686 4.880025,-6.400618 6.005451,-5.705067 0.478155,0.295516 0.578521,1.600943 0.182034,2.367664 -0.742301,1.435452 -4.286651,4.069696 -5.475736,4.069696 -0.618198,0 -0.711749,-0.09625 -0.711749,-0.732293 z"
     id="path851"
     transform="scale(0.26458333)" />
  <path
     style="font-variation-settings:normal;opacity:1;vector-effect:none;fill:#00fcec;fill-opacity:1;stroke-width:0.251629;stroke-linecap:butt;stroke-linejoin:miter;stroke-miterlimit:4;stroke-dasharray:none;stroke-dashoffset:0;stroke-opacity:1;stop-color:#000000;stop-opacity:1"
     d="M 11.071705,42.129373 C 9.1086979,41.875676 7.0367888,40.909858 5.7063209,39.628305 4.5353346,38.500369 4.3772116,38.23156 4.4481726,37.489452 l 0.081161,-0.848782 1.7950628,0.03266 c 1.0972423,0.01996 2.4667168,0.252169 3.5228153,0.597326 3.4245683,1.119225 6.7682653,3.270723 6.5824693,4.235481 -0.123236,0.639916 -2.810389,0.952484 -5.357976,0.623238 z"
     id="path853"
     transform="scale(0.26458333)" />
  <path
     style="font-variation-settings:normal;opacity:1;vector-effect:none;fill:#59786a;fill-opacity:1;stroke-width:0.251629;stroke-linecap:butt;stroke-linejoin:miter;stroke-miterlimit:4;stroke-dasharray:none;stroke-dashoffset:0;stroke-opacity:1;stop-color:#000000;stop-opacity:1"
     d="m 33.198556,138.11033 c -6.177222,-3.10024 -11.046446,-6.63473 -15.150879,-10.99777 -3.267655,-3.47354 -6.472713,-8.1667 -6.472713,-9.47798 0,-0.59627 0.07137,-0.64181 0.817797,-0.52176 0.449788,0.0723 1.497196,0.37907 2.327574,0.68161 1.282915,0.46742 1.906788,0.5357 4.15189,0.45438 2.455791,-0.089 2.784069,-0.1643 4.655148,-1.06845 2.752961,-1.33031 5.442481,-4.00477 6.796932,-6.75887 1.806944,-3.67418 1.417234,-5.96663 -1.014312,-5.96663 -1.29435,0 -1.522017,0.24041 -2.891406,3.05323 -1.914323,3.93214 -4.074739,6.07062 -6.988703,6.91773 -3.158692,0.91826 -6.648413,-0.73986 -8.885156,-4.22171 -0.7073069,-1.10104 -1.6839535,-1.68997 -2.2363729,-1.34855 -0.4112711,0.25417 -0.6336504,-2.21749 -0.6336504,-7.04281 0,-5.481118 0.3227472,-7.37371 2.3126067,-13.561147 2.2380616,-6.959219 4.8185496,-12.587247 7.9154206,-17.263484 1.222869,-1.846516 1.718019,-2.815419 1.644356,-3.217654 -0.134191,-0.732752 1.730496,-2.451194 5.119678,-4.718148 16.352158,-10.937627 41.197972,-9.492175 62.327735,3.626033 10.052047,6.240715 16.639459,13.532589 19.422089,21.499082 1.8065,5.171901 2.61173,9.396423 3.79808,19.926058 0.42101,3.7367 0.8262,6.98921 0.90043,7.22779 0.22893,0.73586 1.37491,1.45344 2.32113,1.45344 0.71904,0 1.08696,-0.20591 1.9162,-1.07239 2.10033,-2.19469 3.64433,-4.97087 6.17265,-11.09872 1.92847,-4.674006 2.498,-5.81226 4.18727,-8.368619 2.50298,-3.787711 9.10449,-9.907462 10.68741,-9.907462 0.91473,0 0.93317,0.351446 0.084,1.601079 -0.35991,0.529658 -1.60457,2.537597 -2.7659,4.462088 -3.66292,6.069949 -5.72141,10.604864 -6.89283,15.185094 -1.01675,3.97542 -0.58877,5.1494 2.06338,5.66001 3.53511,0.68061 6.99821,1.68052 14.61634,4.22022 7.88822,2.62974 8.00112,2.67704 7.92634,3.32079 -0.0701,0.60335 -0.21951,0.67823 -1.96309,0.98383 -2.72666,0.4779 -6.07352,0.22266 -12.38567,-0.94457 -7.19998,-1.3314 -10.60421,-1.66058 -13.36857,-1.29271 -4.19521,0.55828 -6.70726,1.77066 -11.90678,5.74653 -6.04735,4.62417 -7.07125,5.20862 -16.942617,9.67096 -5.365042,2.42526 -11.258671,4.76545 -12.392761,4.9208 -0.916878,0.1256 -0.943611,0.10696 -0.943611,-0.65804 0,-2.16062 -6.167194,-6.32707 -11.574288,-7.81939 -9.306644,-2.56856 -20.725376,0.0611 -29.709587,6.84193 -1.265307,0.95499 -2.504359,1.6985 -2.830529,1.6985 -0.319062,0 -2.215834,-0.82095 -4.215051,-1.82432 z m 60.789803,-13.33948 c 2.239771,-1.92657 1.681649,-12.77884 -1.048042,-20.3784 -1.652603,-4.600905 -4.904484,-9.60873 -6.914474,-10.648137 -1.446873,-0.748208 -3.388367,-0.189507 -4.157413,1.196373 -0.650586,1.172406 -0.418455,2.481985 0.781834,4.410724 1.487194,2.38976 2.945554,5.32502 3.728283,7.50396 0.784134,2.18284 1.839554,6.87788 2.133077,9.489 l 0.219218,1.95013 h -0.740881 c -1.830427,0 -6.158661,-3.48976 -12.877309,-10.38269 -7.106145,-7.29047 -8.713807,-8.741169 -9.686937,-8.741169 -1.08787,0 -2.056179,0.952239 -2.087374,2.052719 -0.02396,0.84546 0.302507,1.24999 4.867192,6.03092 12.146811,12.72222 14.41992,14.62115 20.493923,17.12032 2.749389,1.13125 4.299407,1.24738 5.288903,0.39625 z M 34.095819,92.442356 c 1.768856,-0.885807 2.642112,-2.354227 2.642112,-4.442829 0,-2.320798 -0.899742,-3.784568 -2.893741,-4.707759 -4.089193,-1.893234 -8.426869,2.202177 -6.81175,6.431307 0.483756,1.266696 2.059278,2.818164 3.093868,3.046634 0.384079,0.08482 0.811559,0.194537 0.949955,0.243821 0.444745,0.158386 2.241334,-0.181455 3.019556,-0.571174 z"
     id="path857"
     transform="scale(0.26458333)" />
  <path
     style="font-variation-settings:normal;opacity:1;vector-effect:none;fill:#008cff;fill-opacity:1;stroke-width:0.251629;stroke-linecap:butt;stroke-linejoin:miter;stroke-miterlimit:4;stroke-dasharray:none;stroke-dashoffset:0;stroke-opacity:1;stop-color:#000000;stop-opacity:1"
     d="m 55.861785,144.46083 c -2.556129,-0.17974 -7.101235,-0.91487 -9.687742,-1.56691 -1.070433,-0.26984 -1.269527,-0.41521 -1.334411,-0.97434 -0.06334,-0.54582 0.128536,-0.78701 1.132333,-1.42335 6.870382,-4.35533 15.337186,-5.98361 22.053232,-4.24114 3.981882,1.0331 8.769629,3.70607 8.923285,4.98181 0.07093,0.58892 -0.05387,0.66175 -2.013038,1.17475 -6.865609,1.79775 -13.109514,2.46857 -19.073659,2.04918 z"
     id="path859"
     transform="scale(0.26458333)" />
</svg>
