<?xml version="1.0" encoding="UTF-8" standalone="no"?>
<svg
   xmlns:dc="http://purl.org/dc/elements/1.1/"
   xmlns:cc="http://creativecommons.org/ns#"
   xmlns:rdf="http://www.w3.org/1999/02/22-rdf-syntax-ns#"
   xmlns:svg="http://www.w3.org/2000/svg"
   xmlns="http://www.w3.org/2000/svg"
   xmlns:sodipodi="http://sodipodi.sourceforge.net/DTD/sodipodi-0.dtd"
   xmlns:inkscape="http://www.inkscape.org/namespaces/inkscape"
   inkscape:version="1.0 (4035a4f, 2020-05-01)"
   sodipodi:docname="heart1.svg"
   width="15.039102mm"
   height="41.154694mm"
   viewBox="0 0 15.039101 41.154694"
   version="1.1"
   id="svg713">
  <sodipodi:namedview
     inkscape:current-layer="svg713"
     inkscape:window-maximized="0"
     inkscape:window-y="23"
     inkscape:window-x="0"
     inkscape:cy="49.642117"
     inkscape:cx="29.339648"
     inkscape:zoom="5.4389301"
     showgrid="false"
     id="namedview838"
     inkscape:window-height="763"
     inkscape:window-width="1466"
     inkscape:pageshadow="2"
     inkscape:pageopacity="0"
     guidetolerance="10"
     gridtolerance="10"
     objecttolerance="10"
     borderopacity="1"
     bordercolor="#666666"
     pagecolor="#ffffff" />
  <defs
     id="defs707" />
  <metadata
     id="metadata710">
    <rdf:RDF>
      <cc:Work
         rdf:about="">
        <dc:format>image/svg+xml</dc:format>
        <dc:type
           rdf:resource="http://purl.org/dc/dcmitype/StillImage" />
        <dc:title />
      </cc:Work>
    </rdf:RDF>
  </metadata>
  <g
     style="fill:#ff0000;fill-opacity:1"
     id="layer1"
     transform="translate(-105.6233,-133.31282)">
    <path
       id="path608"
       d="m 109.1841,133.54573 c -0.37306,0.19844 -0.63764,0.55298 -0.85196,0.90488 -0.24606,0.40216 -0.42333,0.83873 -0.57679,1.28058 -0.33337,0.93927 -0.55298,1.91823 -0.762,2.89454 -0.0926,0.44186 -0.19579,0.87842 -0.29633,1.31763 -0.18521,0.81756 -0.34396,1.64306 -0.47625,2.47121 -0.53975,3.31523 -0.6694,6.68602 -0.56356,10.04093 0.20902,6.69661 1.84943,13.23975 2.40506,19.90461 0.0106,0.13494 0.0212,0.27252 0.0318,0.4101 -0.10054,0.28311 -0.19315,0.5715 -0.27781,0.8599 -0.0159,0.10848 -0.005,0.21431 0.0318,0.3175 0.0582,0.1561 0.17462,0.28046 0.32543,0.35189 0.0212,0.0106 0.045,0.0185 0.0661,0.0265 0.0714,0.0952 0.1905,0.15081 0.30956,0.14023 0.15081,-0.0159 0.25929,-0.12435 0.29369,-0.25929 0.0688,-0.0582 0.12435,-0.12965 0.16139,-0.21431 0.4154,-0.69321 0.76994,-1.42082 1.12978,-2.14577 0.36247,-0.73025 0.71437,-1.4658 1.06362,-2.19869 0.70908,-1.48167 1.41288,-2.96333 2.10608,-4.45294 1.38907,-2.98185 2.7305,-5.99017 3.92377,-9.05933 0.58738,-1.51606 1.13507,-3.05065 1.62984,-4.60111 0.36512,-1.14564 0.71173,-2.29658 1.00277,-3.46075 0.36512,-1.47373 0.65087,-2.9792 0.75671,-4.49527 0.0582,-0.81227 0.0767,-1.64306 -0.0423,-2.45004 -0.0556,-0.381 -0.14287,-0.76729 -0.27252,-1.12977 -0.0714,-0.19844 -0.17198,-0.381 -0.26987,-0.56621 -0.0662,-0.12171 -0.14023,-0.23548 -0.22754,-0.3466 -0.25665,-0.32279 -0.55563,-0.57415 -0.93134,-0.75671 -0.17991,-0.09 -0.37835,-0.14288 -0.57414,-0.1905 -0.21432,-0.0503 -0.44186,-0.0503 -0.65617,-0.0503 -0.1561,-0.003 -0.30956,0.0159 -0.46037,0.0423 -0.2593,0.0423 -0.5133,0.11113 -0.762,0.1905 -0.5133,0.16934 -1.00542,0.42863 -1.47109,0.70115 -0.85989,0.50271 -1.62189,1.18269 -2.30187,1.90764 -0.54504,0.57944 -1.02394,1.2118 -1.4605,1.87325 0.0106,-0.0767 0.0185,-0.1561 0.0318,-0.23283 0.21166,-1.524 0.42333,-3.05065 0.49741,-4.58523 0.0397,-0.82285 0.0556,-1.65364 -0.0503,-2.47121 -0.045,-0.34396 -0.11641,-0.69056 -0.23018,-1.01864 -0.0529,-0.15346 -0.12965,-0.29898 -0.20903,-0.44186 -0.0767,-0.14023 -0.18256,-0.254 -0.28839,-0.37041 -0.18786,-0.20373 -0.47625,-0.33602 -0.74877,-0.36248 -0.0503,-0.005 -0.10054,-0.008 -0.15081,-0.008 -0.29898,0 -0.58738,0.0926 -0.85461,0.23283 z m 0.75936,0.84138 c 0.0212,0.003 0.0397,0.005 0.0582,0.0106 0.0185,0.008 0.0344,0.0159 0.0529,0.0238 0.0238,0.0185 0.0476,0.037 0.0688,0.0582 0.0318,0.0423 0.0635,0.0873 0.09,0.13229 0.0688,0.14817 0.11906,0.30427 0.1614,0.46567 0.14816,0.69056 0.15081,1.41288 0.12964,2.11402 0.003,-0.0529 0.005,-0.10848 0.005,-0.16139 -0.0529,1.61395 -0.28575,3.21733 -0.53975,4.80747 -0.0423,0.26988 -0.0873,0.53975 -0.12964,0.80698 -0.0503,0.33073 -0.0873,0.66411 -0.12171,0.99748 -0.082,0.81227 -0.14288,1.63248 -0.24871,2.44475 -0.0265,0.0635 -0.0503,0.12965 -0.0741,0.19315 -0.19579,0.51594 -0.35984,1.0451 -0.508,1.57427 -0.0635,0.23019 -0.11906,0.46302 -0.16934,0.69585 -0.0238,0.11377 -0.0476,0.22755 -0.0661,0.34396 -0.0238,0.13229 -0.0265,0.26194 -0.0265,0.39423 0,0.005 0,0.0106 -0.003,0.0159 -0.0212,0.14287 -0.008,0.28045 0.0397,0.41539 0.0767,0.20373 0.23019,0.37042 0.42598,0.46038 0.19844,0.09 0.42333,0.0979 0.62706,0.0212 0.18257,-0.0688 0.39688,-0.23283 0.45773,-0.42598 0.0212,-0.0688 0.045,-0.14022 0.0662,-0.20902 0.0476,-0.127 0.0847,-0.25929 0.11642,-0.38893 0.0529,-0.17992 0.10054,-0.35984 0.14552,-0.53975 0.0238,-0.0952 0.045,-0.1905 0.0661,-0.28575 0.0185,-0.0661 0.037,-0.12965 0.0556,-0.1958 0.43657,-1.37847 1.0504,-2.69875 1.81769,-3.92641 0.59531,-0.91546 1.27794,-1.77271 2.07434,-2.52677 0.50535,-0.45244 1.05304,-0.85725 1.651,-1.18534 0.35718,-0.17727 0.72495,-0.33337 1.11125,-0.43656 0.14552,-0.0265 0.29104,-0.045 0.4392,-0.0503 0.0741,0.008 0.15082,0.0185 0.2249,0.0344 0.045,0.0185 0.0873,0.037 0.12965,0.0582 0.0397,0.0318 0.0794,0.0635 0.11641,0.0979 0.0582,0.0741 0.11377,0.15346 0.1614,0.23548 0.0847,0.18256 0.14816,0.37306 0.19844,0.56885 0.1217,0.60061 0.14552,1.21709 0.13229,1.82827 -0.0503,1.18798 -0.23019,2.36803 -0.46567,3.53219 -0.28046,1.39436 -0.66146,2.76225 -1.07421,4.12221 0.003,-0.008 0.005,-0.0159 0.008,-0.0238 -1.92088,6.19919 -4.69106,12.07823 -7.29985,18.00754 -0.36778,0.83608 -0.7329,1.66952 -1.08215,2.51619 -0.0423,0.10583 -0.0873,0.20902 -0.12965,0.31485 -0.54768,-5.73087 -1.778,-11.38237 -2.14048,-17.13442 -0.10847,-1.70656 -0.12435,-3.4237 -0.0767,-5.13291 -0.003,0.0344 -0.003,0.0688 -0.005,0.10319 0.0767,-2.55059 0.32544,-5.09323 0.81492,-7.59619 0.17727,-0.90752 0.4101,-1.79917 0.61648,-2.7014 0.1561,-0.68527 0.3175,-1.37054 0.52123,-2.04523 0.19314,-0.62441 0.42069,-1.24618 0.75671,-1.8071 0.10054,-0.15346 0.20902,-0.29633 0.33866,-0.42598 0.0556,-0.0476 0.11377,-0.09 0.17463,-0.127 0.0503,-0.0212 0.10319,-0.0397 0.1561,-0.0556 0.0635,-0.005 0.10848,-0.0106 0.15082,-0.0132 z m 0.41539,0.60589 c 0.005,0.0185 0.008,0.037 0.0132,0.0582 -0.005,-0.0212 -0.0106,-0.0397 -0.0132,-0.0582 z m 6.87123,15.26646 c -0.0132,0.0476 -0.0291,0.0952 -0.0423,0.14023 0.0132,-0.0476 0.0291,-0.0953 0.0423,-0.14023 z"
       style="stroke-width:0.264583;fill:#ff0000;fill-opacity:1" />
  </g>
  <path
     sodipodi:nodetypes="ssssssscsssssscssssccssscss"
     id="path840"
     d="M 3.0878408,38.511627 C 3.0767727,38.474437 3.0054215,37.889474 2.9292824,37.211714 2.7938259,36.00593 2.5048103,33.918593 1.8806505,29.63825 1.0912051,24.224415 0.86782387,21.841193 0.82186556,18.342233 0.77052483,14.433493 0.99769957,11.48386 1.6048621,8.1758206 1.7645934,7.305547 2.5495127,3.9359677 2.7801575,3.1303966 3.2807341,1.3820349 3.8545212,0.35240551 4.3658199,0.28501204 4.5169064,0.26509705 4.5967126,0.28021851 4.6563532,0.34006672 4.7903481,0.47452339 4.9413146,0.9459894 5.0059263,1.431778 5.0909303,2.0708855 5.0370983,4.1207392 4.9063513,5.2234531 4.8063197,6.0671213 4.4853388,8.2757422 4.3876068,8.7928574 4.3613268,8.9319133 4.318042,9.9045677 4.2319641,10.773777 c -0.1834256,1.852211 -0.2320263,1.910224 -0.2174316,2.757108 0.028562,1.657366 -0.4201158,2.427697 -0.4825818,2.920332 -0.056163,0.442928 0.7605118,0.465279 0.7605118,0.465279 0,0 0.1003763,-0.436606 0.3247965,-1.245013 0.4817009,-1.735184 0.6338837,-2.509947 1.2543508,-3.76257 1.0292924,-2.0779753 2.8559472,-3.5755153 4.3238652,-4.6328589 0.8873,-0.6391244 1.84194,-1.0513632 2.434687,-1.0513632 0.304357,0 0.327329,0.0091 0.510149,0.2019387 0.394348,0.4159743 0.538518,1.2365945 0.492233,2.8017744 -0.07786,2.632691 -0.887041,6.130693 -2.46074,10.637456 -1.3034817,3.732913 -2.5058121,6.65157 -5.8130108,14.111086 -0.5133325,1.157842 -1.1718125,2.659698 -1.4632887,3.337459 -0.4765904,1.1082 -0.5429265,1.23393 -0.6587485,1.248568 -0.074107,0.0094 -0.1373357,-0.01242 -0.1489152,-0.05135 z"
     style="font-variation-settings:normal;opacity:1;vector-effect:none;fill:#ff0000;fill-opacity:1;stroke-width:0.051257;stroke-linecap:butt;stroke-linejoin:miter;stroke-miterlimit:4;stroke-dasharray:none;stroke-dashoffset:0;stroke-opacity:1;stop-color:#000000;stop-opacity:1" />
</svg>
