<?xml version="1.0" encoding="UTF-8" standalone="no"?>
<svg
   xmlns:dc="http://purl.org/dc/elements/1.1/"
   xmlns:cc="http://creativecommons.org/ns#"
   xmlns:rdf="http://www.w3.org/1999/02/22-rdf-syntax-ns#"
   xmlns:svg="http://www.w3.org/2000/svg"
   xmlns="http://www.w3.org/2000/svg"
   xmlns:sodipodi="http://sodipodi.sourceforge.net/DTD/sodipodi-0.dtd"
   xmlns:inkscape="http://www.inkscape.org/namespaces/inkscape"
   inkscape:version="1.0 (4035a4f, 2020-05-01)"
   sodipodi:docname="kite.svg"
   viewBox="0 0 40.912066 55.051854"
   version="1.1"
   id="svg713"
   preserveAspectRatio="none">
  <metadata
     id="metadata842">
    <rdf:RDF>
      <cc:Work
         rdf:about="">
        <dc:format>image/svg+xml</dc:format>
        <dc:type
           rdf:resource="http://purl.org/dc/dcmitype/StillImage" />
      </cc:Work>
    </rdf:RDF>
  </metadata>
  <sodipodi:namedview
     inkscape:current-layer="svg713"
     inkscape:window-maximized="0"
     inkscape:window-y="23"
     inkscape:window-x="0"
     inkscape:cy="25.443587"
     inkscape:cx="16.551646"
     inkscape:zoom="15.36733"
     showgrid="false"
     id="namedview840"
     inkscape:window-height="880"
     inkscape:window-width="1673"
     inkscape:pageshadow="2"
     inkscape:pageopacity="0"
     guidetolerance="10"
     gridtolerance="10"
     objecttolerance="10"
     borderopacity="1"
     bordercolor="#666666"
     pagecolor="#ffffff" />
  <defs
     id="defs707" />
  <g
     id="layer1"
     transform="translate(-99.530362,-128.46547)">
    <g
       id="g616"
       transform="matrix(0.26458333,0,0,0.26458333,-290.11667,82.052261)"
       className="kite">
      <path
         id="path610"
         d="m 1579.01,368.01 c 0.09,0.04 0.17,0.07 0.26,0.11 -0.03,-0.01 -0.06,-0.03 -0.1,-0.04 -0.05,-0.03 -0.1,-0.05 -0.16,-0.07 z" />
      <path
         id="path612"
         d="m 1540.07,288.66 c -0.01,0.04 -0.01,0.09 -0.02,0.13 0,-0.01 0,-0.02 0,-0.02 0.01,-0.04 0.02,-0.08 0.02,-0.11 z" />
      <path
         id="path614"
         d="m 1626.41,382.87 c 0.1,-1.16 0.43,-2.17 0.9,-3.05 -3.25,-0.82 -6.51,-1.58 -9.78,-2.29 -7.12,-1.54 -14.29,-2.9 -21.4,-4.53 -3.15,-0.72 -6.29,-1.47 -9.39,-2.37 -2.52,-0.72 -5.03,-1.52 -7.47,-2.51 0.03,0.01 0.07,0.03 0.1,0.05 -0.07,-0.03 -0.13,-0.06 -0.2,-0.09 -0.13,-0.05 -0.25,-0.1 -0.37,-0.15 0.07,0.03 0.14,0.06 0.21,0.08 -3.72,-1.61 -7.23,-3.77 -10.46,-6.21 -3.91,-3.05 -7.38,-6.59 -10.44,-10.49 -3.45,-4.51 -6.37,-9.4 -8.96,-14.46 -1.33,-2.6 -2.6,-5.24 -3.84,-7.89 -0.75,-1.62 -1.47,-3.26 -2.27,-4.87 0.16,-0.05 0.32,-0.11 0.47,-0.2 0.55,-0.32 0.95,-0.85 1.11,-1.46 0.19,-0.68 0.04,-1.25 -0.24,-1.87 -0.16,-0.34 -0.31,-0.68 -0.46,-1.02 -1.94,-4.65 -3.26,-9.53 -3.95,-14.53 -0.64,-5.39 -0.59,-10.83 0.08,-16.23 -0.01,0.08 -0.02,0.16 -0.03,0.24 0.01,-0.09 0.02,-0.17 0.04,-0.26 0.02,-0.15 0.04,-0.31 0.06,-0.46 -0.01,0.12 -0.03,0.23 -0.04,0.35 0.79,-5.65 2.12,-11.22 3.84,-16.65 1.69,-5.29 3.71,-10.46 5.86,-15.59 1.01,-2.39 2.05,-4.77 3.07,-7.16 1.07,-2.49 2.27,-5 2.98,-7.63 0.25,-0.92 -0.05,-1.87 -0.67,-2.52 0.06,-0.13 0.11,-0.26 0.15,-0.4 0.18,-0.64 0.09,-1.34 -0.25,-1.92 -0.3,-0.51 -0.88,-1.04 -1.49,-1.15 -3.64,-0.59 -7.16,-1.71 -10.57,-3.11 -7.1,-3.05 -13.63,-7.29 -19.76,-11.97 -0.04,-0.03 -0.08,-0.07 -0.13,-0.1 0.04,0.03 0.08,0.06 0.11,0.09 -0.13,-0.1 -0.27,-0.2 -0.4,-0.31 0.09,0.07 0.19,0.14 0.28,0.21 -6.97,-5.43 -13.46,-11.52 -19.49,-17.97 -5.68,-6.05 -11.02,-12.38 -16.1,-18.95 0.17,0.22 0.33,0.44 0.51,0.66 -0.98,-1.28 -1.95,-2.55 -2.94,-3.83 -0.88,-1.14 -1.74,-2.29 -2.71,-3.35 -0.04,-0.06 -0.08,-0.12 -0.12,-0.18 -0.59,-0.87 -1.52,-1.4 -2.5,-1.4 -0.46,0 -0.94,0.12 -1.39,0.38 -0.69,0.4 -1.18,1.14 -1.35,1.93 -1.19,0.36 -1.86,1.62 -1.55,2.81 1.65,6.49 2.91,13.08 3.81,19.71 1.91,14.62 2.17,29.49 0.23,44.12 -0.74,5.23 -1.7,10.45 -2.92,15.59 -0.63,2.64 -1.29,5.27 -1.99,7.9 -0.69,2.59 -1.34,5.18 -1.82,7.83 -0.15,0.9 -0.15,1.72 0.33,2.53 0.3,0.5 0.73,0.91 1.23,1.2 0.42,0.95 1.25,1.68 2.29,2.01 1.88,0.58 3.87,0.87 5.8,1.26 1.77,0.35 3.54,0.72 5.3,1.13 3.33,0.79 6.57,1.82 9.75,3.12 2.61,1.12 5.17,2.34 7.62,3.77 2.56,1.51 5,3.2 7.37,5 5.69,4.47 10.76,9.67 15.21,15.37 4.04,5.29 7.66,10.96 10.59,16.93 0.33,0.66 0.96,1.05 1.65,1.2 0.64,1.6 1.28,3.19 1.98,4.76 1.7,3.84 3.57,7.6 5.69,11.23 4.26,7.28 9.56,14.13 16.23,19.35 2.25,1.76 4.58,3.39 7.06,4.8 1.88,1.07 3.81,2.02 5.81,2.85 2.52,1.06 5.13,1.9 7.77,2.62 6.47,1.76 13.08,2.98 19.68,4.21 7.41,1.4 14.83,2.72 22.18,4.44 0.03,0.01 0.06,0.01 0.08,0.02 0.01,-0.2 0,-0.41 0.02,-0.62 z M 1489.44,196.25 c 8.94,10.44 18.96,19.99 29.96,28.24 5.18,3.89 10.63,7.5 16.44,10.37 4.73,2.34 9.68,4.28 14.86,5.3 -0.11,0.16 -0.21,0.34 -0.31,0.5 -1.26,-0.31 -2.54,-0.45 -3.84,-0.45 -1.49,0 -2.98,0.17 -4.43,0.42 -3.54,0.61 -6.97,1.7 -10.31,3 -4.57,1.76 -9.02,3.84 -13.4,6.04 -1.05,0.53 -2.08,1.08 -3.12,1.62 -8.37,-19.17 -17.57,-37.96 -27.11,-56.57 0.42,0.52 0.83,1.03 1.26,1.53 z m -7.66,74.58 c 0.65,-2.13 1.2,-4.29 1.64,-6.48 0.85,-4.12 1.49,-8.28 1.95,-12.46 0.89,-8.16 1.13,-16.38 0.99,-24.58 -0.23,-13.6 -1.81,-27.21 -4.71,-40.51 10.92,21.09 21.41,42.41 30.64,64.3 -0.04,-0.1 -0.09,-0.21 -0.14,-0.32 0.25,0.59 0.48,1.18 0.72,1.77 -2.36,1.25 -4.71,2.52 -7.04,3.82 -1.79,0.99 -3.57,2 -5.36,2.98 -1.94,1.07 -3.89,2.1 -5.79,3.21 -2.96,1.72 -5.84,3.57 -8.7,5.45 -1.4,0.94 -2.8,1.88 -4.2,2.82 z m 49.96,35.73 c -4.19,-5.84 -8.96,-11.3 -14.44,-15.96 -2.78,-2.37 -5.73,-4.57 -8.8,-6.55 -2.95,-1.88 -5.99,-3.62 -9.21,-4.99 -3.44,-1.46 -6.97,-2.83 -10.63,-3.66 -1.82,-0.41 -3.68,-0.74 -5.56,-0.92 0.13,-0.08 0.26,-0.15 0.4,-0.23 1.4,-0.84 2.78,-1.71 4.15,-2.6 2.75,-1.8 5.47,-3.65 8.26,-5.39 1.91,-1.2 3.87,-2.32 5.81,-3.48 1.58,-0.93 3.14,-1.88 4.73,-2.81 2.54,-1.5 5.1,-2.99 7.67,-4.44 1.84,4.5 3.64,9.02 5.39,13.56 2.3,6 4.49,12.05 6.52,18.14 2.03,6.08 3.93,12.2 5.75,18.35 0.17,0.59 0.34,1.18 0.51,1.76 -0.19,-0.25 -0.36,-0.52 -0.55,-0.78 z m 4.16,-26.43 c -1.31,6.95 -1.95,14.13 -1.37,21.2 -1.4,-4.39 -2.91,-8.75 -4.47,-13.09 -2.04,-5.67 -4.19,-11.29 -6.4,-16.9 -2.2,-5.61 -4.53,-11.16 -6.91,-16.69 -0.07,-0.16 -0.14,-0.31 -0.21,-0.47 4.57,-2.51 9.22,-4.87 14.04,-6.9 -0.01,0 -0.02,0.01 -0.02,0.01 4.25,-1.77 8.66,-3.35 13.24,-4.01 1.57,-0.19 3.15,-0.26 4.71,-0.09 0.14,0.02 0.27,0.06 0.4,0.09 -0.2,0.4 -0.41,0.79 -0.61,1.18 -0.76,1.55 -1.49,3.11 -2.2,4.68 -1.53,3.43 -2.99,6.91 -4.3,10.43 -2.48,6.68 -4.58,13.55 -5.9,20.56 z" />
    </g>
  </g>
  <path
     id="path844"
     d="M 11.086831,19.538202 C 9.1058503,15.148058 7.9267165,12.650144 6.3014561,9.4007163 5.6936686,8.1855498 5.1963879,7.1179481 5.1963879,7.0282681 c 0,-0.1330998 0.031754,-0.1630546 0.172847,-0.1630546 0.1384292,0 0.4399556,0.268869 1.5142737,1.3502671 4.1824934,4.2100574 8.2661904,7.1222374 11.7496634,8.3789604 0.518647,0.187111 0.588853,0.231283 0.607062,0.381952 0.01931,0.159774 0.0038,0.170372 -0.25007,0.170372 -1.136566,0 -3.807547,0.928084 -6.390944,2.220657 -0.563275,0.281828 -1.099308,0.512414 -1.191184,0.512414 -0.138561,0 -0.193338,-0.05826 -0.321205,-0.341634 z"
     style="font-variation-settings:normal;opacity:1;vector-effect:none;fill:#00ff00;fill-opacity:1;stroke-width:0.065073;stroke-linecap:butt;stroke-linejoin:miter;stroke-miterlimit:4;stroke-dasharray:none;stroke-dashoffset:0;stroke-opacity:1;stop-color:#000000;stop-opacity:1" />
  <path
     id="path846"
     d="M 14.536327,33.217387 C 12.786559,31.102404 10.587353,29.260171 8.3242697,28.013664 6.9162402,27.238122 4.9714721,26.527154 3.6183649,26.293281 c -0.2133906,-0.03688 -0.2440242,-0.0649 -0.2440242,-0.223187 0,-0.164225 0.1342694,-0.268654 1.4478768,-1.126099 1.216741,-0.794216 3.2874867,-2.051435 5.4359205,-3.300329 0.261661,-0.152104 0.53674,-0.266412 0.613903,-0.255102 0.154275,0.02261 0.200483,0.126154 1.199775,2.688488 0.749972,1.923039 1.408987,3.741444 2.032864,5.609235 0.570163,1.706978 1.243114,3.860815 1.243114,3.978693 0,0.04149 -0.08522,0.07543 -0.18938,0.07543 -0.157526,0 -0.262163,-0.08797 -0.622087,-0.523023 z"
     style="font-variation-settings:normal;opacity:1;vector-effect:none;fill:#0000ff;fill-opacity:1;stroke-width:0.065073;stroke-linecap:butt;stroke-linejoin:miter;stroke-miterlimit:4;stroke-dasharray:none;stroke-dashoffset:0;stroke-opacity:1;stop-color:#000000;stop-opacity:1" />
  <path
     id="path848"
     d="M 2.6254042,24.646442 C 3.0718487,22.91154 3.4341452,20.338178 3.5739194,17.909215 3.6617707,16.382557 3.6206643,11.735179 3.5084667,10.509308 3.2983697,8.2137879 2.915623,5.3190665 2.7491534,4.7666056 2.720907,4.6728643 2.75632,4.6527276 2.9494225,4.6527276 H 3.1840056 L 4.9233344,8.1504075 C 7.1317285,12.591348 9.1351437,16.897493 10.327612,19.766371 l 0.263889,0.634875 -0.338656,0.170802 c -0.5104989,0.257469 -4.0342908,2.206529 -4.6660184,2.58084 -0.3042168,0.180255 -1.0248095,0.630309 -1.601317,1.000121 -1.1258703,0.72221 -1.4491582,0.839495 -1.3601054,0.493433 z"
     style="font-variation-settings:normal;opacity:1;vector-effect:none;fill:#00ff00;fill-opacity:1;stroke-width:0.065073;stroke-linecap:butt;stroke-linejoin:miter;stroke-miterlimit:4;stroke-dasharray:none;stroke-dashoffset:0;stroke-opacity:1;stop-color:#000000;stop-opacity:1" />
  <path
     id="path850"
     d="m 15.808493,31.509031 c -0.03117,-0.08197 -0.210088,-0.587102 -0.397606,-1.122511 -0.71505,-2.041647 -2.233202,-5.945422 -3.184067,-8.187509 -0.275825,-0.65038 -0.457203,-1.165781 -0.445408,-1.265669 0.01734,-0.146806 0.162348,-0.24192 1.12614,-0.738632 1.959745,-1.009998 3.922956,-1.789823 5.213919,-2.071068 0.669835,-0.145928 1.696542,-0.242502 1.870092,-0.175905 0.08312,0.0319 0.04047,0.166086 -0.245985,0.773856 -1.149077,2.438018 -2.096688,5.026499 -2.675242,7.307652 -0.414947,1.636077 -0.651877,3.165861 -0.783595,5.059435 l -0.03961,0.56939 h -0.190988 c -0.139183,0 -0.206359,-0.04043 -0.247653,-0.149039 z"
     style="font-variation-settings:normal;opacity:1;vector-effect:none;fill:#0000ff;fill-opacity:1;stroke-width:0.065073;stroke-linecap:butt;stroke-linejoin:miter;stroke-miterlimit:4;stroke-dasharray:none;stroke-dashoffset:0;stroke-opacity:1;stop-color:#000000;stop-opacity:1" />
  <path
     id="path852"
     d="M 11.125672,19.511608 C 11.04085,19.338336 10.671478,18.537703 10.304846,17.732423 9.0478579,14.971541 8.3043873,13.400982 6.8489972,10.432045 6.0474327,8.7968861 5.3916072,7.3986275 5.3916072,7.3248039 c 0,-0.106816 0.041332,-0.1342249 0.2024082,-0.1342249 0.1761222,0 0.3895496,0.1838057 1.6434334,1.4153403 3.1098292,3.0543997 5.7710362,5.1451037 8.4861132,6.6668827 0.955877,0.535761 1.36351,0.730508 2.487449,1.188378 0.739366,0.301204 0.815288,0.347492 0.834004,0.508477 0.01989,0.171088 0.0099,0.177111 -0.292829,0.177192 -0.937767,2.61e-4 -3.298378,0.824946 -5.89994,2.061178 -0.638851,0.303575 -1.253979,0.566955 -1.36695,0.585287 -0.192054,0.03117 -0.215423,0.01286 -0.359624,-0.281706 z"
     style="font-variation-settings:normal;opacity:1;vector-effect:none;fill:#00ff00;fill-opacity:1;stroke-width:0.065073;stroke-linecap:butt;stroke-linejoin:miter;stroke-miterlimit:4;stroke-dasharray:none;stroke-dashoffset:0;stroke-opacity:1;stop-color:#000000;stop-opacity:1" />
  <path
     id="path854"
     d="m 15.797105,31.353292 c -0.03923,-0.100799 -0.172855,-0.47283 -0.296934,-0.826735 -0.615012,-1.754172 -1.915519,-5.121847 -2.974498,-7.702488 -0.341538,-0.832302 -0.639465,-1.611813 -0.662059,-1.732248 -0.05267,-0.280736 -0.0016,-0.317596 1.436006,-1.03682 2.514882,-1.258164 4.416602,-1.92088 5.887487,-2.051687 0.638808,-0.05681 0.780878,-0.04406 0.780878,0.07005 0,0.0367 -0.194541,0.494771 -0.432312,1.01794 -1.915118,4.213836 -2.935579,7.823444 -3.230772,11.427987 l -0.07994,0.976097 -0.178261,0.02059 c -0.144289,0.01666 -0.191856,-0.01434 -0.249598,-0.162683 z"
     style="font-variation-settings:normal;opacity:1;vector-effect:none;fill:#ffff00;fill-opacity:1;stroke-width:0.065073;stroke-linecap:butt;stroke-linejoin:miter;stroke-miterlimit:4;stroke-dasharray:none;stroke-dashoffset:0;stroke-opacity:1;stop-color:#000000;stop-opacity:1" />
  <path
     id="path856"
     d="M 2.6843419,24.548832 C 2.8231546,24.052933 3.1333194,22.338246 3.2699435,21.311445 3.5824319,18.962932 3.602303,18.555339 3.5982926,14.576377 3.5945939,10.906585 3.589584,10.758917 3.4172557,9.2403821 3.3197776,8.381417 3.1531127,7.071789 3.0468893,6.3300976 2.9406659,5.5884063 2.8537558,4.9515032 2.8537558,4.9147574 c 0,-0.036746 0.087709,-0.06681 0.1949092,-0.06681 0.1882101,0 0.2170125,0.044173 0.8379967,1.2851939 1.8024038,3.6020589 3.974278,8.1401087 5.1308863,10.7207947 0.5587843,1.24679 1.514835,3.466625 1.514835,3.517265 0,0.01504 -0.183018,0.119383 -0.406707,0.231872 -0.9736588,0.489636 -4.6062766,2.544863 -5.6776289,3.212235 -1.4159644,0.882038 -1.4120745,0.879939 -1.6301394,0.879939 -0.1497767,0 -0.1687335,-0.02078 -0.1335658,-0.146415 z"
     style="font-variation-settings:normal;opacity:1;vector-effect:none;fill:#ff00ff;fill-opacity:1;stroke-width:0.065073;stroke-linecap:butt;stroke-linejoin:miter;stroke-miterlimit:4;stroke-dasharray:none;stroke-dashoffset:0;stroke-opacity:1;stop-color:#000000;stop-opacity:1" />
</svg>
