<?xml version="1.0" encoding="UTF-8" standalone="no"?>
<svg
   xmlns:dc="http://purl.org/dc/elements/1.1/"
   xmlns:cc="http://creativecommons.org/ns#"
   xmlns:rdf="http://www.w3.org/1999/02/22-rdf-syntax-ns#"
   xmlns:svg="http://www.w3.org/2000/svg"
   xmlns="http://www.w3.org/2000/svg"
   id="svg713"
   version="1.1"
   viewBox="0 0 19.386321 28.857226"
   height="28.857225mm"
   width="19.386322mm">
  <defs
     id="defs707" />
  <metadata
     id="metadata710">
    <rdf:RDF>
      <cc:Work
         rdf:about="">
        <dc:format>image/svg+xml</dc:format>
        <dc:type
           rdf:resource="http://purl.org/dc/dcmitype/StillImage" />
        <dc:title></dc:title>
      </cc:Work>
    </rdf:RDF>
  </metadata>
  <g
     transform="translate(-111.00386,-140.49519)"
     id="layer1">
    <path
       style="stroke-width:0.264583"
       d="m 129.64951,140.57946 c -0.29633,-0.11906 -0.63235,-0.11113 -0.92339,0.0185 -0.254,0.11112 -0.53711,0.36248 -0.61119,0.64294 -1.48431,5.51656 -2.17223,11.19187 -3.35756,16.77193 -0.0265,0.0741 -0.0529,0.14817 -0.0767,0.2249 -0.44186,-0.4789 -0.93398,-0.92075 -1.44992,-1.31498 -1.09008,-0.83079 -2.35214,-1.35467 -3.683,-1.64571 -1.12183,-0.23812 -2.34156,-0.19843 -3.45016,0.0794 -1.10332,0.27252 -2.14048,0.77523 -3.00567,1.50548 -0.82021,0.69321 -1.46315,1.61131 -1.80446,2.62731 -0.35983,1.0795 -0.37306,2.26483 -0.0635,3.35756 0.39688,1.36525 1.17475,2.56117 2.159,3.58511 1.22767,1.28587 2.70933,2.34156 4.46088,2.76225 1.25412,0.30162 2.53206,0.15875 3.72797,-0.31486 1.2753,-0.50271 2.33628,-1.47373 3.20146,-2.51354 0.18521,-0.21696 0.36248,-0.43921 0.53182,-0.6641 0.18785,-0.26194 0.32808,-0.56092 0.45243,-0.85461 0.30427,-0.69056 0.48419,-1.43139 0.635,-2.16958 0.14023,-0.71702 0.24342,-1.44463 0.33602,-2.16694 0.045,-0.37835 0.082,-0.75935 0.1323,-1.13771 1.16416,-5.28108 1.84679,-10.65212 3.10356,-15.91204 0,0.005 -0.003,0.0106 -0.003,0.0132 0.003,-0.005 0.003,-0.0106 0.005,-0.0159 0.0238,-0.0979 0.045,-0.19315 0.0688,-0.29105 -0.0159,0.0741 -0.0318,0.14288 -0.0503,0.21432 0.10848,-0.42334 0.21696,-0.84667 0.32809,-1.27 0.0873,-0.32015 0.12435,-0.60855 -0.0185,-0.9234 -0.10584,-0.24077 -0.29634,-0.44185 -0.52652,-0.56092 -0.0423,-0.0159 -0.0794,-0.0318 -0.11907,-0.0476 z m -8.59366,17.76942 c 0.54239,0.32279 1.03981,0.70379 1.50548,1.12977 0.55562,0.55562 1.04245,1.16945 1.47373,1.82298 -0.11907,0.89164 -0.20638,1.79387 -0.39688,2.67229 -0.0476,0.15346 -0.10583,0.30427 -0.17198,0.45243 -0.15875,0.24078 -0.34925,0.46303 -0.54504,0.67734 -0.44979,0.45773 -0.93398,0.87577 -1.47108,1.22766 -0.35719,0.20373 -0.72232,0.37307 -1.10332,0.50536 -0.31485,0.082 -0.6297,0.13494 -0.95514,0.1614 -0.36248,-0.003 -0.71438,-0.0423 -1.06892,-0.11642 -0.39423,-0.11642 -0.77258,-0.26988 -1.13771,-0.45244 -0.63764,-0.36777 -1.2065,-0.81492 -1.74889,-1.31233 -0.51065,-0.51329 -0.97367,-1.06363 -1.36525,-1.66952 -0.20373,-0.36513 -0.37307,-0.74084 -0.51065,-1.13507 -0.0847,-0.32279 -0.13758,-0.64823 -0.16404,-0.9816 0.005,-0.27252 0.0344,-0.5424 0.0847,-0.81227 0.082,-0.27517 0.1852,-0.53711 0.3122,-0.7964 0.16934,-0.28046 0.36513,-0.54239 0.59003,-0.78846 0.26458,-0.2487 0.54768,-0.47095 0.84931,-0.66675 0.38629,-0.21431 0.78846,-0.39158 1.2065,-0.52652 0.48419,-0.12435 0.97896,-0.19579 1.47902,-0.2196 0.50006,0.008 0.99483,0.0662 1.48167,0.16669 0.57943,0.16404 1.13241,0.381 1.65629,0.66146 z m -1.49225,-0.62442 c -0.0291,-0.005 -0.0609,-0.0132 -0.09,-0.0212 0.0291,0.008 0.0609,0.0132 0.09,0.0212 z m -1.74096,-0.20373 c -0.0476,0 -0.0953,0 -0.14288,0 0.0476,0 0.0953,0 0.14288,0 z m -1.4605,0.24342 c -0.0397,0.0106 -0.0794,0.0238 -0.12171,0.0344 0.0397,-0.0132 0.082,-0.0238 0.12171,-0.0344 z m 2.21192,9.18633 c -0.0344,-0.008 -0.0661,-0.0159 -0.0979,-0.0265 0.0318,0.0106 0.0635,0.0185 0.0979,0.0265 z m 11.39031,-23.48706 c 0,0 0,0 0,0 0.008,-0.0238 0.0132,-0.0503 0.0212,-0.0767 -0.008,0.0238 -0.0132,0.0503 -0.0212,0.0767 z"
       id="path198" />
  </g>
</svg>
