<svg xmlns="http://www.w3.org/2000/svg"
   viewBox="0 0 33.300186 19.539022"
   preserveAspectRatio="none" 
   fill="#fa8807"
>
<path
     id="path12" 
     d="m 33.208688,3.7097286 c -0.03175,-0.714375 0.03175,-1.661584 -0.719667,-2.037292 -0.343958,-0.1719791 -0.762,-0.1534581 -1.135063,-0.1719791 -0.502708,-0.02381 -1.008062,-0.05027 -1.516062,-0.07408 -0.963083,-0.04498 -1.931458,-0.08467 -2.897188,-0.121709 -7.688793,-0.293687 -15.382876,-0.32279095 -23.0716672,-0.0979 -0.550334,0.01587 -1.100667,0.03175 -1.648354,0.05292 -0.497417,0.01587 -1.037167,-0.02117 -1.52664599,0.07408 -0.399521,0.07937 -0.642938,0.3730631 -0.679979,0.7752301 -0.03969,0.492125 0.01588,1.013354 0.0291,1.508125 0.03175,1.246187 0.08996,2.495021 0.15875,3.741208 -0.01852,1.293813 0.0053,2.590271 0.05556,3.8840834 0.05556,1.471083 0.174625,2.936875 0.325438,4.400021 0.01058,0.280458 0.0344,0.566208 0.0979,0.836083 0.0635,0.354542 0.17727,0.693209 0.46301999,0.931334 0.06879,0.05821 0.150813,0.103187 0.232834,0.142875 0.230187,0.166687 0.500062,0.291041 0.772583,0.386291 0.656167,0.22225 1.36525,0.3175 2.050521,0.415396 0.706437,0.100542 1.418167,0.174625 2.132542,0.219604 1.502833,0.09525 3.008312,0.09525 4.5137912,0.07144 3.092979,-0.04498 6.178021,-0.01058 9.268354,0.08202 3.122083,0.09525 6.241521,0.214312 9.363606,0.17727 0.74877,-0.0079 1.992312,-0.02646 2.714625,-0.264583 0.642937,-0.211667 0.642937,-0.624417 0.775229,-1.246187 0.0053,-0.574146 0.01588,-1.148292 0.02646,-1.722438 0.248708,-3.018896 0.351896,-6.0510204 0.304271,-9.0831454 -0.01323,-0.960438 -0.04498,-1.920875 -0.08996,-2.878667 z m -1.09273,13.6445624 c -0.05027,0.148167 -0.119062,0.288396 -0.219604,0.394229 -3.577166,0.195792 -7.164918,0.243417 -10.747376,0.1905 -0.01323,0 -0.0291,-0.0026 -0.04498,-0.0026 -1.11125,-0.03439 -2.227792,-0.06085 -3.339042,-0.07938 C 16.606081,17.82 15.44456,17.78031 14.288331,17.727395 11.269436,17.595062 8.2505408,17.412499 5.2342908,17.224645 c -0.764646,-0.05027 -1.529292,-0.0979 -2.293938,-0.148166 -0.351896,-0.02117 -0.719666,-0.01588 -1.068916,-0.07408 -0.33073,-0.05556 -0.449792,-0.261937 -0.518584,-0.5715 -0.148166,-0.674687 -0.169333,-1.397 -0.232833,-2.082271 -0.06615,-0.735541 -0.119063,-1.468437 -0.17462499,-2.206625 -0.100542,-1.402291 -0.150813,-2.8098744 -0.179917,-4.2148124 0.0026,-0.179916 0,-0.357187 0.0026,-0.537104 0.0079,-0.912812 0.05556,-1.828271 0.03969,-2.741083 -0.0053,-0.433917 -0.01323,-0.870479 -0.02117,-1.304396 -0.0053,-0.216959 -0.0079,-0.433917 -0.01058,-0.653521 -0.0026,-0.150813 -0.07144,-0.529167 0.05292,-0.605896 0.113771,-0.07144 0.41804199,-0.01852 0.55033399,-0.02381 0.198437,-0.0053 0.394229,-0.01323 0.592666,-0.01852 0.463021,-0.01587 0.923396,-0.03175 1.383771,-0.04498 3.645958,-0.111125 7.2945622,-0.164042 10.9458122,-0.15875 3.669771,0.0053 7.339542,0.06614 11.009313,0.179916 1.82298,0.05821 3.645959,0.132292 5.468939,0.216958 0.396875,0.01852 0.849312,-0.01852 1.23825,0.07937 0.415395,0.103188 0.394229,0.537105 0.41275,0.891646 0.04762,0.894292 0.08202,1.788584 0.103187,2.677584 0.0926,3.825875 -0.05292,7.6570414 -0.418042,11.4696874 z"
      />
</svg>
