<?xml version="1.0" encoding="UTF-8" standalone="no"?>
<svg
   xmlns:dc="http://purl.org/dc/elements/1.1/"
   xmlns:cc="http://creativecommons.org/ns#"
   xmlns:rdf="http://www.w3.org/1999/02/22-rdf-syntax-ns#"
   xmlns:svg="http://www.w3.org/2000/svg"
   xmlns="http://www.w3.org/2000/svg"
   xmlns:sodipodi="http://sodipodi.sourceforge.net/DTD/sodipodi-0.dtd"
   xmlns:inkscape="http://www.inkscape.org/namespaces/inkscape"
   inkscape:version="1.0 (4035a4f, 2020-05-01)"
   sodipodi:docname="button-down-notxt.svg"
   id="svg14"
   version="1.1"
   viewBox="0 0 33.300186 19.539022"
   preserveAspectRatio="none">
  <metadata
     id="metadata20">
    <rdf:RDF>
      <cc:Work
         rdf:about="">
        <dc:format>image/svg+xml</dc:format>
        <dc:type
           rdf:resource="http://purl.org/dc/dcmitype/StillImage" />
      </cc:Work>
    </rdf:RDF>
  </metadata>
  <defs
     id="defs18" />
  <sodipodi:namedview
     inkscape:current-layer="svg14"
     inkscape:window-maximized="0"
     inkscape:window-y="23"
     inkscape:window-x="0"
     inkscape:cy="8.1883056"
     inkscape:cx="16.713341"
     inkscape:zoom="31.621445"
     showgrid="false"
     id="namedview16"
     inkscape:window-height="806"
     inkscape:window-width="1463"
     inkscape:pageshadow="2"
     inkscape:pageopacity="0"
     guidetolerance="10"
     gridtolerance="10"
     objecttolerance="10"
     borderopacity="1"
     bordercolor="#666666"
     pagecolor="#ffffff" />
  <path
     id="path10"
     d="m 32.531354,5.8793116 c 0.0926,3.831167 -0.05027,7.6623334 -0.415396,11.4749794 -0.05027,0.148167 -0.119062,0.288396 -0.219604,0.394229 -3.577166,0.195792 -7.164918,0.243417 -10.747376,0.1905 -0.01323,0 -0.0291,-0.0026 -0.04498,-0.0026 -1.11125,-0.03439 -2.227792,-0.06085 -3.339042,-0.07938 C 16.606081,17.82 15.44456,17.78031 14.288331,17.727395 11.269436,17.595062 8.2505408,17.412499 5.2342908,17.224645 c -0.764646,-0.05027 -1.529292,-0.0979 -2.293938,-0.148166 -0.351896,-0.02117 -0.719666,-0.01588 -1.068916,-0.07408 -0.33073,-0.05556 -0.449792,-0.261937 -0.518584,-0.5715 -0.148166,-0.674687 -0.169333,-1.397 -0.232833,-2.082271 -0.06615,-0.735541 -0.119063,-1.468437 -0.17462499,-2.206625 -0.100542,-1.402291 -0.150813,-2.8098744 -0.179917,-4.2148124 0.0026,-0.179916 0,-0.357187 0.0026,-0.537104 0.0079,-0.912812 0.05556,-1.828271 0.03969,-2.741083 -0.0053,-0.433917 -0.01323,-0.870479 -0.02117,-1.304396 -0.0053,-0.216959 -0.0079,-0.433917 -0.01058,-0.653521 -0.0026,-0.150813 -0.07144,-0.529167 0.05292,-0.605896 0.113771,-0.07144 0.41804199,-0.01852 0.55033399,-0.02381 0.198437,-0.0053 0.394229,-0.01323 0.592666,-0.01852 0.463021,-0.01587 0.923396,-0.03175 1.383771,-0.04498 3.645958,-0.111125 7.2945622,-0.164042 10.9458122,-0.15875 3.669771,0.0053 7.339542,0.06614 11.009313,0.179916 1.82298,0.05821 3.645959,0.132292 5.468939,0.216958 0.396875,0.01852 0.849312,-0.01852 1.23825,0.07937 0.415395,0.103188 0.394229,0.537105 0.41275,0.891646 0.04762,0.886355 0.07937,1.780646 0.100541,2.672292 z"
     fill="none" />
  <path
     id="path22"
     d="M 20.000181,18.193071 C 19.506391,18.179099 18.510796,18.151439 17.787747,18.1316 14.628909,18.044954 10.711626,17.84307 4.7696586,17.460691 3.7997149,17.398274 2.7391895,17.332056 2.4129357,17.31354 1.7283402,17.274688 1.5398126,17.230861 1.3994803,17.077946 1.1774545,16.836013 1.124677,16.516456 0.95530735,14.388576 0.65581119,10.625849 0.64158333,10.258838 0.62716497,5.9240897 0.6204089,3.8929395 0.61369046,2.1672119 0.61223511,2.0891391 0.60854116,1.8909755 0.6689227,1.8385729 0.89903044,1.8402409 0.99981167,1.8409716 1.7171412,1.8230465 2.4930963,1.8004075 7.2154445,1.6626298 9.5490135,1.6271173 13.875908,1.6271829 c 4.203534,6.38e-5 7.47107,0.047811 11.190426,0.1635237 1.598701,0.049737 5.377052,0.1983665 6.550046,0.2576603 0.515294,0.026048 0.60438,0.038874 0.737477,0.1061746 0.239819,0.1212654 0.292977,0.2642209 0.328113,0.8823836 0.0875,1.5395296 0.111497,2.6389701 0.111145,5.0931601 -4.17e-4,2.9946878 -0.0537,4.5843388 -0.240934,7.1899118 -0.158553,2.206437 -0.199657,2.495645 -0.377678,2.657278 -0.05756,0.05227 -0.517983,0.0838 -2.234401,0.153027 -2.398684,0.09675 -7.582436,0.129483 -9.939921,0.06276 z"
     style="font-variation-settings:normal;opacity:1;vector-effect:none;fill:#ffffff;fill-opacity:1;stroke-width:0.0323713;stroke-linecap:butt;stroke-linejoin:miter;stroke-miterlimit:4;stroke-dasharray:none;stroke-dashoffset:0;stroke-opacity:1;stop-color:#000000;stop-opacity:1" />
  <path
     id="path12"
     d="m 33.208688,3.7097286 c -0.03175,-0.714375 0.03175,-1.661584 -0.719667,-2.037292 -0.343958,-0.1719791 -0.762,-0.1534581 -1.135063,-0.1719791 -0.502708,-0.02381 -1.008062,-0.05027 -1.516062,-0.07408 -0.963083,-0.04498 -1.931458,-0.08467 -2.897188,-0.121709 -7.688793,-0.293687 -15.382876,-0.32279095 -23.0716672,-0.0979 -0.550334,0.01587 -1.100667,0.03175 -1.648354,0.05292 -0.497417,0.01587 -1.037167,-0.02117 -1.52664599,0.07408 -0.399521,0.07937 -0.642938,0.3730631 -0.679979,0.7752301 -0.03969,0.492125 0.01588,1.013354 0.0291,1.508125 0.03175,1.246187 0.08996,2.495021 0.15875,3.741208 -0.01852,1.293813 0.0053,2.590271 0.05556,3.8840834 0.05556,1.471083 0.174625,2.936875 0.325438,4.400021 0.01058,0.280458 0.0344,0.566208 0.0979,0.836083 0.0635,0.354542 0.17727,0.693209 0.46301999,0.931334 0.06879,0.05821 0.150813,0.103187 0.232834,0.142875 0.230187,0.166687 0.500062,0.291041 0.772583,0.386291 0.656167,0.22225 1.36525,0.3175 2.050521,0.415396 0.706437,0.100542 1.418167,0.174625 2.132542,0.219604 1.502833,0.09525 3.008312,0.09525 4.5137912,0.07144 3.092979,-0.04498 6.178021,-0.01058 9.268354,0.08202 3.122083,0.09525 6.241521,0.214312 9.363606,0.17727 0.74877,-0.0079 1.992312,-0.02646 2.714625,-0.264583 0.642937,-0.211667 0.642937,-0.624417 0.775229,-1.246187 0.0053,-0.574146 0.01588,-1.148292 0.02646,-1.722438 0.248708,-3.018896 0.351896,-6.0510204 0.304271,-9.0831454 -0.01323,-0.960438 -0.04498,-1.920875 -0.08996,-2.878667 z m -1.09273,13.6445624 c -0.05027,0.148167 -0.119062,0.288396 -0.219604,0.394229 -3.577166,0.195792 -7.164918,0.243417 -10.747376,0.1905 -0.01323,0 -0.0291,-0.0026 -0.04498,-0.0026 -1.11125,-0.03439 -2.227792,-0.06085 -3.339042,-0.07938 C 16.606081,17.82 15.44456,17.78031 14.288331,17.727395 11.269436,17.595062 8.2505408,17.412499 5.2342908,17.224645 c -0.764646,-0.05027 -1.529292,-0.0979 -2.293938,-0.148166 -0.351896,-0.02117 -0.719666,-0.01588 -1.068916,-0.07408 -0.33073,-0.05556 -0.449792,-0.261937 -0.518584,-0.5715 -0.148166,-0.674687 -0.169333,-1.397 -0.232833,-2.082271 -0.06615,-0.735541 -0.119063,-1.468437 -0.17462499,-2.206625 -0.100542,-1.402291 -0.150813,-2.8098744 -0.179917,-4.2148124 0.0026,-0.179916 0,-0.357187 0.0026,-0.537104 0.0079,-0.912812 0.05556,-1.828271 0.03969,-2.741083 -0.0053,-0.433917 -0.01323,-0.870479 -0.02117,-1.304396 -0.0053,-0.216959 -0.0079,-0.433917 -0.01058,-0.653521 -0.0026,-0.150813 -0.07144,-0.529167 0.05292,-0.605896 0.113771,-0.07144 0.41804199,-0.01852 0.55033399,-0.02381 0.198437,-0.0053 0.394229,-0.01323 0.592666,-0.01852 0.463021,-0.01587 0.923396,-0.03175 1.383771,-0.04498 3.645958,-0.111125 7.2945622,-0.164042 10.9458122,-0.15875 3.669771,0.0053 7.339542,0.06614 11.009313,0.179916 1.82298,0.05821 3.645959,0.132292 5.468939,0.216958 0.396875,0.01852 0.849312,-0.01852 1.23825,0.07937 0.415395,0.103188 0.394229,0.537105 0.41275,0.891646 0.04762,0.894292 0.08202,1.788584 0.103187,2.677584 0.0926,3.825875 -0.05292,7.6570414 -0.418042,11.4696874 z"
     fille="none" />
</svg>
