<svg
   xmlns="http://www.w3.org/2000/svg"
   fill="#804cbf"
   stroke-width="0.264583"
   viewBox="0 0 33.300186 19.539022"
   preserveAspectRatio="none">
<path
     id="path12"
     d="m 33.203806,2.6492306 c -0.0344,-0.71437 0.0318,-1.66158 -0.72232,-2.03464 -0.34131,-0.17198 -0.75935,-0.15611 -1.12977,-0.17198 -0.50535,-0.0265 -1.01071,-0.0529 -1.51606,-0.0741 -0.96573,-0.045 -1.9341,-0.0847 -2.89983,-0.1217 -7.6888,-0.29369 -15.38288,-0.3228 -23.0716702,-0.10055 -0.55033,0.0185 -1.09802,0.0344 -1.64836,0.0529 -0.49477,0.0185 -1.03452,-0.0212 -1.52664001,0.0767 -0.39688,0.0767 -0.64029,0.37042 -0.67469,0.77258 -0.0397,0.49213 0.0132,1.01071 0.0291,1.50548 0.0317,1.24355 0.0873,2.48973 0.1561,3.73063 -0.0212,1.2991 0.005,2.60085 0.0556,3.8973104 0.0503,1.28588 0.14552,2.56646 0.26988,3.8444 0.0265,0.59266 0.0608,1.18268 0.0741,1.77535 0.0132,0.61913 0,1.3335 0.33338,1.88383 0.26987001,0.4445 0.73554001,0.70644 1.21708001,0.87048 0.64558,0.22225 1.34144,0.3175 2.01612,0.41804 0.69586,0.10055 1.39436,0.17198 2.09815,0.21961 1.47637,0.0952 2.95804,0.0952 4.4370602,0.0714 3.04536,-0.0476 6.07748,-0.008 9.12019,0.0847 3.06917,0.0953 6.13833,0.21431 9.2075,0.17991 0.73819,-0.008 1.59544,0.0794 2.30452,-0.1561 0.64558,-0.21696 0.99483,-0.74877 1.13506,-1.39171 0.0476,-0.21431 0.0873,-0.43656 0.12171,-0.65881 0.0952,-0.0662 0.15611,-0.17198 0.16934,-0.30163 0.41275,-3.81529 0.59002,-7.6543904 0.52916,-11.4934904 -0.0106,-0.96309 -0.0397,-1.92353 -0.0847,-2.87867 z M 1.9326958,17.823091 c -0.59796,-0.31486 -0.6985,-0.86519 -0.75142,-1.45521 0.16934,0.127 0.37307,0.20108 0.59796,0.24606 0.082,0.11377 0.16669,0.2249 0.25665,0.33073 0.20637,0.25135 0.41804,0.49213 0.64823,0.71967 0.20637,0.20373 0.42598,0.38629 0.66675,0.54768 -0.48684,-0.0714 -0.99219,-0.16404 -1.41817,-0.38893 z m 2.50296,0.53181 c -0.0132,-0.0291 -0.0317,-0.0582 -0.0635,-0.0794 -0.26988,-0.20109 -0.58738,-0.34132 -0.86519,-0.53976 -0.27781,-0.20108 -0.5371,-0.42333 -0.78317,-0.66145 -0.14022,-0.13494 -0.28045,-0.27252 -0.42333,-0.40746 0.25136,0.0106 0.49477,0.005 0.70908,0.0212 0.21696,0.0106 0.43128,0.0265 0.64823,0.0397 0.15875,0.18785 0.37042,0.34925 0.55298,0.50535 0.23813,0.20109 0.48154,0.39688 0.7329,0.57679 0.24606,0.17463 0.49477,0.35455 0.74877,0.5133 0.0926,0.0582 0.19315,0.11906 0.29104,0.17197 -0.51329,-0.0318 -1.03187,-0.0794 -1.54781,-0.14022 z m 2.26483,0.17198 c -0.003,-0.0185 -0.008,-0.037 -0.0185,-0.0556 -0.0767,-0.12171 -0.20902,-0.19579 -0.32014,-0.28575 -0.11907,-0.0952 -0.25136,-0.17727 -0.381,-0.25929 -0.25665,-0.16934 -0.52388,-0.32809 -0.78582,-0.49742 -0.25135,-0.16669 -0.508,-0.32544 -0.762,-0.48683 -0.09,-0.0582 -0.17991,-0.12171 -0.26987,-0.17992 0.70644,0.045 1.41816,0.09 2.12725,0.13494 0.37571,0.39423 0.81756,0.72496 1.26471,1.03981 0.23018,0.16404 0.46302,0.33073 0.70908,0.47096 0.0873,0.0476 0.17992,0.10054 0.27517,0.14817 -0.61384,0 -1.22767,-0.008 -1.83886,-0.0291 z m 2.39184,0.0265 c -0.14288,-0.20373 -0.37571,-0.3519 -0.57944,-0.48948 -0.24342,-0.1614 -0.49213,-0.31486 -0.73554,-0.47361 -0.33073,-0.21695 -0.65088,-0.44714 -0.98161,-0.6641 0.69321,0.0423 1.38906,0.0847 2.08492,0.12435 0.10054,0.127 0.2196,0.24607 0.33337,0.35719 0.17198,0.16669 0.35455,0.31486 0.54505,0.46302 0.18785,0.14817 0.3783502,0.2884 0.5741402,0.42598 0.10319,0.0688 0.20902,0.127 0.31486,0.18786 0.0212,0.0106 0.0397,0.0238 0.0608,0.0344 -0.53711,0.0132 -1.0768602,0.0265 -1.6166102,0.0344 z m 3.1247202,-0.0741 c -0.34131,0.005 -0.67997,0.0159 -1.01864,0.0238 0.0106,-0.037 0.005,-0.0794 -0.0238,-0.11906 -0.0767,-0.10319 -0.16669,-0.16669 -0.27252,-0.23813 -0.0952,-0.0661 -0.18256,-0.14552 -0.28046,-0.20902 -0.19844,-0.13229 -0.39423,-0.26458 -0.58737,-0.40746 -0.1852102,-0.13758 -0.3651302,-0.27781 -0.5503402,-0.41275 -0.0159,-0.0132 -0.0317,-0.0238 -0.045,-0.037 0.8122702,0.0476 1.6271902,0.0926 2.4394602,0.13758 0.11113,0.0979 0.21167,0.20109 0.32544,0.29634 0.22489,0.18785 0.46302,0.35983 0.70379,0.52916 0.20108,0.14553 0.40746,0.2884 0.61913,0.41805 -0.43657,0.005 -0.87313,0.008 -1.30969,0.0185 z m 2.11932,-0.0291 c -0.0318,-0.0212 -0.0635,-0.045 -0.0979,-0.0661 -0.11642,-0.082 -0.23019,-0.16404 -0.3519,-0.24606 -0.24341,-0.15875 -0.49741,-0.30427 -0.74348,-0.46567 -0.21166,-0.13758 -0.42333,-0.2831 -0.635,-0.42069 0.51859,0.0265 1.03982,0.0503 1.56104,0.0741 0.0132,0.0159 0.0238,0.0291 0.037,0.045 0.0794,0.082 0.15346,0.16404 0.23284,0.24342 0.16669,0.16933 0.35189,0.30956 0.54239,0.44715 0.0847,0.0635 0.17463,0.127 0.2593,0.18785 0.0503,0.0344 0.10054,0.0688 0.14816,0.0979 0.0529,0.0318 0.10848,0.0476 0.16404,0.0714 0.0238,0.0132 0.0476,0.0265 0.0714,0.0344 -0.39687,0.003 -0.79375,-0.005 -1.18797,-0.003 z m 1.91293,0.0106 c -0.003,-0.0106 -0.008,-0.0212 -0.0159,-0.0318 -0.14287,-0.18256 -0.35718,-0.26988 -0.53181,-0.41804 -0.0397,-0.0344 -0.0767,-0.0741 -0.12171,-0.10848 -0.045,-0.0291 -0.09,-0.0529 -0.13758,-0.0847 -0.0926,-0.0582 -0.1905,-0.12171 -0.28046,-0.18521 -0.13229,-0.09 -0.25929,-0.17992 -0.38894,-0.26988 0.60061,0.0265 1.19857,0.0476 1.80182,0.0714 0.27516,0.35984 0.63764,0.65617 0.9816,0.93928 0.0476,0.0397 0.0979,0.0741 0.14552,0.11112 -0.48683,-0.0106 -0.96837,-0.0212 -1.45256,-0.0238 z m 2.2913,0.037 c -0.0159,-0.0106 -0.0317,-0.0212 -0.045,-0.0317 -0.21961,-0.15611 -0.4445,-0.30956 -0.66675,-0.46302 -0.24871,-0.17463 -0.48684,-0.36777 -0.73025,-0.55034 0.68527,0.0238 1.37054,0.045 2.05581,0.0635 0.10319,0.0873 0.20902,0.16934 0.30692,0.25136 0.18785,0.16139 0.37835,0.3175 0.56091,0.48419 0.10584,0.0979 0.21167,0.19843 0.32015,0.29368 -0.60325,-0.0159 -1.20386,-0.0317 -1.80181,-0.0476 z m 2.46062,0.0688 c -0.0344,-0.0423 -0.0714,-0.0847 -0.10054,-0.12436 -0.0794,-0.10847 -0.1561,-0.19843 -0.254,-0.28839 -0.0952,-0.09 -0.19315,-0.18256 -0.29633,-0.26723 -0.14552,-0.11906 -0.29369,-0.23548 -0.44186,-0.3466 0.64559,0.0132 1.29117,0.0317 1.9394,0.0397 0.13229,0.003 0.26458,0 0.39687,0.003 0.0556,0.0556 0.11377,0.10847 0.16934,0.16139 0.23283,0.21696 0.46831,0.43656 0.71173,0.64294 0.10054,0.0847 0.19843,0.16933 0.30162,0.254 -0.81227,-0.0265 -1.61925,-0.0476 -2.42623,-0.0741 z m 3.16706,0.09 c -0.008,-0.008 -0.0159,-0.0132 -0.0238,-0.0212 -0.2487,-0.20109 -0.508,-0.39159 -0.75935,-0.59531 -0.18785,-0.15082 -0.37835,-0.30163 -0.56885,-0.45773 0.61648,0.008 1.23031,0.0132 1.84414,0.0132 0.23019,0.23283 0.47625,0.45243 0.71173,0.67733 0.14552,0.14023 0.29104,0.27781 0.43921,0.4154 -0.54769,-0.008 -1.09538,-0.0185 -1.64306,-0.0317 z m 2.33098,0.0397 c -0.0238,-0.0423 -0.0503,-0.0873 -0.082,-0.127 -0.0423,-0.0503 -0.0873,-0.0952 -0.12964,-0.14552 -0.16934,-0.1905 -0.35719,-0.36777 -0.54504,-0.53446 -0.12171,-0.10583 -0.24342,-0.20108 -0.36777,-0.29898 0.75935,-0.003 1.5187,-0.0159 2.2807,-0.0291 0.0132,0.0159 0.0265,0.0318 0.0397,0.0476 0.0952,0.10054 0.17992,0.20902 0.27517,0.30956 0.19315,0.19844 0.39423,0.38629 0.59796,0.5715 0.0794,0.0688 0.15875,0.14288 0.23812,0.21167 -0.76993,0.008 -1.53722,0.005 -2.30716,-0.005 z m 3.05859,0 c -0.0132,-0.0106 -0.0265,-0.0238 -0.0397,-0.0344 -0.20109,-0.18786 -0.43127,-0.34661 -0.64294,-0.52123 -0.20902,-0.17198 -0.4154,-0.34131 -0.62971,-0.51065 -0.037,-0.0291 -0.0741,-0.0556 -0.11641,-0.0847 0.4101,-0.0106 0.81756,-0.0185 1.22502,-0.0344 0.0185,0.0265 0.0397,0.0529 0.0635,0.0767 0.0714,0.09 0.13493,0.17727 0.21695,0.25665 0.15082,0.1561 0.31486,0.29633 0.4789,0.43921 0.16404,0.14287 0.32279,0.2831 0.50271,0.40216 -0.3519,0.0397 -0.73025,0.0132 -1.05833,0.0106 z m 1.72243,-0.21431 c -0.005,-0.005 -0.008,-0.0132 -0.0132,-0.0185 -0.0132,-0.045 -0.0344,-0.0847 -0.0714,-0.127 -0.0344,-0.037 -0.0714,-0.0661 -0.10848,-0.10055 -0.0741,-0.0688 -0.13493,-0.14287 -0.21431,-0.20372 -0.14816,-0.11378 -0.29898,-0.22755 -0.4445,-0.34132 -0.0952,-0.0714 -0.18785,-0.14023 -0.28046,-0.20902 0.53446,-0.0185 1.06892,-0.045 1.60338,-0.0688 -0.0582,0.40746 -0.14817,0.85725 -0.47096,1.06892 z m 0.97632,-3.80207 c -0.0132,0.0582 -0.0238,0.11642 -0.0344,0.17463 -0.12436,0.61119 -0.25665,1.21973 -0.36777,1.83621 -5.84994,0.31485 -11.72105,0.23812 -17.56834,-0.0265 -3.02154,-0.13495 -6.0404302,-0.31486 -9.0566802,-0.50272 -0.762,-0.0503 -1.52929,-0.0979 -2.29394,-0.14816 -0.34925,-0.0238 -0.71967,-0.0185 -1.06892,-0.0741 -0.33337,-0.0582 -0.45243,-0.26193 -0.52122,-0.57414 -0.14817,-0.67469 -0.16669,-1.397 -0.23019,-2.08227 -0.0688,-0.73554 -0.12171001,-1.46844 -0.17727001,-2.20663 -0.0979,-1.3970004 -0.14817,-2.7940004 -0.17727,-4.1936404 0.003,-0.18521 0,-0.37307 0.003,-0.55827 0.008,-0.91282 0.0556,-1.83092 0.037,-2.74109 -0.005,-0.43391 -0.0132,-0.87048 -0.0185,-1.30439 l -0.0132,-0.65352 c -0.003,-0.15346 -0.0714,-0.53182 0.0556,-0.60855 0.11377,-0.0714 0.41804001,-0.0185 0.55033001,-0.0238 0.19844,-0.005 0.39687,-0.0132 0.59267,-0.0212 0.46302,-0.0132 0.92339,-0.0317 1.38641,-0.045 3.64596,-0.10848 7.2945702,-0.1614 10.9431702,-0.15611 3.66977,0.005 7.34219,0.0661 11.00931,0.17992 1.82563,0.0582 3.64596,0.12964 5.46894,0.21696 0.39952,0.0185 0.84931,-0.0185 1.23825,0.0794 0.41804,0.10583 0.39688,0.53711 0.4154,0.89429 0.0476,0.8943 0.082,1.78594 0.10318,2.67759 0.0794,3.28877 -0.0159,6.5828304 -0.27516,9.8610204 z" />
</svg>
