<?xml version="1.0" encoding="UTF-8" standalone="no"?>
<svg
   xmlns="http://www.w3.org/2000/svg"
   viewBox="0 0 210 297"
   preserveAspectRatio="none">
   <path
       d="m 179.02891,196.49592 c -0.93663,-32.46966 -1.97644,-64.93404 -3.12209,-97.398423 -1.13506,-32.175975 -2.37331,-64.349308 -3.7121,-96.5173494 -12.13379,-0.0979 -24.27288,-0.153459 -36.40931,-0.182563 -22.1324,-0.04763 -44.264814,0.0079 -66.394564,0.179917 -22.299081,0.174625 -44.598165,0.463021 -66.894601,0.867833 -0.0291,0 -0.06085,0 -0.08731,-0.0027 0.06615,2.836333 0.129646,5.672667 0.185208,8.5089994 0.518584,27.461105 0.526521,54.932793 0.732896,82.399193 0.209021,27.760093 0.542396,55.517523 1.010708,83.274963 0.230188,13.81654 0.494771,27.63044 0.79375,41.44433 0.148167,6.79186 0.301625,13.58107 0.465667,20.37292 0.07937,3.23321 -0.119063,6.61723 0.283104,9.82663 0.193146,1.54252 0.939271,2.20662 2.479146,2.35479 1.616604,0.15346 3.291416,0.0503 4.913311,0.0582 28.059063,0.16139 56.115484,0.0794 84.171894,-0.22225 27.680721,-0.29898 55.353501,-0.81228 83.026271,-1.54517 -0.4498,-17.80646 -0.93134,-35.61292 -1.44198,-53.41938 z M 24.078306,42.955564 c -0.534458,1.185333 -1.61925,2.00025 -2.876021,2.283354 -1.283229,0.288396 -2.637896,0.119063 -3.915833,-0.108479 -1.299104,-0.230188 -2.484438,-0.85725 -3.296709,-1.910292 -0.722312,-0.939271 -1.172104,-2.082271 -1.100666,-3.280833 0.0344,-0.547688 0.164041,-1.082146 0.388937,-1.571625 -0.105833,-0.73025 0.269875,-1.362604 0.732896,-1.939396 0.439208,-0.552979 0.971021,-1.021292 1.550458,-1.423458 1.193271,-0.830792 2.664355,-1.259417 4.116917,-1.203854 1.320271,0.05027 2.711979,0.439208 3.783542,1.232958 0.203729,0.150812 0.4445,0.301625 0.579437,0.526521 0.09525,0.15875 0.161396,0.346604 0.227542,0.518583 0.124354,0.304271 0.230187,0.613833 0.304271,0.933979 0.161396,0.687917 0.216958,1.404938 0.203729,2.108729 -0.02117,1.296459 -0.161396,2.643188 -0.6985,3.833813 z m 0.359833,21.505333 c -0.34925,1.277938 -1.169458,2.418292 -2.391833,2.979209 -1.116542,0.510645 -2.370667,0.60325 -3.582458,0.500062 -1.232959,-0.103187 -2.674938,-0.1905 -3.722688,-0.918104 -0.957792,-0.664104 -1.590146,-1.799167 -1.772708,-2.942167 -0.206375,-1.296458 0.124354,-2.656416 0.838729,-3.754437 0.0926,-0.142875 0.1905,-0.283104 0.296333,-0.420688 0.01058,-0.07408 0.03969,-0.145521 0.08202,-0.211666 0.113771,-0.177271 0.164042,-0.351896 0.264583,-0.534459 0.119063,-0.214312 0.320146,-0.383646 0.494771,-0.552979 0.301625,-0.288396 0.611188,-0.5715 0.941917,-0.828146 0.579437,-0.452437 1.201208,-0.8255 1.920875,-1.010708 1.330854,-0.341313 2.775479,-0.113771 3.974042,0.529167 2.450041,1.312333 3.354916,4.601104 2.656417,7.164916 z M 13.584931,15.523563 c 0.04763,-0.06879 0.0979,-0.134938 0.148167,-0.198438 0.01058,-0.04763 0.01852,-0.08467 0.02117,-0.09525 0.04498,-0.193145 0.129646,-0.378354 0.232834,-0.547687 0.1905,-0.309563 0.447145,-0.611188 0.714375,-0.85725 0.584729,-0.537104 1.262062,-0.936625 1.994958,-1.227667 1.444625,-0.576791 3.145896,-0.537104 4.579937,0.05292 1.452563,0.595312 2.529417,1.643062 3.042709,3.140604 0.415396,1.211792 0.463021,2.555876 0.235479,3.810001 -0.206375,1.140354 -0.724958,2.304521 -1.579563,3.106208 -1.042458,0.981604 -2.436812,1.314979 -3.84175,1.230313 -0.746125,-0.04498 -1.486958,-0.171979 -2.219854,-0.322792 -0.751416,-0.156104 -1.452562,-0.410104 -2.047875,-0.902229 -1.016,-0.830792 -1.751541,-2.214563 -1.981729,-3.497792 -0.227542,-1.254125 -0.04233,-2.629959 0.701146,-3.690938 z m -0.923396,67.040124 c 0.0979,-0.84137 0.375708,-1.60337 0.836083,-2.315102 0.96573,-1.49225 2.55323,-2.553229 4.294188,-2.910417 1.579562,-0.325437 3.167062,-0.06879 4.545542,0.777875 1.30175,0.801688 2.264833,2.100792 2.563812,3.608914 0.320146,1.60867 0.0079,3.24115 -0.635,4.73075 -0.301625,0.6985 -0.685271,1.40759 -1.259417,1.92617 -0.59002,0.52917 -1.325562,0.85725 -2.103437,1.00277 -1.613958,0.29898 -3.418417,0.21431 -4.918604,-0.49212 -1.259417,-0.59267 -2.206625,-1.7489 -2.709334,-3.02948 -0.111125,-0.28046 -0.193145,-0.56886 -0.248708,-0.86255 -0.07673,-0.003 -0.150812,-0.0503 -0.185208,-0.13758 -0.148167,-0.38629 -0.150813,-0.75671 -0.193146,-1.16417 -0.03704,-0.381 -0.03175,-0.7567 0.01323,-1.13506 z m 1.031875,43.092693 c 0.306917,-0.55298 0.685271,-1.09273 1.132417,-1.54781 0.129646,-0.27252 0.309562,-0.53181 0.53975,-0.77788 0.545041,-0.58208 1.251479,-1.00277 2.002896,-1.25941 1.664229,-0.56621 3.76502,-0.25136 5.262562,0.64294 1.399646,0.83608 1.926167,2.29658 2.034646,3.85233 0.09525,1.3335 0.0291,2.75431 -0.277813,4.05606 -0.320145,1.37319 -1.04775,2.62467 -2.235729,3.41842 -1.166812,0.77787 -2.685521,1.00806 -4.061354,0.86519 -1.484312,-0.15346 -2.915708,-0.7038 -3.892021,-1.87325 -0.830791,-0.99748 -1.275291,-2.28336 -1.383771,-3.56923 -0.111125,-1.31498 0.246063,-2.65642 0.878417,-3.80736 z m 0.05027,-24.64065 c 0.0053,-0.0503 0.0079,-0.10054 0.0079,-0.15081 0.0053,-0.32808 0.05821,-0.66146 0.193146,-1.002773 0.314854,-0.78317 0.910167,-1.42875 1.574271,-1.94204 1.285875,-0.99219 2.894542,-1.42875 4.500563,-1.13771 1.346729,0.24342 2.598208,1.08744 3.410479,2.16958 0.928687,1.240903 1.105958,2.846923 0.994833,4.352403 -0.100542,1.40759 -0.22225,3.06652 -1.092729,4.23863 -0.939271,1.26735 -2.465917,1.59808 -3.96875,1.53723 -1.386417,-0.0556 -2.979208,-0.18521 -4.212167,-0.87842 -0.627062,-0.34925 -1.201208,-0.88371 -1.534583,-1.52665 -0.330729,-0.63764 -0.494771,-1.35995 -0.566208,-2.07168 -0.116417,-1.15359 0.119062,-2.4818 0.693208,-3.58776 z m -1.013354,51.27361 c 0.07938,-0.52387 0.182562,-1.04246 0.333375,-1.55046 -0.142875,-0.10583 -0.238125,-0.27252 -0.216959,-0.47096 0.03969,-0.40481 0.113771,-0.79904 0.246063,-1.18533 0.145521,-0.43392 0.441854,-0.79375 0.727604,-1.14565 0.497417,-0.61118 1.17475,-1.11125 1.870604,-1.47902 1.547813,-0.81756 3.346979,-1.02658 5.035021,-0.53975 1.457854,0.41805 3.098271,1.30969 3.751792,2.75432 0.611187,1.34673 0.566208,2.98714 0.259291,4.40795 -0.568854,2.62203 -2.434166,5.02444 -5.082645,5.75469 -1.547813,0.42863 -3.296709,0.26194 -4.661959,-0.61648 -1.172104,-0.75406 -2.076979,-1.97908 -2.323041,-3.3655 -0.153459,-0.85989 -0.06615,-1.70921 0.06085,-2.56381 z m 0.452437,19.47333 c 0.156104,-0.34131 0.351896,-0.74083 0.597959,-1.11389 -0.01323,-0.20638 0,-0.40217 0.04233,-0.6059 0.01587,-0.0794 0.03704,-0.16139 0.0635,-0.23812 0,-0.003 0.03704,-0.0873 0.06615,-0.14817 0.0053,-0.0106 0.01058,-0.0238 0.01588,-0.0344 0.15875,-0.35718 0.365125,-0.6932 0.661458,-0.95779 0.550333,-0.49477 1.299104,-0.81491 2.016125,-0.97102 1.524,-0.33337 3.1115,0.003 4.492625,0.68792 2.553229,1.26735 4.148667,4.08517 3.823229,6.93473 -0.15875,1.39964 -0.706437,2.85221 -1.793875,3.79677 -1.2065,1.05304 -2.754312,1.18798 -4.288896,1.07156 -1.38377,-0.10583 -2.828395,-0.25135 -4.066645,-0.93133 -1.2065,-0.66411 -2.005542,-1.90765 -2.256896,-3.24644 -0.275167,-1.46315 0.02381,-2.90512 0.627062,-4.24392 z m 0.01588,19.40984 c 0.735542,-1.43669 1.9685,-2.3839 3.508375,-2.90248 1.531938,-0.51859 3.219979,-0.4154 4.709584,0.1905 1.381125,0.56356 2.606145,1.50283 3.394604,2.78341 0.862541,1.39436 0.653521,3.06917 0.328083,4.59846 -0.277812,1.30175 -0.801687,2.58234 -1.693333,3.58511 -1.023938,1.14829 -2.518834,1.69333 -4.037542,1.70391 -1.508125,0.008 -3.177646,-0.32808 -4.431771,-1.19327 -1.137708,-0.78316 -2.002896,-1.87854 -2.505604,-3.16441 -0.732896,-1.86796 -0.41275,-4.01638 0.727604,-5.60123 z m 11.940646,45.44483 c -0.277812,1.30175 -0.801687,2.57969 -1.693333,3.58246 -1.023938,1.15094 -2.518834,1.69333 -4.037542,1.70392 -1.508125,0.0106 -3.177646,-0.32809 -4.431771,-1.19328 -1.137708,-0.78316 -2.002896,-1.87854 -2.505604,-3.16177 -0.735542,-1.87325 -0.41275,-4.02166 0.732896,-5.60916 0.735542,-1.43404 1.965854,-2.37596 3.503083,-2.89719 1.531938,-0.51594 3.219979,-0.4154 4.709584,0.1905 1.381125,0.56356 2.606145,1.50283 3.394604,2.78342 0.862541,1.397 0.653521,3.06916 0.328083,4.6011 z m -5.042958,-14.91192 c -3.026834,0.78317 -6.418792,-0.83343 -7.667625,-3.71475 -0.851959,-1.96056 -0.568854,-4.4397 0.767291,-6.0907 0.346605,-0.71173 0.812271,-1.3679 1.357313,-1.94205 1.254125,-1.32027 2.995083,-2.18545 4.844521,-2.09285 1.666875,0.0847 3.283479,0.88635 4.410604,2.11402 1.172104,1.27529 1.780646,3.00302 1.764771,4.72546 -0.03175,3.23056 -2.344209,6.19389 -5.476875,7.00087 z"
       style="fill:#ffffff;stroke:#000000;stroke-width:2.11667;stroke-miterlimit:4;" />
</svg>
