<?xml version="1.0" encoding="UTF-8" standalone="no"?>
<svg
   xmlns="http://www.w3.org/2000/svg"
   viewBox="0 0 250.07129 166.46872"
   preserveAspectRatio="none"
>
   <!-- <path
      style="fill:none;stroke:#4bbcc0;stroke-width:2.11667;"
      d="M 0,166.73216 C 0,0 0,0 0,0 0,0 0,0 0,0 L 0,0 0,0 C 0,0 0.624301,0.2962243 133.68805,0 l 111.025,0 0.37575,0.7544684 C 245.10203,0.921798 246.85,0 246.94794,164.31815 c 0.61126,0 0.6,0.03624 0.95047,0.08496 0.038764,0.0403 0.545549,0.0739 .041024,0.67095 z m 14.050434,-6.98436 c 0.084578,-0.871 3.377543,-2.68825 4.053654,-5.6974 1.077677,-4.7964 -1.132186,-7.51642 -6.10666,-7.51642 -3.482065,0 -5.458065,1.16539 -6.140093,3.62124 -0.71443,2.57254 -0.721555,6.34618 -0.01447,7.66736 1.273881,2.38027 5.017074,3.25829 8.207576,1.92522 z m 0,-24.24161 c 0.83932,0.28831 2.79804,0.64687 2.79804,-6.88348 0,-4.08373 -1.420736,-5.72454 -5.277609,-6.09514 -2.724605,-0.2618 -2.8589,-0.20817 -4.929704,1.9687 -1.998445,2.1008 -2.128797,2.43603 -2.128797,5.47462 0,2.86237 0.181358,3.41815 1.567801,4.80459 1.302213,1.30221 2.008865,1.5678 4.171479,1.5678 1.491322,0 3.11426,-0.35762 3.79879,-0.83709 z m 0,-25.76412 c 0.051891,0.97369 0.571729,2.1263 0.533774,0.61802 0.03788,-3.484622 -1.324925,-5.690548 -3.703293,-6.347247 -4.454221,-1.229868 -7.732681,1.227519 -8.13665,6.098867 -0.29523,3.56008 0.66833,5.3802 3.241678,6.12335 2.605902,0.75255 4.067646,0.69061 6.064491,-0.25695 z m 0.479009,-19.321935 c 1.41899,-0.544515 2.437617,-3.172084 2.437617,-6.287876 0,-2.481842 -0.233428,-3.169742 -1.55607,-4.585631 -3.759269,-4.024313 -11.316393,-0.677124 -11.316393,5.01223 0,2.031629 1.383424,4.428455 3.09077,5.354849 1.497838,0.812718 5.776944,1.107794 7.344076,0.506428 z M 22.554084,65.7314 c 1.790978,-1.790978 2.064962,-4.249359 0.808678,-7.256074 -0.905034,-2.166048 -2.235396,-2.975882 -4.888653,-2.975882 -3.834083,0 -6.688336,2.909901 -6.688336,6.818738 0,3.492733 1.847958,4.939051 6.343401,4.964711 2.454177,0.014 3.078213,-0.204796 4.42491,-1.551493 z m -0.0577,-22.282388 c 1.326912,-1.412433 2.048044,-5.501701 1.414999,-8.02395 -0.993788,-3.959564 -9.215363,-3.842676 -11.285458,0.160446 -1.00893,1.951056 -1.0976,5.424334 -0.169711,6.647619 2.081871,2.744639 7.937759,3.453799 10.04017,1.215885 z M 21.362337,22.553983 c 0.53086,0.825879 2.769715,-7.905682 0.417275,-10.621263 -1.820731,-1.474848 -5.794299,-1.255794 -7.797589,0.429865 -4.742746,3.990759 -2.311802,10.869149 3.864354,10.934228 1.120875,0.01181 2.703057,-0.322463 3.51596,-0.74283 z"
   /> -->
   <path style="fill:none;stroke:#4bbcc0;stroke-width:1;" 
   d="M 15,15
    a 3,3 0 1,1 1,0
    a 0,1 0 1,1 -2,0 
    M 15,30
    a 3,3 0 1,1 2,0
    a 0,1 0 1,1 -2,0
    M 15,45
    a 3,3 0 1,1 2,0
    a 0,1 0 1,1 -2,0
    M 15,60
    a 3,3 0 1,1 2,0
    a 0,1 0 1,1 -2,0
    M 15,75
    a 3,3 0 1,1 2,0
    a 0,1 0 1,1 -2,0
    M 15,90
    a 3,3 0 1,1 2,0
    a 0,1 0 1,1 -2,0
    M 15,105
    a 3,3 0 1,1 2,0
    a 0,1 0 1,1 -2,0
    M 15,120
    a 3,3 0 1,1 2,0
    a 0,1 0 1,1 -2,0
    M 15,135
    a 3,3 0 1,1 2,0
    a 0,1 0 1,1 -2,0
    M 15,150
    a 3,3 0 1,1 2,0
    a 0,1 0 1,1 -2,0
   M 5 5 H 245 V 165 H 5 Z" fill="transparent" stroke="#4bbcc0"/>
</svg>

