<?xml version="1.0" encoding="UTF-8" standalone="no"?>
<svg preserveAspectRatio="none"
   xmlns="http://www.w3.org/2000/svg"
   viewBox="0 0 105.25211 42.223663">
   <g transform="translate(-44.132257,-26.894973)">
    <path
       style="fill:#ffffff;stroke:#000000;stroke-width:2.01571;stroke-linecap:butt;stroke-linejoin:miter;stroke-miterlimit:4;"
       d="m 57.239603,67.790972 c -6.690509,-0.541784 -8.868027,-1.12665 -10.295938,-2.765407 -1.085796,-1.246121 -1.209906,-1.766783 -1.564966,-6.56542 -0.373602,-5.049249 -0.28629,-25.518961 0.110557,-25.921889 0.276475,-0.28069 20.514561,-2.046776 32.547625,-2.840271 17.372489,-1.145595 31.356179,-1.651764 48.526949,-1.756513 18.89979,-0.115294 18.71157,-0.148081 20.16943,3.511769 1.16545,2.92569 1.78292,11.484303 1.61639,22.403945 -0.13676,8.961711 -0.21603,9.817783 -1.01699,10.997221 -0.47779,0.703451 -1.40936,1.437984 -2.07011,1.632278 -3.67964,1.082038 -77.296888,2.172866 -88.022935,1.304287 z"
        />
  </g>
</svg>
