<?xml version="1.0" encoding="UTF-8" standalone="no"?>
<svg
   xmlns:dc="http://purl.org/dc/elements/1.1/"
   xmlns:cc="http://creativecommons.org/ns#"
   xmlns:rdf="http://www.w3.org/1999/02/22-rdf-syntax-ns#"
   xmlns:svg="http://www.w3.org/2000/svg"
   xmlns="http://www.w3.org/2000/svg"
   id="svg1702"
   version="1.1"
   viewBox="0 0 189.71719 27.913322"
   height="27.913322mm"
   width="189.71719mm">
  <defs
     id="defs1696" />
  <metadata
     id="metadata1699">
    <rdf:RDF>
      <cc:Work
         rdf:about="">
        <dc:format>image/svg+xml</dc:format>
        <dc:type
           rdf:resource="http://purl.org/dc/dcmitype/StillImage" />
        <dc:title></dc:title>
      </cc:Work>
    </rdf:RDF>
  </metadata>
  <g
     transform="translate(-7.9800031,-37.051312)"
     id="layer1">
    <path
       style="fill:#fddbb4;stroke-width:0.264583"
       class="st3"
       d="m 196.48242,60.527808 c 0.0291,0.780521 -0.3175,1.386417 -1.03188,1.767417 -0.82814,0.439208 -1.94733,0.465666 -2.86014,0.584729 -1.00807,0.132291 -2.02142,0.238125 -3.03477,0.322791 -8.14917,0.682626 -16.40946,0.410105 -24.5798,0.449793 -16.70579,0.07673 -33.41158,0.08467 -50.11737,0.0291 -16.705795,-0.05821 -33.40894,-0.185209 -50.114732,-0.378355 -16.639646,-0.1905 -33.279293,-0.452437 -49.918938,-0.777875 -1.860021,-0.0344 -3.720042,-0.07408 -5.5800627,-0.111125 0.044979,-7.191375 0.089958,-14.388042 0.1375833,-21.579417 0.00529,-0.838729 0.010583,-1.674812 0.015875,-2.510895 24.1326454,0.140229 48.2679384,0.277812 72.4005844,0.418041 24.34431,0.142875 48.68863,0.283104 73.03294,0.423334 13.53873,0.07937 27.07481,0.150812 40.61354,0.230187 0.23813,6.016625 0.52917,12.030604 0.86519,18.041938 0.0582,1.029229 0.13494,2.061104 0.17198,3.090333 z"
       id="path109" />
    <path
       style="fill:#fa8807;stroke-width:0.264583"
       class="st6"
       d="M 197.65717,59.617641 C 197.4455,55.8976 197.2206,52.177558 196.98248,48.460162 l 0.005,0.05821 -0.51064,-9.81075 v 0 c -0.0238,-0.296333 -0.22755,-0.576791 -0.61119,-0.579437 C 171.52163,37.987954 147.17731,37.842433 122.833,37.70485 98.488686,37.56462 74.144374,37.424391 49.800061,37.286808 36.121103,37.207438 22.44479,37.128058 8.7658314,37.051329 c -0.3439582,-0.0026 -0.6323542,0.291041 -0.6350002,0.635 -0.04498,7.39775 -0.08731,14.798146 -0.132291,22.195896 -0.0053,1.050395 -0.01058,2.098145 -0.01852,3.148541 -0.0026,0.346604 0.291041,0.624418 0.629708,0.629709 17.0153538,0.34925 34.0307088,0.629709 51.0487088,0.83873 16.9545,0.206375 33.911646,0.343958 50.866143,0.415395 17.02065,0.06879 34.03865,0.06615 51.0593,-0.0053 8.35025,-0.0344 16.74547,0.142875 25.08779,-0.275167 2.00818,-0.100542 4.01108,-0.264583 6.00075,-0.526521 1.49754,-0.198437 3.23056,-0.264583 4.318,-1.457855 0.8255,-0.907521 0.73025,-1.928812 0.66675,-3.032125 z m -8.77888,-5.855229 c -0.10319,1.629833 -0.24341,3.259667 -0.51858,4.870979 -0.13758,0.806979 -0.30692,1.608667 -0.51858,2.399771 -0.20903,0.775229 -0.53975,1.550458 -0.67734,2.341563 -7.37129,0.45773 -14.81666,0.243417 -22.18796,0.277813 -16.70579,0.07673 -33.41158,0.08467 -50.11737,0.0291 -16.705795,-0.0582 -33.40894,-0.185205 -50.114732,-0.378351 -15.409333,-0.177271 -30.816022,-0.415396 -46.225355,-0.709083 -0.153458,-0.735542 -0.447146,-1.4605 -0.637646,-2.185459 -0.211667,-0.81227 -0.381,-1.635125 -0.518583,-2.460625 -0.275167,-1.651 -0.415396,-3.323166 -0.518584,-4.992687 -0.195791,-3.182938 -0.20902,-6.418792 0.370417,-9.567333 0.3175,-1.722438 0.785813,-3.436938 1.566333,-5.008563 21.005272,0.121708 42.013189,0.240771 63.021105,0.365125 24.344315,0.142875 48.688625,0.283104 73.032935,0.423333 10.6733,0.0635 21.34659,0.121709 32.01988,0.182563 0.008,0.02117 0.0159,0.04233 0.0265,0.0635 0.82021,1.568979 1.30439,3.288771 1.63248,5.019146 0.57414,3.066521 0.56091,6.223 0.36512,9.329208 z"
       id="path111" />
  </g>
</svg>
