<?xml version="1.0" encoding="UTF-8" standalone="no"?>
<svg
   xmlns="http://www.w3.org/2000/svg"
   viewBox="0 0 17.370487 17.587337" >
  <g transform="translate(-164.11076,-43.066402)" >
    <g transform="matrix(0.18975132,0,0,0.18975132,-13.726469,-6.7354665)" >
      <path
         d="m 1016.9,284.64 c -0.6,-0.99 -1.32,-1.89 -2.15,-2.7 -0.49,-0.47 -1.02,-0.91 -1.59,-1.32 -1.38,-0.99 -3.01,-1.5 -4.42,-1.86 -3.51,-0.93 -7.14,-1.11 -9.92,-1.17 -3.64,-0.08 -7.52,0.13 -11.87,0.64 -4.16,0.48 -8.33,1.2 -12.38,2.14 -4.07,0.94 -7.72,2.04 -11.16,3.37 -3.67,1.42 -6.3,2.77 -8.53,4.39 -4.38,3.2 -7.18,8.67 -8.31,16.28 -0.49,3.24 -0.6,6.56 -0.34,9.88 0.22,2.78 0.66,5.19 1.34,7.36 -0.18,0.37 -0.26,0.76 -0.23,1.11 0.27,2.69 0.72,5.37 1.16,7.86 0.22,1.27 0.45,2.54 0.7,3.8 0.23,1.21 0.5,2.5 0.89,3.77 0.27,0.89 0.96,1.55 1.84,1.77 0.19,0.05 0.38,0.07 0.58,0.07 0.92,0 1.83,-0.51 2.25,-1.33 0.4,-0.77 0.87,-1.53 1.32,-2.27 l 1.03,-1.7 c 0.47,-0.77 0.93,-1.55 1.41,-2.33 1.04,-1.72 2.43,-3.96 3.96,-6.06 1.62,-2.14 3.21,-3.85 4.87,-5.21 v 0 l 0.05,-0.04 v 0 c 0.59,-0.46 1.13,-0.84 1.66,-1.17 0.63,-0.41 1.33,-0.74 1.85,-0.97 1.39,-0.56 2.95,-0.96 4.75,-1.24 3.84,-0.51 7.91,-0.43 11.18,-0.35 l 1.9,0.05 c 3.36,0.09 6.83,0.19 10.25,0.01 2.04,-0.1 4,-0.33 5.84,-0.67 1.79,-0.34 3.55,-0.89 5.24,-1.65 1.53,-0.69 3.03,-1.71 4.34,-2.96 1.21,-1.14 2.26,-2.63 3.12,-4.41 1.6,-3.31 2.41,-7.36 2.34,-11.72 -0.07,-4.33 -1.09,-8.26 -2.97,-11.37 z m -2.05,19.93 v 0 0 l -0.03,0.08 v 0 c -0.51,1.22 -1.08,2.29 -1.75,3.23 -0.56,0.73 -1.2,1.4 -1.91,1.99 -0.82,0.61 -1.73,1.14 -2.78,1.61 -1.62,0.67 -3.42,1.15 -5.49,1.47 -3.79,0.53 -7.71,0.48 -11.42,0.39 -0.89,-0.02 -1.78,-0.05 -2.67,-0.08 -3.06,-0.09 -6.22,-0.19 -9.34,-0.05 -1.94,0.08 -3.84,0.29 -5.65,0.61 -2.18,0.4 -4.31,1.15 -6.33,2.24 -4.73,2.53 -8.09,6.85 -11.02,11.13 -0.76,1.11 -1.48,2.24 -2.21,3.37 l -0.18,0.28 -0.22,-1.24 c -0.5,-2.87 -0.99,-5.26 -1.8,-7.6 -0.18,-0.52 -0.5,-0.96 -0.92,-1.27 -0.41,-1.29 -0.72,-2.68 -0.97,-4.23 -0.47,-3.25 -0.53,-6.63 -0.19,-10.02 0.34,-3.04 0.99,-5.85 1.93,-8.34 0.67,-1.67 1.42,-3.09 2.29,-4.34 0.77,-1.03 1.57,-1.87 2.43,-2.56 1.65,-1.25 3.66,-2.37 6.3,-3.53 v 0 c 2.93,-1.25 6.19,-2.35 9.97,-3.35 3.6,-0.96 7.48,-1.75 11.5,-2.34 3.6,-0.52 6.93,-0.83 10.17,-0.96 3.34,-0.14 6.35,-0.06 9.2,0.25 2.47,0.3 4.31,0.7 5.94,1.29 0.63,0.26 1.21,0.58 1.76,0.96 0.61,0.47 1.17,1.01 1.69,1.64 0.63,0.82 1.18,1.77 1.65,2.81 0.6,1.45 1.03,3.01 1.3,4.75 0.27,2.01 0.3,4.1 0.1,6.19 -0.25,2 -0.7,3.89 -1.35,5.62 z"
      />
      <path
         d="m 963.61,295.83 c -1.12,0.02 -2.16,0.47 -2.92,1.26 -0.76,0.79 -1.17,1.84 -1.15,2.97 0.02,1.12 0.47,2.16 1.26,2.92 0.77,0.75 1.8,1.16 2.89,1.16 0.03,0 0.05,0 0.08,0 1.12,-0.02 2.16,-0.47 2.92,-1.26 0.76,-0.79 1.17,-1.84 1.15,-2.97 -0.02,-1.13 -0.47,-2.16 -1.26,-2.92 -0.8,-0.77 -1.85,-1.18 -2.97,-1.16 z"
      />
      <path
         d="m 977.01,296.79 c -1.54,1.6 -1.5,4.25 0.1,5.79 0.78,0.75 1.81,1.13 2.84,1.13 1.08,0 2.16,-0.41 2.95,-1.23 1.54,-1.6 1.5,-4.25 -0.1,-5.79 -1.59,-1.54 -4.24,-1.49 -5.79,0.1 z"
      />
      <path
         d="m 993.52,294.13 c -1.05,0.02 -2.02,0.44 -2.73,1.17 -1.47,1.52 -1.42,4.04 0.1,5.51 0.74,0.72 1.72,1.07 2.7,1.07 1.03,0 2.05,-0.39 2.8,-1.17 1.47,-1.52 1.42,-4.04 -0.1,-5.51 -0.73,-0.7 -1.71,-1.06 -2.77,-1.07 z"
      />
    </g>
  </g>
</svg>
