<?xml version="1.0" encoding="UTF-8" standalone="no"?>
<svg
   xmlns:dc="http://purl.org/dc/elements/1.1/"
   xmlns:cc="http://creativecommons.org/ns#"
   xmlns:rdf="http://www.w3.org/1999/02/22-rdf-syntax-ns#"
   xmlns:svg="http://www.w3.org/2000/svg"
   xmlns="http://www.w3.org/2000/svg"
   id="svg1702"
   version="1.1"
   viewBox="0 0 17.370487 17.587337"
   height="17.587337mm"
   width="17.370487mm">
  <defs
     id="defs1696" />
  <metadata
     id="metadata1699">
    <rdf:RDF>
      <cc:Work
         rdf:about="">
        <dc:format>image/svg+xml</dc:format>
        <dc:type
           rdf:resource="http://purl.org/dc/dcmitype/StillImage" />
        <dc:title></dc:title>
      </cc:Work>
    </rdf:RDF>
  </metadata>
  <g
     transform="translate(-164.11076,-43.066402)"
     id="layer1">
    <path
       style="fill:#804cbf;stroke-width:0.264583"
       class="st9"
       d="m 181.23224,49.012129 c -0.13494,-0.642938 -0.35983,-1.291167 -0.6641,-1.923521 -0.29104,-0.608542 -0.62177,-1.127125 -1.00806,-1.582209 -0.75671,-0.896937 -1.7198,-1.579562 -2.78871,-1.979083 -1.04511,-0.391583 -2.19869,-0.537104 -3.40784,-0.423333 v 0 c -1.17739,0.111125 -2.36008,0.478896 -3.51631,1.090083 -0.54504,0.28575 -1.0795,0.640292 -1.59014,1.050396 -0.29898,0.243417 -0.5715,0.513292 -0.84667,0.791104 -0.58208,0.587375 -1.15623,1.23825 -1.70127,1.934104 -0.29634,0.378355 -0.56356,0.756709 -0.80169,1.127125 -0.25665,0.396875 -0.44715,0.759355 -0.58208,1.105959 -0.15346,0.404812 -0.21961,0.727604 -0.21432,1.045104 0,0.174625 0.037,0.351896 0.10319,0.502708 0.0952,0.224896 0.25136,0.402167 0.48948,0.560917 0.37571,0.248708 0.83608,0.362479 1.26736,0.470958 0.13758,0.0344 0.27781,0.0635 0.41539,0.0926 0.13229,0.02911 0.26458,0.05556 0.39688,0.08731 v 0.0026 c -0.0661,0.296333 -0.10584,0.619125 -0.12436,1.04775 -0.0265,0.587375 0.0503,1.230312 0.23284,1.912937 0.32014,1.225021 1.04775,2.370667 2.04522,3.230563 0.49742,0.425979 1.0795,0.780521 1.6854,1.023937 0.32544,0.132292 0.65617,0.238125 0.98425,0.314854 0.39158,0.09261 0.78846,0.124355 1.16152,0.148167 0.12171,0.0079 0.24606,0.01058 0.37306,0.01058 0.56092,0 1.15094,-0.07144 1.78859,-0.214312 0.62177,-0.140229 1.24883,-0.383646 1.91558,-0.746125 0.5424,-0.293688 1.07421,-0.685271 1.62719,-1.198563 0.43921,-0.404812 0.85196,-0.899583 1.30175,-1.558395 0.35189,-0.518584 0.65087,-1.084792 0.91546,-1.738313 0.27252,-0.672042 0.4736,-1.346729 0.59795,-1.997604 0.1323,-0.679979 0.19844,-1.383771 0.19315,-2.0955 -0.0106,-0.640292 -0.0873,-1.325563 -0.24871,-2.092854 z m -13.10481,4.616979 c 0.0423,-0.425979 0.127,-0.833438 0.24871,-1.203854 0.14023,-0.365125 0.32279,-0.719667 0.53975,-1.045104 0.20902,-0.288396 0.46302,-0.560917 0.75406,-0.812271 0.381,-0.309563 0.81227,-0.584729 1.27794,-0.817563 0.51064,-0.238125 1.03716,-0.41275 1.56369,-0.521229 0.32808,-0.05821 0.65087,-0.08731 0.95514,-0.08731 0.0979,0 0.19579,0.0026 0.29104,0.0079 0.26723,0.02646 0.52917,0.08202 0.76994,0.15875 0.17463,0.06615 0.33602,0.148167 0.4736,0.232833 0.12436,0.08996 0.23813,0.193146 0.33338,0.296334 0.09,0.116416 0.17198,0.243416 0.24077,0.370416 0.0714,0.166688 0.127,0.343959 0.16933,0.534459 0.0503,0.309562 0.0635,0.632354 0.0423,0.981604 -0.0291,0.259292 -0.0794,0.500062 -0.15346,0.73025 -0.11906,0.304271 -0.26987,0.592667 -0.4445,0.85725 -0.16668,0.227542 -0.34131,0.423333 -0.53181,0.595312 -0.14287,0.113771 -0.29104,0.209021 -0.43391,0.28575 -0.11378,0.04763 -0.21961,0.08202 -0.30957,0.105834 -0.10054,0.01323 -0.20373,0.01588 -0.28839,0.01588 -0.0741,-0.01058 -0.14552,-0.02381 -0.19844,-0.03704 -0.0556,-0.02646 -0.11113,-0.05556 -0.15081,-0.07937 -0.10054,-0.07673 -0.19315,-0.164042 -0.27782,-0.256646 -0.1217,-0.153458 -0.23018,-0.322791 -0.32014,-0.494771 -0.0767,-0.169333 -0.13229,-0.330729 -0.16933,-0.478895 -0.0185,-0.127 -0.0265,-0.232834 -0.0265,-0.314855 0.008,-0.05027 0.0185,-0.09789 0.0265,-0.129645 0.0185,-0.03704 0.037,-0.07408 0.045,-0.0926 0.0291,-0.0344 0.0582,-0.06614 0.0767,-0.08467 0.0503,-0.03704 0.10318,-0.07144 0.14287,-0.09525 l 0.0476,-0.01852 c 0.2831,-0.108479 0.45773,-0.365125 0.44185,-0.653521 -0.008,-0.182562 -0.10318,-0.362479 -0.25135,-0.486833 -0.13229,-0.111125 -0.29369,-0.15875 -0.45244,-0.134938 -0.254,0.03704 -0.58208,0.105834 -0.87841,0.306917 -0.25665,0.174625 -0.46567,0.436562 -0.58473,0.738187 -0.21432,0.537105 -0.21696,1.150938 -0.0106,1.820334 0.0767,0.248708 0.20108,0.513291 0.37835,0.814916 0.15081,0.248709 0.34925,0.492125 0.59531,0.722313 0.48684,0.463021 1.14565,0.690562 1.86002,0.648229 0.3519,-0.02117 0.71702,-0.129646 1.1139,-0.328083 0.30162,-0.153459 0.59267,-0.370417 0.91281,-0.679979 0.27252,-0.259292 0.49213,-0.574146 0.67469,-0.851959 0.18785,-0.28575 0.34396,-0.613833 0.49742,-1.034521 0.19579,-0.550333 0.26723,-1.172104 0.21695,-1.902354 -0.0185,-0.259291 -0.0635,-0.53975 -0.14287,-0.859896 -0.0661,-0.261937 -0.17198,-0.500062 -0.30956,-0.777875 -0.39688,-0.796395 -1.19327,-1.397 -2.18017,-1.645708 -0.40481,-0.100542 -0.86783,-0.137583 -1.41817,-0.113771 -0.45773,0.02117 -0.96043,0.108479 -1.4896,0.251354 -0.98425,0.269875 -1.92088,0.73025 -2.70933,1.328209 -0.4154,0.314854 -0.77788,0.656166 -1.07157,1.013354 -0.33337,0.399521 -0.61648,0.865187 -0.83873,1.383771 -0.16139,-0.03969 -0.32543,-0.07408 -0.50006,-0.111125 l -0.0423,-0.0079 c -0.35719,-0.07675 -0.72761,-0.153475 -1.07157,-0.272538 -0.10848,-0.04498 -0.19579,-0.08731 -0.26194,-0.124354 -0.0106,-0.0079 -0.0212,-0.01588 -0.0291,-0.02381 -0.003,-0.01058 -0.005,-0.01588 -0.008,-0.01852 -0.005,-0.05556 -0.008,-0.108479 -0.005,-0.153458 0.0185,-0.142875 0.0529,-0.288396 0.11377,-0.455084 0.21961,-0.566208 0.55033,-1.082146 0.81492,-1.465791 0.41804,-0.595313 0.89693,-1.193271 1.46843,-1.828271 0.37042,-0.41275 0.77523,-0.849313 1.21973,-1.235604 0.53446,-0.444501 1.1483,-0.83873 1.82034,-1.172105 0.68262,-0.325437 1.38377,-0.558271 2.07962,-0.693208 0.61384,-0.111125 1.22767,-0.145521 1.82563,-0.108479 0.57414,0.05292 1.13241,0.171979 1.651,0.354541 0.45773,0.174625 0.88371,0.39423 1.26206,0.650875 0.35983,0.259292 0.69585,0.566209 0.99748,0.907521 0.31485,0.381 0.58473,0.796396 0.82285,1.272646 0.24871,0.534459 0.43921,1.135063 0.56621,1.785938 0.13758,0.783166 0.17992,1.595437 0.127,2.410354 -0.0741,0.841375 -0.254,1.677458 -0.53446,2.487083 -0.26458,0.6985 -0.61383,1.373188 -1.03716,1.997604 -0.381,0.531813 -0.80963,1.008063 -1.27,1.412875 -0.44186,0.367771 -0.9234,0.685271 -1.42875,0.939271 -0.48419,0.219604 -0.99219,0.386292 -1.50813,0.494771 -0.56092,0.09525 -1.13506,0.124354 -1.70392,0.08731 -0.42068,-0.04498 -0.83079,-0.132292 -1.21708,-0.264584 -0.35189,-0.137583 -0.6985,-0.314854 -1.02129,-0.526521 -0.34396,-0.248708 -0.64823,-0.523875 -0.92604,-0.836083 -0.29104,-0.351896 -0.5424,-0.732896 -0.74348,-1.124479 -0.18786,-0.402167 -0.33073,-0.830792 -0.42069,-1.267354 -0.0873,-0.410104 -0.11112,-0.844021 -0.0873,-1.272646 z"
       id="path231" />
  </g>
</svg>
