<?xml version="1.0" encoding="UTF-8" standalone="no"?>
<svg
   xmlns:dc="http://purl.org/dc/elements/1.1/"
   xmlns:cc="http://creativecommons.org/ns#"
   xmlns:rdf="http://www.w3.org/1999/02/22-rdf-syntax-ns#"
   xmlns:svg="http://www.w3.org/2000/svg"
   xmlns="http://www.w3.org/2000/svg"
   id="svg1702"
   version="1.1"
   viewBox="0 0 189.71719 27.913322"
   height="27.913322mm"
   width="189.71719mm">
  <defs
     id="defs1696" />
  <metadata
     id="metadata1699">
    <rdf:RDF>
      <cc:Work
         rdf:about="">
        <dc:format>image/svg+xml</dc:format>
        <dc:type
           rdf:resource="http://purl.org/dc/dcmitype/StillImage" />
        <dc:title></dc:title>
      </cc:Work>
    </rdf:RDF>
  </metadata>
  <g
     transform="translate(-7.9800031,-37.051312)"
     id="layer1">
    <path
       style="fill:#c9ebec;stroke-width:0.264583"
       class="st4"
       d="m 196.4348,59.159906 c -0.0397,1.420813 -0.12171,2.83898 -0.23813,4.2545 -13.63662,0.08731 -27.2706,0.171979 -40.90987,0.259292 -13.76627,0.08467 -27.53254,0.17198 -41.30146,0.25665 -13.82977,0.0873 -27.659542,0.17462 -41.489313,0.26193 -13.716,0.0847 -27.434646,0.27782 -41.150645,0.1323 -3.413125,-0.0344 -6.82625,-0.0952 -10.239375,-0.19844 -1.73302,-0.0529 -3.468687,-0.11377 -5.201708,-0.18786 -0.804333,-0.0344 -1.608667,-0.0714 -2.413,-0.111122 -0.632354,-0.03175 -2.034646,0.08996 -2.463271,-0.523875 -0.174625,-0.248708 -0.156104,-0.73025 -0.195791,-1.021291 -0.07144,-0.492125 -0.137584,-0.98425 -0.20373,-1.476375 -0.111125,-0.854604 -0.214312,-1.709209 -0.309562,-2.563813 -0.182563,-1.645708 -0.3386668,-3.296708 -0.4683118,-4.947708 -0.261938,-3.354917 -0.423334,-6.720417 -0.460375,-10.085917 -0.01852,-1.621896 -0.0291,-3.241146 -0.0053,-4.863041 13.4593538,0.07937 26.9213528,0.164041 40.3807068,0.243416 13.657791,0.08202 27.315583,0.164042 40.973375,0.246063 13.72129,0.08202 27.43994,0.164041 41.16123,0.246062 13.57841,0.07937 27.15683,0.134938 40.7326,0.486834 6.82625,0.179916 13.66044,0.383645 20.47611,0.809625 0.34131,0.02117 0.75935,0.0026 1.08214,0.121708 0.57415,0.214312 0.58208,0.579437 0.69056,1.108604 0.17198,0.838729 0.33338,1.680104 0.4789,2.524125 0.29104,1.680104 0.52387,3.370792 0.70115,5.069417 0.34131,3.307291 0.46566,6.63575 0.37306,9.958916 z"
       id="path57" />
    <path
       style="fill:#4bbcc0;stroke-width:0.264583"
       class="st7"
       d="m 196.6253,43.970177 c -0.13494,-0.783166 -0.28046,-1.563687 -0.43656,-2.344208 -0.12171,-0.611188 -0.17992,-1.349375 -0.63765,-1.825625 -0.90223,-0.933979 -2.7596,-0.722313 -3.92642,-0.785813 -3.41048,-0.179916 -6.82096,-0.328083 -10.23408,-0.455083 -13.86681,-0.515937 -27.74685,-0.640292 -41.6216,-0.727604 -14.02557,-0.08731 -28.05113,-0.169333 -42.076692,-0.254 -13.97,-0.08202 -27.942646,-0.166688 -41.912646,-0.248708 -13.972646,-0.08202 -27.942645,-0.166688 -41.91529,-0.248709 -1.754188,-0.01058 -3.508375,-0.02117 -5.2625628,-0.0291 -0.418041,-0.0026 -0.624416,0.322792 -0.621771,0.648229 v 0 0.01058 c 0,0.0026 0,0.0026 0,0.0053 l 0.29898,7.720542 c 0.02646,2.304521 0.116416,4.606396 0.267229,6.905625 l 0.01588,0.41275 0.01058,0.0026 c 0.137583,2.013479 0.3175,4.024312 0.547687,6.029854 0.171979,1.502833 0.195792,3.235854 0.629708,4.691062 0.3492508,1.161519 1.4948968,1.426109 2.5743968,1.534589 3.391958,0.3466 6.860645,0.33072 10.268479,0.42068 13.999103,0.37042 28.014082,0.14817 42.015832,0.0608 14.141979,-0.0873 28.286604,-0.17462 42.42858,-0.26193 14.08113,-0.0847 28.15961,-0.17198 42.24073,-0.2593 14.08113,-0.0847 28.1596,-0.17198 42.24073,-0.25929 1.75154,-0.0106 3.50308,-0.0212 5.25727,-0.0318 0.36513,-0.003 0.6059,-0.29104 0.635,-0.63764 0.60854,-6.693963 0.34396,-13.440838 -0.78581,-20.073942 z m -82.63996,19.960171 c -13.82977,0.0873 -27.659542,0.17462 -41.489313,0.26193 -13.716,0.0847 -27.434646,0.27782 -41.150645,0.1323 -3.413125,-0.0344 -6.82625,-0.0952 -10.239375,-0.19844 -0.809625,-0.0238 -1.61925,-0.0529 -2.428875,-0.0794 -0.185208,-0.878419 -0.613833,-2.206627 -0.801687,-2.92894 -0.211667,-0.812271 -0.381,-1.635125 -0.518583,-2.460625 -0.275167,-1.651 -0.415396,-3.323167 -0.518584,-4.992687 -0.195791,-3.182938 -0.209021,-6.418792 0.370417,-9.567334 0.312208,-1.695979 1.063625,-4.079875 1.846792,-5.691187 10.236729,0.06085 20.476102,0.124354 30.712832,0.185208 13.657791,0.08202 27.315583,0.164042 40.973375,0.246063 13.721296,0.08202 27.439936,0.164041 41.161226,0.246062 13.57842,0.07937 27.15684,0.134938 40.73261,0.486833 4.73339,0.124355 9.47208,0.261938 14.20548,0.47625 0.0106,0.02646 0.0185,0.05027 0.0317,0.07673 0.8202,1.568979 1.30439,3.28877 1.63248,5.019145 0.57943,3.069167 0.56356,6.225646 0.37041,9.331855 -0.10319,1.629833 -0.24341,3.259666 -0.51858,4.870979 -0.13758,0.806979 -0.30692,1.608666 -0.51858,2.399771 -0.15346,0.574145 -0.37571,1.148291 -0.53711,1.730375 -10.668,0.06879 -21.336,0.134937 -32.00929,0.203729 -13.77156,0.07937 -27.53783,0.166683 -41.30675,0.251353 z"
       id="path59" />
  </g>
</svg>
