<?xml version="1.0" encoding="UTF-8" standalone="no"?>
<svg
   xmlns:dc="http://purl.org/dc/elements/1.1/"
   xmlns:cc="http://creativecommons.org/ns#"
   xmlns:rdf="http://www.w3.org/1999/02/22-rdf-syntax-ns#"
   xmlns:svg="http://www.w3.org/2000/svg"
   xmlns="http://www.w3.org/2000/svg"
   id="svg1702"
   version="1.1"
   viewBox="0 0 17.370487 17.587337"
   height="17.587337mm"
   width="17.370487mm">
  <defs
     id="defs1696" />
  <metadata
     id="metadata1699">
    <rdf:RDF>
      <cc:Work
         rdf:about="">
        <dc:format>image/svg+xml</dc:format>
        <dc:type
           rdf:resource="http://purl.org/dc/dcmitype/StillImage" />
        <dc:title></dc:title>
      </cc:Work>
    </rdf:RDF>
  </metadata>
  <g
     transform="translate(-164.11076,-43.066402)"
     id="layer1">
    <path
       style="fill:#fa8807;stroke-width:0.264583"
       class="st6"
       d="m 176.39187,44.523596 c -0.18521,0 -0.381,0.05556 -0.55562,0.0979 -0.127,0.03175 -0.24871,0.07673 -0.37042,0.129646 -0.34925,0.156104 -0.6641,0.36777 -0.9525,0.613833 -0.64294,0.552979 -1.13242,1.217083 -1.5584,1.944687 -0.22225,0.381 -0.39952,0.783167 -0.55033,1.195917 -0.127,-0.127 -0.25664,-0.248708 -0.39158,-0.367771 -0.29898,-0.264583 -0.63236,-0.489479 -0.97367,-0.6985 -0.34131,-0.206375 -0.71967,-0.343958 -1.10596,-0.447146 -0.32543,-0.08996 -0.68527,-0.108479 -1.02129,-0.07673 -0.40746,0.04233 -0.78581,0.198438 -1.12712,0.418042 -0.16669,0.103187 -0.30957,0.248708 -0.44715,0.386292 -0.12965,0.127 -0.23548,0.277812 -0.33867,0.428625 -0.29104,0.441854 -0.48154,0.910166 -0.635,1.410229 -0.0979,0.314854 -0.12435,0.650875 -0.12964,0.978958 -0.0106,0.357188 0.0265,0.709083 0.0873,1.060979 0.13758,0.79375 0.41275,1.561042 0.75142,2.288646 0.70908,1.516063 1.72773,2.934229 3.01625,4.011083 0.44979,0.375709 0.9525,0.701146 1.49225,0.939271 0.50006,0.216959 1.03187,0.328084 1.57691,0.320146 0.0397,0 0.0767,-0.0079 0.11113,-0.01587 0.10054,0.04233 0.21431,0.06085 0.32544,0.05292 0.18256,-0.01587 0.32279,-0.105834 0.44714,-0.235479 0.64559,-0.669396 1.23296,-1.394355 1.80446,-2.132542 0.65088,-0.844021 1.25148,-1.725083 1.79388,-2.640542 0.54504,-0.915458 1.00277,-1.870604 1.32291,-2.886604 0.29898,-0.957792 0.4445,-1.947333 0.381,-2.950104 -0.0317,-0.505354 -0.15346,-1.005417 -0.29898,-1.484313 -0.13758,-0.457729 -0.35189,-0.899583 -0.62177,-1.291166 -0.11906,-0.171979 -0.26723,-0.322792 -0.41804,-0.465667 -0.13758,-0.137583 -0.31221,-0.232833 -0.47625,-0.333375 -0.15875,-0.09525 -0.34396,-0.140229 -0.52123,-0.195792 -0.17462,-0.05292 -0.37042,-0.05556 -0.55298,-0.05556 -0.0212,0 -0.0423,0 -0.0635,0 z m 0.12171,1.915583 c 0.0265,0.0026 0.0503,0.0079 0.0767,0.01323 0.0238,0.01058 0.0476,0.02117 0.0714,0.03175 0.045,0.0344 0.09,0.07144 0.13229,0.111125 0.082,0.100542 0.1561,0.209021 0.22489,0.320146 0.15875,0.328084 0.27517,0.672042 0.36513,1.026584 0.082,0.407458 0.11642,0.814916 0.11112,1.230312 -0.0423,0.605896 -0.15875,1.195917 -0.32808,1.780646 0.0106,-0.03175 0.0185,-0.0635 0.0291,-0.0926 -0.0106,0.0344 -0.0212,0.06879 -0.0318,0.100541 -0.0132,0.04233 -0.0238,0.08467 -0.037,0.124355 0.0106,-0.03704 0.0212,-0.07144 0.0318,-0.10848 -0.42068,1.28323 -1.04775,2.4765 -1.76212,3.616855 -0.40746,0.637645 -0.83344,1.264708 -1.26471,1.883833 -0.36248,0.513292 -0.72231,1.023937 -1.06098,1.550458 -0.005,0 -0.0106,0 -0.0185,0 -0.0265,0 -0.0529,0 -0.082,0 -0.20902,-0.01588 -0.4154,-0.05556 -0.61913,-0.113771 -0.30691,-0.108479 -0.59795,-0.254 -0.87577,-0.423333 -0.48154,-0.320146 -0.91545,-0.701146 -1.31762,-1.119187 -0.61913,-0.677334 -1.143,-1.426105 -1.5875,-2.227792 -0.37836,-0.719667 -0.67998,-1.471083 -0.87048,-2.259542 -0.09,-0.425979 -0.14288,-0.85725 -0.13229,-1.291166 0.0185,-0.224896 0.0529,-0.4445 0.11112,-0.661459 0.0979,-0.277812 0.2249,-0.545041 0.37307,-0.799041 0.0926,-0.132292 0.19314,-0.256646 0.30691,-0.375709 0.0873,-0.07408 0.17727,-0.142875 0.27517,-0.201083 0.0873,-0.03969 0.17198,-0.07408 0.26194,-0.103188 0.0926,-0.01588 0.18785,-0.02381 0.2831,-0.02646 0.14817,0.01323 0.29369,0.04233 0.43921,0.08202 0.22225,0.08467 0.43392,0.1905 0.63764,0.309562 0.33603,0.227542 0.64294,0.486834 0.92605,0.777875 0.33602,0.373063 0.6297,0.777875 0.87577,1.214438 0.005,0.01323 0.0132,0.02381 0.0185,0.03704 0.0582,0.148166 0.14287,0.267229 0.26194,0.36777 0.18256,0.150813 0.41539,0.22225 0.64822,0.201084 0.15875,-0.01588 0.30428,-0.07144 0.43392,-0.164042 0.17198,-0.124354 0.33602,-0.343958 0.35719,-0.566208 0.037,-0.388938 0.11642,-0.772584 0.22489,-1.148292 0.17992,-0.529167 0.42069,-1.031875 0.70644,-1.508125 0.25136,-0.383646 0.53446,-0.743479 0.85725,-1.068917 0.17198,-0.148166 0.34925,-0.28575 0.5424,-0.402166 0.0926,-0.04498 0.18521,-0.08202 0.2831,-0.111125 0.0423,0 0.082,-0.0053 0.12171,-0.0079 z m 0.5424,0.53975 c 0.0159,0.02646 0.0291,0.05292 0.045,0.07937 -0.0185,-0.02646 -0.0318,-0.05292 -0.045,-0.07937 z m -7.58296,1.481667 c 0.0212,0.0079 0.045,0.01323 0.0661,0.02117 -0.0212,-0.0079 -0.0423,-0.01323 -0.0661,-0.02117 z m -1.45256,0.724958 c -0.008,0.01323 -0.0185,0.02646 -0.0291,0.04233 0.0106,-0.01588 0.0185,-0.02911 0.0291,-0.04233 z m 5.97693,0.378354 c -0.0132,0.04498 -0.0291,0.08731 -0.0423,0.132292 0.0132,-0.04498 0.0265,-0.08731 0.0423,-0.132292 z m -6.43466,1.095375 c -0.003,0.02911 -0.003,0.06085 -0.005,0.0926 0.003,-0.0344 0.003,-0.0635 0.005,-0.0926 z m 2.51354,5.630334 c 0.0265,0.02646 0.0529,0.05556 0.0794,0.08467 -0.0265,-0.0291 -0.0529,-0.05821 -0.0794,-0.08467 z m 1.33614,1.164166 c 0.0212,0.01323 0.0397,0.02381 0.0609,0.03704 -0.0212,-0.01058 -0.0423,-0.02381 -0.0609,-0.03704 z m 0.0741,0.04762 c 0.0159,0.01058 0.0317,0.02117 0.0503,0.03175 -0.0159,-0.01058 -0.0344,-0.02117 -0.0503,-0.03175 z m 1.52929,0.534459 c 0.0159,0 0.0344,0 0.0503,0.0026 -0.0159,0 -0.0344,0 -0.0503,-0.0026 z m 4.14337,-7.056438 c 0.003,-0.0053 0.003,-0.01058 0.005,-0.01588 0,-0.0026 0.003,-0.0053 0.003,-0.0079 -0.003,0.0053 -0.005,0.01587 -0.008,0.02381 z"
       id="path163" />
  </g>
</svg>
