<?xml version="1.0" encoding="UTF-8" standalone="no"?>
<svg
   xmlns="http://www.w3.org/2000/svg"
   viewBox="0 0 189.71719 27.913322">  
  <g transform="translate(-7.9800031,-37.051312)" >
    <g>
      <path style="fill:#feeeb2;stroke-width:0.264583"
         d="m 196.48241,60.530456 c 0.0291,0.78052 -0.3175,1.38641 -1.03187,1.76741 -0.82815,0.43921 -1.94733,0.46567 -2.86015,0.58473 -1.00806,0.13229 -2.02141,0.23813 -3.03477,0.32279 -8.14916,0.68263 -16.40946,0.41011 -24.57979,0.4498 -16.70579,0.0767 -33.41158,0.0847 -50.11737,0.0291 -16.705793,-0.0582 -33.408938,-0.18521 -50.11473,-0.37835 -16.639646,-0.1905 -33.279293,-0.45244 -49.918938,-0.77788 -1.860021,-0.0344 -3.720042,-0.0741 -5.5800626,-0.11112 0.044979,-7.19138 0.089958,-14.388045 0.1375833,-21.57942 0.00529,-0.838729 0.010583,-1.674812 0.015875,-2.510896 24.1326453,0.140229 48.2679383,0.277813 72.4005843,0.418042 24.344308,0.142875 48.688618,0.283104 73.032938,0.423333 13.53873,0.07937 27.07481,0.150813 40.61354,0.230188 0.23812,6.016625 0.52916,12.030604 0.86519,18.041933 0.0582,1.02923 0.13493,2.06111 0.17197,3.09034 z"
      />
      <path style="fill:#fdc700;stroke-width:0.264583"
         d="m 197.65716,59.620286 c -0.21166,-3.72004 -0.43656,-7.440082 -0.67468,-11.160124 l 0.005,0.05821 -0.51065,-9.81075 v 0 c -0.0235,-0.296335 -0.22725,-0.576793 -0.61089,-0.579439 C 171.52162,37.987954 147.17731,37.842433 122.833,37.704849 98.488688,37.56462 74.144376,37.424391 49.800063,37.286808 36.121105,37.207433 22.444792,37.128058 8.7658335,37.051329 c -0.3439583,-0.0026 -0.6323541,0.291041 -0.635,0.635 -0.044979,7.39775 -0.087312,14.798146 -0.1322916,22.195897 -0.00529,1.05039 -0.010583,2.09814 -0.018521,3.14854 -0.00265,0.3466 0.2910417,0.62442 0.6297083,0.62971 17.0153538,0.34925 34.0307088,0.62971 51.0487088,0.83873 16.9545,0.20637 33.911646,0.34396 50.866142,0.41539 17.02065,0.0688 34.03865,0.0662 51.05929,-0.005 8.35025,-0.0344 16.74548,0.14288 25.08779,-0.27516 2.00819,-0.10055 4.01109,-0.26459 6.00075,-0.52652 1.49755,-0.19844 3.23057,-0.26459 4.318,-1.45786 0.8255,-0.90487 0.73025,-1.92617 0.66675,-3.02948 z m -32.68133,4.0349 c -16.70579,0.0767 -33.41158,0.0847 -50.11737,0.0291 -16.705793,-0.0582 -33.408938,-0.18521 -50.11473,-0.37835 -15.409333,-0.17727 -30.816022,-0.4154 -46.225355,-0.70909 -0.153458,-0.73554 -0.447146,-1.4605 -0.637645,-2.18546 -0.211667,-0.81227 -0.381,-1.63512 -0.518584,-2.46062 -0.275166,-1.651 -0.415396,-3.323166 -0.518583,-4.992687 -0.195792,-3.182938 -0.209021,-6.418792 0.370417,-9.567334 0.3175,-1.722437 0.785812,-3.436937 1.566332,-5.008562 21.005272,0.121708 42.013189,0.240771 63.021105,0.365125 24.344313,0.142875 48.688623,0.283104 73.032933,0.423333 10.67329,0.0635 21.34659,0.121708 32.01988,0.182563 0.008,0.02117 0.0159,0.04233 0.0265,0.0635 0.8202,1.568979 1.30439,3.28877 1.63247,5.019145 0.57944,3.069167 0.56357,6.225646 0.37042,9.331855 -0.10319,1.629832 -0.24342,3.259662 -0.51858,4.870982 -0.13759,0.80698 -0.30692,1.60866 -0.51859,2.39977 -0.20902,0.77523 -0.53975,1.55046 -0.67733,2.34156 -7.37658,0.45508 -14.82196,0.23813 -22.19325,0.27517 z"
      />
    </g>
  </g>
</svg>
