<?xml version="1.0" encoding="UTF-8" standalone="no"?>
<svg
   xmlns:dc="http://purl.org/dc/elements/1.1/"
   xmlns:cc="http://creativecommons.org/ns#"
   xmlns:rdf="http://www.w3.org/1999/02/22-rdf-syntax-ns#"
   xmlns:svg="http://www.w3.org/2000/svg"
   xmlns="http://www.w3.org/2000/svg"
   id="svg1702"
   version="1.1"
   viewBox="0 0 17.370487 17.587337"
   height="17.587337mm"
   width="17.370487mm">
  <defs
     id="defs1696" />
  <metadata
     id="metadata1699">
    <rdf:RDF>
      <cc:Work
         rdf:about="">
        <dc:format>image/svg+xml</dc:format>
        <dc:type
           rdf:resource="http://purl.org/dc/dcmitype/StillImage" />
        <dc:title></dc:title>
      </cc:Work>
    </rdf:RDF>
  </metadata>
  <g
     transform="translate(-164.11076,-43.066402)"
     id="layer1">
    <g
       transform="matrix(0.21283141,0,0,0.21283141,-36.397007,-42.187701)"
       id="g107">
      <path
         class="st7"
         d="m 1007.43,449.47 c 2.04,-3.77 3.2,-8.03 3.55,-12.3 0.36,-4.42 -0.11,-8.85 -1.51,-13.07 -1.38,-4.18 -3.83,-7.93 -7,-10.97 -3.35,-3.2 -7.71,-5.22 -12.21,-6.16 -1.97,-0.42 -3.99,-0.62 -6.01,-0.62 -3.03,0 -6.07,0.46 -8.97,1.32 -2.31,0.68 -4.52,1.74 -6.57,2.99 -2.02,1.22 -3.82,2.8 -5.46,4.49 -1.53,1.58 -2.81,3.35 -3.85,5.26 -1.21,1.24 -2.23,2.65 -3.01,4.24 -1.53,3.1 -1.9,6.67 -1.56,10.08 0.37,3.71 1.63,7.31 3.35,10.6 1.9,3.62 4.3,6.88 7.21,9.76 1.38,1.37 2.89,2.63 4.5,3.75 -1.89,2.3 -3.82,4.57 -5.62,6.96 -1.06,1.4 -2.09,2.85 -2.93,4.4 -0.32,0.58 -0.6,1.21 -0.78,1.84 -0.08,0.32 -0.13,0.65 -0.13,0.98 -0.01,0.53 0.17,0.91 0.37,1.38 0.28,0.65 0.92,1.14 1.48,1.5 0.65,0.42 1.44,0.67 2.18,0.87 0.86,0.23 1.76,0.34 2.64,0.44 0.96,0.11 1.93,0.16 2.89,0.19 3.5,0.11 6.99,-0.13 10.47,-0.43 4.39,-0.38 8.75,-0.79 13.11,-1.45 2.55,-0.39 5.08,-0.87 7.59,-1.48 2.69,-0.66 5.38,-1.41 7.92,-2.51 0.4,-0.23 0.72,-0.55 0.96,-0.96 0.33,-0.57 0.52,-1.43 0.27,-2.06 -0.5,-1.27 -1.06,-2.51 -1.74,-3.7 -0.65,-1.17 -1.42,-2.28 -2.19,-3.37 -0.84,-1.18 -1.74,-2.3 -2.65,-3.41 -0.37,-0.46 -0.75,-0.91 -1.14,-1.35 -0.08,-0.09 -0.17,-0.19 -0.25,-0.28 2.02,-2.03 3.72,-4.4 5.09,-6.93 z m -46.94,-6.22 c -0.03,-0.05 -0.05,-0.1 -0.08,-0.15 0.04,-0.25 0.03,-0.51 -0.04,-0.76 -0.03,-0.11 -0.06,-0.22 -0.1,-0.34 -0.5,-2.44 -0.76,-4.9 -0.69,-7.39 0.11,-2.13 0.41,-4.21 0.98,-6.27 0.6,-1.96 1.42,-3.83 2.47,-5.58 1.16,-1.81 2.51,-3.49 4.06,-4.99 1.53,-1.36 3.21,-2.53 5.01,-3.5 1.83,-0.92 3.75,-1.61 5.75,-2.09 1.95,-0.39 3.91,-0.56 5.9,-0.52 2.23,0.12 4.44,0.5 6.59,1.11 1.73,0.55 3.38,1.29 4.94,2.21 1.53,0.98 2.94,2.13 4.2,3.44 1.29,1.45 2.39,3.04 3.31,4.74 0.96,1.94 1.69,3.98 2.19,6.09 0.47,2.29 0.68,4.62 0.63,6.95 -0.12,2.38 -0.52,4.73 -1.17,7.02 -0.7,2.19 -1.62,4.29 -2.8,6.27 -1.14,1.77 -2.47,3.39 -3.98,4.85 -1.41,1.26 -2.94,2.38 -4.59,3.3 -1.47,0.74 -3,1.32 -4.59,1.71 -1.57,0.32 -3.15,0.46 -4.74,0.42 -1.71,-0.11 -3.39,-0.42 -5.04,-0.9 -2.11,-0.67 -4.11,-1.61 -6.02,-2.74 -2.58,-1.61 -4.91,-3.52 -7.01,-5.71 -2.02,-2.17 -3.77,-4.56 -5.18,-7.17 z m 39.03,16.7 c 0.6,1.06 1.24,2.1 1.89,3.13 0.97,1.55 1.96,3.1 2.8,4.72 -2.4,0.92 -4.85,1.66 -7.36,2.26 -3.01,0.73 -6.07,1.24 -9.14,1.66 -3.58,0.47 -7.18,0.85 -10.78,1.15 -3.51,0.29 -7.13,0.52 -10.64,0.09 -0.64,-0.1 -1.28,-0.23 -1.9,-0.44 -0.03,-0.01 -0.05,-0.03 -0.08,-0.04 0.03,-0.1 0.07,-0.19 0.11,-0.29 0.45,-0.94 1.02,-1.83 1.59,-2.69 0.76,-1.14 1.59,-2.23 2.42,-3.32 1.45,-1.85 2.98,-3.65 4.47,-5.48 4.24,2.29 8.99,3.55 13.87,3.24 4.31,-0.28 8.37,-1.97 11.89,-4.41 0.15,-0.1 0.29,-0.22 0.43,-0.32 0.16,0.25 0.3,0.5 0.43,0.74 z"
         id="path95" />
      <path
         class="st7"
         d="m 980.3,439.74 c 0.92,1.66 1.85,3.32 2.81,4.96 0.62,1.06 1.27,2.1 1.93,3.14 0.67,1.02 1.36,2.05 2.17,2.97 0.17,0.23 0.39,0.41 0.65,0.53 0.37,0.17 0.81,0.19 1.19,0.05 0.4,-0.15 0.74,-0.45 0.91,-0.84 0.15,-0.34 0.23,-0.86 0.05,-1.2 -1.12,-2.19 -2.56,-4.21 -3.87,-6.29 -0.88,-1.4 -1.72,-2.82 -2.55,-4.25 0.94,-0.88 1.5,-2.22 1.39,-3.47 -0.09,-1.1 -0.65,-2.13 -1.49,-2.83 -0.08,-0.07 -0.17,-0.11 -0.26,-0.17 0.27,-1.47 0.57,-2.94 0.92,-4.4 0.59,-2.42 1.28,-4.8 1.9,-7.2 0.15,-0.58 -0.25,-1.22 -0.77,-1.46 -0.18,-0.08 -0.37,-0.12 -0.56,-0.12 -0.15,0 -0.31,0.03 -0.46,0.08 -0.3,0.12 -0.66,0.39 -0.76,0.71 -1.22,3.81 -2.22,7.7 -2.92,11.64 -0.02,0 -0.04,0 -0.06,0 -2.25,0 -3.92,2.37 -3.74,4.46 0.09,1.1 0.65,2.13 1.49,2.83 0.63,0.53 1.3,0.76 2.03,0.86 z"
         id="path97" />
      <path
         class="st7"
         d="m 982.76,417.12 c 1.02,0 1.79,-1.09 1.71,-2.05 -0.04,-0.5 -0.29,-0.97 -0.69,-1.29 -0.4,-0.34 -0.85,-0.42 -1.36,-0.42 -1.02,0 -1.79,1.09 -1.71,2.05 0.04,0.5 0.29,0.97 0.69,1.29 0.4,0.33 0.85,0.42 1.36,0.42 z"
         id="path99" />
      <path
         class="st7"
         d="m 1001.05,436.91 c 1.07,0 1.87,-1.13 1.79,-2.12 -0.05,-0.53 -0.31,-1.01 -0.71,-1.35 -0.42,-0.34 -0.88,-0.44 -1.41,-0.44 -1.07,0 -1.87,1.13 -1.79,2.12 0.05,0.53 0.31,1.01 0.71,1.35 0.42,0.35 0.88,0.44 1.41,0.44 z"
         id="path101" />
      <path
         class="st7"
         d="m 982.95,453.54 c -0.91,0 -1.58,0.95 -1.5,1.79 0.03,0.44 0.25,0.86 0.6,1.14 0.36,0.29 0.75,0.36 1.19,0.36 0.91,0 1.58,-0.95 1.5,-1.79 -0.03,-0.44 -0.25,-0.86 -0.6,-1.14 -0.36,-0.28 -0.74,-0.36 -1.19,-0.36 z"
         id="path103" />
      <path
         class="st7"
         d="m 962.83,434.05 c -1.16,0 -2.01,1.22 -1.92,2.29 0.05,0.56 0.33,1.1 0.76,1.45 0.46,0.38 0.96,0.47 1.53,0.47 1.16,0 2.01,-1.22 1.92,-2.29 -0.05,-0.56 -0.33,-1.1 -0.76,-1.45 -0.46,-0.38 -0.96,-0.47 -1.53,-0.47 z"
         id="path105" />
    </g>
  </g>
</svg>
