<svg version="1.1" id="_16-17" xmlns="http://www.w3.org/2000/svg" xmlns:xlink="http://www.w3.org/1999/xlink" x="0px" y="0px"
	 viewBox="0 0 3508 2480" style="enable-background:new 0 0 3508 2480;" xml:space="preserve">
<style type="text/css">
	.pg9-0{font-family:'Asap';font-weight:500;}
	.pg9-1{font-size:66.8262px;}
	.pg9-2{enable-background:new    ;}
</style>
<text transform="matrix(1 0 0 1 184.9854 292.3097)" class="pg9-0 pg9-1">Then with a huff and a puff I blow them away.</text>
<text transform="matrix(1 0 0 1 184.9854 372.5021)" class="pg9-0 pg9-1">And… poof… they’re gone, they cannot stay”.</text>
<text transform="matrix(1 0 0 1 184.9854 452.6935)" class="pg9-0 pg9-1"> </text>
<text transform="matrix(1 0 0 1 184.9854 532.8849)" class="pg9-2"><tspan x="0" y="0" class="pg9-0 pg9-1">“Let me try”, said Mohammed as he held on to the</tspan><tspan x="0" y="80.2" class="pg9-0 pg9-1">stone… and with three deep breaths </tspan></text>
<text transform="matrix(1 0 0 1 184.9854 693.2677)" class="pg9-0 pg9-1">he started.</text>
<text transform="matrix(1 0 0 1 1937.7354 292.005)" class="pg9-0 pg9-1">“I won’t know my friends,</text>
<text transform="matrix(1 0 0 1 1937.7354 372.1964)" class="pg9-0 pg9-1">they won’t know me,</text>
<text transform="matrix(1 0 0 1 1937.7354 452.3878)" class="pg9-0 pg9-1">I will be sad and tired,</text>
<text transform="matrix(1 0 0 1 1937.7354 532.5792)" class="pg9-0 pg9-1">I will be lonely</text>
<text transform="matrix(1 0 0 1 1937.7354 612.7706)" class="pg9-0 pg9-1">I may get lost,</text>
<text transform="matrix(1 0 0 1 1937.7354 692.962)" class="pg9-0 pg9-1">I will be scared</text>
<text transform="matrix(1 0 0 1 1937.7354 773.1534)" class="pg9-0 pg9-1">I won’t know anything,</text>
<text transform="matrix(1 0 0 1 1937.7354 853.3448)" class="pg9-0 pg9-1">I am un-prepared”,</text>
<text transform="matrix(1 0 0 1 1937.7354 933.5363)" class="pg9-0 pg9-1">he said.</text>
</svg>
