<?xml version="1.0" encoding="UTF-8" standalone="no"?>
<svg
   xmlns:dc="http://purl.org/dc/elements/1.1/"
   xmlns:cc="http://creativecommons.org/ns#"
   xmlns:rdf="http://www.w3.org/1999/02/22-rdf-syntax-ns#"
   xmlns:svg="http://www.w3.org/2000/svg"
   xmlns="http://www.w3.org/2000/svg"
   id="svg37"
   version="1.1"
   viewBox="0 0 19.18334 7.4608793"
   height="7.4608793mm"
   width="19.18334mm">
  <defs
     id="defs31" />
  <metadata
     id="metadata34">
    <rdf:RDF>
      <cc:Work
         rdf:about="">
        <dc:format>image/svg+xml</dc:format>
        <dc:type
           rdf:resource="http://purl.org/dc/dcmitype/StillImage" />
        <dc:title></dc:title>
      </cc:Work>
    </rdf:RDF>
  </metadata>
  <g
     transform="translate(-145.37859,-111.17438)"
     id="layer1">
    <path
       style="stroke-width:0.250304"
       d="m 163.79303,115.52973 c -0.071,-0.3175 -0.30783,-0.52917 -0.52094,-0.74084 -0.2368,-0.21166 -0.4736,-0.42333 -0.73408,-0.635 -0.23679,-0.1852 -0.49726,-0.37041 -0.75775,-0.55562 -0.21311,-0.13229 -0.52094,-0.34396 -0.75774,-0.18521 -0.0237,0 -0.0237,0.0265 -0.0474,0.0529 -0.0237,0.0265 -0.0474,0.0265 -0.071,0.0529 -0.0237,0.0265 -0.0237,0.0529 -0.0474,0.0794 -0.0237,0.0265 -0.0474,0.0529 -0.071,0.0794 -0.0236,0.10584 -0.0474,0.15875 -0.071,0.26459 -0.0237,0.0794 -0.0237,0.13229 -0.0474,0.21166 -0.0237,0.15875 -0.0474,0.34396 -0.071,0.50271 -0.0474,0.3175 -0.071,0.635 -0.1184,0.9525 0,0.0265 0,0.0265 0,0.0529 -0.0711,-0.0529 -0.16575,-0.0529 -0.26048,-0.0265 -0.9235,0.18521 -1.84701,0.42333 -2.77052,0.60854 -0.0947,0.0265 -0.21312,0.0529 -0.30783,0.0529 h -0.0237 c 0,-0.13229 -0.0237,-0.47625 -0.0237,-0.55563 -0.0236,-0.52916 -0.0236,-1.03187 -0.0474,-1.56104 0,-0.29104 -0.26047,-0.52916 -0.52095,-0.42333 -1.01822,0.39687 -2.03645,0.89958 -2.95996,1.50812 -0.44991,0.29105 -0.87615,0.60855 -1.30237,0.92605 -0.30783,0.23812 -0.63935,0.42333 -0.99455,0.52916 -0.1184,-0.68791 -0.16575,-1.37583 -0.26047,-2.06375 -0.0948,-0.82021 -0.21311,-1.64041 -0.30784,-2.43416 -0.0474,-0.29105 -0.37887,-0.3175 -0.54463,-0.15875 -0.80511,0.74083 -1.56286,1.56104 -2.24956,2.43416 -0.33152,0.42334 -0.66303,0.87313 -0.94719,1.32292 -0.33152,0.47625 -0.56831,0.97896 -0.82878,1.53458 -0.0711,0.15875 0.11839,0.3175 0.21311,0.18521 1.20766,-1.56104 2.41532,-3.12208 3.78874,-4.47146 0.071,0.58209 0.14207,1.16417 0.18944,1.74625 0.0947,0.82021 0.21312,1.64042 0.26047,2.46063 0,0.23812 0.16576,0.39687 0.37889,0.42333 1.04189,0.0529 1.94172,-0.89958 2.79419,-1.45521 0.78142,-0.52916 1.63389,-0.97896 2.48635,-1.34937 0.0237,0.42333 0.0237,0.84666 0.0474,1.27 0,0.29104 0,0.55562 0.16576,0.79375 0.14208,0.23812 0.40256,0.34396 0.66303,0.3175 0.54463,-0.0265 1.08927,-0.21167 1.61022,-0.3175 0.56831,-0.13229 1.13662,-0.23813 1.70493,-0.39688 v 0 c 0,0.0265 0,0.0794 0,0.10584 -0.0237,0.34395 -0.1184,0.8202 0.14208,1.05833 0.0474,0.0265 0.0947,0.0794 0.14208,0.0794 0.071,0.0265 0.16576,0.0529 0.23679,0.0265 0.30784,-0.0794 0.59199,-0.29104 0.87615,-0.44979 0.28415,-0.15875 0.5683,-0.29104 0.85247,-0.44979 0.52094,-0.3175 1.32606,-0.60854 1.11293,-1.40229 z"
       id="path65" />
  </g>
</svg>
