<?xml version="1.0" encoding="UTF-8" standalone="no"?>
<svg
   xmlns:dc="http://purl.org/dc/elements/1.1/"
   xmlns:cc="http://creativecommons.org/ns#"
   xmlns:rdf="http://www.w3.org/1999/02/22-rdf-syntax-ns#"
   xmlns:svg="http://www.w3.org/2000/svg"
   xmlns="http://www.w3.org/2000/svg"
   id="svg37"
   version="1.1"
   viewBox="0 0 19.18334 7.4608793"
   height="7.4608793mm"
   width="19.18334mm">
  <defs
     id="defs31" />
  <metadata
     id="metadata34">
    <rdf:RDF>
      <cc:Work
         rdf:about="">
        <dc:format>image/svg+xml</dc:format>
        <dc:type
           rdf:resource="http://purl.org/dc/dcmitype/StillImage" />
        <dc:title></dc:title>
      </cc:Work>
    </rdf:RDF>
  </metadata>
  <g
     transform="translate(-145.37859,-111.17438)"
     id="layer1">
    <path
       style="stroke-width:0.256979"
       d="m 164.35998,115.91242 c -0.12479,-0.29104 -0.44927,-0.42333 -0.69886,-0.55562 -0.29951,-0.18521 -0.57407,-0.34396 -0.87358,-0.52917 -0.59903,-0.34396 -1.19805,-0.71437 -1.79708,-1.03187 -0.27455,-0.15875 -0.5491,0.10583 -0.49919,0.39687 0.0998,0.58209 0.22464,1.19063 0.34944,1.77271 -2.04668,0.42333 -4.09336,0.84667 -6.16499,1.27 -1.04829,0.21167 -2.77049,0.47625 -3.36952,-0.60854 0.99838,-0.21167 1.99675,-0.68792 2.67066,-1.53458 0.59903,-0.74084 0.97342,-1.79917 0.62399,-2.75167 -0.17472,-0.44979 -0.52415,-0.82021 -0.99838,-0.92604 -0.47423,-0.10584 -0.97342,0.0794 -1.37277,0.39687 -0.82366,0.635 -1.39773,1.71979 -1.67228,2.75167 -0.1248,0.47625 -0.19968,0.97896 -0.1248,1.48167 -0.64894,0.10583 -1.29789,0.13229 -1.94684,0.10583 -0.97341,-0.0265 -1.94684,-0.29104 -2.77049,-0.79375 -0.1248,-0.0794 -0.24959,0.10583 -0.14976,0.21167 0.69886,0.74083 1.64732,1.08479 2.62074,1.24354 0.7987,0.10583 1.62237,0.10583 2.42106,-0.0265 0.0999,0.23812 0.2496,0.47625 0.42431,0.68792 0.62399,0.66145 1.54749,0.79375 2.39611,0.74083 0.52415,-0.0265 1.04829,-0.13229 1.57245,-0.23813 0.69886,-0.13229 1.37277,-0.29104 2.07163,-0.42333 l 3.91863,-0.82021 c 0.025,0.13229 0.0499,0.23813 0.0749,0.37042 0.0749,0.42333 0.14976,0.79375 0.27457,1.19062 0.0499,0.1323 0.12479,0.15875 0.24959,0.10584 0.29951,-0.10584 0.49919,-0.3175 0.77374,-0.50271 0.29951,-0.18521 0.57407,-0.39688 0.84862,-0.58208 0.27455,-0.18521 0.57406,-0.37042 0.82366,-0.58209 0.27456,-0.21166 0.47423,-0.50271 0.32447,-0.82021 z m -12.40484,-2.64583 c 0.32448,-0.47625 1.14814,-1.50812 1.77212,-0.9525 0.57408,0.50271 0.22464,1.53458 -0.12479,2.06375 -0.47423,0.74083 -1.27293,1.19063 -2.07164,1.42875 -0.12479,0.0529 -0.27455,0.0794 -0.39934,0.10583 -0.0749,-0.9525 0.32447,-1.905 0.82365,-2.64583 z"
       id="path155" />
  </g>
</svg>
