<?xml version="1.0" encoding="UTF-8" standalone="no"?>
<svg
   xmlns:dc="http://purl.org/dc/elements/1.1/"
   xmlns:cc="http://creativecommons.org/ns#"
   xmlns:rdf="http://www.w3.org/1999/02/22-rdf-syntax-ns#"
   xmlns:svg="http://www.w3.org/2000/svg"
   xmlns="http://www.w3.org/2000/svg"
   id="svg37"
   version="1.1"
   viewBox="0 0 19.18334 7.4608793"
   height="7.4608793mm"
   width="19.18334mm">
  <defs
     id="defs31" />
  <metadata
     id="metadata34">
    <rdf:RDF>
      <cc:Work
         rdf:about="">
        <dc:format>image/svg+xml</dc:format>
        <dc:type
           rdf:resource="http://purl.org/dc/dcmitype/StillImage" />
        <dc:title></dc:title>
      </cc:Work>
    </rdf:RDF>
  </metadata>
  <g
     transform="translate(-145.37859,-111.17438)"
     id="layer1">
    <path
       style="stroke-width:0.24766"
       d="m 164.04379,115.68003 c -0.32455,-0.10583 -0.62591,-0.3175 -0.92728,-0.50271 -0.32454,-0.21166 -0.64909,-0.42333 -0.95046,-0.635 -0.27818,-0.21166 -0.57955,-0.44979 -0.85773,-0.66146 -0.255,-0.1852 -0.62591,-0.39687 -0.90409,-0.13229 -0.0696,0.0529 -0.0927,0.10584 -0.0927,0.21167 0,0.0794 0,0.18521 0,0.26458 0,0.13229 0,0.26459 0,0.39688 0,0.34396 0.0463,0.68791 0.0696,1.03187 0,0.0529 0,0.0794 0.0232,0.13229 -0.0232,0 -0.0696,0 -0.0927,0 -0.78819,0.26459 -1.59956,0.635 -2.43411,0.37042 -0.34772,-0.10583 -0.62591,-0.34396 -0.81137,-0.68792 -0.20864,-0.37041 -0.30136,-0.79375 -0.44045,-1.19062 -0.255,-0.71438 -0.765,-1.42875 -1.50683,-1.40229 -0.76501,0.0265 -1.4141,0.66146 -1.85455,1.32291 -0.20864,0.3175 -0.3941,0.66146 -0.53319,1.03188 -0.0696,0.18521 -0.13909,0.37042 -0.20863,0.55562 -0.0463,0.15875 -0.11592,0.34396 -0.25501,0.4498 -0.32454,0.21166 -0.67227,-0.18521 -0.81136,-0.4498 -0.20864,-0.39687 -0.37091,-0.8202 -0.53319,-1.24354 -0.32455,-0.76729 -0.57955,-1.66687 -1.11273,-2.30187 -0.51,-0.60854 -1.22864,-0.68792 -1.85456,-0.23813 -0.71863,0.50271 -1.25182,1.37584 -1.64591,2.19604 -0.39409,0.84667 -0.74182,1.82563 -0.69546,2.80459 0,0.15875 0.18546,0.18521 0.23183,0.0265 0.255,-0.82021 0.46363,-1.64042 0.81136,-2.40771 0.34773,-0.74084 0.81137,-1.53459 1.4141,-2.01084 0.27818,-0.23812 0.64909,-0.39687 0.99682,-0.26458 0.30136,0.10583 0.48682,0.42333 0.6491,0.71438 0.18545,0.34395 0.32454,0.74083 0.48681,1.11125 0.18546,0.44979 0.34774,0.89958 0.53319,1.32291 0.27818,0.71438 0.74182,1.53459 1.53,1.40229 0.74183,-0.13229 0.88092,-1.16416 1.1591,-1.7727 0.32455,-0.66146 0.78818,-1.34938 1.46047,-1.56105 0.765,-0.23812 1.11273,0.71438 1.32136,1.34938 0.13909,0.44979 0.30137,0.89958 0.57955,1.24354 0.27818,0.34396 0.64909,0.55563 1.02001,0.66146 0.88091,0.23812 1.78501,-0.0794 2.59637,-0.47625 0.0232,0.10583 0.0232,0.21167 0.0463,0.29104 0.0464,0.34396 0.0464,0.76729 0.18545,1.08479 0.0232,0.0529 0.0696,0.10584 0.11591,0.13229 0,0 0,0 0,0.0265 0.11592,0.23813 0.37091,0.26459 0.55636,0.15875 0.46365,-0.23812 0.92729,-0.50271 1.39092,-0.76729 0.46364,-0.26458 0.92728,-0.50271 1.39091,-0.76729 0.37092,-0.18521 0.27819,-0.71438 -0.0463,-0.82021 z"
       id="path110" />
  </g>
</svg>
