<?xml version="1.0" encoding="UTF-8" standalone="no"?>
<svg
   xmlns:dc="http://purl.org/dc/elements/1.1/"
   xmlns:cc="http://creativecommons.org/ns#"
   xmlns:rdf="http://www.w3.org/1999/02/22-rdf-syntax-ns#"
   xmlns:svg="http://www.w3.org/2000/svg"
   xmlns="http://www.w3.org/2000/svg"
   id="svg37"
   version="1.1"
   viewBox="0 0 19.18334 7.4608793"
   height="7.4608793mm"
   width="19.18334mm">
  <defs
     id="defs31" />
  <metadata
     id="metadata34">
    <rdf:RDF>
      <cc:Work
         rdf:about="">
        <dc:format>image/svg+xml</dc:format>
        <dc:type
           rdf:resource="http://purl.org/dc/dcmitype/StillImage" />
        <dc:title></dc:title>
      </cc:Work>
    </rdf:RDF>
  </metadata>
  <g
     transform="translate(-145.37859,-111.17438)"
     id="layer1">
    <path
       style="stroke-width:0.264583"
       d="m 164.33326,116.62281 c -0.74083,-0.44979 -1.48166,-0.89959 -2.24895,-1.29646 -0.37042,-0.21167 -0.74084,-0.39688 -1.13771,-0.55563 -0.21167,-0.0794 -0.39688,-0.1852 -0.60854,-0.23812 -0.18521,-0.0794 -0.39688,-0.0794 -0.60855,-0.10583 -0.0265,0 -0.0265,0 -0.0529,0 -0.0265,0 -0.0265,0.0529 -0.0265,0.0794 0,0.0265 0,0.0529 -0.0265,0.0794 0,0.0529 -0.0265,0.13229 -0.0265,0.1852 -0.0265,0.15875 -0.0529,0.3175 -0.0529,0.4498 -0.0265,0.29104 -0.0265,0.60854 -0.0529,0.89958 -3.4925,0.0265 -6.985,0 -10.4775,-0.10583 -0.76727,-0.0265 -1.50811,-0.0794 -2.22248,-0.3175 -0.26458,-0.0794 -0.71438,-0.23813 -0.74083,-0.55563 -0.0265,-0.29104 0.23812,-0.58208 0.42333,-0.76729 0.52917,-0.50271 1.24354,-0.87313 1.87854,-1.21708 0.66146,-0.34396 1.34938,-0.635 2.06375,-0.87313 1.61396,-0.55562 3.30729,-0.76729 5.00063,-0.82021 0.0794,0 0.10583,-0.13229 0.0265,-0.15875 -1.58751,-0.26458 -3.22792,-0.10583 -4.76251,0.29104 -1.56104,0.39688 -3.12208,1.0848 -4.39208,2.06375 -0.58208,0.42334 -1.16417,1.19063 -0.79375,1.93146 0.34396,0.68792 1.37583,0.9525 2.06375,1.08479 0.87313,0.15875 1.77271,0.15875 2.64583,0.21167 0.9525,0.0529 1.905,0.0794 2.88396,0.10583 2.14313,0.0794 4.31271,0.0794 6.45584,0.0794 0,0.0529 0,0.10583 0,0.15875 0,0.15875 0,0.3175 0.0265,0.44979 0,0.13229 0,0.29104 0.0265,0.42333 -0.0265,0.23813 0.15875,0.55563 0.42333,0.52917 0.39687,-0.0265 0.82021,-0.15875 1.21708,-0.23812 0.39688,-0.0794 0.79375,-0.18521 1.21709,-0.26459 0.71437,-0.15875 1.40229,-0.3175 1.98437,-0.79375 0.21167,-0.23812 0.13229,-0.58208 -0.10583,-0.71437 z"
       id="path12" />
  </g>
</svg>
