<?xml version="1.0" encoding="utf-8"?>
<svg xmlns="http://www.w3.org/2000/svg" 
	 xmlns:xlink="http://www.w3.org/1999/xlink" 
	 viewBox="0 0 63 34"
	 >
	<path fill="#C9EBEC" stroke="black" stroke-width="5"  
	d="M42.3,37.8c4.3-1.9,7.7-5.6,9.6-9.9s2.3-9.2,1.5-13.8C53,12,52.4,9.9,51.5,8C49.9,4,47.3,0.5,43.9-2.2 C40.5-4.8,36.3-6.4,32-6.6c-4.7-0.2-9.4,1.4-13.2,4.1c-1.5,1-2.9,2.3-4,3.7c-1.2,1.5-2,3.3-2.7,5.1c-1.6,4.2-2.6,8.6-2.8,13.1 c-0.2,4.5,0.3,9.2,2.9,12.9c1.8,2.7,4.5,4.6,7.5,5.9c3,1.3,6.2,1.9,9.4,2.2c4.7,0.4,9.7,0.1,13.6-2.4"/>		
</svg>
