<?xml version="1.0" encoding="utf-8"?>
<svg xmlns="http://www.w3.org/2000/svg" 
	 xmlns:xlink="http://www.w3.org/1999/xlink" 
	 viewBox="0 0 63 34"
	 >
	<path fill="#FDDBB4" stroke="black" stroke-width="5" d="M45.8-4.3c3.3,2.6,6.5,5.6,8,9.5c1.3,3.3,1.3,7,0.4,10.4s-2.5,6.6-4.4,9.5c-2.2,3.5-4.9,6.8-8.5,8.8
		c-3.8,2.2-8.3,2.9-12.7,2.8c-1.9,0-3.8-0.2-5.6-0.7c-3.9-1.2-7.1-4.2-9.2-7.7s-3-7.6-3.4-11.7c-0.3-3.4-0.2-6.9,1.1-10
		c0.7-1.6,1.6-3,2.6-4.3c1.5-2.1,3.2-4.2,5.4-5.5c1.6-0.9,3.4-1.5,5.2-1.9c4.9-1.1,9.9-1.4,14.8-0.9c1.8,0.2,3.5,0.4,5.1,1.2
		c2.4,1.1,4.2,3.2,5.9,5.3"/>
</svg>
