<?xml version="1.0" encoding="utf-8"?>
<svg xmlns:svg="http://www.w3.org/2000/svg"
	 xmlns="http://www.w3.org/2000/svg" 
	 viewBox="0 0 250.7 298.4">
	<path fill="#FDDBB4" stroke="black" stroke-width="5" d="M24.1,14.8c-11.2,29.4-11.9,61.7-10.1,93c3.3,54.7,14.1,108.9,32,160.7c1.5,4.2,3.1,8.6,6.5,11.4
		c4.1,3.4,9.9,3.8,15.3,4.1c48.6,2,97.3,0.6,145.6-4.1c1.9-0.2,4-0.4,5.6-1.5c1.4-1,2.3-2.6,3.1-4.1c10.1-20.2,10.3-43.8,10.3-66.4
		c0.2-62.8,1.3-126.1-10.3-187.8c-0.4-2-0.8-4.1-2.1-5.7c-2.3-2.8-6.5-3-10.2-2.9c-61.6,1.5-123.8,1.7-185.5,3.2"/>
	<path d="M168.1,240c-2.8-1.7-5.6-3.4-8.5-4.9c-1.4-0.8-2.8-1.5-4.3-2.1c-0.8-0.3-1.5-0.7-2.3-0.9c-0.7-0.3-1.5-0.3-2.3-0.4
		c-0.1,0-0.1,0-0.2,0c-0.1,0-0.1,0.2-0.1,0.3c0,0.1,0,0.2-0.1,0.3c0,0.2-0.1,0.5-0.1,0.7c-0.1,0.6-0.2,1.2-0.2,1.7
		c-0.1,1.1-0.1,2.3-0.2,3.4c-13.2,0.1-26.4,0-39.6-0.4c-2.9-0.1-5.7-0.3-8.4-1.2c-1-0.3-2.7-0.9-2.8-2.1c-0.1-1.1,0.9-2.2,1.6-2.9
		c2-1.9,4.7-3.3,7.1-4.6c2.5-1.3,5.1-2.4,7.8-3.3c6.1-2.1,12.5-2.9,18.9-3.1c0.3,0,0.4-0.5,0.1-0.6c-6-1-12.2-0.4-18,1.1
		c-5.9,1.5-11.8,4.1-16.6,7.8c-2.2,1.6-4.4,4.5-3,7.3c1.3,2.6,5.2,3.6,7.8,4.1c3.3,0.6,6.7,0.6,10,0.8c3.6,0.2,7.2,0.3,10.9,0.4
		c8.1,0.3,16.3,0.3,24.4,0.3c0,0.2,0,0.4,0,0.6c0,0.6,0,1.2,0.1,1.7c0,0.5,0,1.1,0.1,1.6c-0.1,0.9,0.6,2.1,1.6,2
		c1.5-0.1,3.1-0.6,4.6-0.9c1.5-0.3,3-0.7,4.6-1c2.7-0.6,5.3-1.2,7.5-3C169.3,241.8,169,240.5,168.1,240z"/>
</svg>
