<?xml version="1.0" encoding="utf-8"?>
<svg xmlns:svg="http://www.w3.org/2000/svg"
	 xmlns="http://www.w3.org/2000/svg" 
	 viewBox="0 0 212.6 306.9">
<path fill="#FDDBB4" stroke="black" stroke-width="5" d="M11.7,32.3c-2.1,86.4,3.1,172.7,8.3,259c0.2,2.9,0.7,6.4,3.3,7.6c1,0.5,2.1,0.5,3.2,0.5
		c11.5,0.3,23,0.7,34.5,1c40.5,1.2,81,2.3,121.6,3.5c2.7,0.1,5.6,0.1,8-1.3c3.3-2,4.5-6.2,5.3-10c6.5-31.1,7.2-63.1,7.9-94.9
		c0.8-37.5,1.7-75,2.5-112.5c0.3-11.5,0.5-23.1,0.3-34.6c-0.1-3.1-0.2-6.2-1.6-8.9c-3-5.5-10.2-6.7-16.4-7.2
		c-36.3-3.3-72.7-5.6-109.1-7c-23.1-0.9-46.7-1.3-68.6,5.8"/>
<path d="M143.6,257.2c-2.7-1.7-5.6-3.4-8.4-4.9c-1.4-0.7-2.8-1.5-4.2-2.1c-0.8-0.3-1.5-0.7-2.3-0.9c-0.7-0.3-1.5-0.3-2.3-0.4
		c-0.1,0-0.1,0-0.2,0c-0.1,0-0.1,0.2-0.1,0.3c0,0.1,0,0.2-0.1,0.3c0,0.2-0.1,0.5-0.1,0.7c-0.1,0.6-0.2,1.1-0.2,1.7
		c-0.1,1.1-0.1,2.3-0.2,3.4c-13.1,0.1-26.3,0-39.5-0.4c-2.8-0.1-5.7-0.3-8.4-1.2c-0.9-0.3-2.6-0.9-2.8-2.1c-0.1-1.1,0.9-2.2,1.6-2.9
		c2-1.9,4.7-3.3,7.1-4.6c2.5-1.3,5.1-2.4,7.7-3.3c6.1-2.1,12.4-2.8,18.8-3.1c0.3,0,0.4-0.5,0.1-0.6c-6-1-12.1-0.4-18,1.1
		c-5.8,1.5-11.7,4.1-16.5,7.7c-2.2,1.6-4.4,4.4-3,7.3c1.3,2.6,5.2,3.6,7.8,4c3.3,0.6,6.6,0.6,9.9,0.8c3.6,0.2,7.2,0.3,10.8,0.4
		c8.1,0.3,16.2,0.3,24.3,0.3c0,0.2,0,0.4,0,0.6c0,0.6,0,1.1,0.1,1.7c0,0.5,0,1.1,0.1,1.6c-0.1,0.9,0.6,2.1,1.6,2
		c1.5-0.1,3.1-0.6,4.5-0.9c1.5-0.3,3-0.7,4.6-1c2.7-0.6,5.3-1.2,7.5-3C144.8,259.1,144.4,257.7,143.6,257.2z"/>
</svg>
