<?xml version="1.0" encoding="utf-8"?>
<svg xmlns:svg="http://www.w3.org/2000/svg"
	 xmlns="http://www.w3.org/2000/svg" 
	 viewBox="0 0 261.8 333.8">
<path fill="#FDDBB4" stroke="black" stroke-width="5" d="M133,7.2c-0.5-0.4-1.2-0.2-1.4,0.4c-3,6.6-3.7,14.4-8.4,19.9c-5.7,6.7-15.5,7.8-24.2,8.4c-9,0.7-18,1.3-26.9,2
		c-6.1,0.5-12.7,1.1-17.5,5c-3.9,3.1-5.9,8-7.7,12.6c-20.5,53.3-22.5,111.7-24.2,168.8c-0.7,22.7-1.4,45.4-2.1,68.1
		c-0.2,6.3-0.2,13.2,3.4,18.3c4.2,5.9,12,7.9,19.1,9.2c50,9.3,101.8,9.3,151.8-0.2c6.1-1.2,12.4-2.6,17.4-6.3
		c9.3-6.9,11.6-19.7,12.9-31.2c7.7-68.3,6.5-137.7-3.5-205.7c-1.9-12.6-4.8-26.6-15.3-33.9c-14.5-10.2-35.7-2.3-51.7-10
		c-10.1-4.9-16.4-15.1-21.4-25C133.2,7.4,133.1,7.2,133,7.2L133,7.2z"/>
<path d="M156.7,269.4c-2.8-1.7-5.6-3.4-8.5-4.9c-1.4-0.8-2.8-1.5-4.3-2.1c-0.8-0.3-1.6-0.7-2.3-0.9c-0.7-0.3-1.5-0.3-2.3-0.4
		c-0.1,0-0.1,0-0.2,0c-0.1,0-0.1,0.2-0.1,0.3c0,0.1,0,0.2-0.1,0.3c0,0.2-0.1,0.5-0.1,0.7c-0.1,0.6-0.2,1.2-0.2,1.7
		c-0.1,1.1-0.1,2.3-0.2,3.5c-13.3,0.1-26.5,0-39.8-0.4c-2.9-0.1-5.7-0.3-8.5-1.2c-1-0.3-2.7-0.9-2.8-2.1c-0.1-1.1,0.9-2.2,1.6-2.9
		c2-1.9,4.7-3.3,7.1-4.6c2.5-1.3,5.1-2.4,7.8-3.3c6.1-2.1,12.5-2.9,19-3.1c0.3,0,0.4-0.5,0.1-0.6c-6-1-12.2-0.4-18.1,1.1
		c-5.9,1.5-11.8,4.1-16.7,7.8c-2.2,1.7-4.4,4.5-3,7.3c1.3,2.6,5.2,3.6,7.9,4.1c3.3,0.6,6.7,0.6,10,0.8c3.6,0.2,7.3,0.3,10.9,0.4
		c8.2,0.3,16.3,0.3,24.5,0.3c0,0.2,0,0.4,0,0.6c0,0.6,0,1.2,0.1,1.7c0,0.5,0,1.1,0.1,1.6c-0.1,0.9,0.6,2.1,1.7,2
		c1.5-0.1,3.1-0.6,4.6-0.9c1.5-0.4,3.1-0.7,4.6-1.1c2.7-0.6,5.4-1.2,7.5-3C157.8,271.3,157.5,269.9,156.7,269.4z"/>
</svg>
