<?xml version="1.0" encoding="utf-8"?>
<svg xmlns:svg="http://www.w3.org/2000/svg"
	 xmlns="http://www.w3.org/2000/svg" 
	 viewBox="0 0 245 294.9">
<path fill="#D9C9EC" stroke="black" stroke-width="5" d="M34.1,17.5c-5.7,23.8-4.4,47.1-3.4,71.6c2,46.6,4,93.3,6,139.9c0.6,14.5,1.2,29,3.3,43.4
	c0.4,3.1,1.1,6.4,3.3,8.5c2.6,2.5,6.6,2.6,10.2,2.6c48.3-0.2,96.6-0.3,144.8-3.6c4.1-0.3,8.5-0.7,11.7-3.4c3.2-2.7,4.3-7,5.2-11.1
	c11.6-52.9,12.3-107.5,13-161.7c0.3-24.3,0.6-48.6,0.9-72.9c0.1-5.5,0.1-11.2-2.7-16c-4.9-8.5-16.2-10.2-25.9-10.8
	c-55.4-3-110.8,5-165.8,13"/>
<path d="M172.2,233.9c-0.3-1.2-1.3-2-2.2-2.8c-1-0.8-2-1.6-3.1-2.4c-1-0.7-2.1-1.4-3.2-2.1c-0.9-0.5-2.2-1.3-3.2-0.7
	c-0.1,0-0.1,0.1-0.2,0.2c-0.1,0.1-0.2,0.1-0.3,0.2c-0.1,0.1-0.1,0.2-0.2,0.3c-0.1,0.1-0.2,0.2-0.3,0.3c-0.1,0.4-0.2,0.6-0.3,1
	c-0.1,0.3-0.1,0.5-0.2,0.8c-0.1,0.6-0.2,1.3-0.3,1.9c-0.2,1.2-0.3,2.4-0.5,3.6c0,0.1,0,0.1,0,0.2c-0.3-0.2-0.7-0.2-1.1-0.1
	c-3.9,0.7-7.8,1.6-11.7,2.3c-0.4,0.1-0.9,0.2-1.3,0.2H144c0-0.5-0.1-1.8-0.1-2.1c-0.1-2-0.1-3.9-0.2-5.9c0-1.1-1.1-2-2.2-1.6
	c-4.3,1.5-8.6,3.4-12.5,5.7c-1.9,1.1-3.7,2.3-5.5,3.5c-1.3,0.9-2.7,1.6-4.2,2c-0.5-2.6-0.7-5.2-1.1-7.8c-0.4-3.1-0.9-6.2-1.3-9.2
	c-0.2-1.1-1.6-1.2-2.3-0.6c-3.4,2.8-6.6,5.9-9.5,9.2c-1.4,1.6-2.8,3.3-4,5c-1.4,1.8-2.4,3.7-3.5,5.8c-0.3,0.6,0.5,1.2,0.9,0.7
	c5.1-5.9,10.2-11.8,16-16.9c0.3,2.2,0.6,4.4,0.8,6.6c0.4,3.1,0.9,6.2,1.1,9.3c0,0.9,0.7,1.5,1.6,1.6c4.4,0.2,8.2-3.4,11.8-5.5
	c3.3-2,6.9-3.7,10.5-5.1c0.1,1.6,0.1,3.2,0.2,4.8c0,1.1,0,2.1,0.7,3c0.6,0.9,1.7,1.3,2.8,1.2c2.3-0.1,4.6-0.8,6.8-1.2
	c2.4-0.5,4.8-0.9,7.2-1.5l0,0c0,0.1,0,0.3,0,0.4c-0.1,1.3-0.5,3.1,0.6,4c0.2,0.1,0.4,0.3,0.6,0.3c0.3,0.1,0.7,0.2,1,0.1
	c1.3-0.3,2.5-1.1,3.7-1.7c1.2-0.6,2.4-1.1,3.6-1.7C169.7,238,173.1,236.9,172.2,233.9z"/>
</svg>
