<?xml version="1.0" encoding="utf-8"?>
<svg xmlns:svg="http://www.w3.org/2000/svg"
	 xmlns="http://www.w3.org/2000/svg" 
	 viewBox="0 0 234.6 314.5">
<path fill="#D9C9EC" stroke="black" stroke-width="5" d="M7.5,27.1c-0.3,13.2,2.1,28,3.5,41.1c7.6,69.5,15.2,138.9,22.8,208.4c0.3,3.1,0.8,6.5,3,8.8
	c2,2,4.9,2.6,7.7,3.2c48.7,9.6,97.8,17.2,147.2,22.7c2,0.2,4,0.4,5.9-0.2c3.7-1.3,5.3-5.6,6.4-9.4c9.3-33,9.8-67.7,10.3-102
	c0.7-51.6,1.4-103.2,2.1-154.7c0.1-5.3-0.1-11.1-3.6-15c-1.9-2.1-4.6-3.4-7.3-4.4c-16.1-6-33.9-4.1-51-2.5
	C105.9,27.5,57,28.9,8.2,27.4"/>
<path d="M159,244.7c-0.3-1.2-1.3-2.1-2.2-2.8c-1-0.8-2-1.6-3.1-2.4c-1-0.7-2.1-1.4-3.2-2.1c-0.9-0.5-2.2-1.3-3.2-0.7
	c-0.1,0-0.1,0.1-0.2,0.2c-0.1,0.1-0.2,0.1-0.3,0.2c-0.1,0.1-0.1,0.2-0.2,0.3c-0.1,0.1-0.2,0.2-0.3,0.3c-0.1,0.4-0.2,0.6-0.3,1
	c-0.1,0.3-0.1,0.5-0.2,0.8c-0.1,0.6-0.2,1.3-0.3,1.9c-0.2,1.2-0.3,2.4-0.5,3.6c0,0.1,0,0.1,0,0.2c-0.3-0.2-0.7-0.2-1.2-0.1
	c-3.9,0.7-7.8,1.6-11.7,2.3c-0.4,0.1-0.9,0.2-1.3,0.2c0,0-0.1,0-0.1,0c0-0.5-0.1-1.8-0.1-2.1c-0.1-2-0.1-4-0.2-5.9
	c0-1.1-1.1-2-2.2-1.7c-4.4,1.5-8.6,3.4-12.6,5.7c-1.9,1.1-3.7,2.3-5.5,3.5c-1.3,0.9-2.7,1.6-4.2,2c-0.5-2.6-0.7-5.2-1.1-7.8
	c-0.4-3.1-0.9-6.2-1.3-9.3c-0.2-1.1-1.6-1.2-2.3-0.6c-3.4,2.8-6.6,5.9-9.5,9.2c-1.4,1.6-2.8,3.3-4.1,5c-1.4,1.8-2.5,3.8-3.5,5.8
	c-0.3,0.6,0.5,1.2,0.9,0.7c5.1-5.9,10.2-11.8,16.1-17c0.3,2.2,0.6,4.4,0.8,6.6c0.4,3.1,1,6.2,1.1,9.3c0,0.9,0.7,1.6,1.6,1.6
	c4.5,0.2,8.3-3.4,11.8-5.6c3.4-2,6.9-3.7,10.5-5.1c0.1,1.6,0.1,3.2,0.2,4.8c0,1.1,0,2.1,0.7,3.1c0.6,0.9,1.7,1.3,2.8,1.2
	c2.3-0.1,4.6-0.8,6.9-1.2c2.4-0.5,4.8-0.9,7.2-1.5c0,0,0,0,0,0c0,0.1,0,0.3,0,0.4c-0.1,1.3-0.5,3.1,0.6,4c0.2,0.1,0.4,0.3,0.6,0.3
	c0.3,0.1,0.7,0.2,1,0.1c1.3-0.3,2.6-1.1,3.8-1.7c1.2-0.6,2.4-1.1,3.6-1.7C156.5,248.7,159.8,247.7,159,244.7z"/>
</svg>
