<?xml version="1.0" encoding="utf-8"?>
<svg xmlns:svg="http://www.w3.org/2000/svg"
	 xmlns="http://www.w3.org/2000/svg" 
	 viewBox="0 0 248.9 294">
<path  fill="#C9EBEC" stroke="black" stroke-width="5"   d="M27.9,18.6c68-13.9,139-13.7,207.6-2.9c1.2,0.2,2.5,0.5,3.2,1.4c0.4,0.6,0.5,1.4,0.6,2.1
	c7.3,76.5-1.4,153.6-10.2,230c-0.6,5.6-1.3,11.2-3.8,16.3c-3.9,7.9-11.9,13.1-20.3,15.7c-8.4,2.6-17.4,2.8-26.2,3
	c-33.4,0.8-66.8,1.7-100.3,2.5c-6.2,0.2-12.9,0.2-18.1-3.2c-5.7-3.7-8.2-10.6-10.1-17.1c-6.8-22.8-10-46.6-13.2-70.2
	c-7.9-58.6-15.9-117.9-9.2-176.7"/>
<path d="M178.3,237.8c-1.4-0.4-2.7-1.2-4-1.9c-1.4-0.8-2.8-1.6-4.1-2.4c-1.2-0.8-2.5-1.7-3.7-2.5c-1.1-0.7-2.7-1.5-3.9-0.5
	c-0.3,0.2-0.4,0.4-0.4,0.8c0,0.3,0,0.7,0,1c0,0.5,0,1,0,1.5c0,1.3,0.2,2.6,0.3,3.9c0,0.2,0,0.3,0.1,0.5c-0.1,0-0.3,0-0.4,0
	c-3.4,1-6.9,2.4-10.5,1.4c-1.5-0.4-2.7-1.3-3.5-2.6c-0.9-1.4-1.3-3-1.9-4.5c-1.1-2.7-3.3-5.4-6.5-5.3c-3.3,0.1-6.1,2.5-8,5
	c-0.9,1.2-1.7,2.5-2.3,3.9c-0.3,0.7-0.6,1.4-0.9,2.1c-0.2,0.6-0.5,1.3-1.1,1.7c-1.4,0.8-2.9-0.7-3.5-1.7c-0.9-1.5-1.6-3.1-2.3-4.7
	c-1.4-2.9-2.5-6.3-4.8-8.7c-2.2-2.3-5.3-2.6-8-0.9c-3.1,1.9-5.4,5.2-7.1,8.3c-1.7,3.2-3.2,6.9-3,10.6c0,0.6,0.8,0.7,1,0.1
	c1.1-3.1,2-6.2,3.5-9.1c1.5-2.8,3.5-5.8,6.1-7.6c1.2-0.9,2.8-1.5,4.3-1c1.3,0.4,2.1,1.6,2.8,2.7c0.8,1.3,1.4,2.8,2.1,4.2
	c0.8,1.7,1.5,3.4,2.3,5c1.2,2.7,3.2,5.8,6.6,5.3c3.2-0.5,3.8-4.4,5-6.7c1.4-2.5,3.4-5.1,6.3-5.9c3.3-0.9,4.8,2.7,5.7,5.1
	c0.6,1.7,1.3,3.4,2.5,4.7c1.2,1.3,2.8,2.1,4.4,2.5c3.8,0.9,7.7-0.3,11.2-1.8c0.1,0.4,0.1,0.8,0.2,1.1c0.2,1.3,0.2,2.9,0.8,4.1
	c0.1,0.2,0.3,0.4,0.5,0.5c0,0,0,0,0,0.1c0.5,0.9,1.6,1,2.4,0.6c2-0.9,4-1.9,6-2.9c2-1,4-1.9,6-2.9
	C180.1,240.2,179.7,238.2,178.3,237.8z"/>
</svg>
