<?xml version="1.0" encoding="utf-8"?>
<svg xmlns:svg="http://www.w3.org/2000/svg"
	 xmlns="http://www.w3.org/2000/svg" 
	 viewBox="0 0 251.8 310.2">
<path fill="#C9EBEC" stroke="black" stroke-width="5"  d="M25.6,25.8c1.9,87.4,8.7,172.6,19.5,259.4c0.2,1.8,0.5,3.7,1.8,5c1.4,1.3,3.4,1.5,5.3,1.6
		c45.1,2.3,90.2,4.6,135.4,7c1.9,0.1,3.8,0.2,5.6-0.4c5.4-1.7,7.2-8.3,8.2-13.9c13.7-75.1,42.6-147.5,48.1-223.7
		c0.7-9.2,0.8-19-3.9-26.9C238,20.7,220.5,17.8,205.4,17c-59.8-3.3-119.6,3-179.1,9.3"/>
<path d="M163.4,251.4c-1.4-0.4-2.8-1.2-4.1-1.9c-1.4-0.8-2.8-1.6-4.1-2.5c-1.3-0.8-2.5-1.8-3.8-2.5c-1.2-0.7-2.7-1.5-3.9-0.5
		c-0.3,0.2-0.4,0.4-0.4,0.8c0,0.4,0,0.7,0,1.1c0,0.5,0,1,0,1.5c0,1.3,0.2,2.7,0.3,4c0,0.2,0,0.3,0.1,0.5c-0.1,0-0.3,0-0.4,0
		c-3.4,1-7,2.5-10.6,1.4c-1.5-0.4-2.7-1.4-3.5-2.7c-0.9-1.4-1.3-3-2-4.6c-1.1-2.7-3.3-5.5-6.6-5.4c-3.3,0.1-6.2,2.5-8.1,5.1
		c-0.9,1.2-1.7,2.6-2.3,4c-0.3,0.7-0.6,1.4-0.9,2.1c-0.2,0.6-0.5,1.3-1.1,1.7c-1.4,0.8-2.9-0.7-3.6-1.7c-0.9-1.5-1.6-3.1-2.3-4.7
		c-1.4-2.9-2.5-6.4-4.8-8.8c-2.2-2.3-5.4-2.6-8.1-0.9c-3.1,1.9-5.5,5.3-7.2,8.4c-1.8,3.2-3.3,7-3.1,10.7c0,0.6,0.8,0.7,1,0.1
		c1.1-3.1,2-6.3,3.6-9.3c1.5-2.8,3.5-5.8,6.2-7.7c1.3-0.9,2.8-1.6,4.3-1c1.3,0.5,2.2,1.6,2.9,2.7c0.8,1.4,1.5,2.8,2.1,4.3
		c0.8,1.7,1.5,3.4,2.3,5.1c1.2,2.7,3.2,5.9,6.7,5.4c3.2-0.5,3.8-4.4,5.1-6.8c1.4-2.5,3.5-5.2,6.4-5.9c3.4-0.9,4.8,2.7,5.8,5.2
		c0.6,1.7,1.3,3.4,2.6,4.8c1.2,1.3,2.8,2.1,4.5,2.5c3.9,0.9,7.8-0.3,11.4-1.9c0.1,0.4,0.1,0.8,0.2,1.2c0.2,1.4,0.2,2.9,0.8,4.2
		c0.1,0.2,0.3,0.4,0.5,0.5c0,0,0,0,0,0.1c0.5,0.9,1.6,1,2.5,0.6c2-0.9,4-2,6.1-3c2-1,4.1-1.9,6.1-2.9
		C165.2,253.8,164.8,251.8,163.4,251.4z"/>
</svg>
