<?xml version="1.0" encoding="utf-8"?>
<svg xmlns:svg="http://www.w3.org/2000/svg"
	 xmlns="http://www.w3.org/2000/svg" 
	 viewBox="0 0 230.7 326.2">
<path fill="#C9EBEC" stroke="black" stroke-width="5" d="M112.3,8.8c-0.9,10-2.1,20.8-9.3,27.8c-8.7,8.5-22.4,7.9-34.5,7.8c-10.4-0.1-20.8,0.5-31.1,1.8
	c-4.9,0.6-10,1.5-14,4.5c-6,4.6-7.7,12.8-8.7,20.3c-3.6,27.7-3.2,55.7-2.8,83.6c0.5,35.4,1,70.7,2.3,106.1
	c0.5,14.3,1.2,28.8,4.6,42.7c1.2,4.9,3,10.1,7.1,13.2c4.1,3.1,9.6,3.3,14.8,3.3c34.9,0.3,69.9-0.9,104.8-2.2
	c12.3-0.4,24.5-0.9,36.8-1.3c5.5-0.2,11.4-0.5,16-3.5c7.1-4.7,9-14.1,10-22.6c3.8-33.6,2.9-67.5,1.9-101.3c-1-35.2-2-70.4-3-105.7
	c-0.2-8.7-0.9-18.3-7.1-24.5c-5.8-5.7-14.6-6.6-22.6-7.2c-13.2-1-26.3-1.9-39.5-2.9c-5.7-0.4-12.1-1.1-15.9-5.4
	c-2.4-2.7-3.3-6.4-4.2-9.9C116,25.2,114.3,16.8,112.3,8.8"/>
<path d="M153.9,254.6c-1.4-0.4-2.7-1.2-3.9-1.9c-1.4-0.7-2.7-1.5-4-2.4c-1.2-0.8-2.4-1.7-3.7-2.4c-1.1-0.7-2.6-1.5-3.8-0.5
	c-0.3,0.2-0.4,0.4-0.4,0.7c0,0.3,0,0.7,0,1c0,0.5,0,1,0,1.4c0,1.3,0.2,2.6,0.3,3.8c0,0.2,0,0.3,0.1,0.5c-0.1,0-0.2,0-0.4,0
	c-3.3,0.9-6.8,2.4-10.2,1.3c-1.4-0.4-2.6-1.3-3.4-2.6c-0.8-1.4-1.3-2.9-1.9-4.4c-1.1-2.6-3.2-5.3-6.4-5.2c-3.2,0.1-6,2.4-7.8,4.9
	c-0.9,1.2-1.6,2.5-2.2,3.8c-0.3,0.7-0.6,1.4-0.8,2.1c-0.2,0.6-0.5,1.3-1.1,1.6c-1.3,0.8-2.8-0.6-3.5-1.7c-0.9-1.4-1.5-3-2.2-4.6
	c-1.3-2.8-2.5-6.2-4.7-8.5c-2.2-2.3-5.2-2.5-7.9-0.9c-3,1.8-5.3,5.1-7,8.2c-1.7,3.1-3.1,6.8-3,10.4c0,0.6,0.8,0.6,1,0.1
	c1.1-3,1.9-6.1,3.5-9c1.5-2.7,3.4-5.6,6-7.5c1.2-0.9,2.7-1.5,4.2-1c1.2,0.4,2.1,1.5,2.8,2.6c0.8,1.3,1.4,2.7,2,4.1
	c0.7,1.6,1.5,3.3,2.2,4.9c1.2,2.6,3.1,5.7,6.5,5.2c3.1-0.5,3.7-4.3,4.9-6.6c1.3-2.5,3.4-5,6.2-5.7c3.2-0.9,4.7,2.6,5.6,5
	c0.6,1.6,1.3,3.3,2.5,4.6c1.1,1.2,2.7,2.1,4.3,2.5c3.7,0.9,7.6-0.2,11-1.8c0,0.4,0.1,0.7,0.1,1.1c0.2,1.3,0.2,2.8,0.8,4
	c0.1,0.2,0.3,0.4,0.5,0.5c0,0,0,0,0,0.1c0.5,0.9,1.5,1,2.4,0.6c2-0.9,3.9-1.9,5.9-2.9c2-0.9,3.9-1.8,5.9-2.8
	C155.5,256.9,155.2,254.9,153.9,254.6z"/>
</svg>
