<?xml version="1.0" encoding="utf-8"?>
<svg xmlns:svg="http://www.w3.org/2000/svg"
	 xmlns="http://www.w3.org/2000/svg" 
	 viewBox="0 0 251.6 309.1">
<path fill="#FEEEB2" stroke="black" stroke-width="5" d="M226.4,28.9c-0.6,82.6-1.3,165.1-1.9,247.7c0,1.5,0,3.1-0.7,4.4c-1.3,2.4-4.2,3.3-6.9,3.9
	c-14,3-28.3,3.6-42.6,4.2c-43.5,1.8-86.9,3.7-130.4,5.5c-3.1,0.1-6.4,0.2-8.9-1.6c-2.9-2.1-3.8-6-4.4-9.6
	c-14.4-87-13.5-175.8-12.5-264c25.8-4.4,52.1-3.2,78.2-1.8c42.9,2.3,85.8,5.1,128.6,8.5"/>
<path d="M159.9,236.1c-0.5-1.1-1.8-1.6-2.8-2.1c-1.2-0.7-2.3-1.3-3.5-2c-2.4-1.3-4.8-2.7-7.2-3.9c-1.1-0.6-2.2,0.4-2,1.5
	c0.4,2.2,0.9,4.5,1.4,6.7c-8.2,1.6-16.4,3.2-24.7,4.8c-4.2,0.8-11.1,1.8-13.5-2.3c4-0.8,8-2.6,10.7-5.8c2.4-2.8,3.9-6.8,2.5-10.4
	c-0.7-1.7-2.1-3.1-4-3.5c-1.9-0.4-3.9,0.3-5.5,1.5c-3.3,2.4-5.6,6.5-6.7,10.4c-0.5,1.8-0.8,3.7-0.5,5.6c-2.6,0.4-5.2,0.5-7.8,0.4
	c-3.9-0.1-7.8-1.1-11.1-3c-0.5-0.3-1,0.4-0.6,0.8c2.8,2.8,6.6,4.1,10.5,4.7c3.2,0.4,6.5,0.4,9.7-0.1c0.4,0.9,1,1.8,1.7,2.6
	c2.5,2.5,6.2,3,9.6,2.8c2.1-0.1,4.2-0.5,6.3-0.9c2.8-0.5,5.5-1.1,8.3-1.6l15.7-3.1c0.1,0.5,0.2,0.9,0.3,1.4c0.3,1.6,0.6,3,1.1,4.5
	c0.2,0.5,0.5,0.6,1,0.4c1.2-0.4,2-1.2,3.1-1.9c1.2-0.7,2.3-1.5,3.4-2.2c1.1-0.7,2.3-1.4,3.3-2.2
	C159.7,238.4,160.5,237.3,159.9,236.1z M110.2,226.1c1.3-1.8,4.6-5.7,7.1-3.6c2.3,1.9,0.9,5.8-0.5,7.8c-1.9,2.8-5.1,4.5-8.3,5.4
	c-0.5,0.2-1.1,0.3-1.6,0.4C106.6,232.5,108.2,228.9,110.2,226.1z"/>
</svg>
