<?xml version="1.0" encoding="utf-8"?>
<svg xmlns:svg="http://www.w3.org/2000/svg"
	 xmlns="http://www.w3.org/2000/svg" 
	 viewBox="0 0 248.6 314.5">
<path fill="#FEEEB2" stroke="black" stroke-width="5" d="M56.5,291.3C40.2,209.1,33.4,124.9,36.1,41.1c0.1-2.9,0.3-6.1,2.2-8.4c1.6-1.8,4-2.7,6.3-3.4
	c20.1-6.3,41.2-9.6,62.3-9.5c17.1,0,34.1,2.1,51.1,4.3c22.3,2.8,44.6,5.6,66.9,8.4c2.1,0.3,4.3,0.6,6.2,1.6
	c4.9,2.9,5.4,9.7,5.3,15.4c-1.4,42.5-8.5,84.6-11,127c-2.2,37-0.8,74.2-4.9,111c-0.2,2-0.5,4.1-1.5,5.9c-1.2,2.1-3.4,3.5-5.6,4.6
	c-10.9,5.7-23.5,7.3-35.8,8.5c-33.4,3.2-67.5,3.9-99.9-4.5c-6.6-1.7-13.4-4-18.1-9c-6.8-7.3-7.3-18.3-7.4-28.3"/>
<path d="M172.4,252.7c-0.5-1.1-1.8-1.6-2.8-2.2c-1.2-0.7-2.3-1.3-3.5-2c-2.4-1.4-4.8-2.7-7.2-4c-1.1-0.6-2.2,0.4-2,1.5
	c0.4,2.3,0.9,4.5,1.4,6.8c-8.3,1.6-16.6,3.3-24.9,4.9c-4.2,0.8-11.2,1.8-13.6-2.3c4.1-0.9,8.1-2.7,10.8-5.9c2.4-2.8,4-6.9,2.5-10.5
	c-0.7-1.7-2.1-3.1-4-3.5c-2-0.4-3.9,0.3-5.5,1.5c-3.4,2.4-5.7,6.6-6.8,10.5c-0.5,1.8-0.8,3.8-0.5,5.7c-2.6,0.4-5.3,0.5-7.8,0.4
	c-3.9-0.1-7.8-1.1-11.3-3.1c-0.5-0.3-1,0.4-0.6,0.8c2.9,2.9,6.7,4.2,10.6,4.7c3.2,0.4,6.5,0.4,9.8-0.1c0.4,0.9,1,1.8,1.7,2.6
	c2.5,2.5,6.3,3,9.7,2.8c2.2-0.1,4.3-0.5,6.4-1c2.8-0.5,5.6-1.1,8.3-1.6l15.9-3.1c0.1,0.5,0.2,0.9,0.3,1.4c0.3,1.6,0.6,3.1,1.1,4.6
	c0.2,0.5,0.5,0.6,1,0.4c1.2-0.4,2.1-1.3,3.1-1.9c1.2-0.7,2.3-1.5,3.5-2.2c1.1-0.7,2.3-1.4,3.4-2.2
	C172.2,255,172.9,253.9,172.4,252.7z M122.1,242.6c1.3-1.9,4.6-5.7,7.2-3.7c2.3,1.9,0.9,5.9-0.5,7.9c-1.9,2.8-5.1,4.5-8.3,5.4
	c-0.5,0.2-1.1,0.3-1.6,0.4C118.6,249.1,120.2,245.4,122.1,242.6z"/>
</svg>
