<?xml version="1.0" encoding="utf-8"?>
<svg xmlns:svg="http://www.w3.org/2000/svg"
	 xmlns="http://www.w3.org/2000/svg" 
	 viewBox="0 0 216.4 311.8">
<path fill="#FEEEB2" stroke="black" stroke-width="5" d="M112.6,7.3c-4.1,16-19.7,26.7-35.5,31.5s-32.7,5-48.9,8.3c-5,1-10.3,2.5-13.8,6.3c-3.6,4-4.6,9.7-5.1,15.1
	c-2,19.9-1.3,40-0.3,60c2,43.7,4.9,87.4,8.5,131c1,12.2,2.1,24.5,5.5,36.3c0.7,2.3,1.5,4.6,3.2,6.3c2.7,2.6,6.9,2.7,10.6,2.8
	c39.8,0,79.6,0.1,119.4,0.1c5,0,10.6-0.2,14.1-3.8c2.1-2.1,3-5.1,3.8-8c2.9-10.2,5-20.6,7.2-31c12.6-59.8,25.2-119.8,30.2-180.7
	c1.2-14.2,0.8-31.1-10.8-39.5c-7.3-5.4-17.1-5.6-26.2-5.6c-11.2,0-22.5,0-33.7,0c-3.3,0-6.8,0-9.6-1.8c-2.5-1.5-4.1-4.1-5.5-6.5
	c-3.8-6.3-8.7-14.7-12.5-21"/>
<path d="M134.6,257.8c-0.5-1.1-1.8-1.6-2.8-2.1c-1.2-0.6-2.3-1.3-3.5-1.9c-2.4-1.3-4.7-2.7-7.1-3.9c-1.1-0.6-2.2,0.4-2,1.5
	c0.4,2.2,0.9,4.4,1.4,6.7c-8.2,1.6-16.3,3.2-24.5,4.8c-4.2,0.8-11.1,1.8-13.4-2.3c4-0.8,8-2.6,10.6-5.8c2.3-2.8,3.9-6.8,2.4-10.3
	c-0.7-1.7-2.1-3.1-3.9-3.5c-1.9-0.4-3.9,0.3-5.4,1.5c-3.3,2.4-5.6,6.5-6.7,10.4c-0.5,1.8-0.8,3.7-0.5,5.6c-2.6,0.4-5.2,0.5-7.7,0.4
	c-3.9-0.1-7.7-1.1-11.1-3c-0.5-0.3-1,0.4-0.6,0.8c2.8,2.8,6.6,4.1,10.5,4.6c3.2,0.4,6.4,0.4,9.6-0.1c0.4,0.9,1,1.8,1.7,2.6
	c2.5,2.5,6.2,3,9.5,2.8c2.1-0.1,4.2-0.5,6.3-0.9c2.7-0.5,5.5-1.1,8.2-1.6l15.6-3.1c0.1,0.5,0.2,0.9,0.3,1.4c0.3,1.6,0.6,3,1.1,4.5
	c0.2,0.5,0.5,0.6,1,0.4c1.2-0.4,2-1.2,3.1-1.9c1.2-0.7,2.3-1.4,3.4-2.2c1.1-0.7,2.2-1.4,3.3-2.2C134.4,260.1,135.2,259,134.6,257.8
	z M85.2,247.9c1.2-1.8,4.6-5.7,7.1-3.6c2.3,1.9,0.9,5.8-0.5,7.7c-1.9,2.8-5,4.4-8.2,5.3c-0.5,0.2-1.1,0.3-1.6,0.4
	C81.7,254.3,83.3,250.7,85.2,247.9z"/>
</svg>
