<?xml version="1.0" encoding="UTF-8" standalone="no"?>
<svg
   xmlns:dc="http://purl.org/dc/elements/1.1/"
   xmlns:cc="http://creativecommons.org/ns#"
   xmlns:rdf="http://www.w3.org/1999/02/22-rdf-syntax-ns#"
   xmlns:svg="http://www.w3.org/2000/svg"
   xmlns="http://www.w3.org/2000/svg"
   xmlns:sodipodi="http://sodipodi.sourceforge.net/DTD/sodipodi-0.dtd"
   xmlns:inkscape="http://www.inkscape.org/namespaces/inkscape"
   sodipodi:docname="cloud5d.svg"
   inkscape:version="1.0 (4035a4f, 2020-05-01)"
   id="svg1343"
   version="1.1"
   viewBox="0 0 33.82082 36.100971"
   height="36.100971mm"
   width="33.82082mm">
  <defs
     id="defs1337" />
  <sodipodi:namedview
     inkscape:window-maximized="0"
     inkscape:window-y="23"
     inkscape:window-x="0"
     inkscape:window-height="990"
     inkscape:window-width="1252"
     showgrid="false"
     inkscape:document-rotation="0"
     inkscape:current-layer="layer1"
     inkscape:document-units="mm"
     inkscape:cy="1176.7937"
     inkscape:cx="1118.1991"
     inkscape:zoom="0.35"
     inkscape:pageshadow="2"
     inkscape:pageopacity="0.0"
     borderopacity="1.0"
     bordercolor="#666666"
     pagecolor="#ffffff"
     id="base" />
  <metadata
     id="metadata1340">
    <rdf:RDF>
      <cc:Work
         rdf:about="">
        <dc:format>image/svg+xml</dc:format>
        <dc:type
           rdf:resource="http://purl.org/dc/dcmitype/StillImage" />
        <dc:title></dc:title>
      </cc:Work>
    </rdf:RDF>
  </metadata>
  <g
     transform="translate(190.02351,163.19333)"
     id="layer1"
     inkscape:groupmode="layer"
     inkscape:label="Layer 1">
    <path
       style="stroke-width:0.264583"
       d="m -175.22745,-132.85633 c 0.29105,0.14023 0.59267,0.16139 0.87578,0.0609 0.27252,-0.0952 0.52652,-0.2884 0.71172,-0.54504 0.16934,-0.23548 0.27253,-0.53446 0.28046,-0.83609 0.0106,-0.32279 -0.0873,-0.62441 -0.26987,-0.83873 -0.17463,-0.24077 -0.41804,-0.43127 -0.68792,-0.53181 -0.29898,-0.11377 -0.60325,-0.11112 -0.88371,0.005 -0.27516,0.11377 -0.52387,0.33338 -0.70379,0.61648 -0.127,0.20373 -0.21167,0.42862 -0.24342,0.65352 -0.0423,0.30163 0.0265,0.58473 0.20109,0.8255 0.17727,0.24077 0.43921,0.45508 0.71966,0.59002 z m -0.28575,-0.67204 c -0.17197,-0.17198 -0.26193,-0.35719 -0.26458,-0.55298 -0.003,-0.3863 0.23548,-0.80963 0.58473,-1.03188 0.20108,-0.127 0.43127,-0.16404 0.65352,-0.10583 0.15081,0.0397 0.29369,0.12171 0.43127,0.24606 0.1614,0.14552 0.27517,0.32544 0.32809,0.51858 0.0106,0.037 0.0185,0.0767 0.0238,0.11377 0.0317,0.21167 -0.008,0.43657 -0.10584,0.63236 -0.0159,0.0291 -0.0317,0.0582 -0.0503,0.0873 -0.20108,0.32279 -0.60854,0.6059 -1.02394,0.47096 -0.1905,-0.0582 -0.38629,-0.18786 -0.57679,-0.37836 z"
       id="path364" />
    <path
       style="stroke-width:0.264583"
       d="m -175.22215,-129.69456 c 0.21166,0.10319 0.43127,0.11641 0.63764,0.045 0.19844,-0.0714 0.38365,-0.21167 0.51859,-0.39688 0.12435,-0.17198 0.19843,-0.38893 0.20372,-0.60854 0.008,-0.23548 -0.0635,-0.45508 -0.19579,-0.61119 -0.127,-0.17727 -0.30427,-0.31485 -0.50006,-0.38629 -0.21696,-0.082 -0.43921,-0.0794 -0.64294,0.005 -0.20108,0.082 -0.381,0.24342 -0.51329,0.44979 -0.0926,0.14817 -0.15346,0.31221 -0.17727,0.47625 -0.0318,0.21961 0.0212,0.42598 0.14817,0.60061 0.12435,0.16933 0.31485,0.32544 0.52123,0.42598 z m -0.20902,-0.49213 c -0.127,-0.12435 -0.1905,-0.25929 -0.19315,-0.40481 -0.003,-0.28046 0.17198,-0.59002 0.42598,-0.75142 0.14552,-0.0926 0.31485,-0.11906 0.47625,-0.0767 0.11112,0.0291 0.21431,0.0873 0.31485,0.17992 0.11907,0.10583 0.20109,0.23548 0.23813,0.37836 0.008,0.0265 0.0132,0.0556 0.0185,0.0847 0.0212,0.15345 -0.005,0.3175 -0.0767,0.46037 -0.0106,0.0212 -0.0238,0.0423 -0.037,0.0635 -0.14817,0.23548 -0.4445,0.44185 -0.74613,0.34396 -0.14023,-0.045 -0.28046,-0.13758 -0.42068,-0.27781 z"
       id="path366" />
    <path
       style="stroke-width:0.264583"
       d="m -175.16395,-127.15721 c 0.15346,0.0741 0.31486,0.0847 0.46567,0.0318 0.14552,-0.0503 0.28046,-0.15346 0.37836,-0.28839 0.09,-0.12436 0.14552,-0.28311 0.14816,-0.4445 0.005,-0.17198 -0.0476,-0.33073 -0.14287,-0.4445 -0.0926,-0.12965 -0.22225,-0.22755 -0.36513,-0.28311 -0.15875,-0.0608 -0.32014,-0.0582 -0.46831,0.003 -0.14552,0.0608 -0.27781,0.17727 -0.37306,0.32809 -0.0688,0.10847 -0.11113,0.22754 -0.12965,0.3466 -0.0238,0.15875 0.0159,0.31221 0.10848,0.43921 0.09,0.127 0.22754,0.24077 0.37835,0.31221 z m -0.15345,-0.35719 c -0.0926,-0.09 -0.13759,-0.1905 -0.14023,-0.29368 -0.003,-0.20373 0.12435,-0.43127 0.30956,-0.54769 0.10583,-0.0661 0.23019,-0.0873 0.3466,-0.0556 0.0794,0.0212 0.15611,0.0635 0.23019,0.12965 0.0847,0.0767 0.14552,0.17197 0.17463,0.27516 0.005,0.0212 0.0106,0.0397 0.0132,0.0608 0.0159,0.11377 -0.003,0.23283 -0.0556,0.33602 -0.008,0.0159 -0.0159,0.0318 -0.0265,0.045 -0.10848,0.17198 -0.32279,0.32279 -0.5424,0.25136 -0.10319,-0.0318 -0.20637,-0.10055 -0.30956,-0.20109 z"
       id="path368" />
    <path
       style="stroke-width:0.264583"
       d="m -159.68053,-157.91767 c -1.32556,-0.6985 -2.86279,-0.84402 -4.34446,-0.73289 -0.037,-1.28588 -0.24077,-2.62731 -1.19591,-3.55865 -1.0795,-1.05039 -2.72257,-1.09802 -4.12221,-0.87841 -2.87338,0.45508 -5.5245,1.96585 -7.39511,4.18306 -0.89958,-0.87577 -2.09814,-1.42081 -3.35491,-1.54517 -1.73567,-0.16933 -3.44488,0.39423 -4.88686,1.34144 -2.63789,1.73037 -4.46087,4.80219 -4.23598,8.00629 0.10848,1.54517 0.68263,3.04006 1.68805,4.20952 -1.02659,0.90223 -1.70657,2.11667 -2.14313,3.41577 -0.50271,1.48696 -0.49212,3.05329 0.1905,4.48204 0.005,0.0106 0.0106,0.0185 0.0159,0.0291 0,0.0847 0.0212,0.17198 0.0714,0.2593 1.35467,2.3442 4.01902,4.0005 6.73894,4.07193 2.86544,0.0767 5.60123,-1.31762 7.63323,-3.27554 2.63525,0.90752 5.40808,1.7489 8.21531,1.26206 2.60879,-0.45243 4.91596,-2.02935 5.7785,-4.60904 0.37306,-1.11918 0.46302,-2.28071 0.26194,-3.42371 2.52677,-0.79904 4.15925,-3.63537 4.49792,-6.14362 0.37041,-2.78341 -0.8599,-5.74939 -3.41313,-7.09348 z m 1.32292,9.29746 c -0.68527,1.28059 -1.8124,2.55852 -3.34698,2.67759 -0.50271,0.0397 -0.74613,0.54239 -0.61648,0.98689 0.78317,2.64583 -0.70115,5.4319 -3.22527,6.42408 -3.07446,1.2065 -6.40027,0.0873 -9.35831,-0.92604 -0.34396,-0.11641 -0.65088,-0.0635 -0.90488,0.20373 -1.75683,1.85473 -4.24656,3.19352 -6.85006,3.16177 -2.38654,-0.0291 -4.54554,-1.28323 -5.95842,-3.16971 -0.0212,-0.0291 -0.045,-0.0529 -0.0661,-0.0741 -0.45773,-0.98689 -0.62442,-2.0955 -0.36248,-3.22792 0.35983,-1.54781 1.34408,-2.97656 2.71991,-3.78618 0.25136,-0.14817 0.33602,-0.60061 0.13494,-0.81757 -1.83885,-1.98966 -2.28071,-4.84981 -1.18004,-7.32102 1.11125,-2.48972 3.63802,-4.63814 6.43731,-4.77308 1.41023,-0.0688 2.86544,0.49742 3.73327,1.63513 0.22225,0.29104 0.71173,0.35454 0.94986,0.0344 1.59014,-2.13783 3.95552,-3.69623 6.57754,-4.22275 1.13506,-0.23019 2.65377,-0.42598 3.59039,0.43392 0.91282,0.83873 0.88107,2.30981 0.87578,3.44752 -0.003,0.3175 0.35454,0.57415 0.65087,0.53975 1.55575,-0.18521 3.2385,-0.12965 4.6064,0.72231 1.21179,0.75142 2.05845,2.06111 2.35214,3.44488 0.33602,1.56368 -0.0106,3.20675 -0.75935,4.60639 z"
       id="path408" />
  </g>
</svg>
