<?xml version="1.0" encoding="UTF-8" standalone="no"?>
<svg
   xmlns:dc="http://purl.org/dc/elements/1.1/"
   xmlns:cc="http://creativecommons.org/ns#"
   xmlns:rdf="http://www.w3.org/1999/02/22-rdf-syntax-ns#"
   xmlns:svg="http://www.w3.org/2000/svg"
   xmlns="http://www.w3.org/2000/svg"
   xmlns:sodipodi="http://sodipodi.sourceforge.net/DTD/sodipodi-0.dtd"
   xmlns:inkscape="http://www.inkscape.org/namespaces/inkscape"
   sodipodi:docname="cloud1dn.svg"
   inkscape:version="1.0 (4035a4f, 2020-05-01)"
   id="svg448"
   version="1.1"
   viewBox="0 0 28.560213 21.877028"
   height="21.877028mm"
   width="28.560213mm">
  <defs
     id="defs442">
    <inkscape:path-effect
       effect="fill_between_many"
       id="path-effect21"
       is_visible="true"
       lpeversion="1"
       linkedpaths=""
       method="bsplinespiro"
       fuse="false"
       join="true"
       close="true"
       autoreverse="true"
       applied="false" />
    <inkscape:path-effect
       effect="fill_between_many"
       id="path-effect19"
       is_visible="true"
       lpeversion="1"
       linkedpaths=""
       method="bsplinespiro"
       fuse="false"
       join="true"
       close="true"
       autoreverse="true"
       applied="false" />
  </defs>
  <sodipodi:namedview
     inkscape:window-maximized="0"
     inkscape:window-y="23"
     inkscape:window-x="0"
     inkscape:window-height="990"
     inkscape:window-width="1003"
     showgrid="false"
     inkscape:document-rotation="0"
     inkscape:current-layer="layer1"
     inkscape:document-units="mm"
     inkscape:cy="95.271104"
     inkscape:cx="46.650018"
     inkscape:zoom="2.8"
     inkscape:pageshadow="2"
     inkscape:pageopacity="0.0"
     borderopacity="1.0"
     bordercolor="#666666"
     pagecolor="#ffffff"
     id="base" />
  <metadata
     id="metadata445">
    <rdf:RDF>
      <cc:Work
         rdf:about="">
        <dc:format>image/svg+xml</dc:format>
        <dc:type
           rdf:resource="http://purl.org/dc/dcmitype/StillImage" />
        <dc:title></dc:title>
      </cc:Work>
    </rdf:RDF>
  </metadata>
  <g
     transform="translate(-91.553388,-137.22812)"
     id="layer1"
     inkscape:groupmode="layer"
     inkscape:label="Layer 1">
    <path
       style="font-variation-settings:normal;opacity:1;vector-effect:none;fill:none;fill-opacity:0.461538;stroke:#000000;stroke-width:0.8;stroke-linecap:round;stroke-linejoin:round;stroke-miterlimit:4;stroke-dasharray:none;stroke-dashoffset:0;stroke-opacity:1;stop-color:#000000;stop-opacity:1"
       d="m 96.194941,156.909 c -1.38883,-0.36641 -2.780794,-1.45756 -3.336363,-2.61537 -0.870493,-1.8141 -0.311062,-3.80194 1.368488,-4.86267 1.048127,-0.66195 1.055212,-0.78945 0.08733,-1.57146 -1.428689,-1.15433 -1.76195,-2.35952 -1.05151,-3.80263 0.619634,-1.25865 2.397239,-2.51538 4.19922,-2.96874 1.030036,-0.25916 2.963694,-0.25873 4.213494,9.2e-4 1.23984,0.25759 1.28314,0.25206 1.79842,-0.22993 0.51846,-0.48496 0.79828,-0.56114 1.8806,-0.51199 0.69389,0.0315 0.83021,0.0738 1.70725,0.52983 0.52423,0.27256 1.0325,0.49557 1.12949,0.49557 0.097,0 0.39894,-0.18072 0.671,-0.4016 2.06633,-1.67758 3.12608,-2.15095 4.81021,-2.14861 1.41579,0.002 2.31281,0.34596 3.27906,1.25747 1.26458,1.19295 1.5984,2.36888 1.10277,3.88473 -0.11503,0.35181 -0.34438,0.66509 -0.93679,1.27963 l -0.78447,0.81376 0.074,0.54518 c 0.24503,1.80562 -0.832,3.21683 -3.46338,4.53798 -2.21405,1.11163 -3.23563,1.37664 -5.55126,1.44011 -0.93549,0.0256 -1.79138,0.065 -1.90199,0.0875 -0.11061,0.0225 -0.78517,0.5959 -1.49903,1.27421 -0.71386,0.67831 -1.55011,1.40455 -1.85833,1.61385 -0.80411,0.54606 -1.99395,1.09208 -2.858621,1.31182 -0.892857,0.2269 -2.302546,0.24539 -3.079564,0.0404 z"
       id="path2871" />
    <path
       style="fill:#fa8807;fill-opacity:0.53846157;fill-rule:evenodd;stroke:#000000;stroke-width:1.60433189;stroke-linecap:round;stroke-linejoin:round;stroke-miterlimit:4;stroke-dasharray:none;stroke-opacity:1"
       d="m 86.221102,65.269996 c -0.981735,-0.687634 -1.658404,-2.732831 -1.357482,-4.10292 0.314996,-1.434166 1.750832,-2.503115 3.362238,-2.503115 1.53691,0 2.68951,0.7222 3.4262,2.146801 0.816413,1.578768 0.661239,2.78058 -0.510281,3.9521 -0.834185,0.834184 -1.356447,1.043956 -2.599105,1.043956 -0.855332,0 -1.900038,-0.24157 -2.32157,-0.536822 z"
       id="path2955"
       transform="matrix(0.26458333,0,0,0.26458333,91.553388,137.22812)" />
    <path
       style="fill:#fa8807;fill-opacity:0.53846157;fill-rule:evenodd;stroke:#000000;stroke-width:0.285713;stroke-linecap:round;stroke-linejoin:round;stroke-miterlimit:4;stroke-dasharray:none;stroke-opacity:1"
       d="m 117.0214,156.92954 c -0.34082,-0.22757 -0.41469,-0.85326 -0.13104,-1.10996 0.60874,-0.5509 1.54244,0.28356 1.0367,0.92651 -0.20087,0.25535 -0.65899,0.34815 -0.90566,0.18345 z"
       id="path2957" />
    <path
       style="fill:#fa8807;fill-opacity:0.53846157;fill-rule:evenodd;stroke:#000000;stroke-width:0.285713;stroke-linecap:round;stroke-linejoin:round;stroke-miterlimit:4;stroke-dasharray:none;stroke-opacity:1"
       d="m 119.05606,158.6963 c -0.22106,-0.22105 -0.23447,-0.49509 -0.034,-0.6955 0.32616,-0.32617 0.83731,-0.015 0.7799,0.47474 -0.0419,0.35781 -0.47934,0.48728 -0.74585,0.22076 z"
       id="path2959" />
    </g>
</svg>
