<?xml version="1.0" encoding="UTF-8" standalone="no"?>
<svg
   xmlns:dc="http://purl.org/dc/elements/1.1/"
   xmlns:cc="http://creativecommons.org/ns#"
   xmlns:rdf="http://www.w3.org/1999/02/22-rdf-syntax-ns#"
   xmlns:svg="http://www.w3.org/2000/svg"
   xmlns="http://www.w3.org/2000/svg"
   xmlns:sodipodi="http://sodipodi.sourceforge.net/DTD/sodipodi-0.dtd"
   xmlns:inkscape="http://www.inkscape.org/namespaces/inkscape"
   sodipodi:docname="cloud1d.svg"
   inkscape:version="1.0 (4035a4f, 2020-05-01)"
   id="svg448"
   version="1.1"
   viewBox="0 0 28.560213 21.877028"
   height="21.877028mm"
   width="28.560213mm">
  <defs
     id="defs442">
    <inkscape:path-effect
       effect="fill_between_many"
       id="path-effect21"
       is_visible="true"
       lpeversion="1"
       linkedpaths=""
       method="bsplinespiro"
       fuse="false"
       join="true"
       close="true"
       autoreverse="true"
       applied="false" />
    <inkscape:path-effect
       effect="fill_between_many"
       id="path-effect19"
       is_visible="true"
       lpeversion="1"
       linkedpaths=""
       method="bsplinespiro"
       fuse="false"
       join="true"
       close="true"
       autoreverse="true"
       applied="false" />
  </defs>
  <sodipodi:namedview
     inkscape:window-maximized="0"
     inkscape:window-y="23"
     inkscape:window-x="0"
     inkscape:window-height="990"
     inkscape:window-width="1003"
     showgrid="false"
     inkscape:document-rotation="0"
     inkscape:current-layer="layer1"
     inkscape:document-units="mm"
     inkscape:cy="82.771103"
     inkscape:cx="48.07859"
     inkscape:zoom="2.8"
     inkscape:pageshadow="2"
     inkscape:pageopacity="0.0"
     borderopacity="1.0"
     bordercolor="#666666"
     pagecolor="#ffffff"
     id="base" />
  <metadata
     id="metadata445">
    <rdf:RDF>
      <cc:Work
         rdf:about="">
        <dc:format>image/svg+xml</dc:format>
        <dc:type
           rdf:resource="http://purl.org/dc/dcmitype/StillImage" />
        <dc:title />
      </cc:Work>
    </rdf:RDF>
  </metadata>
  <g className="highLine"
     transform="translate(-91.553388,-137.22812)"
     id="layer1"
     inkscape:groupmode="layer"
     inkscape:label="Layer 1">
    <path
       style="stroke-width:0.264583"
       d="m 115.5548,155.00723 c 0.30956,-0.10848 0.53975,-0.30956 0.67204,-0.58208 0.127,-0.26459 0.16933,-0.58473 0.11906,-0.89959 -0.0476,-0.29104 -0.18785,-0.57679 -0.39687,-0.79904 -0.2249,-0.23812 -0.51065,-0.38364 -0.79375,-0.40746 -0.29898,-0.0476 -0.60855,-0.0106 -0.87313,0.11113 -0.29369,0.13494 -0.51329,0.35454 -0.62706,0.63765 -0.11377,0.27781 -0.13759,0.61383 -0.0609,0.94456 0.0529,0.23548 0.1561,0.45773 0.29369,0.64294 0.1852,0.24606 0.4392,0.39952 0.73554,0.44714 0.29368,0.0423 0.63235,0.008 0.93133,-0.0953 z m -0.68527,-0.27517 c -0.24607,0 -0.44186,-0.0688 -0.58473,-0.20902 -0.28046,-0.27516 -0.41011,-0.74877 -0.32015,-1.15887 0.0529,-0.23548 0.19315,-0.42598 0.39158,-0.5424 0.13759,-0.0794 0.29634,-0.12435 0.48684,-0.13493 0.2196,-0.0132 0.42862,0.0344 0.60589,0.13758 0.0344,0.0185 0.0688,0.0423 0.10054,0.0661 0.17463,0.12964 0.30692,0.3175 0.37571,0.52916 0.0106,0.0318 0.0185,0.0635 0.0265,0.0979 0.0847,0.37571 -0.003,0.87048 -0.39423,1.07157 -0.18256,0.0926 -0.41275,0.14023 -0.68791,0.14287 z"
       id="path336" />
    <path
       style="stroke-width:0.264583"
       d="m 117.82228,157.26677 c 0.22489,-0.0794 0.39422,-0.22489 0.48947,-0.42598 0.0926,-0.19314 0.12436,-0.42598 0.0873,-0.65616 -0.0344,-0.21167 -0.13758,-0.42069 -0.28839,-0.58209 -0.16404,-0.17462 -0.37306,-0.28045 -0.57679,-0.29633 -0.21696,-0.0344 -0.44186,-0.008 -0.635,0.082 -0.21432,0.0979 -0.37307,0.25929 -0.45773,0.46302 -0.0847,0.20373 -0.10054,0.44715 -0.045,0.69056 0.0397,0.17198 0.11377,0.33338 0.21431,0.46832 0.13494,0.17991 0.32015,0.29104 0.5371,0.32543 0.20902,0.0318 0.45773,0.008 0.67469,-0.0688 z m -0.50007,-0.20108 c -0.17991,0 -0.32279,-0.0503 -0.42598,-0.15081 -0.20373,-0.19844 -0.29898,-0.54769 -0.23283,-0.84402 0.0397,-0.16934 0.14023,-0.31221 0.28575,-0.39423 0.10054,-0.0582 0.21431,-0.09 0.35454,-0.0979 0.1614,-0.008 0.31221,0.0265 0.44186,0.10054 0.0265,0.0132 0.0503,0.0291 0.0714,0.0476 0.127,0.0952 0.22489,0.23283 0.27516,0.38629 0.008,0.0238 0.0132,0.0476 0.0185,0.0714 0.0635,0.27252 0,0.635 -0.28839,0.78052 -0.13229,0.0661 -0.29898,0.10054 -0.50007,0.10054 z"
       id="path338" />
    <path
       style="stroke-width:0.264583"
       d="m 119.6823,159.04477 c 0.16404,-0.0582 0.28575,-0.16404 0.35718,-0.30956 0.0662,-0.14023 0.09,-0.30956 0.0635,-0.4789 -0.0238,-0.15345 -0.10054,-0.30691 -0.21166,-0.42333 -0.11907,-0.127 -0.26988,-0.20373 -0.42069,-0.21696 -0.15875,-0.0265 -0.32279,-0.005 -0.46302,0.0582 -0.15611,0.0714 -0.27252,0.18786 -0.33338,0.33867 -0.0608,0.14817 -0.0714,0.32544 -0.0317,0.50271 0.0291,0.12435 0.082,0.24341 0.15611,0.34131 0.0979,0.12965 0.23283,0.21167 0.39158,0.23813 0.15346,0.0238 0.33338,0.005 0.49213,-0.0503 z m -0.36248,-0.14552 c -0.12965,0 -0.23548,-0.037 -0.31221,-0.11112 -0.14817,-0.14552 -0.21961,-0.39688 -0.16933,-0.61384 0.0291,-0.12435 0.10318,-0.22754 0.20902,-0.28839 0.0741,-0.0423 0.1561,-0.0661 0.25664,-0.0714 0.11642,-0.005 0.22754,0.0185 0.32279,0.0741 0.0185,0.0106 0.037,0.0212 0.0529,0.0344 0.0926,0.0688 0.16405,0.16933 0.20109,0.28046 0.005,0.0159 0.0106,0.0344 0.0132,0.0529 0.045,0.19843 0,0.46302 -0.20902,0.56885 -0.0979,0.0476 -0.21961,0.0714 -0.36513,0.0741 z"
       id="path340" />
    <path
       style="stroke-width:0.264583"
       d="m 118.64248,139.95244 c -1.30704,-2.37067 -4.32329,-3.19617 -6.81302,-2.46856 -1.41816,0.41275 -2.65641,1.24354 -3.69358,2.27806 -0.88635,-0.67469 -1.95792,-1.06098 -3.0824,-1.07686 -1.09802,-0.0159 -2.27012,0.381 -2.69875,1.47373 -0.003,0.005 -0.003,0.0106 -0.005,0.0159 -2.01876,-0.91281 -4.381487,-0.79375 -6.410842,0.082 -2.047875,0.88371 -4.175125,2.74108 -3.783541,5.20965 0.182562,1.15622 0.981604,1.88648 1.828271,2.57704 -1.894417,0.85196 -2.820459,3.25966 -2.275417,5.23081 0.679979,2.46063 3.066521,3.99785 5.532437,4.13279 2.778122,0.15081 5.328712,-1.28323 7.239002,-3.20146 0.23283,-0.23283 0.45773,-0.4736 0.67469,-0.72231 0.24606,-0.28046 0.41539,-0.60589 0.8255,-0.57944 0.70643,0.0476 1.38906,0.11377 2.10079,0.0582 1.44991,-0.11112 2.8575,-0.49741 4.19364,-1.05833 1.36525,-0.57415 2.80459,-1.28587 3.83911,-2.37067 0.93133,-0.97631 1.51341,-2.39448 1.15093,-3.72798 1.90765,-1.18533 2.43946,-3.92377 1.37848,-5.85258 z m -2.032,5.34194 c -0.13758,0.0714 -0.23283,0.2831 -0.17727,0.43391 0.43392,1.143 -0.0212,2.36273 -0.82285,3.22263 -0.84138,0.89958 -1.98173,1.50019 -3.08769,2.01348 -1.18004,0.55033 -2.43946,0.96308 -3.73062,1.15623 -0.66146,0.10054 -1.3335,0.13229 -2.00025,0.10054 -0.60855,-0.0291 -1.2118,-0.22754 -1.71715,0.2196 -0.43921,0.38894 -0.78846,0.89429 -1.2065,1.30969 -0.4445,0.43921 -0.91546,0.8546 -1.42081,1.22238 -0.99748,0.72495 -2.11402,1.27793 -3.323168,1.53987 -2.323042,0.50271 -4.902729,-0.20108 -6.193896,-2.31246 -0.611188,-1.00012 -0.799042,-2.18281 -0.436563,-3.30464 0.351896,-1.09538 1.190625,-2.00555 2.275417,-2.40507 0.277813,-0.10318 0.343958,-0.46302 0.08202,-0.6297 -0.804333,-0.51594 -1.680104,-1.19857 -1.971146,-2.14842 -0.314854,-1.02923 0.03969,-2.14842 0.695854,-2.96863 1.288521,-1.60866 3.556,-2.4765 5.572125,-2.55058 1.137707,-0.0423 2.275417,0.1561 3.370797,0.45773 0.23547,0.13494 0.61118,0.09 0.74347,-0.24342 0.28575,-0.73025 1.34673,-0.81227 2.0029,-0.76994 0.93927,0.0609 1.86796,0.45244 2.57969,1.06892 0.17991,0.15611 0.4736,0.19579 0.64823,0 1.56633,-1.75948 3.99785,-3.01625 6.38968,-2.4421 2.04259,0.48948 3.76767,2.21721 3.47663,4.42912 -0.14288,1.08744 -0.75935,2.09815 -1.7489,2.60086 z"
       id="path410"
       onclick="" />
  </g>
</svg>
