<?xml version="1.0" encoding="UTF-8" standalone="no"?>
<svg
   xmlns:dc="http://purl.org/dc/elements/1.1/"
   xmlns:cc="http://creativecommons.org/ns#"
   xmlns:rdf="http://www.w3.org/1999/02/22-rdf-syntax-ns#"
   xmlns:svg="http://www.w3.org/2000/svg"
   xmlns="http://www.w3.org/2000/svg"
   xmlns:sodipodi="http://sodipodi.sourceforge.net/DTD/sodipodi-0.dtd"
   xmlns:inkscape="http://www.inkscape.org/namespaces/inkscape"
   sodipodi:docname="cloud2d.svg"
   inkscape:version="1.0 (4035a4f, 2020-05-01)"
   id="svg677"
   version="1.1"
   viewBox="0 0 35.963799 16.757874"
   height="16.757874mm"
   width="35.963799mm">
  <defs
     id="defs671" />
  <sodipodi:namedview
     inkscape:window-maximized="0"
     inkscape:window-y="23"
     inkscape:window-x="0"
     inkscape:window-height="990"
     inkscape:window-width="1252"
     showgrid="false"
     inkscape:document-rotation="0"
     inkscape:current-layer="layer1"
     inkscape:document-units="mm"
     inkscape:cy="1134.526"
     inkscape:cx="1105.1061"
     inkscape:zoom="0.35"
     inkscape:pageshadow="2"
     inkscape:pageopacity="0.0"
     borderopacity="1.0"
     bordercolor="#666666"
     pagecolor="#ffffff"
     id="base" />
  <metadata
     id="metadata674">
    <rdf:RDF>
      <cc:Work
         rdf:about="">
        <dc:format>image/svg+xml</dc:format>
        <dc:type
           rdf:resource="http://purl.org/dc/dcmitype/StillImage" />
        <dc:title></dc:title>
      </cc:Work>
    </rdf:RDF>
  </metadata>
  <g
     transform="translate(186.55931,152.01)"
     id="layer1"
     inkscape:groupmode="layer"
     inkscape:label="Layer 1">
    <path
       style="stroke-width:0.264583"
       d="m -156.40047,-143.89013 c 0.12171,-0.30428 0.12171,-0.61119 0,-0.889 -0.11642,-0.26988 -0.33073,-0.51065 -0.6006,-0.67998 -0.24871,-0.15611 -0.55827,-0.23813 -0.86519,-0.2249 -0.32808,0.0132 -0.62442,0.13229 -0.82815,0.33073 -0.23283,0.19315 -0.40746,0.45244 -0.48948,0.73025 -0.0926,0.30956 -0.0688,0.61912 0.0688,0.89165 0.13494,0.26987 0.37307,0.508 0.67205,0.66675 0.21431,0.11377 0.44714,0.18256 0.67733,0.20108 0.30692,0.0212 0.59002,-0.0688 0.82021,-0.26194 0.23018,-0.1905 0.42862,-0.46831 0.54504,-0.76464 z m -0.65881,0.33866 c -0.1614,0.18521 -0.34396,0.2884 -0.5424,0.30427 -0.38894,0.0317 -0.83608,-0.18256 -1.08214,-0.51858 -0.14288,-0.19315 -0.1958,-0.42598 -0.15082,-0.65352 0.0291,-0.15611 0.10055,-0.30427 0.21696,-0.45508 0.13494,-0.17463 0.30956,-0.30163 0.50271,-0.36778 0.037,-0.0132 0.0767,-0.0238 0.11377,-0.0317 0.21167,-0.045 0.44186,-0.0238 0.64558,0.0635 0.0317,0.0132 0.0608,0.0291 0.0926,0.045 0.33867,0.18257 0.65617,0.5715 0.54769,1.00013 -0.0476,0.19844 -0.16404,0.40481 -0.34396,0.61383 z"
       id="path330" />
    <path
       style="stroke-width:0.264583"
       d="m -153.2043,-144.11503 c 0.0873,-0.22225 0.0873,-0.4445 0,-0.64823 -0.0847,-0.19579 -0.24077,-0.37306 -0.43657,-0.49477 -0.18256,-0.11377 -0.40745,-0.17198 -0.6297,-0.16404 -0.23813,0.0106 -0.45509,0.0979 -0.60325,0.24077 -0.16934,0.14023 -0.29634,0.33073 -0.35719,0.53181 -0.0688,0.2249 -0.0503,0.44979 0.0503,0.65088 0.0979,0.19579 0.27252,0.37041 0.48948,0.48683 0.1561,0.0847 0.32544,0.13494 0.49212,0.14552 0.2249,0.0159 0.43127,-0.0503 0.59796,-0.1905 0.16669,-0.14023 0.30956,-0.34396 0.39688,-0.55827 z m -0.48154,0.24606 c -0.11642,0.13494 -0.25136,0.21167 -0.39423,0.22225 -0.28311,0.0212 -0.60855,-0.13229 -0.78846,-0.37835 -0.10319,-0.14023 -0.14288,-0.30956 -0.11113,-0.47625 0.0212,-0.11377 0.0741,-0.22225 0.15875,-0.33073 0.0979,-0.127 0.2249,-0.21961 0.36513,-0.26723 0.0265,-0.0106 0.0556,-0.0185 0.0847,-0.0238 0.1561,-0.0344 0.32279,-0.0159 0.47096,0.0476 0.0212,0.0106 0.045,0.0212 0.0661,0.0317 0.24606,0.13229 0.47889,0.41804 0.39952,0.73025 -0.037,0.14288 -0.12171,0.29369 -0.25136,0.4445 z"
       id="path332" />
    <path
       style="stroke-width:0.264583"
       d="m -150.64314,-144.35051 c 0.0635,-0.1614 0.0635,-0.32544 0,-0.47096 -0.0609,-0.14287 -0.17462,-0.27252 -0.3175,-0.36248 -0.13229,-0.082 -0.29633,-0.127 -0.45773,-0.11906 -0.17462,0.008 -0.33072,0.0714 -0.4392,0.17463 -0.12436,0.10318 -0.21696,0.24077 -0.2593,0.38893 -0.0503,0.16404 -0.037,0.32809 0.037,0.47361 0.0714,0.14287 0.19844,0.26987 0.35719,0.35454 0.11377,0.0609 0.23813,0.0979 0.35984,0.10583 0.16404,0.0106 0.31485,-0.037 0.43656,-0.14023 0.11641,-0.10318 0.2196,-0.24871 0.2831,-0.40481 z m -0.35189,0.17727 c -0.0847,0.0979 -0.18256,0.15346 -0.2884,0.1614 -0.20637,0.0159 -0.4445,-0.0979 -0.57414,-0.27517 -0.0767,-0.10319 -0.10319,-0.2249 -0.0794,-0.3466 0.0159,-0.082 0.0529,-0.1614 0.11641,-0.24077 0.0714,-0.0926 0.16404,-0.15875 0.26723,-0.1958 0.0212,-0.008 0.0397,-0.0132 0.0609,-0.0159 0.11377,-0.0238 0.23548,-0.0132 0.34396,0.0344 0.0159,0.008 0.0318,0.0159 0.0476,0.0238 0.17992,0.0979 0.34925,0.30427 0.29104,0.53181 -0.0265,0.10319 -0.09,0.21167 -0.18521,0.32279 z"
       id="path334" />
    <path
       style="stroke-width:0.264583"
       d="m -164.26918,-149.42786 c -0.91546,-0.53711 -2.00819,-0.87842 -3.0771,-0.83344 -0.52917,0.0212 -1.0504,0.13494 -1.52665,0.37306 -0.23548,0.11906 -0.45773,0.28046 -0.64823,0.46302 -0.0741,0.0714 -0.14552,0.18786 -0.23018,0.24077 -0.008,0.005 -0.0132,0.0106 -0.0159,0.0132 -0.005,-0.003 -0.0106,-0.005 -0.0212,-0.008 -0.0661,-0.0238 -0.14816,-0.10847 -0.19843,-0.15081 -1.80446,-1.44991 -3.92642,-2.51619 -6.26798,-2.66435 -2.07434,-0.13229 -4.24657,0.57944 -5.73882,2.04787 -0.36512,0.35984 -0.68262,0.76729 -0.94985,1.20386 -0.037,0.0635 -0.0582,0.12435 -0.0688,0.18521 -0.23283,-0.0476 -0.46567,-0.0635 -0.72496,-0.0318 -0.39423,0.0476 -0.77523,0.16139 -1.12448,0.35189 -0.73819,0.39688 -1.27264,1.10596 -1.52929,1.89706 -0.45508,1.397 0.0423,2.99244 1.13771,3.93965 -0.58473,0.40481 -0.97102,1.11919 -1.143,1.78594 -0.22754,0.87577 -0.15081,1.83356 0.18521,2.67229 0.33337,0.83344 0.889,1.56898 1.65364,2.05317 0.96044,0.60854 2.15106,0.73818 3.25702,0.56885 1.14829,-0.17463 2.21721,-0.70115 3.15913,-1.3679 0.47096,-0.33337 0.92075,-0.70114 1.35202,-1.08214 0.20373,-0.17992 0.40746,-0.4154 0.65352,-0.53711 0.30427,-0.15081 0.4789,0.0953 0.70908,0.27517 1.59015,1.25148 3.64332,1.8706 5.66209,1.76213 1.98966,-0.10584 4.19629,-0.91282 5.41073,-2.57175 0.15081,-0.20638 0.27516,-0.42334 0.37835,-0.65617 0.0291,-0.0688 0.0609,-0.24606 0.11642,-0.2884 0.0609,-0.0476 0.32279,-0.037 0.40481,-0.0556 0.49742,-0.11377 0.95779,-0.40481 1.30704,-0.77258 0.78317,-0.8255 1.05304,-1.98702 1.05304,-3.09562 -0.003,-2.31775 -1.16152,-4.54025 -3.175,-5.71765 z m 1.48696,8.31056 c -0.16404,0.16139 -0.35454,0.29633 -0.56356,0.39423 -0.23813,0.10848 -0.47625,0.10583 -0.72231,0.16933 -0.49742,0.12436 -0.55034,0.62442 -0.77523,1.01071 -0.25136,0.42598 -0.6059,0.7911 -0.99484,1.09008 -0.73554,0.56621 -1.60602,0.95515 -2.50296,1.18269 -1.76477,0.4445 -3.72533,0.25135 -5.35252,-0.57415 -0.41539,-0.20902 -0.81491,-0.45772 -1.18004,-0.74612 -0.38894,-0.30692 -0.7276,-0.66675 -1.27,-0.55298 -0.51858,0.10848 -0.90223,0.55563 -1.28323,0.889 -0.39952,0.34925 -0.80962,0.68527 -1.24618,0.98425 -1.6219,1.11654 -4.09046,1.92088 -5.79438,0.49477 -1.21444,-1.016 -1.68804,-2.93158 -0.90223,-4.34446 0.22225,-0.39687 0.52123,-0.72231 0.96838,-0.85196 0.29633,-0.0873 0.38364,-0.53445 0.0899,-0.68527 -1.21972,-0.63235 -1.91822,-2.15106 -1.51077,-3.48456 0.20373,-0.6641 0.65088,-1.25148 1.26736,-1.58221 0.58208,-0.31485 1.30969,-0.35189 1.96321,-0.30427 0.17991,0.037 0.3757,-0.0212 0.50006,-0.22225 0.96308,-1.56369 2.72521,-2.51354 4.52702,-2.71462 2.05317,-0.22754 4.0931,0.4736 5.8076,1.56898 0.4498,0.28839 0.86519,0.61648 1.28852,0.94191 0.4789,0.36513 1.00807,0.37042 1.44728,-0.0582 0.33072,-0.3228 0.61912,-0.55828 1.0795,-0.67734 0.4392,-0.11377 0.91545,-0.11377 1.3626,-0.0423 2.00554,0.32544 3.62744,1.82298 4.28096,3.71739 0.33866,0.9869 0.43921,2.07963 0.19579,3.10092 -0.11906,0.48684 -0.32279,0.94456 -0.67998,1.29646 z"
       id="path412" />
  </g>
</svg>
