<?xml version="1.0" encoding="UTF-8" standalone="no"?>
<svg
   xmlns:dc="http://purl.org/dc/elements/1.1/"
   xmlns:cc="http://creativecommons.org/ns#"
   xmlns:rdf="http://www.w3.org/1999/02/22-rdf-syntax-ns#"
   xmlns:svg="http://www.w3.org/2000/svg"
   xmlns="http://www.w3.org/2000/svg"
   xmlns:sodipodi="http://sodipodi.sourceforge.net/DTD/sodipodi-0.dtd"
   xmlns:inkscape="http://www.inkscape.org/namespaces/inkscape"
   sodipodi:docname="cloud4d.svg"
   inkscape:version="1.0 (4035a4f, 2020-05-01)"
   id="svg1121"
   version="1.1"
   viewBox="0 0 35.863285 30.061445"
   height="30.061445mm"
   width="35.863285mm">
  <defs
     id="defs1115" />
  <sodipodi:namedview
     inkscape:window-maximized="0"
     inkscape:window-y="23"
     inkscape:window-x="0"
     inkscape:window-height="990"
     inkscape:window-width="1252"
     showgrid="false"
     inkscape:document-rotation="0"
     inkscape:current-layer="layer1"
     inkscape:document-units="mm"
     inkscape:cy="56.809018"
     inkscape:cx="67.773137"
     inkscape:zoom="0.35"
     inkscape:pageshadow="2"
     inkscape:pageopacity="0.0"
     borderopacity="1.0"
     bordercolor="#666666"
     pagecolor="#ffffff"
     id="base" />
  <metadata
     id="metadata1118">
    <rdf:RDF>
      <cc:Work
         rdf:about="">
        <dc:format>image/svg+xml</dc:format>
        <dc:type
           rdf:resource="http://purl.org/dc/dcmitype/StillImage" />
        <dc:title></dc:title>
      </cc:Work>
    </rdf:RDF>
  </metadata>
  <g
     transform="translate(-87.901691,-133.13595)"
     id="layer1"
     inkscape:groupmode="layer"
     inkscape:label="Layer 1">
    <path
       style="stroke-width:0.264583"
       d="m 114.1752,159.15443 c 0.30427,-0.10584 0.53446,-0.30427 0.66146,-0.57415 0.12436,-0.26194 0.16669,-0.57679 0.11642,-0.88635 -0.045,-0.28575 -0.18521,-0.56886 -0.39159,-0.78846 -0.22224,-0.23548 -0.5027,-0.37835 -0.78316,-0.40217 -0.29369,-0.0476 -0.60061,-0.0106 -0.86254,0.10848 -0.29104,0.13229 -0.50536,0.34925 -0.61913,0.62971 -0.11377,0.27517 -0.13494,0.6059 -0.0609,0.93398 0.0529,0.23283 0.15346,0.45244 0.2884,0.63235 0.18256,0.24342 0.43391,0.39423 0.7276,0.44186 0.29369,0.0423 0.62971,0.008 0.9234,-0.0953 z m -0.67733,-0.27252 c -0.24342,0 -0.43656,-0.0688 -0.57679,-0.20638 -0.27517,-0.26987 -0.40481,-0.74083 -0.31486,-1.143 0.0529,-0.23019 0.1905,-0.42069 0.38894,-0.53446 0.13494,-0.0794 0.29104,-0.1217 0.4789,-0.13229 0.21696,-0.0132 0.42333,0.0344 0.59796,0.13494 0.0344,0.0185 0.0662,0.0423 0.0979,0.0635 0.17198,0.12965 0.30427,0.31485 0.37041,0.52123 0.0106,0.0317 0.0185,0.0635 0.0265,0.0979 0.0847,0.37042 -0.003,0.85989 -0.38894,1.05569 -0.17991,0.0953 -0.4101,0.14023 -0.67997,0.14287 z"
       id="path350" />
    <path
       style="stroke-width:0.264583"
       d="m 116.41358,161.38487 c 0.22225,-0.0767 0.38894,-0.22225 0.48154,-0.41805 0.09,-0.1905 0.12171,-0.42068 0.0847,-0.64558 -0.0344,-0.20902 -0.13494,-0.41539 -0.28575,-0.57414 -0.1614,-0.17198 -0.36777,-0.27517 -0.5715,-0.29369 -0.21431,-0.0344 -0.43656,-0.008 -0.62706,0.0794 -0.21167,0.0952 -0.36777,0.254 -0.45244,0.45773 -0.082,0.20108 -0.0979,0.44185 -0.045,0.67998 0.0397,0.16933 0.11112,0.32808 0.21167,0.46037 0.13229,0.17727 0.3175,0.2884 0.52916,0.32015 0.21432,0.0344 0.46038,0.0106 0.67469,-0.0661 z m -0.49477,-0.19844 c -0.17727,0 -0.3175,-0.0503 -0.42069,-0.15081 -0.20108,-0.1958 -0.29633,-0.53975 -0.23019,-0.83344 0.037,-0.16933 0.13759,-0.30692 0.28311,-0.39158 0.0979,-0.0582 0.21166,-0.09 0.34925,-0.0952 0.15875,-0.008 0.30956,0.0265 0.43656,0.0979 0.0238,0.0132 0.0476,0.0291 0.0714,0.0476 0.12435,0.0926 0.22225,0.22754 0.26987,0.381 0.008,0.0238 0.0132,0.0476 0.0185,0.0714 0.0609,0.26987 0,0.62706 -0.2831,0.76993 -0.12965,0.0688 -0.29633,0.10319 -0.49477,0.10319 z"
       id="path352" />
    <path
       style="stroke-width:0.264583"
       d="m 118.24979,163.13905 c 0.16139,-0.0556 0.2831,-0.16139 0.35189,-0.30427 0.0661,-0.14023 0.09,-0.30691 0.0635,-0.47096 -0.0238,-0.15081 -0.0979,-0.30162 -0.20902,-0.41804 -0.11642,-0.12435 -0.26723,-0.20108 -0.41539,-0.21431 -0.15611,-0.0265 -0.3175,-0.005 -0.45773,0.0582 -0.15346,0.0688 -0.26723,0.18521 -0.32809,0.33338 -0.0608,0.14552 -0.0714,0.32279 -0.0317,0.49477 0.0291,0.12435 0.082,0.24077 0.15346,0.33602 0.0979,0.12964 0.23019,0.20902 0.38629,0.23283 0.15082,0.0238 0.33073,0.008 0.48684,-0.0476 z m -0.35984,-0.14552 c -0.12964,0 -0.23283,-0.037 -0.30691,-0.10848 -0.14552,-0.14287 -0.21432,-0.39423 -0.16669,-0.60589 0.0265,-0.12171 0.10054,-0.2249 0.20637,-0.28311 0.0714,-0.0423 0.15611,-0.0635 0.254,-0.0688 0.11642,-0.005 0.2249,0.0185 0.3175,0.0714 0.0185,0.0106 0.0344,0.0212 0.0529,0.0344 0.09,0.0688 0.1614,0.16669 0.19844,0.27782 0.005,0.0159 0.0106,0.0344 0.0132,0.0503 0.045,0.19579 0,0.45508 -0.20637,0.56091 -0.0979,0.0476 -0.21961,0.0714 -0.36248,0.0714 z"
       id="path354" />
    <path
       style="stroke-width:0.264583"
       d="m 123.70285,144.85899 c -0.37571,-2.82046 -2.77548,-5.26785 -5.64092,-5.3684 0.30427,-1.32027 -0.11377,-2.7305 -0.99219,-3.79412 -1.11918,-1.35467 -2.89189,-2.04258 -4.57729,-2.35479 -3.55335,-0.65617 -7.47712,0.22225 -9.81339,3.1406 -0.58209,0.72496 -1.03981,1.53194 -1.34144,2.413 -0.037,0.10583 -0.0741,0.21431 -0.10583,0.32279 -2.203982,-0.48683 -4.820712,0.22225 -6.741587,1.66423 -1.039812,0.67998 -1.984375,1.61131 -2.492375,2.74373 -0.346604,0.77788 -0.439208,1.67217 -0.193145,2.46327 0.02646,0.32279 0.08202,0.65352 0.174625,0.9869 -2.463271,1.22767 -4.159251,3.84969 -4.074584,6.64369 0.09525,3.13002 2.251604,5.99546 5.334,6.71512 1.643063,0.38365 3.386667,0.17463 4.876271,-0.61119 1.508125,2.15107 4.534955,2.27013 6.781275,1.25148 1.41816,-0.64293 2.64054,-1.6801 3.72533,-2.78341 1.12183,-1.143 2.12725,-2.41036 2.9845,-3.76238 0.0556,-0.0873 0.16669,-0.37042 0.26458,-0.42598 0.14288,-0.0794 0.43921,0.0873 0.57679,0.127 0.39159,0.10848 0.79905,0.16934 1.20386,0.20109 0.83079,0.0635 1.67746,-0.037 2.48708,-0.21961 1.41817,-0.31485 2.80458,-0.90223 3.98727,-1.75154 2.41036,-1.72773 3.97669,-4.58258 3.57717,-7.60148 z m -4.03754,6.68602 c -1.06098,0.78581 -2.27807,1.35202 -3.55336,1.68804 -0.7276,0.19315 -1.47373,0.30957 -2.22779,0.29369 -0.381,-0.008 -0.75671,-0.0503 -1.12448,-0.14023 -0.33073,-0.0794 -0.66675,-0.24606 -1.01335,-0.18785 -0.6059,0.10054 -0.89429,0.88371 -1.19856,1.33879 -0.42069,0.62971 -0.87577,1.23825 -1.35996,1.82298 -0.91811,1.10066 -1.94469,2.16429 -3.09298,3.02683 -1.18269,0.889 -2.58498,1.59544 -4.09575,1.56104 -1.35467,-0.0317 -2.719918,-0.62706 -3.418418,-1.83091 -0.105834,-0.17992 -0.351896,-0.24871 -0.531813,-0.14023 -2.44475,1.47108 -5.741458,1.03716 -7.678208,-1.07421 -1.867959,-2.03465 -2.2225,-5.11969 -0.841375,-7.51152 0.714375,-1.23825 1.836208,-2.25161 3.137958,-2.8575 0.08467,-0.0185 0.164042,-0.0556 0.232834,-0.10848 0.01058,-0.005 0.02117,-0.0106 0.0344,-0.0159 0.216958,-0.09 0.375708,-0.39158 0.153458,-0.57944 -0.0079,-0.005 -0.01323,-0.0132 -0.01852,-0.0185 -0.576792,-2.10873 0.703791,-4.13279 2.44475,-5.24669 1.717146,-1.10066 3.944937,-1.72243 5.931964,-1.09537 0.23019,0.21431 0.55827,0.30162 0.84667,0.0873 0.35189,-0.26458 0.34925,-0.69321 0.0529,-0.93927 0.008,-0.0344 0.0132,-0.0714 0.0212,-0.10319 0.0423,-0.14552 0.09,-0.29104 0.14287,-0.43391 0.10848,-0.29898 0.24871,-0.58473 0.40481,-0.86255 0.30692,-0.54768 0.68528,-1.04245 1.12448,-1.4896 0.94457,-0.96044 2.12725,-1.64306 3.42107,-2.01877 1.42081,-0.4101 2.9501,-0.4736 4.40795,-0.23283 1.3388,0.2196 2.77813,0.62706 3.83117,1.52135 1.05833,0.89958 1.75154,2.46856 1.07421,3.79942 -0.17198,0.33866 0.0291,0.90752 0.48683,0.84931 2.50561,-0.31221 4.78631,1.52929 5.31813,3.94229 0.57679,2.66965 -0.78846,5.37898 -2.91308,6.9559 z"
       id="path406" />
  </g>
</svg>
