<?xml version="1.0" encoding="UTF-8" standalone="no"?>
<svg
   xmlns:dc="http://purl.org/dc/elements/1.1/"
   xmlns:cc="http://creativecommons.org/ns#"
   xmlns:rdf="http://www.w3.org/1999/02/22-rdf-syntax-ns#"
   xmlns:svg="http://www.w3.org/2000/svg"
   xmlns="http://www.w3.org/2000/svg"
   xmlns:sodipodi="http://sodipodi.sourceforge.net/DTD/sodipodi-0.dtd"
   xmlns:inkscape="http://www.inkscape.org/namespaces/inkscape"
   sodipodi:docname="cloud6d.svg"
   inkscape:version="1.0 (4035a4f, 2020-05-01)"
   id="svg1565"
   version="1.1"
   viewBox="0 0 23.869257 26.765965"
   height="26.765965mm"
   width="23.869257mm">
  <defs
     id="defs1559" />
  <sodipodi:namedview
     inkscape:window-maximized="0"
     inkscape:window-y="23"
     inkscape:window-x="0"
     inkscape:window-height="990"
     inkscape:window-width="1252"
     showgrid="false"
     inkscape:document-rotation="0"
     inkscape:current-layer="layer1"
     inkscape:document-units="mm"
     inkscape:cy="1150.5814"
     inkscape:cx="1170.8214"
     inkscape:zoom="0.35"
     inkscape:pageshadow="2"
     inkscape:pageopacity="0.0"
     borderopacity="1.0"
     bordercolor="#666666"
     pagecolor="#ffffff"
     id="base" />
  <metadata
     id="metadata1562">
    <rdf:RDF>
      <cc:Work
         rdf:about="">
        <dc:format>image/svg+xml</dc:format>
        <dc:type
           rdf:resource="http://purl.org/dc/dcmitype/StillImage" />
        <dc:title></dc:title>
      </cc:Work>
    </rdf:RDF>
  </metadata>
  <g
     transform="translate(203.9465,156.25799)"
     id="layer1"
     inkscape:groupmode="layer"
     inkscape:label="Layer 1">
    <path
       style="stroke-width:0.264583"
       d="m -200.09952,-134.5804 c 0.16404,0.27781 0.40481,0.46302 0.69586,0.53446 0.28045,0.0714 0.59795,0.0503 0.89429,-0.0608 0.26987,-0.10319 0.52123,-0.29369 0.69585,-0.53975 0.18786,-0.26459 0.26988,-0.56886 0.23813,-0.84667 -0.0106,-0.29634 -0.10848,-0.59002 -0.27782,-0.82286 -0.18785,-0.25929 -0.44185,-0.42598 -0.73818,-0.48418 -0.29104,-0.0556 -0.62177,-0.0132 -0.92604,0.12435 -0.21696,0.0979 -0.41275,0.24077 -0.56357,0.4101 -0.20108,0.22755 -0.30162,0.50271 -0.28839,0.79905 0.0106,0.29633 0.10848,0.61912 0.26987,0.88635 z m 0.13229,-0.71702 c -0.0503,-0.23813 -0.0185,-0.44186 0.0873,-0.60854 0.21166,-0.32279 0.64558,-0.54504 1.05833,-0.53446 0.23812,0.005 0.44979,0.10319 0.6006,0.27517 0.10319,0.11641 0.17727,0.26193 0.2249,0.4445 0.0556,0.20902 0.0503,0.42333 -0.0159,0.61383 -0.0132,0.037 -0.0265,0.0741 -0.045,0.10848 -0.0926,0.19314 -0.2487,0.35983 -0.4392,0.46831 -0.0291,0.0159 -0.0582,0.0318 -0.09,0.045 -0.34661,0.1561 -0.84138,0.16933 -1.1139,-0.17198 -0.12171,-0.1614 -0.21431,-0.37571 -0.26723,-0.64029 z"
       id="path374" />
    <path
       style="stroke-width:0.264583"
       d="m -201.84577,-131.94515 c 0.11906,0.20108 0.29369,0.33602 0.50536,0.38894 0.20373,0.0529 0.43656,0.037 0.65087,-0.045 0.19844,-0.0741 0.381,-0.21432 0.508,-0.39423 0.13494,-0.19315 0.19844,-0.4154 0.17463,-0.61648 -0.008,-0.21696 -0.0794,-0.42863 -0.20373,-0.60061 -0.13494,-0.18785 -0.32279,-0.30956 -0.53711,-0.35189 -0.21166,-0.0423 -0.45243,-0.008 -0.67468,0.09 -0.15875,0.0714 -0.30163,0.17462 -0.41011,0.29898 -0.14817,0.16669 -0.2196,0.36777 -0.20902,0.58208 0.008,0.21961 0.0794,0.45244 0.19579,0.64823 z m 0.0979,-0.52388 c -0.037,-0.17197 -0.0132,-0.32279 0.0635,-0.44185 0.15346,-0.23548 0.47096,-0.39687 0.76994,-0.38894 0.17197,0.003 0.32808,0.0741 0.4392,0.19844 0.0767,0.0847 0.12965,0.1905 0.16405,0.32279 0.0397,0.15346 0.037,0.30692 -0.0106,0.44715 -0.008,0.0265 -0.0185,0.0529 -0.0318,0.0794 -0.0661,0.14023 -0.17991,0.26194 -0.32014,0.34131 -0.0212,0.0106 -0.0423,0.0238 -0.0661,0.0318 -0.25135,0.11377 -0.61383,0.12171 -0.81227,-0.127 -0.09,-0.11112 -0.1561,-0.26723 -0.19579,-0.46302 z"
       id="path376" />
    <path
       style="stroke-width:0.264583"
       d="m -203.20043,-129.79674 c 0.0873,0.14817 0.21431,0.24607 0.37041,0.28311 0.14817,0.037 0.3175,0.0265 0.47361,-0.0317 0.14287,-0.0529 0.27781,-0.15611 0.37041,-0.2884 0.0979,-0.14022 0.14288,-0.30162 0.127,-0.44979 -0.005,-0.15875 -0.0582,-0.31221 -0.14816,-0.43656 -0.10055,-0.13758 -0.23548,-0.22754 -0.39159,-0.25665 -0.1561,-0.0291 -0.33073,-0.005 -0.49212,0.0661 -0.11642,0.0529 -0.21961,0.127 -0.29898,0.21696 -0.10583,0.12171 -0.15875,0.26723 -0.15346,0.42334 0.005,0.15875 0.0582,0.33072 0.14288,0.4736 z m 0.0714,-0.38364 c -0.0265,-0.127 -0.0106,-0.23548 0.0476,-0.32279 0.11112,-0.17198 0.34131,-0.2884 0.56091,-0.28311 0.127,0.003 0.23813,0.0556 0.32015,0.14553 0.0556,0.0635 0.0952,0.14022 0.11906,0.23547 0.0291,0.11113 0.0265,0.2249 -0.008,0.32544 -0.005,0.0212 -0.0132,0.0397 -0.0238,0.0582 -0.0476,0.10319 -0.13229,0.1905 -0.23283,0.24871 -0.0159,0.008 -0.0317,0.0159 -0.0476,0.0238 -0.18521,0.082 -0.44714,0.09 -0.59002,-0.0926 -0.0688,-0.082 -0.11642,-0.19579 -0.14552,-0.33867 z"
       id="path378" />
    <path
       style="stroke-width:0.264583"
       d="m -181.158,-147.23807 c -0.62441,-0.82285 -1.44727,-1.4261 -2.37331,-1.74096 -0.89165,-0.30162 -1.78329,-0.22225 -2.56646,-0.0979 0.24606,-0.98954 0.14817,-2.07169 -0.28046,-3.06652 -0.52652,-1.22767 -1.57427,-2.286 -2.94481,-2.9845 -1.32027,-0.6694 -2.85221,-1.05834 -4.43177,-1.12184 -0.81492,-0.0344 -1.61925,0.0397 -2.38654,0.21696 -0.8599,0.19844 -1.65894,0.57679 -2.36273,0.90752 -1.11654,0.52652 -1.98438,1.05305 -2.71727,1.64307 -2.03729,1.34143 -3.10621,3.81264 -2.60086,6.01398 0.37571,1.64041 1.50813,3.00037 2.95275,3.5507 0.40746,0.15611 0.8599,0.26194 1.42875,0.33602 0.0423,0.005 0.11113,0.008 0.19315,0.0132 0.12965,0.005 0.52652,0.0212 0.57944,0.0926 0.0317,0.0582 -0.0159,0.31486 -0.037,0.42598 -0.0159,0.0847 -0.0291,0.15875 -0.0317,0.20638 -0.0503,0.85989 0.11377,1.74096 0.47095,2.54529 0.75142,1.69598 2.32569,2.75431 4.10105,2.76754 0.0106,0 0.0212,0 0.0291,0 0.86254,0 1.69069,-0.24871 2.33892,-0.70114 0.082,-0.0582 0.15875,-0.12171 0.23548,-0.18786 0.0608,-0.0503 0.11906,-0.10319 0.18256,-0.14816 l 0.0291,-0.0212 c 0.1561,-0.11642 0.16404,-0.12171 0.27252,-0.0476 0.0344,0.0238 0.0714,0.0688 0.10848,0.11112 0.0265,0.0318 0.0503,0.0609 0.0767,0.0847 0.32014,0.32015 0.68527,0.60325 1.09008,0.83608 0.89694,0.52123 1.89442,0.78317 2.91306,0.78317 0.61384,0 1.23825,-0.0953 1.85473,-0.2884 1.84679,-0.58208 3.44488,-1.98966 4.27302,-3.77031 1.03717,-2.23308 0.88636,-4.66725 -0.39687,-6.35794 z m -17.26935,3.07182 c -0.26723,-0.0953 -0.56356,-0.11642 -0.85196,-0.13494 -0.19844,-0.0132 -0.38894,-0.0265 -0.56621,-0.0635 -0.49741,-0.10319 -0.91016,-0.24606 -1.26206,-0.44186 -0.60854,-0.33866 -1.12977,-0.86518 -1.51077,-1.5187 -0.83608,-1.44463 -0.83079,-3.2385 0.0159,-4.68313 0.30692,-0.52387 0.71967,-1.01071 1.21444,-1.43933 0.76994,-0.58473 1.65894,-0.96044 2.65642,-1.35467 0.31221,-0.12435 0.61648,-0.26987 0.91281,-0.4101 0.3466,-0.16405 0.70379,-0.33602 1.06892,-0.46832 0.65352,-0.23812 1.34408,-0.37835 2.05052,-0.42333 2.41829,-0.14552 5.50598,0.63235 6.94796,2.69875 0.82285,1.18004 0.98425,2.64583 0.40745,3.73592 -0.0979,0.18521 -0.0873,0.38893 0.0265,0.54768 0.12171,0.16934 0.33602,0.254 0.55298,0.21961 0.12965,-0.0212 0.25929,-0.0423 0.38894,-0.0661 0.84138,-0.14552 1.63513,-0.2831 2.4421,-0.037 0.70644,0.21431 1.37848,0.67733 1.89178,1.3044 1.03187,1.26206 1.24883,3.17764 0.5715,4.99798 -0.62707,1.6801 -1.99232,3.048 -3.65919,3.66447 -1.42346,0.52653 -2.91042,0.42598 -4.18836,-0.2831 -0.3466,-0.19315 -0.65881,-0.42069 -0.92868,-0.68263 -0.0423,-0.0397 -0.0847,-0.0847 -0.127,-0.12964 -0.20373,-0.21167 -0.43392,-0.44979 -0.78052,-0.46038 -0.008,0 -0.0159,0 -0.0238,0 -0.33603,0 -0.56886,0.21696 -0.77523,0.40746 -0.0582,0.0529 -0.11377,0.10584 -0.17198,0.15346 -0.29104,0.23548 -0.635,0.4154 -1.02394,0.53181 -1.524,0.46038 -3.20675,-0.17727 -4.09311,-1.55045 -0.42862,-0.66411 -0.67998,-1.43934 -0.7276,-2.24367 -0.008,-0.12171 0.008,-0.28046 0.0212,-0.44715 0.0476,-0.51329 0.11113,-1.21179 -0.47889,-1.42345 z"
       id="path416" />
  </g>
</svg>
