<?xml version="1.0" encoding="UTF-8" standalone="no"?>
<svg
   xmlns:dc="http://purl.org/dc/elements/1.1/"
   xmlns:cc="http://creativecommons.org/ns#"
   xmlns:rdf="http://www.w3.org/1999/02/22-rdf-syntax-ns#"
   xmlns:svg="http://www.w3.org/2000/svg"
   xmlns="http://www.w3.org/2000/svg"
   xmlns:sodipodi="http://sodipodi.sourceforge.net/DTD/sodipodi-0.dtd"
   xmlns:inkscape="http://www.inkscape.org/namespaces/inkscape"
   sodipodi:docname="cloud3d.svg"
   inkscape:version="1.0 (4035a4f, 2020-05-01)"
   id="svg899"
   version="1.1"
   viewBox="0 0 34.625942 21.946602"
   height="21.946602mm"
   width="34.625942mm">
  <defs
     id="defs893" />
  <sodipodi:namedview
     inkscape:window-maximized="0"
     inkscape:window-y="23"
     inkscape:window-x="0"
     inkscape:window-height="990"
     inkscape:window-width="1252"
     showgrid="false"
     inkscape:document-rotation="0"
     inkscape:current-layer="layer1"
     inkscape:document-units="mm"
     inkscape:cy="41.473895"
     inkscape:cx="65.434825"
     inkscape:zoom="0.35"
     inkscape:pageshadow="2"
     inkscape:pageopacity="0.0"
     borderopacity="1.0"
     bordercolor="#666666"
     pagecolor="#ffffff"
     id="base" />
  <metadata
     id="metadata896">
    <rdf:RDF>
      <cc:Work
         rdf:about="">
        <dc:format>image/svg+xml</dc:format>
        <dc:type
           rdf:resource="http://purl.org/dc/dcmitype/StillImage" />
        <dc:title></dc:title>
      </cc:Work>
    </rdf:RDF>
  </metadata>
  <g
     transform="translate(-88.520369,-137.19337)"
     id="layer1"
     inkscape:groupmode="layer"
     inkscape:label="Layer 1">
    <path
       style="stroke-width:0.264583"
       d="m 118.28733,140.90715 c -0.037,-0.32544 -0.18257,-0.59531 -0.42069,-0.78317 -0.23019,-0.18256 -0.53181,-0.29368 -0.84931,-0.31485 -0.29369,-0.0185 -0.60325,0.0556 -0.86784,0.21167 -0.2831,0.16668 -0.48683,0.41275 -0.57414,0.68262 -0.11377,0.28046 -0.14288,0.59002 -0.0847,0.87577 0.0661,0.3175 0.23283,0.57679 0.48154,0.75406 0.24606,0.17463 0.56885,0.26988 0.90752,0.26988 0.24342,0 0.48154,-0.0503 0.69056,-0.14288 0.28046,-0.127 0.48684,-0.34131 0.59796,-0.61912 0.11378,-0.28046 0.15611,-0.61913 0.11907,-0.93398 z m -0.42069,0.60854 c -0.0529,0.24077 -0.16669,0.4154 -0.33338,0.52388 -0.32808,0.21166 -0.82285,0.23548 -1.19856,0.0556 -0.21696,-0.10319 -0.37306,-0.28311 -0.44185,-0.50271 -0.0476,-0.15081 -0.0556,-0.31485 -0.0238,-0.50271 0.037,-0.21696 0.12964,-0.4101 0.26987,-0.56091 0.0265,-0.0291 0.0556,-0.0556 0.0847,-0.082 0.16669,-0.14022 0.37836,-0.23018 0.60061,-0.2487 0.0344,-0.003 0.0661,-0.005 0.10054,-0.005 0.38364,0 0.84931,0.19579 0.95779,0.62177 0.0476,0.19579 0.0423,0.43127 -0.0159,0.70114 z"
       id="path324" />
    <path
       style="stroke-width:0.264583"
       d="m 120.99401,139.19794 c -0.0265,-0.23548 -0.13229,-0.43392 -0.30691,-0.5715 -0.16669,-0.13229 -0.38894,-0.21431 -0.61913,-0.23019 -0.21431,-0.0132 -0.43921,0.0397 -0.63235,0.15346 -0.20638,0.12171 -0.35454,0.30163 -0.41804,0.49742 -0.082,0.20373 -0.10584,0.43127 -0.0609,0.63764 0.0476,0.23019 0.16933,0.42069 0.35189,0.55034 0.17992,0.127 0.4154,0.19579 0.66146,0.19579 0.17727,0 0.34925,-0.037 0.50271,-0.10583 0.20373,-0.0926 0.35454,-0.24871 0.43656,-0.4498 0.0794,-0.20108 0.11113,-0.44979 0.0847,-0.67733 z m -0.30691,0.44186 c -0.0397,0.17462 -0.12171,0.30427 -0.24342,0.38364 -0.24077,0.15346 -0.59796,0.17198 -0.87312,0.0397 -0.15875,-0.0741 -0.27252,-0.20638 -0.3228,-0.36777 -0.0344,-0.11113 -0.0397,-0.23019 -0.0159,-0.36777 0.0265,-0.15875 0.0952,-0.29898 0.1958,-0.40746 0.0185,-0.0212 0.0397,-0.0423 0.0635,-0.0609 0.1217,-0.10318 0.27516,-0.16668 0.43656,-0.18256 0.0238,-0.003 0.0503,-0.003 0.0741,-0.003 0.28046,0 0.61912,0.14288 0.6985,0.45244 0.0344,0.14552 0.0318,0.3175 -0.0132,0.51329 z"
       id="path326" />
    <path
       style="stroke-width:0.264583"
       d="m 123.13979,137.77713 c -0.0185,-0.17198 -0.0953,-0.3175 -0.22225,-0.4154 -0.12171,-0.0979 -0.28311,-0.1561 -0.45244,-0.16668 -0.15611,-0.0106 -0.32015,0.0291 -0.46038,0.11112 -0.15081,0.0873 -0.25929,0.2196 -0.30427,0.36248 -0.0609,0.14817 -0.0767,0.31485 -0.045,0.46567 0.0344,0.16933 0.12436,0.30691 0.25665,0.39952 0.12964,0.0926 0.30162,0.14287 0.48154,0.14287 0.12965,0 0.25665,-0.0265 0.36777,-0.0767 0.14817,-0.0661 0.25929,-0.17991 0.3175,-0.32808 0.0582,-0.14817 0.0794,-0.32808 0.0609,-0.49477 z m -0.2249,0.32279 c -0.0291,0.127 -0.0873,0.22225 -0.17727,0.27781 -0.17463,0.11113 -0.43656,0.12436 -0.63765,0.0291 -0.11377,-0.0556 -0.19843,-0.15082 -0.23548,-0.26723 -0.0238,-0.0794 -0.0291,-0.16669 -0.0132,-0.26723 0.0185,-0.11642 0.0688,-0.21696 0.14288,-0.29633 0.0132,-0.0159 0.0291,-0.0291 0.045,-0.045 0.0873,-0.0741 0.20108,-0.12171 0.3175,-0.1323 0.0185,-0.003 0.0344,-0.003 0.0529,-0.003 0.20373,0 0.44979,0.10319 0.508,0.33073 0.0318,0.10583 0.0291,0.23019 -0.003,0.37306 z"
       id="path328" />
    <path
       style="stroke-width:0.264583"
       d="m 115.47481,143.80169 c -0.41805,-2.62996 -2.36273,-5.19906 -5.20965,-5.30225 -1.42875,-0.0529 -2.81517,0.60061 -3.63802,1.77271 -1.93411,-0.95515 -4.23069,-1.03452 -6.12775,0.10319 -0.881064,0.52916 -1.624543,1.28852 -2.016126,2.24631 -0.407458,0.99483 -0.399521,2.07169 -0.338667,3.12737 -2.106083,-0.28839 -4.333875,0.0688 -6.151562,1.20121 -1.688042,1.0504 -3.048,2.77548 -3.384021,4.76515 -0.336021,1.9976 0.283104,4.17248 1.860021,5.50069 1.7145,1.44727 4.196291,2.17752 6.416146,1.84414 2.026708,-0.30427 3.921129,-1.70656 4.550829,-3.68035 3.52161,1.79387 7.80521,0.0688 10.05417,-2.99244 0.59002,-0.80433 1.01865,-1.74625 1.07685,-2.74373 1.10332,-0.003 2.07434,-0.76729 2.5453,-1.77271 0.58208,-1.24089 0.5715,-2.74108 0.36248,-4.06929 z m -0.86255,2.92365 c -0.21166,1.08479 -1.05833,2.35744 -2.33891,2.09021 -0.24077,-0.0503 -0.52388,0.11112 -0.51065,0.38893 0.0635,1.19592 -0.52387,2.28865 -1.28587,3.17236 -0.72232,0.84137 -1.5928,1.5531 -2.57175,2.07698 -2.02407,1.0795 -4.53232,1.20121 -6.52463,-0.0159 -0.20902,-0.127 -0.5371,-0.0132 -0.58737,0.23812 -0.34132,1.70392 -1.754191,3.01096 -3.402545,3.46075 -1.963209,0.53711 -4.164542,-0.0238 -5.836709,-1.12447 -1.571625,-1.03188 -2.344208,-2.83634 -2.188104,-4.69106 0.148167,-1.75419 1.227667,-3.34963 2.640542,-4.35505 1.907646,-1.35996 4.278312,-1.62454 6.553729,-1.35996 0.198438,0.0238 0.407458,-0.19843 0.391583,-0.39158 -0.08731,-1.05304 -0.17727,-2.16164 0.174625,-3.17764 0.306917,-0.88636 0.989539,-1.57957 1.783289,-2.05317 0.88371,-0.52917 1.88384,-0.79111 2.91307,-0.75671 1.0107,0.0317 1.99495,0.33338 2.93422,0.69585 0.0635,0.0397 0.13759,0.0688 0.21432,0.082 0.003,0 0.003,0 0.005,0.003 0.0503,0.0185 0.0926,0.0159 0.13229,0.005 0.14023,-0.0106 0.28046,-0.0741 0.38364,-0.21961 0.55034,-0.76729 1.50019,-1.2065 2.43152,-1.25412 1.00013,-0.0503 1.97909,0.33866 2.73315,0.98954 0.84138,0.72496 1.41552,1.68539 1.72508,2.74902 0.32015,1.08214 0.44715,2.32833 0.23019,3.44752 z"
       id="path414" />
  </g>
</svg>
