<?xml version="1.0" encoding="UTF-8" standalone="no"?>
<svg
   xmlns:dc="http://purl.org/dc/elements/1.1/"
   xmlns:cc="http://creativecommons.org/ns#"
   xmlns:rdf="http://www.w3.org/1999/02/22-rdf-syntax-ns#"
   xmlns:svg="http://www.w3.org/2000/svg"
   xmlns="http://www.w3.org/2000/svg"
   xmlns:sodipodi="http://sodipodi.sourceforge.net/DTD/sodipodi-0.dtd"
   xmlns:inkscape="http://www.inkscape.org/namespaces/inkscape"
   width="2.8311989mm"
   height="8.6461802mm"
   viewBox="0 0 2.8311989 8.6461801"
   version="1.1"
   id="svg447"
   inkscape:version="1.0 (4035a4f, 2020-05-01)"
   sodipodi:docname="dots.svg">
  <defs
     id="defs441" />
  <sodipodi:namedview
     id="base"
     pagecolor="#ffffff"
     bordercolor="#666666"
     borderopacity="1.0"
     inkscape:pageopacity="0.0"
     inkscape:pageshadow="2"
     inkscape:zoom="15.839192"
     inkscape:cx="5.2318789"
     inkscape:cy="15.938173"
     inkscape:document-units="mm"
     inkscape:current-layer="layer1"
     inkscape:document-rotation="0"
     showgrid="false"
     inkscape:window-width="956"
     inkscape:window-height="863"
     inkscape:window-x="794"
     inkscape:window-y="127"
     inkscape:window-maximized="0" />
  <metadata
     id="metadata444">
    <rdf:RDF>
      <cc:Work
         rdf:about="">
        <dc:format>image/svg+xml</dc:format>
        <dc:type
           rdf:resource="http://purl.org/dc/dcmitype/StillImage" />
        <dc:title />
      </cc:Work>
    </rdf:RDF>
  </metadata>
  <g
     inkscape:label="Layer 1"
     inkscape:groupmode="layer"
     id="layer1"
     transform="translate(-104.41566,-143.9664)">
    <g
       transform="rotate(43.614107,105.83334,148.16664)"
       id="g21">
      <path
         style="stroke-width:0.264583"
         d="m 104.55649,147.47181 c 0.30956,-0.10848 0.53975,-0.30957 0.67204,-0.58209 0.127,-0.26458 0.16933,-0.58473 0.11906,-0.89958 -0.0476,-0.29104 -0.18785,-0.57679 -0.39687,-0.79904 -0.2249,-0.23813 -0.51065,-0.38365 -0.79375,-0.40746 -0.29898,-0.0476 -0.60855,-0.0106 -0.87313,0.11112 -0.29369,0.13494 -0.51329,0.35455 -0.62706,0.63765 -0.11377,0.27781 -0.13759,0.61383 -0.0609,0.94456 0.0529,0.23548 0.15611,0.45773 0.29369,0.64294 0.18521,0.24606 0.43921,0.39952 0.73554,0.44715 0.29369,0.0423 0.63236,0.008 0.93134,-0.0952 z m -0.68527,-0.27517 c -0.24607,0 -0.44186,-0.0688 -0.58473,-0.20902 -0.28046,-0.27517 -0.41011,-0.74877 -0.32015,-1.15888 0.0529,-0.23548 0.19315,-0.42598 0.39158,-0.54239 0.13759,-0.0794 0.29634,-0.12436 0.48684,-0.13494 0.2196,-0.0132 0.42862,0.0344 0.60589,0.13758 0.0344,0.0185 0.0688,0.0423 0.10054,0.0661 0.17463,0.12965 0.30692,0.3175 0.37571,0.52917 0.0106,0.0317 0.0185,0.0635 0.0265,0.0979 0.0847,0.37571 -0.003,0.87048 -0.39423,1.07156 -0.18256,0.0926 -0.41275,0.14023 -0.68791,0.14288 z"
         id="path336" />
      <path
         style="stroke-width:0.264583"
         d="m 106.82397,149.73135 c 0.22489,-0.0794 0.39422,-0.2249 0.48947,-0.42598 0.0926,-0.19315 0.12436,-0.42598 0.0873,-0.65617 -0.0344,-0.21166 -0.13759,-0.42069 -0.2884,-0.58208 -0.16404,-0.17463 -0.37306,-0.28046 -0.57679,-0.29633 -0.21696,-0.0344 -0.44185,-0.008 -0.635,0.082 -0.21431,0.0979 -0.37306,0.25929 -0.45773,0.46302 -0.0847,0.20373 -0.10054,0.44714 -0.045,0.69056 0.0397,0.17198 0.11377,0.33337 0.21431,0.46831 0.13494,0.17992 0.32015,0.29104 0.53711,0.32544 0.20902,0.0317 0.45773,0.008 0.67469,-0.0688 z m -0.50007,-0.20109 c -0.17991,0 -0.32279,-0.0503 -0.42598,-0.15081 -0.20373,-0.19844 -0.29898,-0.54769 -0.23283,-0.84402 0.0397,-0.16933 0.14023,-0.31221 0.28575,-0.39423 0.10054,-0.0582 0.21431,-0.09 0.35454,-0.0979 0.1614,-0.008 0.31221,0.0265 0.44186,0.10054 0.0264,0.0132 0.0503,0.0291 0.0714,0.0476 0.127,0.0952 0.2249,0.23284 0.27517,0.38629 0.008,0.0238 0.0132,0.0476 0.0185,0.0714 0.0635,0.27252 0,0.635 -0.28839,0.78052 -0.1323,0.0661 -0.29898,0.10054 -0.50007,0.10054 z"
         id="path338" />
      <path
         style="stroke-width:0.264583"
         d="m 108.68399,151.50935 c 0.16404,-0.0582 0.28575,-0.16404 0.35718,-0.30956 0.0662,-0.14023 0.09,-0.30957 0.0635,-0.4789 -0.0238,-0.15346 -0.10054,-0.30692 -0.21166,-0.42333 -0.11907,-0.127 -0.26988,-0.20373 -0.42069,-0.21696 -0.15875,-0.0265 -0.32279,-0.005 -0.46302,0.0582 -0.15611,0.0714 -0.27252,0.18785 -0.33338,0.33866 -0.0609,0.14817 -0.0714,0.32544 -0.0318,0.50271 0.0291,0.12436 0.082,0.24342 0.15611,0.34131 0.0979,0.12965 0.23283,0.21167 0.39158,0.23813 0.15346,0.0238 0.33338,0.005 0.49213,-0.0503 z m -0.36248,-0.14552 c -0.12965,0 -0.23548,-0.037 -0.31221,-0.11113 -0.14817,-0.14552 -0.21961,-0.39687 -0.16933,-0.61383 0.0291,-0.12436 0.10318,-0.22754 0.20902,-0.2884 0.0741,-0.0423 0.1561,-0.0661 0.25664,-0.0714 0.11642,-0.005 0.22754,0.0185 0.32279,0.0741 0.0185,0.0106 0.037,0.0212 0.0529,0.0344 0.0926,0.0688 0.16404,0.16934 0.20108,0.28046 0.005,0.0159 0.0106,0.0344 0.0132,0.0529 0.045,0.19844 0,0.46302 -0.20902,0.56885 -0.0979,0.0476 -0.2196,0.0714 -0.36512,0.0741 z"
         id="path340" />
    </g>
  </g>
</svg>
