<?xml version="1.0" encoding="UTF-8" standalone="no"?>
<svg
   xmlns:dc="http://purl.org/dc/elements/1.1/"
   xmlns:cc="http://creativecommons.org/ns#"
   xmlns:rdf="http://www.w3.org/1999/02/22-rdf-syntax-ns#"
   xmlns:svg="http://www.w3.org/2000/svg"
   xmlns="http://www.w3.org/2000/svg"
   id="svg3472"
   version="1.1"
   viewBox="0 0 33.820827 36.100948"
   height="36.100948mm"
   width="33.820827mm">
  <defs
     id="defs3466" />
  <metadata
     id="metadata3469">
    <rdf:RDF>
      <cc:Work
         rdf:about="">
        <dc:format>image/svg+xml</dc:format>
        <dc:type
           rdf:resource="http://purl.org/dc/dcmitype/StillImage" />
        <dc:title></dc:title>
      </cc:Work>
    </rdf:RDF>
  </metadata>
  <g
     id="layer1">
    <g
       id="g3371"
       transform="matrix(0.33000967,0,0,0.36920301,-165.12016,-208.69917)">
      <g
         transform="matrix(0.80174418,0,0,0.71663374,-27.369311,209.63783)"
         id="g3385">
        <text
           transform="matrix(0.9993,-0.038,0.038,0.9993,700.0863,540.2982)"
           id="text3383"><tspan
             x="0"
             y="0"
             class="st9 st10"
             id="tspan3379">cultural</tspan><tspan
             x="-3.1099999"
             y="30.549999"
             class="st9 st10"
             id="tspan3381">folk tale</tspan></text>
      </g>
      <path
         style="stroke-width:0.757995"
         d="m 545.1847,647.4383 c 0.88192,0.37981 1.79591,0.43714 2.65378,0.16482 0.82579,-0.25799 1.59547,-0.78113 2.15669,-1.47626 0.51312,-0.63781 0.8258,-1.4476 0.84985,-2.26457 0.0321,-0.87429 -0.26458,-1.69125 -0.81778,-2.27172 -0.52915,-0.65214 -1.26676,-1.16812 -2.08454,-1.44044 -0.90597,-0.30815 -1.82797,-0.30098 -2.67782,0.0143 -0.83382,0.30816 -1.58745,0.90296 -2.13264,1.66976 -0.38484,0.55181 -0.6414,1.16095 -0.73761,1.77009 -0.12827,0.81696 0.0802,1.58376 0.60933,2.23589 0.53717,0.65214 1.3309,1.23261 2.18074,1.5981 z m -0.86588,-1.82025 c -0.52113,-0.46581 -0.79373,-0.96746 -0.80174,-1.49777 -0.008,-1.04628 0.71355,-2.1929 1.77185,-2.79487 0.60933,-0.34398 1.30684,-0.44431 1.98031,-0.28665 0.45699,0.10749 0.88994,0.32965 1.30684,0.66647 0.48907,0.39415 0.83382,0.88146 0.99416,1.4046 0.0321,0.10033 0.0561,0.20782 0.0722,0.30815 0.0962,0.57331 -0.024,1.18245 -0.3207,1.71276 -0.0481,0.0788 -0.0962,0.15766 -0.15233,0.23649 -0.60932,0.87429 -1.84401,1.64109 -3.10275,1.2756 -0.57725,-0.15766 -1.17054,-0.50881 -1.7478,-1.02478 z"
         id="path3387" />
      <path
         style="stroke-width:0.757995"
         d="m 545.20074,656.00207 c 0.64139,0.27949 1.30684,0.31532 1.9322,0.12183 0.60131,-0.19349 1.16253,-0.57331 1.57142,-1.07495 0.37682,-0.46581 0.60131,-1.05345 0.61734,-1.64826 0.0241,-0.6378 -0.19241,-1.23261 -0.59329,-1.65542 -0.38483,-0.48015 -0.922,-0.8528 -1.51529,-1.04629 -0.65743,-0.22216 -1.3309,-0.21499 -1.94824,0.0143 -0.60933,0.22216 -1.15451,0.65931 -1.55538,1.21828 -0.28062,0.40132 -0.46502,0.84563 -0.53717,1.28994 -0.0962,0.59481 0.0641,1.15378 0.44897,1.62676 0.37682,0.45865 0.95408,0.88146 1.57944,1.15378 z m -0.63338,-1.33294 c -0.38484,-0.33682 -0.57725,-0.7023 -0.58527,-1.09645 -0.008,-0.75963 0.52113,-1.59809 1.29081,-2.03524 0.44096,-0.25082 0.95407,-0.32248 1.44314,-0.20782 0.33673,0.0788 0.64941,0.23649 0.95407,0.48731 0.36079,0.28665 0.60933,0.6378 0.72157,1.02479 0.0241,0.0717 0.0401,0.15049 0.0561,0.22932 0.0641,0.41565 -0.016,0.85996 -0.2325,1.24694 -0.0321,0.0573 -0.0722,0.11466 -0.11225,0.17199 -0.44897,0.63781 -1.34693,1.19678 -2.26092,0.93163 -0.42492,-0.12183 -0.84984,-0.37265 -1.27477,-0.75247 z"
         id="path3389" />
      <path
         style="stroke-width:0.757995"
         d="m 545.37712,662.87459 c 0.46501,0.20066 0.95408,0.22932 1.41107,0.086 0.44096,-0.13616 0.84985,-0.41564 1.1465,-0.78113 0.27259,-0.33681 0.44096,-0.7668 0.44897,-1.20394 0.016,-0.46581 -0.14431,-0.89579 -0.43294,-1.20395 -0.28061,-0.35115 -0.67346,-0.6163 -1.10641,-0.76679 -0.48104,-0.16483 -0.97011,-0.15766 -1.41908,0.007 -0.44096,0.16483 -0.84183,0.48015 -1.13046,0.88863 -0.20846,0.29382 -0.33673,0.6163 -0.39286,0.93879 -0.0722,0.42998 0.0481,0.84563 0.32872,1.18961 0.27259,0.34398 0.6895,0.65214 1.14649,0.84563 z m -0.46501,-0.96746 c -0.28061,-0.24365 -0.41691,-0.51597 -0.42492,-0.79546 -0.008,-0.55181 0.37682,-1.16811 0.93804,-1.48343 0.3207,-0.17916 0.69751,-0.23649 1.05028,-0.1505 0.24053,0.0573 0.47303,0.172 0.69752,0.35115 0.25656,0.20783 0.44096,0.46582 0.52915,0.7453 0.016,0.0573 0.0321,0.1075 0.0401,0.16483 0.0481,0.30815 -0.008,0.63064 -0.16837,0.91012 -0.024,0.043 -0.0481,0.086 -0.0802,0.12183 -0.32872,0.46581 -0.97813,0.87429 -1.64358,0.6808 -0.31268,-0.086 -0.62536,-0.27232 -0.93804,-0.54464 z"
         id="path3391" />
      <path
         style="stroke-width:0.757995"
         d="m 592.29519,579.55875 c -4.01674,-1.89191 -8.67487,-2.28606 -13.16464,-1.98508 -0.11224,-3.48284 -0.72958,-7.11617 -3.62388,-9.63872 -3.27112,-2.84504 -8.24995,-2.97403 -12.49118,-2.37922 -8.70694,1.23261 -16.74041,5.32458 -22.40874,11.32998 -2.72594,-2.37206 -6.35784,-3.84833 -10.16612,-4.18515 -5.25944,-0.45864 -10.43871,1.06779 -14.80822,3.63334 -7.99339,4.68678 -13.5174,13.0069 -12.83592,21.68533 0.32871,4.18515 2.0685,8.23413 5.11513,11.40165 -3.11077,2.44372 -5.17125,5.73307 -6.49413,9.25174 -1.52331,4.02748 -1.49124,8.26995 0.57726,12.13977 0.016,0.0287 0.0321,0.0502 0.0481,0.0788 0,0.22933 0.0641,0.46582 0.21647,0.7023 4.10493,6.34938 12.17849,10.83551 20.42043,11.029 8.68288,0.20782 16.97292,-3.56884 23.13031,-8.87193 7.98538,2.45806 16.38766,4.73695 24.89416,3.41835 7.9052,-1.22545 14.89641,-5.49659 17.51009,-12.48376 1.13046,-3.03137 1.40305,-6.17739 0.79373,-9.27324 7.65666,-2.16424 12.60342,-9.84655 13.62965,-16.64024 1.12244,-7.53899 -2.60567,-15.57245 -10.3425,-19.21295 z m 4.00872,25.18251 c -2.07652,3.46851 -5.49195,6.92985 -10.14206,7.25233 -1.52332,0.1075 -2.26092,1.4691 -1.86807,2.67305 2.37317,7.16633 -2.12462,14.71249 -9.77326,17.39986 -9.31626,3.26785 -19.39419,0.23649 -28.35769,-2.50821 -1.04227,-0.31532 -1.97229,-0.172 -2.74196,0.5518 -5.32358,5.02361 -12.868,8.64977 -20.75716,8.56378 -7.23173,-0.0788 -13.77396,-3.47568 -18.05528,-8.58528 -0.0641,-0.0788 -0.1363,-0.14332 -0.20043,-0.20065 -1.38702,-2.67305 -1.89212,-5.67574 -1.09839,-8.74293 1.09037,-4.19231 4.07286,-8.06213 8.24193,-10.25503 0.76165,-0.40132 1.01821,-1.62676 0.40889,-2.2144 -5.57213,-5.38909 -6.91104,-13.1359 -3.57578,-19.82926 3.36732,-6.74352 11.02398,-12.56259 19.50643,-12.92807 4.2733,-0.18632 8.68289,1.34727 11.31261,4.4288 0.67347,0.78829 2.15669,0.96029 2.87826,0.0932 4.81849,-5.7904 11.98608,-10.01137 19.93136,-11.43748 3.43949,-0.62347 8.0415,-1.15378 10.87967,1.17528 2.76602,2.27173 2.66981,6.25622 2.65378,9.33774 -0.008,0.85996 1.07433,1.5551 1.97229,1.46193 4.71425,-0.50164 9.81334,-0.35115 13.95836,1.95641 3.67199,2.03524 6.23757,5.58258 7.12751,9.33058 1.01821,4.2353 -0.0321,8.6856 -2.30101,12.47659 z"
         id="path3431" />
    </g>
  </g>
</svg>
