<?xml version="1.0" encoding="UTF-8" standalone="no"?>
<svg
   xmlns:dc="http://purl.org/dc/elements/1.1/"
   xmlns:cc="http://creativecommons.org/ns#"
   xmlns:rdf="http://www.w3.org/1999/02/22-rdf-syntax-ns#"
   xmlns:svg="http://www.w3.org/2000/svg"
   xmlns="http://www.w3.org/2000/svg"
   id="svg2969"
   version="1.1"
   viewBox="0 0 35.612774 27.580618"
   height="27.580618mm"
   width="35.612774mm">
  <defs
     id="defs2963" />
  <metadata
     id="metadata2966">
    <rdf:RDF>
      <cc:Work
         rdf:about="">
        <dc:format>image/svg+xml</dc:format>
        <dc:type
           rdf:resource="http://purl.org/dc/dcmitype/StillImage" />
        <dc:title></dc:title>
      </cc:Work>
    </rdf:RDF>
  </metadata>
  <g
     id="layer1">
    <text
       y="20.787331"
       x="-3.4633169"
       style="font-size:7.68715px;font-family:Verveine-Regular;stroke-width:0.264586"
       transform="rotate(-26.05258)"
       class="st9 st10"
       id="text2237">a group</text>
    <path
       style="stroke-width:0.264583"
       d="m 24.57207,23.482699 c 0.309562,-0.10848 0.53975,-0.30956 0.672041,-0.58208 0.127,-0.26458 0.169334,-0.58473 0.119063,-0.89958 -0.04763,-0.29105 -0.187854,-0.5768 -0.396875,-0.79905 -0.224896,-0.23812 -0.510646,-0.38364 -0.79375,-0.40745 -0.298979,-0.0476 -0.608542,-0.0106 -0.873125,0.11112 -0.293688,0.13494 -0.513292,0.35454 -0.627063,0.63765 -0.11377,0.27781 -0.137583,0.61383 -0.06085,0.94456 0.05292,0.23548 0.156104,0.45773 0.293688,0.64294 0.185208,0.24606 0.439208,0.39952 0.735541,0.44714 0.293688,0.0423 0.632355,0.008 0.931334,-0.0953 z m -0.685271,-0.27516 c -0.246063,0 -0.441854,-0.0688 -0.584729,-0.20903 -0.280459,-0.27516 -0.410104,-0.74877 -0.320146,-1.15887 0.05292,-0.23548 0.193146,-0.42598 0.391583,-0.5424 0.137584,-0.0794 0.296334,-0.12435 0.486834,-0.13493 0.219604,-0.0132 0.428625,0.0344 0.605895,0.13758 0.0344,0.0185 0.06879,0.0423 0.100542,0.0661 0.174625,0.12965 0.306917,0.3175 0.375708,0.52917 0.01058,0.0318 0.01852,0.0635 0.02646,0.0979 0.08467,0.3757 -0.0026,0.87048 -0.394229,1.07156 -0.182563,0.0926 -0.41275,0.14023 -0.687917,0.14287 z"
       id="path2255" />
    <path
       style="stroke-width:0.264583"
       d="m 26.839548,25.742239 c 0.224895,-0.0794 0.394229,-0.22489 0.489479,-0.42598 0.0926,-0.19314 0.124354,-0.42597 0.08731,-0.65616 -0.0344,-0.21167 -0.137583,-0.42069 -0.288396,-0.58209 -0.164041,-0.17462 -0.373062,-0.28045 -0.576791,-0.29633 -0.216957,-0.0344 -0.441853,-0.008 -0.634999,0.082 -0.214312,0.0979 -0.373062,0.25929 -0.457729,0.46302 -0.08467,0.20373 -0.100542,0.44715 -0.04498,0.69056 0.03969,0.17198 0.113771,0.33338 0.214312,0.46832 0.134938,0.17991 0.320146,0.29104 0.537104,0.32543 0.209021,0.0318 0.457728,0.008 0.674687,-0.0688 z m -0.500062,-0.20108 c -0.179916,0 -0.322791,-0.0503 -0.425979,-0.15081 -0.203729,-0.19844 -0.298979,-0.54769 -0.232833,-0.84402 0.03969,-0.16934 0.140229,-0.31221 0.28575,-0.39423 0.100542,-0.0582 0.214312,-0.09 0.354542,-0.0979 0.161394,-0.008 0.312207,0.0265 0.441852,0.10054 0.02646,0.0132 0.05027,0.0291 0.07144,0.0476 0.127,0.0952 0.224896,0.23283 0.275167,0.38629 0.0079,0.0238 0.01323,0.0476 0.01852,0.0714 0.0635,0.27252 0,0.635 -0.288395,0.78052 -0.132292,0.0661 -0.29898,0.10054 -0.500062,0.10054 z"
       id="path2257" />
    <path
       style="stroke-width:0.264583"
       d="m 28.699568,27.520239 c 0.164042,-0.0582 0.28575,-0.16404 0.357188,-0.30956 0.06615,-0.14023 0.08996,-0.30956 0.0635,-0.47889 -0.02381,-0.15346 -0.100542,-0.30692 -0.211667,-0.42334 -0.119062,-0.127 -0.269875,-0.20373 -0.420687,-0.21696 -0.15875,-0.0265 -0.322792,-0.005 -0.463021,0.0582 -0.156104,0.0714 -0.272521,0.18786 -0.333375,0.33867 -0.06085,0.14817 -0.07144,0.32544 -0.03175,0.50271 0.0291,0.12435 0.08202,0.24342 0.156104,0.34131 0.0979,0.12965 0.232833,0.21167 0.391583,0.23813 0.153459,0.0238 0.333375,0.005 0.492125,-0.0503 z m -0.362479,-0.14552 c -0.129646,0 -0.235479,-0.037 -0.312208,-0.11112 -0.148167,-0.14552 -0.219604,-0.39688 -0.169333,-0.61383 0.0291,-0.12436 0.103187,-0.22755 0.20902,-0.2884 0.07408,-0.0423 0.156105,-0.0661 0.256646,-0.0714 0.116417,-0.005 0.227542,0.0185 0.322792,0.0741 0.01852,0.0106 0.03704,0.0212 0.05292,0.0344 0.0926,0.0688 0.164041,0.16933 0.201083,0.28046 0.0053,0.0159 0.01058,0.0344 0.01323,0.0529 0.04498,0.19844 0,0.46302 -0.209021,0.56885 -0.0979,0.0476 -0.219604,0.0714 -0.365125,0.0741 z"
       id="path2259" />
    <path
       d="m 34.91883,3.340009 c -1.684803,-2.90642999 -5.572818,-3.91849999 -8.782133,-3.02644999 -1.828046,0.50603 -3.42418,1.52457999 -4.761109,2.79289999 -1.142529,-0.82717 -2.523797,-1.30076 -3.973277,-1.32022 -1.415372,-0.0195 -2.926241,0.4671 -3.478747,1.80679 -0.0034,0.006 -0.0034,0.013 -0.0068,0.0195 -2.602264,-1.11911 -5.6478771,-0.97314 -8.2637571,0.10056 -2.639756,1.08343 -5.381829,3.36056 -4.87707,6.38702 0.235328,1.41754 1.265312,2.31282 2.356684,3.15945 -2.441946,1.0445 -3.635635,3.99635 -2.933063,6.41297 0.876507,3.01673 3.952812,4.90137 7.131431,5.0668 3.5810671,0.1849 6.8688271,-1.57323 9.3312321,-3.92498 0.300128,-0.28546 0.590024,-0.58064 0.869688,-0.88556 0.31718,-0.34384 0.535456,-0.74282 1.064088,-0.71039 0.910614,0.0584 1.790534,0.13949 2.707969,0.0714 1.868971,-0.13624 3.683381,-0.60983 5.4057,-1.29751 1.759834,-0.70391 3.615169,-1.57648 4.948688,-2.90644 1.200509,-1.19696 1.950828,-2.93563 1.483585,-4.5705 2.458997,-1.45322 3.144517,-4.81054 1.776891,-7.17526 z m -2.61929,6.54922 c -0.177351,0.0876 -0.300131,0.34708 -0.228508,0.53197 0.559327,1.40132 -0.02729,2.89671 -1.060677,3.95094 -1.084551,1.10289 -2.554494,1.83923 -3.980096,2.46853 -1.521101,0.6747 -3.144516,1.18073 -4.808859,1.41753 -0.852633,0.12327 -1.71891,0.16219 -2.578367,0.12327 -0.784423,-0.0357 -1.562026,-0.27897 -2.213438,0.26923 -0.56615,0.47684 -1.016339,1.0964 -1.555205,1.60568 -0.572971,0.53847 -1.180047,1.04774 -1.831459,1.49863 -1.285772,0.8888 -2.725018,1.56675 -4.2836351,1.88788 -2.994451,0.61632 -6.319724,-0.24652 -7.98407,-2.83507 -0.787831,-1.22615 -1.029981,-2.67613 -0.562737,-4.05149 0.453602,-1.34293 1.53474,-2.45879 2.933063,-2.94861 0.358105,-0.12651 0.443367,-0.56766 0.105727,-0.77202 -1.036804,-0.63254 -2.165694,-1.46943 -2.540852,-2.63396 -0.405852,-1.26183 0.05116,-2.63395 0.896972,-3.63953 1.660932,-1.97223 4.583763,-3.03619 7.182591,-3.12701 1.4665321,-0.0519 2.9330621,0.19138 4.3450241,0.56117 0.303538,0.16543 0.787837,0.11029 0.958363,-0.29843 0.368337,-0.89528 1.735963,-0.99584 2.581778,-0.94394 1.210741,0.0746 2.407838,0.55469 3.325275,1.31049 0.231916,0.19138 0.610484,0.24004 0.835581,0 2.019038,-2.15712 5.15332,-3.69791999 8.236446,-2.99402 2.632935,0.6001 4.856607,2.7183 4.481449,5.43011 -0.184171,1.3332 -0.978826,2.57232 -2.254366,3.18865 z"
       id="path2329"
       style="stroke-width:0.33261" />
  </g>
</svg>
