<?xml version="1.0" encoding="UTF-8" standalone="no"?>
<svg
   xmlns:dc="http://purl.org/dc/elements/1.1/"
   xmlns:cc="http://creativecommons.org/ns#"
   xmlns:rdf="http://www.w3.org/1999/02/22-rdf-syntax-ns#"
   xmlns:svg="http://www.w3.org/2000/svg"
   xmlns="http://www.w3.org/2000/svg"
   id="svg3472"
   version="1.1"
   viewBox="0 0 40.885437 17.759085"
   height="17.759085mm"
   width="40.885437mm">
  <defs
     id="defs3466" />
  <metadata
     id="metadata3469">
    <rdf:RDF>
      <cc:Work
         rdf:about="">
        <dc:format>image/svg+xml</dc:format>
        <dc:type
           rdf:resource="http://purl.org/dc/dcmitype/StillImage" />
        <dc:title></dc:title>
      </cc:Work>
    </rdf:RDF>
  </metadata>
  <g
     transform="translate(2.931225,-8.5557793)"
     id="layer1">
    <g
       id="g3371"
       transform="matrix(0.33000967,0,0,0.36920301,-165.12016,-208.69917)">
      <text
         transform="matrix(1.1437883,0.00431013,-0.00563887,0.87426642,0,0)"
         class="st9 st10"
         id="text3343"
         x="439.3999"
         y="706.35492"
         style="font-size:22.0224px;font-family:Verveine-Regular;stroke-width:0.33732">a child</text>
      <path
         style="stroke-width:0.757995"
         d="m 597.76858,613.14741 c 0.36881,-0.82413 0.36881,-1.65542 0,-2.40789 -0.35276,-0.73096 -1.00218,-1.3831 -1.81996,-1.84175 -0.75364,-0.42281 -1.69168,-0.64497 -2.6217,-0.60914 -0.99416,0.0358 -1.89212,0.35832 -2.50946,0.8958 -0.70553,0.52314 -1.23468,1.22544 -1.48323,1.97791 -0.28061,0.83846 -0.20845,1.67692 0.20846,2.41505 0.40889,0.73097 1.13046,1.37594 2.03643,1.80592 0.64941,0.30815 1.35495,0.49448 2.05246,0.54464 0.93003,0.0573 1.78789,-0.18632 2.48541,-0.70947 0.69752,-0.51597 1.29883,-1.26844 1.65159,-2.07107 z m -1.99634,0.91729 c -0.48906,0.50165 -1.04227,0.78113 -1.64358,0.82413 -1.17856,0.086 -2.53351,-0.49448 -3.27913,-1.4046 -0.43294,-0.52314 -0.59329,-1.15378 -0.45699,-1.77009 0.0882,-0.42281 0.30466,-0.82412 0.65743,-1.23261 0.40889,-0.47297 0.93804,-0.81696 1.52331,-0.99612 0.11225,-0.0358 0.23251,-0.0645 0.34475,-0.086 0.6414,-0.12183 1.33891,-0.0645 1.95626,0.17199 0.0962,0.0358 0.1844,0.0788 0.28061,0.12183 1.02623,0.49447 1.98832,1.54793 1.65961,2.70887 -0.14432,0.53748 -0.49708,1.09645 -1.04227,1.66259 z"
         id="path3353" />
      <path
         style="stroke-width:0.757995"
         d="m 607.45365,612.53827 c 0.26458,-0.60197 0.26458,-1.20394 0,-1.75575 -0.25656,-0.53031 -0.72958,-1.01045 -1.32287,-1.3401 -0.55321,-0.30816 -1.23469,-0.46582 -1.90816,-0.44432 -0.72157,0.0287 -1.379,0.26516 -1.82797,0.65214 -0.51312,0.37981 -0.89796,0.89579 -1.08236,1.44043 -0.20845,0.60914 -0.15233,1.21828 0.15233,1.76292 0.29665,0.53031 0.8258,1.00329 1.48323,1.31861 0.47303,0.22932 0.98615,0.36548 1.49124,0.39415 0.68149,0.043 1.30685,-0.13616 1.81195,-0.51598 0.5051,-0.37982 0.93804,-0.93162 1.20261,-1.5121 z m -1.45917,0.66647 c -0.35277,0.36549 -0.76166,0.57331 -1.1946,0.60197 -0.85787,0.0573 -1.84401,-0.35831 -2.3892,-1.02478 -0.31268,-0.37982 -0.43294,-0.83846 -0.33673,-1.28994 0.0641,-0.30815 0.22449,-0.60197 0.48105,-0.89579 0.29664,-0.34399 0.68148,-0.59481 1.1064,-0.7238 0.0802,-0.0287 0.16837,-0.0502 0.25656,-0.0645 0.47303,-0.0932 0.97813,-0.043 1.42711,0.12899 0.0641,0.0287 0.13629,0.0573 0.20043,0.086 0.74562,0.35832 1.45116,1.13228 1.21064,1.97791 -0.11225,0.38698 -0.36881,0.79546 -0.76166,1.20394 z"
         id="path3355" />
      <path
         style="stroke-width:0.757995"
         d="m 615.21454,611.90047 c 0.19242,-0.43715 0.19242,-0.88146 0,-1.27561 -0.1844,-0.38698 -0.52915,-0.73813 -0.9621,-0.98179 -0.40087,-0.22215 -0.89795,-0.34398 -1.38701,-0.32248 -0.52915,0.0215 -1.00218,0.19349 -1.3309,0.47298 -0.37682,0.27948 -0.65743,0.65213 -0.78571,1.05345 -0.15233,0.44431 -0.11224,0.88862 0.11225,1.28277 0.21647,0.38698 0.6013,0.73097 1.08235,0.96029 0.34475,0.16483 0.72157,0.26516 1.09037,0.28665 0.49708,0.0287 0.95408,-0.10032 1.32288,-0.37981 0.35277,-0.27949 0.66545,-0.67364 0.85787,-1.09645 z m -1.06632,0.48014 c -0.25656,0.26516 -0.55321,0.41565 -0.8739,0.43715 -0.62536,0.043 -1.34693,-0.26515 -1.73979,-0.7453 -0.2325,-0.27949 -0.31268,-0.60914 -0.24052,-0.93879 0.0481,-0.22216 0.16035,-0.43715 0.35277,-0.65214 0.21647,-0.25082 0.49708,-0.42998 0.80976,-0.5303 0.0641,-0.0215 0.12026,-0.0358 0.1844,-0.043 0.34475,-0.0645 0.71355,-0.0358 1.04227,0.0932 0.0481,0.0215 0.0962,0.043 0.14431,0.0645 0.54519,0.26515 1.0583,0.82413 0.88192,1.44043 -0.0802,0.27949 -0.2726,0.57331 -0.56122,0.87429 z"
         id="path3357" />
      <path
         d="m 575.50493,595.85444 c -3.45145,-1.54167 -7.57123,-2.52136 -11.60124,-2.39225 -1.99505,0.0608 -3.96019,0.38731 -5.75573,1.07081 -0.88781,0.34176 -1.72572,0.80502 -2.44394,1.32903 -0.27931,0.20505 -0.54864,0.53921 -0.86784,0.6911 -0.0299,0.0152 -0.0499,0.0304 -0.0599,0.038 -0.02,-0.008 -0.0399,-0.0152 -0.0799,-0.0228 -0.24938,-0.0684 -0.55861,-0.31137 -0.74814,-0.43288 -6.80313,-4.16177 -14.8033,-7.22235 -23.63141,-7.64763 -7.82061,-0.37972 -16.0103,1.66318 -21.63635,5.87811 -1.37659,1.03285 -2.57362,2.2024 -3.58112,3.45548 -0.13965,0.18227 -0.21946,0.35694 -0.25936,0.53162 -0.87782,-0.1367 -1.75564,-0.18227 -2.73322,-0.0911 -1.48631,0.13671 -2.92275,0.46327 -4.23949,1.01007 -2.7831,1.13917 -4.7981,3.17449 -5.7657,5.44523 -1.71575,4.00988 0.1596,8.58934 4.28936,11.30816 -2.20453,1.16195 -3.66092,3.21246 -4.30931,5.12626 -0.85788,2.51377 -0.56859,5.26297 0.69827,7.67041 1.25688,2.39226 3.35169,4.50352 6.23454,5.89331 3.62102,1.74672 8.10989,2.11885 12.27955,1.63281 4.32927,-0.50124 8.35927,-2.01253 11.91047,-3.92634 1.77559,-0.9569 3.47139,-2.01253 5.09736,-3.10614 0.76809,-0.51642 1.53619,-1.19233 2.46389,-1.54167 1.14715,-0.43288 1.80552,0.2734 2.67337,0.78982 5.99513,3.59219 13.73594,5.36929 21.34707,5.05792 7.50139,-0.30378 15.82077,-2.6201 20.39941,-7.38183 0.5686,-0.59237 1.03744,-1.21511 1.42647,-1.88342 0.10973,-0.19746 0.22944,-0.70629 0.43891,-0.8278 0.22943,-0.1367 1.21698,-0.10632 1.52622,-0.15948 1.87536,-0.32656 3.61104,-1.16196 4.92777,-2.21759 2.95268,-2.36947 3.97017,-5.70344 3.97017,-8.88552 -0.01,-6.65275 -4.37914,-13.03211 -11.97032,-16.41164 z m 5.6061,23.85421 c -0.61848,0.46327 -1.3367,0.85058 -2.12474,1.13158 -0.89778,0.31137 -1.79555,0.30378 -2.72325,0.48604 -1.87535,0.35694 -2.07484,1.7923 -2.92275,2.90109 -0.94765,1.22271 -2.28434,2.27074 -3.7507,3.12892 -2.77313,1.62522 -6.05499,2.74161 -9.4366,3.39473 -6.6535,1.27587 -14.04518,0.72147 -20.17996,-1.648 -1.56612,-0.59996 -3.07239,-1.31385 -4.44897,-2.14164 -1.46637,-0.88096 -2.7432,-1.9138 -4.78813,-1.58724 -1.95515,0.31137 -3.40157,1.59483 -4.838,2.55174 -1.50627,1.00247 -3.05244,1.96696 -4.69836,2.82514 -6.11483,3.20486 -15.42176,5.51358 -21.84583,1.42016 -4.57864,-2.91628 -6.36422,-8.41466 -3.40156,-12.47011 0.83792,-1.13917 1.96513,-2.07329 3.65094,-2.44542 1.11723,-0.25062 1.44642,-1.53408 0.33916,-1.96696 -4.59859,-1.81508 -7.23206,-6.1743 -5.69587,-10.00192 0.76809,-1.90621 2.45391,-3.59218 4.77815,-4.54148 2.19456,-0.90374 4.93776,-1.01007 7.40165,-0.87337 0.67831,0.10632 1.41648,-0.0608 1.88532,-0.63794 3.631,-4.48832 10.27453,-7.21473 17.06768,-7.79192 7.74081,-0.65312 15.43174,1.35941 21.89571,4.50352 1.69579,0.8278 3.26192,1.76951 4.85796,2.70363 1.80551,1.04804 3.80056,1.06323 5.45646,-0.16707 1.24691,-0.92653 2.33422,-1.60244 4.06991,-1.94419 1.6559,-0.32656 3.45145,-0.32656 5.13726,-0.12151 7.56126,0.93412 13.67609,5.23259 16.13999,10.67022 1.27683,2.83274 1.65588,5.96925 0.73816,8.90072 -0.44887,1.39738 -1.21699,2.71122 -2.56363,3.72128 z"
         id="path3435"
         style="stroke-width:0.870391" />
    </g>
  </g>
</svg>
