<?xml version="1.0" encoding="UTF-8" standalone="no"?>
<svg
   xmlns:dc="http://purl.org/dc/elements/1.1/"
   xmlns:cc="http://creativecommons.org/ns#"
   xmlns:rdf="http://www.w3.org/1999/02/22-rdf-syntax-ns#"
   xmlns:svg="http://www.w3.org/2000/svg"
   xmlns="http://www.w3.org/2000/svg"
   id="svg3472"
   version="1.1"
   viewBox="0 0 40.473854 26.987917"
   height="26.987917mm"
   width="40.473854mm">
  <defs
     id="defs3466" />
  <metadata
     id="metadata3469">
    <rdf:RDF>
      <cc:Work
         rdf:about="">
        <dc:format>image/svg+xml</dc:format>
        <dc:type
           rdf:resource="http://purl.org/dc/dcmitype/StillImage" />
        <dc:title></dc:title>
      </cc:Work>
    </rdf:RDF>
  </metadata>
  <g
     transform="translate(2.9312248,-8.5557785)"
     id="layer1">
    <g
       id="g3371"
       transform="matrix(0.33000967,0,0,0.36920301,-165.12016,-208.69917)">
      <text
         transform="matrix(0.91912235,-0.4678639,0.52342939,0.82155144,0,0)"
         class="st9 st10"
         id="text3345"
         x="70.416695"
         y="836.54047"
         style="font-size:22.0224px;font-family:Verveine-Regular;stroke-width:0.758003">an adult</text>
      <path
         style="stroke-width:0.757995"
         d="m 599.38794,598.50199 c -0.11225,-0.88146 -0.55321,-1.61243 -1.27478,-2.12124 -0.69752,-0.49447 -1.6115,-0.79546 -2.5736,-0.85279 -0.88993,-0.0502 -1.82797,0.15049 -2.62972,0.57331 -0.85786,0.45148 -1.47521,1.11794 -1.73978,1.84891 -0.34475,0.75963 -0.43294,1.59809 -0.25656,2.37206 0.20044,0.85996 0.70553,1.56226 1.45917,2.0424 0.74563,0.47298 1.72375,0.73097 2.74999,0.73097 0.7376,0 1.45917,-0.13616 2.09255,-0.38698 0.84985,-0.34399 1.47521,-0.92446 1.81194,-1.67692 0.34475,-0.75964 0.47303,-1.67693 0.36079,-2.52972 z m -1.27478,1.64826 c -0.16035,0.65213 -0.5051,1.12511 -1.0102,1.41893 -0.99416,0.57331 -2.49342,0.63781 -3.6319,0.15049 -0.65743,-0.27948 -1.13046,-0.76679 -1.33891,-1.3616 -0.14431,-0.40848 -0.16837,-0.85279 -0.0722,-1.3616 0.11225,-0.58764 0.39286,-1.11079 0.81778,-1.51927 0.0802,-0.0788 0.16837,-0.15049 0.25656,-0.22215 0.5051,-0.37982 1.1465,-0.62347 1.81996,-0.67364 0.10423,-0.007 0.20044,-0.0143 0.30466,-0.0143 1.16253,0 2.5736,0.53031 2.90232,1.68409 0.14431,0.53031 0.12828,1.16811 -0.0481,1.89908 z"
         id="path3347" />
      <path
         style="stroke-width:0.757995"
         d="m 607.58978,593.87254 c -0.0802,-0.63781 -0.40087,-1.17528 -0.93002,-1.54793 -0.5051,-0.35832 -1.17857,-0.58048 -1.87609,-0.62347 -0.64941,-0.0358 -1.33089,0.10749 -1.91616,0.41564 -0.62537,0.32965 -1.07434,0.81697 -1.26676,1.34727 -0.24854,0.55181 -0.3207,1.16812 -0.1844,1.72709 0.14431,0.62347 0.51311,1.13945 1.06632,1.4906 0.54518,0.34398 1.25874,0.53031 2.00436,0.53031 0.53717,0 1.0583,-0.10033 1.52331,-0.28666 0.61735,-0.25082 1.07434,-0.67363 1.32288,-1.21827 0.24052,-0.54464 0.33673,-1.21828 0.25656,-1.83458 z m -0.93002,1.19677 c -0.12027,0.47298 -0.36881,0.82413 -0.73761,1.03912 -0.72959,0.41565 -1.81194,0.46581 -2.64576,0.1075 -0.48104,-0.20066 -0.82579,-0.55898 -0.97812,-0.99612 -0.10423,-0.30099 -0.12026,-0.62347 -0.0481,-0.99612 0.0802,-0.42998 0.28863,-0.8098 0.59329,-1.10362 0.0561,-0.0573 0.12026,-0.11466 0.19242,-0.16483 0.3688,-0.27948 0.83382,-0.45148 1.32288,-0.49447 0.0722,-0.007 0.15233,-0.007 0.22449,-0.007 0.84985,0 1.87608,0.38698 2.1166,1.22544 0.10423,0.39415 0.0962,0.85996 -0.0401,1.39027 z"
         id="path3349" />
      <path
         style="stroke-width:0.757995"
         d="m 614.09192,590.02421 c -0.0561,-0.46581 -0.28862,-0.85996 -0.67346,-1.12511 -0.3688,-0.26516 -0.85787,-0.42282 -1.37098,-0.45148 -0.47303,-0.0287 -0.97011,0.0788 -1.39504,0.30098 -0.45699,0.23649 -0.78571,0.59481 -0.922,0.98179 -0.18441,0.40132 -0.23251,0.8528 -0.1363,1.26128 0.10423,0.45864 0.37682,0.83129 0.77769,1.08211 0.39286,0.25083 0.91399,0.38699 1.45918,0.38699 0.39285,0 0.77769,-0.0717 1.11442,-0.20783 0.44898,-0.17916 0.78571,-0.48731 0.96209,-0.88862 0.17639,-0.40132 0.24053,-0.88863 0.1844,-1.34011 z m -0.68148,0.8743 c -0.0882,0.34398 -0.26457,0.60197 -0.53717,0.75246 -0.52915,0.30099 -1.32288,0.33682 -1.9322,0.0788 -0.34475,-0.15049 -0.60131,-0.40848 -0.71355,-0.7238 -0.0722,-0.21499 -0.0882,-0.45148 -0.0401,-0.7238 0.0561,-0.31532 0.20845,-0.58764 0.43294,-0.80263 0.0401,-0.043 0.0882,-0.0788 0.1363,-0.12183 0.26457,-0.20065 0.60932,-0.32965 0.96209,-0.35831 0.0561,-0.007 0.10423,-0.007 0.16035,-0.007 0.61734,0 1.36296,0.27949 1.53935,0.89579 0.0962,0.28666 0.0882,0.62347 -0.008,1.01046 z"
         id="path3351" />
      <path
         d="m 590.77989,609.85109 c -1.54026,-8.86292 -8.7054,-17.52076 -19.19476,-17.8685 -5.26418,-0.17832 -10.37238,2.02403 -13.40416,5.974 -7.12614,-3.21882 -15.58782,-3.48632 -22.57747,0.34774 -3.24625,1.78328 -5.98558,4.3423 -7.42835,7.57004 -1.50126,3.35257 -1.47202,6.98155 -1.2478,10.5392 -7.75979,-0.97189 -15.96801,0.23183 -22.66522,4.04805 -6.21953,3.53982 -11.23024,9.35332 -12.4683,16.05847 -1.23806,6.73189 1.04309,14.06118 6.85318,18.53722 6.31701,4.87728 15.46109,7.33821 23.64006,6.21474 7.46733,-1.02539 14.44725,-5.75108 16.76738,-12.40273 12.97523,6.04533 28.75802,0.23183 37.04423,-10.08447 2.17391,-2.71059 3.75316,-5.88483 3.96763,-9.24631 4.06512,-0.009 7.64281,-2.58577 9.37804,-5.97401 2.14467,-4.18179 2.10567,-9.2374 1.33554,-13.71344 z m -3.178,9.85264 c -0.77988,3.65573 -3.8994,7.94453 -8.61766,7.04397 -0.88711,-0.16941 -1.9302,0.37448 -1.88146,1.31071 0.23397,4.03022 -1.93019,7.7127 -4.73776,10.69078 -2.66134,2.83542 -5.86859,5.23394 -9.47552,6.99939 -7.45759,3.63789 -16.69915,4.04805 -24.03975,-0.0535 -0.77014,-0.42798 -1.97894,-0.0446 -2.16417,0.80248 -1.25755,5.74217 -6.46324,10.14688 -12.53654,11.66267 -7.23337,1.81003 -15.34411,-0.0802 -21.50514,-3.78948 -5.7906,-3.4774 -8.63716,-9.55839 -8.062,-15.8088 0.54592,-5.91159 4.5233,-11.28818 9.72899,-14.67642 7.02865,-4.58303 15.76329,-5.47468 24.14698,-4.58303 0.73113,0.0802 1.50126,-0.66874 1.44277,-1.31964 -0.3217,-3.54873 -0.65314,-7.28471 0.6434,-10.70861 1.13082,-2.987 3.64594,-5.3231 6.57047,-6.91914 3.256,-1.78328 6.94093,-2.66601 10.73308,-2.55009 3.72392,0.107 7.35035,1.12346 10.81107,2.34502 0.23396,0.13374 0.50691,0.23182 0.78963,0.2764 0.01,0 0.01,0 0.0195,0.009 0.18522,0.0624 0.34119,0.0535 0.48742,0.0178 0.51667,-0.0357 1.03333,-0.24966 1.41353,-0.74006 2.02768,-2.58576 5.52738,-4.06588 8.95885,-4.22638 3.68493,-0.16941 7.29187,1.1413 10.07018,3.33474 3.10002,2.4431 5.21544,5.67975 6.35601,9.26415 1.17957,3.64682 1.64749,7.84645 0.84812,11.61809 z"
         id="path3437"
         style="stroke-width:0.932319" />
    </g>
  </g>
</svg>
