<?xml version="1.0" encoding="UTF-8" standalone="no"?>
<svg
   xmlns:dc="http://purl.org/dc/elements/1.1/"
   xmlns:cc="http://creativecommons.org/ns#"
   xmlns:rdf="http://www.w3.org/1999/02/22-rdf-syntax-ns#"
   xmlns:svg="http://www.w3.org/2000/svg"
   xmlns="http://www.w3.org/2000/svg"
   id="svg3472"
   version="1.1"
   viewBox="0 0 23.869209 26.765959"
   height="26.765959mm"
   width="23.869209mm">
  <defs
     id="defs3466" />
  <metadata
     id="metadata3469">
    <rdf:RDF>
      <cc:Work
         rdf:about="">
        <dc:format>image/svg+xml</dc:format>
        <dc:type
           rdf:resource="http://purl.org/dc/dcmitype/StillImage" />
        <dc:title></dc:title>
      </cc:Work>
    </rdf:RDF>
  </metadata>
  <g
     id="layer1">
    <g
       id="g3371"
       transform="matrix(0.33000967,0,0,0.36920301,-165.12016,-208.69917)">
      <g
         id="g3395"
         transform="matrix(0.66134164,0,0,0.59290269,-26.665392,241.77147)">
        <text
           transform="matrix(0.88,0.475,-0.475,0.88,835.7355,585.2409)"
           class="st9 st11"
           id="text3393">other</text>
      </g>
      <path
         style="stroke-width:0.757995"
         d="m 512.00664,623.98394 c 0.49709,0.75247 1.22667,1.25411 2.10859,1.4476 0.84985,0.19349 1.81194,0.13616 2.7099,-0.16482 0.81778,-0.27949 1.57943,-0.79547 2.10858,-1.46194 0.56924,-0.71663 0.81778,-1.54076 0.72157,-2.29322 -0.0321,-0.80263 -0.32871,-1.5981 -0.84183,-2.22874 -0.56924,-0.7023 -1.33891,-1.15378 -2.23686,-1.31144 -0.88192,-0.15049 -1.8841,-0.0358 -2.80611,0.33682 -0.65743,0.26516 -1.25072,0.65214 -1.70771,1.11078 -0.60933,0.61631 -0.91399,1.36161 -0.8739,2.16424 0.0321,0.80263 0.32871,1.67692 0.81777,2.40072 z m 0.40088,-1.94208 c -0.15234,-0.64497 -0.0561,-1.19677 0.26457,-1.64825 0.6414,-0.8743 1.95626,-1.47627 3.20698,-1.4476 0.72157,0.0143 1.36296,0.27948 1.81996,0.7453 0.31268,0.31531 0.53717,0.70946 0.68148,1.20394 0.16837,0.56614 0.15233,1.14661 -0.0481,1.66259 -0.0401,0.10033 -0.0802,0.20066 -0.1363,0.29382 -0.28061,0.52314 -0.75364,0.97462 -1.3309,1.26844 -0.0882,0.043 -0.17638,0.086 -0.27259,0.12183 -1.05028,0.42281 -2.54955,0.45865 -3.37534,-0.46581 -0.3688,-0.43715 -0.64941,-1.01762 -0.80976,-1.73426 z"
         id="path3397" />
      <path
         style="stroke-width:0.757995"
         d="m 506.71513,631.12161 c 0.36079,0.54465 0.88994,0.91013 1.53133,1.05346 0.61735,0.14332 1.32288,0.10032 1.97229,-0.12183 0.60131,-0.20066 1.15452,-0.58048 1.53935,-1.06779 0.40889,-0.52314 0.60131,-1.12511 0.52915,-1.66975 -0.024,-0.58764 -0.24052,-1.16095 -0.61734,-1.62676 -0.40889,-0.50881 -0.97813,-0.83846 -1.62754,-0.95312 -0.64139,-0.11467 -1.37098,-0.0215 -2.04445,0.24365 -0.48104,0.19349 -0.91398,0.47298 -1.2427,0.8098 -0.44898,0.45148 -0.66545,0.99612 -0.63338,1.57659 0.024,0.59481 0.24053,1.22544 0.59329,1.75575 z m 0.29665,-1.41893 c -0.11225,-0.46581 -0.0401,-0.87429 0.19242,-1.19678 0.46501,-0.6378 1.4271,-1.07495 2.33307,-1.05345 0.52114,0.007 0.99417,0.20066 1.3309,0.53747 0.2325,0.22933 0.39285,0.51598 0.49708,0.8743 0.12026,0.41564 0.11224,0.83129 -0.0321,1.21111 -0.0241,0.0717 -0.0561,0.14333 -0.0962,0.21499 -0.20044,0.37981 -0.54519,0.70947 -0.97011,0.92446 -0.0641,0.0287 -0.12828,0.0645 -0.20044,0.086 -0.76165,0.30815 -1.86004,0.32965 -2.46135,-0.34398 -0.27259,-0.30099 -0.47303,-0.7238 -0.59329,-1.25411 z"
         id="path3399" />
      <path
         style="stroke-width:0.757995"
         d="m 502.6102,636.94068 c 0.26458,0.40131 0.64942,0.66647 1.12244,0.76679 0.44898,0.10033 0.9621,0.0717 1.43513,-0.086 0.43294,-0.14333 0.84183,-0.42282 1.12244,-0.78113 0.29664,-0.37981 0.43294,-0.81696 0.38484,-1.21828 -0.016,-0.42998 -0.17639,-0.84562 -0.44898,-1.18244 -0.30466,-0.37265 -0.71355,-0.61631 -1.18658,-0.69514 -0.47303,-0.0788 -1.00218,-0.0143 -1.49125,0.17916 -0.35276,0.14333 -0.66544,0.34399 -0.90597,0.58764 -0.3207,0.32965 -0.48104,0.7238 -0.46501,1.14662 0.016,0.42998 0.17638,0.89579 0.43294,1.28277 z m 0.21647,-1.03912 c -0.0802,-0.34398 -0.0321,-0.6378 0.14432,-0.87429 0.33673,-0.46581 1.03425,-0.78113 1.6997,-0.7668 0.38483,0.007 0.72156,0.15049 0.97011,0.39415 0.16836,0.17199 0.28862,0.37981 0.36078,0.6378 0.0882,0.30099 0.0802,0.60914 -0.024,0.88146 -0.016,0.0573 -0.0401,0.1075 -0.0722,0.15766 -0.14431,0.27949 -0.40087,0.51598 -0.70553,0.67363 -0.0481,0.0215 -0.0962,0.043 -0.14432,0.0645 -0.56122,0.22216 -1.35495,0.24366 -1.78789,-0.25082 -0.20845,-0.22215 -0.35276,-0.53031 -0.44096,-0.91729 z"
         id="path3401" />
      <path
         style="stroke-width:0.757995"
         d="m 569.40351,589.70018 c -1.89212,-2.22873 -4.38554,-3.86265 -7.19164,-4.71545 -2.70188,-0.81696 -5.40376,-0.60197 -7.77692,-0.26515 0.74562,-2.68021 0.44897,-5.61124 -0.84985,-8.30579 -1.59547,-3.32518 -4.77038,-6.19171 -8.92342,-8.08362 -4.0007,-1.81309 -8.6428,-2.86654 -13.42921,-3.03853 -2.46937,-0.0932 -4.90667,0.10749 -7.23173,0.58764 -2.60567,0.53747 -5.02694,1.56226 -7.15958,2.45805 -3.38336,1.4261 -6.01308,2.8522 -8.23391,4.4503 -6.17343,3.63333 -9.41248,10.32669 -7.88115,16.28908 1.13848,4.44313 4.56995,8.12663 8.94747,9.61723 1.23468,0.42281 2.60567,0.70946 4.32942,0.91012 0.12828,0.0143 0.33673,0.0215 0.58527,0.0358 0.39286,0.0143 1.59547,0.0573 1.75582,0.25083 0.0962,0.15765 -0.0481,0.85279 -0.11224,1.15378 -0.0481,0.22932 -0.0882,0.42998 -0.0962,0.55897 -0.15233,2.32906 0.34475,4.71545 1.4271,6.89402 2.27695,4.59362 7.04733,7.46015 12.42704,7.49599 0.0321,0 0.0641,0 0.0882,0 2.61368,0 5.12314,-0.67364 7.08742,-1.89908 0.24854,-0.15766 0.48104,-0.32966 0.71355,-0.50881 0.1844,-0.13616 0.36078,-0.27949 0.5532,-0.40132 l 0.0882,-0.0573 c 0.47303,-0.31532 0.49709,-0.32965 0.8258,-0.12899 0.10423,0.0645 0.21647,0.18632 0.32872,0.30098 0.0802,0.086 0.15233,0.16483 0.2325,0.22933 0.97011,0.86712 2.07652,1.63392 3.30319,2.26456 2.71791,1.41177 5.74049,2.12123 8.8272,2.12123 1.86005,0 3.75216,-0.25798 5.62023,-0.78113 5.59617,-1.57659 10.43871,-5.38908 12.94817,-10.21203 3.14283,-6.04839 2.68584,-12.64142 -1.20262,-17.22071 z m -52.32984,8.32012 c -0.80976,-0.25799 -1.70772,-0.31532 -2.58162,-0.36548 -0.60131,-0.0358 -1.17856,-0.0717 -1.71573,-0.17199 -1.50728,-0.27949 -2.758,-0.66647 -3.82432,-1.19678 -1.84401,-0.91729 -3.42345,-2.34339 -4.57796,-4.11348 -2.53351,-3.91282 -2.51748,-8.7716 0.0481,-12.68442 0.93003,-1.41893 2.18075,-2.73754 3.68001,-3.89848 2.33308,-1.58377 5.02694,-2.60139 8.04951,-3.66917 0.94606,-0.33682 1.86807,-0.73097 2.76602,-1.11078 1.05028,-0.44431 2.13264,-0.91013 3.23905,-1.26844 1.9803,-0.64497 4.07286,-1.02479 6.21351,-1.14662 7.32794,-0.39415 16.6843,1.71276 21.05381,7.30967 2.49342,3.19618 2.98248,7.16633 1.23468,10.11887 -0.29664,0.50164 -0.26457,1.05345 0.0802,1.48343 0.3688,0.45864 1.01821,0.68797 1.67564,0.5948 0.39286,-0.0573 0.78571,-0.11466 1.17857,-0.17916 2.54954,-0.39414 4.95477,-0.76679 7.40009,-0.10032 2.14066,0.58047 4.17709,1.83458 5.73247,3.533 3.12681,3.41834 3.78424,8.60677 1.73177,13.53721 -1.90013,4.55063 -6.03713,8.25562 -11.08812,9.92538 -4.31338,1.4261 -8.81919,1.15378 -12.69161,-0.7668 -1.05029,-0.52314 -1.99634,-1.13945 -2.81412,-1.84891 -0.12828,-0.1075 -0.25656,-0.22933 -0.38484,-0.35115 -0.61734,-0.57331 -1.31486,-1.21828 -2.36514,-1.24695 -0.0241,0 -0.0481,0 -0.0722,0 -1.01822,0 -1.72375,0.58764 -2.34911,1.10362 -0.17639,0.14333 -0.34475,0.28665 -0.52114,0.41565 -0.88191,0.6378 -1.92418,1.12511 -3.10275,1.44043 -4.61804,1.24694 -9.71714,-0.48014 -12.40298,-4.19947 -1.29882,-1.79875 -2.06048,-3.89849 -2.2048,-6.07706 -0.024,-0.32965 0.0241,-0.75963 0.0641,-1.21111 0.14432,-1.39027 0.33674,-3.28218 -1.45115,-3.85549 z"
         id="path3439" />
    </g>
  </g>
</svg>
