<?xml version="1.0" encoding="UTF-8" standalone="no"?>
<svg
   xmlns:dc="http://purl.org/dc/elements/1.1/"
   xmlns:cc="http://creativecommons.org/ns#"
   xmlns:rdf="http://www.w3.org/1999/02/22-rdf-syntax-ns#"
   xmlns:svg="http://www.w3.org/2000/svg"
   xmlns="http://www.w3.org/2000/svg"
   xmlns:sodipodi="http://sodipodi.sourceforge.net/DTD/sodipodi-0.dtd"
   xmlns:inkscape="http://www.inkscape.org/namespaces/inkscape"
   sodipodi:docname="guidebg.svg"
   inkscape:version="1.0 (4035a4f, 2020-05-01)"
   id="svg448"
   version="1.1"
   viewBox="0 0 381 148.16667"
   height="148.16667mm"
   width="381mm">
  <defs
     id="defs442" />
  <sodipodi:namedview
     inkscape:window-maximized="0"
     inkscape:window-y="23"
     inkscape:window-x="137"
     inkscape:window-height="990"
     inkscape:window-width="1252"
     showgrid="false"
     inkscape:document-rotation="0"
     inkscape:current-layer="layer1"
     inkscape:document-units="mm"
     inkscape:cy="266.05719"
     inkscape:cx="402.85714"
     inkscape:zoom="0.35"
     inkscape:pageshadow="2"
     inkscape:pageopacity="0.0"
     borderopacity="1.0"
     bordercolor="#666666"
     pagecolor="#ffffff"
     id="base" />
  <metadata
     id="metadata445">
    <rdf:RDF>
      <cc:Work
         rdf:about="">
        <dc:format>image/svg+xml</dc:format>
        <dc:type
           rdf:resource="http://purl.org/dc/dcmitype/StillImage" />
        <dc:title></dc:title>
      </cc:Work>
    </rdf:RDF>
  </metadata>
  <g
     transform="translate(0.75595242,-77.772369)"
     id="layer1"
     inkscape:groupmode="layer"
     inkscape:label="Layer 1">
    <path
       style="stroke-width:0.264583"
       d="m 86.349417,120.93046 c -2.045229,1.05304 -4.09575,2.51354 -5.953125,4.04812 1.312333,-3.683 3.881437,-6.85006 4.651375,-10.76589 0.568854,-2.89719 0.608542,-7.09613 -1.484313,-9.50648 1.56898,-4.40796 -0.502708,-8.940275 -3.055937,-12.641795 -0.418042,-0.605896 -1.346729,-0.07937 -0.994833,0.582083 1.722437,3.225271 3.452812,7.125229 2.44475,10.816162 -0.06879,-0.0344 -0.137584,-0.0714 -0.211667,-0.10318 -1.542521,-0.69321 -3.463396,-0.75407 -4.908021,0.21431 -1.232958,0.8255 -2.143125,2.4765 -1.725083,3.9714 0.452437,1.60866 2.188104,2.26483 3.720041,1.93675 1.722438,-0.36778 3.135313,-1.7145 4.011084,-3.21734 1.846791,2.74638 0.799041,7.70996 -0.325438,10.28171 -1.267354,2.89719 -3.307291,5.47952 -4.15925,8.52223 -1.198562,-2.51619 -2.746375,-4.9239 -4.204229,-7.25752 -0.394229,-0.63236 -1.30175,-0.082 -0.986896,0.57679 1.423459,2.99244 2.854854,6.19125 4.802188,8.88736 0.03175,0.045 0.07144,0.082 0.111125,0.11377 0.304271,0.58737 1.36525,0.6641 1.648354,0.008 2.569104,-1.57953 5.262562,-3.3099 7.577667,-5.21226 0.73025,-0.60325 -0.195792,-1.64571 -0.957792,-1.25412 z m -6.299729,-14.23723 c -0.629709,0.55827 -2.177521,1.49225 -2.976563,0.68791 -0.788458,-0.79375 0.264584,-2.12725 0.9525,-2.52677 0.947209,-0.55033 2.259542,-0.48154 3.209396,-0.0159 0.05556,0.0265 0.105833,0.0582 0.15875,0.0873 -0.341312,0.66411 -0.791104,1.2753 -1.344083,1.76742 z"
       id="path310" />
    <path
       style="stroke-width:0.264583"
       d="m 156.21,205.17643 c -0.29104,-0.83608 -1.25412,-1.11389 -1.97644,-1.44462 -1.20914,-0.55298 -2.41564,-1.143 -3.70152,-1.50019 -0.73025,-0.20373 -1.04775,0.75671 -0.48948,1.15888 0.73554,0.53181 1.52665,0.9525 2.33363,1.37318 0.16139,0.0847 0.73819,0.33867 1.22502,0.55298 -5.54567,1.17475 -11.2739,1.70657 -16.93333,1.23825 -2.78078,-0.23018 -5.61975,-0.78845 -8.07773,-2.16693 -0.11113,-0.0635 -0.2249,-0.12965 -0.33867,-0.19844 1.14565,-0.32015 2.24102,-0.82815 3.25702,-1.56633 2.35479,-1.71186 3.6486,-4.64344 1.56369,-7.14111 -1.78065,-2.13519 -5.59859,-2.95804 -8.00365,-1.46579 -2.19339,1.3626 -2.83898,4.32065 -2.02141,6.65427 0.26193,0.75142 0.64029,1.43669 1.10331,2.0664 -3.7465,-0.1958 -7.60677,-1.9685 -10.5754,-3.86027 -4.68841,-2.98186 -7.87664,-7.1755 -9.65729,-12.40896 -0.18785,-0.55298 -1.16946,-0.51065 -1.09008,0.14817 0.72231,5.99545 5.21758,11.0146 10.18381,14.08906 3.59569,2.22514 8.45344,4.20423 12.92225,3.88143 1.07156,0.87313 2.30452,1.56898 3.54277,2.09021 3.66448,1.54517 7.73906,1.80975 11.67077,1.80711 4.08781,0 8.17298,-0.42069 12.17877,-1.22767 -0.21166,0.27781 -0.39158,0.51065 -0.45508,0.61383 -0.56886,0.91546 -1.17211,1.82827 -1.64836,2.794 -0.59795,1.21709 1.01336,2.12461 1.79653,1.0504 0.9181,-1.26206 1.6801,-2.67758 2.43945,-4.04019 0.4154,-0.74348 1.06363,-1.60602 0.75142,-2.49767 z m -25.58785,-9.40593 c 3.57452,2.08227 0.53975,5.35781 -2.08227,6.33941 -0.74348,0.27782 -1.51078,0.45773 -2.28865,0.55298 -1.15888,-1.12977 -2.00554,-2.55587 -1.92088,-4.20423 0.17198,-3.37873 3.66978,-4.21481 6.2918,-2.68816 z"
       id="path312" />
    <path
       style="stroke-width:0.264583"
       d="m 264.84527,179.40867 c -2.16429,0.39952 -4.39208,0.31485 -6.53785,0.72495 -0.56356,0.10848 -0.51858,0.96044 0,1.09538 1.15358,0.30162 2.39713,0.33867 3.64067,0.26458 -3.02154,2.80988 -6.24946,5.42925 -9.53823,7.90046 -3.12473,2.3495 -7.81579,6.35529 -11.95388,3.97669 0.43127,-0.26988 0.85725,-0.54769 1.27265,-0.83873 2.07169,-1.4605 4.18306,-3.38667 4.826,-5.94254 0.49477,-1.96586 -0.045,-4.44236 -2.17752,-5.15938 -4.88686,-1.64041 -8.6704,4.30213 -8.01952,8.52223 0.19579,1.26206 0.635,2.30452 1.25412,3.13796 -3.91319,2.06639 -8.17562,3.02683 -12.63914,3.37608 -0.70644,0.0556 -0.71173,1.05304 0,1.10331 4.73868,0.3228 9.63877,-0.97102 13.86152,-3.24908 2.35743,1.77006 5.91873,1.78858 8.92439,0.36248 3.05329,-1.44992 5.77321,-3.77296 8.41111,-5.85258 2.59291,-2.04523 5.06148,-4.21746 7.51946,-6.41615 -0.28575,1.53194 -0.43392,3.13267 -0.16934,4.55084 0.15611,0.8255 1.48431,0.80962 1.651,0 0.43392,-2.10873 0.36248,-4.33123 0.76465,-6.46907 0.12964,-0.69056 -0.39952,-1.21443 -1.09009,-1.08743 z m -23.3045,3.91054 c 1.1774,-0.45773 2.76755,-0.45244 3.26761,0.9181 0.37571,1.02658 0.0132,2.22515 -0.46567,3.1459 -1.016,1.94733 -2.92364,3.36285 -4.72546,4.5376 -0.16139,0.10583 -0.32543,0.20373 -0.48683,0.30427 -2.14048,-2.73579 -0.9234,-7.60677 2.41035,-8.90587 z"
       id="path314" />
    <path
       style="stroke-width:0.264583"
       d="m 368.28678,190.58202 c -0.58208,-1.12713 -1.31233,-2.13783 -2.10343,-3.12738 -0.40217,-0.5027 -1.0848,0.13759 -0.83873,0.64823 0.3757,0.78317 0.72231,1.58221 1.05833,2.3839 0.18256,0.43392 0.65087,1.29117 0.87048,2.00289 -5.08,0.42863 -10.19969,0.26459 -15.22942,-0.60325 -4.27831,-0.73818 -10.47485,-1.58749 -12.90637,-5.71764 2.79135,-0.6059 5.36575,-2.23838 4.35504,-5.40015 -0.59002,-1.84414 -2.74108,-2.5056 -4.40002,-1.62983 -1.87591,0.98954 -2.48445,3.35227 -2.16959,5.31548 0.0264,0.16933 0.0582,0.33337 0.0952,0.49477 -0.0159,0 -0.0291,0 -0.045,0 -4.4794,0.0529 -8.47725,-2.6326 -10.62567,-6.46642 -0.30692,-0.54504 -1.28587,-0.17198 -1.03981,0.43921 1.651,4.07194 5.57477,6.86065 9.89541,7.45067 0.66146,0.09 1.4605,0.10583 2.29923,0.0397 1.71187,3.85233 6.30239,5.54831 10.22351,6.54049 6.00075,1.51871 12.2555,2.04788 18.43352,1.66423 -0.30427,0.23813 -0.59531,0.45509 -0.77258,0.62177 -0.77258,0.72496 -1.54517,1.44728 -2.29658,2.19605 -0.96309,0.96043 0.49477,2.40241 1.48695,1.48695 1.12978,-1.0451 2.2225,-2.13518 3.30465,-3.22527 0.6006,-0.60325 1.57956,-1.25941 1.57163,-2.19075 -0.008,-0.92339 -0.75671,-2.13253 -1.16682,-2.92364 z m -29.60423,-8.85296 c 0.66675,-1.39964 3.20146,-2.23308 3.41313,-0.0741 0.19314,1.97115 -1.76477,2.83634 -3.55865,3.1459 -0.29368,-1.01071 -0.31221,-2.11402 0.14552,-3.07181 z"
       id="path316" />
  </g>
</svg>
