<svg xmlns="http://www.w3.org/2000/svg" viewBox="0 0 841.92 595.2">
<defs>
<style>
.cls-1{font-size:16.26px;font-family:Asap-Medium, Asap;font-weight:500;}
</style>
</defs>
<title>apple pageMesa de trabajo 2</title>
<g id="Capa_2" data-name="Capa 2">
<text class="cls-1" transform="translate(453.22 77.97)">She 
<tspan class="cls-2" x="29.98" y="0">w</tspan>
<tspan x="41.97" y="0">as trying to eat an app</tspan>
<tspan class="cls-3" x="202.04" y="0">l</tspan>
<tspan class="cls-4" x="206.34" y="0">e.</tspan>
<tspan x="0" y="19.51">But the </tspan>
<tspan class="cls-5" x="55.58" y="19.51">w</tspan>
<tspan x="67.56" y="19.51">orry-knot in her tummy s</tspan>
<tspan class="cls-2" x="243.68" y="19.51">e</tspan>
<tspan x="252.29" y="19.51">em</tspan>
<tspan class="cls-5" x="274.84" y="19.51">e</tspan>
<tspan class="cls-4" x="283.44" y="19.51">d to </tspan>
<tspan class="cls-6" x="315.24" y="19.51">g</tspan>
<tspan class="cls-4" x="323.79" y="19.51">et</tspan>
<tspan x="0" y="39.02">bi</tspan>
<tspan class="cls-6" x="13.56" y="39.02">gg</tspan>
<tspan x="30.67" y="39.02">e</tspan>
<tspan class="cls-7" x="39.43" y="39.02">r</tspan>
<tspan x="44.57" y="39.02">. It </tspan>
<tspan class="cls-3" x="65.75" y="39.02">l</tspan>
<tspan class="cls-4" x="70.05" y="39.02">e</tspan>
<tspan class="cls-6" x="78.81" y="39.02">f</tspan>
<tspan x="83.77" y="39.02">t no space for food.</tspan>
<tspan x="0" y="58.54">She didn’t f</tspan>
<tspan class="cls-2" x="79.92" y="58.54">e</tspan>
<tspan x="88.52" y="58.54">el li</tspan>
<tspan class="cls-8" x="115.15" y="58.54">k</tspan>
<tspan x="123.13" y="58.54">e finishing her app</tspan>
<tspan class="cls-9" x="255.67" y="58.54">l</tspan>
<tspan x="259.96" y="58.54">e. She felt tears</tspan>
<tspan x="0" y="78.05">sta</tspan>
<tspan class="cls-2" x="21.14" y="78.05">r</tspan>
<tspan x="26.93" y="78.05">ting to form in her </tspan>
<tspan class="cls-2" x="160.6" y="78.05">ey</tspan>
<tspan class="cls-4" x="176.86" y="78.05">es.</tspan>
</text>
<text class="cls-1" transform="translate(43.85 159.42)">
<tspan class="cls-6">T</tspan>
<tspan x="8.6" y="0">he day befo</tspan>
<tspan class="cls-10" x="92.78" y="0">r</tspan>
<tspan x="98.4" y="0">e school sta</tspan>
<tspan class="cls-11" x="183.23" y="0">r</tspan>
<tspan x="189.02" y="0">t</tspan>
<tspan class="cls-2" x="194.58" y="0">e</tspan>
<tspan x="203.18" y="0">d, Ina</tspan>
<tspan class="cls-6" x="242.01" y="0">r</tspan>
<tspan x="247.64" y="0">a</tspan>
<tspan x="0" y="19.51">sta</tspan>
<tspan class="cls-11" x="21.14" y="19.51">r</tspan>
<tspan x="26.93" y="19.51">t</tspan>
<tspan class="cls-2" x="32.49" y="19.51">e</tspan>
<tspan x="41.09" y="19.51">d f</tspan>
<tspan class="cls-2" x="59.46" y="19.51">e</tspan>
<tspan x="68.06" y="19.51">eling a litt</tspan>
<tspan class="cls-12" x="140.83" y="19.51">l</tspan>
<tspan class="cls-13" x="145.12" y="19.51">e mo</tspan>
<tspan class="cls-6" x="180.82" y="19.51">r</tspan>
<tspan x="186.45" y="19.51">e sca</tspan>
<tspan class="cls-6" x="222.58" y="19.51">r</tspan>
<tspan class="cls-2" x="228.21" y="19.51">e</tspan>
<tspan x="236.81" y="19.51">d than</tspan>
<tspan x="0" y="39.02">befo</tspan>
<tspan class="cls-6" x="32.55" y="39.02">r</tspan>
<tspan class="cls-13" x="38.18" y="39.02">e. She had many </tspan>
<tspan class="cls-11" x="158.61" y="39.02">w</tspan>
<tspan class="cls-13" x="170.6" y="39.02">orries.</tspan>
<tspan x="0" y="58.54">Scary thoughts </tspan>
<tspan class="cls-11" x="109.85" y="58.54">w</tspan>
<tspan x="121.83" y="58.54">e</tspan>
<tspan class="cls-10" x="130.6" y="58.54">r</tspan>
<tspan x="136.22" y="58.54">e </tspan>
<tspan class="cls-6" x="148.89" y="58.54">g</tspan>
<tspan class="cls-13" x="157.44" y="58.54">etting pi</tspan>
<tspan class="cls-12" x="217.1" y="58.54">l</tspan>
<tspan class="cls-2" x="221.39" y="58.54">e</tspan>
<tspan x="229.99" y="58.54">d-up inside her</tspan>
<tspan x="0" y="78.05">tummy and turning into a big knot.</tspan>
<tspan x="0" y="117.07">A </tspan>
<tspan class="cls-11" x="13.87" y="117.07">w</tspan>
<tspan class="cls-13" x="25.85" y="117.07">orry-knot.</tspan>
</text>
</g>
</svg>