<?xml version="1.0" encoding="UTF-8" standalone="no"?>
<svg
   xmlns:dc="http://purl.org/dc/elements/1.1/"
   xmlns:cc="http://creativecommons.org/ns#"
   xmlns:rdf="http://www.w3.org/1999/02/22-rdf-syntax-ns#"
   xmlns:svg="http://www.w3.org/2000/svg"
   xmlns="http://www.w3.org/2000/svg"
   id="svg83"
   version="1.1"
   viewBox="0 0 44.000001 35.649357"
   height="35.649357mm"
   width="44mm">
  <defs
     id="defs77" />
  <metadata
     id="metadata80">
    <rdf:RDF>
      <cc:Work
         rdf:about="">
        <dc:format>image/svg+xml</dc:format>
        <dc:type
           rdf:resource="http://purl.org/dc/dcmitype/StillImage" />
        <dc:title></dc:title>
      </cc:Work>
    </rdf:RDF>
  </metadata>
  <g
     id="layer1">
    <path
       style="stroke-width:0.309707"
       d="M 43.996099,34.103809 Q 42.974063,21.774352 43.101044,9.3891419 c 0.02787,-2.3568758 0.126981,-4.7106497 0.164145,-7.0644272 A 1.5268584,1.5268584 0 0 0 41.753816,0.81024405 C 36.532146,1.0487187 31.282602,1.0053604 26.054738,0.94651577 20.826874,0.88767231 15.524679,0.73901149 10.287523,0.49434228 7.3422046,0.35497444 4.4030794,0.18463508 1.4546633,0.00190779 0.70826784,-0.04144933 0.11672652,0.66158439 0.09814405,1.358427 -0.12174814,9.80725 -0.01954522,18.314912 0.89718967,26.726579 a 63.239196,63.239196 0 0 0 1.09017043,7.222378 0.43978479,0.43978479 0 0 0 0.021678,0.06812 v 0.04648 a 1.5888,1.5888 0 0 0 1.5485384,1.548541 q 15.1911585,0.01861 30.3885085,0.0371 h 8.482892 c 0.799046,0.01241 1.635256,-0.703042 1.567121,-1.545439 z M 12.04976,32.511909 H 3.5885486 C 3.5204109,30.811618 3.3748496,29.105134 3.2788413,27.417227 3.161152,25.308121 3.0001046,23.199003 2.9009976,21.086795 2.6996879,16.911941 2.5912904,12.724689 2.6253581,8.5529372 2.6408444,6.6389383 2.6780093,4.7249477 2.7492407,2.814052 7.5342239,3.1795066 12.331594,3.4334675 17.128965,3.6100004 q 7.878962,0.3097083 15.773408,0.3097083 c 2.418816,0 4.837632,-0.043358 7.253352,-0.058844 -0.167243,3.635968 -0.154855,7.2905153 -0.126981,10.9264833 q 0.04027,6.147698 0.374747,12.282998 0.148659,2.750203 0.362358,5.494215 -14.354946,-0.04647 -28.716089,-0.05268 z"
       id="path36" />
    <path
       style="fill:#d4d7ff;stroke-width:0.309707"
       class="cls-1"
       d="M 40.768945,32.545985 Q 26.410903,32.518121 12.04976,32.511917 H 3.5885486 C 3.5204109,30.811618 3.3748496,29.105134 3.2788413,27.417227 3.161152,25.308121 3.0001046,23.199003 2.9009976,21.086795 2.6996879,16.911941 2.5912904,12.724689 2.6253581,8.5529372 2.6408444,6.6389383 2.6780093,4.7249477 2.7492407,2.814052 7.5342239,3.1795066 12.331594,3.4334675 17.128965,3.6100004 q 7.878962,0.3097083 15.773408,0.3097083 c 2.418816,0 4.837632,-0.043358 7.253352,-0.058844 -0.167243,3.635968 -0.154855,7.2905153 -0.126981,10.9264833 q 0.04027,6.147698 0.374747,12.282998 0.151757,2.731627 0.365454,5.475639 z"
       id="path38" />
  </g>
</svg>
