<?xml version="1.0" encoding="UTF-8" standalone="no"?>
<svg
   xmlns:dc="http://purl.org/dc/elements/1.1/"
   xmlns:cc="http://creativecommons.org/ns#"
   xmlns:rdf="http://www.w3.org/1999/02/22-rdf-syntax-ns#"
   xmlns:svg="http://www.w3.org/2000/svg"
   xmlns="http://www.w3.org/2000/svg"
   id="svg83"
   version="1.1"
   viewBox="0 0 40.000004 40.07391"
   height="40.07391mm"
   width="40.000004mm">
  <defs
     id="defs77" />
  <metadata
     id="metadata80">
    <rdf:RDF>
      <cc:Work
         rdf:about="">
        <dc:format>image/svg+xml</dc:format>
        <dc:type
           rdf:resource="http://purl.org/dc/dcmitype/StillImage" />
        <dc:title></dc:title>
      </cc:Work>
    </rdf:RDF>
  </metadata>
  <g
     id="layer1">
    <path
       style="stroke-width:0.237089"
       d="M 39.717232,1.2386316 C 39.105545,-0.09618749 37.583426,-0.01083527 36.350564,0.00813488 L 32.682784,0.06978561 17.776972,0.30687212 2.9280604,0.54396758 1.0953579,0.57479295 A 1.107208,1.107208 0 0 0 0,1.6677762 Q 0.19441488,8.8231416 0.42439542,15.976132 c 0.16121488,4.767869 0.30346857,9.538104 0.47417301,14.305981 0.0948418,2.607979 0.23709547,5.204111 0.43150137,7.804984 a 1.0787572,1.0787572 0 0 0 -0.3176984,0.801361 1.2091564,1.2091564 0 0 0 1.1854504,1.18545 L 16.36155,39.836813 30.466001,39.599726 38.465399,39.462213 a 1.2091564,1.2091564 0 0 0 1.185451,-1.185442 q 0.08298,-7.461208 0.165964,-14.922417 0.08298,-7.461208 0.151734,-14.8607661 0.02133,-1.8658935 0.02608,-3.7317961 0,-0.9175296 0,-1.8350681 A 4.016296,4.016296 0 0 0 39.717232,1.2386495 Z M 37.718565,2.203582 Z m 0,0 z m 0.04507,1.3964609 c -0.02375,1.2233818 -0.05215,2.4467635 -0.06873,3.6701453 Q 37.592961,14.582028 37.495762,21.896234 l -0.184934,14.623679 c 0,0.203896 0,0.405426 0,0.609321 q -6.493884,0.09958 -12.990133,0.203896 L 10.216244,37.570225 2.8261575,37.693509 C 2.916259,33.134275 2.8048307,28.579792 2.7052486,24.022933 2.6009262,19.252689 2.515574,14.484821 2.3970308,9.7169516 Q 2.3093039,6.2364721 2.221586,2.7536267 L 15.709602,2.537876 30.321427,2.3007895 33.92993,2.243888 c 1.185451,-0.018997 2.389862,-0.092467 3.577678,-0.049822 h 0.132773 v 0 l 0.08531,0.021327 v 0.023746 c 0,0.037904 0.02133,0.075899 0.02133,0.078228 0,0.00269 0,0.071149 0,0.087727 0,0.1019478 0,0.2038955 0,0.3058432 0.03557,0.3105835 0.02133,0.6045805 0.02133,0.8985685 z"
       id="path32" />
    <path
       style="fill:#d4d7ff;stroke-width:0.237089"
       class="cls-1"
       d="m 37.782581,2.7275506 c 0,0.293988 0,0.5879849 -0.01425,0.8819729 -0.02375,1.2233818 -0.05215,2.4467635 -0.06873,3.6701453 Q 37.597656,14.591509 37.500449,21.905714 l -0.184926,14.623689 c 0,0.203895 0,0.405416 0,0.609321 q -6.493883,0.09957 -12.990132,0.203895 L 10.220939,37.579706 2.830862,37.702989 C 2.9209545,33.143765 2.8095351,28.589272 2.7099441,24.032414 2.6056217,19.26217 2.5202695,14.494301 2.4017263,9.7264322 Q 2.3139994,6.2459616 2.2262815,2.7631162 L 15.714297,2.5473655 30.326131,2.3102701 33.934626,2.2533686 c 1.18545,-0.018997 2.389862,-0.092458 3.577687,-0.049822 h 0.132764 v 0 l 0.08531,0.021327 v 0.023746 c 0,0.037904 0.02133,0.075899 0.02133,0.078228 0,0.00269 0,0.071149 0,0.087727 0.0285,0.1090627 0.03083,0.2110104 0.03083,0.3129581 z"
       id="path34" />
  </g>
</svg>
