<?xml version="1.0" encoding="UTF-8" standalone="no"?>
<svg
   xmlns:dc="http://purl.org/dc/elements/1.1/"
   xmlns:cc="http://creativecommons.org/ns#"
   xmlns:rdf="http://www.w3.org/1999/02/22-rdf-syntax-ns#"
   xmlns:svg="http://www.w3.org/2000/svg"
   xmlns="http://www.w3.org/2000/svg"
   id="svg83"
   version="1.1"
   viewBox="0 0 38.83609 38.476292"
   height="38.476292mm"
   width="38.83609mm">
  <defs
     id="defs77" />
  <metadata
     id="metadata80">
    <rdf:RDF>
      <cc:Work
         rdf:about="">
        <dc:format>image/svg+xml</dc:format>
        <dc:type
           rdf:resource="http://purl.org/dc/dcmitype/StillImage" />
        <dc:title></dc:title>
      </cc:Work>
    </rdf:RDF>
  </metadata>
  <g
     id="layer1">
    <path
       style="stroke-width:0.264583"
       d="m 38.811373,1.1893098 c 0,-0.59795998 -0.52917,-1.24618998 -1.18533,-1.18532998 -4.41325,0.39952 -8.85032,0.6006 -13.2715,0.87577 -4.42119,0.27515998 -8.84767,0.55297998 -13.26886,0.85724998 -2.3468504,0.16404 -4.6884204,0.34925 -7.0273304,0.58473 -0.92075,0 -1.85209,-0.0503 -2.76225,-0.0529 a 1.30175,1.30175 0 0 0 -1.28059003,1.28058 c -0.0556,4.49792 0.0476,8.9958402 0.1614,13.4937502 0.11377,4.49792 0.26458,9.04346 0.48683,13.56254 q 0.0794,1.67482 0.16934,3.35492 c 0.0291,0.56885 0.0556,1.14035 0.0926,1.70921 0.0397,0.63764 0.15875003,1.27529 0.62706003,1.74889 0.46832,0.47361 1.15623,0.62178 1.83092,0.64823 l 1.71185,0.0661 3.35757,0.11113 q 6.7495204,0.19844 13.4937504,0.22754 6.74423,0.0291 13.49375,-0.127 l 1.71185,-0.0423 a 1.3229167,1.3229167 0 0 0 1.30175,-1.30175 l 0.16669,-13.94354 q 0.0847,-7.00352 0.15875,-14.0229202 c 0.0423,-2.6035 0.0847,-5.22287 0.0318,-7.84489 z M 3.5688726,35.82062 a 0.09789583,0.09789583 0 0 1 0.0132,0.0609 0.28310417,0.28310417 0 0 0 -0.0132,-0.0609 z M 36.162893,15.1302 l -0.1905,14.02292 -0.0873,6.58813 q -5.97694,0.13229 -11.95387,0.127 -6.58813,0 -13.17361,-0.16405 -3.2914204,-0.0847 -6.5828304,-0.20637 l -0.64294,-0.0265 -0.0318,-0.57415 q -0.0926,-1.64306 -0.17198,-3.28877 -0.32015,-6.58018 -0.50271,-13.16566 -0.18256,-6.58548 -0.22754,-13.2291702 c 0,-0.14023 0,-0.28046 0,-0.42333 0.69321,-0.037 1.38906,-0.0767 2.08491,-0.0847 a 1.2435417,1.2435417 0 0 0 1.11125,-0.77523 c 3.68036,-0.09 7.3607104,-0.27781 11.0410704,-0.4736 l 13.26885,-0.70908 c 2.0955,-0.11378 4.19365,-0.23813 6.29179,-0.31221 -0.16933,4.22804 -0.17462,8.4613702 -0.23283,12.6947002 z"
       id="path58" />
    <path
       style="fill:#d4d7ff;stroke-width:0.264583"
       class="cls-1"
       d="m 36.398373,2.4302098 c -0.16404,4.23333 -0.16933,8.4666602 -0.22754,12.7158702 l -0.1905,14.02292 -0.0873,6.58812 q -5.97694,0.13229 -11.95388,0.127 -6.58812,0 -13.1736,-0.16404 -3.2914204,-0.0847 -6.5828404,-0.20638 l -0.64294,-0.0265 -0.0317,-0.57415 q -0.0926,-1.64306 -0.17197,-3.28877 -0.32015,-6.58019 -0.50271,-13.16567 -0.18257,-6.58548 -0.22754,-13.2291602 c 0,-0.14023 0,-0.28046 0,-0.42334 0.6932,-0.037 1.38906,-0.0767 2.08491,-0.0847 a 1.2435417,1.2435417 0 0 0 1.11125,-0.77523 c 3.68036,-0.09 7.3607104,-0.27781 11.0410604,-0.47361 l 13.26886,-0.70908 c 2.08227,-0.14817 4.16983,-0.27252 6.2865,-0.33337 z"
       id="path60" />
  </g>
</svg>
