<?xml version="1.0" encoding="UTF-8" standalone="no"?>
<svg
   xmlns:dc="http://purl.org/dc/elements/1.1/"
   xmlns:cc="http://creativecommons.org/ns#"
   xmlns:rdf="http://www.w3.org/1999/02/22-rdf-syntax-ns#"
   xmlns:svg="http://www.w3.org/2000/svg"
   xmlns="http://www.w3.org/2000/svg"
   id="svg83"
   version="1.1"
   viewBox="0 0 45.175965 40"
   height="40mm"
   width="45.175964mm">
  <defs
     id="defs77" />
  <metadata
     id="metadata80">
    <rdf:RDF>
      <cc:Work
         rdf:about="">
        <dc:format>image/svg+xml</dc:format>
        <dc:type
           rdf:resource="http://purl.org/dc/dcmitype/StillImage" />
        <dc:title></dc:title>
      </cc:Work>
    </rdf:RDF>
  </metadata>
  <g
     id="layer1">
    <path
       style="stroke-width:0.264815"
       d="M 45.161708,7.1973635 Q 45.137888,5.227134 45.087548,3.2542623 C 45.069027,2.5630855 45.06102,1.8851604 44.764459,1.244308 44.41225,0.47369147 43.652233,0.11883998 42.852492,0.02880095 a 14.212662,14.212662 0 0 0 -1.808698,0 L 39.057681,0.06323117 35.085443,0.12938925 19.196496,0.39421171 3.3075493,0.65902415 c -0.6620401,0 -1.3240792,0.0344302 -1.98347,0.0450395 A 1.324079,1.324079 0 0 0 0,2.028146 1.5173944,1.5173944 0 0 0 0.1085743,2.5154036 0.95333682,0.95333682 0 0 0 0.06884943,2.7484382 C 0.03441921,4.9437653 0.11386895,7.13644 0.16683544,9.331757 c 0.0529665,2.15296 0.12181593,4.30591 0.19066738,6.456218 q 0.2065563,6.458849 0.26481645,12.920361 0.0344302,3.694173 0.0211885,7.385713 a 1.2817083,1.2817083 0 0 0 1.25522683,1.255222 c 5.2751344,0.354852 10.5529074,0.722944 15.8306894,1.05926 l 15.761837,1.016892 8.905756,0.572002 c 0.760018,0.05034 1.247276,-0.646147 1.324073,-1.324072 q 0.794447,-7.84914 1.157246,-15.730058 0.362798,-7.880917 0.283359,-15.7459515 z m -2.82559,14.1941305 q -0.301884,7.714081 -1.032776,15.406983 c -0.01591,0.169479 -0.03443,0.338958 -0.05034,0.508446 L 26.600736,36.374765 Q 18.719818,35.871623 10.836248,35.381714 7.0123113,35.151321 3.1830801,34.920929 3.1539545,28.981115 3.0003526,23.046586 2.9103136,19.749632 2.7646668,16.455331 C 2.6719855,14.305022 2.5819434,12.144126 2.4045177,9.9991128 2.2217943,7.7746602 2.0655531,5.5528599 1.7848488,3.3416489 Q 9.3718225,3.2145374 16.958792,3.0927204 L 32.50613,2.827908 l 7.743206,-0.1350585 1.983472,-0.03443 h 0.195972 c 0,0.11387 0,0.2250976 0,0.3389675 0,0.3283683 0.01851,0.6567465 0.02652,0.9851148 0.01591,0.6355579 0.02652,1.2711158 0.03974,1.9066736 Q 42.638033,13.637687 42.336148,21.391494 Z M 42.60093,2.6531246 a 0.66998393,0.66998393 0 0 0 0.143006,0 0.09798184,0.09798184 0 0 1 -0.132406,0 z"
       id="path28" />
    <path
       style="fill:#d4d7ff;stroke-width:0.264815"
       class="cls-1"
       d="m 42.336118,21.391494 q -0.301884,7.714081 -1.032776,15.406983 c -0.01591,0.169479 -0.03443,0.338958 -0.05034,0.508446 L 26.600736,36.374765 Q 18.719818,35.871623 10.836248,35.381714 7.0123113,35.151321 3.1830801,34.920929 3.1539545,28.981115 3.0003526,23.046586 2.9103136,19.749632 2.7646668,16.455331 C 2.6719855,14.305022 2.5819434,12.144126 2.4045177,9.9991128 2.2217943,7.7746602 2.0655531,5.5528599 1.7848488,3.3416489 Q 9.3718225,3.2145374 16.958792,3.0927204 L 32.50613,2.827908 l 7.743206,-0.1350585 1.983472,-0.03443 h 0.195972 c 0,0.11387 0,0.2250976 0,0.3389675 0,0.3283683 0.01851,0.6567465 0.02652,0.9851148 0.01591,0.6355579 0.02652,1.2711158 0.03974,1.9066736 q 0.142995,7.7485116 -0.15889,15.5023186 z"
       id="path30" />
  </g>
</svg>
