<?xml version="1.0" encoding="UTF-8" standalone="no"?>
<svg
   xmlns:dc="http://purl.org/dc/elements/1.1/"
   xmlns:cc="http://creativecommons.org/ns#"
   xmlns:rdf="http://www.w3.org/1999/02/22-rdf-syntax-ns#"
   xmlns:svg="http://www.w3.org/2000/svg"
   xmlns="http://www.w3.org/2000/svg"
   id="svg83"
   version="1.1"
   viewBox="0 0 39.434551 39.160252"
   height="39.160252mm"
   width="39.434551mm">
  <defs
     id="defs77" />
  <metadata
     id="metadata80">
    <rdf:RDF>
      <cc:Work
         rdf:about="">
        <dc:format>image/svg+xml</dc:format>
        <dc:type
           rdf:resource="http://purl.org/dc/dcmitype/StillImage" />
        <dc:title></dc:title>
      </cc:Work>
    </rdf:RDF>
  </metadata>
  <g
     id="layer1">
    <path
       style="stroke-width:0.264583"
       d="M 35.951585,35.945414 Z"
       id="path20" />
    <path
       style="stroke-width:0.264583"
       d="m 3.254377,36.294664 v 0 c -0.02646,0 -0.07408,-0.0132 -0.103187,-0.0185 a 0.2301875,0.2301875 0 0 1 0.103187,0.0185 z"
       id="path22" />
    <path
       style="stroke-width:0.264583"
       d="m 36.406669,4.6901802 h -0.05292 0.07408 v 0 z m 3.01625,0.07937 a 2.6458333,2.6458333 0 0 0 -2.4765,-2.661708 C 31.996064,1.4093422 26.992794,0.97013322 22.005398,0.62088322 q -7.389813,-0.529161 -14.816667,-0.592661 c -1.2065,0 -2.426229,-0.0635 -3.630083,0 -1.275292,0.0635 -2.521479,0.566208 -3.066521,1.80181198 -0.463021,1.058334 -0.4445,2.166938 -0.452437,3.288771 0,1.23825 -0.02117,2.4765 -0.02117,3.704167 0,0.587375 0,1.17475 0,1.7594788 a 7.5988333,7.5988333 0 0 0 0.06615,0.849313 c 0.01852,0.150812 0.03969,0.304271 0.05821,0.455083 0,0.08731 0.02117,0.171979 0.0344,0.264584 v 0 c 0,0.03175 0.03175,0.394229 0.03175,0.264583 a 1.0583333,1.0583333 0 0 0 0.03704,0.264583 c -0.02911,1.177396 -0.07144,2.354792 -0.08996,3.529542 q -0.05027,3.735917 -0.08996,7.469185 -0.03969,3.73327 -0.05027,7.53534 L 0,34.918824 c 0,1.32292 0.145521,2.61938 1.322917,3.42636 0.947208,0.65352 2.206625,0.59531 3.304646,0.62706 q 1.87325,0.0556 3.749145,0.0953 3.704167,0.0794 7.432146,0.09 7.434792,0.0265 14.866938,-0.20638 1.87325,-0.0609 3.7465,-0.13493 c 1.187979,-0.0476 2.452687,-0.082 3.3655,-0.95515 0.912812,-0.87312 0.941916,-2.24631 0.97102,-3.4581 0.02911,-1.21179 0.05821,-2.46592 0.08467,-3.70417 l 0.341313,-14.993937 q 0.08202,-3.730625 0.169333,-7.4638958 l 0.03969,-1.852084 a 13.689542,13.689542 0 0 0 0.02911,-1.61925 z M 3.01096,2.7560762 c 0,0 -0.01588,0.01588 -0.0344,0.02646 a 0.09260417,0.09260417 0 0 1 0.0344,-0.02646 z M 2.667002,36.003614 c 0,0 0.01588,0.0212 0.02381,0.0503 a 0.15610417,0.15610417 0 0 1 -0.0291,-0.0503 z m 33.24225,0 c 0,0 0,-0.0238 0,-0.037 h 0.01852 a 0.206375,0.206375 0 0 1 -0.02381,0.0503 z M 36.779731,5.5765342 q -0.08467,3.60098 -0.164042,7.1993128 -0.166687,7.14375 -0.330729,14.266337 -0.07938,3.60098 -0.164041,7.19931 c 0,0.26458 0,0.55033 -0.01852,0.8255 0,0.10054 0,0.20108 0,0.29898 0,0.0503 0,0.10319 -0.01323,0.15346 v 0 c 0,0 0,0.0291 0,0.045 -0.01323,0.18256 -0.01588,0.0397 0,-0.0265 -0.02381,0.0767 -0.06615,0.28046 -0.06879,0.30162 l -0.01852,0.037 -0.0291,0.0503 a 0.28575,0.28575 0 0 1 0.05292,-0.0344 l -0.05821,0.0423 v 0 h -0.01852 -0.03175 l -0.116416,0.0423 c -0.0926,0.0265 -0.187854,0.045 -0.283104,0.0661 h -0.01853 -0.06615 c -0.113771,0 -0.227542,0.0159 -0.343958,0.0238 -0.579438,0.0291 -1.158875,0.0476 -1.738313,0.0714 q -7.14375,0.27781 -14.271625,0.32015 -7.127875,0.0423 -14.274271,-0.15611 c -0.508,-0.0159 -1.016,-0.0212 -1.524,-0.0609 h -0.04762 c -0.08996,0 -0.0926,0 -0.06615,-0.0159 h -0.02117 c -0.0926,-0.0212 -0.182562,-0.0556 -0.264583,-0.0741 l -0.0635,-0.0344 -0.05556,-0.0476 -0.02381,-0.0397 c 0,-0.045 -0.0291,-0.0926 -0.03969,-0.13758 -0.01058,-0.045 -0.01852,-0.0556 -0.0291,-0.0979 v 0 c 0,-0.12171 -0.01588,-0.24077 -0.02117,-0.35983 -0.01852,-0.58738 0,-1.17475 0,-1.75948 q -0.01587,-3.57185 -0.04498,-7.14373 c -0.0344,-4.725458 -0.0979,-9.44827 -0.22225,-14.171083 0,0 0,-0.01852 0,-0.0291 0.01323,-0.08467 0.02381,-0.166687 0.03704,-0.251354 l 0.05556,-0.378354 a 10.832042,10.832042 0 0 0 0.121708,-1.095375 c 0.02381,-0.587375 0.03704,-1.1721048 0.04763,-1.7594798 0.02117,-1.172104 0.03175,-2.346854 0.04762,-3.518958 0,-0.529167 0,-1.074208 0.03175,-1.608667 a 1.3414375,1.3414375 0 0 0 0.02646,-0.264583 c 0,-0.0291 0,-0.06085 0.01588,-0.08996 0.01588,-0.08996 0.03969,-0.179917 0.0635,-0.264583 l 0.03969,-0.127 c 0.03704,-0.05821 0.07144,-0.119067 0.105835,-0.179921 l 0.02646,-0.0291 0.103188,-0.06085 0.01852,-0.01323 0.153459,-0.03704 c 0.05027,0 0.103187,-0.01852 0.153458,-0.03175 h 0.04498 c 0.08467,0 0.174625,0 0.246063,0 0.277812,0 0.555625,0 0.833437,0 q 7.117292,0.01587 14.221354,0.423333 7.104063,0.407458 14.134042,1.227667 c 1.150937,0.129645 2.293937,0.264583 3.439583,0.41275 v 0 h 0.06615 -0.05292 0.07408 0.03175 l 0.08202,0.01852 0.20902,0.05027 0.01588,0.0635 a 0.21960417,0.21960417 0 0 1 0,0.0344 c 0.01588,0.254 0.0053,0.497416 0,0.740833 z"
       id="path24" />
    <path
       style="fill:#d4d7ff;stroke-width:0.264583"
       class="cls-1"
       d="m 36.774439,5.5924092 q -0.08467,3.60098 -0.164041,7.1993128 -0.166688,7.14375 -0.330729,14.266332 -0.07938,3.60098 -0.164042,7.19931 c 0,0.26459 0,0.55034 -0.01852,0.8255 0,0.10055 0,0.20109 0,0.29898 0,0.0503 0,0.10319 -0.01323,0.15346 v 0 0 0 c -0.02381,0.0767 -0.06615,0.28046 -0.06879,0.30163 l -0.01852,0.037 -0.0291,0.0503 a 0.02116667,0.02116667 0 0 0 -0.01323,0 v 0 0 h -0.03175 l -0.116417,0.0423 c -0.0926,0.0265 -0.187854,0.045 -0.283104,0.0661 h -0.01852 -0.06615 c -0.113771,0 -0.227542,0.0159 -0.343959,0.0238 -0.579437,0.0291 -1.158875,0.0476 -1.738312,0.0714 q -7.14375,0.27781 -14.271625,0.32014 -7.127875,0.0423 -14.274271,-0.1561 c -0.508,-0.0159 -1.016,-0.0212 -1.524,-0.0609 a 0.2301875,0.2301875 0 0 0 -0.113773,-0.0185 h -0.02117 c -0.0926,-0.0212 -0.182562,-0.0556 -0.264583,-0.0741 l -0.0635,-0.0344 -0.05556,-0.0476 -0.02381,-0.0397 c 0,-0.045 -0.0291,-0.0926 -0.03969,-0.13759 -0.01058,-0.045 -0.01852,-0.0556 -0.0291,-0.0979 v 0 c 0,-0.12171 -0.01587,-0.24077 -0.02117,-0.35983 -0.01852,-0.58738 0,-1.17475 0,-1.75948 q -0.01588,-3.57188 -0.04498,-7.14375 c -0.0344,-4.725459 -0.0979,-9.448271 -0.22225,-14.171084 0,0 0,-0.01852 0,-0.0291 0.01323,-0.08467 0.02381,-0.166687 0.03704,-0.251354 l 0.05556,-0.378354 a 10.832042,10.832042 0 0 0 0.121708,-1.095375 c 0.02381,-0.587375 0.03704,-1.1721048 0.04763,-1.7594798 0.02117,-1.172104 0.03175,-2.346854 0.04762,-3.518958 0,-0.529167 0,-1.074208 0.03175,-1.608667 a 1.3414375,1.3414375 0 0 0 0.02646,-0.264583 c 0,-0.0291 0,-0.06085 0.01588,-0.08996 0.01588,-0.08996 0.03969,-0.179917 0.0635,-0.264584 l 0.03969,-0.127 c 0.03704,-0.05821 0.07144,-0.119064 0.105835,-0.179918 l 0.02646,-0.0291 0.103188,-0.06085 0.01852,-0.01323 0.153458,-0.03704 c 0.05027,0 0.103188,-0.01852 0.153459,-0.03175 h 0.04498 c 0.08467,0 0.174625,0 0.246062,0 0.277813,0 0.555625,0 0.833438,0 q 7.117291,0.01588 14.221354,0.423333 7.104062,0.407458 14.12875,1.240896 c 1.150937,0.129646 2.293937,0.264583 3.439583,0.41275 h 0.07408 0.03175 l 0.08202,0.01852 0.209021,0.05027 0.01588,0.0635 a 0.21960417,0.21960417 0 0 1 0,0.0344 c 0.0291,0.254 0.01852,0.497416 0.01323,0.740833 z"
       id="path26" />
  </g>
</svg>
