<?xml version="1.0" encoding="utf-8"?>

<svg preserveAspectRatio="none"
     overflow="visible"
     xmlns="http://www.w3.org/2000/svg"
	 viewBox="20 25 330 200" >
<g>
    <path fill="#ffffff"  d="M38.9,62.7c-7.5,10.8-7.3,23.2-7.8,36.4c-0.6,15.8-1.2,31.7-1.2,47.6c0,14.9,0.7,29.9,5,44.2
        c1.5,4.9,3.4,9.7,6.7,13.6c6.9,8.1,18.3,10.5,28.9,12c82.8,11.9,167,4.1,250.1-5.4c3.3-0.4,6.8-0.8,9.4-2.8
        c3.8-2.9,4.9-8.1,5.6-12.8c4.2-29,5-58.4,5.9-87.6c0.3-12.2,0.7-24.5-1.7-36.5c-0.8-4.3-2.1-8.7-4.9-12.1
        c-4-4.8-10.5-6.8-16.7-7.9c-9.6-1.8-19.4-2.2-29.2-2.5c-68.7-2.7-137.5-5.4-206.1-2C66.7,47.5,48.5,49.7,38.9,62.7"/>
    
    <path fill="#4bbcc0ff" opacity="0.5" d="M38.9,62.7c-7.5,10.8-7.3,23.2-7.8,36.4c-0.6,15.8-1.2,31.7-1.2,47.6c0,14.9,0.7,29.9,5,44.2
        c1.5,4.9,3.4,9.7,6.7,13.6c6.9,8.1,18.3,10.5,28.9,12c82.8,11.9,167,4.1,250.1-5.4c3.3-0.4,6.8-0.8,9.4-2.8
        c3.8-2.9,4.9-8.1,5.6-12.8c4.2-29,5-58.4,5.9-87.6c0.3-12.2,0.7-24.5-1.7-36.5c-0.8-4.3-2.1-8.7-4.9-12.1
        c-4-4.8-10.5-6.8-16.7-7.9c-9.6-1.8-19.4-2.2-29.2-2.5c-68.7-2.7-137.5-5.4-206.1-2C66.7,47.5,48.5,49.7,38.9,62.7"/>

    <path fill="#4bbcc0ff" opacity="1"
            d="M35.8,60.9c-8,11.7-7.8,25.9-8.3,39.5c-0.6,15.6-1.2,31.3-1.1,46.9c0.1,15,0.8,30.3,5.2,44.8c2,6.5,4.9,13,10.1,17.6
            c4.7,4.1,10.6,6.6,16.6,8.2c6.6,1.7,13.4,2.5,20.1,3.3c7.8,1,15.6,1.8,23.4,2.5c15.5,1.4,31.1,2.1,46.6,2.4
            c31.2,0.5,62.4-0.9,93.5-3.4c15.5-1.2,31-2.7,46.4-4.3c7.7-0.8,15.4-1.7,23.1-2.5c3.9-0.4,7.7-0.8,11.6-1.3
            c3.5-0.5,6.9-1.4,9.7-3.7c5.1-4.2,5.9-11.3,6.8-17.4c1.1-7.8,1.9-15.7,2.6-23.6c1.3-15.6,2-31.3,2.5-47
            c0.5-15.3,1.7-30.9-0.3-46.2c-0.9-7-2.2-14.4-6.9-20c-4.2-5-10.7-7.3-16.9-8.6c-15.4-3.2-31.5-2.9-47.1-3.6
            c-15.7-0.6-31.5-1.2-47.2-1.7c-31.7-1-63.3-1.6-95-1.2c-15.8,0.2-31.7,0.7-47.5,1.4c-11.9,0.6-24.2,1.6-35,7
            C43.6,52.6,39.3,56.3,35.8,60.9c-1.2,1.6-0.3,4.1,1.3,5c1.9,1.1,3.8,0.3,5-1.3c6.3-8.4,17.3-11.6,27.6-13.1
            c5.6-0.8,11.7-1.1,17.5-1.3c7.8-0.4,15.5-0.6,23.3-0.8c30.6-0.8,61.3-0.6,91.9,0.1c30.7,0.7,61.4,1.8,92.1,3.2
            c7.4,0.3,14.8,0.8,22.1,2.1c5.4,1,11.6,2.3,15.4,6.7c1.8,2.1,2.8,4.8,3.5,7.4c0.9,3.3,1.4,6.8,1.8,10.2
            c0.8,7.4,0.8,14.8,0.7,22.2c-0.6,30.1-1.4,60.4-5.5,90.2c-0.7,4.8-0.9,12-5.6,14.5c-2.6,1.4-5.9,1.5-8.8,1.8
            c-3.6,0.4-7.3,0.8-11,1.2c-15,1.7-30.1,3.3-45.1,4.6c-30.2,2.8-60.5,4.8-90.8,5.2c-30.1,0.4-60.3-0.9-90.2-4.6
            c-6.5-0.8-13.1-1.6-19.5-3.1c-5.2-1.2-10.7-3.1-14.8-6.6c-4.7-4.1-7-9.9-8.7-15.7c-1.9-6.8-3.1-13.9-3.7-20.9
            c-1.3-14.8-0.9-29.8-0.5-44.6c0.2-7.6,0.5-15.2,0.8-22.9C35,94,35,87.5,35.9,81.2c0.9-6,2.7-11.7,6.2-16.7c1.1-1.6,0.3-4-1.3-5
            C39,58.5,36.9,59.2,35.8,60.9L35.8,60.9z"/>

</g>

</svg>
