<svg id="Capa_1" data-name="Capa 1" xmlns="http://www.w3.org/2000/svg" viewBox="0 0 397.04 266.26"><defs><style>.cls-1{fill:#fff;}.cls-2,.cls-3,.cls-4,.cls-5,.cls-6,.cls-7{isolation:isolate;}.cls-2{font-size:9.12px;fill:#4bbcc0;}.cls-2,.cls-4,.cls-5{font-family:ChelseaMarket-Regular, Chelsea Market;}.cls-3{font-size:27.34px;}.cls-3,.cls-6{font-family:AmaticSC-Bold, Amatic SC;font-weight:700;}.cls-4{font-size:36.31px;}.cls-4,.cls-8{fill:#fdc700;}.cls-5{font-size:36.53px;fill:#fa8807;}.cls-6{font-size:36.27px;}.cls-7{font-size:32.87px;fill:#804cbf;font-family:PatrickHand-Regular, Patrick Hand;}</style></defs><title>1</title><path class="cls-1" d="M371.88,232.75H23.58q-.16-45.7.09-91.42.2-31.11.61-62.24c.15-10.68,0-21.36,0-32,0-8.93.18-18-.41-26.9,9.58.58,19.37,0,28.89-.2q17.84-.32,35.7-.47,34.77-.3,69.57,0,70,.54,140,3.35,36.63,1.47,73.26,3.61c-.78,34.53-.32,69.1-.11,103.65Q371.57,181.41,371.88,232.75Z"/><g id="click_here_to_learn_more" data-name="click here to learn more"><text class="cls-2" transform="translate(105.8 206.9)">click here</text><text class="cls-2" transform="translate(86.11 217.84)">to learn more</text></g><g id="we_Create" data-name="we Create"><text class="cls-3" transform="translate(160.27 50.86)">we Create</text></g><g id="PERSONALIZED_" data-name="PERSONALIZED "><text class="cls-4" transform="translate(67.74 96.85)">PERSONALIZED</text></g><g id="BOOKS"><text class="cls-5" transform="translate(66.79 142.21)">BOOKS</text></g><g id="TO_PRESERVE" data-name="TO PRESERVE"><text class="cls-6" transform="translate(211.73 142.67)">TO PRESERVE</text></g><text class="cls-7" transform="translate(68.47 182.87)">PERSONAL MEMORIES</text><path d="M165.77,213.9a31.33,31.33,0,0,0,2.34-3.42.43.43,0,0,0,0-.74s0,0,0,0a25.79,25.79,0,0,0-4-2.17.26.26,0,0,0-.33.15.27.27,0,0,0,.06.29c1,.7,2.15,1.31,3.26,1.9a32.2,32.2,0,0,0-3.82,1.88c-1.16.51-3.39,1-4.64.16a2.85,2.85,0,0,0,1.44-1.82,1.37,1.37,0,0,0-.87-1.68,1.71,1.71,0,0,0-1.8.78,2.28,2.28,0,0,0-.08,2.21s0,.07,0,.09c-1.66.46-3.41-.33-4.88-1.09a.26.26,0,0,0-.33.15.26.26,0,0,0,.07.28c1.66,1.16,3.7,2.08,5.69,1.38,1.09.94,3,.92,4.28.68,1.78-.35,3.2-1.51,4.86-2.1a15.32,15.32,0,0,0-1.82,2.69C165,213.81,165.49,214.22,165.77,213.9ZM158,211.23s0,0,0-.07a1.72,1.72,0,0,1,0-1.44c.18-.31.79-.79,1.14-.44s-.06,1.05-.3,1.34a2.89,2.89,0,0,1-.79.61Z"/><path class="cls-8" d="M376.11,143.87c-.55-39.11-.9-78.29-3-117.37-.08-1.64-.17-3.29-.27-4.92-.47,0-.93-.06-1.4-.08q-137.64-7.87-275.6-6.64-19.66.18-39.36.55c-10.82.2-22-.08-32.89,1.16-.69.07-1.37.16-2.05.26-.16,1-.3,2.08-.42,3.13-2,16.45-1.85,33.4-2.4,49.9-.65,18.9-.62,37.85-.8,56.75q-.53,54-.35,107.94v2.36H377v-3.36Q376.71,188.71,376.11,143.87ZM23.58,232.75q-.16-45.7.09-91.42.2-31.11.61-62.24c.15-10.68,0-21.36,0-32,0-8.93.18-18-.41-26.9,9.58.58,19.37,0,28.89-.2q17.84-.32,35.7-.47,34.77-.3,69.57,0,70,.54,140,3.35,36.63,1.47,73.26,3.61c-.78,34.53-.32,69.1-.11,103.65q.3,51.36.61,102.7Z"/></svg>