<?xml version="1.0" encoding="UTF-8" standalone="no"?>
<svg
   xmlns="http://www.w3.org/2000/svg"
   viewBox="276 400 70.14093 20.212286"
   width="100%"
   height="100%"
   preserveAspectRatio="none">

  <path
     style="stroke-width:0.436171"
     fill="#000000"
     d="m 304.98086,409.69889 c 1.08807,-0.88009 2.90443,-3.04167 1.34027,-4.15905 -1.54152,-1.10112 -4.13868,0.37037 -4.91381,1.33029 -1.06954,1.32364 -0.93932,3.15514 -0.0304,4.4821 0.0535,0.0776 0.11478,0.14859 0.17191,0.22326 1.28674,-0.47497 2.47466,-1.10223 3.432,-1.8766 z m 27.69479,8.80083 c 2.04591,-2.85759 4.88807,-5.72295 7.87485,-8.31588 -7.16509,1.83335 -13.32343,5.42281 -20.94506,6.49694 -5.63541,0.79396 -13.80261,0.85051 -18.49561,-2.07509 -8.57227,2.193 -17.3916,-0.70044 -24.59117,-4.26772 -1.17711,-0.58327 -0.15647,-1.88177 1.12976,-1.38832 6.27621,2.40665 13.85923,4.82438 21.03925,3.41462 -0.0679,-0.098 -0.13897,-0.19368 -0.20228,-0.29496 -1.34593,-2.15604 -1.46534,-4.83805 0.41536,-6.85733 1.60534,-1.72395 4.81756,-2.99472 7.72611,-2.4085 3.12729,0.63059 4.40374,3.05609 3.76758,5.19734 -0.71595,2.40775 -3.33575,4.38193 -6.25923,5.60466 5.34461,2.58185 15.00032,1.11591 19.99905,-0.45279 5.63592,-1.76904 10.66142,-4.61998 16.57734,-5.80981 -4.89528,-1.6733 -9.57953,-3.83636 -14.11967,-5.87227 -1.23012,-0.55185 -0.15852,-1.8182 1.12359,-1.38019 5.8207,1.98823 12.04595,3.98791 17.2871,6.71022 0.087,0.0451 0.15802,0.0991 0.22235,0.15561 1.14109,0.4247 1.29344,1.90543 0.0154,2.30204 -3.0717,3.58871 -6.43988,7.35041 -10.139,10.5854 -1.16116,1.01573 -3.18906,-0.27797 -2.42576,-1.34397 z" />
</svg>
