<?xml version="1.0" encoding="UTF-8" standalone="no"?>
<svg
   xmlns="http://www.w3.org/2000/svg"
   viewBox="731.935 660.623 91.173 58.763">
   <path
      d=" M 817.986 710.106 C 804.073 711.543 790.082 713.026 776.25 715.168 L 786.166 701.658 L 786.163 701.657 C 786.841 700.767 786.896 699.37 785.655 698.612 C 776.136 692.794 766.147 687.695 755.96 683.159 C 750.906 680.908 745.793 678.785 740.621 676.82 C 739.563 676.418 737.531 676.049 736.765 675.236 C 735.73 674.135 736.912 672.603 737.5 671.402 C 738.422 669.516 739.344 667.63 740.267 665.745 C 751.766 672.601 763.265 679.459 774.764 686.315 C 778.865 688.76 785.088 694.252 790.203 691.554 C 792.614 690.283 794.28 687.721 795.991 685.683 C 797.629 683.733 799.266 681.784 800.903 679.834 C 806.573 689.935 812.175 700.085 817.986 710.106 Z  M 822.85 710.74 C 816.425 698.791 809.659 687.013 803.037 675.17 C 802.424 674.076 800.644 673.729 799.779 674.752 C 797.734 677.172 795.69 679.592 793.646 682.012 C 792.184 683.741 790.166 687.332 787.889 688.009 C 785.528 688.711 782.174 685.866 780.298 684.745 C 777.727 683.207 775.157 681.668 772.586 680.129 C 761.873 673.719 751.159 667.309 740.446 660.9 C 739.512 660.341 738.041 660.646 737.539 661.668 C 736.02 664.758 734.438 667.825 732.981 670.943 C 732.016 673.006 731.323 675.206 732.742 677.259 C 734.226 679.409 737.186 680.05 739.486 680.914 C 742.493 682.043 745.48 683.223 748.445 684.456 C 759.736 689.15 770.579 694.739 781.181 700.802 C 776.507 705.693 772.547 711.221 768.958 716.947 C 768.364 717.893 769.114 719.518 770.34 719.378 C 787.284 717.448 804.153 715.157 821.15 713.663 C 822.623 713.534 823.598 712.131 822.85 710.74 Z " />
   <path
     transform="matrix(0.75,0,0,0.75,731.935,660.623)"
     d="m 62.724927,68.040147 c 1.797502,-2.445215 4.597747,-6.25425 6.222768,-8.464525 1.625022,-2.210272 3.199209,-4.419923 3.498196,-4.910336 0.637932,-1.046371 0.707088,-2.533646 0.154497,-3.32258 C 71.515852,49.794312 51.951743,39.128489 39.573019,33.33708 29.387355,28.571695 14.686368,22.418392 9.7493095,20.85395 7.070573,20.005119 6.1047421,19.271114 6.1047421,18.08418 c 0,-0.749264 4.8342599,-10.8923866 5.1913619,-10.8923866 0.08011,0 6.678608,3.8994096 14.663324,8.6653546 7.984717,4.765944 18.220325,10.87336 22.745797,13.572035 4.525472,2.698675 9.900299,5.986479 11.944061,7.306229 6.706303,4.330568 9.445836,5.491167 12.967359,5.493607 2.364446,0.0016 3.977831,-0.557236 5.849518,-2.02626 1.530114,-1.200933 2.384858,-2.164771 8.389039,-9.459738 2.116753,-2.571815 3.920404,-4.682807 4.008113,-4.691091 0.08771,-0.0083 2.948007,4.971582 6.356213,11.066371 3.408212,6.094789 8.437042,15.01851 11.175192,19.83049 2.73814,4.811981 4.94196,8.785542 4.89737,8.830133 -0.10179,0.10179 -1.88483,0.306296 -15.687234,1.799269 -12.857653,1.39078 -25.58813,2.958058 -33.344818,4.105155 -2.973864,0.439789 -5.496184,0.800297 -5.605159,0.801131 -0.108975,7.96e-4 1.272547,-1.999117 3.070048,-4.444332 z"
     style="opacity:1;fill:#4bbcc0;fill-opacity:1;stroke-width:0.265424" />
</svg>
