<?xml version="1.0" encoding="UTF-8" standalone="no"?>
<svg
   xmlns="http://www.w3.org/2000/svg"
   viewBox="731.935 519.988 91.173 58.763">
   <path
      d=" M 800.903 559.541 C 799.266 557.591 797.629 555.641 795.991 553.691 C 794.28 551.653 792.614 549.091 790.203 547.82 C 785.088 545.122 778.865 550.614 774.764 553.06 C 763.265 559.916 751.766 566.772 740.267 573.63 C 739.344 571.744 738.422 569.857 737.5 567.972 C 736.912 566.771 735.73 565.239 736.765 564.139 C 737.531 563.324 739.563 562.956 740.621 562.555 C 745.793 560.589 750.906 558.467 755.96 556.216 C 766.147 551.68 776.136 546.58 785.655 540.763 C 786.896 540.004 786.841 538.607 786.163 537.718 L 786.166 537.717 L 776.25 524.205 C 790.082 526.349 804.073 527.832 817.986 529.269 C 812.175 539.289 806.573 549.438 800.903 559.541 Z  M 821.15 525.712 C 804.153 524.217 787.284 521.926 770.34 519.996 C 769.114 519.856 768.364 521.481 768.958 522.428 C 772.547 528.153 776.507 533.682 781.181 538.571 C 770.579 544.636 759.736 550.225 748.445 554.919 C 745.48 556.151 742.493 557.331 739.486 558.461 C 737.186 559.324 734.226 559.966 732.742 562.115 C 731.323 564.169 732.016 566.368 732.981 568.432 C 734.438 571.55 736.02 574.616 737.539 577.705 C 738.041 578.728 739.512 579.033 740.446 578.475 C 751.159 572.064 761.873 565.655 772.586 559.245 C 775.157 557.707 777.727 556.167 780.299 554.63 C 782.174 553.509 785.528 550.663 787.889 551.365 C 790.166 552.042 792.184 555.634 793.646 557.362 C 795.69 559.782 797.734 562.202 799.779 564.622 C 800.644 565.645 802.424 565.299 803.037 564.203 C 809.659 552.361 816.425 540.584 822.85 528.634 C 823.598 527.243 822.623 525.841 821.15 525.712 Z " />
    <path
       transform="matrix(0.75,0,0,0.75,731.935,519.988)"
       d="M 8.6728583,66.114474 C 7.2829362,63.242503 6.1457271,60.558125 6.1457271,60.149187 c 0,-1.13317 0.9072386,-1.732373 4.4387319,-2.931642 13.892653,-4.717845 37.207123,-15.578016 54.09358,-25.197465 6.989171,-3.981414 8.406107,-5.101576 8.406107,-6.645471 0,-1.014839 -0.232884,-1.360323 -8.422202,-12.494442 -2.731015,-3.7130623 -4.965482,-6.8103002 -4.965482,-6.8827508 0,-0.072451 1.143782,0.050274 2.54174,0.272721 8.260527,1.3144409 39.628558,5.0739358 48.975368,5.8697548 1.48557,0.126487 2.76871,0.339474 2.85142,0.473305 0.0827,0.133831 -2.38589,4.706389 -5.48579,10.161238 -3.09989,5.45485 -8.11273,14.345932 -11.139638,19.757961 L 91.936091,52.372445 89.28434,49.226238 C 87.825876,47.495821 85.284055,44.453943 83.635845,42.466506 79.453519,37.423393 77.404188,36.1194 73.666059,36.122718 70.037331,36.12594 67.316928,37.270347 60.548324,41.641034 58.373687,43.045262 46.529185,50.185847 34.22721,57.509005 21.925235,64.832163 11.711484,70.939128 11.529986,71.080038 11.327038,71.237601 10.227044,69.32586 8.6728583,66.114474 Z"
       style="opacity:1;fill:#fdc700;stroke-width:0.326529;fill-opacity:1" />
</svg>
