<?xml version="1.0" encoding="UTF-8" standalone="no"?>
<svg
   xmlns="http://www.w3.org/2000/svg"
   viewBox="0 0 24.122833 15.547759">
  <g transform="translate(-94.203635,-119.43392)">
    <path
       style="stroke-width:0.264583"
       d="m 112.45145,129.89911 c -0.43313,-0.51594 -0.86625,-1.03187 -1.29964,-1.54781 -0.4527,-0.53922 -0.89349,-1.21709 -1.5314,-1.55337 -1.35335,-0.71385 -2.99985,0.73924 -4.08491,1.38642 -3.04244,1.81398 -6.084885,3.62796 -9.127328,5.44247 -0.244211,-0.499 -0.488157,-0.99827 -0.732102,-1.49701 -0.155575,-0.31776 -0.468313,-0.7231 -0.194469,-1.01415 0.202671,-0.21563 0.740304,-0.313 1.020233,-0.4191 1.368425,-0.52017 2.72124,-1.08161 4.058446,-1.67719 2.69531,-1.20015 5.33823,-2.54952 7.8568,-4.08861 0.32835,-0.20081 0.3138,-0.57044 0.13441,-0.80565 l 7.9e-4,-2.7e-4 -2.62361,-3.57505 c 3.65972,0.56727 7.36151,0.95965 11.04265,1.33985 -1.53749,2.65113 -3.01969,5.33638 -4.51987,8.00947 z m 5.35702,-8.95059 c -4.49713,-0.39555 -8.96038,-1.00171 -13.44348,-1.51236 -0.32438,-0.037 -0.52282,0.39291 -0.36566,0.64347 0.94959,1.51474 1.99734,2.97762 3.234,4.27117 -2.80511,1.6047 -5.67399,3.08345 -8.661396,4.32541 -0.784489,0.32596 -1.5748,0.63817 -2.370402,0.93715 -0.608542,0.22834 -1.391708,0.3982 -1.78435,0.96679 -0.375444,0.54345 -0.192087,1.12527 0.06324,1.67137 0.385497,0.82497 0.804068,1.63618 1.20597,2.45348 0.132821,0.27067 0.522023,0.35137 0.769144,0.20373 2.834481,-1.69624 5.669224,-3.39196 8.503704,-5.08794 0.68024,-0.40693 1.36022,-0.81438 2.04073,-1.22105 0.4961,-0.2966 1.38351,-1.0496 2.00819,-0.86386 0.60246,0.17912 1.13638,1.1295 1.52321,1.5867 0.5408,0.64029 1.08161,1.28059 1.62269,1.92088 0.22886,0.27067 0.69982,0.17912 0.86201,-0.11086 1.75207,-3.1332 3.54224,-6.2492 5.24219,-9.41097 0.19791,-0.36803 -0.0601,-0.73898 -0.44979,-0.77311 z"
       />
    <path
       style="opacity:1;fill:#804cbf;fill-opacity:1;stroke-width:0.0647957"
       d="m 95.924683,132.55364 c -0.275813,-0.56991 -0.501476,-1.10259 -0.501476,-1.18374 0,-0.22486 0.180028,-0.34377 0.880809,-0.58175 2.756823,-0.93619 7.383294,-3.09126 10.734194,-5.00012 1.38692,-0.79006 1.66809,-1.01234 1.66809,-1.31871 0,-0.20138 -0.0462,-0.26994 -1.67128,-2.47937 -0.54194,-0.73681 -0.98534,-1.35142 -0.98534,-1.36579 0,-0.0144 0.22697,0.01 0.50438,0.0541 1.6392,0.26083 7.86379,1.00685 9.71855,1.16478 0.29479,0.0251 0.54941,0.0674 0.56582,0.0939 0.0164,0.0266 -0.47345,0.93392 -1.08858,2.01637 -0.61514,1.08244 -1.60987,2.84677 -2.21052,3.92072 l -1.0921,1.95263 -0.52621,-0.62432 c -0.28941,-0.34338 -0.7938,-0.947 -1.12087,-1.34139 -0.82993,-1.00074 -1.23659,-1.2595 -1.97838,-1.25884 -0.72007,5.3e-4 -1.2599,0.22773 -2.60305,1.09504 -0.43153,0.27865 -2.78192,1.69561 -5.22309,3.1488 -2.441177,1.45319 -4.46797,2.66504 -4.503985,2.693 -0.04027,0.0313 -0.258553,-0.34809 -0.566962,-0.98535 z"
       />
  </g>
</svg>
