<?xml version="1.0" encoding="UTF-8" standalone="no"?>
<svg
   xmlns="http://www.w3.org/2000/svg"
   viewBox="731.934 590.517 99.262 54.903">
   <path
      d=" M 796.409 640.005 C 795.879 637.515 795.349 635.024 794.819 632.533 C 794.265 629.931 793.998 626.886 792.467 624.632 C 789.217 619.848 781.144 621.775 776.376 622.008 C 763.003 622.661 749.631 623.315 736.259 623.968 C 736.33 621.87 736.401 619.772 736.471 617.673 C 736.517 616.337 736.194 614.43 737.624 613.944 C 738.682 613.585 740.649 614.214 741.772 614.357 C 747.262 615.05 752.772 615.576 758.292 615.963 C 769.416 616.742 780.63 616.931 791.764 616.266 C 793.217 616.179 793.824 614.919 793.643 613.815 L 793.647 613.816 L 791.236 597.231 C 802.442 605.618 814.098 613.498 825.708 621.3 C 815.871 627.418 806.158 633.748 796.409 640.005 Z  M 830.171 619.646 C 815.866 610.344 802.049 600.4 787.996 590.738 C 786.979 590.039 785.555 591.122 785.634 592.236 C 786.113 598.977 787.013 605.718 788.845 612.23 C 776.636 612.605 764.438 612.446 752.265 611.289 C 749.069 610.985 745.878 610.624 742.693 610.209 C 740.257 609.892 737.342 609.068 735.022 610.268 C 732.805 611.415 732.384 613.682 732.266 615.957 C 732.089 619.395 732.046 622.845 731.935 626.285 C 731.899 627.424 733.055 628.385 734.141 628.33 C 746.61 627.701 759.078 627.073 771.547 626.445 C 774.539 626.294 777.532 626.143 780.524 625.993 C 782.707 625.884 787.004 624.946 788.759 626.676 C 790.451 628.342 790.547 632.46 791.024 634.673 C 791.693 637.77 792.361 640.866 793.03 643.963 C 793.313 645.273 795.049 645.803 796.103 645.123 C 807.511 637.777 819.015 630.558 830.3 623.025 C 831.613 622.148 831.41 620.451 830.171 619.646 Z " />
   <path
      transform="matrix(0.74999998,0,0,0.74999998,731.934,590.517)"
      d="m 86.109828,65.524287 c -0.03147,-1.166103 -3.943802,-17.970226 -4.379647,-18.811374 -1.723744,-3.326696 -5.065416,-5.232741 -9.763334,-5.568875 -1.604634,-0.114811 -5.711811,0.01932 -9.12706,0.298064 -6.925515,0.565249 -56.6045667,3.021205 -56.8169427,2.808829 -0.07438,-0.07438 2.516e-4,-2.74744 0.1658486,-5.940133 0.2258036,-4.353471 0.4643082,-5.968118 0.9538865,-6.457697 0.678997,-0.678997 1.0517868,-0.665266 7.2801046,0.268138 12.509558,1.874739 37.617469,3.198654 53.62289,2.827481 12.613095,-0.292503 13.806708,-0.490867 14.247673,-2.367788 0.135895,-0.57843 -0.453186,-5.923307 -1.309071,-11.877504 -0.855889,-5.954197 -1.518568,-10.8707253 -1.472632,-10.9256182 0.04594,-0.054893 2.010586,1.3163032 4.365878,3.0471022 6.461226,4.748061 21.729748,15.410081 31.613268,22.075566 4.8394,3.263709 8.79728,6.031592 8.79528,6.150851 -0.002,0.119258 -1.38594,1.065873 -3.07543,2.103587 -1.68948,1.037715 -10.27783,6.51265 -19.08521,12.166523 -8.807384,5.65387 -16.014356,10.245153 -16.015502,10.202848 z"
      style="opacity:1;fill:#4bbcc0;fill-opacity:1;stroke-width:0.424197" />
</svg>
