<?xml version="1.0" encoding="UTF-8" standalone="no"?>
<svg
   xmlns:dc="http://purl.org/dc/elements/1.1/"
   xmlns:cc="http://creativecommons.org/ns#"
   xmlns:rdf="http://www.w3.org/1999/02/22-rdf-syntax-ns#"
   xmlns:svg="http://www.w3.org/2000/svg"
   xmlns="http://www.w3.org/2000/svg"
   xmlns:sodipodi="http://sodipodi.sourceforge.net/DTD/sodipodi-0.dtd"
   xmlns:inkscape="http://www.inkscape.org/namespaces/inkscape"
   inkscape:version="1.0 (4035a4f, 2020-05-01)"
   sodipodi:docname="frame2-n.svg"
   version="1.1"
   viewBox="0 0 350 144.28999"
   data-name="Capa 1"
   id="Capa_1">
  <metadata
     id="metadata25">
    <rdf:RDF>
      <cc:Work
         rdf:about="">
        <dc:format>image/svg+xml</dc:format>
        <dc:type
           rdf:resource="http://purl.org/dc/dcmitype/StillImage" />
        <dc:title>2</dc:title>
      </cc:Work>
    </rdf:RDF>
  </metadata>
  <sodipodi:namedview
     inkscape:current-layer="Capa_1"
     inkscape:window-maximized="0"
     inkscape:window-y="23"
     inkscape:window-x="0"
     inkscape:cy="79.24"
     inkscape:cx="183.835"
     inkscape:zoom="2.5335034"
     showgrid="false"
     id="namedview23"
     inkscape:window-height="777"
     inkscape:window-width="1642"
     inkscape:pageshadow="2"
     inkscape:pageopacity="0"
     guidetolerance="10"
     gridtolerance="10"
     objecttolerance="10"
     borderopacity="1"
     bordercolor="#666666"
     pagecolor="#ffffff" />
  <defs
     id="defs12">
    <style
       id="style10">.cls-1{fill:#fdc700;}.cls-2{font-size:18.84px;font-family:Boogaloo-Regular, Boogaloo;}.cls-3{font-size:28.78px;fill:#fff;font-family:ChelseaMarket-Regular, Chelsea Market;}</style>
  </defs>
  <title
     id="title14">2</title>
  <polygon
     transform="translate(-23.98,-53.89)"
     id="polygon16"
     points="378.78,53.89 29.94,53.89 23.98,53.89 25.8,198.08 25.81,198.18 31.24,198.18 31.24,198.08 379.06,198.08 379.06,198.18 384.16,198.18 384.16,196.7 383.35,53.89 383.21,53.89 "
     class="cls-1" />
  <g
     class="cls-2"
     style="font-size:18.84px;font-family:Boogaloo-Regular, Boogaloo"
     id="text18"
     aria-label="GET YOUR FIRST PERSONALIZED E-BOOK FREE">
    <path
       id="path126"
       style="font-size:18.84px;font-family:Boogaloo-Regular, Boogaloo"
       d="m 25.67372,58.230519 q 0.07536,-0.3768 0.07536,-1.2246 0,-0.86664 -0.2826,-1.58256 -0.2826,-0.73476 -0.82896,-0.73476 -0.6594,0 -1.28112,1.71444 -0.62172,1.6956 -0.62172,3.65496 0,1.94052 0.3768,3.05208 0.3768,1.09272 1.11156,1.09272 0.73476,0 1.11156,-0.67824 0.3768,-0.67824 0.5652,-1.99704 -0.67824,0 -1.45068,0.13188 l -0.39564,-1.86516 q 1.71444,-0.11304 4.29552,-0.41448 0.11304,0.97968 0.11304,1.7898 0,0.81012 -0.48984,2.01588 -0.471,1.20576 -1.43184,2.12892 -0.942,0.92316 -2.0724,0.92316 -1.95936,0 -3.14628,-1.52604 -1.16808,-1.52604 -1.16808,-4.31436 0,-2.05356 0.50868,-3.84336 0.50868,-1.7898 1.5072,-2.93904 0.99852,-1.14924 2.27964,-1.14924 1.24344,0 2.33616,0.90432 0.5652,0.471 0.90432,1.35648 0.35796,0.86664 0.35796,1.82748 0,0.96084 -0.16956,1.86516 z" />
    <path
       id="path128"
       style="font-size:18.84px;font-family:Boogaloo-Regular, Boogaloo"
       d="m 30.196203,65.785359 q -0.07536,-2.97672 -0.07536,-5.63316 0,-2.65644 0.30144,-6.91428 3.22164,-0.48984 6.29256,-0.48984 v 2.31732 q -2.12892,0 -3.9564,0.13188 -0.07536,2.11008 -0.0942,3.24048 1.43184,-0.20724 3.3912,-0.24492 l 0.35796,2.0724 q -1.26228,0.01884 -3.78684,0.2826 0,2.2608 0.01884,3.25932 1.63908,-0.13188 3.91872,-0.5652 l 0.32028,2.0724 q -1.6014,0.73476 -3.78684,0.73476 z" />
    <path
       id="path130"
       style="font-size:18.84px;font-family:Boogaloo-Regular, Boogaloo"
       d="m 39.941488,65.747679 q -0.1884,-3.33468 -0.1884,-5.80272 0,-2.48688 0.11304,-5.181 l -2.29848,0.32028 -0.41448,-2.18544 q 1.84632,-0.32028 3.65496,-0.471 l 3.52308,-0.1884 0.35796,2.09124 q -1.0362,0.05652 -2.33616,0.16956 -0.11304,2.71296 -0.11304,4.97376 0,2.2608 0.07536,6.48096 z" />
    <path
       id="path132"
       style="font-size:18.84px;font-family:Boogaloo-Regular, Boogaloo"
       d="m 52.091521,62.111559 v -1.45068 q -2.46804,-5.21868 -2.7318,-7.51716 l 2.355,0.22608 q 0.41448,2.11008 1.73328,5.04912 1.56372,-3.41004 2.43036,-6.16068 l 2.18544,0.20724 q -1.39416,3.97524 -3.35352,8.08236 -0.03768,1.6956 -0.03768,2.97672 0,1.28112 0.07536,2.58108 l -2.48688,-0.26376 q -0.16956,-1.75212 -0.16956,-3.73032 z" />
    <path
       id="path134"
       style="font-size:18.84px;font-family:Boogaloo-Regular, Boogaloo"
       d="m 62.309573,66.350559 q -1.7898,0 -3.03324,-1.6014 -1.2246,-1.62024 -1.2246,-4.8984 0,-3.297 1.33764,-5.3694 1.35648,-2.0724 3.18396,-2.0724 1.82748,0 3.03324,1.62024 1.2246,1.62024 1.2246,4.87956 0,3.25932 -1.35648,5.35056 -1.35648,2.09124 -3.16512,2.09124 z m 0.2826,-11.69964 q -0.82896,0 -1.43184,1.46952 -0.60288,1.45068 -0.60288,3.6738 0,2.20428 0.50868,3.27816 0.52752,1.05504 1.29996,1.05504 0.77244,0 1.35648,-1.46952 0.60288,-1.46952 0.60288,-3.6738 0,-2.22312 -0.50868,-3.27816 -0.48984,-1.05504 -1.2246,-1.05504 z" />
    <path
       id="path136"
       style="font-size:18.84px;font-family:Boogaloo-Regular, Boogaloo"
       d="m 70.834377,61.282599 q 0,0.97968 0.43332,1.75212 0.43332,0.77244 1.01736,0.77244 0.60288,0 0.96084,-0.52752 0.35796,-0.52752 0.50868,-1.39416 0.26376,-1.52604 0.26376,-3.52308 0,-2.01588 -0.24492,-5.89692 l 2.56224,0.26376 q 0.26376,3.88104 0.26376,5.2752 0,1.39416 -0.03768,1.95936 -0.03768,0.54636 -0.15072,1.28112 -0.11304,0.73476 -0.30144,1.37532 -0.1884,0.64056 -0.50868,1.28112 -0.32028,0.64056 -0.7536,1.09272 -0.96084,1.0362 -2.61876,1.0362 -1.63908,0 -2.80716,-1.46952 -1.16808,-1.46952 -1.16808,-3.27816 0,-3.97524 0.43332,-8.478 l 2.56224,0.24492 q -0.41448,4.12596 -0.41448,8.23308 z" />
    <path
       id="path138"
       style="font-size:18.84px;font-family:Boogaloo-Regular, Boogaloo"
       d="m 78.559954,65.879559 q 0.24492,-4.5216 0.24492,-8.06352 0,-3.54192 -0.01884,-4.65348 2.0724,-0.97968 4.31436,-0.97968 1.65792,0 2.76948,1.05504 1.1304,1.05504 1.1304,2.97672 0,2.22312 -3.14628,4.27668 1.71444,2.14776 3.50424,4.72884 l -1.80864,1.33764 q -1.18692,-1.7898 -4.25784,-5.8404 -0.05652,2.90136 -0.16956,5.44476 z m 2.78832,-6.44328 q 1.39416,-0.6594 2.37384,-1.62024 0.97968,-0.97968 0.97968,-1.77096 0,-0.79128 -0.471,-1.2246 -0.45216,-0.43332 -1.20576,-0.43332 -0.7536,0 -1.65792,0.32028 0,3.18396 -0.01884,4.72884 z" />
    <path
       id="path140"
       style="font-size:18.84px;font-family:Boogaloo-Regular, Boogaloo"
       d="m 99.784688,52.748079 v 2.31732 q -2.11008,0 -3.9564,0.13188 -0.03768,0.54636 -0.07536,1.94052 -0.01884,1.37532 -0.03768,1.6956 2.11008,-0.2826 3.3912,-0.2826 l 0.3768,2.0724 q -2.11008,0.05652 -3.78684,0.26376 0,2.93904 0.07536,5.181 l -2.5434,-0.2826 q -0.03768,-3.05208 -0.03768,-5.67084 0,-2.61876 0.30144,-6.8766 3.22164,-0.48984 6.29256,-0.48984 z" />
    <path
       id="path142"
       style="font-size:18.84px;font-family:Boogaloo-Regular, Boogaloo"
       d="m 104.19089,52.672719 q -0.16956,2.97672 -0.16956,6.70704 0,3.73032 0.24492,6.80124 l -2.5434,-0.22608 q -0.24492,-3.84336 -0.24492,-6.93312 0,-3.1086 0.16956,-6.57516 z" />
    <path
       id="path144"
       style="font-size:18.84px;font-family:Boogaloo-Regular, Boogaloo"
       d="m 106.41519,65.879559 q 0.24492,-4.5216 0.24492,-8.06352 0,-3.54192 -0.0188,-4.65348 2.0724,-0.97968 4.31436,-0.97968 1.65792,0 2.76948,1.05504 1.1304,1.05504 1.1304,2.97672 0,2.22312 -3.14628,4.27668 1.71444,2.14776 3.50424,4.72884 l -1.80864,1.33764 q -1.18692,-1.7898 -4.25784,-5.8404 -0.0565,2.90136 -0.16956,5.44476 z m 2.78832,-6.44328 q 1.39416,-0.6594 2.37384,-1.62024 0.97968,-0.97968 0.97968,-1.77096 0,-0.79128 -0.471,-1.2246 -0.45216,-0.43332 -1.20576,-0.43332 -0.7536,0 -1.65792,0.32028 0,3.18396 -0.0188,4.72884 z" />
    <path
       id="path146"
       style="font-size:18.84px;font-family:Boogaloo-Regular, Boogaloo"
       d="m 120.83515,57.476919 q 0.24492,-0.92316 0.24492,-1.54488 0,-0.62172 -0.33912,-1.01736 -0.33912,-0.41448 -0.88548,-0.41448 -0.52752,0 -0.88548,0.52752 -0.35796,0.52752 -0.35796,1.20576 0,1.3188 1.5072,2.2608 1.5072,0.97968 2.05356,1.413 0.54636,0.43332 0.77244,0.79128 0.5652,0.92316 0.5652,1.90284 0,1.6956 -1.14924,2.71296 -1.1304,0.99852 -2.56224,0.99852 -1.6956,0 -2.84484,-1.43184 -0.82896,-1.0362 -1.52604,-2.58108 l 1.82748,-0.88548 q 0.43332,1.1304 1.07388,1.92168 0.6594,0.77244 1.39416,0.77244 0.471,0 0.8478,-0.30144 0.3768,-0.30144 0.3768,-0.90432 0,-0.62172 -0.471,-1.14924 -0.471,-0.52752 -1.26228,-1.07388 -0.79128,-0.54636 -1.2246,-0.88548 -0.43332,-0.35796 -0.96084,-0.90432 -0.99852,-1.05504 -0.99852,-2.69412 0,-1.65792 1.14924,-2.76948 1.14924,-1.1304 2.7318,-1.1304 1.58256,0 2.65644,1.2246 1.09272,1.2246 1.09272,2.52456 0,1.28112 -0.48984,2.20428 z" />
    <path
       id="path148"
       style="font-size:18.84px;font-family:Boogaloo-Regular, Boogaloo"
       d="m 126.81891,65.747679 q -0.1884,-3.33468 -0.1884,-5.80272 0,-2.48688 0.11304,-5.181 l -2.29848,0.32028 -0.41448,-2.18544 q 1.84632,-0.32028 3.65496,-0.471 l 3.52308,-0.1884 0.35796,2.09124 q -1.0362,0.05652 -2.33616,0.16956 -0.11304,2.71296 -0.11304,4.97376 0,2.2608 0.0754,6.48096 z" />
    <path
       id="path150"
       style="font-size:18.84px;font-family:Boogaloo-Regular, Boogaloo"
       d="m 137.23567,66.030279 q -0.0754,-2.12892 -0.0754,-5.10564 0,-2.99556 0.1884,-7.98816 1.58256,-0.58404 3.24048,-0.58404 1.67676,0 2.97672,1.24344 1.3188,1.2246 1.3188,3.1086 0,1.86516 -1.43184,3.24048 -1.413,1.35648 -3.71148,1.99704 0,2.11008 0.0565,4.3332 z m 4.37088,-7.42296 q 0.69708,-0.81012 0.69708,-1.80864 0,-0.99852 -0.52752,-1.62024 -0.50868,-0.62172 -1.14924,-0.62172 -0.16956,0 -0.77244,0.0942 -0.0942,2.65644 -0.11304,5.14332 1.18692,-0.3768 1.86516,-1.18692 z" />
    <path
       id="path152"
       style="font-size:18.84px;font-family:Boogaloo-Regular, Boogaloo"
       d="m 146.10636,65.785359 q -0.0754,-2.97672 -0.0754,-5.63316 0,-2.65644 0.30144,-6.91428 3.22164,-0.48984 6.29256,-0.48984 v 2.31732 q -2.12892,0 -3.9564,0.13188 -0.0754,2.11008 -0.0942,3.24048 1.43184,-0.20724 3.3912,-0.24492 l 0.35796,2.0724 q -1.26228,0.01884 -3.78684,0.2826 0,2.2608 0.0188,3.25932 1.63908,-0.13188 3.91872,-0.5652 l 0.32028,2.0724 q -1.6014,0.73476 -3.78684,0.73476 z" />
    <path
       id="path154"
       style="font-size:18.84px;font-family:Boogaloo-Regular, Boogaloo"
       d="m 154.28793,65.879559 q 0.24492,-4.5216 0.24492,-8.06352 0,-3.54192 -0.0188,-4.65348 2.0724,-0.97968 4.31436,-0.97968 1.65792,0 2.76948,1.05504 1.1304,1.05504 1.1304,2.97672 0,2.22312 -3.14628,4.27668 1.71444,2.14776 3.50424,4.72884 l -1.80864,1.33764 q -1.18692,-1.7898 -4.25784,-5.8404 -0.0565,2.90136 -0.16956,5.44476 z m 2.78832,-6.44328 q 1.39416,-0.6594 2.37384,-1.62024 0.97968,-0.97968 0.97968,-1.77096 0,-0.79128 -0.471,-1.2246 -0.45216,-0.43332 -1.20576,-0.43332 -0.7536,0 -1.65792,0.32028 0,3.18396 -0.0188,4.72884 z" />
    <path
       id="path156"
       style="font-size:18.84px;font-family:Boogaloo-Regular, Boogaloo"
       d="m 168.70789,57.476919 q 0.24492,-0.92316 0.24492,-1.54488 0,-0.62172 -0.33912,-1.01736 -0.33912,-0.41448 -0.88548,-0.41448 -0.52752,0 -0.88548,0.52752 -0.35796,0.52752 -0.35796,1.20576 0,1.3188 1.5072,2.2608 1.5072,0.97968 2.05356,1.413 0.54636,0.43332 0.77244,0.79128 0.5652,0.92316 0.5652,1.90284 0,1.6956 -1.14924,2.71296 -1.1304,0.99852 -2.56224,0.99852 -1.6956,0 -2.84484,-1.43184 -0.82896,-1.0362 -1.52604,-2.58108 l 1.82748,-0.88548 q 0.43332,1.1304 1.07388,1.92168 0.6594,0.77244 1.39416,0.77244 0.471,0 0.8478,-0.30144 0.3768,-0.30144 0.3768,-0.90432 0,-0.62172 -0.471,-1.14924 -0.471,-0.52752 -1.26228,-1.07388 -0.79128,-0.54636 -1.2246,-0.88548 -0.43332,-0.35796 -0.96084,-0.90432 -0.99852,-1.05504 -0.99852,-2.69412 0,-1.65792 1.14924,-2.76948 1.14924,-1.1304 2.7318,-1.1304 1.58256,0 2.65644,1.2246 1.09272,1.2246 1.09272,2.52456 0,1.28112 -0.48984,2.20428 z" />
    <path
       id="path158"
       style="font-size:18.84px;font-family:Boogaloo-Regular, Boogaloo"
       d="m 176.85824,66.350559 q -1.7898,0 -3.03324,-1.6014 -1.2246,-1.62024 -1.2246,-4.8984 0,-3.297 1.33764,-5.3694 1.35648,-2.0724 3.18396,-2.0724 1.82748,0 3.03324,1.62024 1.2246,1.62024 1.2246,4.87956 0,3.25932 -1.35648,5.35056 -1.35648,2.09124 -3.16512,2.09124 z m 0.2826,-11.69964 q -0.82896,0 -1.43184,1.46952 -0.60288,1.45068 -0.60288,3.6738 0,2.20428 0.50868,3.27816 0.52752,1.05504 1.29996,1.05504 0.77244,0 1.35648,-1.46952 0.60288,-1.46952 0.60288,-3.6738 0,-2.22312 -0.50868,-3.27816 -0.48984,-1.05504 -1.2246,-1.05504 z" />
    <path
       id="path160"
       style="font-size:18.84px;font-family:Boogaloo-Regular, Boogaloo"
       d="m 191.20461,52.446639 0.0188,8.7606 q 0,2.1666 -0.15072,4.65348 l -2.11008,-0.20724 q -2.43036,-5.52012 -3.97524,-8.27076 0.0188,2.78832 0.0188,8.89248 l -2.20428,-0.24492 q -0.0565,-1.16808 -0.0565,-2.2608 0,-4.55928 0.50868,-10.62576 l 2.50572,0.24492 q 1.86516,5.14332 3.35352,7.8186 -0.11304,-5.68968 -0.26376,-8.96784 z" />
    <path
       id="path162"
       style="font-size:18.84px;font-family:Boogaloo-Regular, Boogaloo"
       d="m 198.70146,65.521599 -0.43332,-2.61876 -2.80716,0.11304 -0.71592,3.54192 -2.6376,-0.22608 3.37236,-13.659 3.4854,0.30144 2.46804,12.77352 z m -1.65792,-10.38084 -1.18692,5.85924 2.11008,-0.07536 z" />
    <path
       id="path164"
       style="font-size:18.84px;font-family:Boogaloo-Regular, Boogaloo"
       d="m 203.36671,65.596959 q -0.24492,-3.88104 -0.24492,-7.10268 0,-3.24048 0.20724,-5.87808 l 2.50572,0.22608 q -0.2826,3.24048 -0.2826,6.19836 0,2.95788 0.0942,4.35204 0.67824,-0.0942 3.33468,-0.3768 l 0.3768,2.18544 q -1.413,0.16956 -3.99408,0.5652 z" />
    <path
       id="path166"
       style="font-size:18.84px;font-family:Boogaloo-Regular, Boogaloo"
       d="m 213.47762,52.672719 q -0.16956,2.97672 -0.16956,6.70704 0,3.73032 0.24492,6.80124 l -2.5434,-0.22608 q -0.24492,-3.84336 -0.24492,-6.93312 0,-3.1086 0.16956,-6.57516 z" />
    <path
       id="path168"
       style="font-size:18.84px;font-family:Boogaloo-Regular, Boogaloo"
       d="m 218.16995,63.411519 q 0.67824,-0.05652 1.7898,-0.05652 1.11156,0 2.86368,0.26376 l -0.32028,2.24196 q -2.12892,-0.2826 -3.297,-0.2826 -1.14924,0 -3.63612,0.41448 l -0.30144,-1.9782 q 3.54192,-5.652 5.19984,-8.89248 -2.59992,0.15072 -4.54044,0.43332 l -0.35796,-2.20428 q 2.31732,-0.48984 7.40412,-0.54636 l 0.32028,1.63908 q -2.78832,5.31288 -5.12448,8.96784 z" />
    <path
       id="path170"
       style="font-size:18.84px;font-family:Boogaloo-Regular, Boogaloo"
       d="m 224.5941,65.785359 q -0.0754,-2.97672 -0.0754,-5.63316 0,-2.65644 0.30144,-6.91428 3.22164,-0.48984 6.29256,-0.48984 v 2.31732 q -2.12892,0 -3.9564,0.13188 -0.0754,2.11008 -0.0942,3.24048 1.43184,-0.20724 3.3912,-0.24492 l 0.35796,2.0724 q -1.26228,0.01884 -3.78684,0.2826 0,2.2608 0.0188,3.25932 1.63908,-0.13188 3.91872,-0.5652 l 0.32028,2.0724 q -1.6014,0.73476 -3.78684,0.73476 z" />
    <path
       id="path172"
       style="font-size:18.84px;font-family:Boogaloo-Regular, Boogaloo"
       d="m 236.0915,52.503159 q 2.20428,0 3.3912,1.73328 1.20576,1.73328 1.20576,4.20132 0,1.90284 -0.60288,3.59844 -0.60288,1.67676 -1.884,2.826 -1.28112,1.1304 -2.99556,1.1304 -0.33912,0 -2.56224,-0.26376 0.26376,-4.0506 0.26376,-6.70704 0,-2.65644 -0.16956,-5.87808 1.82748,-0.64056 3.35352,-0.64056 z m -0.41448,11.19096 q 0.86664,0 1.71444,-1.52604 0.86664,-1.54488 0.86664,-3.31584 0,-1.7898 -0.62172,-2.93904 -0.60288,-1.14924 -1.45068,-1.14924 -0.45216,0 -0.8478,0.15072 0.0754,2.78832 0.0754,4.69116 0,1.884 -0.11304,3.93756 0.13188,0.15072 0.3768,0.15072 z" />
    <path
       id="path174"
       style="font-size:18.84px;font-family:Boogaloo-Regular, Boogaloo"
       d="m 247.04019,65.785359 q -0.0754,-2.97672 -0.0754,-5.63316 0,-2.65644 0.30144,-6.91428 3.22164,-0.48984 6.29256,-0.48984 v 2.31732 q -2.12892,0 -3.9564,0.13188 -0.0754,2.11008 -0.0942,3.24048 1.43184,-0.20724 3.3912,-0.24492 l 0.35796,2.0724 q -1.26228,0.01884 -3.78684,0.2826 0,2.2608 0.0188,3.25932 1.63908,-0.13188 3.91872,-0.5652 l 0.32028,2.0724 q -1.6014,0.73476 -3.78684,0.73476 z" />
    <path
       id="path176"
       style="font-size:18.84px;font-family:Boogaloo-Regular, Boogaloo"
       d="m 254.69423,60.547839 3.65496,-0.16956 q 0.5652,0 1.0362,0.05652 l 0.0754,2.03472 q -0.5652,-0.05652 -1.11156,-0.05652 l -3.42888,0.16956 z" />
    <path
       id="path178"
       style="font-size:18.84px;font-family:Boogaloo-Regular, Boogaloo"
       d="m 261.53727,53.181399 q 2.20428,-0.67824 3.97524,-0.67824 1.7898,0 3.03324,0.96084 1.24344,0.942 1.24344,2.33616 0,2.09124 -2.33616,3.31584 2.18544,0.88548 2.18544,2.95788 0,1.52604 -1.6014,2.7318 -1.6014,1.18692 -3.35352,1.18692 -0.22608,0 -3.22164,-0.26376 0.26376,-4.0506 0.26376,-6.82008 0,-2.76948 -0.1884,-5.72736 z m 5.70852,2.88252 q 0,-0.5652 -0.5652,-0.942 -0.54636,-0.39564 -1.18692,-0.39564 -0.62172,0 -1.33764,0.22608 0.0754,2.2608 0.0754,3.41004 0.86664,-0.07536 1.94052,-0.77244 1.07388,-0.71592 1.07388,-1.52604 z m -2.14776,7.6302 q 0.62172,0 1.3188,-0.48984 0.69708,-0.50868 0.69708,-1.14924 0,-0.6594 -0.81012,-1.14924 -0.81012,-0.48984 -2.09124,-0.60288 -0.0377,2.22312 -0.0754,3.33468 0.33912,0.05652 0.96084,0.05652 z" />
    <path
       id="path180"
       style="font-size:18.84px;font-family:Boogaloo-Regular, Boogaloo"
       d="m 274.92192,66.350559 q -1.7898,0 -3.03324,-1.6014 -1.2246,-1.62024 -1.2246,-4.8984 0,-3.297 1.33764,-5.3694 1.35648,-2.0724 3.18396,-2.0724 1.82748,0 3.03324,1.62024 1.2246,1.62024 1.2246,4.87956 0,3.25932 -1.35648,5.35056 -1.35648,2.09124 -3.16512,2.09124 z m 0.2826,-11.69964 q -0.82896,0 -1.43184,1.46952 -0.60288,1.45068 -0.60288,3.6738 0,2.20428 0.50868,3.27816 0.52752,1.05504 1.29996,1.05504 0.77244,0 1.35648,-1.46952 0.60288,-1.46952 0.60288,-3.6738 0,-2.22312 -0.50868,-3.27816 -0.48984,-1.05504 -1.2246,-1.05504 z" />
    <path
       id="path182"
       style="font-size:18.84px;font-family:Boogaloo-Regular, Boogaloo"
       d="m 284.74667,66.350559 q -1.7898,0 -3.03324,-1.6014 -1.2246,-1.62024 -1.2246,-4.8984 0,-3.297 1.33764,-5.3694 1.35648,-2.0724 3.18396,-2.0724 1.82748,0 3.03324,1.62024 1.2246,1.62024 1.2246,4.87956 0,3.25932 -1.35648,5.35056 -1.35648,2.09124 -3.16512,2.09124 z m 0.2826,-11.69964 q -0.82896,0 -1.43184,1.46952 -0.60288,1.45068 -0.60288,3.6738 0,2.20428 0.50868,3.27816 0.52752,1.05504 1.29996,1.05504 0.77244,0 1.35648,-1.46952 0.60288,-1.46952 0.60288,-3.6738 0,-2.22312 -0.50868,-3.27816 -0.48984,-1.05504 -1.2246,-1.05504 z" />
    <path
       id="path184"
       style="font-size:18.84px;font-family:Boogaloo-Regular, Boogaloo"
       d="m 290.93532,65.596959 q -0.13188,-2.88252 -0.13188,-6.4998 0,-3.61728 0.1884,-6.17952 l 2.58108,0.24492 q -0.1884,2.33616 -0.1884,5.78388 2.37384,-3.89988 3.5796,-6.53748 l 2.37384,0.942 q -1.35648,2.71296 -3.6738,6.29256 1.884,2.99556 3.63612,4.5216 l -1.73328,1.95936 q -2.18544,-2.12892 -4.18248,-5.82156 0,3.44772 0.13188,5.57664 z" />
    <path
       id="path186"
       style="font-size:18.84px;font-family:Boogaloo-Regular, Boogaloo"
       d="m 311.88187,52.748079 v 2.31732 q -2.11008,0 -3.9564,0.13188 -0.0377,0.54636 -0.0754,1.94052 -0.0188,1.37532 -0.0377,1.6956 2.11008,-0.2826 3.3912,-0.2826 l 0.3768,2.0724 q -2.11008,0.05652 -3.78684,0.26376 0,2.93904 0.0754,5.181 l -2.5434,-0.2826 q -0.0377,-3.05208 -0.0377,-5.67084 0,-2.61876 0.30144,-6.8766 3.22164,-0.48984 6.29256,-0.48984 z" />
    <path
       id="path188"
       style="font-size:18.84px;font-family:Boogaloo-Regular, Boogaloo"
       d="m 313.06643,65.879559 q 0.24492,-4.5216 0.24492,-8.06352 0,-3.54192 -0.0188,-4.65348 2.0724,-0.97968 4.31436,-0.97968 1.65792,0 2.76948,1.05504 1.1304,1.05504 1.1304,2.97672 0,2.22312 -3.14628,4.27668 1.71444,2.14776 3.50424,4.72884 l -1.80864,1.33764 q -1.18692,-1.7898 -4.25784,-5.8404 -0.0565,2.90136 -0.16956,5.44476 z m 2.78832,-6.44328 q 1.39416,-0.6594 2.37384,-1.62024 0.97968,-0.97968 0.97968,-1.77096 0,-0.79128 -0.471,-1.2246 -0.45216,-0.43332 -1.20576,-0.43332 -0.7536,0 -1.65792,0.32028 0,3.18396 -0.0188,4.72884 z" />
    <path
       id="path190"
       style="font-size:18.84px;font-family:Boogaloo-Regular, Boogaloo"
       d="m 323.20973,65.785359 q -0.0754,-2.97672 -0.0754,-5.63316 0,-2.65644 0.30144,-6.91428 3.22164,-0.48984 6.29256,-0.48984 v 2.31732 q -2.12892,0 -3.9564,0.13188 -0.0754,2.11008 -0.0942,3.24048 1.43184,-0.20724 3.3912,-0.24492 l 0.35796,2.0724 q -1.26228,0.01884 -3.78684,0.2826 0,2.2608 0.0188,3.25932 1.63908,-0.13188 3.91872,-0.5652 l 0.32028,2.0724 q -1.6014,0.73476 -3.78684,0.73476 z" />
    <path
       id="path192"
       style="font-size:18.84px;font-family:Boogaloo-Regular, Boogaloo"
       d="m 331.63621,65.785359 q -0.0754,-2.97672 -0.0754,-5.63316 0,-2.65644 0.30144,-6.91428 3.22164,-0.48984 6.29256,-0.48984 v 2.31732 q -2.12892,0 -3.9564,0.13188 -0.0754,2.11008 -0.0942,3.24048 1.43184,-0.20724 3.3912,-0.24492 l 0.35796,2.0724 q -1.26228,0.01884 -3.78684,0.2826 0,2.2608 0.0188,3.25932 1.63908,-0.13188 3.91872,-0.5652 l 0.32028,2.0724 q -1.6014,0.73476 -3.78684,0.73476 z" />
  </g>
  <g
     class="cls-3"
     style="font-size:28.78px;font-family:ChelseaMarket-Regular, 'Chelsea Market';fill:#ffffff"
     id="text20"
     aria-label="Try us">
    <path
       id="path115"
       style="font-size:28.78px;font-family:ChelseaMarket-Regular, 'Chelsea Market';fill:#ffffff"
       d="m 149.92041,17.694608 q 0.0281,0.224844 0.0562,0.393476 0.0281,0.168633 -0.11243,0.309161 -0.22484,0 -0.42158,0.02811 -0.19674,0 -0.47779,-0.05621 -0.25295,-0.05621 -0.39348,-0.05621 -0.11242,0 -0.22484,0 -0.11242,0 -0.19674,0 -0.0562,-0.02811 -0.16863,-0.05621 h -0.30916 q -0.39348,-0.05621 -0.75885,0 -0.33727,0.05621 -0.73074,0.112422 0,0.281055 0.0281,0.337266 0,0.05621 0.0281,0.05621 -0.0562,0.224843 -0.0562,0.30916 0.0281,0.08432 0.0281,0.168633 0,0.08432 -0.0281,0.168633 -0.0281,0.08432 0,0.168632 0,0.05621 0.0281,0.140528 0.0281,0.08432 0.0562,0.168633 0,0.168632 -0.0281,0.393476 -0.0281,0.224844 0,0.449688 0,0.08432 0.0281,0.168632 0.0281,0.08432 0.0562,0.196739 0.0281,0.08432 0,0.196738 0,0.112422 0.0281,0.196738 0.0281,0.140528 0.0562,0.224844 0.0562,0.08432 0.0843,0.224844 0,0.140527 0,0.337265 0.0281,0.196739 0.0281,0.337266 -0.0281,0.140527 -0.0843,0.30916 -0.0281,0.140528 -0.0281,0.281055 0,0.140527 0.0562,0.252949 0.0843,0.112422 0.11242,0.252949 0.0562,0.224844 0.0281,0.449688 -0.0281,0.196738 0,0.421582 0,0.08432 0.0281,0.168633 0.0562,0.08432 0.0562,0.196738 0.0281,0.112422 0,0.224844 -0.0281,0.08432 0,0.168633 0.0281,0.196738 0.16863,0.505898 0.0562,0.196738 0.0281,0.477793 -0.0562,0.252949 -0.0281,0.365371 0.0562,0.112422 0.0562,0.196738 0.0562,0.393477 0.0281,0.815059 -0.0281,0.393477 0.0843,0.786953 -0.0562,0.08432 -0.0562,0.196738 0,0.08432 -0.0562,0.140528 0.11242,0.281054 0.14053,0.421582 0,0.112422 -0.0281,0.196738 -0.0281,0.08432 -0.0281,0.196738 0,0.140528 0.0281,0.224844 0.0281,0.08432 0.0562,0.168633 0,0.112422 -0.0281,0.196738 -0.0281,0.08432 -0.0281,0.224844 0,0.08432 0,0.196738 0.0281,0.08432 0.0281,0.168633 0,0.224844 0,0.421582 0.0281,0.168633 0,0.337266 -0.0281,0.05621 -0.0843,0.140527 -0.0281,0.08432 -0.0281,0.168633 0,0.140527 0,0.30916 0.0281,0.168633 0.0281,0.30916 -0.0562,0.224844 -0.0281,0.30916 0.0281,0.08432 0.0281,0.140528 -0.0281,0.168633 -0.0843,0.365371 -0.0281,0.196738 -0.0281,0.337266 0.11242,0.30916 0.14053,0.449687 0.0281,0.140527 0.0843,0.281055 0.0562,0.168633 0.0281,0.224843 0,0.05621 0,0.224844 0,0.08432 0.0281,0.196739 0.0562,0.112421 -0.0843,0.196738 0.14052,0.112422 0.25295,0.252949 0.11242,0.140527 0.0281,0.449688 -0.0562,0.196738 -0.25295,0.224843 -0.16863,0.05621 -0.28105,0.196739 -0.4778,-0.112422 -0.81506,-0.168633 -0.33727,-0.02811 -0.61832,-0.140528 -0.14053,0.02811 -0.22485,0.05621 -0.0843,0.02811 -0.22484,0.05621 -0.14053,0 -0.25295,0 -0.0843,0 -0.14053,-0.05621 -0.0843,0.112422 -0.22484,0.112422 -0.14053,0 -0.36537,0.02811 -0.25295,0 -0.30916,0.02811 -0.0281,0.02811 -0.0843,0.05621 -0.0843,0.02811 -0.25295,0 -0.16863,0 -0.28105,0.02811 -0.14053,0.02811 -0.30916,0.02811 -0.16863,0.02811 -0.30916,-0.05621 -0.22484,-0.05621 -0.22484,-0.30916 0.0281,-0.224844 -0.0843,-0.393477 0.0281,-0.168632 0.11242,-0.281054 0.11242,-0.08432 0.0281,-0.25295 0.0843,-0.112421 0.16863,-0.196738 0.0843,-0.112422 0.14053,-0.224844 0.0562,-0.140527 0.0562,-0.30916 0,-0.168633 0.0562,-0.281054 0.0562,-0.112422 0.0281,-0.196739 -0.0281,-0.08432 -0.0281,-0.224843 0,-0.196739 0.0281,-0.365372 0.0281,-0.196738 -0.0843,-0.393476 0.0843,-0.168633 0.0843,-0.337266 0,-0.196738 0,-0.337265 0.0562,-0.224844 0,-0.337266 -0.0281,-0.112422 -0.0281,-0.196738 0,-0.140528 0.0562,-0.25295 0.0562,-0.140527 0.0562,-0.281054 -0.0843,-0.30916 -0.0562,-0.449688 0.0281,-0.168633 0.0281,-0.252949 0,-0.252949 -0.0843,-0.421582 0,-0.337266 0,-0.534004 0.0281,-0.224844 0.0281,-0.449687 -0.0281,-0.25295 -0.0281,-0.56211 0,-0.337265 -0.0562,-0.590215 -0.0843,-0.590215 0,-1.039902 0.0843,-0.449688 -0.14053,-0.786953 0.11242,-0.393477 0.0281,-0.899375 -0.0843,-0.505899 0.0281,-0.843164 0.0281,-0.168633 -0.0843,-0.168633 -0.11242,-0.02811 -0.0843,-0.168633 0,-0.224844 0,-0.449687 0,-0.25295 -0.0562,-0.449688 -0.14053,-0.252949 -0.11242,-0.758848 0.0562,-0.534004 0.0843,-0.899375 -0.0562,-0.140527 -0.11242,-0.196738 -0.0281,-0.08432 -0.0562,-0.224844 -0.0562,-0.224843 0,-0.449687 0.0843,-0.224844 0.11242,-0.477793 0.0281,-0.196738 0,-0.365371 0,-0.196739 0.0281,-0.337266 0.0281,-0.224844 -0.0281,-0.534004 -0.0562,-0.30916 -0.0562,-0.562109 -0.33727,0.02811 -0.67453,0.08432 -0.33727,0.02811 -0.70264,0.05621 -0.25295,-0.02811 -0.56211,0 -0.28105,0.02811 -0.47779,0.05621 -0.39348,0.112422 -0.64643,0.112422 -0.25295,-0.02811 -0.47779,0 -0.33727,0.05621 -0.70264,0.168633 -0.33726,0.08432 -0.73074,0 -0.14053,-0.224844 -0.11242,-0.477793 0.0281,-0.281055 0,-0.449688 -0.0281,-0.140527 -0.0281,-0.224844 0,-0.112421 0,-0.281054 0.0562,-0.224844 0,-0.281055 -0.0281,-0.05621 -0.0562,-0.08432 -0.0281,-0.140528 0,-0.30916 0.0281,-0.168633 0.0281,-0.309161 0,-0.140527 -0.0843,-0.168632 -0.11242,-0.02811 -0.0843,-0.168633 0,-0.196739 -0.0281,-0.421582 -0.0281,-0.224844 -0.0562,-0.449688 -0.0281,-0.252949 0.0281,-0.449687 0.0281,-0.224844 0.16863,-0.365371 0.14053,-0.05621 0.28105,-0.05621 0.14053,-0.02811 0.36537,0.02811 0.36537,0.05621 0.53401,0.112422 0.16863,0.05621 0.30916,0.08432 0.0843,0 0.16863,-0.02811 0.11242,-0.02811 0.25295,-0.02811 0.14053,0 0.25295,0.02811 0.11242,0.02811 0.25295,0.02811 0.11242,0.02811 0.25295,0.02811 0.0562,0 0.11242,0.02811 0.14053,0 0.28105,-0.05621 0.14053,-0.05621 0.28106,-0.05621 0.16863,0 0.33726,0.05621 0.16864,0.02811 0.33727,0.05621 0.0843,0 0.16863,0 0.0843,-0.02811 0.19674,-0.05621 0.25295,0 0.33727,-0.02811 0.11242,-0.02811 0.19674,-0.05621 0.0843,0 0.14052,0.02811 0.0843,0.02811 0.16864,0.02811 0.33726,-0.112422 0.59021,-0.08432 0.25295,0.02811 0.44969,-0.02811 0.11242,0 0.14052,0.05621 0.0562,0.05621 0.14053,0.08432 0.16864,-0.05621 0.25295,-0.05621 0.11242,-0.02811 0.22485,0.112422 0.11242,-0.08432 0.22484,-0.140527 0.11242,-0.05621 0.28105,-0.05621 0.11243,-0.02811 0.28106,0.05621 0.16863,0.05621 0.36537,0.02811 0.11242,0.05621 0.33727,0.02811 0.25294,-0.02811 0.33726,0.08432 0.14053,-0.02811 0.25295,-0.02811 0.11242,-0.02811 0.22484,-0.05621 0.36537,0 0.4778,0.02811 0.0843,0 0.14052,0.02811 0.0843,0.02811 0.19674,0.05621 0.22485,0.05621 0.4778,0.05621 0.25294,-0.02811 0.47779,-0.02811 0.39347,-0.02811 0.78695,-0.08432 0.42158,-0.08432 0.64643,0.02811 0.0562,0.02811 0.16863,0.168633 0.14053,0.140527 0.16863,0.196738 0.0281,0.05621 0.0281,0.168633 0,0.112422 0,0.196739 0.0281,0.365371 -0.0281,0.786953 -0.0281,0.421582 0,0.843164 0,0.224844 0.0281,0.421582 0.0562,0.196738 0.0843,0.365371 z" />
    <path
       id="path117"
       style="font-size:28.78px;font-family:ChelseaMarket-Regular, 'Chelsea Market';fill:#ffffff"
       d="m 162.87704,22.669276 q -0.16864,0.196738 -0.22485,0.196738 -0.0281,0 -0.0843,0.05621 -0.33727,0.196738 -0.36538,0.168633 -0.22484,-0.02811 -0.30916,-0.224844 -0.0843,-0.196738 -0.30916,-0.30916 -0.14052,0.05621 -0.28105,0.02811 -0.14053,-0.02811 -0.28105,0 -0.14053,0.02811 -0.25295,0.08432 -0.11243,0.05621 -0.25295,0.112422 -0.39348,0.140527 -0.53401,0.224844 -0.14052,0.05621 -0.28105,0.140527 -0.11242,0.112422 -0.16863,0.224844 -0.0562,0.08432 -0.19674,0.224843 -0.16864,0.140528 -0.39348,0.281055 -0.19674,0.112422 -0.33727,0.252949 -0.0562,0.08432 -0.0843,0.224844 -0.0281,0.112422 -0.11242,0.224844 -0.19674,0.168633 -0.22485,0.224844 -0.0281,0.05621 -0.0562,0.08432 -0.0843,0.140527 -0.0843,0.224844 0.0281,0.08432 0,0.140527 -0.0281,0.05621 -0.11243,0.196738 -0.0843,0.112422 -0.0281,0.281055 -0.16863,0.224844 -0.16863,0.337266 0,0.08432 -0.0281,0.140527 -0.14053,0.140527 -0.16863,0.252949 0,0.08432 -0.0562,0.168633 -0.14053,0.252949 -0.14053,0.393477 0.0281,0.112422 0,0.224843 -0.0843,0.309161 -0.0843,0.477793 0,0.140528 -0.0281,0.281055 -0.0281,0.196738 -0.0843,0.393477 -0.0562,0.168633 -0.11242,0.393476 -0.0281,0.140528 0,0.30916 0.0281,0.140528 -0.0281,0.337266 0,0.08432 -0.0562,0.168633 -0.0281,0.08432 -0.0281,0.224844 -0.0281,0.224843 0.0281,0.421582 0.0562,0.196738 -0.14053,0.365371 0.0843,0.168633 0.0843,0.505898 0.0281,0.30916 -0.11242,0.449688 0.11242,0.30916 0.0843,0.674531 0,0.365371 -0.0281,0.758848 -0.0281,0.365371 -0.0562,0.758847 0,0.365372 0.0843,0.702637 0.0562,0.196738 0.25294,0.224844 0.19674,0 0.33727,0.112422 0,0.08432 0.0562,0.168633 0.0843,0.05621 0.14053,0.196738 0.0281,0.196738 -0.11242,0.393476 -0.14053,0.196739 -0.28106,0.25295 -0.11242,0.05621 -0.22484,0 -0.11242,-0.02811 -0.33727,0.0281 -0.11242,0.02811 -0.25295,0.08432 -0.14052,0.08432 -0.28105,0.140527 -0.22484,0.08432 -0.534,0.140527 -0.30917,0.08432 -0.61833,0.140528 -0.14052,0.02811 -0.28105,0.02811 -0.14053,0.02811 -0.28105,0.05621 -0.16864,0.05621 -0.33727,0.112422 -0.16863,0.08432 -0.30916,0.05621 -0.28106,-0.05621 -0.39348,-0.30916 -0.11242,-0.25295 -0.11242,-0.56211 0,-0.140527 0.0281,-0.281054 0.0562,-0.112422 0.0281,-0.25295 0,-0.140527 -0.0562,-0.252949 -0.0281,-0.140527 -0.0562,-0.281055 -0.0562,-0.365371 -0.0281,-0.730742 0.0281,-0.393476 0.0281,-0.786953 0,-0.112422 0.0281,-0.196738 0.0281,-0.112422 0.0281,-0.196738 -0.0281,-0.112422 -0.0562,-0.196739 -0.0281,-0.112422 -0.0281,-0.224844 -0.0562,-0.224843 -0.0843,-0.393476 -0.0281,-0.168633 -0.0562,-0.421582 0,-0.08432 -0.0281,-0.196738 0,-0.112422 0,-0.196739 0,-0.196738 0.0281,-0.337265 0.0562,-0.168633 0.0843,-0.337266 -0.0562,-0.30916 -0.0281,-0.562109 0.0562,-0.25295 0.0562,-0.449688 -0.0281,-0.168633 -0.0843,-0.337266 -0.0281,-0.168632 -0.0562,-0.337265 0,-0.08432 0,-0.196738 0.0281,-0.140528 0.0281,-0.168633 -0.0843,-0.365371 -0.11242,-0.590215 0,-0.224844 -0.0281,-0.365371 -0.0281,-0.30916 0,-0.421582 0.0562,-0.140528 0.0843,-0.281055 0.0562,-0.281055 0,-0.562109 -0.0281,-0.309161 0,-0.590215 0.0281,-0.224844 0.0843,-0.421582 0.0843,-0.196739 0.0843,-0.421582 0,-0.08432 -0.0281,-0.168633 0,-0.112422 0,-0.196738 0,-0.08432 0.0281,-0.168633 0.0281,-0.112422 0.0281,-0.196738 -0.0281,-0.05621 -0.0562,-0.140528 -0.0281,-0.112422 -0.0281,-0.196738 -0.0562,-0.196738 0,-0.365371 0.0562,-0.196739 0.0562,-0.421582 0,-0.140528 -0.0281,-0.281055 -0.0281,-0.140527 -0.0562,-0.281055 0,-0.05621 0,-0.140527 0.0281,-0.112422 0,-0.168633 -0.0562,-0.281055 -0.0281,-0.449687 0.0562,-0.196739 0.0562,-0.365371 0,-0.224844 -0.0281,-0.421582 -0.0281,-0.196739 0.0843,-0.421583 0,-0.140527 -0.0843,-0.224843 -0.0843,-0.112422 -0.14052,-0.224844 0.11242,-0.224844 0.0281,-0.449688 -0.0562,-0.224843 0,-0.449687 0.22484,-0.224844 0.44969,-0.196738 0.22484,0 0.30916,0.140527 0.0843,0.112422 0.19674,0.196738 0.30916,0.08432 0.56211,0.05621 0.25295,-0.05621 0.56211,-0.05621 0.16863,0 0.30916,0.02811 0.16863,0.02811 0.30916,0.02811 0.22484,-0.02811 0.39347,-0.112422 0.19674,-0.112422 0.53401,0 0.11242,0.05621 0.11242,0.168633 0.0281,0.08432 0.11242,0.224844 0.0281,0.224844 0.0562,0.281055 0.0281,0.02811 0.0281,0.08432 -0.0562,0.252949 -0.11243,0.477793 -0.0562,0.224844 0.0281,0.505898 0.16863,0 0.25295,-0.08432 0.11242,-0.112422 0.22484,-0.224844 0.0562,-0.05621 0.11243,-0.112422 0.0843,-0.08432 0.14052,-0.140527 0.22485,-0.196738 0.30916,-0.30916 0.11242,-0.112422 0.19674,-0.168633 0.0843,-0.08432 0.19674,-0.140527 0.11242,-0.05621 0.16863,-0.168633 0.25295,-0.05621 0.5059,-0.196738 0.25295,-0.168633 0.56211,-0.05621 0.14053,-0.140528 0.42158,-0.224844 0.30916,-0.112422 0.47779,0.05621 0.53401,0 0.92749,-0.168633 0.39347,-0.168633 0.73074,-0.08432 0.14052,0.02811 0.19674,0.112422 0.0843,0.05621 0.19673,0.112421 0.0843,0.02811 0.16864,0.05621 0.11242,0.02811 0.19674,0.08432 0.19673,0.30916 0.11242,0.674531 -0.0562,0.337266 -0.0843,0.702637 0.0281,0.337265 0,0.505898 -0.0281,0.168633 -0.0281,0.30916 0,0.309161 0.0281,0.646426 0.0281,0.30916 0.0281,0.646426 z" />
    <path
       id="path119"
       style="font-size:28.78px;font-family:ChelseaMarket-Regular, 'Chelsea Market';fill:#ffffff"
       d="m 178.58799,19.184198 q -0.0281,0.08432 -0.0843,0.168633 -0.0281,0.08432 -0.0562,0.196738 -0.0843,0.140527 -0.11243,0.252949 -0.0281,0.112422 -0.0843,0.281055 -0.11242,0.224844 -0.14053,0.337265 0,0.112422 -0.0562,0.196739 -0.0281,0.05621 -0.0843,0.140527 -0.0281,0.08432 -0.0843,0.168633 -0.11243,0.140527 -0.14053,0.30916 -0.0843,0.224844 -0.16863,0.393477 -0.0843,0.140527 -0.0843,0.30916 -0.22484,0.281054 -0.30916,0.477793 -0.0843,0.196738 -0.22484,0.252949 -0.0562,0.252949 -0.14053,0.477793 -0.0843,0.224844 -0.16863,0.421582 -0.0843,0.252949 -0.16864,0.477793 -0.0843,0.196738 -0.16863,0.421582 -0.14053,0.252949 -0.16863,0.393477 0,0.140527 -0.0281,0.252949 -0.14053,0.281055 -0.19674,0.562109 -0.0562,0.252949 -0.16863,0.56211 -0.0843,0.224843 -0.22484,0.449687 -0.11242,0.196738 -0.25295,0.421582 -0.11242,0.30916 -0.16863,0.393477 -0.0281,0.08432 -0.0562,0.140527 -0.0562,0.140527 -0.0843,0.281055 0,0.112422 -0.0562,0.252949 -0.16864,0.30916 -0.22485,0.477793 -0.0281,0.168633 -0.11242,0.30916 -0.16863,0.30916 -0.22484,0.534004 -0.0281,0.224844 -0.19674,0.365371 0,0.224844 -0.0562,0.365371 -0.0562,0.112422 -0.11242,0.168633 -0.0562,0.02811 -0.11243,0.140527 -0.0843,0.196739 -0.11242,0.421582 -0.0281,0.196739 -0.14052,0.365372 -0.14053,0.224843 -0.25295,0.449687 -0.0843,0.196738 -0.14053,0.393477 -0.14053,0.281054 -0.22484,0.562109 -0.0843,0.252949 -0.30917,0.449688 0.0562,0.140527 -0.0281,0.252949 -0.0843,0.112422 -0.11242,0.196738 -0.11242,0.224844 -0.14053,0.365371 -0.0281,0.112422 -0.0843,0.224844 -0.0562,0.112422 -0.11242,0.196738 -0.0562,0.08432 -0.11242,0.224844 -0.0562,0.112422 -0.11242,0.224844 -0.0281,0.08432 -0.14053,0.168633 -0.0562,0.30916 -0.14053,0.505898 -0.0562,0.224844 -0.19673,0.477793 -0.11243,0.252949 -0.14053,0.421582 -0.0281,0.196738 -0.0843,0.337266 -0.0562,0.140527 -0.11242,0.252949 -0.0562,0.140527 -0.11242,0.224844 -0.11242,0.281054 -0.22485,0.365371 0,0.196738 -0.0843,0.337265 -0.0562,0.140528 -0.11242,0.281055 -0.0562,0.140527 -0.11243,0.252949 -0.0281,0.140528 -0.14052,0.224844 0.0281,0.30916 -0.0562,0.505898 -0.0843,0.196739 -0.14053,0.421583 -0.0562,0.140527 0.0562,0.140527 0.11242,0 0.0843,0.140527 -0.0281,0.196738 -0.0843,0.337266 -0.0562,0.140527 -0.0281,0.365371 -0.14052,0.05621 -0.22484,0.168633 -0.0562,0.140527 -0.16863,0.252949 -0.5059,-0.08432 -1.03991,0 -0.50589,0.08432 -0.84316,-0.140527 -0.56211,0.05621 -1.12422,-0.112422 -0.534,-0.168633 -0.95558,-0.449688 0,-0.140527 -0.0562,-0.252949 -0.0562,-0.112422 -0.0281,-0.224844 0,-0.224843 0.14053,-0.449687 0.16863,-0.196739 0.14052,-0.505899 0.16864,-0.168633 0.28106,-0.393476 0.11242,-0.224844 0.14053,-0.534004 0.0843,-0.112422 0.11242,-0.224844 0.0562,-0.112422 0.11242,-0.224844 0.0562,-0.112422 0.0562,-0.196738 0.0281,-0.08432 0.0843,-0.168633 0.0562,-0.08432 0.14052,-0.393476 0.14053,-0.196739 0.16864,-0.393477 0.0281,-0.168633 0.16863,-0.224844 V 35.79453 q 0.14053,-0.05621 0.14053,-0.196738 0,-0.112422 0.0562,-0.196738 0.0562,-0.08432 0.11242,-0.140528 0.0562,-0.0281 0.11242,-0.168633 0.0562,-0.08432 0.0562,-0.196738 0.0281,-0.112422 0.0843,-0.196738 0.0562,-0.08432 0.0843,-0.168633 0.0562,-0.112422 0.11242,-0.196738 0.36537,-0.702637 0.81506,-1.264746 0,-0.25295 0.11242,-0.365371 -0.0562,-0.140528 -0.14053,-0.25295 -0.0562,-0.112422 -0.11242,-0.252949 -0.0281,-0.196738 -0.14053,-0.30916 -0.0843,-0.112422 -0.0281,-0.252949 -0.11243,-0.05621 -0.14053,-0.140528 0,-0.08432 -0.0843,-0.140527 0,-0.281055 -0.11242,-0.477793 -0.0843,-0.196738 -0.0562,-0.505898 -0.14053,-0.05621 -0.16863,-0.112422 0,-0.05621 -0.0562,-0.112422 -0.19674,-0.393477 -0.28106,-0.955586 -0.0281,-0.112422 -0.11242,-0.168633 -0.0843,-0.05621 -0.14053,-0.196738 -0.0562,-0.168633 0.0562,-0.196739 0.11242,-0.05621 0.11242,-0.196738 -0.28105,-0.30916 -0.36537,-0.534004 -0.0562,-0.252949 -0.16863,-0.477793 -0.11242,-0.168633 -0.16863,-0.281054 -0.0562,-0.112422 -0.11242,-0.25295 -0.0843,-0.281054 -0.14053,-0.365371 -0.0281,-0.112422 -0.0562,-0.168633 -0.14053,-0.477793 -0.25295,-0.730742 -0.11242,-0.252949 -0.19674,-0.477793 -0.14053,-0.281054 -0.22484,-0.505898 -0.0562,-0.224844 -0.14053,-0.393477 -0.0562,-0.112422 -0.11242,-0.196738 -0.0281,-0.112422 -0.0843,-0.224844 -0.0562,-0.140527 -0.0843,-0.224844 -0.0281,-0.112421 -0.0843,-0.252949 -0.11242,-0.140527 -0.14053,-0.252949 0,-0.112422 -0.0562,-0.224844 -0.0843,-0.196738 -0.19674,-0.421582 -0.0843,-0.224844 -0.0281,-0.505898 -0.16864,-0.337266 -0.36537,-0.674531 -0.16864,-0.337266 -0.22485,-0.786954 -0.14053,-0.168632 -0.22484,-0.393476 -0.0562,-0.224844 -0.16864,-0.449688 -0.0843,-0.112422 -0.14052,-0.196738 -0.0562,-0.08432 -0.11242,-0.224844 -0.0562,-0.112422 -0.0562,-0.196738 0,-0.08432 -0.0281,-0.224844 0.16863,-0.224844 0.22484,-0.30916 0.0562,-0.112422 0.14053,-0.140527 0.30916,-0.02811 0.47779,0.05621 0.11243,0.05621 0.39348,0.224843 0.28105,0.140528 0.56211,-0.02811 0.14053,-0.112422 0.22484,-0.112422 0.11242,-0.02811 0.16864,-0.05621 l 0.33726,-0.08432 q 0.11242,-0.05621 0.16863,-0.08432 0.0843,-0.02811 0.16864,0 0.25295,0.05621 0.30916,0.365371 0.16863,0.140528 0.19674,0.25295 0.0562,0.08432 0.11242,0.112421 0.0562,0.281055 0.11242,0.393477 0.0843,0.08432 0.14053,0.140527 0.0562,0.224844 0.25295,0.505899 0.11242,0.30916 0.19673,0.562109 0.0843,0.252949 0.19674,0.534004 0.0562,0.140528 0.0843,0.281055 0.0281,0.112422 0.0843,0.252949 0.0562,0.112422 0.11242,0.252949 0.0843,0.112422 0.14052,0.224844 0.0562,0.140527 0.0562,0.224844 0,0.05621 0.0562,0.224844 0.0562,0.224843 0.19673,0.449687 0.16864,0.196738 0.28106,0.421582 0.14053,0.365371 0.22484,0.61832 0.11243,0.224844 0.19674,0.421582 0.14053,0.309161 0.25295,0.702637 0.14053,0.393477 0.28106,0.730742 0.0843,0.140528 0.11242,0.281055 0.0562,0.112422 0.11242,0.252949 0.0562,0.140528 0.11242,0.281055 0.0843,0.112422 0.0562,0.281055 0.22485,0.30916 0.33727,0.730742 0.11242,0.393477 0.36537,0.674531 0.28105,-0.30916 0.39348,-0.702637 0.14052,-0.421582 0.42158,-0.730742 -0.0281,-0.08432 0,-0.140527 0.0281,-0.08432 0.0562,-0.168633 0.0843,-0.252949 0.14053,-0.393476 0.11242,-0.281055 0.19673,-0.534004 0.0562,-0.140528 0.0843,-0.25295 0.0562,-0.112421 0.11242,-0.281054 0.0562,-0.281055 0.22485,-0.56211 0.19673,-0.281054 0.25295,-0.590215 0.0843,-0.05621 0.11242,-0.140527 0.0281,-0.08432 0.14052,-0.140527 0.0562,-0.30916 0.14053,-0.56211 0.11242,-0.281054 0.25295,-0.534004 0.0562,-0.224843 0.11242,-0.393476 0.0843,-0.196738 0.25295,-0.365371 -0.0562,-0.140528 0.0281,-0.252949 0.11242,-0.140528 0.16863,-0.281055 0,-0.224844 0.0281,-0.281055 0.0562,-0.08432 0.0562,-0.112422 0,-0.140527 0.0562,-0.252949 0.0281,-0.05621 0.0562,-0.08432 0.0562,-0.168633 0.0843,-0.337266 0.0281,-0.196738 0.16864,-0.337266 -0.0843,-0.30916 0.0562,-0.590214 0.11242,-0.309161 0.0562,-0.56211 -0.0281,-0.281055 0.0843,-0.505898 0.22484,-0.196739 0.39347,-0.196739 0.16864,-0.02811 0.28106,-0.112421 0.39347,0.168632 1.0399,0.08432 0.61832,-0.08432 1.0399,-0.05621 0.44969,0 0.87127,0.05621 0.16863,0.224844 0.16863,0.505898 0,0.281055 -0.0562,0.56211 z" />
    <path
       id="path121"
       style="font-size:28.78px;font-family:ChelseaMarket-Regular, 'Chelsea Market';fill:#ffffff"
       d="m 207.67716,20.336522 q 0,0.140527 -0.0562,0.337266 -0.0562,0.168632 -0.0562,0.337265 0,0.140528 0,0.30916 0.0281,0.168633 0.0281,0.309161 0,0.252949 -0.0562,0.562109 -0.0562,0.30916 -0.0843,0.674531 -0.0281,0.281055 -0.0281,0.534004 0.0281,0.224844 -0.0843,0.505899 0.0562,0.224843 0.0281,0.534004 0,0.30916 -0.0281,0.702636 0,0.112422 0.0281,0.224844 0.0281,0.08432 0.0281,0.196738 -0.0562,0.168633 -0.0281,0.25295 0.0281,0.05621 0,0.112421 0,0.168633 -0.0562,0.309161 -0.0562,0.112421 -0.0843,0.252949 -0.0281,0.112422 -0.0281,0.224844 0.0281,0.112421 0.0281,0.224843 -0.0281,0.112422 -0.0562,0.224844 -0.0281,0.112422 -0.0562,0.252949 -0.0562,0.337266 -0.0843,0.730743 -0.0281,0.393476 -0.11242,0.758847 -0.14053,0.281055 -0.16863,0.477793 -0.0281,0.196738 -0.0843,0.393477 -0.0562,0.168633 -0.11242,0.30916 -0.0281,0.140527 -0.0843,0.337266 -0.0562,0.140527 -0.14053,0.477793 -0.0843,0.30916 -0.14052,0.534003 -0.0281,0.08432 -0.0562,0.168633 -0.0281,0.08432 -0.0843,0.196739 -0.0562,0.140527 -0.11242,0.252949 -0.0281,0.112422 -0.0843,0.224844 -0.11242,0.168632 -0.11242,0.224843 0,0.05621 -0.0281,0.08432 -0.14052,0.140527 -0.16863,0.168633 -0.0281,0 -0.0562,0.05621 -0.11242,0.140528 -0.22484,0.337266 -0.0843,0.168633 -0.22485,0.365371 -0.19674,0.196738 -0.22484,0.30916 -0.11242,0.140528 -0.28106,0.337266 -0.16863,0.168633 -0.33726,0.30916 -0.0843,0.112422 -0.22485,0.196738 -0.11242,0.05621 -0.22484,0.140528 -0.22484,0.224844 -0.33727,0.337265 -0.11242,0.140528 -0.22484,0.196739 -0.28105,0.168633 -0.64642,0.140527 -0.22485,0.281055 -0.64643,0.365371 -0.39348,0.08432 -0.81506,0.168633 -0.19674,-0.08432 -0.30916,-0.281055 -0.14053,0.02811 -0.19674,0.08432 -0.0562,0.08432 -0.19674,0.08432 -0.14052,0 -0.25295,-0.05621 -0.0843,-0.0281 -0.19673,-0.0281 -0.16864,0.08432 -0.36537,0.05621 -0.19674,0 -0.5059,-0.05621 -0.14053,0 -0.28106,0 -0.11242,0 -0.22484,-0.05621 -0.67453,-0.281055 -0.98369,-0.224844 -0.0843,-0.140527 -0.25295,-0.168633 -0.14053,-0.02811 -0.28106,-0.112422 -0.19674,-0.168633 -0.30916,-0.224843 -0.11242,-0.05621 -0.0843,-0.140528 -0.19674,-0.140527 -0.30916,-0.168633 -0.0843,-0.02811 -0.0281,-0.168632 -0.14053,0 -0.19674,0 -0.0281,-0.02811 -0.16863,-0.112422 -0.0843,-0.05621 -0.14053,-0.140528 -0.0281,-0.08432 -0.16863,-0.05621 -0.0562,-0.112421 -0.16863,-0.140527 -0.0843,-0.0281 -0.0843,-0.168633 -0.14053,0 -0.22484,-0.08432 -0.0562,-0.08432 -0.16864,-0.112422 -0.11242,-0.224844 -0.33726,-0.393477 -0.19674,-0.168632 -0.42158,-0.337265 -0.0843,-0.05621 -0.19674,-0.112422 -0.0843,-0.08432 -0.14053,-0.168633 -0.0843,-0.08432 -0.16863,-0.224844 -0.0562,-0.140527 -0.14053,-0.281054 -0.19674,-0.224844 -0.22484,-0.281055 -0.0281,-0.08432 -0.0843,-0.140527 -0.22484,-0.140528 -0.25295,-0.196739 -0.0281,-0.05621 -0.0562,-0.08432 -0.0562,-0.08432 -0.16863,-0.224844 -0.0843,-0.168633 -0.0843,-0.337266 -0.0562,-0.08432 -0.11242,-0.140527 -0.0562,-0.08432 -0.11242,-0.168633 0.0562,-0.140527 -0.0281,-0.224843 -0.0562,-0.08432 -0.0843,-0.224844 -0.0562,-0.224844 -0.0562,-0.477793 0,-0.281055 -0.0562,-0.505899 -0.0843,-0.281054 -0.22484,-0.449687 0.0281,-0.30916 -0.0562,-0.393477 -0.0562,-0.08432 -0.11242,-0.140527 0.0281,-0.421582 -0.14053,-0.646426 0.11242,-0.30916 -0.0281,-0.590215 -0.14052,-0.281054 -0.0562,-0.562109 0.0562,-0.112422 0.0281,-0.196738 0,-0.08432 0,-0.25295 -0.0281,-0.224843 0.0562,-0.590214 0.0281,-0.08432 -0.0562,-0.168633 -0.0562,-0.112422 -0.0843,-0.224844 -0.0281,-0.140527 0.0281,-0.365371 0.0843,-0.252949 0.0843,-0.449688 0,-0.112422 -0.0281,-0.196738 -0.0281,-0.08432 0,-0.168633 0,-0.112422 0.0562,-0.168633 0.0562,-0.08432 0.0843,-0.168632 -0.0562,-0.309161 -0.0562,-0.56211 0.0281,-0.281054 -0.0281,-0.590215 0.19674,-0.252949 0.14053,-0.30916 -0.0281,-0.08432 -0.0281,-0.196738 0.19674,-0.337266 0.28106,-0.702637 0,-0.112422 -0.0281,-0.196738 0,-0.112422 0.0281,-0.196738 0.0843,-0.309161 0.0562,-0.421582 0,-0.140528 0.0562,-0.281055 0.0562,-0.281055 0.16863,-0.365371 -0.0562,-0.196739 -0.11242,-0.421582 -0.0281,-0.25295 0.0843,-0.477793 0.14052,-0.08432 0.30916,-0.08432 0.19673,-0.02811 0.33726,-0.112422 0.0562,0.05621 0.19674,0.05621 0.14053,-0.02811 0.14053,0.08432 0.30916,-0.05621 0.42158,-0.08432 0.11242,-0.05621 0.22484,-0.05621 0.30916,0 0.59022,0.02811 0.28105,0 0.534,-0.02811 0.16863,0.309161 0.19674,0.477793 0.0562,0.168633 0.0843,0.449688 0.0562,0.449687 0.0281,0.955586 0,0.505898 -0.0281,1.039902 0,0.112422 0.0281,0.224844 0.0281,0.08432 0.0281,0.196738 -0.0281,0.168633 -0.0562,0.337266 0,0.168633 0,0.365371 -0.0562,0.224844 -0.0562,0.365371 0.0843,0.393477 0.0843,0.702637 0.0281,0.30916 0.0281,0.421582 -0.0562,0.224844 0,0.449687 0.0843,0.196739 -0.0281,0.421582 0.22485,0.309161 0.22485,0.730743 0,0.421582 0.0281,0.899375 0.0281,0.196738 0.0843,0.393476 0.0562,0.168633 0.0562,0.421582 -0.0562,0.224844 -0.0281,0.337266 0.0562,0.112422 0.0562,0.196738 0,0.30916 -0.0281,0.618321 -0.0281,0.30916 0.0562,0.590214 0.0281,0.112422 0.0562,0.224844 0.0562,0.112422 0.11242,0.224844 0.0562,0.140527 0.0843,0.281055 0.0281,0.140527 0.0843,0.196738 0.0562,0.08432 0.11243,0.140527 0.0562,0.05621 0.11242,0.112422 0.22484,0.281055 0.33726,0.421582 0.14053,0.140528 0.30916,0.196738 0,0.112422 0.0281,0.196739 0.0562,0.05621 0.0843,0.140527 0.11242,0 0.19673,0.02811 0.11243,0.02811 0.25295,0.05621 0.0562,0.112422 0.16864,0.168633 0.11242,0.05621 0.16863,0.168633 0.28105,0 0.44969,0.168633 0.16863,-0.05621 0.33726,0.02811 0.16864,0.08432 0.42158,0.08432 0.0843,0 0.22485,-0.02811 0.14053,-0.05621 0.22484,-0.05621 0.44969,-0.05621 0.84317,-0.112421 0.39347,-0.05621 0.61832,-0.196739 0.11242,-0.140527 0.16863,-0.168633 0.0843,-0.05621 0.14053,-0.112421 0.16863,-0.224844 0.28105,-0.393477 0.14053,-0.168633 0.25295,-0.30916 0.11242,-0.08432 0.25295,-0.30916 0.0562,-0.112422 0.11242,-0.224844 0.0843,-0.140527 0.19674,-0.224844 0.0281,-0.30916 0.11242,-0.477793 0.11242,-0.196738 0.25295,-0.393476 0,-0.168633 0,-0.309161 0.0281,-0.140527 0.14053,-0.224843 -0.0562,-0.112422 0,-0.196739 0.0562,-0.08432 0.0281,-0.252949 0.0281,-0.08432 0.0843,-0.140527 0.0562,-0.05621 0.11242,-0.168633 0.0281,-0.05621 0,-0.140527 0,-0.112422 0.0843,-0.168633 -0.14053,-0.30916 -0.11242,-0.730742 0.0562,-0.421582 0.14052,-0.815059 0.0281,-0.140527 0.0843,-0.224844 0.0562,-0.112422 0.0562,-0.224843 0,-0.309161 0.0281,-0.421583 0.0281,-0.140527 0.0562,-0.252949 0,-0.140527 -0.0281,-0.252949 -0.0281,-0.112422 -0.0281,-0.252949 0,-0.08432 0.0281,-0.168633 0.0281,-0.112422 0.0281,-0.224844 0,-0.168633 -0.0281,-0.30916 -0.0281,-0.140527 -0.0562,-0.281055 0,-0.112422 0.0281,-0.196738 0.0281,-0.112422 0.0281,-0.252949 0.0281,-0.140527 0,-0.281055 -0.0281,-0.168633 -0.0281,-0.337265 0,-0.112422 0.0281,-0.196739 0.0281,-0.112422 0.0281,-0.252949 0,-0.08432 -0.0281,-0.168633 0,-0.112422 0,-0.196738 0,-0.140527 0.0562,-0.281055 0.0562,-0.140527 0,-0.281054 -0.11242,-0.140528 -0.0843,-0.196739 0.0281,-0.05621 0,-0.112422 -0.0562,-0.112422 -0.0843,-0.196738 -0.0281,-0.08432 -0.0562,-0.140527 -0.0281,-0.08432 -0.0281,-0.112422 0.0281,-0.224844 0,-0.30916 -0.0281,-0.112422 -0.0281,-0.196739 0,-0.252949 0.0281,-0.30916 0.0281,-0.08432 0.0562,-0.140527 0.11243,-0.168633 0.30916,-0.224844 0.19674,-0.08432 0.42159,-0.112422 0.22484,-0.02811 0.47779,-0.02811 0.25295,0 0.47779,-0.02811 0.30916,-0.08432 0.42159,-0.05621 0.14052,0 0.22484,-0.02811 0.16863,-0.02811 0.33726,-0.08432 0.19674,-0.05621 0.42159,0.112421 0.22484,-0.168632 0.47779,-0.140527 0.28105,0 0.42158,0.196738 0.0843,0.112422 0.0843,0.196739 0.0281,0.08432 0.0843,0.281054 0.0281,0.140528 0.0281,0.224844 0.0281,0.05621 0,0.252949 -0.0281,0.140528 0.0281,0.337266 0.0562,0.196738 0.0562,0.365371 z" />
    <path
       id="path123"
       style="font-size:28.78px;font-family:ChelseaMarket-Regular, 'Chelsea Market';fill:#ffffff"
       d="m 220.09977,30.651229 q -0.0843,0.25295 -0.0562,0.477793 0.0281,0.224844 -0.0281,0.449688 -0.0562,0.337265 -0.14053,0.505898 -0.0562,0.140528 -0.14052,0.281055 -0.11243,0.224844 -0.22485,0.505898 -0.11242,0.25295 -0.16863,0.56211 -0.11242,0.05621 -0.19674,0.168633 -0.0562,0.08432 -0.14053,0.196738 -0.0562,0.112422 -0.16863,0.196738 -0.0843,0.05621 -0.11242,0.196738 -0.14053,0.02811 -0.22484,0.140528 -0.0562,0.08432 -0.14053,0.168633 -0.19674,0.196738 -0.28106,0.252949 -0.0843,0.02811 -0.16863,0.02811 -0.0562,0.140528 -0.16863,0.196739 -0.0843,0.05621 -0.19674,0.112421 -0.11242,0.05621 -0.22484,0.140528 -0.0843,0.08432 -0.19674,0.140527 -0.0562,0.02811 -0.14053,0 -0.0843,0 -0.16863,0.02811 -0.30916,0.140527 -0.5059,0.140527 -0.16863,0.0281 -0.30916,0.05621 -0.22485,0.05621 -0.44969,0.08432 -0.19674,0.05621 -0.47779,0 -0.39348,-0.112422 -0.5059,-0.140527 -0.11242,0 -0.25295,-0.05621 -0.25295,-0.08432 -0.42158,-0.168633 -0.14053,-0.05621 -0.28106,-0.08432 -0.16863,0.05621 -0.22484,0 -0.0562,-0.02811 -0.11242,-0.05621 -0.14053,-0.02811 -0.28106,-0.05621 -0.14052,-0.02811 -0.28105,-0.08432 -0.0843,-0.02811 -0.16863,-0.05621 -0.0843,-0.02811 -0.19674,-0.02811 -0.11242,-0.224844 -0.5059,-0.281055 -0.0562,-0.08432 -0.14053,-0.196738 -0.0562,-0.112422 -0.14053,-0.168633 -0.0562,-0.05621 -0.16863,-0.05621 -0.11242,-0.0281 -0.14053,-0.168632 -0.11242,0.0281 -0.16863,0 -0.0562,-0.02811 -0.14053,-0.05621 -0.11242,-0.08432 -0.19673,-0.196739 -0.0843,-0.112422 -0.28106,-0.140527 -0.0562,-0.252949 -0.22484,-0.30916 -0.14053,-0.05621 -0.22485,-0.252949 -0.0281,-0.08432 -0.0281,-0.224844 0,-0.168633 0,-0.252949 0.0281,-0.25295 0.28105,-0.590215 0.11242,-0.140528 0.19674,-0.224844 0.0843,-0.08432 0.19674,-0.224844 0.14053,-0.224844 0.22484,-0.30916 0.11243,-0.08432 0.16864,-0.140527 0.0843,-0.140528 0.11242,-0.281055 0.0281,-0.168633 0.0843,-0.281055 0.14053,-0.252949 0.11243,-0.365371 0,-0.112422 0.0843,-0.168633 0.28106,-0.224843 0.4778,-0.224843 0.30916,0 0.50589,0.224843 0.19674,0.196739 0.39348,0.281055 0.14053,0.30916 0.14053,0.421582 0,0.112422 0.0562,0.196738 0.16863,0.25295 0.39348,0.393477 0.25294,0.140527 0.44968,0.365371 0.30916,0.112422 0.67453,0.168633 0.39348,0.05621 0.78696,0 0.11242,-0.02811 0.22484,-0.02811 0.11242,0 0.16863,0 0.19674,-0.05621 0.30916,-0.168632 0.14053,-0.140528 0.28106,-0.196739 0.0281,-0.168632 0.0843,-0.30916 0.0562,-0.140527 0.11242,-0.30916 0.0281,-0.05621 0.0281,-0.140527 0,-0.08432 0.0281,-0.168633 0.0562,-0.196738 0.0562,-0.337266 0.0281,-0.168633 -0.0843,-0.393476 -0.14052,-0.224844 -0.16863,-0.25295 -0.0281,-0.05621 -0.0562,-0.08432 -0.22485,-0.281055 -0.5059,-0.477793 -0.25295,-0.224844 -0.39348,-0.534004 -0.14052,-0.05621 -0.30916,-0.112422 -0.14052,-0.05621 -0.19673,-0.224843 -0.30916,-0.02811 -0.59022,-0.140528 -0.25295,-0.140527 -0.56211,-0.224844 -0.0843,-0.05621 -0.19674,-0.05621 -0.0843,0 -0.14052,-0.05621 -0.0843,-0.05621 -0.16864,-0.140528 -0.0562,-0.08432 -0.19674,-0.05621 -0.0562,-0.196738 -0.22484,-0.281054 -0.16863,-0.112422 -0.25295,-0.281055 -0.14053,0 -0.30916,-0.05621 -0.25295,-0.08432 -0.30916,-0.140527 -0.0562,-0.02811 -0.0281,-0.05621 -0.16864,-0.05621 -0.33727,-0.196739 -0.16863,-0.140527 -0.25295,-0.252949 -0.0562,-0.224844 -0.16863,-0.337266 -0.11242,-0.140527 -0.16863,-0.252949 -0.0562,-0.140527 -0.0843,-0.281054 0,-0.168633 -0.16863,-0.281055 0.0562,-0.140527 0,-0.281055 -0.0281,-0.140527 -0.0843,-0.281055 -0.0281,-0.112421 -0.0843,-0.224843 -0.0281,-0.112422 -0.0281,-0.224844 0,-0.140527 0.0281,-0.30916 0.0562,-0.168633 0.0562,-0.30916 0.0281,-0.196739 0,-0.393477 0,-0.196738 0.0281,-0.393476 0.0281,-0.224844 0.0562,-0.281055 0.0281,-0.08432 0.0843,-0.140528 0.0281,-0.252949 0.0281,-0.393476 0,-0.140527 0.0562,-0.337266 0.0562,-0.140527 0.11243,-0.196738 0.0562,-0.08432 0.14052,-0.224844 0.11242,-0.196738 0.25295,-0.449687 0.16863,-0.25295 0.39348,-0.365371 0.0843,-0.337266 0.30916,-0.505899 0.22484,-0.168633 0.36537,-0.449687 0.14053,0 0.25295,-0.05621 0.11242,-0.05621 0.22484,-0.112422 0.11242,-0.08432 0.30916,-0.112422 0.22485,-0.05621 0.42158,-0.05621 0.14053,-0.05621 0.22485,-0.112422 0.0843,-0.08432 0.16863,-0.140527 0.30916,-0.05621 0.39348,-0.05621 0.0843,0 0.16863,0 0.33727,-0.112422 0.61832,-0.168633 0.28106,-0.05621 0.59022,0 0.25294,0.140527 0.33726,0.140527 0.0843,-0.02811 0.19674,0 0.19674,0.112422 0.28105,0.168633 0.11243,0.02811 0.19674,0.08432 0.0843,0.05621 0.14053,0.112421 0.0562,0.05621 0.14053,0.08432 0.0843,0.05621 0.19674,0.08432 0.11242,0.02811 0.19673,0.08432 0.0843,0.05621 0.22485,0.196738 0.14053,0.112422 0.30916,0.196738 0.14053,0.08432 0.16863,0.168633 0.0562,0.08432 0.0843,0.112422 0.0562,0.05621 0.11242,0.112422 0.0562,0.05621 0.11242,0.196738 0.0562,0.112422 0.0843,0.252949 0.0562,0.140528 0.14052,0.196739 0.19674,0.05621 0.39348,0.112422 0.22484,0.05621 0.30916,0.224843 0.0281,0.08432 0,0.168633 -0.0281,0.08432 -0.0562,0.224844 -0.11242,0.30916 -0.42158,0.590215 -0.19674,0.224843 -0.25295,0.30916 -0.0562,0.08432 -0.11242,0.140527 -0.25295,0.365371 -0.44969,0.56211 -0.16863,0.168632 -0.30916,0.337265 -0.42158,0.224844 -0.59022,0.168633 -0.14052,-0.08432 -0.22484,-0.224844 -0.0562,-0.112422 -0.16863,-0.140527 -0.11242,-0.05621 -0.0562,-0.224844 -0.16864,-0.02811 -0.28106,-0.112422 -0.0843,-0.112422 -0.19674,-0.224843 -0.16863,-0.168633 -0.22484,-0.196739 -0.0562,-0.02811 -0.0843,-0.05621 -0.0843,-0.05621 -0.19673,-0.08432 -0.0843,-0.05621 -0.22485,-0.112422 -0.36537,-0.140527 -0.59021,-0.168633 -0.19674,-0.05621 -0.33727,-0.168633 -0.16863,0.140528 -0.33726,0.168633 -0.16864,0 -0.30916,0.08432 -0.0562,0.05621 -0.16864,0.224843 -0.0843,0.168633 -0.14052,0.393477 -0.0562,0.196738 -0.0843,0.421582 0,0.196738 0.0843,0.365371 0.14052,0.252949 0.16863,0.337266 0.0281,0.05621 0.16863,0.196738 0.39348,0.224844 0.70264,0.421582 0.30916,0.168633 0.534,0.281055 0.0281,0.140527 0.11242,0.252949 0.11243,0.08432 0.11243,0.224844 0.28105,0.140527 0.39347,0.196738 0.11242,0.02811 0.22485,0.08432 0.25295,0.140528 0.33726,0.309161 0.11242,0.140527 0.22485,0.196738 0.11242,0.05621 0.19673,0.08432 0.11243,0.02811 0.19674,0.112422 0.39348,0.196738 0.75885,0.646426 0.14053,-0.02811 0.19674,0.05621 0.0843,0.05621 0.14053,0.112422 0.14052,0.08432 0.22484,0.140527 0.0843,0.05621 0.19674,0.196738 0.0843,0.168633 0.39347,0.309161 0.14053,0.281054 0.33727,0.505898 0.19674,0.224844 0.33727,0.477793 0,0.112422 0,0.196738 0,0.08432 -0.0562,0.140528 0.19674,0.140527 0.19674,0.365371 0,0.224844 0.0562,0.477793 0.0562,0.196738 0.16864,0.393476 0.14052,0.168633 0.0562,0.477793 z" />
  </g>
</svg>
