<?xml version="1.0" encoding="UTF-8" standalone="no"?>
<svg
   xmlns="http://www.w3.org/2000/svg"
   height="1100"
   width="1500"
   viewBox="0 0 1500 1100">
  
  <defs>
    <style id="style40">.cls-1{fill:#fcc600;}.cls-2{fill:#fff;}.cls-3,.cls-4,.cls-5,.cls-6,.cls-7,.cls-8,.cls-9{isolation:isolate;}.cls-4{font-size:41.67px;fill:#4bbcc0;}.cls-4,.cls-6,.cls-7{font-family:ChelseaMarket-Regular, Chelsea Market;}.cls-5{font-size:125px;}.cls-5,.cls-8{font-family:AmaticSC-Bold, Amatic SC;}.cls-5,.cls-8,.cls-9{font-weight:700;}.cls-6{font-size:165.98px;fill:#fdc700;}.cls-7{font-size:166.67px;fill:#fa8807;}.cls-8{font-size:165.5px;}.cls-9{font-size:131.63px;fill:#804cbf;font-family:Caveat-Bold, Caveat;}.cls-10{letter-spacing:0.01em;}.cls-11{letter-spacing:-0.01em;}.cls-12{letter-spacing:0em;}.cls-13{letter-spacing:-0.04em;}</style>
  </defs>

  <g transform="translate(26.499213,12.506125)">
    <path
       class="cls-1"
       d="m 1469.8634,279.45885 c -1.33,-60.29 -2.15,-120.58 -5.16,-180.819999 q -2.23,-44.43 -7,-88.6400001 c -0.33,-3.1 -1.31,-4.57 -4.5,-4.34 a 38.11,38.11 0 0 1 -4,-0.15 c -52.44,-1.33 -104.87,-2.78 -157.3,-3.94 q -102.63,-2.3 -205.27,-4.17 -89.14003,-1.63 -178.31003,-2.8 c -79.93,-1 -159.85,-1.64 -239.78,-2.45 q -38.2,-0.39 -76.41,-0.82 l -33,-0.08 h -51 l -88.94,-0.05 q -51.26,0.14 -102.52,0.27 c -8.46,0 -16.91,-0.12 -25.37,-0.19 -1,0.06 -2,0.17 -3,0.17 q -96.92,0.47 -193.830003,0.89 c -31.47,0.11 -62.93,0.67 -94.38000038,1.9 -4.09000002,0.16 -6.17000002,1.31 -7.21000002,5.61 -2.2,9.07 -4.3599996,18.1300001 -5.4599996,27.4000001 -4.07,35.56 -6.05,71.34 -7.31,107.139999 q -3.09,85.16 -4.09,170.38 -2,155.7 1.44,311.38 c 1.13,52.63 2.21,105.26 3.92,157.87 1.71,52.61 3.25,105.23 5,157.84 1.56,46.11 3.39,92.22005 4.9199996,138.34005 0.13,4 1.48,4.85 5.21,5 32.6100004,1.57 65.2400004,2.12 97.8700004,2.42 q 138.870003,1.32 277.750003,2.07 76.68,0.54 153.36,1 82.43,0.49 164.86,1 114.39,0.57 228.8,1 127.64003,0.42 255.28003,0.58 81.69,0.18 163.36,0.36 c 39.8,0.07 79.6,0 119.4,0.16 4,0 5.67,-0.88 5.46,-5.2 -0.23,-4.81 0.4,-9.65 0.53,-14.47 1.39,-51.8 3,-103.59005 4.07,-155.39005 q 1.8,-85.95 2.85,-171.92 1,-72 1.29,-143.95 c 0.45,-104.47 0.77,-208.94 -1.53,-313.4 z M 727.52337,0.5888509 h -50 q 25.01,0.01 50,0 z M 1450.6734,19.838851 c -3.36,61.93 -2.13,123.929999 -1.83,185.909999 0.28,56.81 0.48,113.63 1,170.45 0.72,71.15 0.65,142.29 0.21,213.44 q -0.6,96 -2,191.94 c -0.68,48.14 -1.73,96.28 -2.9,144.42 -1.16,47.46 -2.72,94.92005 -3.93,142.39005 -0.11,4.07 -1.48,4.9 -5.24,4.9 q -231.32,-0.42 -462.64003,-0.69 -123.15,-0.23 -246.3,-1 -92.93,-0.4 -185.84,-1 -79.93,-0.45 -159.87,-1 -144.12,-1 -288.250003,-2 -36.22,-0.24 -72.44,-0.18 c -3.19,0 -4.33,-0.57 -4.44,-4 -1.21,-37 -2.59,-73.92005 -3.91,-110.88005 -1.78,-49.44 -3.6700004,-98.88 -5.2600004,-148.32 -1.13,-35.3 -1.72,-70.62 -2.74,-105.92 q -2.07,-70.69 -2.92,-141.41 c -0.37999998,-32.82 -0.61999998,-65.64 -0.99999998,-98.46 -0.8,-61.64 -0.18,-123.28 0.6,-184.9 0.55999998,-43.65 1.42999998,-87.3 3.10999998,-130.91 1.6,-41.48 1.64,-82.949999 1.59,-124.439999 a 77.32,77.32 0 0 0 -0.86,-12.4500001 c -0.64,-3.85 0.44,-4.79 4.3,-4.76 22.8100004,0.23 45.6300004,0.41 68.4400004,0.2 172.860003,-1.59 345.720003,-1.28 518.580003,-0.69 q 35.25,0.13 70.52,0.07 c 57.19,0.62 175.15,2.09 232.21,2.91 q 123.12003,1.79 246.24003,4.07 c 72.09,1.4 144.17,3.2200001 216.25,4.9400001 28.13,0.67 56.26,1.63 84.39,2.3 3.7,0.18 5.15,0.85 4.93,5.07 z"
       id="path46" />
    <path
       class="cls-1"
       d="M 677.52337,0.6288509 Z"
       id="path48" />
    <path
       class="cls-1"
       d="m 727.52337,0.5888509 h -50 q 25.01,0.01 50,0 z"
       id="path50" />
    <path
       class="cls-2"
       d="m 1450.6734,19.838851 c -3.36,61.93 -2.13,123.929999 -1.83,185.909999 0.28,56.81 0.48,113.63 1,170.45 0.72,71.15 0.65,142.29 0.21,213.44 q -0.6,96 -2,191.94 c -0.68,48.14 -1.73,96.28 -2.9,144.42 -1.16,47.46 -2.72,94.92005 -3.93,142.39005 -0.11,4.07 -1.48,4.9 -5.24,4.9 q -231.32,-0.42 -462.64003,-0.69 -123.15,-0.23 -246.3,-1 -92.93,-0.4 -185.84,-1 -79.93,-0.45 -159.87,-1 -144.12,-1 -288.250003,-2 -36.22,-0.24 -72.44,-0.18 c -3.19,0 -4.33,-0.57 -4.44,-4 -1.21,-37 -2.59,-73.92005 -3.91,-110.88005 -1.78,-49.44 -3.6700004,-98.88 -5.2600004,-148.32 -1.13,-35.3 -1.72,-70.62 -2.74,-105.92 q -2.07,-70.69 -2.92,-141.41 c -0.37999998,-32.82 -0.61999998,-65.64 -0.99999998,-98.46 -0.8,-61.64 -0.18,-123.28 0.6,-184.9 0.55999998,-43.65 1.42999998,-87.3 3.10999998,-130.91 1.6,-41.48 1.64,-82.949999 1.59,-124.439999 a 77.32,77.32 0 0 0 -0.86,-12.4500001 c -0.64,-3.85 0.44,-4.79 4.3,-4.76 22.8100004,0.23 45.6300004,0.41 68.4400004,0.2 172.860003,-1.59 345.720003,-1.28 518.580003,-0.69 q 35.25,0.13 70.52,0.07 c 57.19,0.62 175.15,2.09 232.21,2.91 q 123.12003,1.79 246.24003,4.07 c 72.09,1.4 144.17,3.2200001 216.25,4.9400001 28.13,0.67 56.26,1.63 84.39,2.3 3.7,0.18 5.15,0.85 4.93,5.07 z"
       id="path52" />
    <g
       id="click_here_to_learn_more"
       data-name="click here to learn more"
       class="cls-3"
       transform="translate(-434.88663,-263.61115)">
      <text
         class="cls-4"
         transform="translate(747.52,1148.73)"
         id="text54">click here</text>
      <text
         class="cls-4"
         transform="translate(657.51,1198.73)"
         id="text56">to learn more</text>
    </g>
    <g
       id="we_Create"
       data-name="we Create"
       class="cls-3"
       transform="translate(-435.27175,-263.61115)">
      <text
         class="cls-5"
         transform="translate(996.17,444.51)"
         id="text59">we Create</text>
    </g>
    <g
       id="PERSONALIZED_"
       data-name="PERSONALIZED "
       class="cls-3"
       transform="translate(-461.23822,-263.61115)">
      <text
         class="cls-6"
         transform="translate(597.2,654.78)"
         id="text62">PERSONALIZED</text>
    </g>
    <g
       id="BOOKS"
       class="cls-3"
       transform="translate(-419.62293,-248.77402)">
      <text
         class="cls-7"
         transform="translate(562.62,843.62)"
         id="text65">BOOKS</text>
    </g>
    <g
       id="TO_PRESERVE"
       data-name="TO PRESERVE"
       class="cls-3"
       transform="translate(-453.23497,-248.01366)">
      <text
         class="cls-8"
         transform="translate(1223.89,845.71)"
         id="text68">TO PRESERVE</text>
    </g>
    <g
       id="PERSONAL_MEMORIES"
       data-name="PERSONAL HISTORIES"
       class="cls-3"
       transform="translate(-438.4775,-263.61115)">
      <text
         class="cls-9"
         transform="translate(568.16,1017.37)"
         id="text87">PER<tspan
   class="cls-10"
   x="203.49001"
   y="0"
   id="tspan71">S</tspan><tspan
   x="269.95999"
   y="0"
   id="tspan73">ON</tspan><tspan
   class="cls-11"
   x="417.89999"
   y="0"
   id="tspan75">A</tspan><tspan
   x="483.84"
   y="0"
   id="tspan77">L MEMO</tspan><tspan
   class="cls-11"
   x="900.42999"
   y="0"
   id="tspan79">R</tspan><tspan
   class="cls-12"
   x="970.71997"
   y="0"
   id="tspan81">I</tspan><tspan
   class="cls-13"
   x="1024.55"
   y="0"
   id="tspan83">E</tspan><tspan
   class="cls-12"
   x="1089.58"
   y="0"
   id="tspan85">S</tspan></text>
    </g>
    <path
       d="m 586.74337,917.08885 a 142.11,142.11 0 0 0 10.73,-15.59 c 1.35,-0.59 1.19,-2.77 0,-3.39 a 1,1 0 0 0 -0.23,-0.23 c -5.55,-4 -12.13,-7 -18.29,-9.88 a 1.18,1.18 0 0 0 -1.19,2 153.17,153.17 0 0 0 14.94,8.65 c -6.26,1.75 -11.58,6 -17.54,8.55 -5.28,2.31 -15.5,4.47 -21.15,0.67 3.09,-1.8 5.86,-4.71 6.62,-8.25 0.67,-3.16 -0.68,-6.73 -4,-7.66 -3.08,-0.86 -6.48,1 -8.18,3.55 -2,3 -1.86,6.92 -0.44,10.1 0.07,0.15 0.15,0.29 0.22,0.43 -7.59,2.08 -15.62,-1.48 -22.25,-5 a 1.19,1.19 0 0 0 -1.2,2 c 7.62,5.25 16.94,9.51 26,6.28 5,4.31 13.6,4.23 19.56,3.06 8.06,-1.58 14.58,-6.87 22.16,-9.57 a 70.1,70.1 0 0 0 -8.33,12.25 c -0.8,1.62 1.34,3.52 2.57,2.03 z m -35.48,-12.18 a 3.54,3.54 0 0 1 -0.19,-0.33 7.31,7.31 0 0 1 0,-6.6 c 0.82,-1.41 3.56,-3.58 5.19,-2 1.63,1.58 -0.26,4.83 -1.41,6.13 a 12.57,12.57 0 0 1 -3.59,2.8 z"
       id="path90" />
  </g>
</svg>
