<?xml version="1.0" encoding="UTF-8" standalone="no"?>
<svg
   xmlns:dc="http://purl.org/dc/elements/1.1/"
   xmlns:cc="http://creativecommons.org/ns#"
   xmlns:rdf="http://www.w3.org/1999/02/22-rdf-syntax-ns#"
   xmlns:svg="http://www.w3.org/2000/svg"
   xmlns="http://www.w3.org/2000/svg"
   version="1.1"
   id="Grupo_7"
   x="0px"
   y="0px"
   viewBox="0 0 1500 1330"
   xml:space="preserve"
   width="1500"
   height="1330"><metadata
   id="metadata160"><rdf:RDF><cc:Work
       rdf:about=""><dc:format>image/svg+xml</dc:format><dc:type
         rdf:resource="http://purl.org/dc/dcmitype/StillImage" /><dc:title>storically test frame-01</dc:title></cc:Work></rdf:RDF></metadata><defs
   id="defs158" />
<style
   type="text/css"
   id="style10">
	.st0{fill:#FFFFFF;}
	.st1{fill:#FEFEFE;}
	.st2{fill:#804CBE;}
	.st3{fill:#A27DD0;}
	.st4{fill:#FCFBFD;}
	.st5{fill:#C1A8DF;}
	.st6{fill:#FEFAEE;}
	.st7{fill:#FEFBF0;}
	.st8{fill:#FCC600;}
	.st9{fill:#FEFEFC;}
	.st10{fill:#4BBBBF;}
	.st11{fill:#FDFEFE;}
	.st12{fill:#D2EEEF;}
	.st13{fill:#EDF8F9;}
	.st14{fill:#E9F6F7;}
	.st15{fill:#4CBCC0;}
	.st16{fill:#D1D1D1;}
	.st17{fill:#CACACA;}
	.st18{fill:#4BBCC0;}
	.st19{font-family:'Boogaloo-Regular';}
	.st20{font-size:100.08px;}
	.st21{fill:#F98707;}
	.st22{fill:#F8F8F8;}
	.st23{fill:#FDFDFD;}
	.st24{fill:#FDC700;}
	.st25{font-family:'ChelseaMarket-Regular';}
	.st26{font-size:182.12px;}
	.st27{font-size:100.03px;}
</style>
<title
   id="title12">storically test frame-01</title>










<path
   class="st0"
   d="m 1477.0426,45.973955 c -2.8,66.700005 -2.1,133.500005 -1.8,200.300005 0.4,74.9 0.6,149.8 1.2,224.8 0.7,84.4 0.7,168.8 0.2,253.2 -0.4,77.6 -1.1,155.2 -2,232.8 -0.4,37.1 -1.1,74.20004 -1.8,111.40004 -1,51.6 -2,103.2 -3.2,154.8 -0.6,25.8 -1.4,51.6 -2,77.4 -0.1,3.6 -1,4.9 -4.8,4.9 -100.6,-0.2 -201.2,-0.3 -301.7,-0.4 -91.1,-0.2 -182.19995,-0.6 -273.29995,-0.9 -34.3,-0.1 -68.5,-0.1 -102.8,0 h -2.1 c -67.8,0 -164.5,-1.9 -231.7,-2 -47,-0.1 -93.9,-0.6 -140.9,-1 -35.1,-0.3 -70.3,-0.3 -105.4,-1 -45.3,-0.9 -90.6,-0.5 -135.9,-1 -40.5,-0.5 -80.899999,-0.8 -121.399999,-0.5 -4.1,0 -4.9,-1.4 -5,-5.1 -1.6,-55.4 -3.2,-110.8 -4.9,-166.2 -1.3,-43.6 -2.6,-87.2 -3.7,-130.80004 -1.5,-61.7 -2.9,-123.5 -4.2,-185.2 -0.9,-45.4 -1.5,-90.9 -2.1,-136.3 -0.5,-39.1 -1.3,-78.2 -1.2,-117.3 0,-70.6 0.3,-141.2 0.9,-211.7 0.3,-40 0.9,-79.9 2.1,-119.8 1.9,-61.1 3.1,-122.2 2.5,-183.300005 0.1,-5 -0.3,-10 -0.9,-14.9 -0.7,-4.5 1,-5.4 5,-5.2 8,0.5 16,0.8 24,0.7 142.499999,-1.8 285.099999,-2 427.599999,-1.7 41.1,0.1 82.3,0.2 123.4,0.4 39.1,0.2 78.3,0.6 117.4,1 51.9,0.6 103.9,1.2 155.8,2 40.3,0.6 80.6,1.2 120.79995,2 31.3,0.6 62.6,1.2 93.9,1.9 58.1,1.3 116.2,2.7 174.3,4.1 45.9,1.2 91.8,2.6 137.8,4 19.8,0.6 39.6,1.3 59.4,2 6.7,-0.3 6.7,-0.3 6.5,6.6 z"
   id="path14" /><g
   id="g1263"
   transform="translate(2.0113666)"><g
     transform="translate(-387.05735,-201.62604)"
     id="g36">
	<path
   id="path16"
   d="m 1082.4,986.9 c 0,8.4 -0.1,16.8 0.1,25.2 0,2.1 -0.4,2.9 -2.5,2.5 -0.5,-0.1 -1,0 -1.5,0 -146.5,0 -293.1,0 -439.6,0.1 -3.6,0 -4.4,-0.7 -4.3,-4.3 0.2,-30.4 0.2,-60.9 0,-91.3 0,-3.4 0.5,-4.4 4.3,-4.4 121.6,0.1 243.2,0.1 364.9,0.1 0.3,0.4 0.4,0.9 0.3,1.4 -1.6,2.4 -2.3,5.1 -2.5,7.9 -0.4,6.6 -1.9,12.9 -4.4,19 -0.7,1.6 -1.5,3.6 0.1,5 1.7,1.5 3.7,0.8 5.6,-0.1 6.5,-3.2 15.1,-19.9 14,-27 -0.3,-1.9 -1.7,-3.1 -2.4,-4.8 -0.1,-0.5 -0.1,-1 0.3,-1.4 21.6,0 43.2,0 64.8,-0.1 2.5,0 3.1,0.6 3.1,3 -0.1,22.1 -0.1,44.1 -0.1,66.2 -2.4,0 -2.3,-2.1 -2.7,-3.5 -2.2,-10 -9.1,-15.8 -18.1,-19.5 -4.3,-1.8 -8.6,-3.6 -12.5,-6.1 -4.8,-2.9 -6.7,-6.8 -5.6,-11.1 1,-3.8 4.6,-6.1 10.1,-6.5 4.5,-0.3 9,0.1 13.2,1.8 4.1,1.6 6.2,-0.5 7.7,-3.9 1.8,-4 1.3,-6.1 -2.2,-8.4 -10.9,-7 -32.7,-4.4 -41.4,4.8 -9.2,9.7 -7.7,27 2.9,35.2 5.5,4.2 12,6.4 18,9.5 2.1,1.1 4.2,1.9 6.1,3.3 3.1,2.3 4,5.5 3.6,9.2 -0.4,3.7 -2.6,6 -6,7.1 -5.2,1.7 -10.4,1.7 -15.6,-0.2 -1.9,-0.7 -3.6,-1.6 -5.5,-2.4 -4.9,-2 -7.2,-1.2 -9.7,3.4 -2.3,4.2 -1.7,7 3,9.3 12.3,6 25,7.7 38,2.4 7.1,-2.9 11.1,-8.5 13.2,-15.8 0.4,-2 0,-5 3.3,-5.6 z"
   class="st1" />
	<path
   id="path18"
   d="m 1082.4,986.9 c -2,0.6 -1.4,2.4 -1.7,3.7 -2.9,16.1 -15,21.9 -29.1,22.4 -8.4,0.3 -16.9,-1.3 -24.5,-5.6 -2.7,-1.5 -6,-3.1 -5.3,-7 0.8,-4.2 3.1,-7.6 6.8,-10 1.5,-1 2.8,0.2 4.2,0.8 5.7,2.8 11.4,5.5 18.1,4.5 4.2,-0.6 8.4,-1.4 9.6,-6.4 1.1,-4.6 -0.7,-7.8 -6.1,-10.5 -5.5,-2.8 -11.3,-4.9 -16.6,-8 -11.8,-6.8 -16.2,-16.7 -13.4,-29.1 2.5,-11.3 11.2,-18.6 24.2,-20 8.2,-0.8 16.3,-0.5 23.9,3.2 2.5,1.3 5.4,2.7 5,6.1 -0.5,4 -2.2,7.6 -5.7,10 -1.4,1 -2.9,0 -4.2,-0.6 -5.2,-2.1 -10.6,-2.8 -16.1,-1.8 -3.1,0.5 -5.9,1.8 -6.7,5.1 -1,3.5 0.3,6.5 3.2,8.7 3.8,3 8.4,4.7 12.8,6.5 11.1,4.5 19.7,11 20.7,24 0,0.3 0.7,0.6 1,0.8 -0.1,1.2 -0.1,2.2 -0.1,3.2 z"
   class="st2" />
	<path
   id="path20"
   d="m 1003.6,915.7 c 0.1,-0.3 0.1,-0.6 0,-1 3.7,0 7.3,0 11,0 -0.1,0.3 -0.1,0.7 0,1 -3.7,2.2 -7.3,2.3 -11,0 z"
   class="st3" />
	<path
   id="path22"
   d="m 669,981.7 c 4.9,-18.8 9.7,-36.9 14.1,-55.1 1.2,-5.2 3.7,-7.3 8.9,-6.9 1.2,0.1 2.3,0 3.5,0 6.9,0.1 7.4,0.7 8.9,7.3 4,17.5 8,34.9 12,52.4 0.2,0.9 0.4,2 1.4,2.5 4.5,-18.3 9.1,-36.5 13.6,-54.8 1.6,-6.5 12.6,-9.9 17.7,-5.5 1.8,1.5 1,3.2 0.5,5 -5.8,22.3 -11.7,44.5 -17.5,66.8 -1,3.8 -2.1,7.6 -2.9,11.4 -0.7,3.2 -2.7,4.8 -6,4.8 -4,0 -8,-0.1 -12,0 -4.1,0.1 -6.2,-1.6 -7.2,-5.8 -3.2,-14.6 -6.7,-29.1 -10.2,-43.7 -0.3,-1.2 0,-2.7 -1.8,-3.7 -3.5,13.7 -7.1,27.3 -10.5,40.8 -3,12.2 -2.9,12.2 -15.6,12.1 -1.8,0 -3.7,-0.1 -5.5,-0.2 -3,-0.2 -4.7,-1.6 -5.4,-4.7 -6.2,-26.2 -12.5,-52.4 -19,-78.6 -1,-4.2 0.4,-5.9 4.4,-6.2 1.5,-0.1 3,-0.2 4.5,-0.2 8.9,0 9.7,0.6 11.7,9.1 4.2,17.7 8.2,35.1 12.4,53.2 z"
   class="st2" />
	<path
   id="path24"
   d="m 759.4,965.6 c 0,-12.8 0.2,-25.7 -0.1,-38.5 -0.1,-4.8 2,-6.4 6.4,-6.7 12.8,-0.9 13.7,-0.2 13.6,12.2 0,6.6 0.1,13.2 -0.1,19.7 -0.1,2.7 0.8,3.8 3.6,3.7 9.1,-0.1 18.3,-0.1 27.4,0.1 3.3,0.1 3.8,-1.3 3.8,-4.1 -0.1,-8.4 0.2,-16.8 0,-25.2 -0.1,-4.3 1.9,-6 5.9,-6.2 0.3,0 0.7,0 1,-0.1 12.4,-0.8 13.3,0 13.2,12.3 -0.1,22.5 -0.1,45.1 -0.4,67.6 0,3 1.4,7.4 -2.5,8.8 -5.2,1.9 -10.8,2 -16,-0.4 -2.1,-1 -1.8,-3.3 -1.8,-5.3 0.1,-8.7 0.2,-17.4 0.4,-26.1 0.1,-3.3 -0.8,-4.7 -4.4,-4.6 -8.8,0.2 -17.6,0.1 -26.4,-0.1 -3,-0.1 -4,0.8 -4,3.9 0.2,8.9 -0.2,17.8 0.1,26.6 0.1,4.8 -2,6.4 -6.5,6.6 -13.4,0.6 -13.6,0.5 -13.5,-12.7 0,-10.5 0,-21.1 0,-31.6 0.1,0.1 0.2,0.1 0.3,0.1 z"
   class="st2" />
	<path
   id="path26"
   d="m 912.6,1010.8 c -9,0 -9,0 -11.7,-8.7 -3,-9.5 -3,-9.5 -12.9,-9.5 -5.5,0 -11,0.1 -16.5,-0.1 -3.1,-0.1 -4.6,1 -5.3,3.8 -0.9,3.3 -2.2,6.5 -3.2,9.8 -0.8,2.7 -2.5,4 -5.3,4.3 -14.1,1.6 -15.6,-0.2 -10.9,-13.3 8.1,-22.9 16.4,-45.9 24.1,-68.9 1.9,-5.5 4.9,-7.5 10.5,-7.5 11.7,0 11.7,-0.2 15.4,10.7 7.8,22.9 15.5,45.8 23.3,68.7 3.5,10.5 3.2,10.8 -7.5,10.7 z"
   class="st2" />
	<path
   id="path28"
   d="m 942.9,974 c 0,-10.5 -0.1,-21.1 0.1,-31.6 0.1,-3 -0.9,-4 -3.9,-3.9 -5,0.2 -10,0 -15,0 -3.5,0.1 -5.2,-1.6 -5.3,-5 -0.4,-13.7 0.5,-11.8 10.8,-11.8 16.8,0.1 33.6,0.1 50.4,0.2 6.2,0 7.2,1.1 7.5,7.1 0.3,8.8 -0.6,9.7 -9.2,9.7 -3.7,0 -7.3,0.2 -11,-0.1 -3.5,-0.3 -4.5,1 -4.5,4.4 0.1,20.2 -0.1,40.5 -0.2,60.7 0,5.9 -1.3,7.2 -7.1,7.6 -0.3,0 -0.7,0 -1,0 -11.2,0.3 -11.9,-0.3 -11.9,-11.2 0,-8.7 0,-17.4 0,-26.2 0.1,0.1 0.2,0.1 0.3,0.1 z"
   class="st2" />
	<path
   id="path30"
   d="m 1003.6,915.7 c 3.7,0 7.4,0 11,0 3.1,1.3 3.8,3.8 3.5,6.9 -1.1,9.3 -5.2,17.3 -11.6,24.1 -1.2,1.3 -2.8,2.4 -4.4,3.2 -2.2,1.1 -4.7,0.7 -6.6,-0.7 -2,-1.5 -0.9,-3.7 -0.2,-5.4 3.2,-7.3 4.7,-15 4.9,-23 0.2,-2.4 0.9,-4.3 3.4,-5.1 z"
   class="st2" />
	<path
   id="path32"
   d="m 883.8,947.5 c 2.5,8.1 4.8,16.3 7.5,24.4 1.1,3.3 0.2,4.1 -3,3.9 -3.6,-0.2 -7.3,-0.2 -10.9,0 -3.3,0.1 -4,-1 -2.9,-4.1 2.7,-7.4 5.1,-14.9 7.6,-22.3 0.8,-0.5 -0.2,-2.6 1.7,-1.9 z"
   class="st4" />
	<path
   id="path34"
   d="m 883.8,947.5 c -0.6,0.6 -1.2,1.3 -1.8,1.9 -0.1,-1.2 -0.7,-2.8 0.7,-3.4 1.1,-0.5 1.1,0.7 1.1,1.5 z"
   class="st5" />
</g><g
     transform="translate(-387.05735,-201.62604)"
     id="g56">
	<path
   id="path38"
   d="m 1082.3,1139.5 c 0.9,3.4 -1.3,3 -3.5,3 -32,0 -64,0 -96,0 -78.1,0 -156.2,-0.1 -234.3,0.1 -4.5,0 -5,-1.3 -5,-5.2 0.2,-27.6 0.1,-55.2 0.1,-82.8 0,-6.9 0,-6.9 7,-6.9 0.5,1.7 -1.6,2.1 -1.8,3.5 -0.6,2.6 1.1,4.4 2.2,6.3 6.4,10.8 13.1,21.3 19.6,32 2.2,3.6 3.3,7.3 3.3,11.6 -0.2,9.7 -0.1,19.4 0,29.1 0,6.1 0.9,6.9 6.8,7 10.4,0.2 10.4,0.1 10.4,-10.3 0,-7.6 0.2,-15.1 -0.1,-22.7 -0.2,-5.4 1.3,-9.9 4.2,-14.3 7,-10.8 13.9,-21.6 20.5,-32.6 3.1,-5.2 2.5,-5.7 -3.4,-6.4 -8.1,-0.9 -13.1,1.9 -16.5,9.3 -2.5,5.5 -5.9,10.6 -9.2,15.8 -2.5,3.8 -4,3.8 -6.4,-0.2 -3.4,-5.5 -6.4,-11.1 -9.5,-16.8 -1.6,-2.9 -3.2,-5.8 -5.5,-8.1 -0.8,-1 -2.1,-1.6 -1.7,-3.2 104.9,0 209.9,0 314.8,-0.1 3.4,0 4.1,0.7 4.1,4 -0.2,28 -0.1,55.9 -0.1,83.9 -1.2,0.5 -2.2,0 -3.1,-0.7 -3.5,-5.3 -5.1,-11.4 -7.5,-17.1 -2.7,-6.7 -4.9,-13.7 -10,-19.1 -2.8,-2.9 -0.6,-4.5 1.8,-6.1 8.9,-6 12.2,-14.2 9.7,-23.8 -2.8,-10.3 -11,-14.4 -20.5,-15.2 -10.4,-0.9 -20.8,-1.1 -31.3,-1.3 -5.2,-0.1 -6.1,1.2 -6.4,6.6 -1.3,23.8 -1,47.7 -1,71.5 0,2.9 -0.7,6.3 2.7,7.8 3.9,1.7 8.2,1.6 12.1,0.1 2.4,-0.9 2.2,-3.5 2.2,-5.6 0.1,-7.1 -0.1,-14.1 0.1,-21.2 0.1,-6.6 2.2,-8.1 8.6,-7.3 6.6,0.8 10.4,4.6 12.8,10.3 2.8,6.5 5,13.2 7.9,19.7 0.8,1.8 1.6,3.6 3.1,5 5.2,2.3 10.6,1 15.9,0.7 1,-0.1 1.9,-0.7 2.9,-0.3 z"
   class="st1" />
	<path
   id="path40"
   d="m 763.5,1047.7 c 0.7,0.6 1.3,1.3 2,1.9 -5.9,2.6 -11.9,2.3 -17.9,0.2 1,-0.7 2,-1.4 2.9,-2.1 4.4,0 8.7,0 13,0 z"
   class="st6" />
	<path
   id="path42"
   d="m 1082.3,1139.5 c -6.5,3.2 -13.1,2.8 -19.8,0.7 3.2,-1.8 6.8,-1 10.2,-0.9 3.7,0 6.5,-0.7 7.6,-4.6 0.7,0.3 1.4,0.6 2,1 0,1.2 0,2.5 0,3.8 z"
   class="st7" />
	<path
   id="path44"
   d="m 906.9,1094.8 c -0.2,11.9 -2,23.2 -9.9,32.9 -1.7,2.1 -3.6,3.9 -5.7,5.4 -24.8,18.2 -60.7,4.3 -65.7,-25.6 -2.1,-12.5 -1.7,-25 3.5,-36.8 4.6,-10.7 12.8,-17.4 24.2,-20.1 8.9,-2.1 17.8,-2 26.6,0.5 13.4,3.7 21.2,12.8 24.9,25.8 1.6,5.7 2.3,11.7 2.1,17.9 z"
   class="st8" />
	<path
   id="path46"
   d="m 1080.2,1134.6 c 1.6,4.2 -0.1,6.1 -4.5,6 -4.4,-0.1 -8.8,-0.3 -13.3,-0.4 -4.7,-5.8 -5.8,-13.1 -9,-19.6 -1.1,-2.4 -1.9,-4.9 -3,-7.3 -3.1,-6.5 -8.4,-9 -15.5,-8 -2.8,0.4 -2.5,2.1 -2.5,3.9 0,8.2 -0.3,16.4 0,24.7 0.2,4.8 -2.1,6.5 -6.4,6.6 -0.3,0 -0.7,0 -1,0 -12,0.3 -12.6,-0.2 -12.5,-12.1 0.2,-23.5 0.4,-47 0.6,-70.5 0.1,-5.9 1,-7.1 7,-6.8 12.2,0.5 24.6,-0.9 36.7,1.7 8.6,1.9 15.3,6.4 17.5,15.5 2.1,8.6 0.7,16.4 -6.2,22.5 -2.2,1.9 -4.9,3.3 -7.6,5.1 7.7,5.8 9.5,14.7 12.9,22.8 2.4,5.3 4.6,10.6 6.8,15.9 z"
   class="st8" />
	<path
   id="path48"
   d="m 921.3,1084.5 c 0,-9.4 0.1,-18.8 0,-28.1 -0.1,-3.9 1.7,-5.6 5.5,-6 13.2,-1.3 14.4,-0.3 14.3,12.5 -0.1,14.8 -0.2,29.6 -0.2,44.4 0,10.2 6.6,16.6 17.3,16.7 10.7,0.1 17.6,-6.2 17.7,-16.3 0.2,-16.9 0.4,-33.9 0.4,-50.8 0,-4.5 2,-6.1 6.2,-6.3 12.9,-0.6 13.3,-0.2 13.3,12.6 -0.1,15 -0.1,29.9 -0.2,44.9 -0.1,19 -9.8,30.1 -29,32.2 -8.2,0.9 -16.5,0.7 -24.6,-1.8 -12.9,-4 -20.7,-14 -20.9,-27.4 -0.1,-8.9 0,-17.8 0,-26.6 -0.1,0 0.1,0 0.2,0 z"
   class="st8" />
	<path
   id="path50"
   d="m 747.6,1049.8 c 6,-0.7 11.9,-0.5 17.9,-0.2 3.1,2 4.3,5.3 6,8.3 3.9,6.7 7.6,13.4 11.9,20.9 4.6,-7.8 8.8,-15 13,-22.2 3.8,-6.5 14.7,-9.8 21.4,-6.5 3.3,1.6 1.6,3.8 0.4,5.7 -7.2,11.6 -14.4,23.3 -21.9,34.7 -2.6,4 -3.9,8 -3.8,12.9 0.3,9.5 -0.2,19.1 0,28.6 0.1,4.6 -1.6,6.5 -6.2,6.8 -13.2,0.7 -13.8,0.3 -13.7,-12.7 0,-8.7 0,-17.4 0.2,-26.1 0.1,-3.1 -0.8,-5.7 -2.4,-8.3 -7.4,-11.9 -14.7,-23.8 -22,-35.8 -1.1,-1.8 -2.8,-3.7 -0.8,-6.1 z"
   class="st8" />
	<path
   id="path52"
   d="m 844.9,1094.2 c -0.1,-4.8 0.6,-10 2.3,-15 3,-8.7 9.7,-13.4 18.8,-13.4 8.8,0 15.5,4.7 18.3,13.3 3.4,10.6 3.3,21.4 -0.5,32 -2.9,8.1 -9.4,12.4 -17.9,12.5 -8.8,0 -15.3,-4.3 -18.5,-12.4 -2,-5.3 -2.6,-10.8 -2.5,-17 z"
   class="st1" />
	<path
   id="path54"
   d="m 1032.7,1078.3 c 0.1,-11.4 0.1,-11.4 11.7,-10.4 6.9,0.6 10.5,4.1 10.3,10.1 -0.1,6.4 -4.4,10.4 -11.2,10.5 -0.2,0 -0.3,0 -0.5,0 -10.3,0.1 -10.3,0.1 -10.3,-10.2 z"
   class="st9" />
</g><g
     transform="translate(-387.05735,-201.62604)"
     id="g74">
	<path
   id="path58"
   d="m 1635.4,924.6 c 0,71.3 0,142.7 0.1,214 0,3.4 -0.7,4.1 -4,4.1 -28.5,-0.2 -56.9,-0.2 -85.4,0 -2.9,0 -3.5,-0.6 -3.5,-3.6 0.1,-82.9 0.1,-165.9 0,-248.8 0,-3 0.6,-3.6 3.5,-3.6 13.3,0.2 26.7,0.1 40,0.1 -0.2,2.9 -3.2,1.8 -4.5,3.3 -8.3,2.8 -16.1,6.5 -22.9,12.3 -4.5,3.8 -8,8.3 -11,13.3 -2.4,3.9 -1.9,7.4 0.9,9.3 2.9,1.9 6.2,1 8.6,-3.1 5.4,-9.2 13,-15.4 23,-18.4 11.4,-3.4 22.7,-3.4 33.4,2.9 5.9,3.5 8.5,8.5 7.6,15.4 -1.2,8.6 -5.6,15.9 -10,23.1 -6.8,10.8 -15.1,20.5 -23.2,30.3 -9.2,11.2 -19.4,21.8 -23.2,36.5 -2.8,10.8 -4.3,21.7 -5.1,32.8 -0.9,12.9 -0.8,25.8 -0.9,38.8 0,1.2 0,2.3 0,3.5 0.2,4.7 2.5,7.5 6.1,7.6 3.5,0.1 5.9,-2.8 6,-7.6 0.2,-7.3 0,-14.6 0.1,-21.9 0.1,-13.4 0.9,-26.8 3,-40.1 1.8,-11.2 6.3,-21.2 13.3,-30.1 11.1,-14 23.1,-27.2 33.1,-42.1 5.2,-7.7 9.8,-15.7 11.8,-25 0.2,-1.8 0.4,-4.2 3.2,-3 z"
   class="st1" />
	<path
   id="path60"
   d="m 1635.4,924.6 c -1,0 -1.5,0.4 -1.7,1.4 -2.5,14.6 -11,26.1 -19.7,37.4 -8.1,10.6 -16.6,20.9 -25.2,31.2 -9.2,11 -13.2,23.8 -14.8,37.7 -2.1,18.3 -1.8,36.7 -1.9,55.1 0,4.2 -1.8,7.2 -5.7,8.3 -3.4,1 -6.1,-0.7 -7.9,-3.6 -0.7,-1.1 -1.1,-2.5 -1.1,-3.7 0.1,-22.5 -0.6,-45.1 3.6,-67.4 2.3,-12.4 7.1,-23.5 15.1,-33.5 11.6,-14.6 24.5,-28.2 34.4,-44.2 4,-6.5 8,-13 9.2,-20.7 1.2,-7.8 -1,-12 -7.9,-15.9 -17.5,-9.6 -42.8,-2.5 -52.7,15 -1.9,3.3 -4.1,6.3 -8.3,5.8 -5.7,-0.6 -8.1,-6.3 -4.9,-11.7 7.6,-13 18.8,-21.5 33.1,-25.9 0.8,-0.2 1.5,-0.6 2.3,-0.9 2.2,-1.3 4.9,-0.3 7.1,-1.7 3,0 6.1,0 9.1,0 2.4,0.5 4.7,0.5 7.1,0.5 7.7,1.1 14.4,4.6 20.6,8.8 6.1,4.1 9.2,10.2 9.8,17.5 0.3,3.1 -0.6,6.4 0.5,9.4 -0.1,0.4 -0.1,0.7 -0.1,1.1 z"
   class="st10" />
	<path
   id="path62"
   d="m 1634.3,913.7 c -3,-13.8 -13.3,-19.6 -25.3,-23.6 -1.4,-0.5 -2.8,-0.9 -4.2,-1.3 -0.9,-1.6 -3.8,0.9 -4,-2 10.6,0 21.2,0.1 31.8,-0.1 2.2,0 2.9,0.3 2.8,2.7 -0.2,8.1 -0.1,16.1 -0.1,24.2 -0.2,0.4 -0.6,0.5 -1,0.1 z"
   class="st11" />
	<path
   id="path64"
   d="m 1597.9,887.8 c -3.3,0 -6.6,0 -9.8,0.1 -0.6,-0.4 -0.6,-0.7 0,-1.1 3.3,0 6.6,0 9.9,0 0.3,0.2 0.4,0.5 0.3,0.7 -0.2,0.2 -0.3,0.3 -0.4,0.3 z"
   class="st12" />
	<path
   id="path66"
   d="m 1634.3,913.7 c 0.4,0 0.7,0 1.1,-0.1 0,3.3 0,6.6 0,10 -2.3,-3.1 -0.5,-6.7 -1.1,-9.9 z"
   class="st12" />
	<path
   id="path68"
   d="m 1597.9,887.8 c 0,-0.4 0,-0.7 0,-1.1 1,0 2,0 3,0 0.9,1.6 3.2,0.4 4,2 -2.5,0.2 -4.8,0 -7,-0.9 z"
   class="st13" />
	<path
   id="path70"
   d="m 1588,886.7 c 0,0.4 0,0.7 0,1.1 -2.2,1 -4.6,0.9 -6.9,1.1 1,-2.2 3.8,-0.3 4.9,-2.2 0.7,0 1.3,0 2,0 z"
   class="st14" />
	<path
   id="path72"
   d="m 1575.2,1127.4 c 0,1 0.1,2.2 0,3.3 -0.9,6.2 -6.3,10.7 -11.5,9.7 -4.8,-0.9 -8.4,-7.9 -7,-13.6 0.9,-3.9 8.8,-8.9 12.8,-8.2 4.7,1 6.6,3.9 5.7,8.8 z"
   class="st15" />
</g><g
     transform="translate(-387.05735,-201.62604)"
     id="g96">
	<path
   id="path76"
   d="m 1397.8,885.7 c 40.4,0 80.8,0 121.1,-0.1 3,0 3.6,0.6 3.6,3.6 -0.1,84.3 -0.1,168.6 0,252.9 0,3 -0.6,3.6 -3.6,3.6 -130.3,-0.1 -260.6,-0.1 -390.8,0 -3,0 -3.6,-0.6 -3.6,-3.6 0.1,-84.3 0.1,-168.6 0,-252.9 0,-3.7 1.4,-3.5 4.1,-3.5 87.4,0.1 174.8,0 262.2,0 0.3,0.6 0.3,1.2 -0.2,1.7 -1,1.2 -2.5,1.6 -3.9,2.1 -7.1,2.7 -8.5,4.5 -8.4,12.2 0.2,12.4 -0.4,24.8 -0.3,37.2 0.5,50 0.4,100.1 0,150.1 -0.1,11.7 -0.3,23.5 -1.6,35.2 -0.3,3 -0.3,6 0,8.9 0.3,3.3 1.7,6.1 5.3,6.1 3.5,0 5.2,-2.6 5.3,-6 0.1,-3.7 0.6,-7.3 1.5,-10.8 1.2,-8.2 1.4,-16.4 1.6,-24.6 0.5,-19.8 0.1,-39.6 0.2,-59.4 0,-2.4 -0.5,-5 1.2,-7.1 3,-0.4 2.8,2.3 3.4,3.8 2.8,7.3 3.7,15.1 5.1,22.8 3.2,18.1 4.6,36.5 8,54.6 1.3,7 2.6,14 4.8,20.8 0.8,2.4 1.8,4.7 3.8,6.3 1.7,1.3 3.6,1.7 5.6,0.8 2.1,-1 2.7,-2.8 2.7,-4.9 0,-1.2 -0.2,-2.3 -0.7,-3.4 -6.2,-15.7 -6.5,-32.4 -9,-48.8 -2.5,-16.1 -4.4,-32.2 -7.9,-48.1 -1,-4.6 -3,-8.8 -4.8,-13.1 -1.1,-2.6 -1.6,-5.2 0.8,-7.3 9.8,-8.7 14.2,-20.3 17.1,-32.5 5.6,-24 5.5,-48 -2.2,-71.6 -3.2,-9.9 -8.4,-18 -18.7,-21.8 -0.8,-0.3 -1.4,-0.9 -1.9,-1.5 -0.2,-0.6 -0.1,-1.2 0.2,-1.7 z"
   class="st1" />
	<path
   id="path78"
   d="m 1397.8,885.7 c 0,0.4 0,0.7 0,1.1 -2.3,1.6 -4.6,1.6 -6.9,0 0,-0.4 0,-0.8 -0.1,-1.2 2.3,0.1 4.7,0.1 7,0.1 z"
   class="st16" />
	<path
   id="path80"
   d="m 1352.9,1022.8 c -0.7,31 -1.3,58.1 -7.1,84.9 -1.4,6.3 -3.3,12.5 -6,18.4 -2.6,5.6 -6.9,9.7 -12.3,12.5 -8.1,4.2 -15.9,3 -22.3,-3.4 -6.9,-6.9 -10.4,-15.7 -12.7,-24.9 -5.8,-23.1 -7.3,-46.8 -7.7,-70.5 -0.7,-38.9 0.9,-77.6 9.1,-115.7 1.8,-8.4 3.6,-16.9 7.8,-24.5 5.5,-9.8 12.8,-12.4 23.4,-8.4 8.3,3.1 13,9.5 16.1,17.3 4.2,10.6 5,21.9 6.5,33 4.1,28.1 5.3,56.5 5.2,81.3 z" />
	<path
   id="path82"
   d="m 1390.9,886.9 c 2.3,0 4.6,0 6.9,0 10.3,2.2 16.1,9.3 20.1,18.3 6.8,15.6 8.1,32 7.9,48.7 -0.2,15.4 -2.9,30.3 -9,44.5 -2.9,6.7 -6.3,13.2 -12.6,17.5 -1.5,1 -1.9,2.1 -1,3.7 8.8,17.3 9.5,36.4 12.5,55 2.4,14.5 4.2,29.2 6.3,43.7 0.7,4.6 2.1,9 4,13.3 2.3,5.2 1.3,8.6 -3,10.4 -3.9,1.6 -7.9,-0.2 -9.9,-4.9 -4.1,-9.9 -5.7,-20.4 -7.4,-30.8 -3.7,-22.2 -5.2,-44.8 -10.5,-66.7 -0.7,-2.8 -1.6,-5.6 -2.4,-8.4 -2.6,0.8 -1.3,3 -1.3,4.5 -0.1,21 0.4,42 -0.3,63 -0.3,8 -0.1,16.1 -1.2,24 -0.3,3.6 -0.8,7.3 -1,10.9 -0.3,5.1 -2.7,7.8 -7,7.8 -4.1,0 -7.5,-3.7 -7.4,-8.4 0.2,-5.6 0.9,-11.2 1.1,-16.9 2.5,-54.7 0.9,-109.5 1,-164.2 0,-16.9 -0.3,-33.8 0.3,-50.7 0.4,-9.2 1.6,-10.9 10.6,-13.4 1,-0.3 2.1,-0.6 3.3,-0.9 z" />
	<path
   id="path84"
   d="m 1482.9,992.2 c 2.5,-10.1 5.1,-20.1 7.6,-30.2 5.2,-20.7 10.5,-41.4 15.7,-62.2 0.2,-0.8 0.3,-1.6 0.6,-2.4 1.5,-4.3 5.3,-6.7 8.7,-5.6 3.8,1.2 6.1,5.3 5.1,9.5 -2.7,11.3 -5.6,22.5 -8.4,33.8 -7.5,30 -14.9,60.1 -22.4,90.1 -0.5,1.9 -0.6,3.9 -0.7,5.9 -1.3,34.1 -2.4,68.3 -2.9,102.5 -0.1,5.5 -2.6,8.3 -7.1,8.3 -4.7,0 -7.2,-3.1 -7.2,-8.8 0.4,-32.8 1,-65.7 2.8,-98.5 0.5,-9.6 -2.8,-18.2 -4.5,-27.3 -5.9,-32.1 -10.8,-64.4 -16,-96.6 -0.5,-2.9 -1,-5.9 -1.6,-8.8 -1,-5.3 0.8,-9 4.9,-9.9 4.3,-1 8.2,1.7 9.2,6.9 1.5,7.6 2.5,15.4 3.7,23.1 3.7,23.4 7.4,46.8 11.1,70.2 0.6,0.1 1,0.1 1.4,0 z" />
	<path
   id="path86"
   d="m 1179.5,1080.6 c -0.4,-15 -2.8,-29.7 -6.6,-44.2 -2.8,-10.5 -8.6,-18.5 -17.8,-24.2 -1,-0.6 -1.9,-1.3 -2.9,-1.9 -21.8,-12.2 -26.8,-32.4 -26.1,-55.2 0.4,-13.7 3.5,-27 8.7,-39.6 3.5,-8.6 8.8,-16 16.7,-21.2 11.8,-7.8 24.8,-5.8 33.8,5.1 2.5,3.1 4.5,6.6 6,10.3 2.5,5.7 1.8,8.7 -2.3,10.5 -4.3,1.9 -9.2,-0.4 -11.4,-5.1 -1,-2.3 -1.9,-4.6 -3.3,-6.7 -3.5,-5.3 -7.7,-6.2 -13.2,-3 -4.5,2.6 -7.7,6.3 -10.1,10.8 -9.9,19.1 -12.8,39.2 -8.6,60.3 1.5,7.6 5.2,14.3 12.1,18 26.1,13.7 34.9,37.3 37.3,64.5 1.5,17.2 2.4,34.5 -2.1,51.5 -2.2,8.3 -5.9,15.8 -12,22 -13.1,13.4 -28.7,12.9 -40.7,-1.5 -6.3,-7.6 -9,-16.5 -8.8,-26.3 0.1,-5.3 2.6,-8.1 6.8,-8 4.3,0 7.5,3.2 7.7,8.1 0.3,7.6 2.3,14.4 7.9,19.8 4.2,4 7.6,4.4 12.4,1 8.5,-5.8 12.4,-14.5 14.5,-24.1 1.6,-6.9 2,-13.9 2,-20.9 z" />
	<path
   id="path88"
   d="m 1249.8,1021.1 c -3.1,35 -1.8,70 -2.2,105 0,3 0,6 -0.3,9 -0.4,3.9 -2.5,6.6 -6.6,6.8 -4.3,0.2 -6.8,-2.3 -7.7,-6.4 -0.3,-1.6 0,-3.3 0,-5 0,-58.2 2.2,-116.4 2.9,-174.7 0.2,-15.6 -0.4,-31.2 -0.4,-46.8 0,-3 -0.7,-4 -3.9,-3.9 -4.6,0.2 -9.3,0 -13.9,-0.2 -4.4,-0.2 -7.5,-3.5 -7.2,-7.3 0.4,-4.3 3,-6.8 7.3,-6.5 16.6,0.9 33.2,-1.1 49.8,-0.5 5,0.2 8,2.7 8,6.9 0.1,4.2 -2.8,6.8 -7.9,6.9 -4.6,0.2 -9.3,0.4 -14,0.3 -3.3,-0.1 -4.2,0.9 -4.1,4.3 0.7,25 0.7,50.1 0.2,75.1 -0.2,12.4 0,24.7 0,37 z" />
	<path
   id="path90"
   d="m 1389.8,1122.7 c 0.5,-21.3 1,-42.6 1.4,-63.9 0.2,-8.8 0,-17.5 0,-26.3 0,-0.9 -0.8,-2.5 1.1,-2.6 0.1,0 0.3,0.8 0.4,1.2 -1.2,1.7 -0.6,3.5 -0.6,5.3 -0.1,20.9 0.1,41.8 -0.5,62.7 -0.2,7.8 0.2,15.8 -1.8,23.6 z"
   class="st17" />
	<path
   id="path92"
   d="m 1299,1022.3 c 0.6,-31.2 2,-64.1 9.1,-96.5 1.5,-6.7 3.3,-13.2 6.2,-19.4 1.6,-3.5 3.8,-3.7 6.8,-2 4.7,2.7 6.6,7.3 8.1,12.1 2.8,9.3 3.1,18.9 4.3,28.4 5.7,42.8 6.2,85.6 2.6,128.5 -1.2,13.7 -3.2,27.3 -6.9,40.6 -0.9,3.4 -2.2,6.6 -4.6,9.2 -4.2,4.5 -7.9,4.3 -11.3,-0.8 -5.4,-8 -7.6,-17.2 -9.2,-26.5 -4.2,-23.7 -5,-47.7 -5.1,-73.6 z"
   class="st1" />
	<path
   id="path94"
   d="m 1391.2,953.4 c 0,-16.1 0,-32.2 0,-48.3 0,-4.7 1.5,-5.6 5.8,-3.6 2.9,1.3 4.6,3.7 6,6.4 8.1,14.7 9,30.7 8.4,46.9 -0.4,13.8 -2.7,27.4 -8.6,40 -1.8,3.8 -3.8,7.4 -7.5,9.7 -1.1,0.7 -2.4,1.6 -3.7,1.1 -1.7,-0.7 -0.7,-2.3 -0.7,-3.5 -0.1,-16.2 0,-32.5 0,-48.7 0.1,0 0.2,0 0.3,0 z"
   class="st1" />
</g></g><g
   id="g1213"
   transform="translate(14.395709)"><g
     transform="translate(-387.05735,-201.62604)"
     id="g145">
	<path
   id="path129"
   d="m 1533.4,507 c 0,18.9 -0.1,37.7 0.1,56.6 0,2.5 -0.6,3 -3,3 -52.3,-0.1 -104.6,-0.1 -156.9,0 -2.5,0 -3,-0.6 -3,-3 0.1,-50.6 0.1,-101.3 0,-151.9 0,-2.5 0.6,-3 3,-3 52.3,0.1 104.6,0.1 156.9,0 2.5,0 3.1,0.6 3,3 -0.1,30.8 -0.1,61.6 -0.1,92.3 -0.9,0.3 -1.6,-0.1 -2.3,-0.6 -3.2,-2.4 -5.5,-1.1 -7.3,1.9 -1.8,2.8 -3.4,5.7 -5.2,8.4 -11.7,17.7 -28.2,23.8 -48.8,21 -10.3,-1.4 -20.5,-3.8 -31,-3.6 -20.3,0.3 -35.7,9.3 -47.5,25.4 -0.2,0.3 -0.4,0.5 -0.6,0.8 -1,1.8 -2,3.7 0,5.4 2.1,1.8 4.1,0.8 5.7,-0.9 3.4,-3.6 6.4,-7.5 10.1,-10.9 12,-11.1 26.4,-13.8 42,-11.8 10.5,1.4 20.8,3.3 31.5,3.5 17.3,0.3 30.6,-6.9 41.2,-20.1 3,-3.7 5.6,-7.7 8.2,-11.8 0.8,-1.6 1.5,-3.8 4,-3.7 z"
   class="st1" />
	<path
   id="path131"
   d="m 1533.4,507 c -3.4,5 -6.6,10.2 -10.3,15 -11.3,15.1 -26.2,22.7 -45.3,21.9 -8.1,-0.4 -16.1,-1.4 -24.1,-2.7 -6.7,-1.1 -13.4,-1.8 -20.2,-1.1 -14.5,1.4 -25.3,8.9 -34,20 -0.8,1 -1.6,2.1 -2.4,3.2 -2,2.5 -4.6,2.7 -7,0.9 -2.6,-1.8 -2.9,-4.3 -1,-6.9 11.8,-16.5 27,-26.8 48,-27.5 10.9,-0.4 21.3,2.2 32,3.4 25.6,2.9 39.3,-3.8 52.1,-26.2 0.4,-0.7 0.8,-1.4 1.2,-2.2 3.4,-6 6.9,-6.3 11.1,-0.9 -0.1,1.1 -0.1,2.1 -0.1,3.1 z" />
	<path
   id="path133"
   d="m 1455,445.8 c -11.5,-0.1 -21.4,-2.9 -31.5,-4.7 -9.7,-1.7 -17.9,1.1 -25.2,7.4 -6.1,5.2 -10.9,11.5 -15.1,18.3 -2.1,3.4 -4.8,4.9 -8.2,2.8 -3.6,-2.2 -2.3,-5.2 -0.3,-8.1 4.6,-7.1 9.7,-13.8 15.8,-19.6 11.2,-10.5 24.3,-13.4 39,-9.8 14.6,3.6 29.1,6 43.8,0.5 10.7,-4 19.9,-10.2 28.7,-17.3 1.4,-1.2 2.8,-2.3 4.2,-3.5 2.4,-2.3 4.9,-2.8 7.4,-0.2 2.6,2.7 1.9,5.4 -0.6,7.7 -9.4,8.4 -19.5,15.8 -31.2,20.8 -8.9,3.7 -18.3,5.5 -26.8,5.7 z" />
	<path
   id="path135"
   d="m 1431.1,497 c 0,5.9 0,11.9 0,17.8 0,3.8 -1.3,6.9 -5.4,6.8 -3.8,-0.1 -4.8,-3.2 -4.7,-6.8 0.1,-5.8 -0.1,-11.6 -0.2,-17.4 0,-2.1 0.4,-3.5 -3.1,-2.8 -9.2,2 -7.3,1.2 -7,9.5 0.2,5.6 0.6,11.2 0.9,16.8 0.2,3.4 -1.6,5.5 -4.8,5.7 -3.1,0.2 -5,-1.9 -5.1,-4.9 -0.6,-17.1 -3.1,-34.3 -0.4,-51.5 0.9,-5.9 2.3,-11.7 5.8,-16.7 2.5,-3.6 5.7,-6.2 10.3,-5.7 4.3,0.5 6.3,4 7.7,7.6 4.9,12.4 5,25.5 5.8,38.5 0.1,1 0,2 0,3 0,0.1 0.1,0.1 0.2,0.1 z" />
	<path
   id="path137"
   d="m 1448,479.1 c -0.2,11.2 0.4,21.8 1,32.5 0.1,1.6 0.2,3.4 -0.3,4.9 -0.8,2.4 -2.6,3.8 -5.3,3.4 -2.4,-0.3 -3.9,-1.8 -4.1,-4.2 -1.1,-15.8 -1.9,-31.7 -0.9,-47.6 0.2,-3.8 0.9,-8.6 5.6,-9.5 4.7,-0.9 6.8,3.2 8.8,6.6 1.1,1.8 1.6,3.9 3.8,5.6 0.2,-5.6 1,-10.5 3,-15.2 1.3,-3 3.4,-5 6.4,-3.7 3.3,1.3 4.5,4 2.8,7.7 -3.4,7.2 -2.9,14.8 -1.7,22.4 1.4,9.3 3.1,18.6 4.6,27.9 0.3,1.9 0.5,4 0.4,5.9 -0.2,3 -1.9,5.1 -5,5.1 -3.1,0 -4.9,-1.8 -5,-5 -0.3,-11.6 -5.1,-21.7 -10.3,-31.8 -0.8,-1.8 -2,-3.3 -3.8,-5 z" />
	<path
   id="path139"
   d="m 1478.8,493.9 c -0.2,-9.2 -1.4,-19.1 -2.7,-28.9 -0.9,-7.3 -0.5,-8.3 8.2,-13.1 4.5,-2.5 8.6,-1.4 12.4,1.6 2.9,2.3 5,5.3 6.5,8.6 5.6,11.9 8,24.4 7,37.6 -0.4,5 -1.9,9.7 -4.5,14.1 -2.9,4.9 -7.2,7.6 -12.9,8.2 -7,0.6 -10.6,-1.8 -12.4,-8.6 -1.5,-6.2 -1.9,-12.5 -1.6,-19.5 z" />
	<path
   id="path141"
   d="m 1415.4,458.3 c 3.2,7.9 3.6,15.2 4.6,22.4 0.3,2.2 -0.6,3.4 -2.8,3.8 -2.2,0.5 -4.4,1 -7.1,1.6 0.4,-9.4 0.6,-18.4 5.3,-27.8 z"
   class="st22" />
	<path
   id="path143"
   d="m 1488.9,490.8 c -0.7,-7.4 -1.5,-16.3 -2.3,-25.1 -0.2,-1.9 -0.6,-3.5 1.7,-4.5 2.5,-1 3.3,1 4.1,2.4 7.5,12.8 9.5,26.6 6.4,41.1 -0.3,1.4 -1.1,2.7 -1.9,4 -1.2,1.9 -3.2,3.4 -5.3,3 -2.6,-0.4 -1.9,-3.2 -2.1,-5 -0.5,-4.8 -1.3,-9.6 -0.6,-15.9 z"
   class="st23" />
</g><g
     transform="translate(-387.05735,-201.62604)"
     id="_WIERD">
	<g
   class="st24 st25 st26"
   style="font-size:182.12px;font-family:ChelseaMarket-Regular;fill:#fdc700"
   id="text147"
   transform="translate(715.37,560)"
   aria-label="WEIRD"><path
     id="path124"
     style="font-style:normal;font-variant:normal;font-weight:normal;font-stretch:normal;font-family:'Chelsea Market';-inkscape-font-specification:'Chelsea Market'"
     d="m 163.26773,-127.51957 q -0.3557,1.42282 -1.06711,2.84563 -0.53355,1.42281 -1.06711,2.66777 -0.53355,1.42281 -1.06711,2.66777 -0.3557,1.24497 -1.06711,2.66778 -0.17785,1.95637 -0.7114,4.09058 -0.53356,1.95637 -1.06711,4.09059 -0.35571,1.42281 -0.71141,1.77852 -0.17785,0.3557 -0.17785,0.7114 -0.3557,1.60067 -0.3557,3.02348 0,1.24496 -0.53356,2.66777 -0.53355,0.889259 -0.53355,1.422814 0,0.533555 -0.17785,0.889258 -0.35571,1.422812 -0.53356,2.31207 -0.17785,0.533555 -0.17785,1.422812 0,0.711407 -0.17785,1.244961 -0.53356,0.889258 -0.53356,1.244961 0,0.355703 -0.17785,0.711406 -0.53355,0.889258 -0.53355,1.422813 0,0.355703 0,0.711406 -0.53356,0.889258 -0.53356,1.422813 0,0.355703 -0.17785,0.711406 -0.88926,1.422812 -1.06711,2.134219 0,0.711406 -0.17785,1.24496 -0.3557,1.956368 -0.71141,4.446289 -0.3557,2.489922 -1.06711,4.624141 -0.3557,0.889258 -0.7114,1.422812 -0.17785,0.533555 -0.53356,1.06711 -0.3557,0.533554 -0.7114,2.134218 -0.17785,1.600664 -0.53356,2.667774 -0.17785,0.889258 -0.3557,1.778515 -0.17785,0.889258 -0.53356,2.134219 -0.3557,1.422812 -0.7114,1.600664 -0.17785,0.177852 -0.17785,0.533555 -0.35571,1.422812 -0.53356,2.667773 0,1.244961 -0.3557,2.489922 -0.71141,1.244961 -0.71141,1.956367 0.17785,0.533555 0,0.889258 -0.7114,1.956367 -1.06711,3.201328 -0.17785,1.244961 -0.53355,2.31207 -0.53356,1.422813 -0.53356,2.31207 0,0.711407 0,1.422813 -0.17785,0.889258 -0.53355,1.956367 -0.3557,1.067109 -0.71141,1.956367 -0.17785,1.067109 -0.3557,2.134219 0,0.889258 -0.3557,1.956367 -0.35571,1.422812 -0.88926,2.667773 -0.3557,1.06711 -0.88926,2.489922 -0.53355,1.600664 -0.53355,2.31207 0,0.711407 0,1.244961 -1.06711,3.201328 -1.60067,5.69125 -0.3557,2.31207 -1.24496,4.801992 0.3557,0.711406 0.3557,1.600664 0,0.711406 0.35571,1.422813 -0.17785,0.533554 -0.53356,1.067109 -0.3557,0.533555 -0.7114,1.244961 -0.17785,0.711406 -0.35571,1.4228123 0,0.5335547 -0.3557,1.2449609 -0.53355,1.0671094 -1.24496,2.1342187 -0.71141,0.8892578 -0.88926,2.3120703 -0.3557,0.8892578 -0.88926,1.2449609 -0.3557,0.1778515 -0.53355,0.8892578 -0.3557,0.8892578 -0.3557,1.9563671 0.17785,1.0671093 0,1.600664 -1.06711,1.4228125 -1.42282,2.3120703 -0.17785,1.0671093 -1.60066,1.4228124 -1.24496,0.5335547 -2.31207,-0.1778515 -0.88926,-0.5335547 -1.77852,-1.600664 Q 120.58336,2.4899218 119.87195,1.2449609 119.16054,0 118.62699,-0.71140623 q -1.60067,-1.24496087 -2.48992,-2.84562497 -0.88926,-1.7785155 -2.13422,-3.3791796 -0.71141,-0.8892577 -1.24496,-1.600664 -0.53356,-0.8892578 -0.88926,-1.6006642 -1.06711,-1.422812 -1.42281,-2.31207 -0.88926,-1.067109 -1.77852,-2.489922 -0.7114,-1.600664 -1.42281,-3.023476 -1.95637,-1.956367 -3.37918,-4.446289 -1.24496,-2.489922 -2.66777,-5.157695 -0.53356,-1.422813 -0.88926,-1.600664 -0.355705,-0.355704 -0.533556,-0.711407 -0.533555,-0.889257 -0.889258,-1.778515 -0.355703,-1.06711 -1.067109,-1.956367 -0.711406,-1.600664 -1.244961,-2.312071 -0.533555,-0.711406 -0.889258,-1.067109 0.177852,-1.067109 -0.533555,-1.600664 -0.711406,-0.533555 -1.067109,-1.067109 -0.355703,-1.956368 -1.067109,-2.845625 -0.533555,-0.889258 -0.889258,-1.600664 -0.177852,-0.533555 -0.177852,-1.06711 0,-0.711406 -0.355703,-1.244961 -0.355703,-0.889257 -0.711406,-1.600664 -0.177852,-0.889257 -0.533555,-1.778515 -0.355703,-0.889258 -0.889257,-1.600664 -0.355704,-0.889258 -0.533555,-1.422813 0,-1.422812 -0.355703,-1.600664 -0.177852,-0.177851 -0.177852,-0.355703 -0.533554,-3.557031 -1.778515,-6.224804 0,-0.889258 -0.533555,-1.244961 -0.355703,-0.533555 -0.533555,-1.06711 -0.177851,-0.355703 -0.177851,-1.067109 0.177851,-0.711406 0,-1.067109 -0.889258,-1.422813 -0.889258,-1.778516 0.177851,-0.533554 0,-0.889258 -0.177852,-0.355703 -0.533555,-0.889257 -0.355703,-0.533555 -0.533554,-1.244961 -0.533555,-1.778516 -1.06711,-3.37918 -0.355703,-1.778515 -1.067109,-3.379179 0.177851,-1.422813 0.177851,-2.134219 0,-0.889258 -0.711406,-1.778516 -1.244961,0.355703 -1.422812,1.600664 -0.177852,1.244961 -0.533555,2.312071 -0.355703,0.889257 -0.711406,1.956367 -0.177852,1.067109 -0.533555,1.956367 -0.533555,1.600664 -1.244961,3.023476 -0.711406,1.244961 -1.422812,2.667774 -0.889258,1.956367 -1.06711,3.201328 -0.177851,1.244961 -0.533554,1.956367 -0.355703,0.889258 -1.244961,1.956367 -0.711406,0.889258 -1.067109,1.778516 -0.889258,1.422812 -1.422813,2.845624 -0.533555,1.244961 -1.422812,2.667774 -0.889258,1.244961 -1.956368,2.489922 -0.889257,1.067109 -1.422812,2.489921 -0.533555,1.06711 -0.889258,2.312071 -0.177851,1.067109 -0.533554,2.134218 -0.355704,0.711407 -0.711407,1.778516 -0.177851,0.889258 -0.533554,1.778516 -0.889258,2.134218 -1.600664,3.912734 -0.711407,1.600664 -2.312071,3.023476 -0.355703,1.422813 -0.533554,1.778516 -0.177852,0.355703 -0.355703,0.533555 0,0.889257 -0.533555,1.422812 -0.355703,0.355703 -0.533555,0.533555 -0.355703,0.533554 -0.533554,1.067109 -0.177852,0.533555 -0.533555,1.422812 -0.889258,0.711407 -0.889258,1.244961 0.177852,0.355703 -0.355703,0.889258 -1.244961,1.600664 -1.600664,2.489922 -0.355703,0.711406 -1.067109,1.600664 -0.889258,1.067109 -1.244961,1.600664 -0.177852,0.355703 -0.533555,0.711406 -0.355703,0.355703 -0.533555,1.06711 -0.177851,0.711406 -0.533554,1.24496 -0.355703,0.889258 -0.889258,1.422813 -0.355703,0.355703 -0.711406,1.244961 -0.711407,1.600664 -1.244961,3.0234763 -0.533555,1.4228125 -0.533555,3.0234765 -0.355703,0.3557031 -0.711406,0.8892578 -0.177852,0.5335547 -0.711406,0.8892578 -0.355703,0.8892578 0,1.0671093 0.533554,0.1778516 0.533554,1.0671094 -1.244961,0.8892578 -1.244961,2.66777334 0,1.77851556 -0.711406,3.37917956 Q 41.08371,4.4462889 40.905858,4.9798436 40.728007,5.5133983 40.194452,5.8691014 39.483046,6.4026561 38.593788,6.5805076 37.70453,6.7583592 36.815272,5.8691014 35.748163,4.6241405 35.39246,3.9127343 35.214608,3.201328 34.858905,2.6677734 34.681054,2.3120703 34.325351,1.7785156 33.969648,1.2449609 33.791796,0.88925779 33.436093,0.17785156 33.436093,-0.53355467 33.613944,-1.4228125 33.258241,-2.1342187 32.902538,-3.0234765 32.546835,-3.9127343 32.368984,-4.9798436 32.01328,-5.8691014 q -0.533554,-1.9563671 -0.711406,-2.4899218 -0.177851,-0.7114062 -0.177851,-1.2449609 -0.177852,-0.5335549 -0.533555,-0.8892579 -0.177852,-0.533555 -0.533555,-1.244961 0,-1.778515 0.355703,-2.134219 -0.355703,-1.422812 -0.711406,-1.956367 -0.177851,-0.533554 -0.355703,-0.889257 -0.177852,-0.355704 -0.177852,-0.889258 0.177852,-0.533555 0,-1.06711 -1.24496,-3.557031 -0.533554,-4.268437 -0.177852,-0.533555 -0.533555,-1.067109 -0.355703,-0.533555 -0.533555,-1.244961 -0.355703,-0.711406 -0.177851,-1.600664 0.177851,-0.889258 -0.711406,-1.244961 0.355703,-1.422813 -0.711407,-2.845625 -0.889257,-1.422813 -1.24496,-2.845625 -0.355704,-1.067109 -0.355704,-2.134219 0,-1.067109 -0.177851,-2.134218 -0.177852,-0.533555 -0.533555,-1.956367 -0.177851,-0.711407 -0.177851,-2.134219 -0.355703,-0.889258 -0.889258,-1.778516 -0.533555,-0.889258 -0.177852,-1.778515 0,-0.177852 -0.711406,-1.06711 -0.711406,-1.067109 0.177852,-1.600664 -0.711407,-0.889257 -1.06711,-1.778515 -0.355703,-0.889258 -0.711406,-1.778516 -0.177852,-0.533555 0,-1.067109 0.177852,-0.533555 -0.177852,-1.244961 -0.889257,-2.31207 -1.067109,-3.912734 -0.177851,-1.600664 -0.355703,-3.201328 -0.177852,-0.711407 -0.355703,-1.244961 0,-0.533555 -0.177852,-1.244961 -0.177851,-0.889258 -0.177851,-1.600664 0.177851,-0.889258 0,-1.600664 -0.533555,-1.06711 -0.711406,-1.422813 0,-0.533554 -0.177852,-0.889258 -0.177852,-0.533554 -0.533555,-1.067109 -0.177851,-0.533555 -0.177851,-1.244961 -0.355703,-0.889258 -0.177852,-1.600664 0.177852,-0.889258 -0.177851,-1.600664 -0.355703,-2.31207 -0.889258,-3.557031 -0.355703,-1.422812 -0.711406,-2.845625 -0.355703,-1.422812 -0.533555,-1.600664 -0.177852,-0.355703 -0.177852,-0.711406 0,-1.244961 -0.355703,-1.422813 -0.177851,-0.355703 -0.177851,-0.711406 0,-1.422812 -0.177852,-1.778515 0,-0.355704 0,-0.711407 -0.355703,-1.244961 -0.711406,-2.134218 -0.355703,-0.889258 -0.889258,-2.312071 -0.177851,-0.889257 -0.355703,-1.600664 0,-0.889257 -0.355703,-1.778515 -0.355703,-0.355703 -0.8892579,-0.889258 -0.3557031,-0.533555 -0.5335547,-1.067109 -0.3557031,-0.533555 -0.3557031,-1.422813 0,-0.889259 -0.1778515,-1.422809 -0.1778516,-0.71141 -0.3557031,-1.42282 -0.1778516,-0.7114 -0.7114063,-1.06711 -0.3557031,-1.95636 -0.8892578,-3.55703 -0.3557031,-1.60066 -1.2449609,-2.48992 -0.1778515,-1.60066 -0.8892578,-2.66777 -0.5335546,-1.06711 -1.2449609,-2.31207 -0.3557031,-1.24496 -0.7114062,-1.60067 -0.1778515,-0.3557 -0.3557031,-0.7114 -0.3557031,-0.3557 -0.7114062,-0.88926 -0.1778516,-0.71141 -0.3557032,-1.24496 -0.35570307,-0.53356 -0.35570307,-1.06711 0,-0.53355 -0.17785156,-1.24496 Q 0.35570312,-121.47261 0,-122.00617 q -0.17785156,-0.53355 -0.35570312,-0.88926 -0.17785155,-0.53355 -0.17785155,-1.06711 0,-0.53355 -0.35570312,-1.42281 -0.35570311,-0.88926 -0.71140621,-1.60066 -0.3557031,-0.71141 0,-2.13422 -0.7114063,-1.06711 -1.4228125,-3.20133 -0.3557031,-1.95637 -0.1778515,-2.48992 0,-0.71141 -0.3557032,-1.06711 1.4228125,-0.17785 3.02347653,-0.53355 1.60066397,-0.35571 3.02347647,-0.17786 1.2449609,0.53356 2.1342187,0.53356 h 0.8892578 q 0.7114062,0 1.2449609,-0.3557 0.5335547,-0.35571 1.4228125,-0.35571 4.4462893,0.17785 8.3590233,-0.17785 3.912734,-0.3557 6.936211,-0.71141 0.711406,0 2.134218,1.06711 1.422813,0.88926 1.778516,1.60067 0.533555,1.24496 0.355703,3.20133 -0.177852,1.95636 0.355703,3.55703 0.355703,1.06711 0.533555,2.66777 0.355703,1.42281 0.711406,2.84563 0.355703,0.88925 0.533555,1.60066 0.177851,0.71141 0.533554,2.13422 0.177852,0.88926 0,1.24496 -0.177851,0.3557 0.177852,1.24496 0.533555,0.88926 0.355703,1.60066 0,0.53356 0.177852,0.88926 0.355703,1.24496 0.889257,2.13422 0.533555,0.88926 0.711407,2.13422 0.355703,0.88926 0.177851,1.95637 -0.177851,0.88925 0.177852,1.77851 0.355703,1.95637 1.244961,4.09059 0.889257,2.134216 0.177851,4.446286 0.711406,1.244961 0.711406,2.312071 0.177852,1.067109 0.533555,1.956367 0.177852,0.533554 0.355703,1.067109 0.355703,0.355703 0.533555,0.889258 0.177851,0.533555 0,1.244961 0,0.533554 0.177851,1.067109 0.533555,1.956367 1.422813,4.268438 0.177851,0.355703 0.177851,0.889257 0,0.533555 0.355704,1.06711 0.711406,1.956367 0.711406,3.201328 0,1.067109 0.177851,1.956367 0.177852,0.533555 0.533555,1.067109 0.355703,0.533555 -0.177852,1.244961 0.889258,0.889258 1.06711,1.956367 0.355703,1.06711 0.889258,2.489922 0.533554,1.244961 0.711406,2.667773 0.355703,1.244961 0.711406,2.312071 0.177852,0.711406 0.533555,1.600664 0.355703,0.711406 0.533554,1.422812 0.177852,0.889258 0.177852,1.778516 0,0.711406 0.355703,1.600664 0.711406,1.956367 1.067109,2.845625 0.533555,0.889257 0.889258,1.422812 0.889258,-1.956367 1.06711,-2.489922 0.355703,-0.533554 0.711406,-1.067109 0.177851,-0.355703 0.177851,-0.889258 0.177852,-0.711406 0.533555,-1.067109 0.177852,-0.533555 0.177852,-1.06711 0,-0.533554 0.177851,-0.889257 0.889258,-0.889258 0.889258,-1.422813 0.177852,-0.533554 0.355703,-0.889258 0.355703,-0.889257 0.711406,-2.134218 0.355703,-1.244961 0.711407,-2.667774 0.355703,-0.889257 0.711406,-1.600664 0.355703,-0.889257 0.889258,-1.956367 1.067109,-1.422812 1.778515,-2.845625 0.533555,-0.889257 1.067109,-1.956367 0.533555,-1.067109 1.422813,-1.956367 0.177851,-1.422812 0.533555,-2.31207 0.533554,-0.889258 1.067109,-1.956367 0.711406,-0.889258 0.889258,-1.600664 0.355703,-0.711407 1.244961,-0.889258 0,-0.889258 0.355703,-1.600664 0.355703,-0.711406 0.711406,-1.422813 0.711406,-1.422812 1.422812,-2.667773 0.711407,-1.244961 1.600664,-2.845625 0.889258,-1.422812 1.06711,-1.956367 0.355703,-0.711406 0.711406,-1.244961 0.711406,-0.889258 0.711406,-1.244961 0,-0.355706 0.177852,-0.711406 0.355703,-0.71141 0.533555,-1.24496 0.177851,-0.53356 0.533554,-1.42281 0.355703,-0.88926 0.533555,-1.60067 0.177851,-0.7114 0.533555,-1.60066 0.355703,-0.53356 0.711406,-1.06711 0.533554,-0.53356 0.889258,-1.24496 0.355703,-0.71141 0.355703,-1.42281 0,-0.88926 0.355703,-1.77852 0.177851,-0.71141 0.355703,-1.24496 0.355703,-0.71141 0.533555,-1.42281 0.177851,-0.71141 0,-1.42282 0,-0.88925 0.355703,-1.77851 0.177851,-0.71141 0.355703,-1.24496 0.355703,-0.71141 0.533554,-1.42281 0.355704,-1.42282 0.533555,-2.84563 0.355703,-1.60066 0.711406,-3.20133 0.355703,-1.42281 0.711407,-2.66777 0.355703,-1.42281 1.422812,-2.31207 1.244961,-0.53356 2.489922,-0.17785 1.422812,0.3557 2.31207,0.7114 0.533555,0.53356 0.711406,1.42282 0.355703,0.88925 1.244961,1.06711 -0.355703,0.7114 -0.177851,1.42281 0.355703,0.53355 0.711406,1.24496 0.177851,0.7114 0.355703,1.42281 0.355703,0.53356 0.711406,1.06711 0.889258,1.42281 1.244961,2.84563 0.355703,1.24496 1.422813,1.77851 0.177851,0.88926 0.355703,1.60067 0.177851,0.7114 0.355703,1.42281 0.355703,1.42281 0.711406,1.77851 0.355703,0.17785 0.355703,0.53356 0.177852,1.06711 0.533555,1.42281 l 0.355703,0.3557 q 0.355703,0.35571 0.355703,1.60067 0.177852,1.06711 1.067109,1.42281 0.177852,0.88926 0.177852,1.60066 0,0.71141 0.355703,1.42282 -0.177851,0.7114 0.355703,1.06711 0.711407,0.17785 1.06711,0.53355 0.711406,2.31207 1.422812,4.090586 0.711406,1.778516 1.067109,3.201328 0.355704,0.711406 0.533555,1.422813 0.355703,0.533554 0.355703,1.778515 1.067111,1.422813 1.422811,3.734883 0.3557,2.134219 1.42281,3.734883 0.35571,0.889257 0.17786,1.422812 0,0.533555 0.3557,1.244961 0.3557,0.711406 0.71141,1.244961 0.3557,0.355703 0.7114,1.067109 0.3557,0.711406 0.3557,1.600664 0,0.711406 0.35571,1.422813 0.3557,0.533554 0.53355,1.067109 0.17785,0.355703 0.53356,0.889258 0.3557,0.889258 0.53355,1.778515 0.3557,0.889258 1.06711,1.778516 0.88926,2.489922 1.77852,4.268437 0.88925,1.778516 1.77851,3.201328 0.35571,0.711407 0.53356,1.600664 0.17785,0.889258 0.53355,1.778516 0.3557,0.889258 0.88926,1.956367 0.71141,0.889258 1.24496,1.778516 0.88926,1.244961 1.24496,2.31207 0.3557,1.067109 1.42281,0.711406 1.06711,-0.355703 0.35571,-1.067109 -0.53356,-0.711406 -0.35571,-1.600664 0.88926,-0.889258 0.71141,-1.956367 -0.17785,-1.244961 0.17785,-2.312071 0.17785,-1.067109 0.53356,-2.134218 0.3557,-1.244961 0.7114,-2.134219 0.35571,-1.067109 0.35571,-2.134219 0.17785,-1.067109 0.53355,-2.134218 0.3557,-1.06711 0.3557,-2.312071 0,-1.24496 0.35571,-2.489921 0.17785,-0.889258 0.3557,-1.778516 0.3557,-0.889258 0.53355,-1.956367 0.17786,-1.067109 0,-2.134219 0,-1.244961 0.17786,-2.31207 0,-0.533555 0.17785,-1.067109 0.17785,-0.711407 0.3557,-1.422813 0.17785,-0.711406 0.17785,-1.422812 0,-0.889258 0.17785,-1.422813 0.35571,-0.889258 0.71141,-1.422812 0.53355,-0.711406 0.88926,-1.600664 0.17785,-0.889258 0.17785,-1.956367 0,-1.244961 0.17785,-2.312071 0,-0.889257 0.17785,-1.600664 0.17785,-0.889257 -0.17785,-1.778515 1.06711,-0.889261 1.24496,-2.312071 0.17785,-1.42281 0.71141,-2.66777 0.88926,-2.31207 1.24496,-3.55703 0.53355,-1.24496 0.88926,-2.84563 0.88925,-2.31207 0.88925,-3.73488 0.17786,-1.60067 0.53356,-2.84563 0.7114,-1.42281 0.7114,-1.95636 0,-0.53356 0.17786,-0.88926 0.53355,-0.88926 0.3557,-1.60067 0,-0.7114 0.17785,-1.24496 0.88926,-1.95636 1.42281,-2.48992 0.53356,-0.53355 0.88926,-0.7114 0,-0.88926 -0.3557,-1.24497 -0.3557,-0.53355 -0.17785,-1.42281 1.60066,-1.60066 3.55703,-1.60066 2.13422,-0.17785 4.09058,-0.17785 1.24496,-0.17785 1.95637,-0.17785 0.88926,-0.17786 1.77852,0.53355 1.42281,-0.71141 3.37918,-0.53355 2.13421,0.17785 4.09058,0 1.24496,0 2.13422,0.3557 1.06711,0.17785 2.31207,0.17785 1.42281,-0.17785 2.66777,-0.53355 1.42282,-0.35571 2.66778,0.53355 0.3557,0.71141 0.3557,1.60066 0.17785,0.71141 1.06711,1.06711 z" /><path
     id="path126"
     style="font-style:normal;font-variant:normal;font-weight:normal;font-stretch:normal;font-family:'Chelsea Market';-inkscape-font-specification:'Chelsea Market'"
     d="m 258.77402,-129.29808 q 0.53355,0.53355 0.88925,1.42281 0.35571,0.71141 0.35571,1.60066 0.17785,0.88926 -0.17785,1.77852 -0.17786,0.71141 -1.24497,0.88926 0.71141,0.7114 0.35571,1.42281 -0.35571,0.53355 -0.35571,1.42281 -0.17785,1.95637 0,3.91274 0.17786,1.95636 -0.17785,3.73488 -0.17785,0.88926 -0.53355,1.60066 -0.3557,0.53356 -0.71141,1.24496 -0.3557,0.88926 -0.7114,1.60067 -0.35571,0.7114 -0.71141,1.06711 -1.42281,0.88926 -3.55703,0.17785 -2.13422,-0.71141 -3.91274,0 -1.42281,-1.06711 -2.84562,-0.71141 -1.42281,0.35571 -3.02348,-0.88925 -1.60066,0.53355 -3.20133,0.17785 -1.42281,-0.35571 -3.20132,-0.53356 -0.53356,0 -1.06711,0.17785 -0.53356,0.17786 -1.06711,0 -0.88926,-0.17785 -1.77852,-0.53355 -0.88926,-0.53356 -1.77851,-0.53356 -0.71141,-0.17785 -1.60067,0.17786 -0.7114,0.17785 -1.60066,0.17785 h -3.02348 q -2.48992,-0.35571 -5.15769,-0.53356 -2.66778,-0.17785 -6.04696,-0.53355 -2.66777,-0.35571 -5.51339,-0.35571 -2.66778,0 -5.69125,0.35571 -0.88926,1.77851 -0.71141,3.73488 0.3557,1.77852 0.53355,3.73488 0.17786,1.95637 0.17786,3.912738 0.17785,1.956367 0.3557,3.912734 0,0.533555 -0.17785,1.244961 -0.17785,0.533555 -0.17785,1.067109 0,1.06711 0.17785,2.667774 0.17785,1.600664 0.17785,3.023476 0,1.244961 -0.17785,2.31207 -0.17785,0.889258 0.3557,1.956367 1.60066,0.533555 3.55703,0.533555 1.24496,0.177852 2.31207,0.177852 1.24496,0 2.31207,0 1.95637,-0.177852 3.73489,-0.177852 1.95636,0 3.91273,0 3.02348,0 5.8691,0 3.02348,0 6.58051,-0.355703 1.60066,-0.177852 3.02347,-0.355703 1.60067,-0.355703 3.20133,0.533555 0.88926,-0.355704 1.77852,-0.355704 1.06711,0 1.95637,-0.177851 0.88925,-0.177852 1.42281,0 0.53355,0.177851 1.42281,0.177851 2.84563,-0.177851 4.44629,0 1.60066,0.177852 3.02348,0.177852 0.88925,-0.177852 1.60066,-0.355703 0.88926,-0.177852 1.60066,0 0.88926,0 0.88926,0.711406 0.17785,0.533555 0.53356,1.067109 0.7114,1.422813 0.7114,3.023477 0,1.422812 -0.17785,3.557031 0.17785,0.889258 -0.17785,1.778516 -0.17785,0.711406 -0.17785,1.244961 -0.17785,2.31207 0,4.268437 0.17785,1.778516 0.88926,3.734883 -0.35571,0.889257 -0.71141,1.956367 -0.3557,0.889258 -1.06711,1.600664 -0.71141,-0.177852 -1.24496,0.177851 -0.53356,0.355703 -1.06711,0.355703 -0.88926,0 -1.42281,-0.177851 -0.53356,-0.355703 -1.24496,-0.711406 -0.35571,-0.533555 -1.24496,0 -0.71141,0.355703 -0.53356,-0.889258 -1.77851,1.067109 -3.02348,1.244961 -1.24496,0 -1.77851,0.711406 -0.88926,-0.711406 -2.13422,-0.533555 -1.06711,0 -2.13422,0.355703 -0.88926,-0.355703 -1.95637,-0.355703 -0.88925,-0.177851 -2.48992,-0.355703 -0.88926,-0.355703 -2.13422,0.177852 -1.06711,0.533554 -1.95636,0.711406 -1.77852,-0.533555 -3.20133,-0.177852 -1.42281,0.355704 -2.66777,0.889258 -0.88926,0.177852 -1.06711,-0.355703 -0.17786,-0.711406 -1.06711,-0.533555 -0.71141,0.533555 -2.13422,0.533555 -1.24496,-0.177851 -1.77852,0.533555 -0.88926,-0.889258 -2.66777,-0.355703 -1.60066,0.355703 -2.66777,-0.711407 -0.35571,0.711407 -1.06711,0.533555 -0.53356,-0.355703 -1.42282,-0.177851 -0.7114,0 -1.42281,0.177851 -0.53355,0.177852 -1.24496,0.177852 -0.88926,0.177851 -2.13422,-0.177852 -1.06711,-0.355703 -1.95637,0.177852 -0.88925,0.533554 -0.7114,1.422812 0.17785,0.889258 0,1.956367 -0.17785,0.533555 -0.3557,1.06711 -0.17786,0.533554 -0.17786,1.067109 0,0.711406 0.17786,1.422812 0.3557,0.533555 0.17785,1.244961 0,1.422813 -0.53356,3.023477 -0.3557,1.600664 -0.7114,3.201328 -0.71141,2.845625 -0.71141,4.446289 0,1.600664 -0.88926,2.845625 0.53356,1.067109 0.53356,1.956367 0.17785,1.422812 0.17785,3.023476 0,1.600664 0,3.023477 0,1.067109 0,2.31207 0,1.067109 -0.3557,2.31207 -0.17786,0.533555 -0.35571,1.06711 -0.17785,0.533554 -0.17785,1.067109 -0.17785,0.889258 0.17785,1.956367 0.35571,1.06711 0,2.134219 1.60067,0.889258 3.37918,0.711406 1.95637,-0.177851 4.44629,-0.177851 3.02348,-0.177852 6.04695,-0.533555 3.20133,-0.355703 5.69125,-0.355703 1.42282,0 2.48993,0.355703 1.24496,0.355703 2.48992,0 1.24496,-0.355703 2.84562,-0.533555 1.77852,-0.355703 3.20133,-0.177851 1.95637,-0.177852 3.02348,0 1.24496,0.177851 2.31207,0.177851 1.60066,0 2.84562,0 1.42281,-0.177851 2.84563,-0.355703 0.7114,-0.177851 1.24496,-0.355703 0.7114,-0.177852 1.42281,-0.177852 1.24496,0.177852 1.77852,0.177852 0.53355,-0.177852 0.88925,-0.177852 1.06711,0.355704 1.42282,0.177852 0.3557,-0.177852 0.53355,-0.177852 0.71141,0.355704 1.77852,0 1.06711,-0.533554 2.66777,-0.177851 0.53355,0.355703 0.53355,1.244961 0.17786,0.711406 0.71141,1.067109 -0.17785,0.889258 0.3557,1.067109 0.53356,0.177852 0.71141,0.889258 0.3557,4.268438 -0.17785,8.536875 -0.53356,4.0905858 -0.71141,8.7147263 -0.3557,0.5335547 -0.88926,0.7114063 -0.53355,0.3557031 -1.24496,0.7114062 -0.53355,0.3557031 -1.24496,0.7114062 -0.53355,0.3557032 -1.24496,0.3557032 -0.7114,0 -1.42281,-0.3557032 -0.71141,-0.1778515 -1.42281,-0.3557031 -0.88926,0 -1.77852,0.1778516 -0.71141,0.1778515 -1.77851,0.1778515 -1.42282,0 -3.20133,-0.1778515 -1.60067,-0.1778516 -3.37918,-0.3557031 -1.95637,-0.1778516 -3.73489,-0.3557031 -1.60066,0 -2.48992,-0.5335547 -0.88925,-0.1778516 -1.24496,0.1778515 -0.3557,0.5335547 -1.24496,0.5335547 -1.77851,-0.5335547 -3.91273,-0.5335547 -1.95637,0 -4.26844,-0.1778515 -1.60066,-0.1778516 -3.20133,0 -1.42281,0.3557031 -3.20133,0.3557031 -1.42281,0.1778516 -3.02347,0 -1.42282,-0.1778516 -2.84563,0 -1.60066,0 -3.02347,0.1778516 -1.24497,0.3557031 -2.66778,0.1778515 -0.88926,0 -1.60066,-0.3557031 -0.53356,-0.1778516 -1.42281,-0.1778516 -1.06711,0.1778516 -1.77852,-0.1778515 -0.71141,-0.1778516 -1.42281,-0.1778516 -1.42281,-0.3557031 -3.02348,-0.5335547 -1.60066,0 -3.02348,-0.88925774 -0.7114,0.35570311 -1.42281,0.17785156 -0.53355,-0.17785156 -1.24496,-0.17785156 -0.88926,0.17785156 -1.42281,0 -0.53356,0 -0.88926,0 -1.24496,0.17785156 -2.48992,0.53355467 -1.06711,0.53355467 -2.31207,0.17785156 Q 179.09652,0 178.91867,-0.71140623 q -0.17785,-0.71140627 -0.53356,-1.60066407 -0.17785,-0.5335546 -0.53355,-1.0671093 -0.17785,-0.7114062 -0.17785,-1.4228125 -0.17786,-0.8892577 0,-1.4228124 0.17785,-0.7114063 0,-1.4228125 -0.17786,-0.8892578 -0.53356,-1.600664 -0.3557,-0.889258 -0.71141,-1.600664 0.35571,-1.956367 0,-3.734883 -0.3557,-1.778515 -0.17785,-3.912734 0,-1.600664 0.17785,-2.31207 0.17786,-0.711406 0.17786,-1.244961 0,-0.533555 -0.17786,-1.06711 -0.17785,-0.533554 -0.3557,-1.067109 -0.17785,-0.889258 0,-0.889258 0.17785,-0.177851 0,-1.067109 -0.17785,-1.422812 -0.88926,-3.023476 -0.53355,-1.600664 0,-3.201329 0.35571,-1.067109 0,-1.600664 -0.17785,-0.533554 -0.17785,-0.889257 0,-0.889258 0.17785,-1.778516 0.35571,-1.067109 0.71141,-2.134219 0,-0.889257 -0.17785,-1.422812 -0.17785,-0.711406 -0.3557,-1.422813 0.3557,-1.24496 0,-1.422812 -0.17786,-0.355703 -0.17786,-0.889258 0,-0.711406 0.17786,-1.422812 0.17785,-0.711406 0.17785,-1.422813 -0.17785,-1.422812 0,-2.489921 0.3557,-1.244961 -0.53356,-1.956368 0.88926,-1.778515 0.35571,-3.557031 -0.35571,-1.956367 -0.35571,-4.090586 -0.17785,-0.889257 0,-1.600664 0.17785,-0.711406 0.35571,-1.600664 0,-0.711406 -0.17786,-1.244961 -0.17785,-0.711406 -0.17785,-1.422812 0.17785,-1.067109 0.17785,-1.956367 0,-1.067109 0,-2.31207 0,-0.533555 0.17786,-1.06711 0.17785,-0.533554 0.17785,-1.067109 -0.17785,-0.355703 -0.35571,-1.067109 -0.17785,-0.889258 -0.17785,-1.422813 0,-1.600664 0.53356,-1.956367 -0.35571,-0.889258 -0.71141,-1.422812 -0.17785,-0.533555 0.53356,-1.422813 -0.71141,-1.956367 -0.53356,-2.31207 0.3557,-0.355703 0.3557,-1.06711 -0.17785,-1.956367 -0.3557,-3.379179 -0.17785,-1.600664 -0.17785,-3.023477 0,-0.533554 0.17785,-1.067109 0.17785,-0.711406 0.17785,-1.244961 0,-0.889258 -0.17785,-1.422812 -0.17785,-0.533555 0,-1.244961 0.88926,-3.023477 0.88926,-4.624141 0,-1.778515 0.88926,-3.023473 -1.24496,-2.31207 -0.53356,-5.33555 0.71141,-3.20133 0.71141,-6.40266 0.17785,-2.13421 -0.17785,-4.44628 -0.17786,-2.48993 0.17785,-5.1577 0.17785,-1.95637 -0.17785,-3.20133 -0.35571,-1.24496 -0.35571,-2.13422 0,-0.88925 0.35571,-1.77851 0.3557,-0.88926 0.7114,-1.77852 0.35571,-0.7114 0.53356,-1.24496 0.3557,-0.71141 1.06711,-1.06711 7.64761,1.42281 14.93953,0.71141 7.46976,-0.88926 14.22812,-0.35571 1.95637,0.35571 3.73488,0.88926 1.95637,0.35571 3.91274,0.53356 1.24496,0.17785 2.48992,0 1.24496,-0.35571 3.20133,-0.53356 1.77851,0.35571 2.31207,0.35571 0.71141,-0.17786 1.06711,-0.17786 0.88926,0 1.60066,0.35571 0.71141,0.17785 1.60067,0.17785 1.42281,0.3557 2.66777,0.3557 1.24496,0 2.66777,0.17785 1.06711,0 2.31207,-0.17785 1.24496,-0.17785 2.48993,0 1.60066,0 3.91273,0.53356 2.31207,0.3557 4.44629,0.53355 1.42281,-0.17785 1.95637,0 0.7114,0.17785 1.24496,0.3557 2.48992,0.35571 4.62414,0.17786 2.13422,-0.17786 4.44629,0.17785 z" /><path
     id="path128"
     style="font-style:normal;font-variant:normal;font-weight:normal;font-stretch:normal;font-family:'Chelsea Market';-inkscape-font-specification:'Chelsea Market'"
     d="m 312.30732,0.17785156 q -0.3557,1.42281244 -1.42281,1.77851554 -0.88926,0.5335547 -1.77852,1.6006641 -0.53355,0 -1.24496,-0.3557032 -0.53356,-0.1778515 -1.24496,-0.1778515 -0.53356,-0.1778516 -1.24496,0 -0.71141,0.1778515 -1.60067,0.1778515 -0.53355,0 -1.06711,-0.1778515 -0.53355,-0.1778516 -1.06711,-0.1778516 -1.42281,0 -2.84562,0 -1.42281,0.1778516 -3.20133,0.1778516 -0.88926,0 -1.77851,0 -0.71141,0.1778515 -1.60067,-0.3557031 -1.42281,0.3557031 -3.02347,0.7114062 -1.42282,0.5335547 -3.20133,0.5335547 -0.88926,-0.7114063 -1.24496,-1.7785156 -0.17785,-1.0671094 -1.06711,-1.60066403 -0.17785,-1.60066397 -0.17785,-3.55703117 0.17785,-1.9563671 -0.17786,-3.9127343 0,-0.5335546 -0.17785,-1.0671093 0,-0.7114062 0,-1.2449609 -0.17785,-0.7114062 -0.3557,-1.244961 -0.17785,-0.711406 -0.17785,-1.422812 0,-0.533555 0.17785,-1.06711 0.17785,-0.711406 0.17785,-1.244961 0,-0.889257 -0.3557,-1.778515 -0.17785,-1.06711 -0.17785,-1.956367 0,-1.244961 0.17785,-2.134219 0.17785,-0.889258 0.17785,-1.778516 0,-1.956367 -0.17785,-3.912734 -0.17785,-2.134219 -0.17785,-4.090586 0,-0.889257 0.17785,-1.778515 0.17785,-1.06711 0.17785,-1.956367 0,-0.711407 -0.17785,-1.06711 -0.17785,-0.533554 -0.35571,-1.067109 -0.3557,-1.956367 -0.17785,-2.489922 0.35571,-0.533555 0.53356,-1.244961 0,-0.355703 -0.17785,-1.244961 -0.17786,-1.067109 0,-2.134218 0,-1.778516 0,-4.624141 0.17785,-3.023476 0.17785,-5.335547 0,-1.244961 0.17785,-2.31207 0.3557,-1.067109 -0.71141,-2.134219 0.71141,-3.557031 0.88926,-5.513398 0.17785,-1.956367 -0.3557,-5.513398 0.7114,-0.533555 0.53355,-1.244961 0,-0.711406 0.17785,-1.422813 0.17786,-2.667773 0,-5.513398 0,-1.600664 0.17786,-3.023476 0.17785,-1.422813 0,-2.845625 0,-1.06711 -0.17786,-1.422813 -0.17785,-0.355703 0,-0.711406 -0.3557,-3.557031 -0.17785,-5.869101 0.35571,-2.312071 0.35571,-4.268438 0,-0.889258 -0.17786,-1.600664 -0.17785,-0.711406 0,-1.422812 0,-1.244961 0,-2.134219 0.17786,-0.889256 0,-2.312066 0,-2.13422 0,-4.62414 0,-2.48993 -1.24496,-3.73489 0.71141,-0.88926 0.35571,-2.13422 -0.35571,-1.24496 -0.17786,-2.13421 0,-0.53356 0,-1.95637 0.17786,-1.42281 0.35571,-2.48992 0,-0.53356 0.17785,-1.06711 0.17785,-0.53356 0.17785,-0.88926 0,-0.88926 -0.53355,-1.95637 -0.53356,-1.24496 0.3557,-2.66777 -0.53356,-1.06711 -1.24496,-1.77852 -0.53356,-0.7114 -0.3557,-1.60066 0.17785,-1.60066 1.42281,-2.31207 1.42281,-0.71141 3.20133,-1.06711 1.06711,0 1.24496,-0.3557 0.3557,-0.35571 0.7114,-0.35571 0.71141,0 1.24496,0.35571 0.71141,0.17785 1.24497,0.3557 1.0671,0.17785 2.31207,0.17785 1.24496,-0.17785 1.60066,0.53356 1.42281,-0.17786 2.66777,-0.35571 1.42282,-0.3557 2.84563,-0.3557 0.53355,0 0.88926,0.3557 0.3557,0.17785 1.0671,0.17785 0.53356,0.17786 0.88926,-0.17785 0.53356,-0.3557 1.06711,0 0.88926,0.71141 1.77852,1.06711 0.88926,0.35571 1.77851,0.71141 0.53356,0.88926 0.53356,2.13422 0.17785,1.06711 0.3557,2.31207 0,1.24496 0,2.48992 0.17785,1.06711 0.17785,2.13422 -0.17785,1.42281 -0.53355,2.66777 -0.17785,1.24496 -0.17785,2.66777 -0.17786,1.60067 0.17785,3.02348 0.53355,1.24496 -0.35571,2.48992 0.35571,1.06711 0.53356,1.60067 0.3557,0.53355 -0.3557,1.42281 0.88925,1.42281 0.7114,2.66777 -0.17785,1.24496 -0.17785,3.02348 0,1.42281 0,3.201327 0,1.600664 -0.17785,3.37918 0,1.778515 -0.17785,2.489921 -0.17785,0.533555 -0.17785,0.889258 0.53355,2.134219 0.53355,3.912734 0,1.600665 0.71141,2.845625 -0.35571,1.778516 -0.17785,2.489922 0.17785,0.533555 0.17785,0.889258 0,0.889258 -0.17785,1.778516 -0.17786,0.711406 0,1.600664 0.3557,0.533554 0.17785,1.422812 0,0.711406 0.17785,1.422813 -0.3557,1.956367 -0.17785,2.667773 0.3557,0.533555 0.3557,1.244961 0,0.889258 -0.3557,1.956367 -0.35571,0.889258 -0.35571,1.778516 0.17786,1.24496 0,1.778515 -0.17785,0.533555 -0.3557,1.067109 0.3557,0.711407 0.3557,1.600664 0.17786,0.711407 0.53356,1.422813 0.3557,0.889258 0,1.422812 -0.17785,0.533555 -0.17785,1.422813 0,0.889258 0.3557,1.778515 0.3557,0.889258 0.53355,1.600664 0,0.889258 -0.17785,1.778516 -0.17785,0.889258 -0.17785,1.778516 -0.17785,2.31207 0.3557,4.62414 0.53356,2.134219 0.17786,4.090586 0,0.889258 -0.35571,1.778515 -0.17785,0.711407 -0.17785,1.600665 0,0.711406 0.17785,1.422812 0.35571,0.533555 0.53356,1.422812 0.3557,1.600664 0.17785,4.090586 0,2.489922 0,4.979844 -0.17785,3.201328 -0.3557,6.758359 -0.17786,3.37918 0.3557,6.224805 0.71141,3.734882 0.53355,6.0469526 -0.17785,2.3120702 0,4.2684373 0.17786,0.5335547 0.35571,1.2449609 0.3557,0.5335547 0.53355,1.2449609 0.35571,1.244961 0.53356,1.77851563 0.17785,0.35570311 0.17785,0.71140623 z" /><path
     id="path130"
     style="font-style:normal;font-variant:normal;font-weight:normal;font-stretch:normal;font-family:'Chelsea Market';-inkscape-font-specification:'Chelsea Market'"
     d="m 427.91085,0.17785156 q -0.53355,1.06710934 -2.31207,2.13421874 -1.42281,0.7114062 -1.95636,1.0671093 -0.35571,0.5335547 -0.71141,0.5335547 -1.95637,0.3557031 -2.84563,-0.5335547 -2.48992,0.7114062 -4.62414,0.5335547 -1.95636,-0.1778516 -3.91273,0.3557031 -0.88926,0.1778515 -1.42281,0.5335547 -0.53356,0.5335546 -1.24496,0.8892577 -1.06711,0.3557032 -1.95637,0.1778516 -0.71141,0 -1.77852,0 -0.7114,-0.5335547 -1.24496,-1.4228125 -0.3557,-0.7114062 -0.7114,-1.600664 -1.42282,-1.0671093 -2.13422,-2.13421867 -0.35571,-0.35570311 -0.71141,-0.88925779 -0.17785,-0.71140623 -0.53355,-1.06710934 -1.24496,-1.600664 -1.95637,-3.0234765 -0.71141,-1.600664 -1.06711,-2.6677734 -0.53355,-0.7114062 -1.24496,-1.4228124 -0.53356,-0.7114062 -1.06711,-1.600664 -0.53355,-0.7114058 -1.24496,-1.4228128 -0.71141,-0.889257 -1.06711,-1.600664 -0.3557,-0.711406 -0.3557,-1.244961 0,-0.711406 -0.35571,-1.422812 -0.53355,-1.067109 -1.42281,-1.956367 -0.71141,-0.889258 -0.88926,-2.31207 -0.7114,-0.711407 -1.42281,-1.422813 -0.53355,-0.889258 -1.77851,-1.244961 -0.35571,-1.244961 -1.24497,-1.956367 -0.7114,-0.889258 -1.24496,-2.31207 -0.3557,-0.533555 -1.06711,-2.31207 -0.3557,-0.533555 -0.53355,-1.06711 0,-0.711406 -0.3557,-1.244961 -0.53356,-0.889258 -1.60067,-1.422812 -0.88926,-0.533555 -1.24496,-1.956367 -1.42281,0 -1.95637,-0.711407 -0.3557,-0.889257 -1.60066,-1.067109 -0.88926,-1.778515 -2.31207,-3.201328 -1.24496,-1.422812 -2.31207,-3.37918 -2.48992,-1.24496 -4.44629,-3.201328 -1.95637,-1.956367 -4.62414,-3.379179 -0.71141,-1.600664 -3.20133,-1.956367 -0.88926,1.244961 -0.7114,3.023476 0.17785,1.600664 -0.17786,3.201328 -0.17785,1.956367 -0.7114,3.912734 -0.3557,1.778516 -0.88926,3.201329 -0.3557,0.889257 0.17785,1.24496 0.53356,0.177852 0.35571,1.06711 -0.17786,0.533554 -0.53356,1.244961 -0.17785,0.711406 0,1.422812 0,0.889258 0.3557,1.778516 0.53356,0.711406 0.53356,1.956367 0.17785,1.244961 -0.3557,3.201328 -0.35571,1.956367 -0.53356,3.379179 0.17785,1.422813 0,1.778516 0,0.355703 0,0.711406 0,1.422813 0,2.489922 0,1.067109 -0.17785,2.31207 0.17785,1.956367 -0.17785,3.023477 -0.35571,0.889258 -0.53356,1.778515 0.35571,1.2449613 0.17785,1.4228129 -0.17785,0.1778515 -0.17785,0.5335547 0,0.5335546 0.17785,1.0671093 0.17786,0.5335547 0,0.8892578 -0.17785,1.9563671 -0.7114,3.0234765 -0.35571,1.0671093 0,3.0234765 0.3557,1.24496086 0.53355,1.60066397 0.17785,0.53355463 0,0.88925783 -0.17785,1.2449609 -1.24496,2.1342187 -1.06711,0.8892577 -1.06711,1.9563671 -2.13422,-0.1778516 -3.91273,0.3557031 -1.60067,0.5335547 -3.20133,-0.3557031 -1.24496,0.3557031 -3.02348,0.7114062 -1.77851,0.3557031 -3.37918,0.1778516 Q 337.02871,5.8691014 336.3173,6.046953 335.78375,6.2248045 335.42804,5.8691014 335.07234,2.3120703 334.53879,0 q -0.53356,-2.3120703 0.88925,-4.0905858 0,-0.5335547 -0.17785,-1.0671094 -0.17785,-0.5335546 0,-1.2449609 0.17785,-1.9563671 -0.17785,-2.8456249 -0.17785,-0.889258 -0.17785,-1.600664 0.17785,-0.711406 0.3557,-1.244961 0.3557,-0.533555 0.3557,-1.067109 0.17786,-0.889258 -0.17785,-1.778516 -0.3557,-1.067109 -0.3557,-2.134219 0,-0.889257 0.17785,-1.956367 0.17785,-1.067109 0.17785,-1.956367 0,-0.889258 -0.53355,-1.956367 -0.3557,-1.067109 0.3557,-2.134219 0.3557,-0.711406 0.17785,-2.134218 0,-1.422813 0,-2.845625 0,-0.889258 0,-1.600664 0.17785,-0.711407 0.35571,-1.600664 0,-1.06711 -0.17786,-1.956367 0,-1.06711 0,-1.956368 0,-0.355703 0.17786,-0.889257 0.17785,-0.711407 0,-1.06711 -0.35571,-1.600664 -0.35571,-2.489922 0.17785,-0.889257 0.17785,-1.422812 0.17786,-0.889258 0,-1.778516 0,-1.067109 0.17786,-2.31207 0,-0.711406 -0.17786,-1.422812 -0.17785,-0.711406 0,-1.600664 0.17786,-1.600664 0,-2.134219 -0.17785,-0.533555 -0.3557,-1.067109 0,-0.533555 0.17785,-1.06711 0.17785,-0.533554 0.17785,-1.244961 0,-1.422812 -0.3557,-3.201328 -0.3557,-1.778515 -0.3557,-3.201328 0.3557,-3.557031 -0.3557,-3.912734 0.3557,-0.889258 0.53355,-1.600664 0.17785,-0.711406 0.3557,-1.600664 0,-1.244961 -0.17785,-2.489922 -0.17785,-1.244961 0.17785,-3.201328 0.17785,-0.355703 0.35571,-0.889258 0.3557,-0.533554 0.3557,-1.067109 0,-0.711406 -0.17785,-1.422812 -0.17785,-0.711407 0,-1.600664 0,-1.600664 0.17785,-3.37918 0.17785,-1.778516 0.53355,-3.557031 0.35571,-1.600664 0.17786,-2.31207 -0.17786,-0.711407 -0.17786,-1.244961 0,-1.244961 0.35571,-2.312071 0.3557,-1.067109 0,-2.489921 0,-0.355704 -0.17785,-0.889258 0,-0.711406 0,-1.600664 0.17785,-1.778516 0,-2.489925 -0.17786,-0.88925 -0.17786,-1.60066 0.35571,-1.42281 0.17786,-1.60067 -0.17786,-0.17785 -0.17786,-0.53355 0.35571,-0.71141 0.17786,-0.88926 -0.17786,-0.3557 -0.17786,-1.06711 0.17786,-1.42281 0.17786,-2.31207 0.17785,-1.06711 0,-2.84562 -0.35571,-1.24496 -0.17786,-1.42281 0.35571,-0.17786 0.17786,-0.53356 0,-0.53355 -0.35571,-1.24496 -0.3557,-0.71141 -0.7114,-1.42281 0.3557,-1.06711 0.17785,-2.48992 -0.17785,-1.42282 0,-2.84563 0,-0.3557 0.17785,-0.88926 0.17785,-0.7114 0.17785,-1.06711 -0.53355,-1.42281 -0.71141,-1.95636 0,-0.71141 -0.17785,-1.06711 -0.17785,-0.71141 -0.53355,-1.42282 -0.3557,-0.7114 -0.3557,-1.24496 0,-1.06711 0.53355,-1.95636 0.53355,-0.88926 1.06711,-1.77852 0.3557,-0.3557 0.71141,-0.53355 0.53355,-0.35571 1.24496,-0.17786 0.3557,-0.3557 0.7114,-0.7114 0.53356,-0.53356 1.06711,-0.88926 1.42281,-0.3557 2.13422,0.3557 0.88926,0.53356 1.77852,0.88926 1.42281,-0.3557 3.02347,-0.17785 1.60067,0 3.55703,-0.3557 1.60067,-0.35571 2.31207,-0.17785 0.71141,0 1.06711,0 2.31207,-0.53356 3.73489,-0.53356 1.42281,0 2.48992,0.17785 1.42281,0 1.60066,0.17785 0.3557,0.17786 0.71141,0.17786 0.88926,-0.35571 1.60066,0 0.71141,0.17785 1.42281,0.3557 1.42282,0.17785 2.84563,0.17785 1.42281,0 2.84562,0.17785 1.42282,0.17785 2.84563,0.3557 1.60066,0.17786 3.02348,0.71141 0.53355,0.17785 1.06711,0.53356 0.53355,0.3557 1.0671,0.53355 0.71141,0.17785 1.60067,0.17785 1.06711,-0.17785 1.95637,0.17785 1.95636,0.35571 3.73488,1.24496 1.95637,0.71141 3.91273,1.06711 0.88926,0.35571 1.95637,0.71141 1.06711,0.17785 1.95637,0.88926 2.48992,0 4.44629,0.53355 1.95636,0.35571 3.37918,1.06711 0.88925,0.3557 1.95636,0.71141 1.24496,0.3557 1.95637,1.06711 0.88926,0.7114 1.60066,1.24496 0.71141,0.53355 1.42282,1.24496 1.06711,0.88926 1.24496,1.42281 0.3557,0.3557 0.7114,0.71141 1.06711,0.88926 1.24496,1.42281 0.35571,0.53356 0.71141,0.71141 0.88926,0.53355 1.24496,1.06711 0.53356,0.3557 1.06711,0.53355 0.3557,1.42281 1.24496,2.13422 1.06711,0.71141 1.95637,1.60066 0.88926,1.60067 1.06711,2.48993 0.17785,0.88925 0.88926,1.24496 0.88925,3.02347 1.06711,5.33554 0.17785,2.31207 1.60066,3.557034 -0.17785,1.422812 0.17785,2.667773 0.53356,1.06711 1.06711,2.312071 -0.3557,0.889257 -0.17785,1.778515 0.17785,0.711406 0.17785,1.600664 0,0.889258 -0.53355,1.778516 -0.35571,0.889257 0.3557,1.600664 -0.71141,2.134218 -1.42281,4.446289 -0.53356,2.134218 -1.77852,4.090585 -0.3557,0.355704 -0.53355,0.889258 -0.17786,0.355703 -1.06711,0.355703 0.17785,1.06711 -0.35571,1.600664 -0.53355,0.355704 -0.53355,1.244961 -1.42281,0.889258 -2.31207,1.778516 -0.71141,0.711406 -1.60067,2.134219 -0.53355,0.711406 -1.0671,1.067109 -0.35571,0.355703 -1.24497,0.889258 -1.42281,0.889258 -2.13421,1.244961 -0.71141,0.355703 -1.24497,0.711406 -1.24496,0.533555 -1.60066,0.889258 -0.17785,0.355703 -0.53355,0.533554 -0.53356,0.355703 -1.24496,0.711407 -0.53356,0.177851 -1.06711,0.533554 -1.06711,0.889258 -1.60067,1.06711 -0.3557,0.177851 -0.53355,0.355703 -1.60067,0.711406 -3.55703,1.422812 -1.77852,0.533555 -3.55704,1.778516 -0.88925,-0.355703 -1.77851,0.177851 -0.88926,0.533555 -1.95637,0.889258 -1.42281,0.355703 -2.48992,0.355703 -0.88926,-0.177851 -1.24496,1.244961 -0.3557,1.244961 0.71141,1.778516 1.24496,0.533554 2.31207,1.422812 0.3557,0.889258 0.88925,1.778516 0.71141,0.711406 1.77852,1.067109 1.42281,1.422813 1.60066,2.489922 0.35571,1.067109 1.77852,1.244961 0.3557,0.889258 1.42281,2.31207 1.24496,1.067109 1.24496,1.422812 0.17785,0.355704 0.35571,0.711407 0.88925,1.422812 1.24496,1.600664 0.3557,0.177851 0.3557,0.533554 0.71141,1.06711 1.42281,2.312071 0.88926,1.244961 1.24496,2.667773 0.53356,0.533555 1.06711,1.067109 0.53356,0.533555 1.24496,1.06711 0,0.711406 0.17785,1.067109 0.35571,0.355703 0.35571,1.067109 1.06711,1.244961 2.31207,2.489922 1.24496,1.244961 1.77851,3.201328 0.53356,0.355703 0.88926,0.889258 0.3557,0.355703 1.06711,0.533555 0.53356,1.778515 1.60066,3.201328 1.24497,1.244961 2.31207,2.845625 0.53356,0.889257 1.60067,1.778515 0.71141,0.889258 1.24496,1.956367 0.53355,0.889258 1.24496,1.778516 0.88926,1.422812 1.24496,2.4899218 0.53356,0.8892578 1.42281,1.2449609 0.17786,0.8892578 0.53356,1.4228124 0.53355,0.3557031 0.3557,1.4228125 0.71141,0.3557031 1.42281,0.8892578 0.71141,0.3557031 1.60067,0.7114062 0.3557,1.4228125 0.53355,2.4899218 0.35571,0.88925781 0,1.95636716 z M 403.18949,-94.083474 q -0.88926,-1.778516 -1.06711,-2.489922 0,-0.711406 -0.17785,-1.067109 -0.17786,-0.533555 -0.71141,-0.889258 -0.3557,-0.355703 -0.71141,-0.889258 -0.88925,-1.778519 -1.60066,-2.312069 -0.53356,-0.3557 -0.88926,-0.88926 -0.3557,-0.71141 -0.88926,-0.88926 -1.42281,-1.06711 -1.95636,-1.77851 -0.35571,-0.71141 -1.24496,-0.53356 -0.35571,-1.06711 -1.60067,-1.24496 -1.06711,-0.3557 -1.42281,-1.42281 -1.42281,-0.17785 -2.31207,-0.71141 -0.88926,-0.53355 -1.95637,-1.24496 -0.53355,0.17785 -1.06711,0.53356 -0.3557,0.3557 -1.24496,0.17785 -0.88926,-0.17785 -1.60066,-0.53356 -0.53356,-0.3557 -1.42282,-0.53355 -1.95636,0.17785 -2.84562,0 -0.88926,-0.3557 -1.42281,-0.3557 -1.77852,-0.71141 -2.84563,-0.71141 -1.42281,-0.17785 -3.02347,0.17785 -1.60067,0.17785 -3.20133,0.3557 -3.02348,0 -5.8691,-0.3557 -2.84563,-0.3557 -5.69125,0 -0.35571,0.71141 0,1.24496 0.53355,0.35571 0.53355,1.24496 -0.17785,1.95637 0,2.84563 0.17785,0.7114 0.17785,1.42281 -0.3557,1.42281 -0.17785,1.77852 0.17785,0.3557 0.17785,0.53355 v 3.023478 q -0.3557,2.31207 -0.3557,4.62414 0.17785,2.134219 0,4.446289 0,2.667773 -0.17785,4.801992 0,1.956367 -0.17785,4.090586 0.17785,1.956367 -0.17785,2.667773 -0.17786,0.533555 -0.17786,1.244961 -0.17785,1.778516 0.35571,3.912735 1.95636,0.533554 3.73488,0.533554 1.95637,0 2.84562,0 1.24497,0.177852 1.42282,0.177852 0.3557,-0.177852 1.06711,-0.177852 1.77851,0.177852 3.20132,0.533555 1.60067,0.177851 3.37918,-0.177852 0.88926,0 1.60067,0 0.88926,-0.177851 1.77851,-0.355703 1.42282,-0.533554 1.95637,-0.533554 0.71141,0 1.06711,0 1.95637,-0.711407 2.66777,-0.711407 0.71141,-0.177851 1.06711,-0.355703 3.55703,-1.422812 5.1577,-1.956367 2.48992,-0.889258 3.73488,-1.244961 1.42281,-0.355703 2.48992,-0.533555 0.53356,-1.600664 2.13422,-1.956367 1.60066,-0.355703 1.95637,-2.31207 0.53355,-0.355703 1.06711,-0.355703 0.7114,0 0.88926,-0.711406 0.53355,-1.600664 1.0671,-3.37918 0.53356,-1.778515 1.42282,-3.023476 -0.17785,-1.422813 0.17785,-1.778516 0.53355,-0.533555 0.88926,-1.956367 z" /><path
     id="path132"
     style="font-style:normal;font-variant:normal;font-weight:normal;font-stretch:normal;font-family:'Chelsea Market';-inkscape-font-specification:'Chelsea Market'"
     d="m 553.47404,-67.583592 v 2.31207 q 0.3557,3.37918 -0.53356,6.75836 -0.88925,3.201328 -1.77851,5.691249 -0.53356,1.422813 -1.24496,3.023477 -0.53356,1.600664 -0.88926,3.379179 -1.42281,1.778516 -2.66777,3.912735 -1.06711,2.134218 -2.31207,4.090586 -0.35571,0.355703 -0.53356,0.889257 0,0.533555 -0.3557,0.889258 -0.88926,0.889258 -1.24496,1.600664 -0.35571,0.711406 -0.71141,1.422813 -1.24496,1.422812 -2.84562,2.489921 -1.60067,0.889258 -2.13422,2.845625 -1.60067,0.533555 -2.48992,1.956367 -0.71141,1.422813 -2.13422,2.312071 -0.35571,0.355703 -1.06711,0.533554 -0.71141,0 -1.24496,0.355703 -1.95637,1.244961 -3.73489,2.845625 -0.3557,0.355704 -1.24496,0.711407 -0.88925,0.355703 -1.77851,0.711406 -0.88926,0.355703 -1.42281,1.244961 -0.35571,0.711406 -1.24497,1.067109 -1.42281,0.355703 -2.31207,0.889258 -0.7114,0.355703 -1.42281,0.711406 -1.24496,0.355703 -1.60066,0.711406 -0.17785,0.355703 -0.35571,0.355703 -1.24496,0.355704 -2.31207,0.889258 -0.88925,0.533555 -1.95636,0.177852 -0.88926,0.711406 -1.95637,0.889258 -0.88926,0.177851 -1.77852,0.711406 -1.60066,0.533555 -3.37918,1.4228123 -1.77851,0.7114063 -2.31207,0.7114063 -0.53355,0 -0.88925,0 -0.88926,0.5335546 -1.42282,0.7114062 -0.53355,0 -1.06711,0.1778515 -1.95636,0.3557032 -2.31207,0.3557032 -0.17785,-0.1778516 -0.53355,-0.1778516 -0.53355,0 -1.42281,0.3557031 -0.88926,0.1778516 -1.77852,-0.3557031 -0.7114,0.3557031 -1.42281,0.7114062 -0.71141,0.3557031 -1.77852,0.5335547 -0.53355,0.1778516 -1.42281,0 -0.88926,-0.1778516 -1.77851,0 -1.24497,0.3557031 -1.60067,0.3557031 -0.3557,-0.1778515 -0.53355,-0.1778515 -0.71141,0 -2.48992,0.5335546 -1.60067,0.5335547 -2.48993,0.5335547 -1.42281,0 -3.20132,-0.7114062 -0.71141,-0.1778516 -1.24497,-0.1778516 -0.53355,-0.1778515 -0.7114,-0.8892578 -0.88926,-0.1778515 -1.06711,0.5335547 0,0.5335547 -0.88926,0.1778516 -1.24496,-1.2449609 -2.48992,-1.4228125 -1.42281,0.8892578 -1.77852,0.7114062 -0.3557,-0.3557031 -1.06711,-0.1778515 -0.3557,0.7114062 -1.42281,0.8892578 -1.06711,0 -1.77851,0.7114062 -1.95637,-0.3557031 -3.73489,0 -1.77851,0.3557031 -3.91273,0.1778516 -0.3557,-0.3557032 -0.88926,-0.7114063 -0.3557,-0.5335547 -0.7114,-1.0671093 -1.06711,-1.0671094 -1.06711,-1.9563672 -0.17786,-1.0671094 0,-1.9563674 0.17785,-1.067109 0.53355,-1.956367 -0.17785,-0.711406 -0.3557,-1.244961 0,-0.533554 0,-1.067109 -0.17785,-0.711406 0,-1.067109 0.3557,-0.355704 0.53355,-1.06711 -0.17785,-2.31207 0.17785,-4.446289 0.35571,-2.134218 0.35571,-3.912734 0,-2.31207 -0.17785,-4.801992 0,-2.489922 -0.17786,-5.157695 -0.3557,-1.422813 -0.3557,-2.845625 0.17785,-1.422813 0.17785,-2.489922 -0.17785,-3.023476 -0.17785,-6.936211 0.17785,-4.090586 0.17785,-7.469765 0.17785,-1.600664 0,-2.31207 -0.17785,-0.711407 -0.17785,-1.422813 0,-0.711406 0.17785,-1.244961 0.17785,-0.711406 0.17785,-1.600664 0,-1.956367 -0.17785,-4.090586 0,-2.134218 0.35571,-4.090585 -0.35571,-0.711407 -0.71141,-1.244961 -0.17785,-0.711407 -0.53356,-1.600664 0.35571,-1.244961 0,-2.489922 -0.17785,-1.422813 -0.17785,-2.667774 0.17785,-2.134218 0.35571,-3.557031 0.17785,-1.422812 -0.71141,-2.667773 0.53355,-2.134219 0.17785,-4.090586 -0.3557,-2.134219 -0.3557,-4.090586 0,-1.067109 0,-1.956367 0.17785,-1.067109 0.17785,-2.134219 0.3557,-1.067109 0.17785,-1.422812 -0.17785,-0.533555 -0.17785,-0.889258 0.3557,-1.600659 0,-2.312069 -0.17785,-0.71141 -0.17785,-1.60067 0,-0.88925 0.17785,-1.77851 0.3557,-0.88926 0.71141,-1.60066 0.3557,-0.88926 0.17785,-2.13422 0,-1.24496 0,-2.66778 0,-0.7114 0.17785,-1.24496 0.17785,-0.7114 0.17785,-1.42281 0,-1.42281 -0.17785,-2.66777 -0.17785,-1.42282 0,-2.66778 0,-0.7114 0.17785,-1.24496 0.3557,-0.7114 0.3557,-1.24496 0.17786,-0.88926 -0.17785,-1.95637 -0.3557,-1.06711 0.35571,-1.95636 0.17785,-0.88926 -0.53356,-1.24496 -0.71141,-0.35571 0,-1.06711 0.17785,-0.88926 1.24496,-2.31207 1.06711,-0.17785 1.60067,0 0.53355,0 1.0671,0.7114 0.71141,-0.3557 1.06711,-0.7114 0.35571,-0.53356 1.06711,-0.71141 1.42282,-0.3557 3.20133,-0.3557 1.77852,-0.17785 3.20133,-0.17785 0.88926,0 1.60066,0.17785 0.88926,0 1.77852,0 1.42281,-0.17785 2.84562,-0.35571 1.42282,-0.3557 2.84563,-0.3557 1.06711,0 2.84562,0.3557 1.24497,0 2.13422,0.17786 1.06711,0 2.13422,-0.17786 1.95637,-0.17785 3.02348,-0.17785 1.06711,-0.17785 1.95637,-0.3557 1.42281,0 2.31207,0.3557 1.0671,0.17785 2.31207,0.35571 0.88925,0.17785 1.42281,0.17785 0.7114,0 1.60066,0.17785 0.71141,0.17785 1.24496,0.53355 0.71141,0.17786 1.42282,0.35571 1.77851,0.3557 3.91273,0.3557 2.31207,-0.17785 3.91273,1.06711 0.53356,0 0.88926,0 0.53356,-0.17785 1.06711,0 1.95637,0.53355 2.66777,0.3557 0.71141,-0.17785 1.24497,0 0.53355,0.17785 1.0671,0.53356 0.71141,0.17785 1.24497,0.3557 1.24496,0.3557 2.48992,0.17785 1.42281,-0.17785 2.84562,0.17785 1.24496,0.71141 1.60067,0.88926 0.53355,0 0.88925,0.17785 0.71141,0.53356 1.24497,0.53356 0.7114,0 1.0671,0.3557 1.95637,1.42281 3.55704,2.66777 1.77851,1.06711 3.20132,2.13422 1.24496,1.24496 1.77852,1.60067 0.71141,0.3557 1.06711,1.06711 1.06711,1.42281 2.31207,2.84562 1.24496,1.24496 2.48992,2.66777 1.42281,1.06711 2.13422,1.77852 2.13422,2.31207 3.55703,4.80199 1.42281,2.31207 2.84563,4.80199 0,0.71141 0.17785,1.06711 0.3557,0.355706 0.17785,1.244964 0.88926,1.067109 1.42281,2.489922 0.71141,1.244961 1.42281,2.667773 0.88926,1.778516 0.88926,2.845625 0.17785,0.889258 0.53356,1.778516 0.17785,0.711406 0.3557,1.422812 0.3557,0.711406 0.71141,1.422813 0.3557,1.956367 0.88925,3.201328 0.71141,1.24496 0.88926,2.134218 0.17785,2.134219 0.3557,3.023477 0.35571,0.889258 0.53356,1.600664 0.3557,1.956367 0.17785,4.446289 -0.17785,2.31207 -0.17785,4.268437 z m -18.31871,-3.557031 q 0,-0.889258 -0.17785,-1.778516 -0.17785,-0.889257 -0.35571,-1.244961 -0.3557,-1.067109 -0.53355,-1.422812 -0.17785,-0.355703 -0.17785,-0.533555 -0.17785,-1.778515 -0.35571,-2.489922 0,-0.889257 -0.17785,-1.422812 -0.17785,-0.533555 -0.53355,-1.422812 -0.17785,-1.06711 -0.35571,-1.244961 -0.3557,-0.355703 -0.7114,-0.889258 -0.17785,-0.711406 -0.3557,-0.889258 -0.88926,-0.889258 -1.24497,-2.31207 -0.3557,-1.600664 -0.88925,-2.845625 -0.88926,-1.422813 -1.06711,-1.956367 -0.17785,-0.711406 -0.17785,-1.06711 -0.71141,-0.889257 -1.60067,-1.422812 -0.7114,-0.533555 -0.7114,-1.956367 -0.88926,-0.355703 -1.60067,-1.06711 -0.7114,-0.889257 -1.42281,-1.422812 -0.53356,-0.889258 -0.88926,-1.067109 -0.3557,-0.355703 -0.7114,-0.711408 -1.24497,-1.06711 -1.77852,-1.42281 -0.53356,-0.3557 -0.71141,-1.24496 -1.95636,-0.53356 -3.20132,-1.60067 -1.24497,-1.24496 -3.20133,-1.77851 -0.53356,-0.53356 -0.88926,-1.24496 -0.17785,-0.71141 -1.06711,-0.88926 -0.88926,-0.17785 -1.95637,0 -1.06711,0.17785 -1.95636,0 -0.88926,-0.17785 -1.42282,-0.53355 -0.53355,-0.53356 -1.24496,-0.71141 -0.53355,-0.17785 -1.06711,0.17785 -0.53355,0.17785 -1.24496,0.17785 -0.88926,-0.17785 -1.60066,-0.53355 -0.53356,-0.53356 -1.06711,-0.71141 -1.77852,-0.17785 -3.55703,0 -1.77852,0.17785 -3.73489,0 -1.42281,-0.3557 -2.84562,-0.53355 -1.24496,-0.35571 -2.66777,-0.53356 -1.60067,0.3557 -2.13422,0.17785 -0.53356,-0.17785 -0.88926,-0.17785 -2.48992,0 -3.55703,0.17785 -0.88926,0 -2.13422,0 -0.71141,0 -1.42281,-0.17785 -0.53356,-0.3557 -1.06711,-0.17785 -1.42281,0.3557 -1.60067,0.3557 -0.17785,-0.17785 -0.53355,-0.17785 -0.53355,0.17785 -1.24496,0.3557 -0.71141,0 -1.42281,0.17786 -0.88926,3.55703 -0.71141,6.93621 0.3557,3.20133 -0.17785,6.580505 -0.53356,1.956367 -0.53356,3.023476 0.17786,1.06711 0.17786,1.956367 0,0.889258 -0.17786,1.778516 -0.17785,0.711406 -0.17785,1.422812 0,0.533555 0.17785,1.244961 0.17786,0.711407 0.35571,1.600664 0,1.422813 -0.17785,3.023477 -0.17786,1.600664 0,3.023476 0.17785,1.244961 0.3557,2.489922 0.3557,1.06711 0.7114,2.134219 0.35571,1.422812 0.53356,2.845625 0.17785,1.244961 0.3557,2.667773 0.17785,2.31207 -0.3557,4.268438 -0.3557,1.956367 -0.3557,3.557031 0,0.889257 0.17785,1.422812 0.3557,0.533555 0.3557,1.244961 -0.3557,0.711406 -0.53355,1.422813 -0.17786,0.533554 -0.35571,1.422812 -0.17785,0.889258 -0.17785,1.778516 0,0.889257 -0.17785,1.778515 -0.3557,3.557031 -0.53355,8.00332 0,4.268438 -1.24497,6.758359 0.88926,1.600664 0.35571,3.557032 -0.35571,1.778515 -0.53356,3.734882 0,0.889258 0.17785,1.600664 0.17786,0.711407 0.17786,1.600664 -0.17786,0.711407 -0.53356,1.244961 -0.17785,0.533555 -0.17785,1.422813 0,0.889257 0.17785,1.422812 0.3557,0.533555 0.3557,1.422813 0.88926,0.177851 1.95637,0.177851 1.24496,-0.177851 1.95637,0 1.77851,0.177852 2.84562,0.533555 1.06711,0.177851 1.95637,0.177851 2.66777,-0.889257 3.73488,-0.889257 1.06711,-0.177852 1.95637,-0.533555 1.06711,-0.355703 1.77852,-0.533555 0.7114,-0.177851 1.42281,-0.533554 1.06711,-0.889258 1.60066,-0.889258 0.53356,0 0.88926,-0.177852 2.66777,-1.067109 4.80199,-1.422812 2.31207,-0.355703 3.73489,-0.889258 1.42281,-0.533555 2.66777,-1.244961 1.24496,-0.711406 3.20133,-0.355703 0.88925,-1.067109 2.13422,-1.067109 1.24496,-0.177852 2.48992,-0.533555 0.88926,-0.355703 2.13422,-0.889258 1.24496,-0.711406 1.95636,-1.067109 0.71141,-0.355703 1.24496,-0.533555 0.71141,-0.177851 1.60067,-0.177851 1.95637,-2.489922 4.62414,-4.090586 2.66777,-1.778516 4.09058,-4.801992 0.88926,0.177851 1.06711,-0.177852 0.17786,-0.533555 1.06711,-0.533555 1.95637,-3.557031 4.26844,-6.402656 2.31207,-3.023476 3.37918,-7.647617 0.3557,-0.533554 0.88926,-0.889257 0.53355,-0.533555 0.88926,-1.06711 -0.35571,-1.956367 0.17785,-3.557031 0.7114,-1.600664 0.88926,-3.379179 0,-1.06711 -0.17786,-1.600664 -0.17785,-0.711407 0,-1.422813 0,-0.533555 0.17786,-0.889258 0.3557,-0.533554 0.3557,-1.067109 z" /></g>
</g></g><g
   id="our_stories_define_us_in_"
   transform="translate(-585.2211,-201.62604)">
	<g
   class="st18 st19 st27"
   style="font-size:120px;font-family:Boogaloo-Regular;fill:#4bbcc0"
   id="text150"
   aria-label="our stories define us in"><path
     id="path83"
     style="font-style:normal;font-variant:normal;font-weight:normal;font-stretch:normal;font-size:120px;font-family:Boogaloo;-inkscape-font-specification:Boogaloo"
     d="m 882.9861,338.29999 q 0,13.56 6,13.56 2.64,0 4.44,-7.56 1.8,-7.68 1.8,-14.64 0,-15.36 -5.04,-15.36 -3.24,0 -5.28,8.28 -1.92,8.16 -1.92,15.72 z m -14.04,-1.08 q 0,-11.16 4.56,-21.84 2.4,-5.4 6.72,-8.76 4.44,-3.48 9.84,-3.48 5.4,0 9.24,2.52 3.96,2.4 6,6.48 3.96,8.04 3.96,17.52 0,13.08 -5.4,23.28 -5.28,10.08 -14.88,10.08 -20.04,0 -20.04,-25.8 z" /><path
     id="path85"
     style="font-style:normal;font-variant:normal;font-weight:normal;font-stretch:normal;font-size:120px;font-family:Boogaloo;-inkscape-font-specification:Boogaloo"
     d="m 955.4886,303.61999 -0.24,18.96 q 0,26.76 0.96,39.36 l -11.88,-1.2 q -0.36,-5.04 -1.56,-10.2 -6.6,9.72 -13.32,9.72 -6.6,0 -10.56,-4.56 -3.96,-4.56 -3.96,-12.6 0,-15.6 2.28,-37.2 l 13.92,1.32 q -2.16,20.52 -2.16,34.08 0,6.12 3.84,6.12 1.8,0 4.32,-4.92 2.64,-4.92 4.2,-11.88 -0.12,-2.64 -0.12,-6.24 0,-3.6 0.36,-21.96 z" /><path
     id="path87"
     style="font-style:normal;font-variant:normal;font-weight:normal;font-stretch:normal;font-size:120px;font-family:Boogaloo;-inkscape-font-specification:Boogaloo"
     d="m 989.19923,316.57999 q -5.04,0 -7.56,12.72 0.24,8.4 0.24,16.08 0,7.68 -0.48,17.28 l -13.92,-1.2 q 0.36,-17.64 0.36,-19.44 0,-22.2 -2.16,-33.96 l 9,0.96 q 0.84,3.48 1.92,6.12 5.88,-12.6 11.88,-12.6 4.92,0 8.64,4.32 l -3.12,11.04 q -1.92,-1.32 -4.8,-1.32 z" /><path
     id="path89"
     style="font-style:normal;font-variant:normal;font-weight:normal;font-stretch:normal;font-size:120px;font-family:Boogaloo;-inkscape-font-specification:Boogaloo"
     d="m 1054.1155,322.09999 q 0,-7.2 -3.6,-7.2 -1.8,0 -3.36,1.8 -1.44,1.68 -1.44,4.68 0,2.88 1.08,4.8 1.2,1.92 4.2,3.84 3.12,1.8 4.8,3 1.8,1.08 4.2,3.12 4.92,4.32 4.92,11.16 0,6.72 -5.16,10.92 -5.04,4.2 -11.4,4.2 -6.36,0 -11.52,-3.36 -5.04,-3.48 -8.16,-8.64 l 6.48,-7.32 q 4.8,8.28 10.08,8.28 1.8,0 3.12,-0.96 1.32,-1.08 1.32,-2.88 0,-3.84 -5.52,-7.08 -5.88,-3.24 -9.24,-7.2 -3.36,-3.96 -3.36,-11.16 0,-7.32 6,-13.08 6,-5.88 12.84,-5.88 6.96,0 10.92,4.8 4.08,4.68 4.08,12.72 0,3.24 -0.72,6.96 l -10.92,-0.96 q 0.36,-2.76 0.36,-4.56 z" /><path
     id="path91"
     style="font-style:normal;font-variant:normal;font-weight:normal;font-stretch:normal;font-size:120px;font-family:Boogaloo;-inkscape-font-specification:Boogaloo"
     d="m 1101.5942,309.73999 v 11.4 q -5.76,0 -8.88,0.12 -0.36,12 -0.36,40.32 l -14.16,-1.32 q 0,-21 0.36,-38.04 -1.8,0 -6.84,0.6 l -1.8,-9.84 q 2.88,-0.6 9,-1.56 0.24,-8.88 0.96,-25.92 l 14.28,1.32 q -0.72,11.88 -1.08,23.04 3,-0.12 8.52,-0.12 z" /><path
     id="path93"
     style="font-style:normal;font-variant:normal;font-weight:normal;font-stretch:normal;font-size:120px;font-family:Boogaloo;-inkscape-font-specification:Boogaloo"
     d="m 1118.7674,338.29999 q 0,13.56 6,13.56 2.64,0 4.44,-7.56 1.8,-7.68 1.8,-14.64 0,-15.36 -5.04,-15.36 -3.24,0 -5.28,8.28 -1.92,8.16 -1.92,15.72 z m -14.04,-1.08 q 0,-11.16 4.56,-21.84 2.4,-5.4 6.72,-8.76 4.44,-3.48 9.84,-3.48 5.4,0 9.24,2.52 3.96,2.4 6,6.48 3.96,8.04 3.96,17.52 0,13.08 -5.4,23.28 -5.28,10.08 -14.88,10.08 -20.04,0 -20.04,-25.8 z" /><path
     id="path95"
     style="font-style:normal;font-variant:normal;font-weight:normal;font-stretch:normal;font-size:120px;font-family:Boogaloo;-inkscape-font-specification:Boogaloo"
     d="m 1174.5899,316.57999 q -5.04,0 -7.56,12.72 0.24,8.4 0.24,16.08 0,7.68 -0.48,17.28 l -13.92,-1.2 q 0.36,-17.64 0.36,-19.44 0,-22.2 -2.16,-33.96 l 9,0.96 q 0.84,3.48 1.92,6.12 5.88,-12.6 11.88,-12.6 4.92,0 8.64,4.32 l -3.12,11.04 q -1.92,-1.32 -4.8,-1.32 z" /><path
     id="path97"
     style="font-style:normal;font-variant:normal;font-weight:normal;font-stretch:normal;font-size:120px;font-family:Boogaloo;-inkscape-font-specification:Boogaloo"
     d="m 1190.2836,302.65999 13.68,1.32 v 57.6 l -13.68,-1.32 z m 0.96,-21.12 13.44,1.56 -1.2,13.44 -13.44,-1.68 z" /><path
     id="path99"
     style="font-style:normal;font-variant:normal;font-weight:normal;font-stretch:normal;font-size:120px;font-family:Boogaloo;-inkscape-font-specification:Boogaloo"
     d="m 1232.443,351.25999 q 4.56,0 9.72,-8.76 l 9.12,5.4 q -2.28,3.96 -4.44,6.72 -2.04,2.76 -6.24,5.28 -4.2,2.52 -9.36,2.52 -7.56,0 -12.72,-6.36 -5.16,-6.48 -5.16,-17.4 0,-12.48 4.44,-23.28 2.4,-5.64 6.84,-9.12 4.56,-3.6 9.24,-3.6 4.8,0 7.68,1.56 2.88,1.44 4.56,3.36 1.8,1.8 3.12,5.4 1.32,3.6 1.8,5.88 0.6,2.28 0.96,6.6 0.48,5.76 0.48,10.44 -9.6,2.64 -24.84,4.8 0.36,4.8 1.68,7.68 1.32,2.88 3.12,2.88 z m 2.64,-36.84 q -2.64,0 -4.8,5.28 -2.04,5.28 -2.4,12.24 6.36,-1.32 11.04,-2.52 0,-15 -3.84,-15 z" /><path
     id="path101"
     style="font-style:normal;font-variant:normal;font-weight:normal;font-stretch:normal;font-size:120px;font-family:Boogaloo;-inkscape-font-specification:Boogaloo"
     d="m 1282.8655,322.09999 q 0,-7.2 -3.6,-7.2 -1.8,0 -3.36,1.8 -1.44,1.68 -1.44,4.68 0,2.88 1.08,4.8 1.2,1.92 4.2,3.84 3.12,1.8 4.8,3 1.8,1.08 4.2,3.12 4.92,4.32 4.92,11.16 0,6.72 -5.16,10.92 -5.04,4.2 -11.4,4.2 -6.36,0 -11.52,-3.36 -5.04,-3.48 -8.16,-8.64 l 6.48,-7.32 q 4.8,8.28 10.08,8.28 1.8,0 3.12,-0.96 1.32,-1.08 1.32,-2.88 0,-3.84 -5.52,-7.08 -5.88,-3.24 -9.24,-7.2 -3.36,-3.96 -3.36,-11.16 0,-7.32 6,-13.08 6,-5.88 12.84,-5.88 6.96,0 10.92,4.8 4.08,4.68 4.08,12.72 0,3.24 -0.72,6.96 l -10.92,-0.96 q 0.36,-2.76 0.36,-4.56 z" /><path
     id="path103"
     style="font-style:normal;font-variant:normal;font-weight:normal;font-stretch:normal;font-size:120px;font-family:Boogaloo;-inkscape-font-specification:Boogaloo"
     d="m 1355.2067,305.53999 0.12,-14.88 q 0,-8.28 -0.36,-18.84 l 14.04,1.2 q 0.24,8.52 0.24,30.96 0,22.32 -1.92,57.6 l -10.68,-0.96 q -0.36,-4.8 -0.72,-11.28 -5.16,10.32 -11.16,10.32 -9.24,0 -12.84,-5.76 -3.6,-5.76 -3.6,-16.68 0,-11.04 4.68,-22.8 4.8,-11.76 10.8,-11.76 5.4,0 11.4,2.88 z m 0.36,11.16 q -3,-2.28 -6,-2.28 -2.88,0 -5.04,7.8 -2.16,7.68 -2.16,16.08 0,8.4 4.08,8.4 1.56,0 4.2,-5.16 2.64,-5.28 4.8,-13.32 z" /><path
     id="path105"
     style="font-style:normal;font-variant:normal;font-weight:normal;font-stretch:normal;font-size:120px;font-family:Boogaloo;-inkscape-font-specification:Boogaloo"
     d="m 1396.5055,351.25999 q 4.56,0 9.72,-8.76 l 9.12,5.4 q -2.28,3.96 -4.44,6.72 -2.04,2.76 -6.24,5.28 -4.2,2.52 -9.36,2.52 -7.56,0 -12.72,-6.36 -5.16,-6.48 -5.16,-17.4 0,-12.48 4.44,-23.28 2.4,-5.64 6.84,-9.12 4.56,-3.6 9.24,-3.6 4.8,0 7.68,1.56 2.88,1.44 4.56,3.36 1.8,1.8 3.12,5.4 1.32,3.6 1.8,5.88 0.6,2.28 0.96,6.6 0.48,5.76 0.48,10.44 -9.6,2.64 -24.84,4.8 0.36,4.8 1.68,7.68 1.32,2.88 3.12,2.88 z m 2.64,-36.84 q -2.64,0 -4.8,5.28 -2.04,5.28 -2.4,12.24 6.36,-1.32 11.04,-2.52 0,-15 -3.84,-15 z" /><path
     id="path107"
     style="font-style:normal;font-variant:normal;font-weight:normal;font-stretch:normal;font-size:120px;font-family:Boogaloo;-inkscape-font-specification:Boogaloo"
     d="m 1427.008,306.49999 q 0,-16.2 4.8,-25.44 4.92,-9.36 12.48,-9.36 7.68,0 11.64,7.8 4.08,7.68 4.08,21.24 l -11.16,-1.2 q 0,-13.44 -4.2,-13.44 -3.6,0 -3.6,20.4 v 3.48 q 8.04,-0.6 13.08,-0.6 v 11.16 q -8.28,0 -12.96,0.6 0,18.36 1.32,40.8 l -14.04,-1.44 q -0.96,-16.56 -1.32,-37.44 -3.12,0.48 -4.32,0.84 l -2.52,-10.8 q 1.2,-0.36 6.72,-1.32 z" /><path
     id="path109"
     style="font-style:normal;font-variant:normal;font-weight:normal;font-stretch:normal;font-size:120px;font-family:Boogaloo;-inkscape-font-specification:Boogaloo"
     d="m 1461.2211,302.65999 13.68,1.32 v 57.6 l -13.68,-1.32 z m 0.96,-21.12 13.44,1.56 -1.2,13.44 -13.44,-1.68 z" /><path
     id="path111"
     style="font-style:normal;font-variant:normal;font-weight:normal;font-stretch:normal;font-size:120px;font-family:Boogaloo;-inkscape-font-specification:Boogaloo"
     d="m 1512.1405,302.77999 q 15.84,0 15.84,26.4 0,13.92 -1.56,29.52 l -14.04,-1.32 q 1.32,-13.68 1.32,-27.6 0,-14.04 -3.96,-14.04 -1.92,0 -4.92,9.72 -3,9.6 -3.72,18.84 0.24,4.92 0.96,17.76 l -14.04,-1.32 q -1.32,-16.92 -1.32,-29.76 0,-12.84 0.72,-23.04 l 8.88,0.96 q 0.24,0.96 1.8,7.8 6.96,-13.92 14.04,-13.92 z" /><path
     id="path113"
     style="font-style:normal;font-variant:normal;font-weight:normal;font-stretch:normal;font-size:120px;font-family:Boogaloo;-inkscape-font-specification:Boogaloo"
     d="m 1554.2399,351.25999 q 4.56,0 9.72,-8.76 l 9.12,5.4 q -2.28,3.96 -4.44,6.72 -2.04,2.76 -6.24,5.28 -4.2,2.52 -9.36,2.52 -7.56,0 -12.72,-6.36 -5.16,-6.48 -5.16,-17.4 0,-12.48 4.44,-23.28 2.4,-5.64 6.84,-9.12 4.56,-3.6 9.24,-3.6 4.8,0 7.68,1.56 2.88,1.44 4.56,3.36 1.8,1.8 3.12,5.4 1.32,3.6 1.8,5.88 0.6,2.28 0.96,6.6 0.48,5.76 0.48,10.44 -9.6,2.64 -24.84,4.8 0.36,4.8 1.68,7.68 1.32,2.88 3.12,2.88 z m 2.64,-36.84 q -2.64,0 -4.8,5.28 -2.04,5.28 -2.4,12.24 6.36,-1.32 11.04,-2.52 0,-15 -3.84,-15 z" /><path
     id="path115"
     style="font-style:normal;font-variant:normal;font-weight:normal;font-stretch:normal;font-size:120px;font-family:Boogaloo;-inkscape-font-specification:Boogaloo"
     d="m 1650.6449,303.61999 -0.24,18.96 q 0,26.76 0.96,39.36 l -11.88,-1.2 q -0.36,-5.04 -1.56,-10.2 -6.6,9.72 -13.32,9.72 -6.6,0 -10.56,-4.56 -3.96,-4.56 -3.96,-12.6 0,-15.6 2.28,-37.2 l 13.92,1.32 q -2.16,20.52 -2.16,34.08 0,6.12 3.84,6.12 1.8,0 4.32,-4.92 2.64,-4.92 4.2,-11.88 -0.12,-2.64 -0.12,-6.24 0,-3.6 0.36,-21.96 z" /><path
     id="path117"
     style="font-style:normal;font-variant:normal;font-weight:normal;font-stretch:normal;font-size:120px;font-family:Boogaloo;-inkscape-font-specification:Boogaloo"
     d="m 1684.1155,322.09999 q 0,-7.2 -3.6,-7.2 -1.8,0 -3.36,1.8 -1.44,1.68 -1.44,4.68 0,2.88 1.08,4.8 1.2,1.92 4.2,3.84 3.12,1.8 4.8,3 1.8,1.08 4.2,3.12 4.92,4.32 4.92,11.16 0,6.72 -5.16,10.92 -5.04,4.2 -11.4,4.2 -6.36,0 -11.52,-3.36 -5.04,-3.48 -8.16,-8.64 l 6.48,-7.32 q 4.8,8.28 10.08,8.28 1.8,0 3.12,-0.96 1.32,-1.08 1.32,-2.88 0,-3.84 -5.52,-7.08 -5.88,-3.24 -9.24,-7.2 -3.36,-3.96 -3.36,-11.16 0,-7.32 6,-13.08 6,-5.88 12.84,-5.88 6.96,0 10.92,4.8 4.08,4.68 4.08,12.72 0,3.24 -0.72,6.96 l -10.92,-0.96 q 0.36,-2.76 0.36,-4.56 z" /><path
     id="path119"
     style="font-style:normal;font-variant:normal;font-weight:normal;font-stretch:normal;font-size:120px;font-family:Boogaloo;-inkscape-font-specification:Boogaloo"
     d="m 1734.7367,302.65999 13.68,1.32 v 57.6 l -13.68,-1.32 z m 0.96,-21.12 13.44,1.56 -1.2,13.44 -13.44,-1.68 z" /><path
     id="path121"
     style="font-style:normal;font-variant:normal;font-weight:normal;font-stretch:normal;font-size:120px;font-family:Boogaloo;-inkscape-font-specification:Boogaloo"
     d="m 1785.6561,302.77999 q 15.84,0 15.84,26.4 0,13.92 -1.56,29.52 l -14.04,-1.32 q 1.32,-13.68 1.32,-27.6 0,-14.04 -3.96,-14.04 -1.92,0 -4.92,9.72 -3,9.6 -3.72,18.84 0.24,4.92 0.96,17.76 l -14.04,-1.32 q -1.32,-16.92 -1.32,-29.76 0,-12.84 0.72,-23.04 l 8.88,0.96 q 0.24,0.96 1.8,7.8 6.96,-13.92 14.04,-13.92 z" /></g>
</g><path
   class="st8"
   d="m 1497.8426,474.77396 c -0.4,-59.9 -1.2,-119.8 -2.5,-179.8 -0.9,-41.6 -1.6,-83.2 -2.9,-124.8 -1.5,-46.9 -4.2,-93.800005 -8.5,-140.500005 -1.3,-0.8 -2.8,-1.2 -4.3,-1.1 -8.3,-0.2 -16.6,-0.4 -24.9,-0.7 -20.6,-0.9 -41.2,-1.4 -61.8,-2 -22.6,-0.7 -45.2,-1.3 -67.8,-2 -24.8,-0.7 -49.5,-1.3 -74.3,-2 -27.4,-0.7 -54.9,-1.6 -82.3,-2 -28.9,-0.4 -57.9,-1.5 -86.8,-1.9 -35.8,-0.5 -71.5,-1.2 -107.29995,-2.1 -22.3,-0.5 -44.6,0 -66.9,-1 -22.9,-1 -45.9,-0.2 -68.9,-1 -28.1,-0.9 -56.2,-0.2 -84.3,-1 -38.9,-1.1 -77.9,-0.4 -116.8,-1 -42.6,-0.7 -85.2,-0.4 -127.8,-0.4 -88.4,0 -176.8,0.1 -265.2,0.3 -11.8,0 -23.6,0.9 -35.4,0.2 -2,-0.1 -4,-0.3 -6,-0.3 -35.5,0.2 -70.9,0.5 -106.399999,0.7 -23.1,0.1 -46.3,1 -69.4,2.1 -2.5,0.1 -5,0.1 -6.9,2.2 -3.2,15 -6,30 -7.2,45.3 -3.2,39.499995 -5.4999997,79.100005 -6.5999997,118.600005 -2,69.9 -3.3,139.8 -4.0999999,209.7 -1.1,94.4 -0.9,188.8 0.3999999,283.2 0.5,33.8 0.7,67.6 1.3,101.4 0.8,48.1 1.9,96.2 2.9,144.3 0.5,22.5 0.9,44.9 1.5,67.4 1.1,39.09994 2.1999997,78.19994 3.3999997,117.30004 0.9,29.7999 1.7,59.5999 2.5,89.4 0.9,31.9 1.9,63.9 2.8,95.8 0.9,4.8 0.3,9.5999 0.4,14.4 0,2.9 1.1,4.1 4.1,4.3 14.6,0.8 29.2,1.4 43.8,1.9 26.1,0.8 52.199999,1 78.299999,1.5 29,0.5 57.9,-0.4 86.9,0.5 18.6,0.6 37.3,-0.2 55.9,0.5 16.3,0.6 32.6,-0.1 48.9,0.5 19.3,0.7 38.6,-0.2 57.9,0.5 16.3,0.6 32.6,0 48.9,0.5 21.5,0.7 42.9,-0.1 64.4,0.5 25.3,0.7 50.6,-0.2 75.9,0.5 21.5,0.6 42.9,-0.1 64.4,0.5 25.9,0.7 51.9,-0.1 77.9,0.5 29.3,0.7 58.6,-0.1 87.9,0.5 37.4,0.7 74.9,-0.2 112.4,0.6 27.8,0.6 55.6,0.1 83.39995,0.4 65.9,0.8 131.8,-0.3 197.8,1 41,0.8 81.9,0.2 122.9,0.2 51.1,0 102.2,0 153.4,0 6.5,0 6.7,-0.4 6.8,-6.7 0.1,-6.3 -0.5,-13 0.3,-19.4 0.6,-28 1.3,-55.9 1.8,-83.9 1.4,-79.9001 3,-159.8 4.2,-239.70004 0.9,-56.8 1.4,-113.5 1.8,-170.3 0.5,-107.9 0.6,-215.7 0.1,-323.6 z m -20.9,-428.800005 c -2.8,66.700005 -2.1,133.500005 -1.8,200.300005 0.4,74.9 0.6,149.8 1.2,224.8 0.7,84.4 0.7,168.8 0.2,253.2 -0.4,77.6 -1.1,155.2 -2,232.8 -0.4,37.1 -1.1,74.20004 -1.8,111.40004 -1,51.6 -2,103.2 -3.2,154.8 -0.6,25.8 -1.4,51.6 -2,77.4 -0.1,3.6 -1,4.9 -4.8,4.9 -100.6,-0.2 -201.2,-0.3 -301.7,-0.4 -91.1,-0.2 -182.19995,-0.6 -273.29995,-0.9 -34.3,-0.1 -68.5,-0.1 -102.8,0 h -2.1 c -67.8,0 -164.5,-1.9 -231.7,-2 -47,-0.1 -93.9,-0.6 -140.9,-1 -35.1,-0.3 -70.3,-0.3 -105.4,-1 -45.3,-0.9 -90.6,-0.5 -135.9,-1 -40.5,-0.5 -80.899999,-0.8 -121.399999,-0.5 -4.1,0 -4.9,-1.4 -5,-5.1 -1.6,-55.4 -3.2,-110.8 -4.9,-166.2 -1.3,-43.6 -2.6,-87.2 -3.7,-130.80004 -1.5,-61.7 -2.9,-123.5 -4.2,-185.2 -0.9,-45.4 -1.5,-90.9 -2.1,-136.3 -0.5,-39.1 -1.3,-78.2 -1.2,-117.3 0,-70.6 0.3,-141.2 0.9,-211.7 0.3,-40 0.9,-79.9 2.1,-119.8 1.9,-61.1 3.1,-122.2 2.5,-183.300005 0.1,-5 -0.3,-10 -0.9,-14.9 -0.7,-4.5 1,-5.4 5,-5.2 8,0.5 16,0.8 24,0.7 142.499999,-1.8 285.099999,-2 427.599999,-1.7 41.1,0.1 82.3,0.2 123.4,0.4 39.1,0.2 78.3,0.6 117.4,1 51.9,0.6 103.9,1.2 155.8,2 40.3,0.6 80.6,1.2 120.79995,2 31.3,0.6 62.6,1.2 93.9,1.9 58.1,1.3 116.2,2.7 174.3,4.1 45.9,1.2 91.8,2.6 137.8,4 19.8,0.6 39.6,1.3 59.4,2 6.8,-0.3 6.8,-0.3 6.5,6.6 z"
   id="path153" />
<g
   id="g1220"
   transform="translate(1.0446771)"><g
     transform="translate(-387.05735,-201.62604)"
     id="ways">
	<g
   class="st18 st19 st20"
   style="font-size:100px;font-family:Boogaloo-Regular;fill:#4bbcc0"
   id="text98"
   transform="matrix(0.9992,-0.03996804,0.03996804,0.9992,1509.2697,740.0992)"
   aria-label="ways"><path
     id="path136"
     style="font-style:normal;font-variant:normal;font-weight:normal;font-stretch:normal;font-size:100px;font-family:Boogaloo;-inkscape-font-specification:Boogaloo"
     d="M 39.9,1.2 30.5,0.4 Q 28,-10.6 26,-20 23.5,-11.1 19.4,1.5 L 9,0.4 Q 2.9,-29.4 1.5,-46.3 l 11.4,1.1 q 1.6,21.9 3.2,33.4 3.6,-14.2 7.2,-32.6 l 7.7,0.7 q 1.2,16.1 3.7,29.4 3.5,-13.7 7.7,-35.6 l 10.8,1 Q 48.8,-27.8 39.9,1.2 Z" /><path
     id="path138"
     style="font-style:normal;font-variant:normal;font-weight:normal;font-stretch:normal;font-size:100px;font-family:Boogaloo;-inkscape-font-specification:Boogaloo"
     d="m 56.1625,-29.5 q 1.5,-7.8 5.7,-13.2 4.2,-5.5 11,-5.5 6.8,0 10,5.7 3.3,5.6 3.3,16 0,10.4 -1.2,28.7 l -8.4,-0.7 -0.8,-3.2 q -4.7,2.7 -9.6,2.7 -4.9,0 -8.1,-3.2 -3.2,-3.3 -3.2,-9.4 0,-6.1 6,-10.5 6.1,-4.4 14,-4.6 v -2.7 q 0,-7.9 -3.8,-7.9 -1.9,0 -3.5,2.7 -1.5,2.6 -2.2,6 z m 8.9,18.5 q 0,3.2 3.8,3.2 2.6,0 5.5,-1.2 l 0.2,-8.4 q -4.7,0.4 -7.1,2.4 -2.4,1.9 -2.4,4 z" /><path
     id="path140"
     style="font-style:normal;font-variant:normal;font-weight:normal;font-stretch:normal;font-size:100px;font-family:Boogaloo;-inkscape-font-specification:Boogaloo"
     d="m 119.325,-50.1 9.6,5.6 q -8.3,25.7 -17,68.2 l -11,-1 q 1.6,-7.9 5.3,-21.8 -9.6,-18.4 -12.1,-46.4 l 11.2,1.1 q 1.5,18.4 4.8,31.4 4.6,-21.4 9.2,-37.1 z" /><path
     id="path142"
     style="font-style:normal;font-variant:normal;font-weight:normal;font-stretch:normal;font-size:100px;font-family:Boogaloo;-inkscape-font-specification:Boogaloo"
     d="m 152.02031,-31.5 q 0,-6 -3,-6 -1.5,0 -2.8,1.5 -1.2,1.4 -1.2,3.9 0,2.4 0.9,4 1,1.6 3.5,3.2 2.6,1.5 4,2.5 1.5,0.9 3.5,2.6 4.1,3.6 4.1,9.3 0,5.6 -4.3,9.1 -4.2,3.5 -9.5,3.5 -5.3,0 -9.6,-2.8 -4.2,-2.9 -6.8,-7.2 l 5.4,-6.1 q 4,6.9 8.4,6.9 1.5,0 2.6,-0.8 1.1,-0.9 1.1,-2.4 0,-3.2 -4.6,-5.9 -4.9,-2.7 -7.7,-6 -2.8,-3.3 -2.8,-9.3 0,-6.1 5,-10.9 5,-4.9 10.7,-4.9 5.8,0 9.1,4 3.4,3.9 3.4,10.6 0,2.7 -0.6,5.8 l -9.1,-0.8 q 0.3,-2.3 0.3,-3.8 z" /></g>
</g><g
     style="font-weight:bold;font-size:190px;line-height:1.25;font-family:'Amatic SC';-inkscape-font-specification:'Amatic SC Bold';letter-spacing:5px;word-spacing:0px;fill:#f98707;fill-opacity:1;stroke:#f98707;stroke-width:5;stroke-miterlimit:4;stroke-dasharray:none;stroke-opacity:1"
     id="text322"
     aria-label="WONDERFUL"><path
       id="path145"
       style="font-style:normal;font-variant:normal;font-weight:bold;font-stretch:normal;font-size:190px;font-family:'Patrick Hand';-inkscape-font-specification:'Patrick Hand Bold';fill:#f98707;fill-opacity:1;stroke:#f98707;stroke-width:5;stroke-miterlimit:4;stroke-dasharray:none;stroke-opacity:1"
       d="m 320.56319,417.99992 q 3.99,0 5.51,5.7 -1.14,19.19 -2.47,27.36 -1.33,7.98 -2.28,14.06 -0.76,6.08 -1.14,8.36 -0.19,2.28 -1.52,9.31 -1.33,7.03 -2.85,14.06 -1.33,6.84 -1.71,8.17 -0.19,1.33 -3.42,17.1 -3.23,15.58 -4.94,19.19 -1.52,3.42 -5.51,3.42 -3.8,0 -6.08,-2.28 -8.74,-11.97 -16.53,-29.64 -1.9,-4.56 -4.37,-9.88 -2.28,-5.32 -3.42,-7.98 l -1.71,-3.99 q -3.99,6.84 -11.02,23.18 -7.03,16.34 -12.35,26.22 -3.42,4.37 -7.6,4.37 -8.74,0 -13.3,-46.55 0,-0.19 -0.38,-2.09 -0.19,-1.9 -0.76,-6.65 -0.38,-4.75 -1.14,-10.45 -0.57,-5.89 -4.75,-48.07 0,-3.8 2.85,-6.84 2.85,-3.23 6.27,-3.23 4.18,0 5.7,5.51 5.13,61.75 10.26,91.2 1.52,-2.66 7.79,-17.48 6.27,-15.01 11.4,-23.75 5.13,-8.93 9.88,-8.93 3.23,0 5.51,3.42 11.97,34.01 20.52,47.88 0.19,-2.09 2.28,-11.4 l 2.47,-12.16 q 0,-1.14 0.38,-3.23 0.57,-2.09 0.76,-3.99 0.38,-2.09 0.76,-3.8 l 2.09,-11.97 q 4.56,-28.12 5.7,-46.17 0.76,-3.23 3.42,-5.51 2.85,-2.47 5.7,-2.47 z" /><path
       id="path147"
       style="font-style:normal;font-variant:normal;font-weight:bold;font-stretch:normal;font-size:190px;font-family:'Patrick Hand';-inkscape-font-specification:'Patrick Hand Bold';fill:#f98707;fill-opacity:1;stroke:#f98707;stroke-width:5;stroke-miterlimit:4;stroke-dasharray:none;stroke-opacity:1"
       d="m 391.34772,418.37992 q 13.3,0 22.61,8.55 18.24,16.34 18.24,51.68 0,35.15 -20.14,55.29 -10.45,10.07 -24.13,11.02 -18.05,0 -28.12,-12.35 -10.07,-12.35 -14.44,-27.55 -4.18,-15.39 -4.18,-29.64 0,-24.32 11.59,-40.09 12.16,-16.91 38.57,-16.91 z m -1.33,15.77 q -25.46,0 -31.73,24.13 -1.9,6.46 -1.9,16.53 0,10.07 3.8,23.37 5.13,17.86 15.2,25.08 5.89,4.56 14.25,4.56 8.36,0 15.01,-7.41 6.65,-7.6 9.12,-19.19 2.47,-11.59 2.47,-23.37 0,-20.9 -6.08,-32.3 -5.89,-11.4 -20.14,-11.4 z" /><path
       id="path149"
       style="font-style:normal;font-variant:normal;font-weight:bold;font-stretch:normal;font-size:190px;font-family:'Patrick Hand';-inkscape-font-specification:'Patrick Hand Bold';fill:#f98707;fill-opacity:1;stroke:#f98707;stroke-width:5;stroke-miterlimit:4;stroke-dasharray:none;stroke-opacity:1"
       d="m 524.33944,420.08992 q 1.9,-1.14 4.94,-1.14 3.04,0 5.51,2.66 2.47,2.47 2.47,5.89 0,74.29 0.57,89.87 0.76,15.39 0.76,15.77 0,4.18 -2.28,7.98 -2.28,3.61 -5.13,3.61 -2.66,0 -4.18,-0.19 -1.33,-0.38 -2.47,-0.76 -1.14,-0.38 -2.28,-1.52 l -1.9,-1.9 q -0.76,-0.76 -2.09,-2.85 -1.14,-2.28 -1.9,-3.61 -0.76,-1.33 -2.47,-4.56 -1.52,-3.42 -7.03,-13.68 -5.32,-10.26 -9.69,-18.43 -15.01,-27.55 -27.93,-43.51 0,61.75 -3.42,85.69 -0.57,4.56 -7.03,4.56 -3.04,0 -5.13,-1.52 -1.9,-1.52 -1.9,-4.94 0,-3.42 1.33,-37.62 1.52,-34.2 1.52,-42.56 0,-8.55 0,-10.83 0,-13.68 2.09,-15.39 2.09,-1.71 4.37,-1.71 10.45,0 31.92,34.2 4.18,6.65 15.96,27.93 11.78,21.09 14.06,26.03 l -2.28,-78.85 q 0,-16.34 3.61,-18.62 z" /><path
       id="path151"
       style="font-style:normal;font-variant:normal;font-weight:bold;font-stretch:normal;font-size:190px;font-family:'Patrick Hand';-inkscape-font-specification:'Patrick Hand Bold';fill:#f98707;fill-opacity:1;stroke:#f98707;stroke-width:5;stroke-miterlimit:4;stroke-dasharray:none;stroke-opacity:1"
       d="m 561.11694,538.64992 q -2.85,-2.09 -2.85,-4.56 0,-2.66 2.09,-4.37 -3.61,-27.17 -3.61,-62.32 0,-10.64 0.95,-41.42 0.95,-2.85 3.8,-4.94 3.04,-2.09 5.7,-2.09 2.66,0 3.23,0.19 27.17,7.6 47.31,29.45 20.14,21.66 21.09,52.06 0,33.44 -27.74,41.99 -7.98,2.47 -16.91,2.47 -8.74,0 -15.39,-1.33 0.76,1.52 0.76,3.99 0,2.66 -3.23,4.94 -3.04,2.47 -7.41,2.47 -4.18,0 -5.32,-5.13 z m 11.4,-72.77 q 0,33.25 3.8,63.08 4.56,1.33 15.39,1.33 10.83,0 20.71,-3.61 10.07,-3.61 10.64,-10.64 0.57,-5.32 0.57,-8.17 0,-24.7 -13.3,-43.7 -13.11,-19 -36.86,-28.88 -0.95,22.42 -0.95,30.59 z" /><path
       id="path154"
       style="font-style:normal;font-variant:normal;font-weight:bold;font-stretch:normal;font-size:190px;font-family:'Patrick Hand';-inkscape-font-specification:'Patrick Hand Bold';fill:#f98707;fill-opacity:1;stroke:#f98707;stroke-width:5;stroke-miterlimit:4;stroke-dasharray:none;stroke-opacity:1"
       d="m 655.53272,479.36992 q -2.66,-1.71 -2.66,-4.94 0,-3.23 2.09,-5.89 -0.76,-19 -0.76,-40.09 1.14,-4.56 3.42,-6.65 2.47,-2.09 7.03,-2.66 25.08,1.14 54.34,1.14 7.22,1.52 7.22,6.27 0,7.98 -15.58,9.31 -4.18,0.19 -9.12,0.19 h -12.35 q -3.61,0 -19.95,-1.52 0,23.75 0.76,32.68 10.07,0.19 38.76,0.19 6.84,1.33 6.84,6.27 0,4.75 -5.51,7.41 -0.57,0.38 -2.09,0.76 l -32.87,-0.57 q -3.04,0 -4.94,0.38 l 0.76,32.68 q 0,11.02 -0.57,15.77 l 44.08,-0.57 q 6.08,0.95 6.08,5.13 0,2.85 -2.66,5.7 -2.47,2.85 -5.89,3.61 l -48.64,0.76 q -4.37,0 -6.08,-1.52 -1.71,-1.71 -1.71,-5.51 0.76,-5.32 0.76,-17.1 v -13.3 z" /><path
       id="path156"
       style="font-style:normal;font-variant:normal;font-weight:bold;font-stretch:normal;font-size:190px;font-family:'Patrick Hand';-inkscape-font-specification:'Patrick Hand Bold';fill:#f98707;fill-opacity:1;stroke:#f98707;stroke-width:5;stroke-miterlimit:4;stroke-dasharray:none;stroke-opacity:1"
       d="m 756.55991,536.55992 q 0,3.42 -3.04,6.27 -3.04,2.66 -6.65,2.66 -3.42,0 -4.75,-4.56 -0.57,-25.08 -0.57,-49.97 l -0.57,-47.88 q 0,-14.44 12.73,-19.76 10.26,-4.75 24.32,-4.75 7.22,0 15.39,3.61 8.36,3.42 14.82,10.26 6.65,6.65 6.65,14.63 0,7.79 -7.22,16.91 -7.22,8.93 -17.86,15.96 -10.64,6.84 -20.71,10.26 17.67,12.35 30.78,26.6 13.11,14.06 13.11,21.85 0,2.47 -2.47,4.75 -2.47,2.09 -6.08,2.09 -3.42,0 -5.89,-3.04 -4.18,-10.07 -15.96,-21.09 -11.59,-11.21 -27.17,-21.28 z m -0.76,-57 q 12.73,-0.57 28.5,-10.64 15.96,-10.07 15.96,-18.05 0,-8.17 -7.98,-12.54 -7.98,-4.37 -19,-4.37 -10.83,0 -17.29,2.66 -0.19,9.69 -0.19,42.94 z" /><path
       id="path158"
       style="font-style:normal;font-variant:normal;font-weight:bold;font-stretch:normal;font-size:190px;font-family:'Patrick Hand';-inkscape-font-specification:'Patrick Hand Bold';fill:#f98707;fill-opacity:1;stroke:#f98707;stroke-width:5;stroke-miterlimit:4;stroke-dasharray:none;stroke-opacity:1"
       d="m 864.94366,421.60992 21.09,-0.38 q 14.06,0 14.06,7.41 0,2.66 -0.76,3.8 -0.76,0.95 -1.14,1.52 -0.38,0.57 -1.52,0.95 -2.28,0.76 -3.8,0.95 -1.52,0.19 -2.09,0.19 -2.09,0.38 -7.03,0.57 -4.94,0.19 -14.44,0.19 -9.31,0 -22.99,-0.76 v 34.96 h 38.76 q 2.09,0 3.8,1.9 1.9,1.9 1.9,4.18 0,8.74 -7.41,8.74 h -37.05 l 0.76,49.78 q 0,9.69 -6.65,9.69 -6.46,0 -7.6,-8.74 -0.57,-2.85 -0.76,-48.26 0,-45.6 -0.38,-52.44 -7.03,0.76 -7.03,-7.98 0,-2.28 1.9,-4.94 1.9,-2.85 3.23,-3.04 1.52,-0.19 3.61,-0.19 2.28,0 10.83,0.76 11.78,1.14 20.71,1.14 z" /><path
       id="path160"
       style="font-style:normal;font-variant:normal;font-weight:bold;font-stretch:normal;font-size:190px;font-family:'Patrick Hand';-inkscape-font-specification:'Patrick Hand Bold';fill:#f98707;fill-opacity:1;stroke:#f98707;stroke-width:5;stroke-miterlimit:4;stroke-dasharray:none;stroke-opacity:1"
       d="m 983.56366,421.22992 q 2.66,-3.04 5.89,-3.04 3.23,0 5.51,3.23 3.23,16.53 3.23,37.05 v 14.44 q 0,16.34 -0.57,19.38 -0.57,2.85 -1.14,6.46 -0.57,3.61 -1.14,5.51 -0.38,1.9 -1.33,5.13 -2.09,7.03 -5.89,12.54 -5.7,10.64 -15.01,16.72 -9.31,6.08 -19,6.08 -9.5,0 -19.76,-8.36 -10.07,-8.36 -16.53,-20.9 -9.88,-19.38 -9.88,-44.65 0,-8.93 2.66,-42.37 1.33,-3.04 3.99,-5.32 2.85,-2.47 5.7,-2.47 4.18,0 5.13,5.7 -2.66,32.87 -2.66,41.61 0,20.9 8.17,37.05 5.13,10.64 12.54,17.86 7.6,7.03 14.82,7.03 11.97,0 20.52,-18.62 3.61,-6.46 3.99,-20.71 0,-3.8 0.38,-5.32 l 0.38,-25.08 q 0,-17.48 -2.66,-31.92 0,-3.99 2.66,-7.03 z" /><path
       id="path162"
       style="font-style:normal;font-variant:normal;font-weight:bold;font-stretch:normal;font-size:190px;font-family:'Patrick Hand';-inkscape-font-specification:'Patrick Hand Bold';fill:#f98707;fill-opacity:1;stroke:#f98707;stroke-width:5;stroke-miterlimit:4;stroke-dasharray:none;stroke-opacity:1"
       d="m 1016.0721,518.31992 0.19,-14.82 1.71,-79.42 q 0,-2.28 2.47,-3.61 2.47,-1.33 6.27,-1.33 9.12,0 9.12,6.46 0,2.09 -2.28,31.92 -2.09,29.83 -2.09,35.72 0,0 0,20.14 0,14.25 1.9,15.58 2.85,0.95 6.65,0.95 l 27.36,-1.9 q 8.93,0 8.93,6.46 0,5.13 -4.94,7.6 -4.75,2.28 -9.5,2.66 -4.75,0.19 -11.59,0.19 -29.83,0 -32.3,-1.9 -1.33,-1.14 -1.52,-8.55 -0.19,-7.6 -0.38,-10.64 0,-3.04 0,-5.51 z" /></g></g></svg>
