<?xml version="1.0" encoding="UTF-8" standalone="no"?>
<svg
   xmlns:dc="http://purl.org/dc/elements/1.1/"
   xmlns:cc="http://creativecommons.org/ns#"
   xmlns:rdf="http://www.w3.org/1999/02/22-rdf-syntax-ns#"
   xmlns:svg="http://www.w3.org/2000/svg"
   xmlns="http://www.w3.org/2000/svg"
   xmlns:sodipodi="http://sodipodi.sourceforge.net/DTD/sodipodi-0.dtd"
   xmlns:inkscape="http://www.inkscape.org/namespaces/inkscape"
   inkscape:version="1.0 (4035a4f, 2020-05-01)"
   sodipodi:docname="frame3-n.svg"
   id="Capa_1"
   data-name="Capa 1"
   viewBox="-2 0 360 219.38"
   version="1.1">
  <sodipodi:namedview
     inkscape:current-layer="Capa_1"
     inkscape:window-maximized="0"
     inkscape:window-y="23"
     inkscape:window-x="0"
     inkscape:cy="116.78"
     inkscape:cx="181.195"
     inkscape:zoom="2.5062478"
     showgrid="false"
     id="namedview78"
     inkscape:window-height="841"
     inkscape:window-width="1331"
     inkscape:pageshadow="2"
     inkscape:pageopacity="0"
     guidetolerance="10"
     gridtolerance="10"
     objecttolerance="10"
     borderopacity="1"
     bordercolor="#666666"
     pagecolor="#ffffff" />
  <metadata
     id="metadata101">
    <rdf:RDF>
      <cc:Work
         rdf:about="">
        <dc:format>image/svg+xml</dc:format>
        <dc:type
           rdf:resource="http://purl.org/dc/dcmitype/StillImage" />
        <dc:title>3</dc:title>
      </cc:Work>
    </rdf:RDF>
  </metadata>
  <defs
     id="defs29">
    <style
       id="style27">.cls-1{fill:#fff;}.cls-2,.cls-3,.cls-4{isolation:isolate;}.cls-2{font-size:25.79px;}.cls-2,.cls-4{fill:#4bbcc0;font-family:Boogaloo-Regular, Boogaloo;}.cls-3{font-size:46.94px;font-family:ChelseaMarket-Regular, Chelsea Market;}.cls-3,.cls-6{fill:#fdc700;}.cls-4{font-size:25.78px;}.cls-5{fill:#fa8807;stroke:#fa8807;stroke-miterlimit:10;stroke-width:0.5px;}</style>
  </defs>
  <title
     id="title31">3</title>
  <path
     class="cls-1"
     d="m 353.31,3.2 q -0.07,46.68 -0.34,93.37 -0.32,58.65 -1,117.32 -139,0.4 -278.11,-1.46 C 60.44,212.24 47,212.13 33.57,211.99 25.66,211.91 17.71,211.73 9.76,211.93 8.35,142.35 6.98,72.78 6.02,3.2 Z"
     id="path33" />
  <g
     transform="translate(-28.88,-16.35)"
     id="ways">
    <g
       aria-label="ways"
       transform="rotate(-2.29,4015.4143,-7419.7328)"
       id="text35"
       style="font-size:25.79px;font-family:Boogaloo-Regular, Boogaloo;isolation:isolate;fill:#4bbcc0"
       class="cls-2">
      <path
         d="M 10.29021,0.30948001 7.8659503,0.10316 q -0.64475,-2.8369001 -1.1605501,-5.2611602 -0.64475,2.2953101 -1.70214,5.54485021 L 2.3211001,0.10316 Q 0.74791003,-7.5822603 0.38685001,-11.94077 l 2.94006009,0.28369 q 0.41264,5.6480098 0.82528,8.6138599 0.9284401,-3.6621801 1.8568801,-8.4075399 l 1.9858301,0.18053 q 0.30948,4.1521897 0.95423,7.5822599 0.90265,-3.5332302 1.9858297,-9.1812399 l 2.78532,0.2579 q -1.13476,5.4416897 -3.43007,12.92079001 z"
         style="font-size:25.79px;font-family:Boogaloo-Regular, Boogaloo;isolation:isolate;fill:#4bbcc0"
         id="path103" />
      <path
         d="m 14.484309,-7.6080503 q 0.38685,-2.01162 1.47003,-3.4042797 1.08318,-1.41845 2.8369,-1.41845 1.75372,0 2.579,1.47003 0.85107,1.4442397 0.85107,4.1263998 0,2.6821601 -0.30948,7.40173022 l -2.16636,-0.18053001 -0.20632,-0.82528003 q -1.21213,0.69633003 -2.47584,0.69633003 -1.26371,0 -2.08899,-0.82528003 -0.82528,-0.85107008 -0.82528,-2.42426008 0,-1.5731901 1.5474,-2.7079501 1.57319,-1.13476 3.6106,-1.18634 v -0.6963301 q 0,-2.03741 -0.98002,-2.03741 -0.49001,0 -0.90265,0.69633 -0.38685,0.67054 -0.56738,1.5474 z m 2.29531,4.7711502 q 0,0.82528 0.98002,0.82528 0.67054,0 1.41845,-0.30948 l 0.05158,-2.1663601 q -1.21213,0.10316 -1.83109,0.6189601 -0.61896,0.49001 -0.61896,1.0316 z"
         style="font-size:25.79px;font-family:Boogaloo-Regular, Boogaloo;isolation:isolate;fill:#4bbcc0"
         id="path105" />
      <path
         d="m 30.773919,-12.92079 2.47584,1.44424 q -2.14057,6.6280298 -4.3843,17.5887802 l -2.8369,-0.2579 q 0.41264,-2.0374101 1.36687,-5.62222019 -2.47584,-4.74536021 -3.12059,-11.96656001 l 2.88848,0.28369 q 0.38685,4.7453598 1.23792,8.0980599 1.18634,-5.5190602 2.37268,-9.5680899 z"
         style="font-size:25.79px;font-family:Boogaloo-Regular, Boogaloo;isolation:isolate;fill:#4bbcc0"
         id="path107" />
      <path
         d="m 39.206041,-8.1238503 q 0,-1.5474 -0.7737,-1.5474 -0.38685,0 -0.72212,0.38685 -0.30948,0.36106 -0.30948,1.00581 0,0.61896 0.23211,1.0316 0.2579,0.4126401 0.90265,0.8252801 0.67054,0.38685 1.0316,0.64475 0.38685,0.23211 0.90265,0.67054 1.05739,0.9284401 1.05739,2.3984701 0,1.4442401 -1.10897,2.34689009 -1.08318,0.90265003 -2.45005,0.90265003 -1.36687,0 -2.47584,-0.72212003 -1.08318,-0.74791002 -1.75372,-1.85688009 l 1.39266,-1.57319 q 1.0316,1.77951 2.16636,1.77951 0.38685,0 0.67054,-0.20632 0.28369,-0.23211 0.28369,-0.61896 0,-0.82528 -1.18634,-1.52161 -1.26371,-0.6963301 -1.98583,-1.5474001 -0.72212,-0.85107 -0.72212,-2.3984701 0,-1.57319 1.2895,-2.8111097 1.2895,-1.26371 2.75953,-1.26371 1.49582,0 2.34689,1.0316 0.87686,1.00581 0.87686,2.7337397 0,0.69633 -0.15474,1.4958201 l -2.34689,-0.2063201 q 0.07737,-0.59317 0.07737,-0.98002 z"
         style="font-size:25.79px;font-family:Boogaloo-Regular, Boogaloo;isolation:isolate;fill:#4bbcc0"
         id="path109" />
    </g>
  </g>
  <path
     d="m 280.39,78.12 c -0.87,1.29 -1.7,2.63 -2.65,3.87 a 13.12,13.12 0 0 1 -11.62,5.66 56.61,56.61 0 0 1 -6.22,-0.69 19.29,19.29 0 0 0 -5.2,-0.29 12.36,12.36 0 0 0 -8.76,5.16 c -0.21,0.25 -0.42,0.54 -0.62,0.82 a 1.2,1.2 0 0 1 -1.81,0.23 1.12,1.12 0 0 1 -0.25,-1.77 c 3,-4.26 7,-6.91 12.37,-7.09 2.8,-0.11 5.49,0.56 8.24,0.87 6.6,0.75 10.13,-1 13.43,-6.75 0.1,-0.18 0.21,-0.36 0.31,-0.57 0.88,-1.54 1.78,-1.62 2.86,-0.23 a 7.4,7.4 0 0 0 -0.08,0.78 z"
     id="path38" />
  <path
     d="m 260.19,62.35 a 47,47 0 0 1 -8.07,-1.21 7.49,7.49 0 0 0 -6.49,1.9 19.68,19.68 0 0 0 -3.9,4.72 c -0.54,0.88 -1.23,1.26 -2.11,0.72 -0.88,-0.54 -0.59,-1.34 -0.08,-2.08 a 27.67,27.67 0 0 1 4.08,-5.06 10.26,10.26 0 0 1 10.05,-2.52 c 3.76,0.93 7.5,1.54 11.29,0.13 a 26.79,26.79 0 0 0 7.39,-4.46 l 1.08,-0.9 a 1.2,1.2 0 0 1 1.91,-0.06 1.26,1.26 0 0 1 -0.15,2 30,30 0 0 1 -8,5.36 19.55,19.55 0 0 1 -7,1.46 z"
     id="path40" />
  <path
     d="m 253.97,75.52 a 5.08,5.08 0 0 0 0,-0.78 c -0.19,-3.35 -0.23,-6.72 -1.49,-9.92 -0.36,-0.93 -0.88,-1.83 -2,-2 a 2.8,2.8 0 0 0 -2.65,1.47 10.06,10.06 0 0 0 -1.5,4.31 c -0.69,4.43 0,8.86 0.11,13.27 a 1.19,1.19 0 0 0 1.32,1.26 1.25,1.25 0 0 0 1.24,-1.47 c -0.09,-1.44 -0.19,-2.88 -0.23,-4.33 -0.09,-2.14 -0.58,-1.93 1.79,-2.45 0.9,-0.18 0.8,0.19 0.8,0.73 0,1.49 0.08,3 0.05,4.48 0,0.93 0.23,1.73 1.21,1.75 0.98,0.02 1.4,-0.77 1.4,-1.75 v -4.55 c 0,0 -0.05,0 -0.05,-0.02 z m -3.53,-3.2 -1.83,0.41 c 0.11,-2.42 0.17,-4.74 1.37,-7.16 a 21.87,21.87 0 0 1 1.14,5.77 0.76,0.76 0 0 1 -0.68,0.98 z"
     id="path42" />
  <path
     d="m 258.38,70.93 c -0.05,2.89 0.11,5.62 0.26,8.38 a 3.55,3.55 0 0 1 -0.07,1.26 1.18,1.18 0 0 1 -1.37,0.88 1.13,1.13 0 0 1 -1.08,-1.09 92.87,92.87 0 0 1 -0.23,-12.26 c 0,-1 0.23,-2.22 1.44,-2.45 1.21,-0.23 1.76,0.82 2.27,1.7 a 4.2,4.2 0 0 0 1,1.44 10.86,10.86 0 0 1 0.77,-3.92 c 0.34,-0.77 0.88,-1.28 1.65,-1 a 1.32,1.32 0 0 1 0.73,2 9.57,9.57 0 0 0 -0.44,5.77 c 0.36,2.4 0.8,4.79 1.18,7.19 a 7.78,7.78 0 0 1 0.11,1.52 1.26,1.26 0 0 1 -1.29,1.31 1.19,1.19 0 0 1 -1.29,-1.28 c -0.08,-3 -1.32,-5.6 -2.66,-8.2 a 3.88,3.88 0 0 0 -0.98,-1.25 z"
     id="path44" />
  <path
     d="m 272.61,66.55 a 6,6 0 0 0 -1.68,-2.22 2.69,2.69 0 0 0 -3.19,-0.41 c -2.25,1.24 -2.35,1.49 -2.12,3.38 a 65.43,65.43 0 0 1 0.7,7.44 17.57,17.57 0 0 0 0.41,5 c 0.46,1.75 1.39,2.37 3.2,2.22 a 4.19,4.19 0 0 0 3.33,-2.12 8.41,8.41 0 0 0 1.15,-3.63 18.92,18.92 0 0 0 -1.8,-9.66 z m -1.14,11 a 3.46,3.46 0 0 1 -0.49,1 1.4,1.4 0 0 1 -1.36,0.77 c -0.67,-0.1 -0.49,-0.82 -0.54,-1.29 a 17.16,17.16 0 0 1 -0.16,-4.09 c -0.18,-1.91 -0.38,-4.21 -0.59,-6.47 0,-0.49 -0.16,-0.91 0.45,-1.16 0.61,-0.25 0.84,0.25 1,0.62 a 14.22,14.22 0 0 1 1.69,10.6 z"
     id="path46" />
  <g
     transform="translate(-28.88,-16.35)"
     id="_WIERD"
     data-name=" WIERD">
    <g
       aria-label="WEIRD"
       transform="translate(98.45,108.13)"
       id="text48"
       style="font-size:46.94px;font-family:ChelseaMarket-Regular, 'Chelsea Market';isolation:isolate;fill:#fdc700"
       class="cls-3">
      <path
         d="m 42.080975,-32.867167 q -0.09168,0.366719 -0.275039,0.733437 -0.137519,0.366719 -0.275039,0.687598 -0.137519,0.366719 -0.275039,0.687598 -0.09168,0.320879 -0.275039,0.687597 -0.04584,0.504239 -0.183359,1.054317 -0.13752,0.504238 -0.275039,1.054316 -0.09168,0.366719 -0.18336,0.458399 -0.04584,0.09168 -0.04584,0.183359 -0.09168,0.412559 -0.09168,0.779277 0,0.320879 -0.13752,0.687598 -0.137519,0.229199 -0.137519,0.366719 0,0.137519 -0.04584,0.229199 -0.09168,0.366719 -0.13752,0.595918 -0.04584,0.137519 -0.04584,0.366719 0,0.183359 -0.04584,0.320878 -0.13752,0.2292 -0.13752,0.320879 0,0.09168 -0.04584,0.18336 -0.137519,0.229199 -0.137519,0.366718 0,0.09168 0,0.18336 -0.13752,0.229199 -0.13752,0.366719 0,0.09168 -0.04584,0.183359 -0.229199,0.366719 -0.275039,0.550078 0,0.183359 -0.04584,0.320879 -0.09168,0.504238 -0.18336,1.145996 -0.09168,0.641758 -0.275039,1.191836 -0.09168,0.229199 -0.183359,0.366719 -0.04584,0.137519 -0.13752,0.275039 -0.09168,0.137519 -0.183359,0.550078 -0.04584,0.412558 -0.13752,0.687597 -0.04584,0.2292 -0.09168,0.458399 -0.04584,0.229199 -0.13752,0.550078 -0.09168,0.366719 -0.183359,0.412559 -0.04584,0.04584 -0.04584,0.137519 -0.09168,0.366719 -0.13752,0.687598 0,0.320879 -0.09168,0.641757 -0.18336,0.320879 -0.18336,0.504239 0.04584,0.137519 0,0.229199 -0.183359,0.504238 -0.275039,0.825117 -0.04584,0.320879 -0.137519,0.595918 -0.13752,0.366719 -0.13752,0.595918 0,0.183359 0,0.366719 -0.04584,0.229199 -0.137519,0.504238 -0.09168,0.275039 -0.18336,0.504238 -0.04584,0.2750394 -0.09168,0.5500784 0,0.2291992 -0.09168,0.5042383 -0.09168,0.3667187 -0.229199,0.6875976 -0.09168,0.2750391 -0.2292,0.6417578 -0.137519,0.4125586 -0.137519,0.595918 0,0.1833593 0,0.3208789 -0.275039,0.8251171 -0.412559,1.4668749 -0.09168,0.595918 -0.320879,1.2376758 0.09168,0.1833593 0.09168,0.4125585 0,0.1833594 0.09168,0.3667188 -0.04584,0.1375195 -0.13752,0.275039 -0.09168,0.1375196 -0.183359,0.3208789 -0.04584,0.1833594 -0.09168,0.3667188 0,0.1375195 -0.09168,0.3208789 -0.13752,0.275039 -0.320879,0.5500781 -0.18336,0.2291992 -0.2292,0.5959179 -0.09168,0.22919924 -0.229199,0.32087892 -0.09168,0.0458398 -0.137519,0.22919921 Q 33.142206,-0.27503905 33.142206,0 q 0.04584,0.27503905 0,0.41255858 Q 32.867167,0.77927732 32.775487,1.0084765 32.729647,1.2835156 32.362929,1.3751953 32.04205,1.5127148 31.767011,1.3293554 31.537812,1.1918359 31.308612,0.91679685 31.079413,0.64175779 30.896054,0.3208789 30.712694,0 30.575175,-0.18335937 30.162616,-0.50423827 29.933417,-0.91679685 29.704218,-1.3751953 29.383339,-1.7877539 29.19998,-2.0169531 29.06246,-2.2003124 28.924941,-2.4295116 28.833261,-2.612871 q -0.275039,-0.3667188 -0.366719,-0.595918 -0.229199,-0.275039 -0.458398,-0.6417578 -0.18336,-0.4125585 -0.366719,-0.7792773 -0.504238,-0.5042382 -0.870957,-1.145996 -0.320879,-0.6417578 -0.687598,-1.3293555 -0.137519,-0.3667187 -0.229199,-0.4125586 -0.09168,-0.09168 -0.137519,-0.1833593 -0.13752,-0.2291992 -0.2292,-0.4583984 -0.09168,-0.2750391 -0.275039,-0.5042383 -0.183359,-0.4125586 -0.320879,-0.595918 -0.137519,-0.1833593 -0.229199,-0.275039 0.04584,-0.2750391 -0.137519,-0.4125586 -0.18336,-0.1375192 -0.275039,-0.2750392 -0.09168,-0.504238 -0.275039,-0.733437 -0.13752,-0.2292 -0.2292,-0.412559 -0.04584,-0.137519 -0.04584,-0.275039 0,-0.183359 -0.09168,-0.320879 -0.09168,-0.229199 -0.18336,-0.412558 -0.04584,-0.2292 -0.137519,-0.458399 -0.09168,-0.229199 -0.229199,-0.412558 -0.09168,-0.2292 -0.13752,-0.366719 0,-0.366719 -0.09168,-0.412559 -0.04584,-0.04584 -0.04584,-0.09168 -0.13752,-0.916797 -0.458399,-1.604395 0,-0.229199 -0.137519,-0.320879 -0.09168,-0.137519 -0.13752,-0.275039 -0.04584,-0.09168 -0.04584,-0.275039 0.04584,-0.183359 0,-0.275039 -0.229199,-0.366719 -0.229199,-0.458398 0.04584,-0.13752 0,-0.2292 -0.04584,-0.09168 -0.137519,-0.229199 -0.09168,-0.137519 -0.13752,-0.320879 -0.137519,-0.458398 -0.275039,-0.870957 -0.09168,-0.458398 -0.275039,-0.870957 0.04584,-0.366719 0.04584,-0.550078 0,-0.229199 -0.18336,-0.458398 -0.320878,0.09168 -0.366718,0.412558 -0.04584,0.320879 -0.13752,0.595918 -0.09168,0.229199 -0.183359,0.504239 -0.04584,0.275039 -0.13752,0.504238 -0.137519,0.412558 -0.320879,0.779277 -0.183359,0.320879 -0.366718,0.687598 -0.2292,0.504238 -0.275039,0.825117 -0.04584,0.320879 -0.13752,0.504238 -0.09168,0.229199 -0.320879,0.504238 -0.183359,0.2292 -0.275039,0.458399 -0.229199,0.366719 -0.366719,0.733437 -0.137519,0.320879 -0.366718,0.687598 -0.2292,0.320879 -0.504239,0.641758 -0.229199,0.275039 -0.366718,0.641758 -0.13752,0.275039 -0.2292,0.595918 -0.04584,0.275039 -0.137519,0.550078 -0.09168,0.183359 -0.183359,0.458398 -0.04584,0.229199 -0.13752,0.458398 -0.229199,0.5500786 -0.412559,1.008477 -0.183359,0.4125586 -0.595918,0.7792773 -0.09168,0.3667188 -0.137519,0.4583984 -0.04584,0.09168 -0.09168,0.1375196 0,0.2291992 -0.137519,0.3667187 -0.09168,0.09168 -0.13752,0.1375195 -0.09168,0.1375196 -0.137519,0.2750391 -0.04584,0.1375195 -0.13752,0.3667187 -0.229199,0.1833594 -0.229199,0.3208789 0.04584,0.09168 -0.09168,0.2291992 -0.320879,0.4125586 -0.412558,0.6417578 -0.09168,0.1833594 -0.275039,0.4125586 -0.2292,0.2750391 -0.320879,0.4125586 -0.04584,0.09168 -0.13752,0.1833594 -0.09168,0.09168 -0.137519,0.275039 -0.04584,0.1833594 -0.13752,0.3208789 -0.09168,0.2291992 -0.229199,0.3667187 -0.09168,0.09168 -0.183359,0.3208789 -0.18336,0.4125586 -0.320879,0.7792774 -0.13752,0.3667187 -0.13752,0.7792773 -0.09168,0.09168 -0.183359,0.2291992 -0.04584,0.1375195 -0.18336,0.2291992 -0.09168,0.2291992 0,0.2750391 0.13752,0.0458398 0.13752,0.27503902 -0.320879,0.22919921 -0.320879,0.68759764 0,0.45839842 -0.183359,0.870957 Q 10.589004,1.1459961 10.543164,1.2835156 10.497324,1.4210351 10.359804,1.5127148 10.176445,1.6502343 9.9472458,1.6960742 9.7180466,1.741914 9.4888474,1.5127148 9.2138083,1.1918359 9.1221286,1.0084765 9.0762888,0.82511716 8.9846091,0.68759764 8.9387693,0.59591795 8.8470896,0.45839842 8.7554099,0.3208789 8.7095701,0.22919921 q -0.09168,-0.18335937 -0.09168,-0.36671874 0.04584,-0.22919921 -0.04584,-0.41255858 -0.09168,-0.22919921 -0.1833593,-0.45839839 -0.04584,-0.2750391 -0.1375196,-0.5042383 -0.1375195,-0.5042383 -0.1833593,-0.6417578 -0.04584,-0.1833594 -0.04584,-0.3208789 -0.04584,-0.1375195 -0.1375195,-0.2291992 -0.04584,-0.1375195 -0.1375195,-0.3208789 0,-0.4583984 0.09168,-0.5500781 -0.09168,-0.3667187 -0.1833594,-0.5042383 -0.04584,-0.1375195 -0.09168,-0.2291992 -0.04584,-0.09168 -0.04584,-0.2291992 0.04584,-0.1375195 0,-0.2750391 -0.3208789,-0.9167968 -0.1375196,-1.1001562 -0.04584,-0.1375195 -0.1375195,-0.275039 -0.09168,-0.1375196 -0.1375195,-0.3208789 -0.09168,-0.1833594 -0.04584,-0.4125586 0.04584,-0.2291992 -0.1833593,-0.3208789 0.09168,-0.3667187 -0.1833594,-0.7334375 -0.2291992,-0.3667187 -0.3208789,-0.7334375 -0.09168,-0.275039 -0.09168,-0.5500781 0,-0.275039 -0.04584,-0.5500781 -0.04584,-0.1375195 -0.1375196,-0.5042387 -0.04584,-0.183359 -0.04584,-0.550078 -0.09168,-0.229199 -0.2291992,-0.458398 -0.1375195,-0.229199 -0.04584,-0.458398 0,-0.04584 -0.1833593,-0.27504 -0.1833594,-0.275039 0.04584,-0.412558 -0.1833594,-0.229199 -0.275039,-0.458399 -0.09168,-0.229199 -0.1833594,-0.458398 -0.04584,-0.13752 0,-0.275039 0.04584,-0.13752 -0.04584,-0.320879 -0.2291992,-0.595918 -0.275039,-1.008476 -0.04584,-0.412559 -0.09168,-0.825118 -0.04584,-0.183359 -0.09168,-0.320879 0,-0.137519 -0.04584,-0.320878 -0.04584,-0.2292 -0.04584,-0.412559 0.04584,-0.229199 0,-0.412559 -0.1375195,-0.275039 -0.1833593,-0.366718 0,-0.13752 -0.04584,-0.2292 -0.04584,-0.137519 -0.1375195,-0.275039 -0.04584,-0.137519 -0.04584,-0.320878 -0.09168,-0.2292 -0.04584,-0.412559 0.04584,-0.229199 -0.04584,-0.412559 -0.09168,-0.595918 -0.2291992,-0.916797 -0.09168,-0.366718 -0.1833594,-0.733437 -0.09168,-0.366719 -0.1375195,-0.412559 -0.04584,-0.09168 -0.04584,-0.183359 0,-0.320879 -0.09168,-0.366719 -0.04584,-0.09168 -0.04584,-0.183359 0,-0.366719 -0.04584,-0.458398 0,-0.09168 0,-0.18336 -0.09168,-0.320879 -0.1833594,-0.550078 -0.09168,-0.229199 -0.2291992,-0.595918 -0.04584,-0.229199 -0.09168,-0.412558 0,-0.2292 -0.09168,-0.458399 -0.09168,-0.09168 -0.2291992,-0.229199 -0.09168,-0.13752 -0.1375195,-0.275039 -0.09168,-0.13752 -0.09168,-0.366719 0,-0.229199 -0.04584,-0.366719 -0.04584,-0.183359 -0.09168,-0.366718 -0.04584,-0.18336 -0.1833594,-0.275039 -0.09168,-0.504239 -0.2291992,-0.916797 -0.09168,-0.412559 -0.3208789,-0.641758 -0.04584,-0.412559 -0.2291992,-0.687598 -0.1375196,-0.275039 -0.32087894,-0.595918 -0.0916797,-0.320879 -0.18335937,-0.412558 -0.0458398,-0.09168 -0.0916797,-0.18336 -0.0916797,-0.09168 -0.18335937,-0.229199 -0.0458398,-0.183359 -0.0916797,-0.320879 -0.0916797,-0.137519 -0.0916797,-0.275039 0,-0.137519 -0.0458398,-0.320879 Q 0.09167968,-31.308612 0,-31.446132 q -0.04583984,-0.137519 -0.09167968,-0.229199 -0.04583985,-0.13752 -0.04583985,-0.275039 0,-0.13752 -0.0916797,-0.366719 -0.0916797,-0.229199 -0.18335937,-0.412558 -0.0916797,-0.18336 0,-0.550079 -0.18335937,-0.275039 -0.36671874,-0.825117 -0.0916797,-0.504238 -0.0458398,-0.641758 0,-0.183359 -0.0916797,-0.275039 0.36671874,-0.04584 0.77927732,-0.137519 0.41255858,-0.09168 0.77927732,-0.04584 0.3208789,0.13752 0.5500781,0.13752 h 0.2291992 q 0.1833594,0 0.3208789,-0.09168 0.1375195,-0.09168 0.3667188,-0.09168 1.145996,0.04584 2.1544725,-0.04584 1.0084766,-0.09168 1.7877539,-0.183359 0.1833594,0 0.5500781,0.275039 0.3667187,0.229199 0.4583984,0.412559 0.1375196,0.320879 0.09168,0.825117 -0.04584,0.504238 0.09168,0.916797 0.09168,0.275039 0.1375195,0.687597 0.09168,0.366719 0.1833594,0.733438 0.09168,0.229199 0.1375195,0.412558 0.04584,0.18336 0.1375196,0.550078 0.04584,0.2292 0,0.320879 -0.04584,0.09168 0.04584,0.320879 0.1375195,0.229199 0.09168,0.412559 0,0.137519 0.04584,0.229199 0.09168,0.320879 0.2291992,0.550078 0.1375196,0.229199 0.1833594,0.550078 0.09168,0.229199 0.04584,0.504239 -0.04584,0.229199 0.04584,0.458398 0.09168,0.504238 0.3208789,1.054316 0.2291992,0.550078 0.04584,1.145996 0.1833594,0.320879 0.1833594,0.595918 0.04584,0.275039 0.1375195,0.504239 0.04584,0.137519 0.09168,0.275039 0.09168,0.09168 0.1375195,0.229199 0.04584,0.137519 0,0.320879 0,0.137519 0.04584,0.275039 0.1375195,0.504238 0.3667187,1.100156 0.04584,0.09168 0.04584,0.229199 0,0.13752 0.09168,0.275039 0.1833597,0.504239 0.1833597,0.825117 0,0.275039 0.04584,0.504239 0.04584,0.137519 0.137519,0.275039 0.09168,0.137519 -0.04584,0.320879 0.229199,0.229199 0.275039,0.504238 0.09168,0.275039 0.229199,0.641758 0.137519,0.320879 0.183359,0.687597 0.09168,0.320879 0.18336,0.595918 0.04584,0.18336 0.137519,0.412559 0.09168,0.183359 0.13752,0.366719 0.04584,0.229199 0.04584,0.458398 0,0.183359 0.09168,0.412559 0.183359,0.504238 0.275039,0.733437 0.13752,0.229199 0.229199,0.366719 0.2292,-0.504238 0.275039,-0.641758 0.09168,-0.137519 0.18336,-0.275039 0.04584,-0.09168 0.04584,-0.229199 0.04584,-0.18336 0.137519,-0.275039 0.04584,-0.13752 0.04584,-0.275039 0,-0.13752 0.04584,-0.2292 0.229199,-0.229199 0.229199,-0.366718 0.04584,-0.13752 0.09168,-0.229199 0.09168,-0.2292 0.183359,-0.550079 0.09168,-0.320878 0.18336,-0.687597 0.09168,-0.229199 0.183359,-0.412559 0.09168,-0.229199 0.229199,-0.504238 0.275039,-0.366719 0.458399,-0.733438 0.137519,-0.229199 0.275039,-0.504238 0.137519,-0.275039 0.366718,-0.504238 0.04584,-0.366719 0.13752,-0.595918 0.137519,-0.229199 0.275039,-0.504238 0.183359,-0.2292 0.229199,-0.412559 0.09168,-0.183359 0.320879,-0.229199 0,-0.229199 0.09168,-0.412559 0.09168,-0.183359 0.183359,-0.366718 0.183359,-0.366719 0.366719,-0.687598 0.183359,-0.320879 0.412558,-0.733438 0.2292,-0.366718 0.275039,-0.504238 0.09168,-0.183359 0.18336,-0.320879 0.183359,-0.229199 0.183359,-0.320879 0,-0.09168 0.04584,-0.183359 0.09168,-0.183359 0.13752,-0.320879 0.04584,-0.137519 0.137519,-0.366719 0.09168,-0.229199 0.13752,-0.412558 0.04584,-0.18336 0.137519,-0.412559 0.09168,-0.137519 0.183359,-0.275039 0.13752,-0.137519 0.2292,-0.320879 0.09168,-0.183359 0.09168,-0.366718 0,-0.2292 0.09168,-0.458399 0.04584,-0.183359 0.09168,-0.320879 0.09168,-0.183359 0.137519,-0.366719 0.04584,-0.183359 0,-0.366718 0,-0.229199 0.09168,-0.458399 0.04584,-0.183359 0.09168,-0.320879 0.09168,-0.183359 0.137519,-0.366718 0.09168,-0.366719 0.13752,-0.733438 0.09168,-0.412558 0.183359,-0.825117 0.09168,-0.366719 0.183359,-0.687598 0.09168,-0.366718 0.366719,-0.595918 0.320879,-0.137519 0.641758,-0.04584 0.366719,0.09168 0.595918,0.183359 0.137519,0.13752 0.183359,0.366719 0.09168,0.229199 0.320879,0.275039 -0.09168,0.183359 -0.04584,0.366719 0.09168,0.137519 0.18336,0.320878 0.04584,0.18336 0.09168,0.366719 0.09168,0.13752 0.18336,0.275039 0.229199,0.366719 0.320879,0.733438 0.09168,0.320879 0.366718,0.458398 0.04584,0.229199 0.09168,0.412559 0.04584,0.183359 0.09168,0.366718 0.09168,0.366719 0.183359,0.458399 0.09168,0.04584 0.09168,0.137519 0.04584,0.275039 0.137519,0.366719 l 0.09168,0.09168 q 0.09168,0.09168 0.09168,0.412558 0.04584,0.275039 0.275039,0.366719 0.04584,0.229199 0.04584,0.412559 0,0.183359 0.09168,0.366718 -0.04584,0.18336 0.09168,0.27504 0.183359,0.04584 0.275039,0.137519 0.183359,0.595918 0.366719,1.054316 0.183359,0.458399 0.275039,0.825118 0.09168,0.183359 0.137519,0.366718 0.09168,0.13752 0.09168,0.458399 0.275039,0.366718 0.366719,0.962636 0.09168,0.550079 0.366719,0.962637 0.09168,0.229199 0.04584,0.366719 0,0.137519 0.09168,0.320879 0.09168,0.183359 0.183359,0.320879 0.09168,0.09168 0.18336,0.275039 0.09168,0.183359 0.09168,0.412558 0,0.18336 0.09168,0.366719 0.09168,0.13752 0.13752,0.275039 0.04584,0.09168 0.137519,0.229199 0.09168,0.2292 0.13752,0.458399 0.09168,0.229199 0.275039,0.458398 0.229199,0.641758 0.458398,1.100156 0.229199,0.458399 0.458399,0.825118 0.09168,0.183359 0.137519,0.412558 0.04584,0.229199 0.13752,0.458399 0.09168,0.229199 0.229199,0.504238 0.183359,0.229199 0.320879,0.458398 0.229199,0.320879 0.320879,0.595918 0.09168,0.275039 0.366718,0.18336 0.27504,-0.09168 0.09168,-0.27504 -0.137519,-0.183359 -0.09168,-0.412558 0.2292,-0.229199 0.18336,-0.504238 -0.04584,-0.320879 0.04584,-0.595918 0.04584,-0.275039 0.137519,-0.550078 0.09168,-0.320879 0.18336,-0.550079 0.09168,-0.275039 0.09168,-0.550078 0.04584,-0.275039 0.13752,-0.550078 0.09168,-0.275039 0.09168,-0.595918 0,-0.320879 0.09168,-0.641757 0.04584,-0.2292 0.09168,-0.458399 0.09168,-0.229199 0.137519,-0.504238 0.04584,-0.275039 0,-0.550078 0,-0.320879 0.04584,-0.595918 0,-0.13752 0.04584,-0.275039 0.04584,-0.18336 0.09168,-0.366719 0.04584,-0.183359 0.04584,-0.366719 0,-0.229199 0.04584,-0.366719 0.09168,-0.229199 0.18336,-0.366718 0.137519,-0.18336 0.229199,-0.412559 0.04584,-0.229199 0.04584,-0.504238 0,-0.320879 0.04584,-0.595918 0,-0.229199 0.04584,-0.412559 0.04584,-0.229199 -0.04584,-0.458398 0.275039,-0.229199 0.320879,-0.595918 0.04584,-0.366719 0.183359,-0.687598 0.229199,-0.595918 0.320879,-0.916796 0.137519,-0.320879 0.229199,-0.733438 0.229199,-0.595918 0.229199,-0.962637 0.04584,-0.412558 0.13752,-0.733437 0.183359,-0.366719 0.183359,-0.504238 0,-0.13752 0.04584,-0.2292 0.13752,-0.229199 0.09168,-0.412558 0,-0.18336 0.04584,-0.320879 0.229199,-0.504238 0.366718,-0.641758 0.13752,-0.137519 0.229199,-0.183359 0,-0.229199 -0.09168,-0.320879 -0.09168,-0.13752 -0.04584,-0.366719 0.412559,-0.412558 0.916797,-0.412558 0.550078,-0.04584 1.054316,-0.04584 0.320879,-0.04584 0.504238,-0.04584 0.2292,-0.04584 0.458399,0.137519 0.366719,-0.183359 0.870957,-0.137519 0.550078,0.04584 1.054316,0 0.320879,0 0.550078,0.09168 0.275039,0.04584 0.595918,0.04584 0.366719,-0.04584 0.687598,-0.137519 0.366719,-0.09168 0.687598,0.137519 0.09168,0.18336 0.09168,0.412559 0.04584,0.183359 0.275039,0.275039 z"
         style="font-size:46.94px;font-family:ChelseaMarket-Regular, 'Chelsea Market';isolation:isolate;fill:#fdc700"
         id="path112" />
      <path
         d="m 66.696971,-33.325565 q 0.137519,0.137519 0.229199,0.366718 0.09168,0.18336 0.09168,0.412559 0.04584,0.229199 -0.04584,0.458398 -0.04584,0.18336 -0.320879,0.2292 0.183359,0.183359 0.09168,0.366718 -0.09168,0.13752 -0.09168,0.366719 -0.04584,0.504238 0,1.008477 0.04584,0.504238 -0.04584,0.962636 -0.04584,0.229199 -0.13752,0.412559 -0.09168,0.137519 -0.183359,0.320879 -0.09168,0.229199 -0.183359,0.412558 -0.09168,0.18336 -0.18336,0.275039 -0.366718,0.2292 -0.916797,0.04584 -0.550078,-0.183359 -1.008476,0 -0.366719,-0.275039 -0.733438,-0.183359 -0.366718,0.09168 -0.779277,-0.229199 -0.412559,0.137519 -0.825117,0.04584 -0.366719,-0.09168 -0.825117,-0.137519 -0.13752,0 -0.275039,0.04584 -0.13752,0.04584 -0.275039,0 -0.2292,-0.04584 -0.458399,-0.13752 -0.229199,-0.137519 -0.458398,-0.137519 -0.18336,-0.04584 -0.412559,0.04584 -0.183359,0.04584 -0.412558,0.04584 h -0.779278 q -0.641757,-0.09168 -1.329355,-0.137519 -0.687598,-0.04584 -1.558555,-0.13752 -0.687597,-0.09168 -1.421035,-0.09168 -0.687598,0 -1.466875,0.09168 -0.229199,0.458399 -0.183359,0.962637 0.09168,0.458398 0.137519,0.962637 0.04584,0.504238 0.04584,1.008476 0.04584,0.504239 0.09168,1.008477 0,0.137519 -0.04584,0.320879 -0.04584,0.137519 -0.04584,0.275039 0,0.275039 0.04584,0.687597 0.04584,0.412559 0.04584,0.779278 0,0.320879 -0.04584,0.595918 -0.04584,0.229199 0.09168,0.504238 0.412558,0.137519 0.916797,0.137519 0.320878,0.04584 0.595917,0.04584 0.320879,0 0.595918,0 0.504239,-0.04584 0.962637,-0.04584 0.504238,0 1.008477,0 0.779277,0 1.512714,0 0.779278,0 1.696075,-0.09168 0.412558,-0.04584 0.779277,-0.09168 0.412559,-0.09168 0.825117,0.13752 0.229199,-0.09168 0.458399,-0.09168 0.275039,0 0.504238,-0.04584 0.229199,-0.04584 0.366719,0 0.137519,0.04584 0.366718,0.04584 0.733438,-0.04584 1.145996,0 0.412559,0.04584 0.779278,0.04584 0.229199,-0.04584 0.412558,-0.09168 0.229199,-0.04584 0.412559,0 0.229199,0 0.229199,0.183359 0.04584,0.13752 0.13752,0.275039 0.183359,0.366719 0.183359,0.779278 0,0.366719 -0.04584,0.916797 0.04584,0.229199 -0.04584,0.458398 -0.04584,0.183359 -0.04584,0.320879 -0.04584,0.595918 0,1.100156 0.04584,0.458399 0.2292,0.962637 -0.09168,0.229199 -0.18336,0.504238 -0.09168,0.229199 -0.275039,0.412559 -0.183359,-0.04584 -0.320879,0.04584 -0.137519,0.09168 -0.275039,0.09168 -0.229199,0 -0.366718,-0.04584 -0.13752,-0.09168 -0.320879,-0.183359 -0.09168,-0.137519 -0.320879,0 -0.18336,0.09168 -0.13752,-0.229199 -0.458398,0.275039 -0.779277,0.320879 -0.320879,0 -0.458399,0.183359 -0.229199,-0.183359 -0.550078,-0.137519 -0.275039,0 -0.550078,0.09168 -0.229199,-0.09168 -0.504238,-0.09168 -0.229199,-0.04584 -0.641758,-0.09168 -0.229199,-0.09168 -0.550078,0.04584 -0.275039,0.137519 -0.504238,0.183359 -0.458399,-0.137519 -0.825117,-0.04584 -0.366719,0.09168 -0.687598,0.229199 -0.229199,0.04584 -0.275039,-0.09168 -0.04584,-0.18336 -0.275039,-0.13752 -0.183359,0.13752 -0.550078,0.13752 -0.320879,-0.04584 -0.458399,0.137519 -0.229199,-0.229199 -0.687597,-0.09168 -0.412559,0.09168 -0.687598,-0.18336 -0.09168,0.18336 -0.275039,0.13752 -0.13752,-0.09168 -0.366719,-0.04584 -0.183359,0 -0.366718,0.04584 -0.13752,0.04584 -0.320879,0.04584 -0.2292,0.04584 -0.550078,-0.04584 -0.27504,-0.09168 -0.504239,0.04584 -0.229199,0.137519 -0.183359,0.366718 0.04584,0.2292 0,0.504239 -0.04584,0.137519 -0.09168,0.275039 -0.04584,0.137519 -0.04584,0.275039 0,0.183359 0.04584,0.366718 0.09168,0.13752 0.04584,0.320879 0,0.366719 -0.137519,0.779278 -0.09168,0.412558 -0.18336,0.825117 -0.183359,0.733437 -0.183359,1.145996 0,0.412559 -0.229199,0.7334374 0.137519,0.2750391 0.137519,0.5042383 0.04584,0.3667187 0.04584,0.7792773 0,0.4125586 0,0.7792773 0,0.2750391 0,0.595918 0,0.275039 -0.09168,0.5959179 -0.04584,0.1375195 -0.09168,0.2750391 -0.04584,0.1375195 -0.04584,0.275039 -0.04584,0.2291992 0.04584,0.5042383 0.09168,0.2750391 0,0.5500781 0.412558,0.2291992 0.870957,0.1833594 0.504238,-0.04584 1.145996,-0.04584 0.779277,-0.04584 1.558554,-0.1375195 0.825117,-0.09168 1.466875,-0.09168 0.366719,0 0.641758,0.09168 0.320879,0.09168 0.641758,0 0.320879,-0.09168 0.733437,-0.1375195 0.458399,-0.09168 0.825117,-0.04584 0.504239,-0.04584 0.779278,0 0.320879,0.04584 0.595918,0.04584 0.412558,0 0.733437,0 0.366719,-0.04584 0.733438,-0.09168 0.183359,-0.04584 0.320879,-0.09168 0.183359,-0.04584 0.366718,-0.04584 0.320879,0.04584 0.458399,0.04584 0.137519,-0.04584 0.229199,-0.04584 0.275039,0.09168 0.366719,0.04584 0.09168,-0.04584 0.137519,-0.04584 0.18336,0.09168 0.458399,0 0.275039,-0.1375196 0.687597,-0.04584 0.13752,0.09168 0.13752,0.3208789 0.04584,0.1833594 0.183359,0.2750391 -0.04584,0.2291992 0.09168,0.275039 0.137519,0.04584 0.183359,0.2291992 0.09168,1.1001563 -0.04584,2.2003125 -0.137519,1.05431635 -0.183359,2.24615225 -0.09168,0.13751953 -0.229199,0.18335937 -0.13752,0.0916797 -0.320879,0.18335937 -0.13752,0.0916797 -0.320879,0.18335937 -0.137519,0.0916797 -0.320879,0.0916797 -0.183359,0 -0.366719,-0.0916797 -0.183359,-0.0458398 -0.366718,-0.0916797 -0.2292,0 -0.458399,0.0458398 -0.183359,0.0458398 -0.458398,0.0458398 -0.366719,0 -0.825117,-0.0458398 -0.412559,-0.0458398 -0.870957,-0.0916797 -0.504239,-0.0458399 -0.962637,-0.0916797 -0.412559,0 -0.641758,-0.13751953 -0.229199,-0.0458398 -0.320879,0.0458399 -0.09168,0.13751952 -0.320879,0.13751952 -0.458398,-0.13751952 -1.008476,-0.13751952 -0.504238,0 -1.100156,-0.0458399 -0.412559,-0.0458398 -0.825118,0 -0.366718,0.0916797 -0.825117,0.0916797 -0.366718,0.0458398 -0.779277,0 -0.366719,-0.0458398 -0.733438,0 -0.412558,0 -0.779277,0.0458398 -0.320879,0.0916797 -0.687597,0.0458398 -0.2292,0 -0.412559,-0.0916797 -0.13752,-0.0458398 -0.366719,-0.0458398 -0.275039,0.0458398 -0.458398,-0.0458399 -0.18336,-0.0458398 -0.366719,-0.0458398 -0.366719,-0.0916797 -0.779277,-0.13751953 -0.412559,0 -0.779278,-0.22919921 -0.183359,0.09167969 -0.366718,0.04583984 -0.13752,-0.04583984 -0.320879,-0.04583984 -0.229199,0.04583984 -0.366719,0 -0.13752,0 -0.229199,0 Q 47.398397,0.09167968 47.077518,0.18335937 46.802479,0.3208789 46.4816,0.22919921 46.160721,0 46.114881,-0.18335937 q -0.04584,-0.18335937 -0.137519,-0.41255858 -0.04584,-0.13751953 -0.13752,-0.27503906 -0.04584,-0.18335939 -0.04584,-0.36671869 -0.04584,-0.2291993 0,-0.3667188 0.04584,-0.1833594 0,-0.3667187 -0.04584,-0.2291992 -0.137519,-0.4125586 -0.09168,-0.2291992 -0.183359,-0.4125586 0.09168,-0.5042383 0,-0.9626367 -0.09168,-0.4583984 -0.04584,-1.0084765 0,-0.4125586 0.04584,-0.595918 0.04584,-0.1833593 0.04584,-0.3208789 0,-0.1375195 -0.04584,-0.275039 -0.04584,-0.1375195 -0.09168,-0.2750391 -0.04584,-0.2291992 0,-0.2291992 0.04584,-0.04584 0,-0.275039 -0.04584,-0.3667188 -0.229199,-0.7792774 -0.13752,-0.4125585 0,-0.8251171 0.09168,-0.2750391 0,-0.4125586 -0.04584,-0.1375195 -0.04584,-0.2291992 0,-0.2291992 0.04584,-0.4583984 0.09168,-0.2750391 0.183359,-0.5500781 0,-0.2291994 -0.04584,-0.3667184 -0.04584,-0.18336 -0.09168,-0.366719 0.09168,-0.320879 0,-0.366719 -0.04584,-0.09168 -0.04584,-0.229199 0,-0.183359 0.04584,-0.366719 0.04584,-0.183359 0.04584,-0.366719 -0.04584,-0.366718 0,-0.641757 0.09168,-0.320879 -0.137519,-0.504239 0.229199,-0.458398 0.09168,-0.916796 -0.09168,-0.504239 -0.09168,-1.054317 -0.04584,-0.229199 0,-0.412558 0.04584,-0.18336 0.09168,-0.412559 0,-0.183359 -0.04584,-0.320879 -0.04584,-0.183359 -0.04584,-0.366719 0.04584,-0.275039 0.04584,-0.504238 0,-0.275039 0,-0.595918 0,-0.137519 0.04584,-0.275039 0.04584,-0.137519 0.04584,-0.275039 -0.04584,-0.09168 -0.09168,-0.275039 -0.04584,-0.229199 -0.04584,-0.366719 0,-0.412558 0.137519,-0.504238 -0.09168,-0.229199 -0.183359,-0.366719 -0.04584,-0.137519 0.137519,-0.366719 -0.183359,-0.504238 -0.137519,-0.595917 0.09168,-0.09168 0.09168,-0.27504 -0.04584,-0.504238 -0.09168,-0.870957 -0.04584,-0.412558 -0.04584,-0.779277 0,-0.137519 0.04584,-0.275039 0.04584,-0.183359 0.04584,-0.320879 0,-0.229199 -0.04584,-0.366719 -0.04584,-0.137519 0,-0.320878 0.229199,-0.779278 0.229199,-1.191836 0,-0.458399 0.229199,-0.779278 -0.320879,-0.595918 -0.137519,-1.375195 0.183359,-0.825117 0.183359,-1.650234 0.04584,-0.550078 -0.04584,-1.145996 -0.04584,-0.641758 0.04584,-1.329356 0.04584,-0.504238 -0.04584,-0.825117 -0.09168,-0.320879 -0.09168,-0.550078 0,-0.229199 0.09168,-0.458398 0.09168,-0.2292 0.18336,-0.458399 0.09168,-0.183359 0.137519,-0.320879 0.09168,-0.183359 0.275039,-0.275039 1.971114,0.366719 3.850547,0.18336 1.925273,-0.2292 3.667187,-0.09168 0.504239,0.09168 0.962637,0.229199 0.504238,0.09168 1.008477,0.13752 0.320879,0.04584 0.641758,0 0.320878,-0.09168 0.825117,-0.13752 0.458398,0.09168 0.595918,0.09168 0.183359,-0.04584 0.275039,-0.04584 0.229199,0 0.412558,0.09168 0.18336,0.04584 0.412559,0.04584 0.366719,0.09168 0.687597,0.09168 0.320879,0 0.687598,0.04584 0.275039,0 0.595918,-0.04584 0.320879,-0.04584 0.641758,0 0.412558,0 1.008476,0.13752 0.595918,0.09168 1.145996,0.137519 0.366719,-0.04584 0.504239,0 0.183359,0.04584 0.320879,0.09168 0.641757,0.09168 1.191836,0.04584 0.550078,-0.04584 1.145996,0.04584 z"
         style="font-size:46.94px;font-family:ChelseaMarket-Regular, 'Chelsea Market';isolation:isolate;fill:#fdc700"
         id="path114" />
      <path
         d="m 80.494762,0.04583984 q -0.09168,0.36671874 -0.366718,0.45839843 -0.2292,0.13751952 -0.458399,0.41255858 -0.137519,0 -0.320879,-0.0916797 -0.137519,-0.0458398 -0.320879,-0.0458398 -0.137519,-0.0458398 -0.320879,0 -0.183359,0.0458398 -0.412558,0.0458398 -0.13752,0 -0.275039,-0.0458398 -0.13752,-0.0458398 -0.275039,-0.0458398 -0.366719,0 -0.733438,0 -0.366719,0.0458398 -0.825117,0.0458398 -0.229199,0 -0.458398,0 -0.18336,0.0458398 -0.412559,-0.0916797 -0.366719,0.0916797 -0.779277,0.18335937 -0.366719,0.13751948 -0.825117,0.13751948 -0.2292,-0.18335933 -0.320879,-0.45839838 -0.04584,-0.27503906 -0.275039,-0.41255858 -0.04584,-0.41255858 -0.04584,-0.91679685 0.04584,-0.50423829 -0.04584,-1.00847659 0,-0.1375195 -0.04584,-0.275039 0,-0.1833594 0,-0.3208789 -0.04584,-0.1833594 -0.09168,-0.3208789 -0.04584,-0.1833594 -0.04584,-0.3667187 0,-0.1375196 0.04584,-0.2750391 0.04584,-0.1833594 0.04584,-0.3208789 0,-0.2291992 -0.09168,-0.4583984 -0.04584,-0.2750391 -0.04584,-0.5042383 0,-0.3208789 0.04584,-0.5500781 0.04584,-0.2291992 0.04584,-0.4583984 0,-0.5042383 -0.04584,-1.0084765 -0.04584,-0.5500782 -0.04584,-1.0543164 0,-0.2291992 0.04584,-0.4583984 0.04584,-0.2750391 0.04584,-0.5042383 0,-0.1833594 -0.04584,-0.2750391 -0.04584,-0.1375195 -0.09168,-0.275039 -0.09168,-0.5042383 -0.04584,-0.6417578 0.09168,-0.1375195 0.13752,-0.3208789 0,-0.09168 -0.04584,-0.320879 -0.04584,-0.275039 0,-0.550078 0,-0.458398 0,-1.191836 0.04584,-0.779277 0.04584,-1.375195 0,-0.320879 0.04584,-0.595918 0.09168,-0.275039 -0.183359,-0.550078 0.183359,-0.916797 0.229199,-1.421035 0.04584,-0.504239 -0.09168,-1.421035 0.183359,-0.13752 0.137519,-0.320879 0,-0.18336 0.04584,-0.366719 0.04584,-0.687598 0,-1.421035 0,-0.412559 0.04584,-0.779278 0.04584,-0.366718 0,-0.733437 0,-0.275039 -0.04584,-0.366719 -0.04584,-0.09168 0,-0.183359 -0.09168,-0.916797 -0.04584,-1.512715 0.09168,-0.595918 0.09168,-1.100156 0,-0.229199 -0.04584,-0.412559 -0.04584,-0.183359 0,-0.366718 0,-0.320879 0,-0.550079 0.04584,-0.229199 0,-0.595918 0,-0.550078 0,-1.191835 0,-0.641758 -0.320879,-0.962637 0.183359,-0.229199 0.09168,-0.550078 -0.09168,-0.320879 -0.04584,-0.550078 0,-0.13752 0,-0.504239 0.04584,-0.366718 0.09168,-0.641757 0,-0.13752 0.04584,-0.275039 0.04584,-0.13752 0.04584,-0.2292 0,-0.229199 -0.137519,-0.504238 -0.13752,-0.320879 0.09168,-0.687598 -0.137519,-0.275039 -0.320878,-0.458398 -0.13752,-0.183359 -0.09168,-0.412559 0.04584,-0.412558 0.366719,-0.595918 0.366718,-0.183359 0.825117,-0.275039 0.275039,0 0.320879,-0.09168 0.09168,-0.09168 0.183359,-0.09168 0.183359,0 0.320879,0.09168 0.183359,0.04584 0.320879,0.09168 0.275039,0.04584 0.595918,0.04584 0.320879,-0.04584 0.412558,0.13752 0.366719,-0.04584 0.687598,-0.09168 0.366719,-0.09168 0.733437,-0.09168 0.13752,0 0.2292,0.09168 0.09168,0.04584 0.275039,0.04584 0.137519,0.04584 0.229199,-0.04584 0.137519,-0.09168 0.275039,0 0.229199,0.183359 0.458398,0.275039 0.2292,0.09168 0.458399,0.18336 0.137519,0.229199 0.137519,0.550078 0.04584,0.275039 0.09168,0.595918 0,0.320878 0,0.641757 0.04584,0.275039 0.04584,0.550078 -0.04584,0.366719 -0.13752,0.687598 -0.04584,0.320879 -0.04584,0.687598 -0.04584,0.412558 0.04584,0.779277 0.13752,0.320879 -0.09168,0.641758 0.09168,0.275039 0.137519,0.412558 0.09168,0.13752 -0.09168,0.366719 0.229199,0.366719 0.183359,0.687598 -0.04584,0.320879 -0.04584,0.779277 0,0.366719 0,0.825117 0,0.412559 -0.04584,0.870957 0,0.458399 -0.04584,0.641758 -0.04584,0.13752 -0.04584,0.229199 0.137519,0.550078 0.137519,1.008477 0,0.412558 0.183359,0.733437 -0.09168,0.458399 -0.04584,0.641758 0.04584,0.13752 0.04584,0.229199 0,0.2292 -0.04584,0.458399 -0.04584,0.183359 0,0.412558 0.09168,0.13752 0.04584,0.366719 0,0.183359 0.04584,0.366719 -0.09168,0.504238 -0.04584,0.687597 0.09168,0.13752 0.09168,0.320879 0,0.2292 -0.09168,0.504239 -0.09168,0.229199 -0.09168,0.458398 0.04584,0.320879 0,0.458398 -0.04584,0.13752 -0.09168,0.27504 0.09168,0.183359 0.09168,0.412558 0.04584,0.183359 0.137519,0.366719 0.09168,0.229199 0,0.366719 -0.04584,0.137519 -0.04584,0.366718 0,0.2292 0.09168,0.458399 0.09168,0.229199 0.13752,0.412558 0,0.2292 -0.04584,0.458399 -0.04584,0.229199 -0.04584,0.458398 -0.04584,0.595918 0.09168,1.191836 0.137519,0.550078 0.04584,1.054316 0,0.2292 -0.09168,0.458399 -0.04584,0.183359 -0.04584,0.412558 0,0.18336 0.04584,0.3667192 0.09168,0.1375195 0.137519,0.3667187 0.09168,0.4125586 0.04584,1.0543164 0,0.6417578 0,1.2835156 -0.04584,0.8251172 -0.09168,1.741914 -0.04584,0.870957 0.09168,1.6043945 0.18336,0.9626367 0.13752,1.5585546 -0.04584,0.595918 0,1.1001563 0.04584,0.1375195 0.09168,0.32087886 0.09168,0.13751953 0.13752,0.3208789 0.09168,0.3208789 0.137519,0.45839842 0.04584,0.09167969 0.04584,0.18335937 z"
         style="font-size:46.94px;font-family:ChelseaMarket-Regular, 'Chelsea Market';isolation:isolate;fill:#fdc700"
         id="path116" />
      <path
         d="m 110.29066,0.04583984 q -0.13752,0.27503906 -0.59592,0.55007811 -0.36672,0.18335937 -0.50424,0.27503906 -0.0917,0.13751949 -0.18336,0.13751949 -0.50424,0.09168 -0.73344,-0.13751949 -0.64175,0.18335939 -1.19183,0.13751949 -0.50424,-0.0458398 -1.00848,0.09168 -0.2292,0.04584 -0.36672,0.1375195 -0.13752,0.1375196 -0.32088,0.2291993 -0.27503,0.09168 -0.50423,0.04584 -0.18336,0 -0.4584,0 -0.18336,-0.1375195 -0.32088,-0.3667187 -0.0917,-0.18335941 -0.18336,-0.41255862 -0.36672,-0.27503906 -0.55008,-0.55007811 -0.0917,-0.09167969 -0.18336,-0.22919921 -0.0458,-0.18335937 -0.13752,-0.27503906 -0.32088,-0.41255858 -0.50424,-0.7792773 -0.18336,-0.4125586 -0.27503,-0.6875977 -0.13752,-0.1833593 -0.32088,-0.3667187 -0.13752,-0.1833594 -0.27504,-0.4125586 -0.13752,-0.1833593 -0.32088,-0.3667187 -0.18336,-0.2291992 -0.27504,-0.4125586 -0.0917,-0.1833594 -0.0917,-0.3208789 0,-0.1833594 -0.0917,-0.3667187 -0.13752,-0.2750391 -0.36672,-0.5042383 -0.18336,-0.2291992 -0.2292,-0.5959179 -0.18336,-0.1833594 -0.366717,-0.3667188 -0.137519,-0.2291992 -0.458398,-0.3208789 -0.09168,-0.3208789 -0.320879,-0.5042383 -0.18336,-0.2291992 -0.320879,-0.5959179 -0.09168,-0.1375195 -0.275039,-0.595918 -0.09168,-0.1375195 -0.13752,-0.275039 0,-0.1833594 -0.09168,-0.3208789 -0.13752,-0.2291992 -0.412559,-0.3667187 -0.229199,-0.1375196 -0.320879,-0.5042383 -0.366719,0 -0.504238,-0.1833594 -0.09168,-0.2291992 -0.412559,-0.275039 -0.229199,-0.4583985 -0.595918,-0.825117 -0.320879,-0.366719 -0.595918,-0.870958 -0.641757,-0.320878 -1.145996,-0.825117 -0.504238,-0.504237 -1.191836,-0.870957 -0.183359,-0.412558 -0.825117,-0.504238 -0.229199,0.320879 -0.183359,0.779278 0.04584,0.412558 -0.04584,0.825117 -0.04584,0.504239 -0.183359,1.008477 -0.09168,0.458398 -0.2292,0.8251165 -0.09168,0.2291993 0.04584,0.3208789 0.13752,0.04584 0.09168,0.2750391 -0.04584,0.1375195 -0.13752,0.3208789 -0.04584,0.1833594 0,0.3667187 0,0.2291992 0.09168,0.4583985 0.13752,0.1833593 0.13752,0.5042382 0.04584,0.3208789 -0.09168,0.8251172 -0.09168,0.5042382 -0.13752,0.870957 0.04584,0.3667187 0,0.4583984 0,0.09168 0,0.1833594 0,0.3667187 0,0.6417578 0,0.275039 -0.04584,0.5959179 0.04584,0.5042383 -0.04584,0.7792773 -0.09168,0.2291993 -0.13752,0.4583985 0.09168,0.3208789 0.04584,0.3667187 -0.04584,0.04584 -0.04584,0.1375195 0,0.1375196 0.04584,0.2750391 0.04584,0.1375195 0,0.2291992 -0.04584,0.5042383 -0.183359,0.7792773 -0.09168,0.27503908 0,0.77927735 0.09168,0.32087889 0.137519,0.41255858 0.04584,0.13751952 0,0.22919921 -0.04584,0.3208789 -0.320879,0.55007811 -0.275039,0.22919925 -0.275039,0.50423825 -0.550078,-0.04584 -1.008476,0.09168 -0.412559,0.1375195 -0.825117,-0.09168 -0.320879,0.09168 -0.779278,0.1833594 -0.458398,0.09168 -0.870957,0.04584 -0.504238,-0.1375195 -0.687597,-0.09168 -0.13752,0.04584 -0.2292,-0.04584 Q 86.36226,0.59591795 86.22474,0 q -0.137519,-0.59591795 0.229199,-1.0543164 0,-0.1375195 -0.04584,-0.275039 -0.04584,-0.1375196 0,-0.3208789 0.04584,-0.5042383 -0.04584,-0.7334375 -0.04584,-0.2291992 -0.04584,-0.4125586 0.04584,-0.1833594 0.09168,-0.3208789 0.09168,-0.1375195 0.09168,-0.275039 0.04584,-0.2291993 -0.04584,-0.4583985 -0.09168,-0.275039 -0.09168,-0.5500781 0,-0.2291992 0.04584,-0.5042382 0.04584,-0.2750391 0.04584,-0.5042383 0,-0.2291992 -0.137519,-0.5042383 -0.09168,-0.275039 0.09168,-0.5500781 0.09168,-0.1833593 0.04584,-0.5500781 0,-0.3667187 0,-0.7334375 0,-0.2291992 0,-0.4125585 0.04584,-0.1833594 0.09168,-0.4125586 0,-0.2750391 -0.04584,-0.5042383 0,-0.2750391 0,-0.5042383 0,-0.09168 0.04584,-0.2291992 0.04584,-0.1833593 0,-0.2750387 -0.09168,-0.412559 -0.09168,-0.641758 0.04584,-0.229199 0.04584,-0.366719 0.04584,-0.229199 0,-0.458398 0,-0.275039 0.04584,-0.595918 0,-0.18336 -0.04584,-0.366719 -0.04584,-0.183359 0,-0.412559 0.04584,-0.412558 0,-0.550078 -0.04584,-0.137519 -0.09168,-0.275039 0,-0.137519 0.04584,-0.275039 0.04584,-0.137519 0.04584,-0.320879 0,-0.366718 -0.09168,-0.825117 -0.09168,-0.458398 -0.09168,-0.825117 0.09168,-0.916797 -0.09168,-1.008477 0.09168,-0.229199 0.13752,-0.412558 0.04584,-0.183359 0.09168,-0.412559 0,-0.320879 -0.04584,-0.641757 -0.04584,-0.320879 0.04584,-0.825118 0.04584,-0.09168 0.09168,-0.229199 0.09168,-0.137519 0.09168,-0.275039 0,-0.183359 -0.04584,-0.366719 -0.04584,-0.183359 0,-0.412558 0,-0.412559 0.04584,-0.870957 0.04584,-0.458399 0.137519,-0.916797 0.09168,-0.412559 0.04584,-0.595918 -0.04584,-0.183359 -0.04584,-0.320879 0,-0.320879 0.09168,-0.595918 0.09168,-0.275039 0,-0.641758 0,-0.09168 -0.04584,-0.229199 0,-0.183359 0,-0.412558 0.04584,-0.458399 0,-0.641758 -0.04584,-0.229199 -0.04584,-0.412559 0.09168,-0.366719 0.04584,-0.412558 -0.04584,-0.04584 -0.04584,-0.13752 0.09168,-0.183359 0.04584,-0.229199 -0.04584,-0.09168 -0.04584,-0.275039 0.04584,-0.366719 0.04584,-0.595918 0.04584,-0.275039 0,-0.733438 -0.09168,-0.320879 -0.04584,-0.366718 0.09168,-0.04584 0.04584,-0.13752 0,-0.137519 -0.09168,-0.320879 -0.09168,-0.183359 -0.183359,-0.366719 0.09168,-0.275039 0.04584,-0.641757 -0.04584,-0.366719 0,-0.733438 0,-0.09168 0.04584,-0.229199 0.04584,-0.183359 0.04584,-0.275039 -0.13752,-0.366719 -0.18336,-0.504238 0,-0.18336 -0.04584,-0.275039 -0.04584,-0.18336 -0.137519,-0.366719 -0.09168,-0.18336 -0.09168,-0.320879 0,-0.275039 0.13752,-0.504238 0.137519,-0.2292 0.275039,-0.458399 0.09168,-0.09168 0.183359,-0.137519 0.13752,-0.09168 0.320879,-0.04584 0.09168,-0.09168 0.183359,-0.183359 0.13752,-0.13752 0.275039,-0.2292 0.366719,-0.09168 0.550079,0.09168 0.229199,0.13752 0.458398,0.229199 0.366719,-0.09168 0.779277,-0.04584 0.412559,0 0.916797,-0.09168 0.412559,-0.09168 0.595918,-0.04584 0.18336,0 0.275039,0 0.595918,-0.13752 0.962637,-0.13752 0.366719,0 0.641758,0.04584 0.366718,0 0.412558,0.04584 0.09168,0.04584 0.18336,0.04584 0.229199,-0.09168 0.412558,0 0.18336,0.04584 0.366719,0.09168 0.366719,0.04584 0.733437,0.04584 0.366719,0 0.733438,0.04584 0.366719,0.04584 0.733437,0.09168 0.412559,0.04584 0.779278,0.183359 0.137519,0.04584 0.275039,0.13752 0.137519,0.09168 0.275039,0.137519 0.183359,0.04584 0.412558,0.04584 0.275039,-0.04584 0.504239,0.04584 0.504238,0.09168 0.962636,0.320879 0.504235,0.183359 1.008475,0.275039 0.2292,0.09168 0.50424,0.183359 0.27504,0.04584 0.50424,0.2292 0.64176,0 1.14599,0.137519 0.50424,0.09168 0.87096,0.275039 0.2292,0.09168 0.50424,0.183359 0.32088,0.09168 0.50424,0.27504 0.2292,0.183359 0.41256,0.320878 0.18335,0.13752 0.36671,0.320879 0.27504,0.2292 0.32088,0.366719 0.0917,0.09168 0.18336,0.183359 0.27504,0.2292 0.32088,0.366719 0.0917,0.13752 0.18336,0.18336 0.2292,0.137519 0.32088,0.275039 0.13752,0.09168 0.27504,0.137519 0.0917,0.366719 0.32088,0.550078 0.27504,0.18336 0.50424,0.412559 0.2292,0.412558 0.27504,0.641758 0.0458,0.229199 0.22919,0.320879 0.2292,0.779277 0.27504,1.375195 0.0458,0.595918 0.41256,0.916797 -0.0458,0.366718 0.0458,0.687597 0.13752,0.275039 0.27504,0.595918 -0.0917,0.229199 -0.0458,0.458399 0.0458,0.183359 0.0458,0.412558 0,0.229199 -0.13752,0.458399 -0.0917,0.229199 0.0917,0.412558 -0.18336,0.550078 -0.36672,1.145996 -0.13752,0.550078 -0.4584,1.054317 -0.0917,0.09168 -0.13752,0.229199 -0.0458,0.09168 -0.27503,0.09168 0.0458,0.275039 -0.0917,0.412558 -0.13752,0.09168 -0.13752,0.320879 -0.36672,0.229199 -0.59592,0.458398 -0.18336,0.18336 -0.41256,0.550079 -0.13752,0.183359 -0.27504,0.275039 -0.0917,0.09168 -0.32088,0.229199 -0.36672,0.229199 -0.55008,0.320879 -0.18336,0.09168 -0.32088,0.183359 -0.32087,0.13752 -0.41255,0.229199 -0.0458,0.09168 -0.13752,0.13752 -0.13752,0.09168 -0.32088,0.183359 -0.13752,0.04584 -0.27504,0.13752 -0.27504,0.229199 -0.41256,0.275039 -0.0917,0.04584 -0.13752,0.09168 -0.41256,0.18336 -0.9168,0.366719 -0.45839,0.13752 -0.91679,0.458399 -0.2292,-0.09168 -0.4584,0.04584 -0.2292,0.13752 -0.50424,0.2292 -0.36672,0.09168 -0.64176,0.09168 -0.229196,-0.04584 -0.320876,0.320879 -0.09168,0.320879 0.183356,0.458399 0.32088,0.137519 0.59592,0.366718 0.0917,0.2292 0.2292,0.458399 0.18336,0.183359 0.4584,0.275039 0.36672,0.366719 0.41256,0.641758 0.0917,0.275039 0.4584,0.320879 0.0917,0.229199 0.36671,0.595918 0.32088,0.275039 0.32088,0.366718 0.0458,0.09168 0.0917,0.18336 0.2292,0.366718 0.32088,0.412558 0.0917,0.04584 0.0917,0.13752 0.18336,0.275039 0.36672,0.5959177 0.2292,0.3208789 0.32088,0.6875977 0.13752,0.1375195 0.27504,0.275039 0.13752,0.1375195 0.32088,0.2750391 0,0.1833593 0.0458,0.275039 0.0917,0.09168 0.0917,0.2750391 0.27504,0.3208789 0.59591,0.6417578 0.32088,0.3208789 0.4584,0.8251171 0.13752,0.09168 0.2292,0.2291992 0.0917,0.09168 0.27504,0.1375196 0.13752,0.4583984 0.41256,0.8251171 0.32088,0.3208789 0.59592,0.7334375 0.13752,0.2291992 0.41256,0.4583984 0.18336,0.2291993 0.32087,0.5042383 0.13752,0.2291992 0.32088,0.4583984 0.2292,0.3667188 0.32088,0.6417578 0.13752,0.2291992 0.36672,0.3208789 0.0458,0.2291992 0.13752,0.3667188 0.13752,0.09168 0.0917,0.3667187 0.18336,0.09168 0.36672,0.2291992 0.18336,0.09168 0.41256,0.1833594 0.0917,0.36671872 0.13752,0.64175778 0.0917,0.22919921 0,0.50423826 z M 103.91892,-24.249277 q -0.2292,-0.458398 -0.27504,-0.641757 0,-0.18336 -0.0458,-0.275039 -0.0458,-0.13752 -0.18336,-0.2292 -0.0917,-0.09168 -0.18336,-0.229199 -0.2292,-0.458398 -0.41256,-0.595918 -0.13752,-0.09168 -0.2292,-0.229199 -0.0917,-0.183359 -0.2292,-0.229199 -0.36671,-0.275039 -0.50423,-0.458399 -0.0917,-0.183359 -0.32088,-0.137519 -0.0917,-0.275039 -0.41256,-0.320879 -0.27504,-0.09168 -0.36672,-0.366719 -0.36672,-0.04584 -0.59592,-0.183359 -0.229197,-0.13752 -0.504236,-0.320879 -0.137519,0.04584 -0.275039,0.137519 -0.09168,0.09168 -0.320879,0.04584 -0.229199,-0.04584 -0.412558,-0.137519 -0.13752,-0.09168 -0.366719,-0.13752 -0.504239,0.04584 -0.733438,0 -0.229199,-0.09168 -0.366718,-0.09168 -0.458399,-0.183359 -0.733438,-0.183359 -0.366719,-0.04584 -0.779277,0.04584 -0.412559,0.04584 -0.825117,0.09168 -0.779278,0 -1.512715,-0.09168 -0.733438,-0.09168 -1.466875,0 -0.09168,0.183359 0,0.320879 0.137519,0.09168 0.137519,0.320879 -0.04584,0.504238 0,0.733437 0.04584,0.18336 0.04584,0.366719 -0.09168,0.366719 -0.04584,0.458398 0.04584,0.09168 0.04584,0.13752 v 0.779277 q -0.09168,0.595918 -0.09168,1.191836 0.04584,0.550078 0,1.145996 0,0.687598 -0.04584,1.237676 0,0.504238 -0.04584,1.054316 0.04584,0.504239 -0.04584,0.687598 -0.04584,0.137519 -0.04584,0.320879 -0.04584,0.458398 0.09168,1.008476 0.504238,0.13752 0.962637,0.13752 0.504238,0 0.733437,0 0.320879,0.04584 0.366719,0.04584 0.09168,-0.04584 0.275039,-0.04584 0.458398,0.04584 0.825117,0.137519 0.412559,0.04584 0.870957,-0.04584 0.229199,0 0.412559,0 0.229199,-0.04584 0.458398,-0.09168 0.366719,-0.13752 0.504238,-0.13752 0.18336,0 0.275039,0 0.504239,-0.183359 0.687598,-0.183359 0.183359,-0.04584 0.275039,-0.09168 0.916797,-0.366718 1.329355,-0.504238 0.641758,-0.229199 0.962638,-0.320879 0.36672,-0.09168 0.64176,-0.137519 0.13752,-0.412559 0.55008,-0.504239 0.41255,-0.09168 0.50423,-0.595918 0.13752,-0.09168 0.27504,-0.09168 0.18336,0 0.2292,-0.18336 0.13752,-0.412558 0.27504,-0.870957 0.13752,-0.458398 0.36672,-0.779277 -0.0458,-0.366719 0.0458,-0.458398 0.13752,-0.13752 0.2292,-0.504239 z"
         style="font-size:46.94px;font-family:ChelseaMarket-Regular, 'Chelsea Market';isolation:isolate;fill:#fdc700"
         id="path118" />
      <path
         d="m 142.65359,-17.41914 v 0.595918 q 0.0917,0.870957 -0.13752,1.741914 -0.2292,0.825117 -0.4584,1.466875 -0.13752,0.366719 -0.32088,0.779277 -0.13752,0.412559 -0.2292,0.870957 -0.36672,0.458399 -0.6876,1.008477 -0.27503,0.550078 -0.59591,1.054316 -0.0917,0.09168 -0.13752,0.2291993 0,0.1375195 -0.0917,0.2291992 -0.2292,0.2291992 -0.32088,0.4125585 -0.0917,0.1833594 -0.18336,0.3667188 -0.32088,0.3667187 -0.73344,0.6417578 -0.41256,0.2291992 -0.55008,0.7334375 -0.41256,0.1375195 -0.64175,0.5042382 -0.18336,0.3667188 -0.55008,0.595918 -0.0917,0.09168 -0.27504,0.1375195 -0.18336,0 -0.32088,0.09168 -0.50424,0.3208789 -0.96264,0.7334375 -0.0917,0.09168 -0.32088,0.1833593 -0.2292,0.09168 -0.45839,0.1833594 -0.2292,0.09168 -0.36672,0.3208789 -0.0917,0.1833594 -0.32088,0.2750391 -0.36672,0.09168 -0.59592,0.2291992 -0.18336,0.09168 -0.36672,0.1833593 -0.32088,0.09168 -0.41256,0.1833594 -0.0458,0.09168 -0.0917,0.09168 -0.32088,0.09168 -0.59592,0.2291992 -0.22919,0.1375195 -0.50423,0.04584 -0.2292,0.1833594 -0.50424,0.2291993 -0.2292,0.04584 -0.4584,0.1833593 -0.41256,0.1375196 -0.87096,0.3667188 -0.4584,0.1833593 -0.59592,0.1833593 -0.13751,0 -0.22919,0 -0.2292,0.1375196 -0.36672,0.1833594 -0.13752,0 -0.27504,0.04584 -0.50424,0.09168 -0.59592,0.09168 -0.0458,-0.04584 -0.13752,-0.04584 -0.13752,0 -0.36672,0.09168 -0.2292,0.04584 -0.4584,-0.09168 -0.18336,0.09168 -0.36672,0.1833594 -0.18335,0.09168 -0.45839,0.1375195 -0.13752,0.04584 -0.36672,0 -0.2292,-0.04584 -0.4584,0 -0.32088,0.09168 -0.41256,0.09168 -0.0917,-0.04584 -0.13752,-0.04584 -0.18336,0 -0.64176,0.1375196 -0.41256,0.1375195 -0.64175,0.1375195 -0.36672,0 -0.82512,-0.1833594 -0.18336,-0.04584 -0.32088,-0.04584 -0.13752,-0.04584 -0.18336,-0.2291992 -0.2292,-0.04584 -0.27504,0.1375195 0,0.1375195 -0.2292,0.04584 -0.32088,-0.3208789 -0.64176,-0.3667187 -0.36671,0.2291992 -0.45839,0.1833594 -0.0917,-0.09168 -0.27504,-0.04584 -0.0917,0.1833594 -0.36672,0.2291992 -0.27504,0 -0.4584,0.1833594 -0.50424,-0.09168 -0.96264,0 -0.4584,0.09168 -1.00847,0.04584 -0.0917,-0.09168 -0.2292,-0.1833593 -0.0917,-0.1375196 -0.18336,-0.2750391 -0.27504,-0.275039 -0.27504,-0.5042382 -0.0458,-0.2750391 0,-0.5042383 0.0458,-0.2750391 0.13752,-0.5042383 -0.0458,-0.1833594 -0.0917,-0.3208789 0,-0.1375195 0,-0.275039 -0.0458,-0.1833594 0,-0.2750391 0.0917,-0.09168 0.13752,-0.275039 -0.0458,-0.595918 0.0458,-1.1459961 0.0917,-0.5500781 0.0917,-1.0084765 0,-0.595918 -0.0458,-1.2376758 0,-0.6417578 -0.0458,-1.3293554 -0.0917,-0.3667187 -0.0917,-0.7334374 0.0458,-0.366719 0.0458,-0.641758 -0.0458,-0.779278 -0.0458,-1.787754 0.0458,-1.054317 0.0458,-1.925274 0.0458,-0.412558 0,-0.595917 -0.0458,-0.18336 -0.0458,-0.366719 0,-0.18336 0.0458,-0.320879 0.0458,-0.183359 0.0458,-0.412559 0,-0.504238 -0.0458,-1.054316 0,-0.550078 0.0917,-1.054316 -0.0917,-0.18336 -0.18336,-0.320879 -0.0458,-0.18336 -0.13752,-0.412559 0.0917,-0.320879 0,-0.641758 -0.0458,-0.366718 -0.0458,-0.687597 0.0458,-0.550078 0.0917,-0.916797 0.0458,-0.366719 -0.18336,-0.687598 0.13752,-0.550078 0.0458,-1.054316 -0.0917,-0.550078 -0.0917,-1.054317 0,-0.275039 0,-0.504238 0.0458,-0.275039 0.0458,-0.550078 0.0917,-0.275039 0.0458,-0.366719 -0.0458,-0.137519 -0.0458,-0.229199 0.0917,-0.412558 0,-0.595918 -0.0458,-0.183359 -0.0458,-0.412558 0,-0.2292 0.0458,-0.458399 0.0917,-0.229199 0.18336,-0.412558 0.0917,-0.2292 0.0458,-0.550079 0,-0.320878 0,-0.687597 0,-0.18336 0.0458,-0.320879 0.0458,-0.183359 0.0458,-0.366719 0,-0.366719 -0.0458,-0.687597 -0.0458,-0.366719 0,-0.687598 0,-0.183359 0.0458,-0.320879 0.0917,-0.183359 0.0917,-0.320879 0.0458,-0.229199 -0.0458,-0.504238 -0.0917,-0.275039 0.0917,-0.504238 0.0458,-0.2292 -0.13752,-0.320879 -0.18336,-0.09168 0,-0.275039 0.0458,-0.2292 0.32088,-0.595918 0.27504,-0.04584 0.41256,0 0.13751,0 0.27503,0.183359 0.18336,-0.09168 0.27504,-0.183359 0.0917,-0.13752 0.27504,-0.18336 0.36672,-0.09168 0.82512,-0.09168 0.4584,-0.04584 0.82512,-0.04584 0.2292,0 0.41256,0.04584 0.22919,0 0.45839,0 0.36672,-0.04584 0.73344,-0.09168 0.36672,-0.09168 0.73344,-0.09168 0.27504,0 0.73344,0.09168 0.32088,0 0.55007,0.04584 0.27504,0 0.55008,-0.04584 0.50424,-0.04584 0.77928,-0.04584 0.27504,-0.04584 0.50424,-0.09168 0.36672,0 0.59592,0.09168 0.27504,0.04584 0.59591,0.09168 0.2292,0.04584 0.36672,0.04584 0.18336,0 0.41256,0.04584 0.18336,0.04584 0.32088,0.13752 0.18336,0.04584 0.36672,0.09168 0.4584,0.09168 1.00848,0.09168 0.59591,-0.04584 1.00847,0.275039 0.13752,0 0.2292,0 0.13752,-0.04584 0.27504,0 0.50424,0.13752 0.6876,0.09168 0.18336,-0.04584 0.32088,0 0.13752,0.04584 0.27504,0.13752 0.18336,0.04584 0.32087,0.09168 0.32088,0.09168 0.64176,0.04584 0.36672,-0.04584 0.73344,0.04584 0.32088,0.183359 0.41256,0.229199 0.13752,0 0.2292,0.04584 0.18336,0.13752 0.32088,0.13752 0.18336,0 0.27504,0.09168 0.50423,0.366719 0.91679,0.687598 0.4584,0.275039 0.82512,0.550078 0.32088,0.320879 0.4584,0.412559 0.18336,0.09168 0.27504,0.275039 0.27504,0.366718 0.59592,0.733437 0.32087,0.320879 0.64175,0.687598 0.36672,0.275039 0.55008,0.458398 0.55008,0.595918 0.9168,1.237676 0.36672,0.595918 0.73344,1.237676 0,0.183359 0.0458,0.275039 0.0917,0.09168 0.0458,0.320879 0.22919,0.275039 0.36671,0.641757 0.18336,0.320879 0.36672,0.687598 0.2292,0.458398 0.2292,0.733438 0.0458,0.229199 0.13752,0.458398 0.0458,0.183359 0.0917,0.366719 0.0917,0.183359 0.18336,0.366718 0.0917,0.504239 0.2292,0.825118 0.18336,0.320878 0.2292,0.550078 0.0458,0.550078 0.0917,0.779277 0.0917,0.229199 0.13752,0.412559 0.0917,0.504238 0.0458,1.145996 -0.0458,0.595918 -0.0458,1.100156 z m -4.72151,-0.916797 q 0,-0.229199 -0.0458,-0.458398 -0.0458,-0.2292 -0.0917,-0.320879 -0.0917,-0.275039 -0.13751,-0.366719 -0.0458,-0.09168 -0.0458,-0.13752 -0.0458,-0.458398 -0.0917,-0.641757 0,-0.2292 -0.0458,-0.366719 -0.0458,-0.13752 -0.13752,-0.366719 -0.0458,-0.275039 -0.0917,-0.320879 -0.0917,-0.09168 -0.18336,-0.229199 -0.0458,-0.183359 -0.0917,-0.229199 -0.2292,-0.229199 -0.32088,-0.595918 -0.0917,-0.412559 -0.2292,-0.733438 -0.2292,-0.366718 -0.27504,-0.504238 -0.0458,-0.183359 -0.0458,-0.275039 -0.18336,-0.229199 -0.41256,-0.366719 -0.18336,-0.137519 -0.18336,-0.504238 -0.2292,-0.09168 -0.41256,-0.275039 -0.18336,-0.229199 -0.36671,-0.366719 -0.13752,-0.229199 -0.2292,-0.275039 -0.0917,-0.09168 -0.18336,-0.183359 -0.32088,-0.275039 -0.4584,-0.366719 -0.13752,-0.09168 -0.18336,-0.320879 -0.50424,-0.137519 -0.82512,-0.412558 -0.32088,-0.320879 -0.82512,-0.458399 -0.13751,-0.137519 -0.22919,-0.320879 -0.0458,-0.183359 -0.27504,-0.229199 -0.2292,-0.04584 -0.50424,0 -0.27504,0.04584 -0.50424,0 -0.2292,-0.04584 -0.36672,-0.137519 -0.13752,-0.13752 -0.32088,-0.18336 -0.13752,-0.04584 -0.27504,0.04584 -0.13752,0.04584 -0.32088,0.04584 -0.2292,-0.04584 -0.41255,-0.13752 -0.13752,-0.137519 -0.27504,-0.183359 -0.4584,-0.04584 -0.9168,0 -0.4584,0.04584 -0.96264,0 -0.36672,-0.09168 -0.73343,-0.13752 -0.32088,-0.09168 -0.6876,-0.137519 -0.41256,0.09168 -0.55008,0.04584 -0.13752,-0.04584 -0.2292,-0.04584 -0.64176,0 -0.9168,0.04584 -0.2292,0 -0.55007,0 -0.18336,0 -0.36672,-0.04584 -0.13752,-0.09168 -0.27504,-0.04584 -0.36672,0.09168 -0.41256,0.09168 -0.0458,-0.04584 -0.13752,-0.04584 -0.13752,0.04584 -0.32088,0.09168 -0.18336,0 -0.36672,0.04584 -0.2292,0.916797 -0.18336,1.787754 0.0917,0.825118 -0.0458,1.696075 -0.13752,0.504238 -0.13752,0.779277 0.0458,0.275039 0.0458,0.504238 0,0.229199 -0.0458,0.458399 -0.0458,0.183359 -0.0458,0.366718 0,0.13752 0.0458,0.320879 0.0458,0.18336 0.0917,0.412559 0,0.366718 -0.0458,0.779277 -0.0458,0.412559 0,0.779277 0.0458,0.320879 0.0917,0.641758 0.0917,0.275039 0.18336,0.550078 0.0917,0.366719 0.13752,0.733438 0.0458,0.320879 0.0917,0.687597 0.0458,0.595918 -0.0917,1.100157 -0.0917,0.504238 -0.0917,0.916796 0,0.2292 0.0458,0.366719 0.0917,0.13752 0.0917,0.320879 -0.0917,0.183359 -0.13752,0.366719 -0.0458,0.137519 -0.0917,0.366719 -0.0458,0.229199 -0.0458,0.458398 0,0.229199 -0.0458,0.458398 -0.0917,0.916797 -0.13752,2.062793 0,1.100157 -0.32088,1.7419144 0.2292,0.4125585 0.0917,0.9167968 -0.0917,0.4583984 -0.13752,0.9626367 0,0.2291992 0.0458,0.4125586 0.0458,0.1833593 0.0458,0.4125586 -0.0458,0.1833593 -0.13752,0.3208789 -0.0458,0.1375195 -0.0458,0.3667187 0,0.2291992 0.0458,0.3667187 0.0917,0.1375196 0.0917,0.3667188 0.2292,0.04584 0.50424,0.04584 0.32088,-0.04584 0.50424,0 0.4584,0.04584 0.73344,0.1375195 0.27504,0.04584 0.50424,0.04584 0.68759,-0.2291992 0.96263,-0.2291992 0.27504,-0.04584 0.50424,-0.1375196 0.27504,-0.09168 0.4584,-0.1375195 0.18336,-0.04584 0.36672,-0.1375195 0.27504,-0.2291992 0.41256,-0.2291992 0.13752,0 0.2292,-0.04584 0.68759,-0.275039 1.23767,-0.3667187 0.59592,-0.09168 0.96264,-0.2291992 0.36672,-0.1375195 0.6876,-0.3208789 0.32088,-0.1833594 0.82511,-0.09168 0.2292,-0.2750391 0.55008,-0.2750391 0.32088,-0.04584 0.64176,-0.1375195 0.2292,-0.09168 0.55008,-0.2291992 0.32088,-0.1833594 0.50424,-0.275039 0.18336,-0.09168 0.32087,-0.1375196 0.18336,-0.04584 0.41256,-0.04584 0.50424,-0.6417578 1.19184,-1.0543164 0.6876,-0.4583981 1.05432,-1.2376751 0.22919,0.04584 0.27503,-0.04584 0.0458,-0.13752 0.27504,-0.13752 0.50424,-0.916797 1.10016,-1.650234 0.59592,-0.779277 0.87096,-1.971113 0.0917,-0.13752 0.2292,-0.229199 0.13752,-0.13752 0.2292,-0.27504 -0.0917,-0.504238 0.0458,-0.916796 0.18335,-0.412559 0.22919,-0.870957 0,-0.275039 -0.0458,-0.412559 -0.0458,-0.183359 0,-0.366719 0,-0.137519 0.0458,-0.229199 0.0917,-0.137519 0.0917,-0.275039 z"
         style="font-size:46.94px;font-family:ChelseaMarket-Regular, 'Chelsea Market';isolation:isolate;fill:#fdc700"
         id="path120" />
    </g>
  </g>
  <g
     transform="translate(-28.88,-16.35)"
     id="our_stories_define_us_in_"
     data-name="our stories define us in ">
    <g
       aria-label="our stories define us in"
       transform="translate(109.69,56.56)"
       id="text51"
       style="font-size:25.78px;font-family:Boogaloo-Regular, Boogaloo;isolation:isolate;fill:#4bbcc0"
       class="cls-4">
      <path
         d="m 3.6349801,-4.6404001 q 0,2.9131401 1.289,2.9131401 0.56716,0 0.9538601,-1.6241401 0.3867,-1.64992 0.3867,-3.1451601 0,-3.2998401 -1.0827601,-3.2998401 -0.69606,0 -1.13432,1.7788201 -0.41248,1.75304 -0.41248,3.3771801 z m -3.01626008,-0.23202 q 0,-2.3975401 0.97963998,-4.6919602 0.5156001,-1.1600997 1.4436801,-1.8819397 0.95386,-0.74762 2.11396,-0.74762 1.1601001,0 1.9850601,0.54138 0.85074,0.5156 1.289,1.39212 0.85074,1.7272598 0.85074,3.7638798 0,2.8100201 -1.1601,5.0013202 -1.13432,2.16552002 -3.1967201,2.16552002 -4.30526008,0 -4.30526008,-5.54270012 z"
         style="font-size:25.78px;font-family:Boogaloo-Regular, Boogaloo;isolation:isolate;fill:#4bbcc0"
         id="path123" />
      <path
         d="m 19.210934,-12.09082 -0.05156,4.0732398 q 0,5.7489401 0.20624,8.45584021 L 16.813394,0.18046 q -0.07734,-1.08276002 -0.33514,-2.1913001 -1.4179,2.0881801 -2.86158,2.0881801 -1.4179,0 -2.26864,-0.97964002 -0.85074,-0.97964008 -0.85074,-2.70690008 0,-3.3514001 0.48982,-7.9917999 l 2.99048,0.28358 q -0.46404,4.4083798 -0.46404,7.3215199 0,1.31478 0.82496,1.31478 0.3867,0 0.92808,-1.05698 0.56716,-1.05698 0.9023,-2.5522201 -0.02578,-0.56716 -0.02578,-1.34056 0,-0.7734 0.07734,-4.7177398 z"
         style="font-size:25.78px;font-family:Boogaloo-Regular, Boogaloo;isolation:isolate;fill:#4bbcc0"
         id="path125" />
      <path
         d="m 26.4531,-9.3065802 q -1.08276,0 -1.62414,2.73268 0.05156,1.8046001 0.05156,3.4545201 0,1.6499201 -0.10312,3.71232012 L 21.786919,0.33514001 q 0.07734,-3.78966011 0.07734,-4.17636011 0,-4.7693001 -0.46404,-7.2957399 l 1.9335,0.20624 q 0.18046,0.74762 0.41248,1.3147797 1.263221,-2.7068997 2.552221,-2.7068997 1.05698,0 1.85616,0.92808 l -0.67028,2.3717598 q -0.41248,-0.28358 -1.0312,-0.28358 z"
         style="font-size:25.78px;font-family:Boogaloo-Regular, Boogaloo;isolation:isolate;fill:#4bbcc0"
         id="path127" />
      <path
         d="m 40.399274,-8.1207002 q 0,-1.5468001 -0.7734,-1.5468001 -0.3867,0 -0.72184,0.3867001 -0.30936,0.36092 -0.30936,1.00542 0,0.61872 0.23202,1.0312 0.2578,0.41248 0.9023,0.82496 0.67028,0.3867 1.0312,0.6445 0.3867,0.2320201 0.9023,0.6702801 1.05698,0.92808 1.05698,2.39754 0,1.4436801 -1.10854,2.34598009 -1.08276,0.90230002 -2.4491,0.90230002 -1.36634,0 -2.47488,-0.72184001 -1.082761,-0.74762002 -1.753041,-1.8561601 l 1.392121,-1.57258 q 1.0312,1.7788201 2.16552,1.7788201 0.3867,0 0.67028,-0.2062401 0.28358,-0.23202 0.28358,-0.61872 0,-0.82496 -1.18588,-1.52102 -1.26322,-0.69606 -1.98506,-1.5468001 -0.721841,-0.85074 -0.721841,-2.39754 0,-1.5725801 1.289001,-2.8100198 1.289,-1.26322 2.75846,-1.26322 1.49524,0 2.34598,1.0312 0.87652,1.00542 0.87652,2.7326798 0,0.69606 -0.15468,1.49524 l -2.34598,-0.20624 q 0.07734,-0.59294 0.07734,-0.97964 z"
         style="font-size:25.78px;font-family:Boogaloo-Regular, Boogaloo;isolation:isolate;fill:#4bbcc0"
         id="path129" />
      <path
         d="m 50.599295,-10.77604 v 2.4490998 q -1.23744,0 -1.90772,0.02578 -0.07734,2.578 -0.07734,8.66208021 L 45.572195,0.07734 q 0,-4.5115001 0.07734,-8.1722602 -0.3867,0 -1.46946,0.1289 l -0.3867,-2.1139598 q 0.61872,-0.1289 1.9335,-0.33514 0.05156,-1.90772 0.20624,-5.56848 l 3.06782,0.28358 q -0.15468,2.55222 -0.23202,4.94976 0.6445,-0.02578 1.83038,-0.02578 z"
         style="font-size:25.78px;font-family:Boogaloo-Regular, Boogaloo;isolation:isolate;fill:#4bbcc0"
         id="path131" />
      <path
         d="m 54.288655,-4.6404001 q 0,2.9131401 1.289,2.9131401 0.56716,0 0.95386,-1.6241401 0.3867,-1.64992 0.3867,-3.1451601 0,-3.2998401 -1.08276,-3.2998401 -0.69606,0 -1.13432,1.7788201 -0.41248,1.75304 -0.41248,3.3771801 z m -3.01626,-0.23202 q 0,-2.3975401 0.97964,-4.6919602 0.5156,-1.1600997 1.44368,-1.8819397 0.95386,-0.74762 2.11396,-0.74762 1.1601,0 1.98506,0.54138 0.85074,0.5156 1.289,1.39212 0.85074,1.7272598 0.85074,3.7638798 0,2.8100201 -1.1601,5.0013202 -1.13432,2.16552002 -3.19672,2.16552002 -4.30526,0 -4.30526,-5.54270012 z"
         style="font-size:25.78px;font-family:Boogaloo-Regular, Boogaloo;isolation:isolate;fill:#4bbcc0"
         id="path133" />
      <path
         d="m 66.281186,-9.3065802 q -1.08276,0 -1.62414,2.73268 0.05156,1.8046001 0.05156,3.4545201 0,1.6499201 -0.10312,3.71232012 l -2.99048,-0.25780001 q 0.07734,-3.78966011 0.07734,-4.17636011 0,-4.7693001 -0.46404,-7.2957399 l 1.9335,0.20624 q 0.18046,0.74762 0.41248,1.3147797 1.26322,-2.7068997 2.55222,-2.7068997 1.05698,0 1.85616,0.92808 l -0.67028,2.3717598 q -0.41248,-0.28358 -1.0312,-0.28358 z"
         style="font-size:25.78px;font-family:Boogaloo-Regular, Boogaloo;isolation:isolate;fill:#4bbcc0"
         id="path135" />
      <path
         d="m 69.652729,-12.29706 2.93892,0.28358 V 0.36092001 L 69.652729,0.07734 Z m 0.20624,-4.53728 2.88736,0.33514 -0.2578,2.88736 -2.88736,-0.36092 z"
         style="font-size:25.78px;font-family:Boogaloo-Regular, Boogaloo;isolation:isolate;fill:#4bbcc0"
         id="path137" />
      <path
         d="m 78.709966,-1.85616 q 0.97964,0 2.08818,-1.8819401 l 1.95928,1.1601 Q 82.267606,-1.72726 81.803566,-1.13432 81.365306,-0.54138001 80.463006,0 q -0.9023,0.54138001 -2.01084,0.54138001 -1.62414,0 -2.73268,-1.36634003 -1.10854,-1.39212008 -1.10854,-3.73810008 0,-2.6811201 0.95386,-5.0013202 0.5156,-1.2116597 1.46946,-1.9592797 0.97964,-0.7734 1.98506,-0.7734 1.0312,0 1.64992,0.33514 0.61872,0.30936 0.97964,0.72184 0.3867,0.3867 0.67028,1.1601 0.28358,0.7733998 0.3867,1.2632198 0.1289,0.48982 0.20624,1.4179 0.10312,1.23744 0.10312,2.2428601 -2.0624,0.56716 -5.33646,1.0312 0.07734,1.0312 0.36092,1.64992 0.28358,0.6187201 0.67028,0.6187201 z m 0.56716,-7.9144603 q -0.56716,0 -1.0312,1.1343201 -0.43826,1.13432 -0.5156,2.62956 1.36634,-0.28358 2.37176,-0.54138 0,-3.2225001 -0.82496,-3.2225001 z"
         style="font-size:25.78px;font-family:Boogaloo-Regular, Boogaloo;isolation:isolate;fill:#4bbcc0"
         id="path139" />
      <path
         d="m 89.542401,-8.1207002 q 0,-1.5468001 -0.7734,-1.5468001 -0.3867,0 -0.72184,0.3867001 -0.30936,0.36092 -0.30936,1.00542 0,0.61872 0.23202,1.0312 0.2578,0.41248 0.9023,0.82496 0.67028,0.3867 1.0312,0.6445 0.3867,0.2320201 0.9023,0.6702801 1.05698,0.92808 1.05698,2.39754 0,1.4436801 -1.10854,2.34598009 -1.08276,0.90230002 -2.4491,0.90230002 -1.36634,0 -2.47488,-0.72184001 -1.08276,-0.74762002 -1.75304,-1.8561601 l 1.39212,-1.57258 q 1.0312,1.7788201 2.16552,1.7788201 0.3867,0 0.67028,-0.2062401 0.28358,-0.23202 0.28358,-0.61872 0,-0.82496 -1.18588,-1.52102 -1.26322,-0.69606 -1.98506,-1.5468001 -0.72184,-0.85074 -0.72184,-2.39754 0,-1.5725801 1.289,-2.8100198 1.289,-1.26322 2.75846,-1.26322 1.49524,0 2.34598,1.0312 0.87652,1.00542 0.87652,2.7326798 0,0.69606 -0.15468,1.49524 l -2.34598,-0.20624 q 0.07734,-0.59294 0.07734,-0.97964 z"
         style="font-size:25.78px;font-family:Boogaloo-Regular, Boogaloo;isolation:isolate;fill:#4bbcc0"
         id="path141" />
      <path
         d="m 105.08372,-11.67834 0.0258,-3.19672 q 0,-1.77882 -0.0773,-4.047461 l 3.01626,0.257801 q 0.0516,1.83038 0.0516,6.65124 0,4.7950798 -0.41248,12.37440001 L 105.39308,0.15468 q -0.0773,-1.03120002 -0.15468,-2.4233201 -1.10854,2.2170801 -2.39754,2.2170801 -1.98506,0 -2.75846,-1.23744 -0.773402,-1.2374401 -0.773402,-3.5834201 0,-2.3717601 1.005422,-4.8982002 1.0312,-2.5264397 2.3202,-2.5264397 1.1601,0 2.4491,0.61872 z m 0.0773,2.3975398 q -0.6445,-0.4898201 -1.289,-0.4898201 -0.61872,0 -1.08276,1.6757001 -0.46404,1.64992 -0.46404,3.4545201 0,1.8046 0.87652,1.8046 0.33514,0 0.9023,-1.10854 0.56716,-1.13432 1.0312,-2.8615801 z"
         style="font-size:25.78px;font-family:Boogaloo-Regular, Boogaloo;isolation:isolate;fill:#4bbcc0"
         id="path143" />
      <path
         d="m 113.95606,-1.85616 q 0.97964,0 2.08818,-1.8819401 l 1.95928,1.1601 Q 117.5137,-1.72726 117.04966,-1.13432 116.6114,-0.54138001 115.7091,0 q -0.9023,0.54138001 -2.01084,0.54138001 -1.62414,0 -2.73268,-1.36634003 -1.10854,-1.39212008 -1.10854,-3.73810008 0,-2.6811201 0.95386,-5.0013202 0.5156,-1.2116597 1.46946,-1.9592797 0.97964,-0.7734 1.98506,-0.7734 1.0312,0 1.64992,0.33514 0.61872,0.30936 0.97964,0.72184 0.3867,0.3867 0.67028,1.1601 0.28358,0.7733998 0.3867,1.2632198 0.1289,0.48982 0.20624,1.4179 0.10312,1.23744 0.10312,2.2428601 -2.0624,0.56716 -5.33646,1.0312 0.0773,1.0312 0.36092,1.64992 0.28358,0.6187201 0.67028,0.6187201 z m 0.56716,-7.9144603 q -0.56716,0 -1.0312,1.1343201 -0.43826,1.13432 -0.5156,2.62956 1.36634,-0.28358 2.37176,-0.54138 0,-3.2225001 -0.82496,-3.2225001 z"
         style="font-size:25.78px;font-family:Boogaloo-Regular, Boogaloo;isolation:isolate;fill:#4bbcc0"
         id="path145" />
      <path
         d="m 120.50901,-11.4721 q 0,-3.4803 1.0312,-5.46536 1.05698,-2.010841 2.68112,-2.010841 1.64992,0 2.50066,1.675701 0.87652,1.64992 0.87652,4.56306 l -2.39754,-0.2578 q 0,-2.88736 -0.9023,-2.88736 -0.7734,0 -0.7734,4.3826 v 0.74762 q 1.72726,-0.1289 2.81002,-0.1289 v 2.3975398 q -1.77882,0 -2.78424,0.1289 0,3.9443401 0.28358,8.76520021 L 120.81837,0.1289 q -0.20624,-3.5576401 -0.28358,-8.0433602 -0.67028,0.10312 -0.92808,0.18046 L 119.06533,-10.0542 q 0.2578,-0.07734 1.44368,-0.28358 z"
         style="font-size:25.78px;font-family:Boogaloo-Regular, Boogaloo;isolation:isolate;fill:#4bbcc0"
         id="path147" />
      <path
         d="m 127.85913,-12.29706 2.93892,0.28358 V 0.36092001 L 127.85913,0.07734 Z m 0.20624,-4.53728 2.88736,0.33514 -0.2578,2.88736 -2.88736,-0.36092 z"
         style="font-size:25.78px;font-family:Boogaloo-Regular, Boogaloo;isolation:isolate;fill:#4bbcc0"
         id="path149" />
      <path
         d="m 138.79831,-12.27128 q 3.40296,0 3.40296,5.6715998 0,2.9904801 -0.33514,6.34188019 l -3.01626,-0.28358 q 0.28358,-2.93892009 0.28358,-5.92940019 0,-3.0162601 -0.85074,-3.0162601 -0.41248,0 -1.05698,2.0881801 -0.6445,2.0624001 -0.79918,4.0474601 0.0516,1.05698 0.20624,3.81544011 L 133.61653,0.18046 q -0.28358,-3.6349801 -0.28358,-6.3934402 0,-2.75846 0.15468,-4.9497598 l 1.90772,0.20624 q 0.0516,0.20624 0.3867,1.6756998 1.49524,-2.9904798 3.01626,-2.9904798 z"
         style="font-size:25.78px;font-family:Boogaloo-Regular, Boogaloo;isolation:isolate;fill:#4bbcc0"
         id="path151" />
      <path
         d="m 147.84267,-1.85616 q 0.97964,0 2.08818,-1.8819401 l 1.95928,1.1601 Q 151.40031,-1.72726 150.93627,-1.13432 150.49801,-0.54138001 149.59571,0 q -0.9023,0.54138001 -2.01084,0.54138001 -1.62414,0 -2.73268,-1.36634003 -1.10854,-1.39212008 -1.10854,-3.73810008 0,-2.6811201 0.95386,-5.0013202 0.5156,-1.2116597 1.46946,-1.9592797 0.97964,-0.7734 1.98506,-0.7734 1.0312,0 1.64992,0.33514 0.61872,0.30936 0.97964,0.72184 0.3867,0.3867 0.67028,1.1601 0.28358,0.7733998 0.3867,1.2632198 0.1289,0.48982 0.20624,1.4179 0.10312,1.23744 0.10312,2.2428601 -2.0624,0.56716 -5.33646,1.0312 0.0773,1.0312 0.36092,1.64992 0.28358,0.6187201 0.67028,0.6187201 z m 0.56716,-7.9144603 q -0.56716,0 -1.0312,1.1343201 -0.43826,1.13432 -0.5156,2.62956 1.36634,-0.28358 2.37176,-0.54138 0,-3.2225001 -0.82496,-3.2225001 z"
         style="font-size:25.78px;font-family:Boogaloo-Regular, Boogaloo;isolation:isolate;fill:#4bbcc0"
         id="path153" />
      <path
         d="m 168.55368,-12.09082 -0.0516,4.0732398 q 0,5.7489401 0.20624,8.45584021 L 166.15614,0.18046 q -0.0773,-1.08276002 -0.33514,-2.1913001 -1.4179,2.0881801 -2.86158,2.0881801 -1.4179,0 -2.26864,-0.97964002 -0.85074,-0.97964008 -0.85074,-2.70690008 0,-3.3514001 0.48982,-7.9917999 l 2.99048,0.28358 q -0.46404,4.4083798 -0.46404,7.3215199 0,1.31478 0.82496,1.31478 0.3867,0 0.92808,-1.05698 0.56716,-1.05698 0.9023,-2.5522201 -0.0258,-0.56716 -0.0258,-1.34056 0,-0.7734 0.0773,-4.7177398 z"
         style="font-size:25.78px;font-family:Boogaloo-Regular, Boogaloo;isolation:isolate;fill:#4bbcc0"
         id="path155" />
      <path
         d="m 175.74427,-8.1207002 q 0,-1.5468001 -0.7734,-1.5468001 -0.3867,0 -0.72184,0.3867001 -0.30936,0.36092 -0.30936,1.00542 0,0.61872 0.23202,1.0312 0.2578,0.41248 0.9023,0.82496 0.67028,0.3867 1.0312,0.6445 0.3867,0.2320201 0.9023,0.6702801 1.05698,0.92808 1.05698,2.39754 0,1.4436801 -1.10854,2.34598009 -1.08276,0.90230002 -2.4491,0.90230002 -1.36634,0 -2.47488,-0.72184001 -1.08276,-0.74762002 -1.75304,-1.8561601 l 1.39212,-1.57258 q 1.0312,1.7788201 2.16552,1.7788201 0.3867,0 0.67028,-0.2062401 0.28358,-0.23202 0.28358,-0.61872 0,-0.82496 -1.18588,-1.52102 -1.26322,-0.69606 -1.98506,-1.5468001 -0.72184,-0.85074 -0.72184,-2.39754 0,-1.5725801 1.289,-2.8100198 1.289,-1.26322 2.75846,-1.26322 1.49524,0 2.34598,1.0312 0.87652,1.00542 0.87652,2.7326798 0,0.69606 -0.15468,1.49524 l -2.34598,-0.20624 q 0.0773,-0.59294 0.0773,-0.97964 z"
         style="font-size:25.78px;font-family:Boogaloo-Regular, Boogaloo;isolation:isolate;fill:#4bbcc0"
         id="path157" />
      <path
         d="m 186.61941,-12.29706 2.93892,0.28358 V 0.36092001 L 186.61941,0.07734 Z m 0.20624,-4.53728 2.88736,0.33514 -0.2578,2.88736 -2.88736,-0.36092 z"
         style="font-size:25.78px;font-family:Boogaloo-Regular, Boogaloo;isolation:isolate;fill:#4bbcc0"
         id="path159" />
      <path
         d="m 197.5586,-12.27128 q 3.40296,0 3.40296,5.6715998 0,2.9904801 -0.33514,6.34188019 l -3.01626,-0.28358 q 0.28358,-2.93892009 0.28358,-5.92940019 0,-3.0162601 -0.85074,-3.0162601 -0.41248,0 -1.05698,2.0881801 -0.6445,2.0624001 -0.79918,4.0474601 0.0516,1.05698 0.20624,3.81544011 L 192.37682,0.18046 q -0.28358,-3.6349801 -0.28358,-6.3934402 0,-2.75846 0.15468,-4.9497598 l 1.90772,0.20624 q 0.0516,0.20624 0.3867,1.6756998 1.49524,-2.9904798 3.01626,-2.9904798 z"
         style="font-size:25.78px;font-family:Boogaloo-Regular, Boogaloo;isolation:isolate;fill:#4bbcc0"
         id="path161" />
    </g>
  </g>
  <path
     d="m 80.22,193.17 c -0.26,-1 -0.52,-2.37 -0.76,-4 -0.24,-1.63 -0.49,-3.53 -0.72,-5.73 -0.23,-2.2 -0.47,-4.09 -0.71,-5.7 -0.24,-1.61 -0.5,-2.91 -0.76,-3.93 a 1.32,1.32 0 0 1 0.13,-1 0.9,0.9 0 0 1 0.74,-0.52 4.19,4.19 0 0 1 0.86,-0.09 2.06,2.06 0 0 1 1.87,1.08 q 0.34,1.83 0.89,6.36 0.55,4.53 1.28,11.9 1.08,-3.72 1.43,-5.42 c 0.11,-0.55 0.23,-1.18 0.35,-1.91 0.12,-0.73 0.24,-1.53 0.39,-2.42 q 0.21,-0.82 0.39,-1.65 c 0.11,-0.55 0.23,-1.1 0.34,-1.65 0.12,-1.33 0.61,-2 1.48,-2 a 4.23,4.23 0 0 1 1,0.13 c 0,0.18 0.16,0.28 0.39,0.31 0.23,0.03 0.36,0.07 0.39,0.13 a 19.05,19.05 0 0 1 1.43,5.68 c 0.29,1.68 0.55,3.32 0.79,4.92 0.24,1.6 0.43,3.19 0.6,4.75 q 0.62,-3.9 1.11,-6.74 c 0.33,-1.9 0.61,-3.49 0.85,-4.8 a 28.71,28.71 0 0 1 2.34,-7.28 1.28,1.28 0 0 1 1.25,-0.57 2.74,2.74 0 0 1 1.22,0.26 1.51,1.51 0 0 1 1,1.39 4.1,4.1 0 0 1 -0.52,1.65 10.73,10.73 0 0 0 -0.5,1.08 5,5 0 0 1 -0.2,0.48 c -0.34,1.07 -0.72,2.42 -1.13,4 -0.41,1.58 -0.83,3.52 -1.3,5.72 -0.47,2.2 -0.88,4.1 -1.25,5.7 -0.37,1.6 -0.73,2.92 -1,3.93 q -0.26,0.87 -1.47,0.87 a 2.52,2.52 0 0 1 -1,-0.22 4.92,4.92 0 0 1 -2.3,-3.21 8.94,8.94 0 0 1 -0.17,-1 c -0.09,-0.64 -0.23,-1.56 -0.43,-2.78 -0.12,-0.92 -0.24,-2 -0.37,-3.21 -0.13,-1.21 -0.3,-2.57 -0.5,-4.07 -0.35,1.59 -0.66,3.06 -0.93,4.42 -0.27,1.36 -0.53,2.6 -0.76,3.73 q -0.87,4.17 -2,5.29 c -0.23,0.23 -0.64,0.26 -1.22,0.09 a 2.15,2.15 0 0 1 -1.86,-1.56 z"
     id="path54" />
  <path
     d="m 110.36,186.79 a 5,5 0 0 1 -0.67,-0.06 l -0.87,-0.13 -0.86,-0.13 a 5.4,5.4 0 0 0 -0.59,-0.07 4.17,4.17 0 0 0 -1.26,0.18 29.75,29.75 0 0 0 -0.8,4.23 58.73,58.73 0 0 0 -0.41,5.92 4.5,4.5 0 0 1 -1.13,0.21 4.43,4.43 0 0 1 -0.8,-0.08 1.74,1.74 0 0 1 -0.76,-0.37 2.31,2.31 0 0 1 -0.59,-0.76 2.83,2.83 0 0 1 -0.24,-1.26 8.84,8.84 0 0 1 0.07,-0.89 c 0,-0.36 0.06,-0.61 0.06,-0.76 0,-0.32 0.05,-0.87 0.14,-1.67 0.09,-0.8 0.18,-1.72 0.3,-2.79 0.12,-1.07 0.25,-2.24 0.41,-3.5 0.16,-1.26 0.3,-2.5 0.41,-3.75 0.11,-1.25 0.22,-2.41 0.31,-3.51 0.09,-1.1 0.13,-2 0.13,-2.78 v -0.52 a 0.55,0.55 0 0 1 0.47,-0.61 5.27,5.27 0 0 1 0.7,-0.08 l 1.3,0.34 a 1.27,1.27 0 0 1 0.63,0.46 2.56,2.56 0 0 1 0.37,0.78 5.71,5.71 0 0 1 0.17,1 c 0,0.34 0,0.68 0,1 0,0.32 0,0.58 -0.08,1.05 -0.08,0.47 -0.12,1 -0.18,1.49 -0.06,0.49 -0.11,1.07 -0.17,1.61 a 12.47,12.47 0 0 0 -0.09,1.36 0.9,0.9 0 0 0 0.61,1 6.18,6.18 0 0 0 1.78,0.19 h 0.52 a 8.65,8.65 0 0 0 1,0 5.22,5.22 0 0 1 0.57,0 h 0.17 c 0.38,-1.56 0.72,-3.31 1,-5.23 0.28,-1.92 0.6,-4.11 0.89,-6.57 0.14,-1 0.45,-1.49 0.91,-1.52 h 0.39 a 3.43,3.43 0 0 1 1.37,0.24 1.11,1.11 0 0 1 0.67,0.72 q 0,1 -0.24,2.88 c -0.13,1.23 -0.28,2.6 -0.45,4.12 -0.17,1.52 -0.36,3.12 -0.55,4.79 -0.19,1.67 -0.37,3.31 -0.54,4.88 -0.17,1.57 -0.31,3.05 -0.41,4.41 -0.1,1.36 -0.15,2.47 -0.15,3.34 0,0.46 0,0.9 0,1.32 0,0.42 0,0.83 0.06,1.23 a 1,1 0 0 1 -0.19,0.59 0.58,0.58 0 0 1 -0.5,0.28 2.72,2.72 0 0 1 -2.41,-1 5,5 0 0 1 -0.67,-2.84 c 0,-0.18 0,-0.41 0,-0.7 0,-0.29 0,-0.6 0,-0.93 0,-0.33 0,-0.64 0.05,-0.93 0.05,-0.29 0,-0.52 0,-0.7 0,-0.18 0,-0.59 0.07,-1.08 0.07,-0.49 0.09,-1 0.15,-1.56 0.06,-0.56 0.11,-1.08 0.15,-1.59 0.04,-0.51 0.06,-0.89 0.06,-1.15 z"
     id="path56" />
  <path
     d="m 117.56,197.59 a 11,11 0 0 1 1,-4 18.43,18.43 0 0 0 1.43,-4.6 c 0,-0.23 -0.19,-0.49 -0.56,-0.78 -0.37,-0.29 -0.61,-0.56 -0.61,-0.74 a 0.61,0.61 0 0 1 0.17,-0.43 1.45,1.45 0 0 1 0.91,-0.39 c 0.49,-0.12 0.77,-0.27 0.83,-0.48 q 0.78,-2.12 2.47,-8.06 c 0.49,-1.74 1,-3.25 1.37,-4.54 0.37,-1.29 0.81,-2.39 1.19,-3.32 a 1,1 0 0 1 1.08,-0.6 1.68,1.68 0 0 1 1.09,0.39 5,5 0 0 1 1.56,3.12 c 0.09,0.58 0.17,1.17 0.26,1.78 0.09,0.61 0.16,1.2 0.22,1.78 q 1.08,5.11 2.21,9.3 1.13,4.19 2.3,7.57 a 3.94,3.94 0 0 1 0.26,1.21 2,2 0 0 1 -0.74,1.52 2,2 0 0 1 -1,0.61 c -1.42,-0.26 -2.31,-1.4 -2.69,-3.43 a 28.18,28.18 0 0 0 -1.43,-5.51 l -2.95,0.26 a 4.91,4.91 0 0 0 -2.64,1.05 c -0.15,0.46 -0.33,1.08 -0.55,1.86 -0.22,0.78 -0.45,1.75 -0.71,2.91 a 29.72,29.72 0 0 1 -1.43,4.81 0.85,0.85 0 0 1 -0.87,0.52 h -0.28 a 0.88,0.88 0 0 1 -0.33,-0.08 c -1,-0.29 -1.46,-0.73 -1.52,-1.31 z m 10.56,-12.31 c 0,-0.58 -0.13,-1.17 -0.21,-1.76 -0.08,-0.59 -0.21,-1.21 -0.35,-1.84 -0.14,-0.63 -0.28,-1.16 -0.41,-1.74 -0.13,-0.58 -0.27,-1.16 -0.41,-1.73 q -1.31,3.63 -2.26,7.2 a 27.93,27.93 0 0 1 3.64,-0.13 z"
     id="path58" />
  <path
     d="m 144.37,196.08 c 0,0.17 0,0.32 0,0.45 0,0.13 0,0.25 -0.07,0.37 a 0.85,0.85 0 0 1 -0.87,0.65 2.65,2.65 0 0 1 -2.06,-1.06 4,4 0 0 1 -0.88,-2.28 c -0.09,-1.07 -0.13,-2.2 -0.13,-3.38 q 0,-2.87 0.39,-9.07 c 0.11,-1.73 0.2,-3.29 0.26,-4.66 0.06,-1.37 0.08,-2.57 0.08,-3.58 v -0.82 h -0.56 c -0.35,0 -0.75,0 -1.19,0 -0.44,0 -0.95,0.09 -1.5,0.17 -0.32,0.06 -0.56,0.11 -0.74,0.16 a 3.47,3.47 0 0 1 -0.74,0.06 5.3,5.3 0 0 1 -3.47,-1.13 10.41,10.41 0 0 1 -0.52,-1.17 0.93,0.93 0 0 1 0.31,-0.65 c 0.46,-0.14 1,-0.28 1.6,-0.41 a 21.17,21.17 0 0 1 2.26,-0.33 17.14,17.14 0 0 0 5.64,-1.38 12.7,12.7 0 0 0 3.47,0.47 15.82,15.82 0 0 0 3.73,-0.47 c 0.17,0 0.45,-0.1 0.82,-0.2 l 1.17,-0.32 a 7.07,7.07 0 0 1 2,-0.31 h 0.28 0.28 c 0.44,0 0.66,0.15 0.66,0.47 v 0.18 q 1.17,0 1.17,0.78 a 2.18,2.18 0 0 1 -1.48,1.82 c -0.92,0.23 -2.1,0.48 -3.53,0.76 -1.43,0.28 -3.31,0.6 -5.62,1 -0.29,3.65 -0.51,6.94 -0.65,9.89 -0.14,2.95 -0.22,5.66 -0.22,8.11 0,0.93 0,1.83 0,2.71 0,0.88 0,1.78 0.07,2.67 z"
     id="path60" />
  <path
     d="m 164.75,166.65 a 1.11,1.11 0 0 1 0.61,0.57 5.3,5.3 0 0 1 0.22,1.47 9.2,9.2 0 0 1 -0.91,3.47 c -0.44,1 -0.78,1.82 -1,2.41 a 9.83,9.83 0 0 0 -0.46,1.24 q -1,3.42 -2.95,3.42 a 1.67,1.67 0 0 1 -0.69,-0.13 c -0.61,-0.17 -0.82,-0.62 -0.65,-1.34 0.09,-0.38 0.28,-1 0.58,-1.82 0.3,-0.82 0.71,-2 1.2,-3.34 0.37,-1.07 0.68,-2 0.91,-2.93 a 14.22,14.22 0 0 0 0.43,-2.45 c 0.06,-0.61 0.64,-0.84 1.74,-0.7 z"
     id="path62" />
  <path
     d="m 171.65,200.2 c -0.87,-0.38 -1.3,-0.86 -1.3,-1.43 a 2.11,2.11 0 0 1 0.65,-1.26 1.48,1.48 0 0 1 0.82,-0.26 0.94,0.94 0 0 0 0.87,-0.52 8.79,8.79 0 0 0 0.91,-3.91 q 0,-2.73 -2.82,-8.15 -2.82,-5.42 -2.77,-8.59 a 10.38,10.38 0 0 1 1,-4.73 7.08,7.08 0 0 1 3.34,-3.42 4.87,4.87 0 0 1 1.95,-0.48 3.49,3.49 0 0 1 2.73,1 1.32,1.32 0 0 1 0.44,0.95 c 0,0.58 -0.42,1.08 -1.26,1.52 a 0.86,0.86 0 0 1 -0.39,0.09 0.85,0.85 0 0 1 -0.35,-0.05 2.54,2.54 0 0 0 -0.65,-0.17 0.76,0.76 0 0 0 -0.52,0.26 7.79,7.79 0 0 0 -2.34,5.72 6.94,6.94 0 0 0 0.39,2.35 c 0.06,0.14 0.36,0.78 0.91,1.91 0.55,1.13 1.34,2.73 2.38,4.81 a 16.51,16.51 0 0 1 2.09,7.07 9.74,9.74 0 0 1 -1.17,4.6 7.31,7.31 0 0 1 -2,1.91 4.05,4.05 0 0 1 -2.25,0.91 2,2 0 0 1 -0.66,-0.13 z"
     id="path64" />
  <path
     d="m 196.03,184.49 q -1.51,-4.2 -2.84,-7.15 -1.33,-2.95 -2.41,-4.9 a 0.7,0.7 0 0 1 -0.13,-0.44 1.16,1.16 0 0 1 0.54,-0.89 1.8,1.8 0 0 1 1.06,-0.41 2.44,2.44 0 0 1 0.44,0.13 l 0.5,0.18 0.71,0.17 a 16.28,16.28 0 0 1 1.11,1.89 c 0.36,0.7 0.74,1.49 1.15,2.36 l 2,4.42 1.74,-5.16 a 20.59,20.59 0 0 1 2.21,-4.94 1.26,1.26 0 0 1 1.21,-0.61 2.81,2.81 0 0 1 2,0.82 c -0.4,1.65 -1,3.53 -1.71,5.64 -0.71,2.11 -1.66,4.49 -2.76,7.12 q -2,4.59 -3.14,7.74 c -0.8,2.1 -1.38,3.72 -1.76,4.88 a 7.33,7.33 0 0 0 -0.22,1.73 c 0,0.23 0,0.45 0,0.65 0,0.2 0,0.38 0,0.52 0,0.14 0,0.28 0,0.39 a 1.8,1.8 0 0 0 0,0.27 1.51,1.51 0 0 1 -1.73,1.51 2.71,2.71 0 0 1 -1.48,-0.52 1.46,1.46 0 0 1 -0.78,-1.21 22.67,22.67 0 0 1 0.46,-3.39 25.92,25.92 0 0 1 1.15,-3.86 z"
     id="path66" />
  <path
     d="m 219.58,186.27 a 14.31,14.31 0 0 1 -1.56,2.8 13.3,13.3 0 0 1 -2,2.21 8.67,8.67 0 0 1 -2.3,1.46 6.63,6.63 0 0 1 -2.54,0.52 5.39,5.39 0 0 1 -2.06,-0.48 7.35,7.35 0 0 1 -2.17,-1.43 8.52,8.52 0 0 1 -1.73,-2.32 6.76,6.76 0 0 1 -0.72,-3.19 12.26,12.26 0 0 1 0.54,-3.32 19,19 0 0 1 1.43,-3.58 11.86,11.86 0 0 1 2.06,-2.86 3.44,3.44 0 0 1 2.43,-1.17 1.21,1.21 0 0 1 0.5,0.09 4.19,4.19 0 0 1 0.43,0.21 l 0.59,0.35 a 9.09,9.09 0 0 0 1,0.48 c 0.26,0.11 0.56,0.24 0.89,0.36 0.33,0.12 0.73,0.27 1.2,0.42 a 5,5 0 0 1 2.17,1.39 8.17,8.17 0 0 1 1.38,2.06 8.7,8.7 0 0 1 0.72,2.16 9.89,9.89 0 0 1 0.19,1.72 4.69,4.69 0 0 1 -0.45,2.12 z m -3.46,-2.69 a 9.4,9.4 0 0 0 -0.71,-2.79 1.54,1.54 0 0 0 -1.37,-1.07 1.2,1.2 0 0 0 -0.67,0.33 c -0.28,0.22 -0.55,0.45 -0.83,0.71 -0.28,0.26 -0.53,0.5 -0.78,0.72 -0.25,0.22 -0.41,0.33 -0.5,0.33 a 1.51,1.51 0 0 1 -0.82,-0.35 1.63,1.63 0 0 0 -0.65,-0.35 0.92,0.92 0 0 0 -0.76,0.46 3.9,3.9 0 0 0 -0.54,1.08 7,7 0 0 0 -0.33,1.35 8.57,8.57 0 0 0 -0.11,1.23 5.74,5.74 0 0 0 0.35,2 6.71,6.71 0 0 0 0.82,1.56 4.24,4.24 0 0 0 1,1 1.6,1.6 0 0 0 0.76,0.35 3.21,3.21 0 0 0 1.73,-0.59 7.3,7.3 0 0 0 1.67,-1.49 8.87,8.87 0 0 0 1.26,-2 5,5 0 0 0 0.5,-2.08 z"
     id="path68" />
  <path
     d="m 227.86,175 c 0,1.38 0,3.13 -0.13,5.24 q -0.08,2.35 -0.15,4 c 0,1.1 -0.06,2 -0.06,2.65 0,1.48 0,2.79 0.13,4 a 19.3,19.3 0 0 0 0.78,3.47 14.4,14.4 0 0 0 2.86,-5.42 c 0.12,-0.38 0.29,-1.08 0.52,-2.11 0.23,-1.03 0.52,-2.38 0.87,-4.05 0.29,-1.3 0.59,-2.45 0.91,-3.45 a 24.56,24.56 0 0 1 0.95,-2.54 6.2,6.2 0 0 0 0.52,-2.3 7.13,7.13 0 0 1 0.52,-2.34 1.63,1.63 0 0 1 1.65,-1 2.43,2.43 0 0 1 2.17,0.95 c -0.11,1 -0.31,2.19 -0.58,3.52 -0.27,1.33 -0.66,2.86 -1.15,4.59 q -1,3.43 -1.54,5.47 c -0.36,1.36 -0.6,2.28 -0.72,2.78 a 20.41,20.41 0 0 1 -3.64,8 4.7,4.7 0 0 1 -3.91,2.25 c -1.3,0 -2.27,-0.82 -2.9,-2.47 a 26.6,26.6 0 0 1 -1.35,-13.23 30,30 0 0 0 0.31,-4.47 c 0,0 -0.05,-0.91 -0.05,-2.73 0,-1.82 0.7,-2.69 2.09,-2.69 a 1.88,1.88 0 0 1 0.84,0.22 c 0.31,0.14 0.62,0.3 0.93,0.47 a 0.09,0.09 0 0 1 0.07,0 h 0.06 z"
     id="path70" />
  <path
     d="m 242.83,192.65 c 0.06,-0.84 0.14,-1.75 0.24,-2.75 0.1,-1 0.15,-2.08 0.15,-3.23 v -4.73 c 0,-2 0,-3.8 0.06,-5.42 a 32.34,32.34 0 0 1 0.42,-4.51 q 0.42,-2.47 4.46,-2.48 h 0.61 a 5.33,5.33 0 0 1 4.08,2.35 7,7 0 0 1 1.6,4.51 6.72,6.72 0 0 1 -1.52,4.07 11.19,11.19 0 0 1 -3.16,3 4,4 0 0 0 -0.61,0.42 0.61,0.61 0 0 0 -0.22,0.45 0.69,0.69 0 0 0 0.2,0.5 c 0.13,0.13 0.35,0.33 0.67,0.59 l 1.39,1.17 4.81,4.51 c 1,0.92 1.84,1.78 2.56,2.58 a 12.21,12.21 0 0 1 1.7,2.28 0.82,0.82 0 0 1 0.13,0.39 c 0,0.66 -0.7,1.17 -2.09,1.51 a 45.36,45.36 0 0 1 -5.72,-5.46 c -1.3,-1.39 -2.42,-2.55 -3.34,-3.49 -0.92,-0.94 -1.71,-1.69 -2.34,-2.24 -0.06,0.38 -0.13,1.06 -0.2,2 -0.07,0.94 -0.17,2.27 -0.28,3.86 a 31.43,31.43 0 0 1 -0.78,5.73 1.42,1.42 0 0 0 -0.44,0.19 1.4,1.4 0 0 1 -0.69,0.2 h -0.09 a 0.13,0.13 0 0 0 -0.08,0 2.39,2.39 0 0 1 -1.91,-2.64 c 0,-0.23 0,-0.5 0,-0.8 0,-0.3 0.07,-0.62 0.13,-0.94 z m 8.37,-17.61 a 3.28,3.28 0 0 0 -0.76,-1.65 2.52,2.52 0 0 0 -2,-0.73 c -0.69,0 -1.12,0.21 -1.3,0.65 -0.18,0.44 -0.11,0.81 -0.15,1.23 -0.04,0.42 -0.06,0.84 -0.06,1.24 0,0.4 0,1.34 0.13,2.91 0,0.31 0,0.6 0,0.86 0,0.26 0,0.51 0,0.74 0,0.23 0,0.46 0,0.7 0,0.24 0,0.43 0,0.6 2.4,-1.76 3.75,-3.48 4.07,-5.16 0,-0.2 0.05,-0.39 0.07,-0.56 0.02,-0.17 0,-0.34 0,-0.48 z"
     id="path72" />
  <path
     d="m 263.21,200.2 c -0.86,-0.38 -1.3,-0.86 -1.3,-1.43 a 2.11,2.11 0 0 1 0.65,-1.26 1.49,1.49 0 0 1 0.83,-0.26 1,1 0 0 0 0.87,-0.52 8.93,8.93 0 0 0 0.91,-3.91 q 0,-2.73 -2.82,-8.15 -2.82,-5.42 -2.78,-8.59 a 10.51,10.51 0 0 1 1,-4.73 7.12,7.12 0 0 1 3.34,-3.42 4.87,4.87 0 0 1 1.95,-0.48 3.52,3.52 0 0 1 2.74,1 1.31,1.31 0 0 1 0.43,0.95 c 0,0.58 -0.42,1.08 -1.26,1.52 a 0.8,0.8 0 0 1 -0.39,0.09 0.88,0.88 0 0 1 -0.35,-0.05 2.45,2.45 0 0 0 -0.65,-0.17 0.78,0.78 0 0 0 -0.52,0.26 7.79,7.79 0 0 0 -2.34,5.72 6.94,6.94 0 0 0 0.39,2.35 c 0.06,0.14 0.36,0.78 0.91,1.91 0.55,1.13 1.35,2.73 2.39,4.81 a 16.48,16.48 0 0 1 2.08,7.07 9.74,9.74 0 0 1 -1.17,4.6 7.23,7.23 0 0 1 -2,1.91 4.05,4.05 0 0 1 -2.26,0.91 2,2 0 0 1 -0.65,-0.13 z"
     id="path74" />
  <path
     d="m 273.32,198.77 a 1.93,1.93 0 0 1 -0.17,-0.87 1.11,1.11 0 0 1 0.39,-0.87 1.72,1.72 0 0 1 0.91,-0.22 6.52,6.52 0 0 1 1.13,0.13 2.35,2.35 0 0 1 1.73,1.09 1.25,1.25 0 0 1 0.22,0.69 1.69,1.69 0 0 1 -0.7,1.26 2.1,2.1 0 0 1 -1.34,0.61 c -0.98,0 -1.71,-0.61 -2.17,-1.82 z m 5.12,-6.86 a 2.4,2.4 0 0 1 -1.78,1.35 2,2 0 0 1 -0.41,0 h -0.37 c -0.9,0 -1.34,-0.26 -1.34,-0.78 q 0.3,-3.35 4,-8.94 3.7,-5.59 4.16,-8.8 v -0.26 a 1.66,1.66 0 0 0 -0.33,-1 1.08,1.08 0 0 0 -0.93,-0.44 2.38,2.38 0 0 0 -1.43,0.87 c -0.4,0.58 -1.06,1.4 -1.95,2.47 a 8.84,8.84 0 0 0 -0.78,2.43 1.47,1.47 0 0 1 -1.48,1.26 h -0.21 a 2,2 0 0 1 -2,-1.73 1.48,1.48 0 0 1 -0.05,-0.35 v -0.34 a 6.4,6.4 0 0 1 1.65,-4 29.23,29.23 0 0 1 3.26,-2.95 6.26,6.26 0 0 1 1.36,-0.8 3.58,3.58 0 0 1 1.41,-0.28 5.71,5.71 0 0 1 3.08,1.08 4.42,4.42 0 0 1 1.78,2.69 8.94,8.94 0 0 1 0.3,2.39 11.28,11.28 0 0 1 -0.6,3.49 16.82,16.82 0 0 1 -1.87,3.79 l -4.38,6.68 z"
     id="path76" />
  <path
     class="cls-5"
     d="m 79.12,106.13 q 1,0 1.41,1.47 -0.28,4.92 -0.63,7 c -0.23,1.38 -0.41,2.59 -0.56,3.63 -0.15,1.04 -0.24,1.75 -0.29,2.14 -0.05,0.39 -0.19,1.19 -0.42,2.39 -0.23,1.2 -0.46,2.4 -0.7,3.58 -0.24,1.18 -0.39,1.9 -0.44,2.12 -0.05,0.22 -0.35,1.69 -0.9,4.37 a 32.34,32.34 0 0 1 -1.25,4.92 1.43,1.43 0 0 1 -1.41,0.9 2.13,2.13 0 0 1 -1.58,-0.59 40.27,40.27 0 0 1 -4.23,-7.61 c -0.33,-0.78 -0.69,-1.62 -1.1,-2.53 -0.41,-0.91 -0.71,-1.59 -0.9,-2.05 l -0.44,-1 a 63.69,63.69 0 0 0 -2.83,5.94 q -1.8,4.2 -3.16,6.73 a 2.49,2.49 0 0 1 -2,1.12 q -2.25,0 -3.41,-11.94 c 0,0 0,-0.21 -0.08,-0.54 -0.08,-0.33 -0.11,-0.89 -0.19,-1.7 -0.08,-0.81 -0.18,-1.72 -0.3,-2.71 -0.12,-0.99 -0.52,-5.09 -1.24,-12.3 a 2.63,2.63 0 0 1 0.73,-1.78 2.16,2.16 0 0 1 1.61,-0.81 c 0.72,0 1.2,0.48 1.46,1.42 q 1.32,15.84 2.63,23.39 c 0.26,-0.45 0.93,-2 2,-4.51 a 53.79,53.79 0 0 1 2.93,-6.09 c 0.87,-1.51 1.72,-2.26 2.53,-2.26 a 1.68,1.68 0 0 1 1.41,0.87 70.24,70.24 0 0 0 5.27,12.28 c 0,-0.35 0.22,-1.33 0.58,-2.92 l 0.64,-3.12 a 4.17,4.17 0 0 1 0.12,-0.83 c 0.08,-0.36 0.14,-0.71 0.19,-1.05 0.05,-0.34 0.11,-0.65 0.17,-0.95 l 0.54,-3.07 q 1.17,-7.2 1.46,-11.84 a 2.72,2.72 0 0 1 0.9,-1.44 2.23,2.23 0 0 1 1.48,-0.63 z"
     id="path78" />
  <path
     class="cls-5"
     d="m 95.99,106.23 a 8.28,8.28 0 0 1 5.8,2.19 q 4.68,4.2 4.68,13.24 0,9.04 -5.17,14.2 a 9.66,9.66 0 0 1 -6.18,2.79 8.8,8.8 0 0 1 -7.21,-3.17 19.31,19.31 0 0 1 -3.68,-7.09 28.1,28.1 0 0 1 -1.11,-7.54 16.92,16.92 0 0 1 3,-10.28 q 3.1,-4.33 9.87,-4.34 z m -0.34,4 q -6.52,0 -8.14,6.19 a 15.47,15.47 0 0 0 -0.49,4.24 22.18,22.18 0 0 0 1,6 c 0.88,3 2.17,5.2 3.9,6.43 a 5.76,5.76 0 0 0 3.65,1.17 5.07,5.07 0 0 0 3.85,-1.92 10.54,10.54 0 0 0 2.34,-4.9 28.81,28.81 0 0 0 0.63,-6 q 0,-5.37 -1.53,-8.29 a 5.38,5.38 0 0 0 -5.21,-2.87 z"
     id="path80" />
  <path
     class="cls-5"
     d="m 130.05,106.38 a 1.93,1.93 0 0 1 1.42,0.66 2.13,2.13 0 0 1 0.63,1.53 q 0,19 0.17,23 c 0.12,2.65 0.17,4 0.17,4.07 a 3.78,3.78 0 0 1 -0.58,2 c -0.39,0.63 -0.82,1 -1.29,1 a 7,7 0 0 1 -1.08,-0.07 c -0.24,0 -0.46,-0.11 -0.65,-0.17 a 1.68,1.68 0 0 1 -0.59,-0.39 l -0.49,-0.49 a 3.68,3.68 0 0 1 -0.51,-0.76 l -0.51,-0.9 c -0.13,-0.23 -0.33,-0.62 -0.61,-1.19 -0.28,-0.57 -0.88,-1.73 -1.8,-3.49 -0.92,-1.76 -1.76,-3.33 -2.51,-4.72 a 75.73,75.73 0 0 0 -7.17,-11.16 q 0,15.84 -0.87,22 c -0.1,0.77 -0.7,1.16 -1.81,1.16 a 2,2 0 0 1 -1.29,-0.39 1.49,1.49 0 0 1 -0.51,-1.26 c 0,-0.59 0.12,-3.8 0.37,-9.65 0.25,-5.85 0.36,-9.5 0.36,-10.94 v -2.76 c 0,-2.33 0.18,-3.65 0.54,-3.94 a 1.71,1.71 0 0 1 1.12,-0.44 c 1.79,0 4.51,2.92 8.19,8.77 0.71,1.14 2.08,3.52 4.09,7.14 2.01,3.62 3.22,5.86 3.61,6.7 l -0.59,-20.22 c 0,-2.8 0.31,-4.39 0.93,-4.78 a 2.45,2.45 0 0 1 1.26,-0.31 z"
     id="path82" />
  <path
     class="cls-5"
     d="m 136.98,137.08 a 1.52,1.52 0 0 1 -0.74,-1.19 1.36,1.36 0 0 1 0.54,-1.1 122,122 0 0 1 -0.93,-16 c 0,-1.82 0.08,-5.37 0.25,-10.63 a 2.51,2.51 0 0 1 1,-1.27 2.54,2.54 0 0 1 1.43,-0.53 3.94,3.94 0 0 1 0.83,0 25.8,25.8 0 0 1 12.14,7.53 20,20 0 0 1 5.41,13.37 q 0,8.58 -7.12,10.77 a 14.23,14.23 0 0 1 -4.31,0.64 21,21 0 0 1 -4,-0.34 2.3,2.3 0 0 1 0.19,1 1.68,1.68 0 0 1 -0.8,1.27 3,3 0 0 1 -1.9,0.61 c -0.73,0 -1.2,-0.44 -1.39,-1.32 z m 2.92,-18.67 a 128.06,128.06 0 0 0 1,16.18 18,18 0 0 0 9.29,-0.58 q 2.55,-0.93 2.7,-2.73 a 20.72,20.72 0 0 0 0.15,-2.09 19.14,19.14 0 0 0 -3.39,-11.21 21.07,21.07 0 0 0 -9.48,-7.41 c -0.19,3.83 -0.27,6.45 -0.27,7.84 z"
     id="path84" />
  <path
     class="cls-5"
     d="m 159.93,121.87 a 1.39,1.39 0 0 1 -0.68,-1.26 2.36,2.36 0 0 1 0.53,-1.51 q -0.19,-4.87 -0.19,-10.28 a 2.72,2.72 0 0 1 2.68,-2.39 q 6.43,0.28 13.93,0.29 c 1.24,0.26 1.86,0.8 1.86,1.61 0,1.36 -1.34,2.16 -4,2.39 -0.72,0 -1.49,0 -2.34,0 h -3.17 c -0.61,0 -2.32,-0.13 -5.11,-0.39 0,4.07 0.06,6.86 0.19,8.39 1.72,0 5,0 9.94,0 1.17,0.22 1.76,0.75 1.76,1.58 a 2.1,2.1 0 0 1 -1.42,1.92 1.72,1.72 0 0 1 -0.53,0.2 l -8.43,-0.15 a 7.08,7.08 0 0 0 -1.27,0.1 l 0.2,8.38 a 37.74,37.74 0 0 1 -0.15,4.05 l 11.3,-0.15 q 1.56,0.24 1.56,1.32 a 2.2,2.2 0 0 1 -0.65,1.46 2.79,2.79 0 0 1 -1.54,0.92 l -12.47,0.2 a 2.3,2.3 0 0 1 -1.56,-0.41 1.83,1.83 0 0 1 -0.44,-1.39 34.94,34.94 0 0 0 0.19,-4.39 v -3.41 z"
     id="path86" />
  <path
     class="cls-5"
     d="m 183.81,138.13 a 2.46,2.46 0 0 1 -1.68,0.7 c -0.61,0 -1,-0.39 -1.25,-1.17 -0.1,-4.28 -0.14,-8.56 -0.14,-12.81 l -0.15,-12.28 a 5,5 0 0 1 3.27,-5.07 14.73,14.73 0 0 1 6.23,-1.22 10.16,10.16 0 0 1 4,0.9 11.69,11.69 0 0 1 3.81,2.63 5.33,5.33 0 0 1 1.68,3.76 7.1,7.1 0 0 1 -1.86,4.33 19.15,19.15 0 0 1 -4.58,4.1 23.89,23.89 0 0 1 -5.31,2.65 49.29,49.29 0 0 1 7.9,6.8 q 3.36,3.63 3.36,5.63 a 1.6,1.6 0 0 1 -0.63,1.19 2.23,2.23 0 0 1 -1.54,0.56 1.9,1.9 0 0 1 -1.53,-0.78 16.9,16.9 0 0 0 -4.07,-5.43 47.36,47.36 0 0 0 -7,-5.43 l 0.3,9.35 a 2.1,2.1 0 0 1 -0.81,1.59 z m 7.92,-18.94 q 4.06,-2.58 4.06,-4.65 a 3.49,3.49 0 0 0 -2,-3.19 9.93,9.93 0 0 0 -4.85,-1.12 12,12 0 0 0 -4.46,0.68 q 0,2.49 0,11 a 15.25,15.25 0 0 0 7.25,-2.72 z"
     id="path88" />
  <path
     class="cls-5"
     d="m 211.12,107.06 5.4,-0.1 c 2.41,0 3.61,0.64 3.61,1.9 a 1.67,1.67 0 0 1 -0.19,1 l -0.3,0.42 a 0.65,0.65 0 0 1 -0.39,0.24 6,6 0 0 1 -1,0.25 5.13,5.13 0 0 1 -0.54,0 13,13 0 0 1 -1.8,0.15 c -0.85,0 -2.07,0 -3.68,0 -1.61,0 -3.58,-0.07 -5.92,-0.2 v 9 h 9.94 a 1.35,1.35 0 0 1 1,0.49 1.5,1.5 0 0 1 0.46,1.07 c 0,1.49 -0.63,2.24 -1.9,2.24 h -9.5 l 0.19,12.77 q 0,2.49 -1.68,2.49 c -1.12,0 -1.78,-0.75 -2,-2.25 q -0.15,-0.72 -0.17,-12.4 -0.02,-11.68 -0.12,-13.42 c -1.21,0.13 -1.81,-0.56 -1.81,-2 a 2.37,2.37 0 0 1 0.49,-1.29 c 0.33,-0.47 0.61,-0.73 0.85,-0.76 a 7.88,7.88 0 0 1 0.93,0 c 0.37,0 1.29,0.07 2.75,0.2 2.11,0.1 3.88,0.2 5.38,0.2 z"
     id="path90" />
  <path
     class="cls-5"
     d="m 240.29,106.96 a 2,2 0 0 1 1.51,-0.78 1.71,1.71 0 0 1 1.41,0.83 50,50 0 0 1 0.83,9.5 v 3.71 a 42.31,42.31 0 0 1 -0.15,4.94 c -0.09,0.51 -0.19,1.07 -0.29,1.69 -0.1,0.62 -0.19,1.09 -0.27,1.41 -0.08,0.32 -0.2,0.76 -0.36,1.31 a 11.24,11.24 0 0 1 -1.51,3.22 11.54,11.54 0 0 1 -3.85,4.29 8.78,8.78 0 0 1 -4.85,1.56 8,8 0 0 1 -5.07,-2.15 16.53,16.53 0 0 1 -4.26,-5.36 24.85,24.85 0 0 1 -2.54,-11.48 c 0,-1.52 0.23,-5.15 0.68,-10.86 a 3.88,3.88 0 0 1 1.05,-1.39 2.18,2.18 0 0 1 1.44,-0.61 c 0.71,0 1.15,0.48 1.32,1.46 q -0.69,8.43 -0.69,10.67 a 20.7,20.7 0 0 0 2.1,9.5 15.59,15.59 0 0 0 3.24,4.56 5.59,5.59 0 0 0 3.78,1.83 c 2,0 3.8,-1.59 5.26,-4.78 a 12,12 0 0 0 1,-5.31 6,6 0 0 1 0.1,-1.36 l 0.1,-6.44 a 45.69,45.69 0 0 0 -0.68,-8.18 2.63,2.63 0 0 1 0.7,-1.78 z"
     id="path92" />
  <path
     class="cls-5"
     d="m 247.3,131.87 0.05,-3.81 0.44,-20.37 a 1,1 0 0 1 0.64,-0.92 3.3,3.3 0 0 1 1.6,-0.34 q 2.34,0 2.34,1.65 c 0,0.36 -0.18,3.09 -0.56,8.19 -0.38,5.1 -0.56,8.16 -0.56,9.16 v 5.22 c 0,2.43 0.16,3.77 0.49,4 a 5.16,5.16 0 0 0 1.7,0.25 l 7,-0.49 c 1.53,0 2.29,0.55 2.29,1.66 a 2,2 0 0 1 -1.24,1.92 6.24,6.24 0 0 1 -2.46,0.68 c -0.81,0 -1.8,0.08 -3,0.08 -5.1,0 -7.87,-0.16 -8.29,-0.49 q -0.35,-0.28 -0.39,-2.22 c 0,-1.28 -0.06,-2.18 -0.07,-2.7 -0.01,-0.52 0.02,-1.05 0.02,-1.47 z"
     id="path94" />
  <path
     class="cls-6"
     d="m 357.76,2.41 h -0.12 V 0 H 0 v 3.2 q 0.61,44.64 1.42,89.28 1.07,59.85 2.29,119.67 c 0,1.23 0,2.46 0.07,3.69 q 3,0.3 6.06,0.52 c 17.57,1.28 35.46,0.89 52.94,1.19 24.1,0.41 48.21,0.65 72.32,0.9 q 71.9,0.75 143.74,0.9 36.51,0.06 73,0 h 5.22 c 0,-1.82 0.05,-3.63 0.07,-5.45 q 1.16,-105.69 1.25,-211.42 z m -4.79,94.16 q -0.32,58.65 -1,117.32 -139,0.4 -278.11,-1.46 C 60.44,212.24 47,212.13 33.57,211.99 25.66,211.91 17.71,211.73 9.76,211.93 8.35,142.35 6.98,72.78 6.02,3.2 h 347.29 q -0.07,46.68 -0.34,93.37 z"
     id="path96" />
</svg>
