<?xml version="1.0" encoding="UTF-8" standalone="no"?>
<svg
   xmlns:dc="http://purl.org/dc/elements/1.1/"
   xmlns:cc="http://creativecommons.org/ns#"
   xmlns:rdf="http://www.w3.org/1999/02/22-rdf-syntax-ns#"
   xmlns:svg="http://www.w3.org/2000/svg"
   xmlns="http://www.w3.org/2000/svg"
   xmlns:sodipodi="http://sodipodi.sourceforge.net/DTD/sodipodi-0.dtd"
   xmlns:inkscape="http://www.inkscape.org/namespaces/inkscape"
   inkscape:version="1.0 (4035a4f, 2020-05-01)"
   height="1330"
   width="1500"
   sodipodi:docname="frame2.svg"
   xml:space="preserve"
   viewBox="0 0 1500 1330"
   y="0px"
   x="0px"
   id="Grupo_7"
   version="1.1"><metadata
   id="metadata160"><rdf:RDF><cc:Work
       rdf:about=""><dc:format>image/svg+xml</dc:format><dc:type
         rdf:resource="http://purl.org/dc/dcmitype/StillImage" /><dc:title>storically test frame-01</dc:title></cc:Work></rdf:RDF></metadata><defs
   id="defs158" /><sodipodi:namedview
   inkscape:current-layer="Grupo_7"
   inkscape:window-maximized="0"
   inkscape:window-y="60"
   inkscape:window-x="631"
   inkscape:cy="691.61472"
   inkscape:cx="993.69732"
   inkscape:zoom="0.4485392"
   lock-margins="true"
   showgrid="false"
   id="namedview156"
   inkscape:window-height="894"
   inkscape:window-width="1166"
   inkscape:pageshadow="2"
   inkscape:pageopacity="0"
   guidetolerance="10"
   gridtolerance="10"
   objecttolerance="10"
   borderopacity="1"
   bordercolor="#666666"
   pagecolor="#ffffff" />
<style
   id="style10"
   type="text/css">
	.st0{fill:#FFFFFF;}
	.st1{fill:#FEFEFE;}
	.st2{fill:#804CBE;}
	.st3{fill:#A27DD0;}
	.st4{fill:#FCFBFD;}
	.st5{fill:#C1A8DF;}
	.st6{fill:#FEFAEE;}
	.st7{fill:#FEFBF0;}
	.st8{fill:#FCC600;}
	.st9{fill:#FEFEFC;}
	.st10{fill:#4BBBBF;}
	.st11{fill:#FDFEFE;}
	.st12{fill:#D2EEEF;}
	.st13{fill:#EDF8F9;}
	.st14{fill:#E9F6F7;}
	.st15{fill:#4CBCC0;}
	.st16{fill:#D1D1D1;}
	.st17{fill:#CACACA;}
	.st18{fill:#4BBCC0;}
	.st19{font-family:'Boogaloo-Regular';}
	.st20{font-size:100.08px;}
	.st21{fill:#F98707;}
	.st22{fill:#F8F8F8;}
	.st23{fill:#FDFDFD;}
	.st24{fill:#FDC700;}
	.st25{font-family:'ChelseaMarket-Regular';}
	.st26{font-size:182.12px;}
	.st27{font-size:100.03px;}
</style>
<title
   id="title12">storically test frame-01</title>










<path
   id="path14"
   d="m 1477.0426,45.973955 c -2.8,66.700005 -2.1,133.500005 -1.8,200.300005 0.4,74.9 0.6,149.8 1.2,224.8 0.7,84.4 0.7,168.8 0.2,253.2 -0.4,77.6 -1.1,155.2 -2,232.8 -0.4,37.1 -1.1,74.20004 -1.8,111.40004 -1,51.6 -2,103.2 -3.2,154.8 -0.6,25.8 -1.4,51.6 -2,77.4 -0.1,3.6 -1,4.9 -4.8,4.9 -100.6,-0.2 -201.2,-0.3 -301.7,-0.4 -91.1,-0.2 -182.19995,-0.6 -273.29995,-0.9 -34.3,-0.1 -68.5,-0.1 -102.8,0 h -2.1 c -67.8,0 -164.5,-1.9 -231.7,-2 -47,-0.1 -93.9,-0.6 -140.9,-1 -35.1,-0.3 -70.3,-0.3 -105.4,-1 -45.3,-0.9 -90.6,-0.5 -135.9,-1 -40.5,-0.5 -80.899999,-0.8 -121.399999,-0.5 -4.1,0 -4.9,-1.4 -5,-5.1 -1.6,-55.4 -3.2,-110.8 -4.9,-166.2 -1.3,-43.6 -2.6,-87.2 -3.7,-130.80004 -1.5,-61.7 -2.9,-123.5 -4.2,-185.2 -0.9,-45.4 -1.5,-90.9 -2.1,-136.3 -0.5,-39.1 -1.3,-78.2 -1.2,-117.3 0,-70.6 0.3,-141.2 0.9,-211.7 0.3,-40 0.9,-79.9 2.1,-119.8 1.9,-61.1 3.1,-122.2 2.5,-183.300005 0.1,-5 -0.3,-10 -0.9,-14.9 -0.7,-4.5 1,-5.4 5,-5.2 8,0.5 16,0.8 24,0.7 142.499999,-1.8 285.099999,-2 427.599999,-1.7 41.1,0.1 82.3,0.2 123.4,0.4 39.1,0.2 78.3,0.6 117.4,1 51.9,0.6 103.9,1.2 155.8,2 40.3,0.6 80.6,1.2 120.79995,2 31.3,0.6 62.6,1.2 93.9,1.9 58.1,1.3 116.2,2.7 174.3,4.1 45.9,1.2 91.8,2.6 137.8,4 19.8,0.6 39.6,1.3 59.4,2 6.7,-0.3 6.7,-0.3 6.5,6.6 z"
   class="st0" /><g
   transform="translate(2.0113666)"
   id="g1263"><g
     id="g36"
     transform="translate(-387.05735,-201.62604)">
	<path
   class="st1"
   d="m 1082.4,986.9 c 0,8.4 -0.1,16.8 0.1,25.2 0,2.1 -0.4,2.9 -2.5,2.5 -0.5,-0.1 -1,0 -1.5,0 -146.5,0 -293.1,0 -439.6,0.1 -3.6,0 -4.4,-0.7 -4.3,-4.3 0.2,-30.4 0.2,-60.9 0,-91.3 0,-3.4 0.5,-4.4 4.3,-4.4 121.6,0.1 243.2,0.1 364.9,0.1 0.3,0.4 0.4,0.9 0.3,1.4 -1.6,2.4 -2.3,5.1 -2.5,7.9 -0.4,6.6 -1.9,12.9 -4.4,19 -0.7,1.6 -1.5,3.6 0.1,5 1.7,1.5 3.7,0.8 5.6,-0.1 6.5,-3.2 15.1,-19.9 14,-27 -0.3,-1.9 -1.7,-3.1 -2.4,-4.8 -0.1,-0.5 -0.1,-1 0.3,-1.4 21.6,0 43.2,0 64.8,-0.1 2.5,0 3.1,0.6 3.1,3 -0.1,22.1 -0.1,44.1 -0.1,66.2 -2.4,0 -2.3,-2.1 -2.7,-3.5 -2.2,-10 -9.1,-15.8 -18.1,-19.5 -4.3,-1.8 -8.6,-3.6 -12.5,-6.1 -4.8,-2.9 -6.7,-6.8 -5.6,-11.1 1,-3.8 4.6,-6.1 10.1,-6.5 4.5,-0.3 9,0.1 13.2,1.8 4.1,1.6 6.2,-0.5 7.7,-3.9 1.8,-4 1.3,-6.1 -2.2,-8.4 -10.9,-7 -32.7,-4.4 -41.4,4.8 -9.2,9.7 -7.7,27 2.9,35.2 5.5,4.2 12,6.4 18,9.5 2.1,1.1 4.2,1.9 6.1,3.3 3.1,2.3 4,5.5 3.6,9.2 -0.4,3.7 -2.6,6 -6,7.1 -5.2,1.7 -10.4,1.7 -15.6,-0.2 -1.9,-0.7 -3.6,-1.6 -5.5,-2.4 -4.9,-2 -7.2,-1.2 -9.7,3.4 -2.3,4.2 -1.7,7 3,9.3 12.3,6 25,7.7 38,2.4 7.1,-2.9 11.1,-8.5 13.2,-15.8 0.4,-2 0,-5 3.3,-5.6 z"
   id="path16" />
	<path
   class="st2"
   d="m 1082.4,986.9 c -2,0.6 -1.4,2.4 -1.7,3.7 -2.9,16.1 -15,21.9 -29.1,22.4 -8.4,0.3 -16.9,-1.3 -24.5,-5.6 -2.7,-1.5 -6,-3.1 -5.3,-7 0.8,-4.2 3.1,-7.6 6.8,-10 1.5,-1 2.8,0.2 4.2,0.8 5.7,2.8 11.4,5.5 18.1,4.5 4.2,-0.6 8.4,-1.4 9.6,-6.4 1.1,-4.6 -0.7,-7.8 -6.1,-10.5 -5.5,-2.8 -11.3,-4.9 -16.6,-8 -11.8,-6.8 -16.2,-16.7 -13.4,-29.1 2.5,-11.3 11.2,-18.6 24.2,-20 8.2,-0.8 16.3,-0.5 23.9,3.2 2.5,1.3 5.4,2.7 5,6.1 -0.5,4 -2.2,7.6 -5.7,10 -1.4,1 -2.9,0 -4.2,-0.6 -5.2,-2.1 -10.6,-2.8 -16.1,-1.8 -3.1,0.5 -5.9,1.8 -6.7,5.1 -1,3.5 0.3,6.5 3.2,8.7 3.8,3 8.4,4.7 12.8,6.5 11.1,4.5 19.7,11 20.7,24 0,0.3 0.7,0.6 1,0.8 -0.1,1.2 -0.1,2.2 -0.1,3.2 z"
   id="path18" />
	<path
   class="st3"
   d="m 1003.6,915.7 c 0.1,-0.3 0.1,-0.6 0,-1 3.7,0 7.3,0 11,0 -0.1,0.3 -0.1,0.7 0,1 -3.7,2.2 -7.3,2.3 -11,0 z"
   id="path20" />
	<path
   class="st2"
   d="m 669,981.7 c 4.9,-18.8 9.7,-36.9 14.1,-55.1 1.2,-5.2 3.7,-7.3 8.9,-6.9 1.2,0.1 2.3,0 3.5,0 6.9,0.1 7.4,0.7 8.9,7.3 4,17.5 8,34.9 12,52.4 0.2,0.9 0.4,2 1.4,2.5 4.5,-18.3 9.1,-36.5 13.6,-54.8 1.6,-6.5 12.6,-9.9 17.7,-5.5 1.8,1.5 1,3.2 0.5,5 -5.8,22.3 -11.7,44.5 -17.5,66.8 -1,3.8 -2.1,7.6 -2.9,11.4 -0.7,3.2 -2.7,4.8 -6,4.8 -4,0 -8,-0.1 -12,0 -4.1,0.1 -6.2,-1.6 -7.2,-5.8 -3.2,-14.6 -6.7,-29.1 -10.2,-43.7 -0.3,-1.2 0,-2.7 -1.8,-3.7 -3.5,13.7 -7.1,27.3 -10.5,40.8 -3,12.2 -2.9,12.2 -15.6,12.1 -1.8,0 -3.7,-0.1 -5.5,-0.2 -3,-0.2 -4.7,-1.6 -5.4,-4.7 -6.2,-26.2 -12.5,-52.4 -19,-78.6 -1,-4.2 0.4,-5.9 4.4,-6.2 1.5,-0.1 3,-0.2 4.5,-0.2 8.9,0 9.7,0.6 11.7,9.1 4.2,17.7 8.2,35.1 12.4,53.2 z"
   id="path22" />
	<path
   class="st2"
   d="m 759.4,965.6 c 0,-12.8 0.2,-25.7 -0.1,-38.5 -0.1,-4.8 2,-6.4 6.4,-6.7 12.8,-0.9 13.7,-0.2 13.6,12.2 0,6.6 0.1,13.2 -0.1,19.7 -0.1,2.7 0.8,3.8 3.6,3.7 9.1,-0.1 18.3,-0.1 27.4,0.1 3.3,0.1 3.8,-1.3 3.8,-4.1 -0.1,-8.4 0.2,-16.8 0,-25.2 -0.1,-4.3 1.9,-6 5.9,-6.2 0.3,0 0.7,0 1,-0.1 12.4,-0.8 13.3,0 13.2,12.3 -0.1,22.5 -0.1,45.1 -0.4,67.6 0,3 1.4,7.4 -2.5,8.8 -5.2,1.9 -10.8,2 -16,-0.4 -2.1,-1 -1.8,-3.3 -1.8,-5.3 0.1,-8.7 0.2,-17.4 0.4,-26.1 0.1,-3.3 -0.8,-4.7 -4.4,-4.6 -8.8,0.2 -17.6,0.1 -26.4,-0.1 -3,-0.1 -4,0.8 -4,3.9 0.2,8.9 -0.2,17.8 0.1,26.6 0.1,4.8 -2,6.4 -6.5,6.6 -13.4,0.6 -13.6,0.5 -13.5,-12.7 0,-10.5 0,-21.1 0,-31.6 0.1,0.1 0.2,0.1 0.3,0.1 z"
   id="path24" />
	<path
   class="st2"
   d="m 912.6,1010.8 c -9,0 -9,0 -11.7,-8.7 -3,-9.5 -3,-9.5 -12.9,-9.5 -5.5,0 -11,0.1 -16.5,-0.1 -3.1,-0.1 -4.6,1 -5.3,3.8 -0.9,3.3 -2.2,6.5 -3.2,9.8 -0.8,2.7 -2.5,4 -5.3,4.3 -14.1,1.6 -15.6,-0.2 -10.9,-13.3 8.1,-22.9 16.4,-45.9 24.1,-68.9 1.9,-5.5 4.9,-7.5 10.5,-7.5 11.7,0 11.7,-0.2 15.4,10.7 7.8,22.9 15.5,45.8 23.3,68.7 3.5,10.5 3.2,10.8 -7.5,10.7 z"
   id="path26" />
	<path
   class="st2"
   d="m 942.9,974 c 0,-10.5 -0.1,-21.1 0.1,-31.6 0.1,-3 -0.9,-4 -3.9,-3.9 -5,0.2 -10,0 -15,0 -3.5,0.1 -5.2,-1.6 -5.3,-5 -0.4,-13.7 0.5,-11.8 10.8,-11.8 16.8,0.1 33.6,0.1 50.4,0.2 6.2,0 7.2,1.1 7.5,7.1 0.3,8.8 -0.6,9.7 -9.2,9.7 -3.7,0 -7.3,0.2 -11,-0.1 -3.5,-0.3 -4.5,1 -4.5,4.4 0.1,20.2 -0.1,40.5 -0.2,60.7 0,5.9 -1.3,7.2 -7.1,7.6 -0.3,0 -0.7,0 -1,0 -11.2,0.3 -11.9,-0.3 -11.9,-11.2 0,-8.7 0,-17.4 0,-26.2 0.1,0.1 0.2,0.1 0.3,0.1 z"
   id="path28" />
	<path
   class="st2"
   d="m 1003.6,915.7 c 3.7,0 7.4,0 11,0 3.1,1.3 3.8,3.8 3.5,6.9 -1.1,9.3 -5.2,17.3 -11.6,24.1 -1.2,1.3 -2.8,2.4 -4.4,3.2 -2.2,1.1 -4.7,0.7 -6.6,-0.7 -2,-1.5 -0.9,-3.7 -0.2,-5.4 3.2,-7.3 4.7,-15 4.9,-23 0.2,-2.4 0.9,-4.3 3.4,-5.1 z"
   id="path30" />
	<path
   class="st4"
   d="m 883.8,947.5 c 2.5,8.1 4.8,16.3 7.5,24.4 1.1,3.3 0.2,4.1 -3,3.9 -3.6,-0.2 -7.3,-0.2 -10.9,0 -3.3,0.1 -4,-1 -2.9,-4.1 2.7,-7.4 5.1,-14.9 7.6,-22.3 0.8,-0.5 -0.2,-2.6 1.7,-1.9 z"
   id="path32" />
	<path
   class="st5"
   d="m 883.8,947.5 c -0.6,0.6 -1.2,1.3 -1.8,1.9 -0.1,-1.2 -0.7,-2.8 0.7,-3.4 1.1,-0.5 1.1,0.7 1.1,1.5 z"
   id="path34" />
</g><g
     id="g56"
     transform="translate(-387.05735,-201.62604)">
	<path
   class="st1"
   d="m 1082.3,1139.5 c 0.9,3.4 -1.3,3 -3.5,3 -32,0 -64,0 -96,0 -78.1,0 -156.2,-0.1 -234.3,0.1 -4.5,0 -5,-1.3 -5,-5.2 0.2,-27.6 0.1,-55.2 0.1,-82.8 0,-6.9 0,-6.9 7,-6.9 0.5,1.7 -1.6,2.1 -1.8,3.5 -0.6,2.6 1.1,4.4 2.2,6.3 6.4,10.8 13.1,21.3 19.6,32 2.2,3.6 3.3,7.3 3.3,11.6 -0.2,9.7 -0.1,19.4 0,29.1 0,6.1 0.9,6.9 6.8,7 10.4,0.2 10.4,0.1 10.4,-10.3 0,-7.6 0.2,-15.1 -0.1,-22.7 -0.2,-5.4 1.3,-9.9 4.2,-14.3 7,-10.8 13.9,-21.6 20.5,-32.6 3.1,-5.2 2.5,-5.7 -3.4,-6.4 -8.1,-0.9 -13.1,1.9 -16.5,9.3 -2.5,5.5 -5.9,10.6 -9.2,15.8 -2.5,3.8 -4,3.8 -6.4,-0.2 -3.4,-5.5 -6.4,-11.1 -9.5,-16.8 -1.6,-2.9 -3.2,-5.8 -5.5,-8.1 -0.8,-1 -2.1,-1.6 -1.7,-3.2 104.9,0 209.9,0 314.8,-0.1 3.4,0 4.1,0.7 4.1,4 -0.2,28 -0.1,55.9 -0.1,83.9 -1.2,0.5 -2.2,0 -3.1,-0.7 -3.5,-5.3 -5.1,-11.4 -7.5,-17.1 -2.7,-6.7 -4.9,-13.7 -10,-19.1 -2.8,-2.9 -0.6,-4.5 1.8,-6.1 8.9,-6 12.2,-14.2 9.7,-23.8 -2.8,-10.3 -11,-14.4 -20.5,-15.2 -10.4,-0.9 -20.8,-1.1 -31.3,-1.3 -5.2,-0.1 -6.1,1.2 -6.4,6.6 -1.3,23.8 -1,47.7 -1,71.5 0,2.9 -0.7,6.3 2.7,7.8 3.9,1.7 8.2,1.6 12.1,0.1 2.4,-0.9 2.2,-3.5 2.2,-5.6 0.1,-7.1 -0.1,-14.1 0.1,-21.2 0.1,-6.6 2.2,-8.1 8.6,-7.3 6.6,0.8 10.4,4.6 12.8,10.3 2.8,6.5 5,13.2 7.9,19.7 0.8,1.8 1.6,3.6 3.1,5 5.2,2.3 10.6,1 15.9,0.7 1,-0.1 1.9,-0.7 2.9,-0.3 z"
   id="path38" />
	<path
   class="st6"
   d="m 763.5,1047.7 c 0.7,0.6 1.3,1.3 2,1.9 -5.9,2.6 -11.9,2.3 -17.9,0.2 1,-0.7 2,-1.4 2.9,-2.1 4.4,0 8.7,0 13,0 z"
   id="path40" />
	<path
   class="st7"
   d="m 1082.3,1139.5 c -6.5,3.2 -13.1,2.8 -19.8,0.7 3.2,-1.8 6.8,-1 10.2,-0.9 3.7,0 6.5,-0.7 7.6,-4.6 0.7,0.3 1.4,0.6 2,1 0,1.2 0,2.5 0,3.8 z"
   id="path42" />
	<path
   class="st8"
   d="m 906.9,1094.8 c -0.2,11.9 -2,23.2 -9.9,32.9 -1.7,2.1 -3.6,3.9 -5.7,5.4 -24.8,18.2 -60.7,4.3 -65.7,-25.6 -2.1,-12.5 -1.7,-25 3.5,-36.8 4.6,-10.7 12.8,-17.4 24.2,-20.1 8.9,-2.1 17.8,-2 26.6,0.5 13.4,3.7 21.2,12.8 24.9,25.8 1.6,5.7 2.3,11.7 2.1,17.9 z"
   id="path44" />
	<path
   class="st8"
   d="m 1080.2,1134.6 c 1.6,4.2 -0.1,6.1 -4.5,6 -4.4,-0.1 -8.8,-0.3 -13.3,-0.4 -4.7,-5.8 -5.8,-13.1 -9,-19.6 -1.1,-2.4 -1.9,-4.9 -3,-7.3 -3.1,-6.5 -8.4,-9 -15.5,-8 -2.8,0.4 -2.5,2.1 -2.5,3.9 0,8.2 -0.3,16.4 0,24.7 0.2,4.8 -2.1,6.5 -6.4,6.6 -0.3,0 -0.7,0 -1,0 -12,0.3 -12.6,-0.2 -12.5,-12.1 0.2,-23.5 0.4,-47 0.6,-70.5 0.1,-5.9 1,-7.1 7,-6.8 12.2,0.5 24.6,-0.9 36.7,1.7 8.6,1.9 15.3,6.4 17.5,15.5 2.1,8.6 0.7,16.4 -6.2,22.5 -2.2,1.9 -4.9,3.3 -7.6,5.1 7.7,5.8 9.5,14.7 12.9,22.8 2.4,5.3 4.6,10.6 6.8,15.9 z"
   id="path46" />
	<path
   class="st8"
   d="m 921.3,1084.5 c 0,-9.4 0.1,-18.8 0,-28.1 -0.1,-3.9 1.7,-5.6 5.5,-6 13.2,-1.3 14.4,-0.3 14.3,12.5 -0.1,14.8 -0.2,29.6 -0.2,44.4 0,10.2 6.6,16.6 17.3,16.7 10.7,0.1 17.6,-6.2 17.7,-16.3 0.2,-16.9 0.4,-33.9 0.4,-50.8 0,-4.5 2,-6.1 6.2,-6.3 12.9,-0.6 13.3,-0.2 13.3,12.6 -0.1,15 -0.1,29.9 -0.2,44.9 -0.1,19 -9.8,30.1 -29,32.2 -8.2,0.9 -16.5,0.7 -24.6,-1.8 -12.9,-4 -20.7,-14 -20.9,-27.4 -0.1,-8.9 0,-17.8 0,-26.6 -0.1,0 0.1,0 0.2,0 z"
   id="path48" />
	<path
   class="st8"
   d="m 747.6,1049.8 c 6,-0.7 11.9,-0.5 17.9,-0.2 3.1,2 4.3,5.3 6,8.3 3.9,6.7 7.6,13.4 11.9,20.9 4.6,-7.8 8.8,-15 13,-22.2 3.8,-6.5 14.7,-9.8 21.4,-6.5 3.3,1.6 1.6,3.8 0.4,5.7 -7.2,11.6 -14.4,23.3 -21.9,34.7 -2.6,4 -3.9,8 -3.8,12.9 0.3,9.5 -0.2,19.1 0,28.6 0.1,4.6 -1.6,6.5 -6.2,6.8 -13.2,0.7 -13.8,0.3 -13.7,-12.7 0,-8.7 0,-17.4 0.2,-26.1 0.1,-3.1 -0.8,-5.7 -2.4,-8.3 -7.4,-11.9 -14.7,-23.8 -22,-35.8 -1.1,-1.8 -2.8,-3.7 -0.8,-6.1 z"
   id="path50" />
	<path
   class="st1"
   d="m 844.9,1094.2 c -0.1,-4.8 0.6,-10 2.3,-15 3,-8.7 9.7,-13.4 18.8,-13.4 8.8,0 15.5,4.7 18.3,13.3 3.4,10.6 3.3,21.4 -0.5,32 -2.9,8.1 -9.4,12.4 -17.9,12.5 -8.8,0 -15.3,-4.3 -18.5,-12.4 -2,-5.3 -2.6,-10.8 -2.5,-17 z"
   id="path52" />
	<path
   class="st9"
   d="m 1032.7,1078.3 c 0.1,-11.4 0.1,-11.4 11.7,-10.4 6.9,0.6 10.5,4.1 10.3,10.1 -0.1,6.4 -4.4,10.4 -11.2,10.5 -0.2,0 -0.3,0 -0.5,0 -10.3,0.1 -10.3,0.1 -10.3,-10.2 z"
   id="path54" />
</g><g
     id="g74"
     transform="translate(-387.05735,-201.62604)">
	<path
   class="st1"
   d="m 1635.4,924.6 c 0,71.3 0,142.7 0.1,214 0,3.4 -0.7,4.1 -4,4.1 -28.5,-0.2 -56.9,-0.2 -85.4,0 -2.9,0 -3.5,-0.6 -3.5,-3.6 0.1,-82.9 0.1,-165.9 0,-248.8 0,-3 0.6,-3.6 3.5,-3.6 13.3,0.2 26.7,0.1 40,0.1 -0.2,2.9 -3.2,1.8 -4.5,3.3 -8.3,2.8 -16.1,6.5 -22.9,12.3 -4.5,3.8 -8,8.3 -11,13.3 -2.4,3.9 -1.9,7.4 0.9,9.3 2.9,1.9 6.2,1 8.6,-3.1 5.4,-9.2 13,-15.4 23,-18.4 11.4,-3.4 22.7,-3.4 33.4,2.9 5.9,3.5 8.5,8.5 7.6,15.4 -1.2,8.6 -5.6,15.9 -10,23.1 -6.8,10.8 -15.1,20.5 -23.2,30.3 -9.2,11.2 -19.4,21.8 -23.2,36.5 -2.8,10.8 -4.3,21.7 -5.1,32.8 -0.9,12.9 -0.8,25.8 -0.9,38.8 0,1.2 0,2.3 0,3.5 0.2,4.7 2.5,7.5 6.1,7.6 3.5,0.1 5.9,-2.8 6,-7.6 0.2,-7.3 0,-14.6 0.1,-21.9 0.1,-13.4 0.9,-26.8 3,-40.1 1.8,-11.2 6.3,-21.2 13.3,-30.1 11.1,-14 23.1,-27.2 33.1,-42.1 5.2,-7.7 9.8,-15.7 11.8,-25 0.2,-1.8 0.4,-4.2 3.2,-3 z"
   id="path58" />
	<path
   class="st10"
   d="m 1635.4,924.6 c -1,0 -1.5,0.4 -1.7,1.4 -2.5,14.6 -11,26.1 -19.7,37.4 -8.1,10.6 -16.6,20.9 -25.2,31.2 -9.2,11 -13.2,23.8 -14.8,37.7 -2.1,18.3 -1.8,36.7 -1.9,55.1 0,4.2 -1.8,7.2 -5.7,8.3 -3.4,1 -6.1,-0.7 -7.9,-3.6 -0.7,-1.1 -1.1,-2.5 -1.1,-3.7 0.1,-22.5 -0.6,-45.1 3.6,-67.4 2.3,-12.4 7.1,-23.5 15.1,-33.5 11.6,-14.6 24.5,-28.2 34.4,-44.2 4,-6.5 8,-13 9.2,-20.7 1.2,-7.8 -1,-12 -7.9,-15.9 -17.5,-9.6 -42.8,-2.5 -52.7,15 -1.9,3.3 -4.1,6.3 -8.3,5.8 -5.7,-0.6 -8.1,-6.3 -4.9,-11.7 7.6,-13 18.8,-21.5 33.1,-25.9 0.8,-0.2 1.5,-0.6 2.3,-0.9 2.2,-1.3 4.9,-0.3 7.1,-1.7 3,0 6.1,0 9.1,0 2.4,0.5 4.7,0.5 7.1,0.5 7.7,1.1 14.4,4.6 20.6,8.8 6.1,4.1 9.2,10.2 9.8,17.5 0.3,3.1 -0.6,6.4 0.5,9.4 -0.1,0.4 -0.1,0.7 -0.1,1.1 z"
   id="path60" />
	<path
   class="st11"
   d="m 1634.3,913.7 c -3,-13.8 -13.3,-19.6 -25.3,-23.6 -1.4,-0.5 -2.8,-0.9 -4.2,-1.3 -0.9,-1.6 -3.8,0.9 -4,-2 10.6,0 21.2,0.1 31.8,-0.1 2.2,0 2.9,0.3 2.8,2.7 -0.2,8.1 -0.1,16.1 -0.1,24.2 -0.2,0.4 -0.6,0.5 -1,0.1 z"
   id="path62" />
	<path
   class="st12"
   d="m 1597.9,887.8 c -3.3,0 -6.6,0 -9.8,0.1 -0.6,-0.4 -0.6,-0.7 0,-1.1 3.3,0 6.6,0 9.9,0 0.3,0.2 0.4,0.5 0.3,0.7 -0.2,0.2 -0.3,0.3 -0.4,0.3 z"
   id="path64" />
	<path
   class="st12"
   d="m 1634.3,913.7 c 0.4,0 0.7,0 1.1,-0.1 0,3.3 0,6.6 0,10 -2.3,-3.1 -0.5,-6.7 -1.1,-9.9 z"
   id="path66" />
	<path
   class="st13"
   d="m 1597.9,887.8 c 0,-0.4 0,-0.7 0,-1.1 1,0 2,0 3,0 0.9,1.6 3.2,0.4 4,2 -2.5,0.2 -4.8,0 -7,-0.9 z"
   id="path68" />
	<path
   class="st14"
   d="m 1588,886.7 c 0,0.4 0,0.7 0,1.1 -2.2,1 -4.6,0.9 -6.9,1.1 1,-2.2 3.8,-0.3 4.9,-2.2 0.7,0 1.3,0 2,0 z"
   id="path70" />
	<path
   class="st15"
   d="m 1575.2,1127.4 c 0,1 0.1,2.2 0,3.3 -0.9,6.2 -6.3,10.7 -11.5,9.7 -4.8,-0.9 -8.4,-7.9 -7,-13.6 0.9,-3.9 8.8,-8.9 12.8,-8.2 4.7,1 6.6,3.9 5.7,8.8 z"
   id="path72" />
</g><g
     id="g96"
     transform="translate(-387.05735,-201.62604)">
	<path
   class="st1"
   d="m 1397.8,885.7 c 40.4,0 80.8,0 121.1,-0.1 3,0 3.6,0.6 3.6,3.6 -0.1,84.3 -0.1,168.6 0,252.9 0,3 -0.6,3.6 -3.6,3.6 -130.3,-0.1 -260.6,-0.1 -390.8,0 -3,0 -3.6,-0.6 -3.6,-3.6 0.1,-84.3 0.1,-168.6 0,-252.9 0,-3.7 1.4,-3.5 4.1,-3.5 87.4,0.1 174.8,0 262.2,0 0.3,0.6 0.3,1.2 -0.2,1.7 -1,1.2 -2.5,1.6 -3.9,2.1 -7.1,2.7 -8.5,4.5 -8.4,12.2 0.2,12.4 -0.4,24.8 -0.3,37.2 0.5,50 0.4,100.1 0,150.1 -0.1,11.7 -0.3,23.5 -1.6,35.2 -0.3,3 -0.3,6 0,8.9 0.3,3.3 1.7,6.1 5.3,6.1 3.5,0 5.2,-2.6 5.3,-6 0.1,-3.7 0.6,-7.3 1.5,-10.8 1.2,-8.2 1.4,-16.4 1.6,-24.6 0.5,-19.8 0.1,-39.6 0.2,-59.4 0,-2.4 -0.5,-5 1.2,-7.1 3,-0.4 2.8,2.3 3.4,3.8 2.8,7.3 3.7,15.1 5.1,22.8 3.2,18.1 4.6,36.5 8,54.6 1.3,7 2.6,14 4.8,20.8 0.8,2.4 1.8,4.7 3.8,6.3 1.7,1.3 3.6,1.7 5.6,0.8 2.1,-1 2.7,-2.8 2.7,-4.9 0,-1.2 -0.2,-2.3 -0.7,-3.4 -6.2,-15.7 -6.5,-32.4 -9,-48.8 -2.5,-16.1 -4.4,-32.2 -7.9,-48.1 -1,-4.6 -3,-8.8 -4.8,-13.1 -1.1,-2.6 -1.6,-5.2 0.8,-7.3 9.8,-8.7 14.2,-20.3 17.1,-32.5 5.6,-24 5.5,-48 -2.2,-71.6 -3.2,-9.9 -8.4,-18 -18.7,-21.8 -0.8,-0.3 -1.4,-0.9 -1.9,-1.5 -0.2,-0.6 -0.1,-1.2 0.2,-1.7 z"
   id="path76" />
	<path
   class="st16"
   d="m 1397.8,885.7 c 0,0.4 0,0.7 0,1.1 -2.3,1.6 -4.6,1.6 -6.9,0 0,-0.4 0,-0.8 -0.1,-1.2 2.3,0.1 4.7,0.1 7,0.1 z"
   id="path78" />
	<path
   d="m 1352.9,1022.8 c -0.7,31 -1.3,58.1 -7.1,84.9 -1.4,6.3 -3.3,12.5 -6,18.4 -2.6,5.6 -6.9,9.7 -12.3,12.5 -8.1,4.2 -15.9,3 -22.3,-3.4 -6.9,-6.9 -10.4,-15.7 -12.7,-24.9 -5.8,-23.1 -7.3,-46.8 -7.7,-70.5 -0.7,-38.9 0.9,-77.6 9.1,-115.7 1.8,-8.4 3.6,-16.9 7.8,-24.5 5.5,-9.8 12.8,-12.4 23.4,-8.4 8.3,3.1 13,9.5 16.1,17.3 4.2,10.6 5,21.9 6.5,33 4.1,28.1 5.3,56.5 5.2,81.3 z"
   id="path80" />
	<path
   d="m 1390.9,886.9 c 2.3,0 4.6,0 6.9,0 10.3,2.2 16.1,9.3 20.1,18.3 6.8,15.6 8.1,32 7.9,48.7 -0.2,15.4 -2.9,30.3 -9,44.5 -2.9,6.7 -6.3,13.2 -12.6,17.5 -1.5,1 -1.9,2.1 -1,3.7 8.8,17.3 9.5,36.4 12.5,55 2.4,14.5 4.2,29.2 6.3,43.7 0.7,4.6 2.1,9 4,13.3 2.3,5.2 1.3,8.6 -3,10.4 -3.9,1.6 -7.9,-0.2 -9.9,-4.9 -4.1,-9.9 -5.7,-20.4 -7.4,-30.8 -3.7,-22.2 -5.2,-44.8 -10.5,-66.7 -0.7,-2.8 -1.6,-5.6 -2.4,-8.4 -2.6,0.8 -1.3,3 -1.3,4.5 -0.1,21 0.4,42 -0.3,63 -0.3,8 -0.1,16.1 -1.2,24 -0.3,3.6 -0.8,7.3 -1,10.9 -0.3,5.1 -2.7,7.8 -7,7.8 -4.1,0 -7.5,-3.7 -7.4,-8.4 0.2,-5.6 0.9,-11.2 1.1,-16.9 2.5,-54.7 0.9,-109.5 1,-164.2 0,-16.9 -0.3,-33.8 0.3,-50.7 0.4,-9.2 1.6,-10.9 10.6,-13.4 1,-0.3 2.1,-0.6 3.3,-0.9 z"
   id="path82" />
	<path
   d="m 1482.9,992.2 c 2.5,-10.1 5.1,-20.1 7.6,-30.2 5.2,-20.7 10.5,-41.4 15.7,-62.2 0.2,-0.8 0.3,-1.6 0.6,-2.4 1.5,-4.3 5.3,-6.7 8.7,-5.6 3.8,1.2 6.1,5.3 5.1,9.5 -2.7,11.3 -5.6,22.5 -8.4,33.8 -7.5,30 -14.9,60.1 -22.4,90.1 -0.5,1.9 -0.6,3.9 -0.7,5.9 -1.3,34.1 -2.4,68.3 -2.9,102.5 -0.1,5.5 -2.6,8.3 -7.1,8.3 -4.7,0 -7.2,-3.1 -7.2,-8.8 0.4,-32.8 1,-65.7 2.8,-98.5 0.5,-9.6 -2.8,-18.2 -4.5,-27.3 -5.9,-32.1 -10.8,-64.4 -16,-96.6 -0.5,-2.9 -1,-5.9 -1.6,-8.8 -1,-5.3 0.8,-9 4.9,-9.9 4.3,-1 8.2,1.7 9.2,6.9 1.5,7.6 2.5,15.4 3.7,23.1 3.7,23.4 7.4,46.8 11.1,70.2 0.6,0.1 1,0.1 1.4,0 z"
   id="path84" />
	<path
   d="m 1179.5,1080.6 c -0.4,-15 -2.8,-29.7 -6.6,-44.2 -2.8,-10.5 -8.6,-18.5 -17.8,-24.2 -1,-0.6 -1.9,-1.3 -2.9,-1.9 -21.8,-12.2 -26.8,-32.4 -26.1,-55.2 0.4,-13.7 3.5,-27 8.7,-39.6 3.5,-8.6 8.8,-16 16.7,-21.2 11.8,-7.8 24.8,-5.8 33.8,5.1 2.5,3.1 4.5,6.6 6,10.3 2.5,5.7 1.8,8.7 -2.3,10.5 -4.3,1.9 -9.2,-0.4 -11.4,-5.1 -1,-2.3 -1.9,-4.6 -3.3,-6.7 -3.5,-5.3 -7.7,-6.2 -13.2,-3 -4.5,2.6 -7.7,6.3 -10.1,10.8 -9.9,19.1 -12.8,39.2 -8.6,60.3 1.5,7.6 5.2,14.3 12.1,18 26.1,13.7 34.9,37.3 37.3,64.5 1.5,17.2 2.4,34.5 -2.1,51.5 -2.2,8.3 -5.9,15.8 -12,22 -13.1,13.4 -28.7,12.9 -40.7,-1.5 -6.3,-7.6 -9,-16.5 -8.8,-26.3 0.1,-5.3 2.6,-8.1 6.8,-8 4.3,0 7.5,3.2 7.7,8.1 0.3,7.6 2.3,14.4 7.9,19.8 4.2,4 7.6,4.4 12.4,1 8.5,-5.8 12.4,-14.5 14.5,-24.1 1.6,-6.9 2,-13.9 2,-20.9 z"
   id="path86" />
	<path
   d="m 1249.8,1021.1 c -3.1,35 -1.8,70 -2.2,105 0,3 0,6 -0.3,9 -0.4,3.9 -2.5,6.6 -6.6,6.8 -4.3,0.2 -6.8,-2.3 -7.7,-6.4 -0.3,-1.6 0,-3.3 0,-5 0,-58.2 2.2,-116.4 2.9,-174.7 0.2,-15.6 -0.4,-31.2 -0.4,-46.8 0,-3 -0.7,-4 -3.9,-3.9 -4.6,0.2 -9.3,0 -13.9,-0.2 -4.4,-0.2 -7.5,-3.5 -7.2,-7.3 0.4,-4.3 3,-6.8 7.3,-6.5 16.6,0.9 33.2,-1.1 49.8,-0.5 5,0.2 8,2.7 8,6.9 0.1,4.2 -2.8,6.8 -7.9,6.9 -4.6,0.2 -9.3,0.4 -14,0.3 -3.3,-0.1 -4.2,0.9 -4.1,4.3 0.7,25 0.7,50.1 0.2,75.1 -0.2,12.4 0,24.7 0,37 z"
   id="path88" />
	<path
   class="st17"
   d="m 1389.8,1122.7 c 0.5,-21.3 1,-42.6 1.4,-63.9 0.2,-8.8 0,-17.5 0,-26.3 0,-0.9 -0.8,-2.5 1.1,-2.6 0.1,0 0.3,0.8 0.4,1.2 -1.2,1.7 -0.6,3.5 -0.6,5.3 -0.1,20.9 0.1,41.8 -0.5,62.7 -0.2,7.8 0.2,15.8 -1.8,23.6 z"
   id="path90" />
	<path
   class="st1"
   d="m 1299,1022.3 c 0.6,-31.2 2,-64.1 9.1,-96.5 1.5,-6.7 3.3,-13.2 6.2,-19.4 1.6,-3.5 3.8,-3.7 6.8,-2 4.7,2.7 6.6,7.3 8.1,12.1 2.8,9.3 3.1,18.9 4.3,28.4 5.7,42.8 6.2,85.6 2.6,128.5 -1.2,13.7 -3.2,27.3 -6.9,40.6 -0.9,3.4 -2.2,6.6 -4.6,9.2 -4.2,4.5 -7.9,4.3 -11.3,-0.8 -5.4,-8 -7.6,-17.2 -9.2,-26.5 -4.2,-23.7 -5,-47.7 -5.1,-73.6 z"
   id="path92" />
	<path
   class="st1"
   d="m 1391.2,953.4 c 0,-16.1 0,-32.2 0,-48.3 0,-4.7 1.5,-5.6 5.8,-3.6 2.9,1.3 4.6,3.7 6,6.4 8.1,14.7 9,30.7 8.4,46.9 -0.4,13.8 -2.7,27.4 -8.6,40 -1.8,3.8 -3.8,7.4 -7.5,9.7 -1.1,0.7 -2.4,1.6 -3.7,1.1 -1.7,-0.7 -0.7,-2.3 -0.7,-3.5 -0.1,-16.2 0,-32.5 0,-48.7 0.1,0 0.2,0 0.3,0 z"
   id="path94" />
</g></g><g
   transform="translate(14.395709)"
   id="g1213"><g
     id="g145"
     transform="translate(-387.05735,-201.62604)">
	<path
   class="st1"
   d="m 1533.4,507 c 0,18.9 -0.1,37.7 0.1,56.6 0,2.5 -0.6,3 -3,3 -52.3,-0.1 -104.6,-0.1 -156.9,0 -2.5,0 -3,-0.6 -3,-3 0.1,-50.6 0.1,-101.3 0,-151.9 0,-2.5 0.6,-3 3,-3 52.3,0.1 104.6,0.1 156.9,0 2.5,0 3.1,0.6 3,3 -0.1,30.8 -0.1,61.6 -0.1,92.3 -0.9,0.3 -1.6,-0.1 -2.3,-0.6 -3.2,-2.4 -5.5,-1.1 -7.3,1.9 -1.8,2.8 -3.4,5.7 -5.2,8.4 -11.7,17.7 -28.2,23.8 -48.8,21 -10.3,-1.4 -20.5,-3.8 -31,-3.6 -20.3,0.3 -35.7,9.3 -47.5,25.4 -0.2,0.3 -0.4,0.5 -0.6,0.8 -1,1.8 -2,3.7 0,5.4 2.1,1.8 4.1,0.8 5.7,-0.9 3.4,-3.6 6.4,-7.5 10.1,-10.9 12,-11.1 26.4,-13.8 42,-11.8 10.5,1.4 20.8,3.3 31.5,3.5 17.3,0.3 30.6,-6.9 41.2,-20.1 3,-3.7 5.6,-7.7 8.2,-11.8 0.8,-1.6 1.5,-3.8 4,-3.7 z"
   id="path129" />
	<path
   d="m 1533.4,507 c -3.4,5 -6.6,10.2 -10.3,15 -11.3,15.1 -26.2,22.7 -45.3,21.9 -8.1,-0.4 -16.1,-1.4 -24.1,-2.7 -6.7,-1.1 -13.4,-1.8 -20.2,-1.1 -14.5,1.4 -25.3,8.9 -34,20 -0.8,1 -1.6,2.1 -2.4,3.2 -2,2.5 -4.6,2.7 -7,0.9 -2.6,-1.8 -2.9,-4.3 -1,-6.9 11.8,-16.5 27,-26.8 48,-27.5 10.9,-0.4 21.3,2.2 32,3.4 25.6,2.9 39.3,-3.8 52.1,-26.2 0.4,-0.7 0.8,-1.4 1.2,-2.2 3.4,-6 6.9,-6.3 11.1,-0.9 -0.1,1.1 -0.1,2.1 -0.1,3.1 z"
   id="path131" />
	<path
   d="m 1455,445.8 c -11.5,-0.1 -21.4,-2.9 -31.5,-4.7 -9.7,-1.7 -17.9,1.1 -25.2,7.4 -6.1,5.2 -10.9,11.5 -15.1,18.3 -2.1,3.4 -4.8,4.9 -8.2,2.8 -3.6,-2.2 -2.3,-5.2 -0.3,-8.1 4.6,-7.1 9.7,-13.8 15.8,-19.6 11.2,-10.5 24.3,-13.4 39,-9.8 14.6,3.6 29.1,6 43.8,0.5 10.7,-4 19.9,-10.2 28.7,-17.3 1.4,-1.2 2.8,-2.3 4.2,-3.5 2.4,-2.3 4.9,-2.8 7.4,-0.2 2.6,2.7 1.9,5.4 -0.6,7.7 -9.4,8.4 -19.5,15.8 -31.2,20.8 -8.9,3.7 -18.3,5.5 -26.8,5.7 z"
   id="path133" />
	<path
   d="m 1431.1,497 c 0,5.9 0,11.9 0,17.8 0,3.8 -1.3,6.9 -5.4,6.8 -3.8,-0.1 -4.8,-3.2 -4.7,-6.8 0.1,-5.8 -0.1,-11.6 -0.2,-17.4 0,-2.1 0.4,-3.5 -3.1,-2.8 -9.2,2 -7.3,1.2 -7,9.5 0.2,5.6 0.6,11.2 0.9,16.8 0.2,3.4 -1.6,5.5 -4.8,5.7 -3.1,0.2 -5,-1.9 -5.1,-4.9 -0.6,-17.1 -3.1,-34.3 -0.4,-51.5 0.9,-5.9 2.3,-11.7 5.8,-16.7 2.5,-3.6 5.7,-6.2 10.3,-5.7 4.3,0.5 6.3,4 7.7,7.6 4.9,12.4 5,25.5 5.8,38.5 0.1,1 0,2 0,3 0,0.1 0.1,0.1 0.2,0.1 z"
   id="path135" />
	<path
   d="m 1448,479.1 c -0.2,11.2 0.4,21.8 1,32.5 0.1,1.6 0.2,3.4 -0.3,4.9 -0.8,2.4 -2.6,3.8 -5.3,3.4 -2.4,-0.3 -3.9,-1.8 -4.1,-4.2 -1.1,-15.8 -1.9,-31.7 -0.9,-47.6 0.2,-3.8 0.9,-8.6 5.6,-9.5 4.7,-0.9 6.8,3.2 8.8,6.6 1.1,1.8 1.6,3.9 3.8,5.6 0.2,-5.6 1,-10.5 3,-15.2 1.3,-3 3.4,-5 6.4,-3.7 3.3,1.3 4.5,4 2.8,7.7 -3.4,7.2 -2.9,14.8 -1.7,22.4 1.4,9.3 3.1,18.6 4.6,27.9 0.3,1.9 0.5,4 0.4,5.9 -0.2,3 -1.9,5.1 -5,5.1 -3.1,0 -4.9,-1.8 -5,-5 -0.3,-11.6 -5.1,-21.7 -10.3,-31.8 -0.8,-1.8 -2,-3.3 -3.8,-5 z"
   id="path137" />
	<path
   d="m 1478.8,493.9 c -0.2,-9.2 -1.4,-19.1 -2.7,-28.9 -0.9,-7.3 -0.5,-8.3 8.2,-13.1 4.5,-2.5 8.6,-1.4 12.4,1.6 2.9,2.3 5,5.3 6.5,8.6 5.6,11.9 8,24.4 7,37.6 -0.4,5 -1.9,9.7 -4.5,14.1 -2.9,4.9 -7.2,7.6 -12.9,8.2 -7,0.6 -10.6,-1.8 -12.4,-8.6 -1.5,-6.2 -1.9,-12.5 -1.6,-19.5 z"
   id="path139" />
	<path
   class="st22"
   d="m 1415.4,458.3 c 3.2,7.9 3.6,15.2 4.6,22.4 0.3,2.2 -0.6,3.4 -2.8,3.8 -2.2,0.5 -4.4,1 -7.1,1.6 0.4,-9.4 0.6,-18.4 5.3,-27.8 z"
   id="path141" />
	<path
   class="st23"
   d="m 1488.9,490.8 c -0.7,-7.4 -1.5,-16.3 -2.3,-25.1 -0.2,-1.9 -0.6,-3.5 1.7,-4.5 2.5,-1 3.3,1 4.1,2.4 7.5,12.8 9.5,26.6 6.4,41.1 -0.3,1.4 -1.1,2.7 -1.9,4 -1.2,1.9 -3.2,3.4 -5.3,3 -2.6,-0.4 -1.9,-3.2 -2.1,-5 -0.5,-4.8 -1.3,-9.6 -0.6,-15.9 z"
   id="path143" />
</g><g
     id="_WIERD"
     transform="translate(-387.05735,-201.62604)">
	<text
   transform="translate(715.37,560)"
   class="st24 st25 st26"
   id="text147"><tspan
     style="font-style:normal;font-variant:normal;font-weight:normal;font-stretch:normal;font-family:'Chelsea Market';-inkscape-font-specification:'Chelsea Market'"
     id="tspan162">WEIRD</tspan></text>
</g></g><g
   transform="translate(-585.2211,-201.62604)"
   id="our_stories_define_us_in_">
	<text
   style="font-size:120px"
   y="359.89999"
   x="866.0661"
   id="text150"
   class="st18 st19 st27"><tspan
     id="tspan164"
     style="font-style:normal;font-variant:normal;font-weight:normal;font-stretch:normal;font-size:120px;font-family:Boogaloo;-inkscape-font-specification:Boogaloo">our stories define us in</tspan></text>
</g><path
   id="path153"
   d="m 1497.8426,474.77396 c -0.4,-59.9 -1.2,-119.8 -2.5,-179.8 -0.9,-41.6 -1.6,-83.2 -2.9,-124.8 -1.5,-46.9 -4.2,-93.800005 -8.5,-140.500005 -1.3,-0.8 -2.8,-1.2 -4.3,-1.1 -8.3,-0.2 -16.6,-0.4 -24.9,-0.7 -20.6,-0.9 -41.2,-1.4 -61.8,-2 -22.6,-0.7 -45.2,-1.3 -67.8,-2 -24.8,-0.7 -49.5,-1.3 -74.3,-2 -27.4,-0.7 -54.9,-1.6 -82.3,-2 -28.9,-0.4 -57.9,-1.5 -86.8,-1.9 -35.8,-0.5 -71.5,-1.2 -107.29995,-2.1 -22.3,-0.5 -44.6,0 -66.9,-1 -22.9,-1 -45.9,-0.2 -68.9,-1 -28.1,-0.9 -56.2,-0.2 -84.3,-1 -38.9,-1.1 -77.9,-0.4 -116.8,-1 -42.6,-0.7 -85.2,-0.4 -127.8,-0.4 -88.4,0 -176.8,0.1 -265.2,0.3 -11.8,0 -23.6,0.9 -35.4,0.2 -2,-0.1 -4,-0.3 -6,-0.3 -35.5,0.2 -70.9,0.5 -106.399999,0.7 -23.1,0.1 -46.3,1 -69.4,2.1 -2.5,0.1 -5,0.1 -6.9,2.2 -3.2,15 -6,30 -7.2,45.3 -3.2,39.499995 -5.4999997,79.100005 -6.5999997,118.600005 -2,69.9 -3.3,139.8 -4.0999999,209.7 -1.1,94.4 -0.9,188.8 0.3999999,283.2 0.5,33.8 0.7,67.6 1.3,101.4 0.8,48.1 1.9,96.2 2.9,144.3 0.5,22.5 0.9,44.9 1.5,67.4 1.1,39.09994 2.1999997,78.19994 3.3999997,117.30004 0.9,29.7999 1.7,59.5999 2.5,89.4 0.9,31.9 1.9,63.9 2.8,95.8 0.9,4.8 0.3,9.5999 0.4,14.4 0,2.9 1.1,4.1 4.1,4.3 14.6,0.8 29.2,1.4 43.8,1.9 26.1,0.8 52.199999,1 78.299999,1.5 29,0.5 57.9,-0.4 86.9,0.5 18.6,0.6 37.3,-0.2 55.9,0.5 16.3,0.6 32.6,-0.1 48.9,0.5 19.3,0.7 38.6,-0.2 57.9,0.5 16.3,0.6 32.6,0 48.9,0.5 21.5,0.7 42.9,-0.1 64.4,0.5 25.3,0.7 50.6,-0.2 75.9,0.5 21.5,0.6 42.9,-0.1 64.4,0.5 25.9,0.7 51.9,-0.1 77.9,0.5 29.3,0.7 58.6,-0.1 87.9,0.5 37.4,0.7 74.9,-0.2 112.4,0.6 27.8,0.6 55.6,0.1 83.39995,0.4 65.9,0.8 131.8,-0.3 197.8,1 41,0.8 81.9,0.2 122.9,0.2 51.1,0 102.2,0 153.4,0 6.5,0 6.7,-0.4 6.8,-6.7 0.1,-6.3 -0.5,-13 0.3,-19.4 0.6,-28 1.3,-55.9 1.8,-83.9 1.4,-79.9001 3,-159.8 4.2,-239.70004 0.9,-56.8 1.4,-113.5 1.8,-170.3 0.5,-107.9 0.6,-215.7 0.1,-323.6 z m -20.9,-428.800005 c -2.8,66.700005 -2.1,133.500005 -1.8,200.300005 0.4,74.9 0.6,149.8 1.2,224.8 0.7,84.4 0.7,168.8 0.2,253.2 -0.4,77.6 -1.1,155.2 -2,232.8 -0.4,37.1 -1.1,74.20004 -1.8,111.40004 -1,51.6 -2,103.2 -3.2,154.8 -0.6,25.8 -1.4,51.6 -2,77.4 -0.1,3.6 -1,4.9 -4.8,4.9 -100.6,-0.2 -201.2,-0.3 -301.7,-0.4 -91.1,-0.2 -182.19995,-0.6 -273.29995,-0.9 -34.3,-0.1 -68.5,-0.1 -102.8,0 h -2.1 c -67.8,0 -164.5,-1.9 -231.7,-2 -47,-0.1 -93.9,-0.6 -140.9,-1 -35.1,-0.3 -70.3,-0.3 -105.4,-1 -45.3,-0.9 -90.6,-0.5 -135.9,-1 -40.5,-0.5 -80.899999,-0.8 -121.399999,-0.5 -4.1,0 -4.9,-1.4 -5,-5.1 -1.6,-55.4 -3.2,-110.8 -4.9,-166.2 -1.3,-43.6 -2.6,-87.2 -3.7,-130.80004 -1.5,-61.7 -2.9,-123.5 -4.2,-185.2 -0.9,-45.4 -1.5,-90.9 -2.1,-136.3 -0.5,-39.1 -1.3,-78.2 -1.2,-117.3 0,-70.6 0.3,-141.2 0.9,-211.7 0.3,-40 0.9,-79.9 2.1,-119.8 1.9,-61.1 3.1,-122.2 2.5,-183.300005 0.1,-5 -0.3,-10 -0.9,-14.9 -0.7,-4.5 1,-5.4 5,-5.2 8,0.5 16,0.8 24,0.7 142.499999,-1.8 285.099999,-2 427.599999,-1.7 41.1,0.1 82.3,0.2 123.4,0.4 39.1,0.2 78.3,0.6 117.4,1 51.9,0.6 103.9,1.2 155.8,2 40.3,0.6 80.6,1.2 120.79995,2 31.3,0.6 62.6,1.2 93.9,1.9 58.1,1.3 116.2,2.7 174.3,4.1 45.9,1.2 91.8,2.6 137.8,4 19.8,0.6 39.6,1.3 59.4,2 6.8,-0.3 6.8,-0.3 6.5,6.6 z"
   class="st8" />
<g
   transform="translate(1.0446771)"
   id="g1220"><g
     id="ways"
     transform="translate(-387.05735,-201.62604)">
	<text
   transform="matrix(0.9992,-0.03996804,0.03996804,0.9992,1509.2697,740.0992)"
   class="st18 st19 st20"
   id="text98"
   style="font-size:100px"><tspan
     style="font-style:normal;font-variant:normal;font-weight:normal;font-stretch:normal;font-size:100px;font-family:Boogaloo;-inkscape-font-specification:Boogaloo"
     id="tspan166">ways</tspan></text>
</g><text
     xml:space="preserve"
     style="font-weight:bold;font-size:190px;line-height:1.25;font-family:'Amatic SC';-inkscape-font-specification:'Amatic SC Bold';letter-spacing:5px;word-spacing:0px;fill:#f98707;fill-opacity:1;stroke:#f98707;stroke-width:5;stroke-miterlimit:4;stroke-dasharray:none;stroke-opacity:1"
     x="211.31319"
     y="544.72992"
     id="text322"><tspan
       sodipodi:role="line"
       id="tspan320"
       x="211.31319"
       y="544.72992"
       style="font-style:normal;font-variant:normal;font-weight:bold;font-stretch:normal;font-size:190px;font-family:'Patrick Hand';-inkscape-font-specification:'Patrick Hand Bold';fill:#f98707;fill-opacity:1;stroke:#f98707;stroke-width:5;stroke-miterlimit:4;stroke-dasharray:none;stroke-opacity:1"
       dx="0">WONDERFUL</tspan></text></g></svg>
