<svg id="Capa_1" data-name="Capa 1" xmlns="http://www.w3.org/2000/svg" viewBox="0 0 419.17 693"><defs><style>.cls-1,.cls-16{fill:#fff;}.cls-13,.cls-2,.cls-5{fill:#fdc700;}.cls-13,.cls-14,.cls-3,.cls-4,.cls-5,.cls-6,.cls-7,.cls-8,.cls-9{isolation:isolate;}.cls-3{font-size:9.12px;}.cls-14,.cls-3,.cls-9{fill:#4bbcc0;}.cls-13,.cls-16,.cls-3,.cls-5,.cls-6{font-family:ChelseaMarket-Regular, Chelsea Market;}.cls-4{font-size:27.34px;}.cls-4,.cls-7{font-family:AmaticSC-Bold, Amatic SC;font-weight:700;}.cls-5{font-size:36.31px;}.cls-6{font-size:36.53px;}.cls-17,.cls-6{fill:#fa8807;}.cls-7{font-size:36.27px;}.cls-8{font-size:32.87px;fill:#804cbf;font-family:PatrickHand-Regular, Patrick Hand;}.cls-9{font-size:25.79px;}.cls-14,.cls-15,.cls-9{font-family:Boogaloo-Regular, Boogaloo;}.cls-10{fill:#fefefe;}.cls-11{fill:#f8f8f8;}.cls-12{fill:#fdfdfd;}.cls-13{font-size:46.94px;}.cls-14{font-size:25.78px;}.cls-15{font-size:18.84px;}.cls-16{font-size:28.78px;}.cls-17{stroke:#fa8807;stroke-miterlimit:10;stroke-width:0.5px;}</style></defs><title>one block</title><path class="cls-1" d="M390.65,518q-.34,58.65-1,117.32-139.06.4-278.1-1.46c-13.42-.19-26.86-.3-40.29-.44-7.91-.08-15.87-.26-23.81-.07C46,560.89,44.53,488.47,43.56,416,42.55,341,42,265.91,42.49,190.85q.19-31.11.62-62.24c.14-10.68,0-21.36,0-32,0-8.94.18-18-.41-26.9,9.58.58,19.37,0,28.89-.2q17.84-.32,35.7-.47,34.77-.32,69.58-.05,70.05.53,140,3.34,36.63,1.47,73.26,3.61c-.77,34.54-.32,69.11-.11,103.65q.33,56.41.66,112.81Q391.31,405.17,390.65,518Z"/><rect class="cls-2" x="38.65" y="282.09" width="353.38" height="144.2"/><path class="cls-2" d="M394.93,193.39c-.55-39.12-.9-78.3-3-117.38-.08-1.63-.17-3.28-.27-4.91-.47,0-.93-.07-1.4-.08q-137.62-7.89-275.59-6.65-19.68.18-39.37.55c-10.82.2-22-.08-32.89,1.16-.69.07-1.37.16-2.05.26-.15,1-.3,2.09-.42,3.14-2,16.45-1.85,33.39-2.4,49.9-.64,18.89-.62,37.84-.79,56.74q-.55,56.28-.35,112.58c.27,75.07,1.32,150.13,2.65,225.18q1.06,59.85,2.29,119.67c0,1.23,0,2.46.08,3.69,2,.2,4,.37,6,.52C65.08,639,83,638.65,100.45,639c24.11.41,48.22.65,72.32.9q71.88.75,143.75.89,36.51.07,73,0h5.23c0-1.82.05-3.63.06-5.45Q396,527.13,396.09,419C396.14,343.79,396,268.58,394.93,193.39ZM390.65,518q-.34,58.65-1,117.32-139.06.4-278.1-1.46c-13.42-.19-26.86-.3-40.29-.44-7.91-.08-15.87-.26-23.81-.07C46,560.89,44.53,488.47,43.56,416,42.55,341,42,265.91,42.49,190.85q.19-31.11.62-62.24c.14-10.68,0-21.36,0-32,0-8.94.18-18-.41-26.9,9.58.58,19.37,0,28.89-.2q17.84-.32,35.7-.47,34.77-.32,69.58-.05,70.05.53,140,3.34,36.63,1.47,73.26,3.61c-.77,34.54-.32,69.11-.11,103.65q.33,56.41.66,112.81Q391.31,405.17,390.65,518Z"/><g id="click_here_to_learn_more" data-name="click here to learn more"><text class="cls-3" transform="translate(124.63 256.42)">click here</text><text class="cls-3" transform="translate(104.94 267.35)">to learn more</text></g><g id="we_Create" data-name="we Create"><text class="cls-4" transform="translate(179.1 100.37)">we Create</text></g><g id="PERSONALIZED_" data-name="PERSONALIZED "><text class="cls-5" transform="translate(86.56 146.36)">PERSONALIZED</text></g><g id="BOOKS"><text class="cls-6" transform="translate(85.62 191.73)">BOOKS</text></g><g id="TO_PRESERVE" data-name="TO PRESERVE"><text class="cls-7" transform="translate(230.55 192.19)">TO PRESERVE</text></g><text class="cls-8" transform="translate(87.29 232.39)">PERSONAL MEMORIES</text><path d="M184.6,263.41a32.69,32.69,0,0,0,2.34-3.41.45.45,0,0,0,0-.75s0,0,0,0a25.44,25.44,0,0,0-4-2.17.26.26,0,0,0-.32.16.25.25,0,0,0,.06.28,36.45,36.45,0,0,0,3.26,1.9,31.66,31.66,0,0,0-3.83,1.89c-1.16.5-3.39,1-4.64.15a2.84,2.84,0,0,0,1.45-1.82,1.38,1.38,0,0,0-.88-1.68,1.7,1.7,0,0,0-1.79.79,2.26,2.26,0,0,0-.09,2.21s0,.06,0,.08c-1.67.46-3.42-.32-4.88-1.09a.26.26,0,0,0-.33.15.28.28,0,0,0,.07.29c1.66,1.16,3.69,2.08,5.68,1.38,1.1.94,3,.91,4.29.67,1.77-.35,3.19-1.51,4.86-2.1A14.79,14.79,0,0,0,184,263C183.86,263.32,184.32,263.74,184.6,263.41Zm-7.77-2.67s0,0,0-.06a1.68,1.68,0,0,1,0-1.45c.18-.3.79-.79,1.14-.44s-.07,1-.31,1.34a2.58,2.58,0,0,1-.79.61Z"/><g id="ways"><text class="cls-9" transform="translate(308.47 559.47) rotate(-2.29)">ways</text></g><path class="cls-10" d="M318.06,499.42c0,4.87,0,9.72,0,14.59,0,.64-.16.77-.77.77q-20.22,0-40.44,0c-.65,0-.77-.16-.77-.77q0-19.56,0-39.15c0-.65.15-.78.77-.78q20.22,0,40.44,0c.64,0,.79.16.77.78q0,11.91,0,23.79a.64.64,0,0,1-.59-.16c-.82-.62-1.42-.28-1.88.49s-.88,1.47-1.34,2.17c-3,4.56-7.27,6.13-12.58,5.41a52.15,52.15,0,0,0-8-.93,14.77,14.77,0,0,0-12.24,6.55l-.15.2c-.26.47-.52,1,0,1.39s1,.21,1.47-.23c.87-.93,1.64-1.93,2.6-2.81,3.09-2.86,6.8-3.55,10.82-3a71,71,0,0,0,8.12.9,12.68,12.68,0,0,0,10.62-5.18,31.53,31.53,0,0,0,2.11-3C317.24,500,317.42,499.39,318.06,499.42Z"/><path d="M318.06,499.42c-.87,1.29-1.7,2.63-2.65,3.86a13.11,13.11,0,0,1-11.68,5.65,54.12,54.12,0,0,1-6.21-.7,19.7,19.7,0,0,0-5.2-.28,12.39,12.39,0,0,0-8.77,5.15c-.2.26-.41.55-.61.83a1.21,1.21,0,0,1-1.81.23,1.14,1.14,0,0,1-.26-1.78c3.05-4.25,7-6.9,12.37-7.08,2.81-.11,5.49.56,8.25.87,6.6.75,10.13-1,13.43-6.75.1-.18.21-.36.31-.57.87-1.54,1.78-1.62,2.86-.23A7.31,7.31,0,0,0,318.06,499.42Z"/><path d="M297.86,483.65a45.91,45.91,0,0,1-8.12-1.22,7.53,7.53,0,0,0-6.49,1.91,19.68,19.68,0,0,0-3.9,4.72c-.54.87-1.23,1.26-2.11.72s-.59-1.34-.08-2.09a28,28,0,0,1,4.07-5.05,10.29,10.29,0,0,1,10.06-2.52c3.76.92,7.5,1.54,11.28.12a26.67,26.67,0,0,0,7.4-4.45l1.08-.91a1.2,1.2,0,0,1,1.91-.05,1.26,1.26,0,0,1-.15,2,29.86,29.86,0,0,1-8.05,5.36A19.67,19.67,0,0,1,297.86,483.65Z"/><path d="M291.7,496.84v4.59c0,1-.34,1.78-1.39,1.75s-1.24-.82-1.21-1.75c0-1.5,0-3-.06-4.49,0-.54.11-.9-.8-.72-2.37.52-1.88.31-1.8,2.45.05,1.44.16,2.89.23,4.33a1.24,1.24,0,0,1-1.23,1.47,1.2,1.2,0,0,1-1.32-1.26c-.15-4.41-.8-8.84-.1-13.28a9.88,9.88,0,0,1,1.49-4.3,2.81,2.81,0,0,1,2.66-1.47c1.11.13,1.62,1,2,2,1.26,3.2,1.29,6.57,1.5,9.92,0,.26,0,.52,0,.78C291.65,496.84,291.67,496.84,291.7,496.84Z"/><path d="M296.05,492.23c-.05,2.88.11,5.62.26,8.37a3.37,3.37,0,0,1-.08,1.27,1.15,1.15,0,0,1-1.36.87,1.11,1.11,0,0,1-1.06-1.08,93,93,0,0,1-.23-12.27c.05-1,.23-2.21,1.44-2.44s1.76.82,2.27,1.7a4.06,4.06,0,0,0,1,1.44,10.82,10.82,0,0,1,.77-3.92c.34-.77.88-1.29,1.65-.95a1.3,1.3,0,0,1,.72,2A9.68,9.68,0,0,0,301,493c.36,2.39.8,4.79,1.18,7.19a7.07,7.07,0,0,1,.1,1.52A1.24,1.24,0,0,1,301,503a1.19,1.19,0,0,1-1.29-1.29c-.08-3-1.32-5.59-2.66-8.19A3.78,3.78,0,0,0,296.05,492.23Z"/><path d="M304,496a70.69,70.69,0,0,0-.69-7.45c-.24-1.88-.13-2.13,2.11-3.37a2.68,2.68,0,0,1,3.19.41,5.9,5.9,0,0,1,1.68,2.22,19,19,0,0,1,1.8,9.69,8.29,8.29,0,0,1-1.16,3.63,4.13,4.13,0,0,1-3.32,2.11,2.6,2.6,0,0,1-3.2-2.21A17.93,17.93,0,0,1,304,496Z"/><path class="cls-11" d="M287.65,486.87a22.24,22.24,0,0,1,1.19,5.77.77.77,0,0,1-.72,1l-1.83.41C286.39,491.61,286.44,489.29,287.65,486.87Z"/><path class="cls-12" d="M306.59,495.24c-.18-1.9-.38-4.2-.59-6.47-.05-.48-.15-.9.44-1.15s.85.25,1.06.61a14.39,14.39,0,0,1,1.65,10.6,3.73,3.73,0,0,1-.49,1,1.43,1.43,0,0,1-1.37.77c-.67-.1-.49-.82-.54-1.29A17.25,17.25,0,0,1,306.59,495.24Z"/><g id="_WIERD" data-name=" WIERD"><text class="cls-13" transform="translate(107.24 513.08)">WEIRD</text></g><g id="our_stories_define_us_in_" data-name="our stories define us in "><text class="cls-14" transform="translate(118.48 461.51)">our stories define us in</text></g><path d="M117.89,614.47c-.26-1-.52-2.37-.76-4s-.49-3.53-.72-5.73-.47-4.1-.71-5.7-.5-2.92-.76-3.93a1.3,1.3,0,0,1,.13-1,.92.92,0,0,1,.74-.52,4.91,4.91,0,0,1,.86-.08,2.07,2.07,0,0,1,1.87,1.08c.23,1.22.53,3.33.89,6.36s.78,7,1.28,11.9q1.08-3.72,1.43-5.42c.11-.55.23-1.19.35-1.91s.24-1.53.39-2.43q.21-.83.39-1.65c.11-.54.23-1.09.34-1.64.12-1.33.61-2,1.48-2a3.79,3.79,0,0,1,1,.13.38.38,0,0,0,.39.3c.23,0,.36.08.39.14a19.36,19.36,0,0,1,1.43,5.68c.29,1.67.55,3.32.78,4.92s.44,3.19.61,4.75q.62-3.9,1.11-6.75c.33-1.89.61-3.49.84-4.79a29,29,0,0,1,2.35-7.28,1.28,1.28,0,0,1,1.25-.57,2.74,2.74,0,0,1,1.22.26,1.51,1.51,0,0,1,1,1.39,4.19,4.19,0,0,1-.52,1.65,10.73,10.73,0,0,0-.5,1.08c-.1.26-.17.42-.2.48-.35,1.07-.72,2.41-1.13,4s-.84,3.53-1.3,5.73-.88,4.1-1.26,5.7-.72,2.92-1,3.93q-.26.87-1.47.87a2.7,2.7,0,0,1-1-.22,4.89,4.89,0,0,1-2.3-3.21,9.44,9.44,0,0,1-.17-1c-.09-.64-.23-1.56-.43-2.78-.12-.92-.24-2-.37-3.21s-.3-2.57-.5-4.08c-.35,1.6-.66,3.07-.93,4.43s-.53,2.6-.76,3.73q-.87,4.17-2,5.29c-.23.23-.64.26-1.22.09a2.15,2.15,0,0,1-1.86-1.56Z"/><path d="M148,608.09a4.82,4.82,0,0,1-.67-.06l-.87-.13-.86-.13a3.79,3.79,0,0,0-.59-.07,4.52,4.52,0,0,0-1.26.17,30.31,30.31,0,0,0-.8,4.23,56.32,56.32,0,0,0-.41,5.92,4.25,4.25,0,0,1-1.13.22,3.7,3.7,0,0,1-.8-.09,1.72,1.72,0,0,1-.76-.36,2.41,2.41,0,0,1-.59-.76,2.83,2.83,0,0,1-.24-1.26,8.84,8.84,0,0,1,.07-.89c0-.36.06-.61.06-.76,0-.32,0-.87.13-1.67s.19-1.73.31-2.8.25-2.23.41-3.49.3-2.51.41-3.75.22-2.42.31-3.51.13-2,.13-2.78v-.52a.54.54,0,0,1,.47-.61,4,4,0,0,1,.7-.08l1.3.34a1.27,1.27,0,0,1,.63.46,2.35,2.35,0,0,1,.37.78,5.76,5.76,0,0,1,.17,1c0,.35,0,.68,0,1s0,.58-.08,1-.12,1-.18,1.5-.11,1.07-.17,1.6A12.79,12.79,0,0,0,144,604a.9.9,0,0,0,.61,1,6.18,6.18,0,0,0,1.78.19H147a8.65,8.65,0,0,0,1,0,5.22,5.22,0,0,1,.57,0h.17q.57-2.35,1-5.23t.89-6.57c.14-1,.45-1.49.91-1.52h.39a3.43,3.43,0,0,1,1.37.24,1.11,1.11,0,0,1,.67.71c0,.7-.11,1.66-.24,2.89s-.28,2.6-.46,4.12-.35,3.11-.54,4.79-.37,3.3-.54,4.88-.31,3-.41,4.4-.15,2.48-.15,3.34c0,.47,0,.91,0,1.33s0,.83.06,1.23a1,1,0,0,1-.19.59.58.58,0,0,1-.5.28,2.73,2.73,0,0,1-2.41-1,5,5,0,0,1-.67-2.84c0-.17,0-.4,0-.69s0-.6,0-.93,0-.65.05-.94,0-.52,0-.69,0-.59.06-1.08.1-1,.16-1.57.1-1.07.15-1.58.06-.89.06-1.15Z"/><path d="M155.23,618.89a10.92,10.92,0,0,1,1-4,19,19,0,0,0,1.43-4.6q0-.35-.57-.78c-.4-.32-.6-.57-.6-.74a.56.56,0,0,1,.17-.43,1.35,1.35,0,0,1,.91-.39c.49-.12.77-.28.83-.48.52-1.42,1.34-4.1,2.47-8.07.49-1.73.94-3.24,1.36-4.53s.82-2.39,1.2-3.32a1.05,1.05,0,0,1,1.08-.61,1.63,1.63,0,0,1,1.09.4,5.05,5.05,0,0,1,1.56,3.12c.08.58.17,1.17.26,1.78s.16,1.2.21,1.77c.73,3.42,1.46,6.52,2.22,9.31s1.51,5.31,2.3,7.57a3.88,3.88,0,0,1,.26,1.21,2,2,0,0,1-.74,1.52,2.1,2.1,0,0,1-1,.61c-1.42-.26-2.31-1.41-2.69-3.43a28,28,0,0,0-1.43-5.51l-2.95.26a5,5,0,0,0-2.65,1c-.14.47-.32,1.09-.54,1.87s-.45,1.75-.71,2.9a31,31,0,0,1-1.43,4.82.85.85,0,0,1-.87.52h-.28a.71.71,0,0,1-.33-.09c-.95-.29-1.46-.72-1.52-1.3Zm10.54-12.32c-.06-.58-.13-1.16-.21-1.75s-.21-1.21-.35-1.85-.28-1.15-.41-1.73-.27-1.16-.42-1.74c-.86,2.43-1.62,4.83-2.25,7.2A30,30,0,0,1,165.77,606.57Z"/><path d="M182,617.37c0,.18,0,.33,0,.46s0,.25-.07.37a.85.85,0,0,1-.87.65,2.67,2.67,0,0,1-2.06-1.06,4.12,4.12,0,0,1-.89-2.28c-.08-1.07-.13-2.2-.13-3.38,0-1.91.13-4.94.39-9.07.12-1.74.21-3.29.26-4.66s.09-2.57.09-3.58V594h-.56c-.35,0-.75,0-1.2,0s-.94.08-1.49.17l-.74.15a2.83,2.83,0,0,1-.74.07,5.36,5.36,0,0,1-3.47-1.13,10.41,10.41,0,0,1-.52-1.17.89.89,0,0,1,.31-.65,16,16,0,0,1,1.6-.41,21.17,21.17,0,0,1,2.26-.33,16.87,16.87,0,0,0,5.64-1.39,12.28,12.28,0,0,0,3.47.48,15.33,15.33,0,0,0,3.73-.48c.17,0,.44-.09.82-.19l1.17-.33a7.36,7.36,0,0,1,2-.3l.28,0a1.42,1.42,0,0,0,.28,0c.44,0,.65.16.65.48v.17c.79,0,1.18.26,1.18.78a2.2,2.2,0,0,1-1.48,1.83c-.93.23-2.1.48-3.53.75s-3.31.61-5.62,1q-.44,5.46-.65,9.89t-.22,8.11c0,.93,0,1.83,0,2.71s0,1.77.07,2.67Z"/><path d="M202.42,587.92a1.08,1.08,0,0,1,.61.57,5.3,5.3,0,0,1,.22,1.47,9.2,9.2,0,0,1-.91,3.47c-.44,1-.78,1.82-1,2.41a10.51,10.51,0,0,0-.46,1.23c-.69,2.29-1.68,3.43-3,3.43a1.67,1.67,0,0,1-.69-.13c-.61-.17-.83-.62-.65-1.34a16.7,16.7,0,0,1,.58-1.83c.31-.83.7-2,1.2-3.34.37-1.07.68-2,.91-2.92a14.39,14.39,0,0,0,.43-2.45c.06-.61.64-.84,1.74-.7Z"/><path d="M209.32,621.49c-.87-.37-1.3-.85-1.3-1.43a2.1,2.1,0,0,1,.65-1.26,1.63,1.63,0,0,1,.82-.26.92.92,0,0,0,.87-.52,8.72,8.72,0,0,0,.91-3.9q0-2.73-2.82-8.15t-2.77-8.59a10.35,10.35,0,0,1,1-4.73,7.14,7.14,0,0,1,3.34-3.43,5,5,0,0,1,1.95-.47,3.54,3.54,0,0,1,2.73,1,1.33,1.33,0,0,1,.43,1c0,.58-.41,1.08-1.25,1.52a1,1,0,0,1-.39.08.9.9,0,0,1-.35,0,2.24,2.24,0,0,0-.65-.17.72.72,0,0,0-.52.26,7.79,7.79,0,0,0-2.34,5.72,6.84,6.84,0,0,0,.39,2.34c.05.15.36.78.91,1.91s1.34,2.74,2.38,4.82a16.48,16.48,0,0,1,2.09,7.07,9.68,9.68,0,0,1-1.18,4.59,7,7,0,0,1-1.95,1.91,4,4,0,0,1-2.25.91A1.82,1.82,0,0,1,209.32,621.49Z"/><path d="M233.7,605.79c-1-2.8-2-5.19-2.84-7.15s-1.69-3.61-2.41-4.91a.67.67,0,0,1-.13-.43,1.15,1.15,0,0,1,.54-.89,1.8,1.8,0,0,1,1.06-.41,2.44,2.44,0,0,1,.44.13c.14.06.31.11.5.17a6.54,6.54,0,0,0,.71.18,16.11,16.11,0,0,1,1.11,1.88c.36.71.74,1.5,1.15,2.37l1.95,4.42,1.73-5.16a21.07,21.07,0,0,1,2.22-5,1.27,1.27,0,0,1,1.21-.6,2.77,2.77,0,0,1,2,.82q-.61,2.47-1.71,5.64T238.51,604q-1.95,4.61-3.14,7.75c-.8,2.09-1.38,3.72-1.76,4.88a7.26,7.26,0,0,0-.22,1.73c0,.23,0,.45,0,.65s0,.38,0,.52,0,.28,0,.39a1.7,1.7,0,0,0,0,.26,1.52,1.52,0,0,1-1.73,1.52,2.68,2.68,0,0,1-1.48-.52,1.47,1.47,0,0,1-.78-1.21,22.67,22.67,0,0,1,.46-3.39,25.92,25.92,0,0,1,1.15-3.86Z"/><path d="M257.25,607.57a14.61,14.61,0,0,1-1.56,2.8,12.91,12.91,0,0,1-2,2.21,8.2,8.2,0,0,1-2.29,1.45,6.45,6.45,0,0,1-2.54.52,5.36,5.36,0,0,1-2.06-.47,7.35,7.35,0,0,1-2.17-1.43,8.65,8.65,0,0,1-1.74-2.33,6.84,6.84,0,0,1-.71-3.18,12.26,12.26,0,0,1,.54-3.32,19,19,0,0,1,1.43-3.58,11.6,11.6,0,0,1,2.06-2.86,3.44,3.44,0,0,1,2.43-1.17,1.41,1.41,0,0,1,.5.08l.43.22c.16.09.36.2.59.35a7.62,7.62,0,0,0,.95.47c.26.12.56.24.89.37s.73.27,1.2.41a5,5,0,0,1,2.16,1.39,8.3,8.3,0,0,1,1.39,2.06,8.77,8.77,0,0,1,.72,2.17,9.89,9.89,0,0,1,.19,1.72A4.71,4.71,0,0,1,257.25,607.57Zm-3.47-2.69a9.37,9.37,0,0,0-.72-2.8A1.52,1.52,0,0,0,251.7,601a1.17,1.17,0,0,0-.67.33,10.47,10.47,0,0,0-.83.71q-.4.39-.78.72c-.25.21-.41.32-.5.32a1.48,1.48,0,0,1-.82-.34,1.63,1.63,0,0,0-.65-.35.92.92,0,0,0-.76.45,4.11,4.11,0,0,0-.54,1.09,7.1,7.1,0,0,0-.33,1.34,8.82,8.82,0,0,0-.11,1.24,5.74,5.74,0,0,0,.35,2,6.54,6.54,0,0,0,.82,1.56,4.45,4.45,0,0,0,1,1,1.52,1.52,0,0,0,.76.34,3.19,3.19,0,0,0,1.73-.58,7.12,7.12,0,0,0,1.67-1.5,8.59,8.59,0,0,0,1.26-2,5.05,5.05,0,0,0,.5-2.08Z"/><path d="M265.53,596.29c0,1.39,0,3.14-.13,5.25,0,1.56-.11,2.89-.15,4s-.06,2-.06,2.65c0,1.47,0,2.79.13,4a19.07,19.07,0,0,0,.78,3.46,14.25,14.25,0,0,0,2.86-5.42c.12-.37.29-1.07.52-2.1s.52-2.38.87-4.06c.29-1.3.59-2.45.91-3.44a22.45,22.45,0,0,1,.95-2.54,6.47,6.47,0,0,0,.52-2.3,7.13,7.13,0,0,1,.52-2.34,1.62,1.62,0,0,1,1.65-1,2.42,2.42,0,0,1,2.17.95c-.12,1-.31,2.18-.58,3.51s-.66,2.87-1.15,4.6q-1,3.44-1.54,5.47c-.37,1.36-.6,2.28-.72,2.77a20.55,20.55,0,0,1-3.64,8,4.68,4.68,0,0,1-3.91,2.26c-1.3,0-2.27-.83-2.9-2.47a26.6,26.6,0,0,1-1.35-13.23,31.38,31.38,0,0,0,.31-4.47s0-.91,0-2.73.7-2.69,2.08-2.69a2,2,0,0,1,.85.21l.93.48.07,0s0,0,.06,0Z"/><path d="M280.5,614c.06-.84.13-1.76.24-2.75s.15-2.08.15-3.24v-4.72q0-3,.06-5.43a32.63,32.63,0,0,1,.42-4.51q.42-2.48,4.46-2.47h.61a5.35,5.35,0,0,1,4.08,2.34,7,7,0,0,1,1.6,4.51,6.77,6.77,0,0,1-1.52,4.08,11.19,11.19,0,0,1-3.16,3,3.54,3.54,0,0,0-.61.41.63.63,0,0,0-.22.46.69.69,0,0,0,.2.5c.13.13.35.32.67.58l1.39,1.17,4.81,4.52c1,.92,1.84,1.78,2.56,2.58a12,12,0,0,1,1.69,2.27.78.78,0,0,1,.13.39c0,.67-.69,1.17-2.08,1.52a46.88,46.88,0,0,1-5.72-5.46c-1.3-1.39-2.42-2.56-3.34-3.5s-1.71-1.68-2.35-2.23c-.05.38-.12,1.06-.19,2s-.17,2.27-.28,3.86a31.43,31.43,0,0,1-.78,5.73,1.33,1.33,0,0,0-.44.19,1.4,1.4,0,0,1-.69.2l-.09,0-.08,0a2.41,2.41,0,0,1-1.91-2.64c0-.24,0-.5,0-.81s.07-.61.13-.93Zm8.37-17.61a3.21,3.21,0,0,0-.76-1.65,2.52,2.52,0,0,0-2-.74c-.69,0-1.13.22-1.3.66s-.11.81-.15,1.23-.07.83-.07,1.24.05,1.34.13,2.9q0,.48,0,.87c0,.26,0,.51,0,.74s0,.46,0,.69,0,.44,0,.61q3.6-2.64,4.08-5.16c0-.2.05-.39.07-.57s0-.33,0-.47Z"/><path d="M300.88,621.49c-.86-.37-1.3-.85-1.3-1.43a2.16,2.16,0,0,1,.65-1.26,1.68,1.68,0,0,1,.83-.26.92.92,0,0,0,.86-.52,8.73,8.73,0,0,0,.92-3.9q0-2.73-2.82-8.15c-1.86-3.59-2.78-6.45-2.78-8.59a10.48,10.48,0,0,1,1-4.73,7.14,7.14,0,0,1,3.34-3.43,5,5,0,0,1,1.95-.47,3.55,3.55,0,0,1,2.74,1,1.37,1.37,0,0,1,.43,1c0,.58-.42,1.08-1.26,1.52a1.19,1.19,0,0,1-.74,0,2.1,2.1,0,0,0-.65-.17.74.74,0,0,0-.52.26,7.79,7.79,0,0,0-2.34,5.72,6.84,6.84,0,0,0,.39,2.34c.06.15.36.78.91,1.91s1.35,2.74,2.39,4.82a16.44,16.44,0,0,1,2.08,7.07,9.67,9.67,0,0,1-1.17,4.59,7,7,0,0,1-1.95,1.91,4,4,0,0,1-2.26.91A1.85,1.85,0,0,1,300.88,621.49Z"/><path d="M311,620.06a1.86,1.86,0,0,1-.17-.86,1.11,1.11,0,0,1,.39-.87,1.64,1.64,0,0,1,.91-.22,5.5,5.5,0,0,1,1.12.13,2.35,2.35,0,0,1,1.74,1.08,1.4,1.4,0,0,1,.22.7,1.71,1.71,0,0,1-.7,1.26,2.08,2.08,0,0,1-1.34.6C312.17,621.88,311.45,621.28,311,620.06Zm5.12-6.85a2.38,2.38,0,0,1-1.78,1.34,2.08,2.08,0,0,1-.41.05h-.37q-1.35,0-1.35-.78.32-3.35,4-8.94t4.17-8.8v-.26a1.69,1.69,0,0,0-.33-1.05,1.11,1.11,0,0,0-.93-.43,2.36,2.36,0,0,0-1.43.87c-.41.58-1.06,1.4-1.95,2.47a8.16,8.16,0,0,0-.78,2.43,1.48,1.48,0,0,1-1.48,1.26h-.22a2,2,0,0,1-2-1.74,1.33,1.33,0,0,1,0-.34v-.35a6.4,6.4,0,0,1,1.65-4,28.87,28.87,0,0,1,3.25-3,6.15,6.15,0,0,1,1.37-.8,3.59,3.59,0,0,1,1.41-.29,5.66,5.66,0,0,1,3.08,1.09,4.39,4.39,0,0,1,1.78,2.69,8.91,8.91,0,0,1,.3,2.38,11.08,11.08,0,0,1-.61,3.5,16.55,16.55,0,0,1-1.86,3.79L317.15,611Z"/><text class="cls-15" transform="translate(55.58 347.8)">GET YOUR FIRST PERSONALIZED E-BOOK FREE</text><text class="cls-16" transform="translate(173.2 317.21)">Try us</text><path class="cls-17" d="M116.75,527.43c.68,0,1.15.49,1.41,1.46q-.28,4.93-.63,7c-.23,1.38-.42,2.59-.56,3.63s-.25,1.75-.29,2.14-.19,1.19-.42,2.39-.46,2.4-.7,3.58-.39,1.89-.44,2.12l-.91,4.36A32.18,32.18,0,0,1,113,559a1.44,1.44,0,0,1-1.41.9,2.13,2.13,0,0,1-1.58-.59,40.59,40.59,0,0,1-4.24-7.6c-.33-.78-.69-1.62-1.1-2.54s-.71-1.59-.9-2l-.44-1a60,60,0,0,0-2.83,5.94c-1.2,2.79-2.26,5-3.17,6.73a2.49,2.49,0,0,1-1.94,1.12q-2.25,0-3.42-11.94s0-.21-.07-.54-.11-.89-.19-1.71-.18-1.71-.3-2.7-.52-5.09-1.24-12.3a2.56,2.56,0,0,1,.73-1.78,2.16,2.16,0,0,1,1.61-.81c.71,0,1.2.47,1.46,1.42q1.32,15.82,2.63,23.39.39-.69,2-4.51a53.79,53.79,0,0,1,2.93-6.09c.87-1.51,1.72-2.27,2.53-2.27a1.67,1.67,0,0,1,1.41.88q3.07,8.73,5.27,12.28c0-.36.22-1.33.58-2.92l.63-3.12a3.59,3.59,0,0,1,.13-.83c.08-.36.14-.71.19-1s.11-.66.17-1l.54-3.07q1.17-7.22,1.46-11.84a2.72,2.72,0,0,1,.9-1.44A2.18,2.18,0,0,1,116.75,527.43Z"/><path class="cls-17" d="M133.66,527.53a8.28,8.28,0,0,1,5.8,2.19q4.68,4.2,4.68,13.23T139,557.16a9.73,9.73,0,0,1-6.19,2.83,8.8,8.8,0,0,1-7.21-3.17,19.39,19.39,0,0,1-3.68-7.09,28.18,28.18,0,0,1-1.1-7.58,16.83,16.83,0,0,1,3-10.28Q126.89,527.52,133.66,527.53Zm-.34,4q-6.54,0-8.14,6.19a15.19,15.19,0,0,0-.49,4.24,22.25,22.25,0,0,0,1,6c.87,3,2.17,5.2,3.9,6.43a5.76,5.76,0,0,0,3.65,1.17,5,5,0,0,0,3.85-1.93,10.45,10.45,0,0,0,2.34-4.89,28.84,28.84,0,0,0,.63-6q0-5.35-1.53-8.28A5.39,5.39,0,0,0,133.32,531.57Z"/><path class="cls-17" d="M167.72,527.67a2,2,0,0,1,1.42.66,2.15,2.15,0,0,1,.63,1.54q0,19.05.17,23c.11,2.65.17,4,.17,4.07a3.82,3.82,0,0,1-.58,2c-.39.63-.82,1-1.29,1a5.72,5.72,0,0,1-1.08-.08,4.7,4.7,0,0,1-.65-.17,1.44,1.44,0,0,1-.59-.39l-.49-.48a4,4,0,0,1-.51-.76l-.51-.9c-.13-.23-.33-.63-.61-1.2s-.88-1.73-1.8-3.48l-2.51-4.73a75.73,75.73,0,0,0-7.17-11.16q0,15.84-.87,22c-.1.78-.7,1.17-1.81,1.17a2.06,2.06,0,0,1-1.29-.39,1.49,1.49,0,0,1-.51-1.26q0-.89.37-9.65t.36-10.94v-2.76c0-2.34.18-3.65.54-4a1.73,1.73,0,0,1,1.12-.43q2.67,0,8.19,8.77,1.07,1.7,4.09,7.14c2,3.62,3.22,5.85,3.61,6.7l-.59-20.23q0-4.18.93-4.77A2.35,2.35,0,0,1,167.72,527.67Z"/><path class="cls-17" d="M174.64,558.38a1.53,1.53,0,0,1-.73-1.2,1.34,1.34,0,0,1,.54-1.09,122.19,122.19,0,0,1-.93-16q0-2.73.25-10.62a2.51,2.51,0,0,1,1-1.27,2.48,2.48,0,0,1,1.43-.54,4,4,0,0,1,.83.05,25.8,25.8,0,0,1,12.14,7.53,20,20,0,0,1,5.41,13.38q0,8.58-7.12,10.77a14.54,14.54,0,0,1-4.31.63,20.19,20.19,0,0,1-4-.34,2.38,2.38,0,0,1,.19,1,1.68,1.68,0,0,1-.8,1.27,3.1,3.1,0,0,1-1.9.61c-.73,0-1.2-.44-1.39-1.32Zm2.93-18.67a128.06,128.06,0,0,0,1,16.18,18.35,18.35,0,0,0,9.29-.58q2.55-.93,2.7-2.73a20.69,20.69,0,0,0,.15-2.1,19.16,19.16,0,0,0-3.39-11.21,21.12,21.12,0,0,0-9.48-7.4C177.65,535.7,177.57,538.32,177.57,539.71Z"/><path class="cls-17" d="M197.6,543.17a1.4,1.4,0,0,1-.69-1.26,2.4,2.4,0,0,1,.54-1.52q-.19-4.86-.19-10.28a3.16,3.16,0,0,1,.9-1.7,3.24,3.24,0,0,1,1.78-.69q6.42.3,13.93.3c1.24.26,1.86.79,1.86,1.61,0,1.36-1.34,2.16-4,2.38-.72,0-1.5,0-2.34,0h-3.17c-.62,0-2.32-.13-5.11-.39,0,4.06.06,6.86.19,8.38,1.72,0,5,.05,9.94.05,1.17.23,1.76.76,1.76,1.59a2.12,2.12,0,0,1-1.42,1.92,1.72,1.72,0,0,1-.53.2l-8.43-.15a6.26,6.26,0,0,0-1.27.1l.19,8.38a38.23,38.23,0,0,1-.14,4l11.3-.14c1,.16,1.56.6,1.56,1.31a2.25,2.25,0,0,1-.65,1.47,3,3,0,0,1-1.54.92l-12.48.2a2.23,2.23,0,0,1-1.55-.42,1.81,1.81,0,0,1-.44-1.39,34.86,34.86,0,0,0,.19-4.38v-3.41Z"/><path class="cls-17" d="M221.48,559.42a2.45,2.45,0,0,1-1.69.71c-.6,0-1-.39-1.24-1.17q-.15-6.44-.15-12.81l-.14-12.29a5,5,0,0,1,3.26-5.06,14.66,14.66,0,0,1,6.24-1.22,10.16,10.16,0,0,1,4,.9,11.54,11.54,0,0,1,3.8,2.63,5.28,5.28,0,0,1,1.69,3.75,7.11,7.11,0,0,1-1.86,4.34,19.11,19.11,0,0,1-4.58,4.09,23.53,23.53,0,0,1-5.31,2.66,49.22,49.22,0,0,1,7.9,6.8q3.36,3.63,3.36,5.63a1.6,1.6,0,0,1-.63,1.19,2.28,2.28,0,0,1-1.54.56,1.9,1.9,0,0,1-1.53-.78,16.9,16.9,0,0,0-4.07-5.43,48.08,48.08,0,0,0-7-5.44l.3,9.36A2.12,2.12,0,0,1,221.48,559.42Zm7.91-18.93c2.72-1.72,4.07-3.27,4.07-4.65a3.48,3.48,0,0,0-2-3.19,9.93,9.93,0,0,0-4.85-1.12,11.84,11.84,0,0,0-4.46.68c0,1.65-.05,5.33-.05,11A15.39,15.39,0,0,0,229.39,540.49Z"/><path class="cls-17" d="M248.81,528.36l5.41-.1c2.41,0,3.61.63,3.61,1.9a1.67,1.67,0,0,1-.2,1l-.29.42a.77.77,0,0,1-.39.24,5,5,0,0,1-1,.24,3.72,3.72,0,0,1-.54,0,13.13,13.13,0,0,1-1.8.15c-.85,0-2.07,0-3.68,0s-3.58-.07-5.92-.2v9H254a1.35,1.35,0,0,1,1,.49,1.5,1.5,0,0,1,.46,1.07c0,1.49-.63,2.24-1.9,2.24H244l.19,12.77c0,1.65-.56,2.48-1.68,2.48s-1.78-.74-2-2.24q-.15-.74-.17-12.4T240.29,532c-1.21.13-1.81-.55-1.81-2a2.43,2.43,0,0,1,.49-1.3c.32-.47.61-.72.85-.75a7.88,7.88,0,0,1,.93,0c.37,0,1.29.07,2.75.2C245.52,528.26,247.29,528.36,248.81,528.36Z"/><path class="cls-17" d="M278,528.26a2,2,0,0,1,1.51-.78,1.71,1.71,0,0,1,1.41.83,49.92,49.92,0,0,1,.83,9.5v3.71a42.31,42.31,0,0,1-.15,4.94c-.09.51-.19,1.07-.29,1.68s-.19,1.09-.27,1.42-.2.76-.36,1.31a11.37,11.37,0,0,1-1.51,3.22,11.54,11.54,0,0,1-3.85,4.29,8.81,8.81,0,0,1-4.85,1.56,8.09,8.09,0,0,1-5.07-2.15,16.8,16.8,0,0,1-4.27-5.36A25,25,0,0,1,258.56,541q0-2.29.68-10.87a4,4,0,0,1,1.05-1.39,2.23,2.23,0,0,1,1.44-.61c.71,0,1.15.49,1.31,1.47-.45,5.62-.68,9.17-.68,10.67a20.73,20.73,0,0,0,2.1,9.5,15.23,15.23,0,0,0,3.24,4.56,5.59,5.59,0,0,0,3.78,1.83c2,0,3.8-1.6,5.26-4.78a12,12,0,0,0,1-5.31,6.14,6.14,0,0,1,.1-1.37l.1-6.43a44.86,44.86,0,0,0-.69-8.19A2.64,2.64,0,0,1,278,528.26Z"/><path class="cls-17" d="M285,553.16l0-3.8.44-20.37a1,1,0,0,1,.63-.92,3.37,3.37,0,0,1,1.61-.35c1.56,0,2.34.56,2.34,1.66q0,.54-.56,8.19t-.56,9.16v5.17c0,2.43.16,3.77.49,4a5.44,5.44,0,0,0,1.7.25l7-.49c1.53,0,2.29.55,2.29,1.65a2,2,0,0,1-1.24,1.93,6.41,6.41,0,0,1-2.46.68c-.81.05-1.8.08-3,.08-5.11,0-7.87-.17-8.29-.49q-.34-.3-.39-2.22c0-1.28-.06-2.18-.07-2.7S285,553.59,285,553.16Z"/></svg>